<?xml version="1.0" encoding="UTF-8"?><svg id="Layer_1" xmlns="http://www.w3.org/2000/svg" viewBox="0 0 174.43 174.44"><defs><style>.cls-1{fill:#8e8acd;}.cls-2{fill:#fff;}</style></defs><path class="cls-1" d="M87.22,174.44c48.16,0,87.21-39.05,87.21-87.22S135.38,0,87.22,0,0,39.05,0,87.22s39.05,87.22,87.22,87.22Z"/><path class="cls-2" d="M65.77,88.34l-43.17-.09c.06-5.35-.18-15.97,7.68-31.98,7.87-16,21.81-23.48,24.66-25.35l23.08,36.18c-.64.33-6.26,3.06-9.26,8.38-2.99,5.32-3.2,10.04-2.96,12.86h-.03ZM105.67,75.45c2.24,3.75,3.27,7.71,3.08,11.83l43.11-1.78c-.09-11.16-3.21-21.78-9.35-32.01-6.38-10.65-14.7-18.61-25.04-23.96l-21.6,37.3c4.11,1.76,7.41,4.63,9.8,8.62ZM121.79,140.77l-21.48-37.24c-.66.45-5.92,4.45-12.25,4.45s-10.46-2.15-12.34-3.33l-19.9,38.21c4.41,2.15,14.91,8.14,33.33,8.14,16.7,0,30.04-8.62,32.64-10.2v-.03ZM97.35,86.65c0,5.78-4.69,10.44-10.44,10.44s-10.43-4.69-10.43-10.44,4.69-10.44,10.43-10.44,10.44,4.69,10.44,10.44Z"/></svg>