<?xml version="1.0" encoding="UTF-8"?><svg id="Layer_1" xmlns="http://www.w3.org/2000/svg" viewBox="0 0 181.87 181.89"><defs><style>.cls-1{fill:#c84281;}.cls-2{fill:#fff;}</style></defs><path class="cls-1" d="M90.93,181.89c50.22,0,90.93-40.72,90.93-90.94S141.15,0,90.93,0,0,40.72,0,90.94s40.71,90.94,90.93,90.94Z"/><path class="cls-2" d="M127.26,100.47c.12-1.03.18-2.12.18-3.33,0-7.23-2.24-11.13-4.02-14.25-1.51-2.63-2.6-4.6-2.69-8.8h6.75l-12.01-17.4-12.01,17.4h7.17c.09,6.9,2.24,10.71,3.99,13.8,1.48,2.57,2.54,4.51,2.66,8.53-6.47-2.21-13.19-3.63-19.94-4.27-.73-4.18-2.3-6.93-3.6-9.26-1.51-2.63-2.6-4.6-2.69-8.8h6.75l-12.01-17.4-12.01,17.4h7.17c.09,6.9,2.24,10.71,3.99,13.8.76,1.33,1.42,2.51,1.91,3.87-6.35.15-12.68,1.03-18.91,2.54-.48-5.45-2.36-8.74-3.9-11.44-1.51-2.63-2.6-4.6-2.69-8.8h6.75l-12.01-17.4-12.01,17.4h7.17c.09,6.9,2.24,10.71,3.99,13.79,1.57,2.75,2.69,4.72,2.69,9.26v.27c-10.35,3.93-20.12,9.92-28.68,18l6.29,6.66c5.54-5.23,11.68-9.47,18.15-12.77-1.3,2.72-2.48,6.17-2.48,11.38h10.07c0-4.54,1.12-6.54,2.69-9.26,1.12-1.97,2.42-4.24,3.24-7.44,6.53-1.88,13.25-2.93,20-3.09-.45,2.15-1.3,3.66-2.36,5.51-1.78,3.15-4.02,7.05-4.02,14.25h10.07c0-4.54,1.12-6.53,2.69-9.26,1.39-2.45,3.06-5.42,3.72-10.08,6.02.64,11.98,2,17.73,4.02-.18.33-.39.67-.57,1.03-1.78,3.15-4.02,7.05-4.02,14.25h10.07c0-4.54,1.12-6.53,2.69-9.26.36-.64.76-1.33,1.12-2.06,7.71,3.93,14.91,9.23,21.18,15.85l6.65-6.29c-7.41-7.83-15.94-14.01-25.14-18.45l.24.09Z"/></svg>