<?xml version="1.0" encoding="UTF-8"?><svg id="Layer_1" xmlns="http://www.w3.org/2000/svg" viewBox="0 0 345.49 293.62"><defs><style>.cls-1{fill:#00a91c;}.cls-2{fill:#1d1d1b;}.cls-3{fill:#1b1b1b;}</style></defs><path class="cls-3" d="M107.5,8.15c0-4.5-3.82-8.15-8.32-8.15H25.47c-4.53,0-8.18,3.65-8.18,8.18v26.12h90.21V8.15Z"/><path class="cls-3" d="M107.5,54.72H17.29v28.98h90.21v-28.98Z"/><path class="cls-2" d="M335.27,273.16h-17.39V104.16c0-3.38-3.89-5.32-6.58-3.27,0,0-67.16,50.73-96.82,73.03v-19.57l.85-50.09c.07-3.41-3.82-5.39-6.55-3.34,0,0-72.85,54.31-101.28,75.45v-72.21H17.29v169.01h-7.06c-5.66,0-10.23,4.57-10.23,10.23s4.57,10.23,10.23,10.23h325.04c5.65,0,10.22-4.57,10.22-10.23s-4.57-10.23-10.22-10.23ZM155.53,269.17c-18.41-5.08-31.94-21.96-31.94-41.94,0-24,19.5-43.5,43.5-43.5,1.29,0,2.59.07,3.89.17l-4.47,7.94c-19.26.31-34.81,16.06-34.81,35.35,0,16.06,10.74,29.63,25.43,33.96l-1.6,8.01ZM146.05,235.08l30.04-53.66-7.54,37.95h19.57l-30.03,53.66,7.53-37.95h-19.57ZM167.09,270.74c-1.3,0-2.59-.07-3.89-.17l4.47-7.94c19.26-.31,34.81-16.06,34.81-35.36,0-16.06-10.74-29.63-25.44-33.96l1.61-8.01c18.41,5.08,31.94,21.96,31.94,41.94,0,24-19.5,43.51-43.5,43.51Z"/><path class="cls-1" d="M188.09,219.36h-19.57l7.57-37.95-30.04,53.67h19.57l-7.53,37.95,30-53.66Z"/><path class="cls-1" d="M210.59,227.2c0-19.98-13.57-36.86-31.94-41.94l-1.61,8.01c14.66,4.33,25.44,17.9,25.44,33.96,0,19.33-15.58,35.05-34.81,35.36l-4.47,7.94c1.3.1,2.59.17,3.89.17,24,0,43.5-19.5,43.5-43.51Z"/><path class="cls-1" d="M166.51,191.85l4.47-7.94c-1.3-.1-2.6-.17-3.89-.17-24,0-43.5,19.5-43.5,43.5,0,19.98,13.57,36.86,31.94,41.94l1.6-8.01c-14.66-4.33-25.43-17.9-25.43-33.96,0-19.33,15.58-35.05,34.81-35.35Z"/></svg>