<?xml version="1.0" encoding="UTF-8"?><svg id="Layer_1" xmlns="http://www.w3.org/2000/svg" viewBox="0 0 345.49 293.62"><defs><style>.cls-1{fill:#1d1d1b;}.cls-2{fill:#1b1b1b;}</style></defs><path class="cls-2" d="M107.49,8.15c0-4.5-3.82-8.15-8.32-8.15H25.47c-4.54,0-8.19,3.65-8.19,8.18v26.12h90.21V8.15Z"/><path class="cls-2" d="M107.49,54.72H17.28v28.98h90.21v-28.98Z"/><path class="cls-1" d="M335.26,273.16h-17.39V104.16c0-3.37-3.88-5.32-6.58-3.27,0,0-67.16,50.73-96.82,73.03v-19.57l.86-50.08c.06-3.41-3.82-5.39-6.55-3.34,0,0-72.86,54.31-101.29,75.45v-72.21H17.28v169.01h-7.05c-5.66,0-10.23,4.57-10.23,10.23s4.57,10.23,10.23,10.23h325.03c5.66,0,10.23-4.57,10.23-10.23s-4.57-10.23-10.23-10.23ZM155.49,269.14c-18.41-5.08-31.94-21.96-31.94-41.94,0-24,19.5-43.5,43.5-43.5,1.3,0,2.59.07,3.89.17l-4.47,7.94c-19.26.31-34.81,16.06-34.81,35.36,0,16.06,10.74,29.63,25.44,33.96l-1.61,8.01ZM146.05,235.05l30.03-53.66-7.53,37.95h19.57l-30.04,53.66,7.54-37.95h-19.57ZM167.05,270.71c-1.29,0-2.59-.07-3.89-.17l4.47-7.94c19.26-.31,34.81-16.06,34.81-35.35,0-16.06-10.74-29.63-25.43-33.96l1.6-8.01c18.41,5.08,31.94,21.96,31.94,41.94,0,24-19.5,43.5-43.5,43.5Z"/></svg>