<svg width="820" height="512" viewBox="0 0 820 512" fill="none" xmlns="http://www.w3.org/2000/svg">
<rect x="1" y="1" width="818" height="510" rx="4" fill="white" stroke="#1B1B1B" stroke-width="2"/>
<path d="M621 54H819V447H621V54Z" fill="#E6E6E6"/>
<mask id="mask0_1279_10972" style="mask-type:alpha" maskUnits="userSpaceOnUse" x="1" y="54" width="817" height="393">
<rect x="1.5" y="54.5" width="816" height="392" rx="4.5" fill="white" stroke="#1B1B1B"/>
</mask>
<g mask="url(#mask0_1279_10972)">
<path d="M1 93.5L12 102L13 447H1V93.5Z" fill="#E6E6E6"/>
<path d="M58.7885 101.885L32.278 110.489L9.6973 101.113L3.65066 350.109L-4.04367 375.145L-5.09494 384.979L4.97195 403.46L4.60402 406.902L2.64238 411.168L6.10874 420.987L3.35897 432.628L-5.525 440.63L-14.1819 460.591L-35.8197 484.634L-39.9951 518.999L-44.9561 518.468L-41.4901 528.288L-36.4533 532.804L-32.9511 528.206L-35.5303 519.476L-12.4466 519.457L-12.0854 525.463L-6.73318 527.03L-4.27587 522.817L-6.56905 516.107L-4.66031 512.333L1.36848 516.956L10.0126 515.891L18.131 519.743L33.8948 531.871L44.2964 519.059L62.8164 510.098L75.9649 527.915L85.0063 518.438L87.9137 505.322L107.975 496.029L108.284 502.526L117.079 509.434L132.067 510.042L138.388 507.237L140.671 490.573L155.019 473.707L180.153 454.513L180.55 446.101L188.501 428.054L198.889 434.137L234.494 415.565L233.403 406.995L227.065 395.874L233.025 387.062L230.348 102.323L230.588 95.3867L68.0633 94.9199L58.7885 101.885Z" fill="#E6E6E6" stroke="#565C65" stroke-width="3" stroke-linejoin="round"/>
<path d="M313.95 666.66L211.6 662.728L185.402 663.933L98.6291 659.663L85.3189 662.246L-27.7577 660.172L-30.9098 656.83L-49.2488 654.87L-44.9947 671.348L-48.4449 675.485L-164.726 670.565L-158.341 657.728L-151.878 662.925L-148.197 661.316L-140.079 641.655L-144.506 636.174L-138.491 626.803L-137.023 622.453L-143.043 617.804L-143.578 608.734L-121.794 592.537L-89.1811 611.045L-81.5875 610.354L-78.3346 598.685L-85.8081 588.873L-82.0792 572.748L-76.858 570.803L-71.2276 574.409L-67.6184 568.786L-48.9619 567.776L-47.9898 563.374L-54.2602 551.688L-54.1739 546.189L-41.8405 533.989L-41.3642 529.533L-36.3352 534.076L-32.8321 529.444L-35.402 520.657L-12.3371 520.619L-11.9812 526.666L-6.63465 528.239L-4.17587 523.995L-6.46167 517.242L-4.55138 513.44L1.46868 518.089L10.1066 517.01L18.2152 520.881L33.9562 533.079L44.3597 520.171L62.872 511.134L75.9951 529.061L85.0369 519.513L87.9528 506.305L108.005 496.932L108.308 503.474L117.091 510.422L132.066 511.021L138.384 508.192L140.679 491.413L155.029 474.42L180.158 455.075L180.562 446.606L188.521 428.43L198.896 434.547L234.487 415.819L233.404 407.191L227.08 396L233.042 387.124L239.221 390.288L250.073 391.949L259.914 388.996L273.652 396.473L282.757 414.47L282.228 419.421L302.179 425.059L313.685 425.287L321.991 436.69L332.79 438.846L333.319 433.896L343.16 430.942L357.606 436.492L363.131 441.088L369.945 438.312L374.405 438.789L378.279 430.691L396.084 423.582L398.139 427.807L400.569 442.587L417.176 451.373L422.013 462.405L420.935 467.797L423.38 473.066L418.5 490.57L427.071 499.498L430.454 505.367L435.093 508.867L434.121 513.27L452.966 543.324L459.905 544.066L466.387 553.772L472.177 555.893L479.169 556.14L451.388 586.217L436.485 589.631L420.028 602.893L416.881 613.572L405.784 618.895L404.389 627.258L396.709 633.447L387.522 634.969L384.038 644.11L378.87 645.56L342.447 662.696L313.95 666.66ZM-177.772 670.672L-180.871 666.836L-179.351 661.991L-173.898 662.574L-170.799 666.41L-172.816 671.202L-177.772 670.672Z" fill="#E6E6E6" stroke="#565C65" stroke-width="3" stroke-linejoin="round"/>
<path d="M230.822 94.8576L230.577 101.844L338.551 95.8554L341.666 90.1777L364.13 63.0258L366.407 41.7304L371.485 31.7543L382.819 28.9586L396.866 -8.61007L402.09 -10.5561L406.731 -7.05453L405.422 -4.18907L399.543 -0.810259L400.555 3.80596L404.31 6.21093L414.473 0.284879L421.645 -48.037L414.929 -60.2759L410.937 -79.236L412.261 -91.6171L403.185 -114.627L404.138 -123.542L399.934 -140.521L390.117 -156.597L376.265 -163.087L350.874 -150.775L336.041 -129.319L334.573 -124.968L317.843 -109.225L310.511 -111.01L297.612 -126.414L298.916 -143.306L307.361 -151.92L317.384 -151.85L324.235 -159.633L327.345 -179.337L331.736 -182.875L337.243 -182.787L342.606 -190.729L346.697 -238.378L345.898 -244.976L340.583 -251.555L332.682 -257.408L333.139 -266.376L336.928 -268.976L345.43 -264.06L344.843 -272.638L336.85 -287.017L334.226 -295.312L329.354 -301.343L318.444 -302.509L279.812 -321.165L273.77 -330.327L258.556 -333.456L252.446 -332.606L231.845 -346.33L224.902 -347.072L226.852 -341.854L213.516 -343.781L213.694 -340.756L216.352 -337.467L202.843 -328.392L202.386 -319.425L208.606 -307.239L215.939 -305.453L215.621 -302.482L207.918 -300.801L197.557 -302.409L182.349 -291.513L181.521 -279.078L180.434 -250.142L167.724 -234.47L174.073 -256.332L170.424 -259.728L163.155 -233.957L159.414 -245.878L163.111 -257.003L161.161 -262.221L164.825 -268.341L162.431 -274.107L167.92 -278.529L168.555 -284.472L161.791 -282.19L153.703 -267.526L149.861 -264.431L142.144 -253.234L133.82 -255.126L132.689 -249.236L124.754 -250.084L124.952 -242.549L124.885 -232.538L109.373 -228.186L109.18 -221.695L113.239 -212.745L109.99 -187.046L101.214 -165.944L91.46 -154.464L96.6696 -146.895L98.7836 -129.137L92.501 -117.286L90.3974 -106.992L97.0275 -89.2525L106.831 -63.6601L111.775 -53.6143L116.056 -18.5943L110.901 24.9342L104.373 43.7716L92.7613 58.5592L86.3392 76.4059L74.833 90.203L68.3531 94.5193L230.822 94.8576ZM124.691 -277.64L124.161 -272.688L133.728 -263.651L134.007 -275.643L124.691 -277.64ZM119.737 -264.145L125.139 -263.066L124.662 -258.609L119.703 -259.139L119.737 -264.145Z" fill="#E6E6E6" stroke="#565C65" stroke-width="3" stroke-linejoin="round"/>
<path d="M341.92 98.3982L351.545 97.4157L365.715 105.468L375.799 109.563L378.788 114.408L383.741 114.938L389.492 108.01L395.507 112.676L402.937 113.47L401.91 118.389L386.288 119.233L375.796 123.643L384.783 128.626L393.506 122.016L405.608 121.298L415.708 129.921L423.192 130.218L436.479 123.09L455.429 114.556L481.347 115.818L508.756 89.0796L529.228 75.6796L578.007 55.2486L586.388 206.499L574.852 211.3L580.671 222.482L579.006 233.367L580.915 243.629L573.659 259.95L570.294 286.745L563.427 304.113L565.319 309.847L562.168 320.573L556.453 322.477L544.792 337.824L534.812 346.815L531.84 346.497L522.02 353.996L516.218 347.341L507.831 355.496L505.707 361.303L499.267 360.615L491.658 370.864L491.037 381.358L485.818 383.314L492.169 389.524L491.159 398.971L486.099 399.436L482.206 403.042L476.987 404.999L475.13 394.24L467.47 390.907L461.294 401.812L458.639 412.591L452.499 418.472L457.025 437.059L449.17 440.242L445.328 457.431L437.897 456.637L421.301 461.903L416.473 450.827L399.88 442.013L397.458 427.171L395.406 422.929L377.607 430.077L373.732 438.212L369.273 437.735L362.461 440.527L356.942 435.914L342.507 430.348L332.669 433.319L332.138 438.291L321.346 436.131L313.051 424.684L301.551 424.461L281.613 418.809L282.144 413.837L273.054 395.768L259.326 388.267L249.489 391.238L238.644 389.575L232.47 386.401L230.178 98.5209L338.047 92.4526L341.92 98.3982Z" fill="#E6E6E6" stroke="#565C65" stroke-width="3" stroke-linejoin="round"/>
<path d="M1047.69 77.9126L1038.15 78.4073L1024.51 65.8406L1012.79 35.3016L1002.92 34.2458L1001.74 26.5462L993.933 20.1573L638.386 52.3329L637.638 21.9569L615.084 36.7134L610.587 36.7376L595.653 50.2891L578.45 57.0339L586.688 208.89L591.976 308.927L679.445 303.635L984.491 276.664L991.537 266.814L999.531 262.114L1007.59 261.461L1015.17 265.301L1022.99 257.553L1031.21 255.403L1041.7 241.376L1050.83 230.738L1068.52 219.501L1049.48 201.308L1039.7 194.708L1036.26 180.202L1023.41 174.283L1022.86 156.047L1028.33 151.583L1032.85 141.968L1026.41 132.19L1044.1 106.815L1044.78 95.7793L1055.01 84.2488L1047.69 77.9126Z" fill="#E6E6E6" stroke="#565C65" stroke-width="3" stroke-linejoin="round"/>
<path d="M481.351 558.677L476.749 564.204L483.814 568.471L483.515 575.963L504.108 589.702L515.564 590.425L525.938 582.505L530.805 574.498L544.724 585.015L573.263 576.027L576.219 571.828L572.518 568.925L576.235 562.299L583.141 568.054L606.102 554.959L608.989 560.785L621.452 552.085L621.698 545.089L630.142 536.461L623.342 529.714L630.049 513.878L651.733 484.595L650.757 474.96L662.334 465.162L661.147 457.511L668.989 449.821L671.976 426.565L683.008 431.256L688.445 441.368L702.061 445.331L709.354 438.085L725.264 397.149L736.579 403.876L742.862 392.008L747.748 388.517L755.643 380.332L760.529 376.841L764.121 366.692L770.494 363.36L771.536 348.925L776.721 337.942L773.108 329.53L774.577 325.172L821.396 356.261L825.094 345.12L827.925 337.396L830.279 334.137L826.03 331.676L827.869 323.847L823.177 320.837L822.556 317.26L819.086 316.889L815.756 310.513L817.278 305.66L804.176 306.266L794.118 297.164L787.018 297.91L781.814 304.376L775.369 303.687L765.404 317.169L748.832 317.404L739.942 311.437L725.038 328.905L714.29 326.251L696.854 343.95L691.544 351.408L681.772 358.39L679.388 300.951L591.589 306.111L586.169 206.714L574.626 211.499L580.454 222.656L578.791 233.514L580.705 243.751L573.45 260.03L570.091 286.758L563.224 304.082L565.12 309.803L561.971 320.501L556.252 322.398L544.587 337.704L534.603 346.669L531.629 346.351L521.803 353.828L515.995 347.188L507.604 355.32L505.481 361.112L499.036 360.423L491.425 370.645L490.807 381.113L485.584 383.063L491.942 389.26L490.934 398.683L485.871 399.145L481.976 402.742L476.753 404.691L474.892 393.958L467.225 390.631L461.048 401.507L458.395 412.259L452.252 418.124L456.788 436.667L448.928 439.839L445.089 456.985L437.652 456.19L421.046 461.437L419.967 466.84L422.411 472.117L417.528 489.654L426.099 498.596L429.482 504.475L434.121 507.981L433.148 512.391L451.993 542.496L458.933 543.238L465.415 552.96L471.205 555.084L478.199 555.33L481.351 558.677Z" fill="#E6E6E6" stroke="#565C65" stroke-width="3" stroke-linejoin="round"/>
<circle cx="294" cy="400" r="8.5" fill="white" stroke="#4D8055"/>
<path d="M294.5 396.436H293.619C293.593 396.436 293.572 396.457 293.572 396.482V406.17C293.572 406.196 293.593 406.217 293.619 406.217H294.5C294.526 406.217 294.547 406.196 294.547 406.17V396.482C294.547 396.457 294.526 396.436 294.5 396.436Z" fill="#4D8055"/>
<path d="M297.184 397.49C296.27 397.785 295.049 397.227 295.042 397.424C295.042 397.424 295.276 396.039 296.232 395.641C296.903 395.362 298.133 395.896 298.374 395.707C298.374 395.707 298.168 397.171 297.184 397.49Z" fill="#4D8055"/>
<path d="M297.184 399.875C296.27 400.17 295.049 399.612 295.042 399.809C295.042 399.809 295.276 398.424 296.232 398.026C296.903 397.747 298.133 398.281 298.374 398.091C298.374 398.091 298.168 399.556 297.184 399.875Z" fill="#4D8055"/>
<path d="M297.184 402.259C296.27 402.555 295.049 401.997 295.042 402.194C295.042 402.194 295.276 400.809 296.232 400.411C296.903 400.132 298.133 400.666 298.374 400.476C298.374 400.476 298.168 401.941 297.184 402.259Z" fill="#4D8055"/>
<path d="M290.937 397.49C291.851 397.785 293.073 397.227 293.08 397.424C293.08 397.424 292.845 396.039 291.889 395.641C291.219 395.362 289.988 395.896 289.747 395.707C289.747 395.707 289.953 397.171 290.937 397.49Z" fill="#4D8055"/>
<path d="M290.937 399.875C291.851 400.17 293.073 399.612 293.08 399.809C293.08 399.809 292.845 398.424 291.889 398.026C291.219 397.747 289.988 398.281 289.747 398.091C289.747 398.091 289.953 399.556 290.937 399.875Z" fill="#4D8055"/>
<path d="M290.937 402.259C291.851 402.555 293.073 401.997 293.08 402.194C293.08 402.194 292.845 400.809 291.889 400.411C291.219 400.132 289.988 400.666 289.747 400.476C289.747 400.476 289.953 401.941 290.937 402.259Z" fill="#4D8055"/>
<circle cx="383" cy="358" r="8.5" fill="white" stroke="#4D8055"/>
<path d="M383.5 354.436H382.619C382.593 354.436 382.572 354.457 382.572 354.482V364.17C382.572 364.196 382.593 364.217 382.619 364.217H383.5C383.526 364.217 383.547 364.196 383.547 364.17V354.482C383.547 354.457 383.526 354.436 383.5 354.436Z" fill="#4D8055"/>
<path d="M386.184 355.49C385.27 355.785 384.049 355.227 384.042 355.424C384.042 355.424 384.276 354.039 385.232 353.641C385.903 353.362 387.133 353.896 387.374 353.707C387.374 353.707 387.168 355.171 386.184 355.49Z" fill="#4D8055"/>
<path d="M386.184 357.875C385.27 358.17 384.049 357.612 384.042 357.809C384.042 357.809 384.276 356.424 385.232 356.026C385.903 355.747 387.133 356.281 387.374 356.091C387.374 356.091 387.168 357.556 386.184 357.875Z" fill="#4D8055"/>
<path d="M386.184 360.259C385.27 360.555 384.049 359.997 384.042 360.194C384.042 360.194 384.276 358.809 385.232 358.411C385.903 358.132 387.133 358.666 387.374 358.476C387.374 358.476 387.168 359.941 386.184 360.259Z" fill="#4D8055"/>
<path d="M379.937 355.49C380.851 355.785 382.073 355.227 382.08 355.424C382.08 355.424 381.845 354.039 380.889 353.641C380.219 353.362 378.988 353.896 378.747 353.707C378.747 353.707 378.953 355.171 379.937 355.49Z" fill="#4D8055"/>
<path d="M379.937 357.875C380.851 358.17 382.073 357.612 382.08 357.809C382.08 357.809 381.845 356.424 380.889 356.026C380.219 355.747 378.988 356.281 378.747 356.091C378.747 356.091 378.953 357.556 379.937 357.875Z" fill="#4D8055"/>
<path d="M379.937 360.259C380.851 360.555 382.073 359.997 382.08 360.194C382.08 360.194 381.845 358.809 380.889 358.411C380.219 358.132 378.988 358.666 378.747 358.476C378.747 358.476 378.953 359.941 379.937 360.259Z" fill="#4D8055"/>
<circle cx="443" cy="286" r="8.5" fill="white" stroke="#4D8055"/>
<path d="M443.5 282.436H442.619C442.593 282.436 442.572 282.457 442.572 282.482V292.17C442.572 292.196 442.593 292.217 442.619 292.217H443.5C443.526 292.217 443.547 292.196 443.547 292.17V282.482C443.547 282.457 443.526 282.436 443.5 282.436Z" fill="#4D8055"/>
<path d="M446.184 283.49C445.27 283.785 444.049 283.227 444.042 283.424C444.042 283.424 444.276 282.039 445.232 281.641C445.903 281.362 447.133 281.896 447.374 281.707C447.374 281.707 447.168 283.171 446.184 283.49Z" fill="#4D8055"/>
<path d="M446.184 285.875C445.27 286.17 444.049 285.612 444.042 285.809C444.042 285.809 444.276 284.424 445.232 284.026C445.903 283.747 447.133 284.281 447.374 284.091C447.374 284.091 447.168 285.556 446.184 285.875Z" fill="#4D8055"/>
<path d="M446.184 288.259C445.27 288.555 444.049 287.997 444.042 288.194C444.042 288.194 444.276 286.809 445.232 286.411C445.903 286.132 447.133 286.666 447.374 286.476C447.374 286.476 447.168 287.941 446.184 288.259Z" fill="#4D8055"/>
<path d="M439.937 283.49C440.851 283.785 442.073 283.227 442.08 283.424C442.08 283.424 441.845 282.039 440.889 281.641C440.219 281.362 438.988 281.896 438.747 281.707C438.747 281.707 438.953 283.171 439.937 283.49Z" fill="#4D8055"/>
<path d="M439.937 285.875C440.851 286.17 442.073 285.612 442.08 285.809C442.08 285.809 441.845 284.424 440.889 284.026C440.219 283.747 438.988 284.281 438.747 284.091C438.747 284.091 438.953 285.556 439.937 285.875Z" fill="#4D8055"/>
<path d="M439.937 288.259C440.851 288.555 442.073 287.997 442.08 288.194C442.08 288.194 441.845 286.809 440.889 286.411C440.219 286.132 438.988 286.666 438.747 286.476C438.747 286.476 438.953 287.941 439.937 288.259Z" fill="#4D8055"/>
<circle cx="360" cy="132" r="8.5" fill="white" stroke="#4D8055"/>
<path d="M360.5 128.436H359.619C359.593 128.436 359.572 128.457 359.572 128.482V138.17C359.572 138.196 359.593 138.217 359.619 138.217H360.5C360.526 138.217 360.547 138.196 360.547 138.17V128.482C360.547 128.457 360.526 128.436 360.5 128.436Z" fill="#4D8055"/>
<path d="M363.184 129.49C362.27 129.785 361.049 129.227 361.042 129.424C361.042 129.424 361.276 128.039 362.232 127.641C362.903 127.362 364.133 127.896 364.374 127.707C364.374 127.707 364.168 129.171 363.184 129.49Z" fill="#4D8055"/>
<path d="M363.184 131.875C362.27 132.17 361.049 131.612 361.042 131.809C361.042 131.809 361.276 130.424 362.232 130.026C362.903 129.747 364.133 130.281 364.374 130.091C364.374 130.091 364.168 131.556 363.184 131.875Z" fill="#4D8055"/>
<path d="M363.184 134.259C362.27 134.555 361.049 133.997 361.042 134.194C361.042 134.194 361.276 132.809 362.232 132.411C362.903 132.132 364.133 132.666 364.374 132.476C364.374 132.476 364.168 133.941 363.184 134.259Z" fill="#4D8055"/>
<path d="M356.937 129.49C357.851 129.785 359.073 129.227 359.08 129.424C359.08 129.424 358.845 128.039 357.889 127.641C357.219 127.362 355.988 127.896 355.747 127.707C355.747 127.707 355.953 129.171 356.937 129.49Z" fill="#4D8055"/>
<path d="M356.937 131.875C357.851 132.17 359.073 131.612 359.08 131.809C359.08 131.809 358.845 130.424 357.889 130.026C357.219 129.747 355.988 130.281 355.747 130.091C355.747 130.091 355.953 131.556 356.937 131.875Z" fill="#4D8055"/>
<path d="M356.937 134.259C357.851 134.555 359.073 133.997 359.08 134.194C359.08 134.194 358.845 132.809 357.889 132.411C357.219 132.132 355.988 132.666 355.747 132.476C355.747 132.476 355.953 133.941 356.937 134.259Z" fill="#4D8055"/>
<circle cx="272" cy="127" r="8.5" fill="white" stroke="#4D8055"/>
<path d="M272.5 123.436H271.619C271.593 123.436 271.572 123.457 271.572 123.482V133.17C271.572 133.196 271.593 133.217 271.619 133.217H272.5C272.526 133.217 272.547 133.196 272.547 133.17V123.482C272.547 123.457 272.526 123.436 272.5 123.436Z" fill="#4D8055"/>
<path d="M275.184 124.49C274.27 124.785 273.049 124.227 273.042 124.424C273.042 124.424 273.276 123.039 274.232 122.641C274.903 122.362 276.133 122.896 276.374 122.707C276.374 122.707 276.168 124.171 275.184 124.49Z" fill="#4D8055"/>
<path d="M275.184 126.875C274.27 127.17 273.049 126.612 273.042 126.809C273.042 126.809 273.276 125.424 274.232 125.026C274.903 124.747 276.133 125.281 276.374 125.091C276.374 125.091 276.168 126.556 275.184 126.875Z" fill="#4D8055"/>
<path d="M275.184 129.259C274.27 129.555 273.049 128.997 273.042 129.194C273.042 129.194 273.276 127.809 274.232 127.411C274.903 127.132 276.133 127.666 276.374 127.476C276.374 127.476 276.168 128.941 275.184 129.259Z" fill="#4D8055"/>
<path d="M268.937 124.49C269.851 124.785 271.073 124.227 271.08 124.424C271.08 124.424 270.845 123.039 269.889 122.641C269.219 122.362 267.988 122.896 267.747 122.707C267.747 122.707 267.953 124.171 268.937 124.49Z" fill="#4D8055"/>
<path d="M268.937 126.875C269.851 127.17 271.073 126.612 271.08 126.809C271.08 126.809 270.845 125.424 269.889 125.026C269.219 124.747 267.988 125.281 267.747 125.091C267.747 125.091 267.953 126.556 268.937 126.875Z" fill="#4D8055"/>
<path d="M268.937 129.259C269.851 129.555 271.073 128.997 271.08 129.194C271.08 129.194 270.845 127.809 269.889 127.411C269.219 127.132 267.988 127.666 267.747 127.476C267.747 127.476 267.953 128.941 268.937 129.259Z" fill="#4D8055"/>
<circle cx="400" cy="152" r="8.5" fill="white" stroke="#4D8055"/>
<path d="M400.5 148.436H399.619C399.593 148.436 399.572 148.457 399.572 148.482V158.17C399.572 158.196 399.593 158.217 399.619 158.217H400.5C400.526 158.217 400.547 158.196 400.547 158.17V148.482C400.547 148.457 400.526 148.436 400.5 148.436Z" fill="#4D8055"/>
<path d="M403.184 149.49C402.27 149.785 401.049 149.227 401.042 149.424C401.042 149.424 401.276 148.039 402.232 147.641C402.903 147.362 404.133 147.896 404.374 147.707C404.374 147.707 404.168 149.171 403.184 149.49Z" fill="#4D8055"/>
<path d="M403.184 151.875C402.27 152.17 401.049 151.612 401.042 151.809C401.042 151.809 401.276 150.424 402.232 150.026C402.903 149.747 404.133 150.281 404.374 150.091C404.374 150.091 404.168 151.556 403.184 151.875Z" fill="#4D8055"/>
<path d="M403.184 154.259C402.27 154.555 401.049 153.997 401.042 154.194C401.042 154.194 401.276 152.809 402.232 152.411C402.903 152.132 404.133 152.666 404.374 152.476C404.374 152.476 404.168 153.941 403.184 154.259Z" fill="#4D8055"/>
<path d="M396.937 149.49C397.851 149.785 399.073 149.227 399.08 149.424C399.08 149.424 398.845 148.039 397.889 147.641C397.219 147.362 395.988 147.896 395.747 147.707C395.747 147.707 395.953 149.171 396.937 149.49Z" fill="#4D8055"/>
<path d="M396.937 151.875C397.851 152.17 399.073 151.612 399.08 151.809C399.08 151.809 398.845 150.424 397.889 150.026C397.219 149.747 395.988 150.281 395.747 150.091C395.747 150.091 395.953 151.556 396.937 151.875Z" fill="#4D8055"/>
<path d="M396.937 154.259C397.851 154.555 399.073 153.997 399.08 154.194C399.08 154.194 398.845 152.809 397.889 152.411C397.219 152.132 395.988 152.666 395.747 152.476C395.747 152.476 395.953 153.941 396.937 154.259Z" fill="#4D8055"/>
<circle cx="433" cy="155" r="8.5" fill="white" stroke="#4D8055"/>
<path d="M433.5 151.436H432.619C432.593 151.436 432.572 151.457 432.572 151.482V161.17C432.572 161.196 432.593 161.217 432.619 161.217H433.5C433.526 161.217 433.547 161.196 433.547 161.17V151.482C433.547 151.457 433.526 151.436 433.5 151.436Z" fill="#4D8055"/>
<path d="M436.184 152.49C435.27 152.785 434.049 152.227 434.042 152.424C434.042 152.424 434.276 151.039 435.232 150.641C435.903 150.362 437.133 150.896 437.374 150.707C437.374 150.707 437.168 152.171 436.184 152.49Z" fill="#4D8055"/>
<path d="M436.184 154.875C435.27 155.17 434.049 154.612 434.042 154.809C434.042 154.809 434.276 153.424 435.232 153.026C435.903 152.747 437.133 153.281 437.374 153.091C437.374 153.091 437.168 154.556 436.184 154.875Z" fill="#4D8055"/>
<path d="M436.184 157.259C435.27 157.555 434.049 156.997 434.042 157.194C434.042 157.194 434.276 155.809 435.232 155.411C435.903 155.132 437.133 155.666 437.374 155.476C437.374 155.476 437.168 156.941 436.184 157.259Z" fill="#4D8055"/>
<path d="M429.937 152.49C430.851 152.785 432.073 152.227 432.08 152.424C432.08 152.424 431.845 151.039 430.889 150.641C430.219 150.362 428.988 150.896 428.747 150.707C428.747 150.707 428.953 152.171 429.937 152.49Z" fill="#4D8055"/>
<path d="M429.937 154.875C430.851 155.17 432.073 154.612 432.08 154.809C432.08 154.809 431.845 153.424 430.889 153.026C430.219 152.747 428.988 153.281 428.747 153.091C428.747 153.091 428.953 154.556 429.937 154.875Z" fill="#4D8055"/>
<path d="M429.937 157.259C430.851 157.555 432.073 156.997 432.08 157.194C432.08 157.194 431.845 155.809 430.889 155.411C430.219 155.132 428.988 155.666 428.747 155.476C428.747 155.476 428.953 156.941 429.937 157.259Z" fill="#4D8055"/>
<circle cx="468" cy="137" r="8.5" fill="white" stroke="#4D8055"/>
<path d="M468.5 133.436H467.619C467.593 133.436 467.572 133.457 467.572 133.482V143.17C467.572 143.196 467.593 143.217 467.619 143.217H468.5C468.526 143.217 468.547 143.196 468.547 143.17V133.482C468.547 133.457 468.526 133.436 468.5 133.436Z" fill="#4D8055"/>
<path d="M471.184 134.49C470.27 134.785 469.049 134.227 469.042 134.424C469.042 134.424 469.276 133.039 470.232 132.641C470.903 132.362 472.133 132.896 472.374 132.707C472.374 132.707 472.168 134.171 471.184 134.49Z" fill="#4D8055"/>
<path d="M471.184 136.875C470.27 137.17 469.049 136.612 469.042 136.809C469.042 136.809 469.276 135.424 470.232 135.026C470.903 134.747 472.133 135.281 472.374 135.091C472.374 135.091 472.168 136.556 471.184 136.875Z" fill="#4D8055"/>
<path d="M471.184 139.259C470.27 139.555 469.049 138.997 469.042 139.194C469.042 139.194 469.276 137.809 470.232 137.411C470.903 137.132 472.133 137.666 472.374 137.476C472.374 137.476 472.168 138.941 471.184 139.259Z" fill="#4D8055"/>
<path d="M464.937 134.49C465.851 134.785 467.073 134.227 467.08 134.424C467.08 134.424 466.845 133.039 465.889 132.641C465.219 132.362 463.988 132.896 463.747 132.707C463.747 132.707 463.953 134.171 464.937 134.49Z" fill="#4D8055"/>
<path d="M464.937 136.875C465.851 137.17 467.073 136.612 467.08 136.809C467.08 136.809 466.845 135.424 465.889 135.026C465.219 134.747 463.988 135.281 463.747 135.091C463.747 135.091 463.953 136.556 464.937 136.875Z" fill="#4D8055"/>
<path d="M464.937 139.259C465.851 139.555 467.073 138.997 467.08 139.194C467.08 139.194 466.845 137.809 465.889 137.411C465.219 137.132 463.988 137.666 463.747 137.476C463.747 137.476 463.953 138.941 464.937 139.259Z" fill="#4D8055"/>
<circle cx="479" cy="174" r="8.5" fill="white" stroke="#4D8055"/>
<path d="M479.5 170.436H478.619C478.593 170.436 478.572 170.457 478.572 170.482V180.17C478.572 180.196 478.593 180.217 478.619 180.217H479.5C479.526 180.217 479.547 180.196 479.547 180.17V170.482C479.547 170.457 479.526 170.436 479.5 170.436Z" fill="#4D8055"/>
<path d="M482.184 171.49C481.27 171.785 480.049 171.227 480.042 171.424C480.042 171.424 480.276 170.039 481.232 169.641C481.903 169.362 483.133 169.896 483.374 169.707C483.374 169.707 483.168 171.171 482.184 171.49Z" fill="#4D8055"/>
<path d="M482.184 173.875C481.27 174.17 480.049 173.612 480.042 173.809C480.042 173.809 480.276 172.424 481.232 172.026C481.903 171.747 483.133 172.281 483.374 172.091C483.374 172.091 483.168 173.556 482.184 173.875Z" fill="#4D8055"/>
<path d="M482.184 176.259C481.27 176.555 480.049 175.997 480.042 176.194C480.042 176.194 480.276 174.809 481.232 174.411C481.903 174.132 483.133 174.666 483.374 174.476C483.374 174.476 483.168 175.941 482.184 176.259Z" fill="#4D8055"/>
<path d="M475.937 171.49C476.851 171.785 478.073 171.227 478.08 171.424C478.08 171.424 477.845 170.039 476.889 169.641C476.219 169.362 474.988 169.896 474.747 169.707C474.747 169.707 474.953 171.171 475.937 171.49Z" fill="#4D8055"/>
<path d="M475.937 173.875C476.851 174.17 478.073 173.612 478.08 173.809C478.08 173.809 477.845 172.424 476.889 172.026C476.219 171.747 474.988 172.281 474.747 172.091C474.747 172.091 474.953 173.556 475.937 173.875Z" fill="#4D8055"/>
<path d="M475.937 176.259C476.851 176.555 478.073 175.997 478.08 176.194C478.08 176.194 477.845 174.809 476.889 174.411C476.219 174.132 474.988 174.666 474.747 174.476C474.747 174.476 474.953 175.941 475.937 176.259Z" fill="#4D8055"/>
<circle cx="550" cy="203" r="8.5" fill="white" stroke="#4D8055"/>
<path d="M550.5 199.436H549.619C549.593 199.436 549.572 199.457 549.572 199.482V209.17C549.572 209.196 549.593 209.217 549.619 209.217H550.5C550.526 209.217 550.547 209.196 550.547 209.17V199.482C550.547 199.457 550.526 199.436 550.5 199.436Z" fill="#4D8055"/>
<path d="M553.184 200.49C552.27 200.785 551.049 200.227 551.042 200.424C551.042 200.424 551.276 199.039 552.232 198.641C552.903 198.362 554.133 198.896 554.374 198.707C554.374 198.707 554.168 200.171 553.184 200.49Z" fill="#4D8055"/>
<path d="M553.184 202.875C552.27 203.17 551.049 202.612 551.042 202.809C551.042 202.809 551.276 201.424 552.232 201.026C552.903 200.747 554.133 201.281 554.374 201.091C554.374 201.091 554.168 202.556 553.184 202.875Z" fill="#4D8055"/>
<path d="M553.184 205.259C552.27 205.555 551.049 204.997 551.042 205.194C551.042 205.194 551.276 203.809 552.232 203.411C552.903 203.132 554.133 203.666 554.374 203.476C554.374 203.476 554.168 204.941 553.184 205.259Z" fill="#4D8055"/>
<path d="M546.937 200.49C547.851 200.785 549.073 200.227 549.08 200.424C549.08 200.424 548.845 199.039 547.889 198.641C547.219 198.362 545.988 198.896 545.747 198.707C545.747 198.707 545.953 200.171 546.937 200.49Z" fill="#4D8055"/>
<path d="M546.937 202.875C547.851 203.17 549.073 202.612 549.08 202.809C549.08 202.809 548.845 201.424 547.889 201.026C547.219 200.747 545.988 201.281 545.747 201.091C545.747 201.091 545.953 202.556 546.937 202.875Z" fill="#4D8055"/>
<path d="M546.937 205.259C547.851 205.555 549.073 204.997 549.08 205.194C549.08 205.194 548.845 203.809 547.889 203.411C547.219 203.132 545.988 203.666 545.747 203.476C545.747 203.476 545.953 204.941 546.937 205.259Z" fill="#4D8055"/>
<circle cx="554" cy="187" r="8.5" fill="white" stroke="#4D8055"/>
<path d="M554.5 183.436H553.619C553.593 183.436 553.572 183.457 553.572 183.482V193.17C553.572 193.196 553.593 193.217 553.619 193.217H554.5C554.526 193.217 554.547 193.196 554.547 193.17V183.482C554.547 183.457 554.526 183.436 554.5 183.436Z" fill="#4D8055"/>
<path d="M557.184 184.49C556.27 184.785 555.049 184.227 555.042 184.424C555.042 184.424 555.276 183.039 556.232 182.641C556.903 182.362 558.133 182.896 558.374 182.707C558.374 182.707 558.168 184.171 557.184 184.49Z" fill="#4D8055"/>
<path d="M557.184 186.875C556.27 187.17 555.049 186.612 555.042 186.809C555.042 186.809 555.276 185.424 556.232 185.026C556.903 184.747 558.133 185.281 558.374 185.091C558.374 185.091 558.168 186.556 557.184 186.875Z" fill="#4D8055"/>
<path d="M557.184 189.259C556.27 189.555 555.049 188.997 555.042 189.194C555.042 189.194 555.276 187.809 556.232 187.411C556.903 187.132 558.133 187.666 558.374 187.476C558.374 187.476 558.168 188.941 557.184 189.259Z" fill="#4D8055"/>
<path d="M550.937 184.49C551.851 184.785 553.073 184.227 553.08 184.424C553.08 184.424 552.845 183.039 551.889 182.641C551.219 182.362 549.988 182.896 549.747 182.707C549.747 182.707 549.953 184.171 550.937 184.49Z" fill="#4D8055"/>
<path d="M550.937 186.875C551.851 187.17 553.073 186.612 553.08 186.809C553.08 186.809 552.845 185.424 551.889 185.026C551.219 184.747 549.988 185.281 549.747 185.091C549.747 185.091 549.953 186.556 550.937 186.875Z" fill="#4D8055"/>
<path d="M550.937 189.259C551.851 189.555 553.073 188.997 553.08 189.194C553.08 189.194 552.845 187.809 551.889 187.411C551.219 187.132 549.988 187.666 549.747 187.476C549.747 187.476 549.953 188.941 550.937 189.259Z" fill="#4D8055"/>
<circle cx="513" cy="106" r="8.5" fill="white" stroke="#4D8055"/>
<path d="M513.5 102.436H512.619C512.593 102.436 512.572 102.457 512.572 102.482V112.17C512.572 112.196 512.593 112.217 512.619 112.217H513.5C513.526 112.217 513.547 112.196 513.547 112.17V102.482C513.547 102.457 513.526 102.436 513.5 102.436Z" fill="#4D8055"/>
<path d="M516.184 103.49C515.27 103.785 514.049 103.227 514.042 103.424C514.042 103.424 514.276 102.039 515.232 101.641C515.903 101.362 517.133 101.896 517.374 101.707C517.374 101.707 517.168 103.171 516.184 103.49Z" fill="#4D8055"/>
<path d="M516.184 105.875C515.27 106.17 514.049 105.612 514.042 105.809C514.042 105.809 514.276 104.424 515.232 104.026C515.903 103.747 517.133 104.281 517.374 104.091C517.374 104.091 517.168 105.556 516.184 105.875Z" fill="#4D8055"/>
<path d="M516.184 108.259C515.27 108.555 514.049 107.997 514.042 108.194C514.042 108.194 514.276 106.809 515.232 106.411C515.903 106.132 517.133 106.666 517.374 106.476C517.374 106.476 517.168 107.941 516.184 108.259Z" fill="#4D8055"/>
<path d="M509.937 103.49C510.851 103.785 512.073 103.227 512.08 103.424C512.08 103.424 511.845 102.039 510.889 101.641C510.219 101.362 508.988 101.896 508.747 101.707C508.747 101.707 508.953 103.171 509.937 103.49Z" fill="#4D8055"/>
<path d="M509.937 105.875C510.851 106.17 512.073 105.612 512.08 105.809C512.08 105.809 511.845 104.424 510.889 104.026C510.219 103.747 508.988 104.281 508.747 104.091C508.747 104.091 508.953 105.556 509.937 105.875Z" fill="#4D8055"/>
<path d="M509.937 108.259C510.851 108.555 512.073 107.997 512.08 108.194C512.08 108.194 511.845 106.809 510.889 106.411C510.219 106.132 508.988 106.666 508.747 106.476C508.747 106.476 508.953 107.941 509.937 108.259Z" fill="#4D8055"/>
<path d="M1.86019 93.7712C1.18152 93.2961 0.246224 93.4611 -0.228848 94.1398C-0.70392 94.8185 -0.538867 95.7538 0.139807 96.2288L1.86019 93.7712ZM11.8602 100.771L1.86019 93.7712L0.139807 96.2288L10.1398 103.229L11.8602 100.771Z" fill="#565C65"/>
</g>
<text fill="#2E2E2E" xml:space="preserve" style="white-space: pre" font-family="Roboto" font-size="14" letter-spacing="0em"><tspan x="51.0918" y="484.785">: This chart is based on data from EPA&#x2019;s </tspan><tspan x="424.812" y="484.785">. This map is for illustrative purposes only.</tspan></text>
<text fill="#2E2E2E" xml:space="preserve" style="white-space: pre" font-family="Roboto" font-size="14" font-weight="bold" letter-spacing="0em"><tspan x="21" y="484.785">Note</tspan></text>
<text fill="#2E2E2E" xml:space="preserve" style="white-space: pre" font-family="Roboto" font-size="14" letter-spacing="0em" text-decoration="underline"><tspan x="299.756" y="484.785"><a href="https://www.epa.gov/power-sector/power-plants-and-neighboring-communities">PPNC Mapping Tool</a></tspan></text>
<text fill="#2E2E2E" xml:space="preserve" style="white-space: pre" font-family="Roboto" font-size="18" letter-spacing="0em"><tspan x="21" y="38.6523">Biomass Power Plants in the State of Ohio</tspan></text>
<rect opacity="0.85" x="655" y="96" width="146" height="68" rx="2" fill="white" stroke="#1B1B1B" stroke-width="2"/>
<text fill="#1B1B1B" xml:space="preserve" style="white-space: pre" font-family="Roboto" font-size="10" font-weight="bold" letter-spacing="0em"><tspan x="667" y="122.418">Legend</tspan></text>
<text fill="#1B1B1B" xml:space="preserve" style="white-space: pre" font-family="Roboto" font-size="10" letter-spacing="0em"><tspan x="688.628" y="141.418">Biomass Power Plants</tspan></text>
<circle cx="676.5" cy="137.5" r="9" fill="white" stroke="#4D8055"/>
<path d="M677.028 133.738H676.097C676.07 133.738 676.048 133.76 676.048 133.788V144.014C676.048 144.041 676.07 144.063 676.097 144.063H677.028C677.055 144.063 677.077 144.041 677.077 144.014V133.788C677.077 133.76 677.055 133.738 677.028 133.738Z" fill="#4D8055"/>
<path d="M679.861 134.851C678.896 135.163 677.607 134.574 677.599 134.782C677.599 134.782 677.847 133.32 678.856 132.899C679.564 132.605 680.863 133.169 681.118 132.969C681.118 132.969 680.9 134.515 679.861 134.851Z" fill="#4D8055"/>
<path d="M679.861 137.367C678.896 137.678 677.607 137.09 677.599 137.297C677.599 137.297 677.847 135.836 678.856 135.415C679.564 135.121 680.863 135.685 681.118 135.484C681.118 135.484 680.9 137.03 679.861 137.367Z" fill="#4D8055"/>
<path d="M679.861 139.884C678.896 140.196 677.607 139.607 677.599 139.815C677.599 139.815 677.847 138.353 678.856 137.933C679.564 137.638 680.863 138.202 681.118 138.002C681.118 138.002 680.9 139.548 679.861 139.884Z" fill="#4D8055"/>
<path d="M673.267 134.851C674.232 135.163 675.521 134.574 675.528 134.782C675.528 134.782 675.281 133.32 674.272 132.899C673.564 132.605 672.265 133.169 672.01 132.969C672.01 132.969 672.228 134.515 673.267 134.851Z" fill="#4D8055"/>
<path d="M673.267 137.367C674.232 137.678 675.521 137.09 675.528 137.297C675.528 137.297 675.281 135.836 674.272 135.415C673.564 135.121 672.265 135.685 672.01 135.484C672.01 135.484 672.228 137.03 673.267 137.367Z" fill="#4D8055"/>
<path d="M673.267 139.884C674.232 140.196 675.521 139.607 675.528 139.815C675.528 139.815 675.281 138.353 674.272 137.933C673.564 137.638 672.265 138.202 672.01 138.002C672.01 138.002 672.228 139.548 673.267 139.884Z" fill="#4D8055"/>
</svg>
