<svg width="820" height="512" viewBox="0 0 820 512" fill="none" xmlns="http://www.w3.org/2000/svg">
<rect x="1" y="1" width="818" height="510" rx="4" fill="white" stroke="#1B1B1B" stroke-width="2"/>
<path d="M621 54H819V447H621V54Z" fill="#E6E6E6"/>
<mask id="mask0_1661_2290" style="mask-type:alpha" maskUnits="userSpaceOnUse" x="1" y="54" width="817" height="393">
<rect x="1.5" y="54.5" width="816" height="392" rx="4.5" fill="white" stroke="#1B1B1B"/>
</mask>
<g mask="url(#mask0_1661_2290)">
<path d="M1 93.5L12 102L13 447H1V93.5Z" fill="#E6E6E6"/>
<path d="M58.788 101.886L32.2775 110.49L9.69682 101.114L3.65017 350.109L-4.04416 375.146L-5.09543 384.98L4.97146 403.461L4.60353 406.903L2.64189 411.169L6.10825 420.988L3.35848 432.629L-5.52549 440.631L-14.1824 460.592L-35.8202 484.635L-39.9956 519L-44.9566 518.469L-41.4906 528.289L-36.4537 532.805L-32.9516 528.207L-35.5308 519.477L-12.4471 519.458L-12.0859 525.464L-6.73367 527.031L-4.27636 522.818L-6.56954 516.108L-4.66079 512.334L1.36799 516.957L10.0121 515.892L18.1305 519.744L33.8943 531.872L44.2959 519.06L62.8159 510.099L75.9644 527.915L85.0058 518.439L87.9132 505.323L107.974 496.03L108.283 502.527L117.078 509.435L132.067 510.043L138.388 507.238L140.671 490.574L155.018 473.708L180.152 454.514L180.549 446.102L188.5 428.055L198.889 434.138L234.493 415.566L233.402 406.996L227.064 395.875L233.024 387.063L230.348 102.324L230.587 95.3877L68.0628 94.9208L58.788 101.886Z" fill="#E6E6E6" stroke="#565C65" stroke-width="3" stroke-linejoin="round"/>
<path d="M313.949 666.659L211.599 662.727L185.402 663.932L98.6286 659.662L85.3184 662.245L-27.7582 660.171L-30.9103 656.829L-49.2492 654.869L-44.9952 671.347L-48.4453 675.484L-164.727 670.564L-158.341 657.727L-151.878 662.924L-148.197 661.315L-140.079 641.654L-144.507 636.173L-138.492 626.802L-137.024 622.452L-143.044 617.803L-143.578 608.733L-121.794 592.536L-89.1816 611.044L-81.588 610.353L-78.335 598.684L-85.8086 588.872L-82.0797 572.747L-76.8585 570.802L-71.2281 574.408L-67.6189 568.785L-48.9624 567.776L-47.9902 563.373L-54.2607 551.687L-54.1744 546.188L-41.841 533.988L-41.3647 529.532L-36.3357 534.075L-32.8326 529.443L-35.4025 520.656L-12.3376 520.618L-11.9817 526.665L-6.63514 528.238L-4.17637 523.994L-6.46216 517.241L-4.55187 513.439L1.46819 518.088L10.1061 517.009L18.2147 520.88L33.9557 533.078L44.3593 520.17L62.8715 511.133L75.9946 529.06L85.0364 519.512L87.9523 506.304L108.005 496.931L108.308 503.473L117.09 510.421L132.066 511.02L138.384 508.191L140.679 491.412L155.029 474.419L180.157 455.074L180.561 446.605L188.52 428.429L198.896 434.546L234.486 415.818L233.403 407.19L227.08 395.999L233.042 387.123L239.221 390.287L250.072 391.948L259.913 388.995L273.652 396.472L282.757 414.469L282.228 419.42L302.179 425.058L313.685 425.287L321.991 436.689L332.789 438.845L333.319 433.895L343.16 430.941L357.606 436.491L363.13 441.088L369.944 438.311L374.405 438.788L378.279 430.69L396.084 423.581L398.138 427.806L400.569 442.586L417.176 451.372L422.012 462.404L420.935 467.796L423.379 473.065L418.5 490.569L427.07 499.497L430.454 505.366L435.093 508.866L434.121 513.269L452.966 543.323L459.905 544.065L466.387 553.771L472.176 555.892L479.168 556.139L451.388 586.216L436.485 589.63L420.028 602.892L416.881 613.571L405.784 618.894L404.388 627.257L396.708 633.446L387.522 634.968L384.038 644.109L378.87 645.559L342.447 662.695L313.949 666.659ZM-177.773 670.671L-180.871 666.835L-179.351 661.99L-173.899 662.573L-170.8 666.409L-172.816 671.201L-177.773 670.671Z" fill="#E6E6E6" stroke="#565C65" stroke-width="3" stroke-linejoin="round"/>
<path d="M230.822 94.8576L230.577 101.844L338.551 95.8554L341.666 90.1777L364.13 63.0258L366.407 41.7304L371.485 31.7543L382.819 28.9586L396.866 -8.61008L402.09 -10.5561L406.731 -7.05453L405.422 -4.18906L399.543 -0.810269L400.555 3.80597L404.31 6.21094L414.473 0.284888L421.645 -48.037L414.929 -60.2758L410.937 -79.236L412.261 -91.6171L403.185 -114.627L404.138 -123.542L399.934 -140.521L390.117 -156.597L376.265 -163.087L350.874 -150.775L336.041 -129.319L334.573 -124.968L317.843 -109.225L310.511 -111.01L297.612 -126.414L298.916 -143.306L307.361 -151.92L317.384 -151.85L324.235 -159.633L327.345 -179.337L331.736 -182.875L337.243 -182.787L342.606 -190.729L346.697 -238.378L345.898 -244.976L340.583 -251.555L332.682 -257.408L333.139 -266.376L336.928 -268.976L345.43 -264.06L344.843 -272.638L336.85 -287.017L334.226 -295.312L329.354 -301.343L318.444 -302.509L279.812 -321.165L273.77 -330.327L258.556 -333.456L252.446 -332.606L231.845 -346.33L224.902 -347.072L226.852 -341.854L213.516 -343.781L213.694 -340.756L216.352 -337.467L202.843 -328.392L202.386 -319.425L208.606 -307.239L215.939 -305.453L215.621 -302.482L207.918 -300.801L197.557 -302.409L182.349 -291.513L181.521 -279.078L180.434 -250.142L167.724 -234.47L174.073 -256.332L170.424 -259.728L163.155 -233.957L159.414 -245.878L163.111 -257.003L161.161 -262.221L164.825 -268.341L162.431 -274.107L167.92 -278.529L168.555 -284.472L161.791 -282.19L153.703 -267.526L149.861 -264.431L142.144 -253.234L133.82 -255.126L132.689 -249.236L124.754 -250.084L124.952 -242.549L124.885 -232.538L109.373 -228.186L109.18 -221.695L113.239 -212.745L109.99 -187.046L101.214 -165.944L91.46 -154.464L96.6696 -146.895L98.7836 -129.137L92.501 -117.286L90.3974 -106.992L97.0275 -89.2525L106.831 -63.6601L111.775 -53.6143L116.056 -18.5943L110.901 24.9342L104.373 43.7716L92.7613 58.5591L86.3392 76.4059L74.833 90.203L68.3531 94.5193L230.822 94.8576ZM124.691 -277.64L124.161 -272.688L133.728 -263.651L134.007 -275.643L124.691 -277.64ZM119.737 -264.145L125.139 -263.066L124.662 -258.609L119.703 -259.139L119.737 -264.145Z" fill="#E6E6E6" stroke="#565C65" stroke-width="3" stroke-linejoin="round"/>
<path d="M341.92 98.3973L351.545 97.4147L365.715 105.467L375.799 109.562L378.788 114.407L383.741 114.937L389.492 108.009L395.507 112.675L402.937 113.469L401.91 118.388L386.288 119.232L375.796 123.642L384.783 128.625L393.506 122.015L405.608 121.297L415.708 129.92L423.192 130.217L436.479 123.089L455.429 114.555L481.347 115.817L508.756 89.0786L529.228 75.6786L578.007 55.2476L586.388 206.498L574.852 211.299L580.671 222.481L579.006 233.366L580.915 243.628L573.659 259.949L570.294 286.744L563.427 304.113L565.319 309.846L562.168 320.572L556.453 322.476L544.792 337.823L534.812 346.814L531.84 346.496L522.02 353.995L516.218 347.34L507.831 355.495L505.707 361.302L499.267 360.614L491.658 370.863L491.037 381.357L485.818 383.313L492.169 389.523L491.159 398.97L486.099 399.435L482.206 403.041L476.987 404.998L475.13 394.239L467.47 390.906L461.294 401.811L458.639 412.59L452.499 418.471L457.025 437.058L449.17 440.241L445.328 457.43L437.897 456.636L421.301 461.902L416.473 450.826L399.88 442.012L397.458 427.17L395.406 422.928L377.607 430.076L373.732 438.211L369.273 437.734L362.461 440.526L356.942 435.913L342.507 430.347L332.669 433.318L332.138 438.29L321.346 436.13L313.051 424.683L301.551 424.46L281.613 418.808L282.144 413.836L273.054 395.767L259.326 388.266L249.489 391.237L238.644 389.574L232.47 386.4L230.178 98.5199L338.047 92.4516L341.92 98.3973Z" fill="#E6E6E6" stroke="#565C65" stroke-width="3" stroke-linejoin="round"/>
<path d="M1047.69 77.9136L1038.15 78.4083L1024.51 65.8416L1012.79 35.3026L1002.92 34.2468L1001.74 26.5472L993.933 20.1583L638.386 52.3339L637.638 21.9579L615.084 36.7144L610.587 36.7386L595.653 50.2901L578.45 57.0349L586.688 208.891L591.976 308.928L679.445 303.636L984.491 276.665L991.537 266.815L999.531 262.115L1007.59 261.462L1015.17 265.302L1022.99 257.554L1031.21 255.404L1041.7 241.377L1050.83 230.739L1068.52 219.502L1049.48 201.309L1039.7 194.709L1036.26 180.203L1023.41 174.284L1022.86 156.048L1028.33 151.584L1032.85 141.969L1026.41 132.191L1044.1 106.816L1044.78 95.7803L1055.01 84.2498L1047.69 77.9136Z" fill="#E6E6E6" stroke="#565C65" stroke-width="3" stroke-linejoin="round"/>
<path d="M481.351 558.677L476.749 564.204L483.814 568.471L483.515 575.963L504.108 589.702L515.564 590.425L525.938 582.505L530.805 574.498L544.724 585.015L573.263 576.027L576.219 571.828L572.518 568.925L576.235 562.299L583.141 568.054L606.102 554.959L608.989 560.785L621.452 552.085L621.698 545.089L630.142 536.461L623.342 529.714L630.049 513.878L651.733 484.595L650.757 474.96L662.334 465.162L661.147 457.511L668.989 449.821L671.976 426.565L683.008 431.256L688.445 441.368L702.061 445.331L709.354 438.085L725.264 397.149L736.579 403.876L742.862 392.008L747.748 388.517L755.643 380.332L760.529 376.841L764.121 366.692L770.494 363.36L771.536 348.925L776.721 337.942L773.108 329.53L774.577 325.172L821.396 356.261L825.094 345.12L827.925 337.396L830.279 334.137L826.03 331.676L827.869 323.847L823.177 320.837L822.556 317.26L819.086 316.889L815.756 310.513L817.278 305.66L804.176 306.266L794.118 297.164L787.018 297.91L781.814 304.376L775.369 303.687L765.404 317.169L748.832 317.404L739.943 311.437L725.038 328.905L714.29 326.251L696.854 343.95L691.544 351.408L681.772 358.39L679.388 300.951L591.589 306.111L586.169 206.714L574.626 211.499L580.454 222.656L578.791 233.514L580.705 243.751L573.45 260.03L570.091 286.758L563.224 304.082L565.12 309.803L561.971 320.501L556.252 322.398L544.587 337.704L534.603 346.669L531.629 346.351L521.803 353.828L515.995 347.188L507.604 355.32L505.481 361.112L499.036 360.423L491.425 370.645L490.807 381.113L485.584 383.063L491.942 389.26L490.934 398.683L485.871 399.145L481.976 402.742L476.753 404.691L474.892 393.958L467.225 390.631L461.048 401.507L458.395 412.259L452.252 418.124L456.788 436.667L448.928 439.839L445.089 456.985L437.652 456.19L421.046 461.438L419.967 466.84L422.411 472.117L417.528 489.653L426.099 498.596L429.482 504.475L434.121 507.981L433.148 512.391L451.993 542.496L458.933 543.238L465.415 552.96L471.205 555.084L478.199 555.33L481.351 558.677Z" fill="#E6E6E6" stroke="#565C65" stroke-width="3" stroke-linejoin="round"/>
<circle cx="294" cy="400" r="8.5" fill="white" stroke="#4D8055"/>
<path d="M294.499 396.437H293.618C293.592 396.437 293.571 396.458 293.571 396.483V406.171C293.571 406.197 293.592 406.218 293.618 406.218H294.499C294.525 406.218 294.546 406.197 294.546 406.171V396.483C294.546 396.458 294.525 396.437 294.499 396.437Z" fill="#4D8055"/>
<path d="M297.184 397.491C296.27 397.786 295.049 397.228 295.042 397.425C295.042 397.425 295.276 396.04 296.233 395.642C296.903 395.363 298.134 395.897 298.375 395.708C298.375 395.708 298.169 397.172 297.184 397.491Z" fill="#4D8055"/>
<path d="M297.184 399.874C296.27 400.169 295.049 399.611 295.042 399.808C295.042 399.808 295.276 398.423 296.233 398.025C296.903 397.746 298.134 398.28 298.375 398.09C298.375 398.09 298.169 399.555 297.184 399.874Z" fill="#4D8055"/>
<path d="M297.184 402.258C296.27 402.554 295.049 401.996 295.042 402.193C295.042 402.193 295.276 400.808 296.233 400.41C296.903 400.131 298.134 400.665 298.375 400.475C298.375 400.475 298.169 401.94 297.184 402.258Z" fill="#4D8055"/>
<path d="M290.937 397.491C291.851 397.786 293.072 397.228 293.079 397.425C293.079 397.425 292.845 396.04 291.888 395.642C291.218 395.363 289.988 395.897 289.746 395.708C289.746 395.708 289.952 397.172 290.937 397.491Z" fill="#4D8055"/>
<path d="M290.937 399.874C291.851 400.169 293.072 399.611 293.079 399.808C293.079 399.808 292.845 398.423 291.888 398.025C291.218 397.746 289.988 398.28 289.746 398.09C289.746 398.09 289.952 399.555 290.937 399.874Z" fill="#4D8055"/>
<path d="M290.937 402.258C291.851 402.554 293.072 401.996 293.079 402.193C293.079 402.193 292.845 400.808 291.888 400.41C291.218 400.131 289.988 400.665 289.746 400.475C289.746 400.475 289.952 401.94 290.937 402.258Z" fill="#4D8055"/>
<circle cx="383" cy="358" r="8.5" fill="white" stroke="#4D8055"/>
<path d="M383.499 354.437H382.618C382.592 354.437 382.571 354.458 382.571 354.483V364.171C382.571 364.197 382.592 364.218 382.618 364.218H383.499C383.525 364.218 383.546 364.197 383.546 364.171V354.483C383.546 354.458 383.525 354.437 383.499 354.437Z" fill="#4D8055"/>
<path d="M386.184 355.491C385.27 355.786 384.049 355.228 384.042 355.425C384.042 355.425 384.276 354.04 385.233 353.642C385.903 353.363 387.134 353.897 387.375 353.708C387.375 353.708 387.169 355.172 386.184 355.491Z" fill="#4D8055"/>
<path d="M386.184 357.874C385.27 358.169 384.049 357.611 384.042 357.808C384.042 357.808 384.276 356.423 385.233 356.025C385.903 355.746 387.134 356.28 387.375 356.09C387.375 356.09 387.169 357.555 386.184 357.874Z" fill="#4D8055"/>
<path d="M386.184 360.258C385.27 360.554 384.049 359.996 384.042 360.193C384.042 360.193 384.276 358.808 385.233 358.41C385.903 358.131 387.134 358.665 387.375 358.475C387.375 358.475 387.169 359.94 386.184 360.258Z" fill="#4D8055"/>
<path d="M379.937 355.491C380.851 355.786 382.072 355.228 382.079 355.425C382.079 355.425 381.845 354.04 380.888 353.642C380.218 353.363 378.988 353.897 378.746 353.708C378.746 353.708 378.952 355.172 379.937 355.491Z" fill="#4D8055"/>
<path d="M379.937 357.874C380.851 358.169 382.072 357.611 382.079 357.808C382.079 357.808 381.845 356.423 380.888 356.025C380.218 355.746 378.988 356.28 378.746 356.09C378.746 356.09 378.952 357.555 379.937 357.874Z" fill="#4D8055"/>
<path d="M379.937 360.258C380.851 360.554 382.072 359.996 382.079 360.193C382.079 360.193 381.845 358.808 380.888 358.41C380.218 358.131 378.988 358.665 378.746 358.475C378.746 358.475 378.952 359.94 379.937 360.258Z" fill="#4D8055"/>
<circle cx="443" cy="286" r="8.5" fill="white" stroke="#4D8055"/>
<path d="M443.499 282.437H442.618C442.592 282.437 442.571 282.458 442.571 282.483V292.171C442.571 292.197 442.592 292.218 442.618 292.218H443.499C443.525 292.218 443.546 292.197 443.546 292.171V282.483C443.546 282.458 443.525 282.437 443.499 282.437Z" fill="#4D8055"/>
<path d="M446.184 283.491C445.27 283.786 444.049 283.228 444.042 283.425C444.042 283.425 444.276 282.04 445.233 281.642C445.903 281.363 447.134 281.897 447.375 281.708C447.375 281.708 447.169 283.172 446.184 283.491Z" fill="#4D8055"/>
<path d="M446.184 285.874C445.27 286.169 444.049 285.611 444.042 285.808C444.042 285.808 444.276 284.423 445.233 284.025C445.903 283.746 447.134 284.28 447.375 284.09C447.375 284.09 447.169 285.555 446.184 285.874Z" fill="#4D8055"/>
<path d="M446.184 288.258C445.27 288.554 444.049 287.996 444.042 288.193C444.042 288.193 444.276 286.808 445.233 286.41C445.903 286.131 447.134 286.665 447.375 286.475C447.375 286.475 447.169 287.94 446.184 288.258Z" fill="#4D8055"/>
<path d="M439.937 283.491C440.851 283.786 442.072 283.228 442.079 283.425C442.079 283.425 441.845 282.04 440.888 281.642C440.218 281.363 438.988 281.897 438.746 281.708C438.746 281.708 438.952 283.172 439.937 283.491Z" fill="#4D8055"/>
<path d="M439.937 285.874C440.851 286.169 442.072 285.611 442.079 285.808C442.079 285.808 441.845 284.423 440.888 284.025C440.218 283.746 438.988 284.28 438.746 284.09C438.746 284.09 438.952 285.555 439.937 285.874Z" fill="#4D8055"/>
<path d="M439.937 288.258C440.851 288.554 442.072 287.996 442.079 288.193C442.079 288.193 441.845 286.808 440.888 286.41C440.218 286.131 438.988 286.665 438.746 286.475C438.746 286.475 438.952 287.94 439.937 288.258Z" fill="#4D8055"/>
<circle cx="360" cy="132" r="8.5" fill="white" stroke="#4D8055"/>
<path d="M360.499 128.437H359.618C359.592 128.437 359.571 128.458 359.571 128.483V138.171C359.571 138.197 359.592 138.218 359.618 138.218H360.499C360.525 138.218 360.546 138.197 360.546 138.171V128.483C360.546 128.458 360.525 128.437 360.499 128.437Z" fill="#4D8055"/>
<path d="M363.184 129.491C362.27 129.786 361.049 129.228 361.042 129.425C361.042 129.425 361.276 128.04 362.233 127.642C362.903 127.363 364.134 127.897 364.375 127.708C364.375 127.708 364.169 129.172 363.184 129.491Z" fill="#4D8055"/>
<path d="M363.184 131.874C362.27 132.169 361.049 131.611 361.042 131.808C361.042 131.808 361.276 130.423 362.233 130.025C362.903 129.746 364.134 130.28 364.375 130.09C364.375 130.09 364.169 131.555 363.184 131.874Z" fill="#4D8055"/>
<path d="M363.184 134.258C362.27 134.554 361.049 133.996 361.042 134.193C361.042 134.193 361.276 132.808 362.233 132.41C362.903 132.131 364.134 132.665 364.375 132.475C364.375 132.475 364.169 133.94 363.184 134.258Z" fill="#4D8055"/>
<path d="M356.937 129.491C357.851 129.786 359.072 129.228 359.079 129.425C359.079 129.425 358.845 128.04 357.888 127.642C357.218 127.363 355.988 127.897 355.746 127.708C355.746 127.708 355.952 129.172 356.937 129.491Z" fill="#4D8055"/>
<path d="M356.937 131.874C357.851 132.169 359.072 131.611 359.079 131.808C359.079 131.808 358.845 130.423 357.888 130.025C357.218 129.746 355.988 130.28 355.746 130.09C355.746 130.09 355.952 131.555 356.937 131.874Z" fill="#4D8055"/>
<path d="M356.937 134.258C357.851 134.554 359.072 133.996 359.079 134.193C359.079 134.193 358.845 132.808 357.888 132.41C357.218 132.131 355.988 132.665 355.746 132.475C355.746 132.475 355.952 133.94 356.937 134.258Z" fill="#4D8055"/>
<circle cx="272" cy="127" r="8.5" fill="white" stroke="#4D8055"/>
<path d="M272.499 123.437H271.618C271.592 123.437 271.571 123.458 271.571 123.483V133.171C271.571 133.197 271.592 133.218 271.618 133.218H272.499C272.525 133.218 272.546 133.197 272.546 133.171V123.483C272.546 123.458 272.525 123.437 272.499 123.437Z" fill="#4D8055"/>
<path d="M275.184 124.491C274.27 124.786 273.049 124.228 273.042 124.425C273.042 124.425 273.276 123.04 274.233 122.642C274.903 122.363 276.134 122.897 276.375 122.708C276.375 122.708 276.169 124.172 275.184 124.491Z" fill="#4D8055"/>
<path d="M275.184 126.874C274.27 127.169 273.049 126.611 273.042 126.808C273.042 126.808 273.276 125.423 274.233 125.025C274.903 124.746 276.134 125.28 276.375 125.09C276.375 125.09 276.169 126.555 275.184 126.874Z" fill="#4D8055"/>
<path d="M275.184 129.258C274.27 129.554 273.049 128.996 273.042 129.193C273.042 129.193 273.276 127.808 274.233 127.41C274.903 127.131 276.134 127.665 276.375 127.475C276.375 127.475 276.169 128.94 275.184 129.258Z" fill="#4D8055"/>
<path d="M268.937 124.491C269.851 124.786 271.072 124.228 271.079 124.425C271.079 124.425 270.845 123.04 269.888 122.642C269.218 122.363 267.988 122.897 267.746 122.708C267.746 122.708 267.952 124.172 268.937 124.491Z" fill="#4D8055"/>
<path d="M268.937 126.874C269.851 127.169 271.072 126.611 271.079 126.808C271.079 126.808 270.845 125.423 269.888 125.025C269.218 124.746 267.988 125.28 267.746 125.09C267.746 125.09 267.952 126.555 268.937 126.874Z" fill="#4D8055"/>
<path d="M268.937 129.258C269.851 129.554 271.072 128.996 271.079 129.193C271.079 129.193 270.845 127.808 269.888 127.41C269.218 127.131 267.988 127.665 267.746 127.475C267.746 127.475 267.952 128.94 268.937 129.258Z" fill="#4D8055"/>
<circle cx="400" cy="152" r="8.5" fill="white" stroke="#4D8055"/>
<path d="M400.499 148.437H399.618C399.592 148.437 399.571 148.458 399.571 148.483V158.171C399.571 158.197 399.592 158.218 399.618 158.218H400.499C400.525 158.218 400.546 158.197 400.546 158.171V148.483C400.546 148.458 400.525 148.437 400.499 148.437Z" fill="#4D8055"/>
<path d="M403.184 149.491C402.27 149.786 401.049 149.228 401.042 149.425C401.042 149.425 401.276 148.04 402.233 147.642C402.903 147.363 404.134 147.897 404.375 147.708C404.375 147.708 404.169 149.172 403.184 149.491Z" fill="#4D8055"/>
<path d="M403.184 151.874C402.27 152.169 401.049 151.611 401.042 151.808C401.042 151.808 401.276 150.423 402.233 150.025C402.903 149.746 404.134 150.28 404.375 150.09C404.375 150.09 404.169 151.555 403.184 151.874Z" fill="#4D8055"/>
<path d="M403.184 154.258C402.27 154.554 401.049 153.996 401.042 154.193C401.042 154.193 401.276 152.808 402.233 152.41C402.903 152.131 404.134 152.665 404.375 152.475C404.375 152.475 404.169 153.94 403.184 154.258Z" fill="#4D8055"/>
<path d="M396.937 149.491C397.851 149.786 399.072 149.228 399.079 149.425C399.079 149.425 398.845 148.04 397.888 147.642C397.218 147.363 395.988 147.897 395.746 147.708C395.746 147.708 395.952 149.172 396.937 149.491Z" fill="#4D8055"/>
<path d="M396.937 151.874C397.851 152.169 399.072 151.611 399.079 151.808C399.079 151.808 398.845 150.423 397.888 150.025C397.218 149.746 395.988 150.28 395.746 150.09C395.746 150.09 395.952 151.555 396.937 151.874Z" fill="#4D8055"/>
<path d="M396.937 154.258C397.851 154.554 399.072 153.996 399.079 154.193C399.079 154.193 398.845 152.808 397.888 152.41C397.218 152.131 395.988 152.665 395.746 152.475C395.746 152.475 395.952 153.94 396.937 154.258Z" fill="#4D8055"/>
<circle cx="433" cy="155" r="8.5" fill="white" stroke="#4D8055"/>
<path d="M433.499 151.437H432.618C432.592 151.437 432.571 151.458 432.571 151.483V161.171C432.571 161.197 432.592 161.218 432.618 161.218H433.499C433.525 161.218 433.546 161.197 433.546 161.171V151.483C433.546 151.458 433.525 151.437 433.499 151.437Z" fill="#4D8055"/>
<path d="M436.184 152.491C435.27 152.786 434.049 152.228 434.042 152.425C434.042 152.425 434.276 151.04 435.233 150.642C435.903 150.363 437.134 150.897 437.375 150.708C437.375 150.708 437.169 152.172 436.184 152.491Z" fill="#4D8055"/>
<path d="M436.184 154.874C435.27 155.169 434.049 154.611 434.042 154.808C434.042 154.808 434.276 153.423 435.233 153.025C435.903 152.746 437.134 153.28 437.375 153.09C437.375 153.09 437.169 154.555 436.184 154.874Z" fill="#4D8055"/>
<path d="M436.184 157.258C435.27 157.554 434.049 156.996 434.042 157.193C434.042 157.193 434.276 155.808 435.233 155.41C435.903 155.131 437.134 155.665 437.375 155.475C437.375 155.475 437.169 156.94 436.184 157.258Z" fill="#4D8055"/>
<path d="M429.937 152.491C430.851 152.786 432.072 152.228 432.079 152.425C432.079 152.425 431.845 151.04 430.888 150.642C430.218 150.363 428.988 150.897 428.746 150.708C428.746 150.708 428.952 152.172 429.937 152.491Z" fill="#4D8055"/>
<path d="M429.937 154.874C430.851 155.169 432.072 154.611 432.079 154.808C432.079 154.808 431.845 153.423 430.888 153.025C430.218 152.746 428.988 153.28 428.746 153.09C428.746 153.09 428.952 154.555 429.937 154.874Z" fill="#4D8055"/>
<path d="M429.937 157.258C430.851 157.554 432.072 156.996 432.079 157.193C432.079 157.193 431.845 155.808 430.888 155.41C430.218 155.131 428.988 155.665 428.746 155.475C428.746 155.475 428.952 156.94 429.937 157.258Z" fill="#4D8055"/>
<circle cx="468" cy="137" r="8.5" fill="white" stroke="#4D8055"/>
<path d="M468.499 133.437H467.618C467.592 133.437 467.571 133.458 467.571 133.483V143.171C467.571 143.197 467.592 143.218 467.618 143.218H468.499C468.525 143.218 468.546 143.197 468.546 143.171V133.483C468.546 133.458 468.525 133.437 468.499 133.437Z" fill="#4D8055"/>
<path d="M471.184 134.491C470.27 134.786 469.049 134.228 469.042 134.425C469.042 134.425 469.276 133.04 470.233 132.642C470.903 132.363 472.134 132.897 472.375 132.708C472.375 132.708 472.169 134.172 471.184 134.491Z" fill="#4D8055"/>
<path d="M471.184 136.874C470.27 137.169 469.049 136.611 469.042 136.808C469.042 136.808 469.276 135.423 470.233 135.025C470.903 134.746 472.134 135.28 472.375 135.09C472.375 135.09 472.169 136.555 471.184 136.874Z" fill="#4D8055"/>
<path d="M471.184 139.258C470.27 139.554 469.049 138.996 469.042 139.193C469.042 139.193 469.276 137.808 470.233 137.41C470.903 137.131 472.134 137.665 472.375 137.475C472.375 137.475 472.169 138.94 471.184 139.258Z" fill="#4D8055"/>
<path d="M464.937 134.491C465.851 134.786 467.072 134.228 467.079 134.425C467.079 134.425 466.845 133.04 465.888 132.642C465.218 132.363 463.988 132.897 463.746 132.708C463.746 132.708 463.952 134.172 464.937 134.491Z" fill="#4D8055"/>
<path d="M464.937 136.874C465.851 137.169 467.072 136.611 467.079 136.808C467.079 136.808 466.845 135.423 465.888 135.025C465.218 134.746 463.988 135.28 463.746 135.09C463.746 135.09 463.952 136.555 464.937 136.874Z" fill="#4D8055"/>
<path d="M464.937 139.258C465.851 139.554 467.072 138.996 467.079 139.193C467.079 139.193 466.845 137.808 465.888 137.41C465.218 137.131 463.988 137.665 463.746 137.475C463.746 137.475 463.952 138.94 464.937 139.258Z" fill="#4D8055"/>
<circle cx="479" cy="174" r="8.5" fill="white" stroke="#4D8055"/>
<path d="M479.499 170.437H478.618C478.592 170.437 478.571 170.458 478.571 170.483V180.171C478.571 180.197 478.592 180.218 478.618 180.218H479.499C479.525 180.218 479.546 180.197 479.546 180.171V170.483C479.546 170.458 479.525 170.437 479.499 170.437Z" fill="#4D8055"/>
<path d="M482.184 171.491C481.27 171.786 480.049 171.228 480.042 171.425C480.042 171.425 480.276 170.04 481.233 169.642C481.903 169.363 483.134 169.897 483.375 169.708C483.375 169.708 483.169 171.172 482.184 171.491Z" fill="#4D8055"/>
<path d="M482.184 173.874C481.27 174.169 480.049 173.611 480.042 173.808C480.042 173.808 480.276 172.423 481.233 172.025C481.903 171.746 483.134 172.28 483.375 172.09C483.375 172.09 483.169 173.555 482.184 173.874Z" fill="#4D8055"/>
<path d="M482.184 176.258C481.27 176.554 480.049 175.996 480.042 176.193C480.042 176.193 480.276 174.808 481.233 174.41C481.903 174.131 483.134 174.665 483.375 174.475C483.375 174.475 483.169 175.94 482.184 176.258Z" fill="#4D8055"/>
<path d="M475.937 171.491C476.851 171.786 478.072 171.228 478.079 171.425C478.079 171.425 477.845 170.04 476.888 169.642C476.218 169.363 474.988 169.897 474.746 169.708C474.746 169.708 474.952 171.172 475.937 171.491Z" fill="#4D8055"/>
<path d="M475.937 173.874C476.851 174.169 478.072 173.611 478.079 173.808C478.079 173.808 477.845 172.423 476.888 172.025C476.218 171.746 474.988 172.28 474.746 172.09C474.746 172.09 474.952 173.555 475.937 173.874Z" fill="#4D8055"/>
<path d="M475.937 176.258C476.851 176.554 478.072 175.996 478.079 176.193C478.079 176.193 477.845 174.808 476.888 174.41C476.218 174.131 474.988 174.665 474.746 174.475C474.746 174.475 474.952 175.94 475.937 176.258Z" fill="#4D8055"/>
<circle cx="550" cy="203" r="8.5" fill="white" stroke="#4D8055"/>
<path d="M550.499 199.437H549.618C549.592 199.437 549.571 199.458 549.571 199.483V209.171C549.571 209.197 549.592 209.218 549.618 209.218H550.499C550.525 209.218 550.546 209.197 550.546 209.171V199.483C550.546 199.458 550.525 199.437 550.499 199.437Z" fill="#4D8055"/>
<path d="M553.184 200.491C552.27 200.786 551.049 200.228 551.042 200.425C551.042 200.425 551.276 199.04 552.233 198.642C552.903 198.363 554.134 198.897 554.375 198.708C554.375 198.708 554.169 200.172 553.184 200.491Z" fill="#4D8055"/>
<path d="M553.184 202.874C552.27 203.169 551.049 202.611 551.042 202.808C551.042 202.808 551.276 201.423 552.233 201.025C552.903 200.746 554.134 201.28 554.375 201.09C554.375 201.09 554.169 202.555 553.184 202.874Z" fill="#4D8055"/>
<path d="M553.184 205.258C552.27 205.554 551.049 204.996 551.042 205.193C551.042 205.193 551.276 203.808 552.233 203.41C552.903 203.131 554.134 203.665 554.375 203.475C554.375 203.475 554.169 204.94 553.184 205.258Z" fill="#4D8055"/>
<path d="M546.937 200.491C547.851 200.786 549.072 200.228 549.079 200.425C549.079 200.425 548.845 199.04 547.888 198.642C547.218 198.363 545.988 198.897 545.746 198.708C545.746 198.708 545.952 200.172 546.937 200.491Z" fill="#4D8055"/>
<path d="M546.937 202.874C547.851 203.169 549.072 202.611 549.079 202.808C549.079 202.808 548.845 201.423 547.888 201.025C547.218 200.746 545.988 201.28 545.746 201.09C545.746 201.09 545.952 202.555 546.937 202.874Z" fill="#4D8055"/>
<path d="M546.937 205.258C547.851 205.554 549.072 204.996 549.079 205.193C549.079 205.193 548.845 203.808 547.888 203.41C547.218 203.131 545.988 203.665 545.746 203.475C545.746 203.475 545.952 204.94 546.937 205.258Z" fill="#4D8055"/>
<circle cx="554" cy="187" r="8.5" fill="white" stroke="#4D8055"/>
<path d="M554.499 183.437H553.618C553.592 183.437 553.571 183.458 553.571 183.483V193.171C553.571 193.197 553.592 193.218 553.618 193.218H554.499C554.525 193.218 554.546 193.197 554.546 193.171V183.483C554.546 183.458 554.525 183.437 554.499 183.437Z" fill="#4D8055"/>
<path d="M557.184 184.491C556.27 184.786 555.049 184.228 555.042 184.425C555.042 184.425 555.276 183.04 556.233 182.642C556.903 182.363 558.134 182.897 558.375 182.708C558.375 182.708 558.169 184.172 557.184 184.491Z" fill="#4D8055"/>
<path d="M557.184 186.874C556.27 187.169 555.049 186.611 555.042 186.808C555.042 186.808 555.276 185.423 556.233 185.025C556.903 184.746 558.134 185.28 558.375 185.09C558.375 185.09 558.169 186.555 557.184 186.874Z" fill="#4D8055"/>
<path d="M557.184 189.258C556.27 189.554 555.049 188.996 555.042 189.193C555.042 189.193 555.276 187.808 556.233 187.41C556.903 187.131 558.134 187.665 558.375 187.475C558.375 187.475 558.169 188.94 557.184 189.258Z" fill="#4D8055"/>
<path d="M550.937 184.491C551.851 184.786 553.072 184.228 553.079 184.425C553.079 184.425 552.845 183.04 551.888 182.642C551.218 182.363 549.988 182.897 549.746 182.708C549.746 182.708 549.952 184.172 550.937 184.491Z" fill="#4D8055"/>
<path d="M550.937 186.874C551.851 187.169 553.072 186.611 553.079 186.808C553.079 186.808 552.845 185.423 551.888 185.025C551.218 184.746 549.988 185.28 549.746 185.09C549.746 185.09 549.952 186.555 550.937 186.874Z" fill="#4D8055"/>
<path d="M550.937 189.258C551.851 189.554 553.072 188.996 553.079 189.193C553.079 189.193 552.845 187.808 551.888 187.41C551.218 187.131 549.988 187.665 549.746 187.475C549.746 187.475 549.952 188.94 550.937 189.258Z" fill="#4D8055"/>
<circle cx="513" cy="106" r="8.5" fill="white" stroke="#4D8055"/>
<path d="M513.499 102.437H512.618C512.592 102.437 512.571 102.458 512.571 102.483V112.171C512.571 112.197 512.592 112.218 512.618 112.218H513.499C513.525 112.218 513.546 112.197 513.546 112.171V102.483C513.546 102.458 513.525 102.437 513.499 102.437Z" fill="#4D8055"/>
<path d="M516.184 103.491C515.27 103.786 514.049 103.228 514.042 103.425C514.042 103.425 514.276 102.04 515.233 101.642C515.903 101.363 517.134 101.897 517.375 101.708C517.375 101.708 517.169 103.172 516.184 103.491Z" fill="#4D8055"/>
<path d="M516.184 105.874C515.27 106.169 514.049 105.611 514.042 105.808C514.042 105.808 514.276 104.423 515.233 104.025C515.903 103.746 517.134 104.28 517.375 104.09C517.375 104.09 517.169 105.555 516.184 105.874Z" fill="#4D8055"/>
<path d="M516.184 108.258C515.27 108.554 514.049 107.996 514.042 108.193C514.042 108.193 514.276 106.808 515.233 106.41C515.903 106.131 517.134 106.665 517.375 106.475C517.375 106.475 517.169 107.94 516.184 108.258Z" fill="#4D8055"/>
<path d="M509.937 103.491C510.851 103.786 512.072 103.228 512.079 103.425C512.079 103.425 511.845 102.04 510.888 101.642C510.218 101.363 508.988 101.897 508.746 101.708C508.746 101.708 508.952 103.172 509.937 103.491Z" fill="#4D8055"/>
<path d="M509.937 105.874C510.851 106.169 512.072 105.611 512.079 105.808C512.079 105.808 511.845 104.423 510.888 104.025C510.218 103.746 508.988 104.28 508.746 104.09C508.746 104.09 508.952 105.555 509.937 105.874Z" fill="#4D8055"/>
<path d="M509.937 108.258C510.851 108.554 512.072 107.996 512.079 108.193C512.079 108.193 511.845 106.808 510.888 106.41C510.218 106.131 508.988 106.665 508.746 106.475C508.746 106.475 508.952 107.94 509.937 108.258Z" fill="#4D8055"/>
<path d="M1.86019 93.7712C1.18152 93.2961 0.246224 93.4611 -0.228848 94.1398C-0.70392 94.8185 -0.538867 95.7538 0.139806 96.2288L1 95L1.86019 93.7712ZM11 102L11.8602 100.771L1.86019 93.7712L1 95L0.139806 96.2288L10.1398 103.229L11 102Z" fill="#565C65"/>
</g>
<text fill="#2E2E2E" xml:space="preserve" style="white-space: pre" font-family="Source Sans 3" font-size="14" letter-spacing="0em" text-decoration="underline"><tspan x="277.676" y="486.368"><a href="https://www.epa.gov/power-sector/power-plants-and-neighboring-communities">PPNC Mapping Tool</a></tspan></text>
<text fill="#2E2E2E" xml:space="preserve" style="white-space: pre" font-family="Source Sans 3" font-size="14" letter-spacing="0em"><tspan x="50.0664" y="486.368">: This chart is based on data from EPA&#x2019;s </tspan><tspan x="392.451" y="486.368">. This map is for illustrative purposes only.</tspan></text>
<text fill="#2E2E2E" xml:space="preserve" style="white-space: pre" font-family="Source Sans 3" font-size="14" font-weight="bold" letter-spacing="0em"><tspan x="21" y="486.368">Note</tspan></text>
<text fill="#2E2E2E" xml:space="preserve" style="white-space: pre" font-family="Source Sans 3" font-size="18" letter-spacing="0em"><tspan x="21" y="40.616">Biomass Power Plants in the State of Ohio</tspan></text>
<rect opacity="0.85" x="655" y="96" width="146" height="68" rx="2" fill="white" stroke="#1B1B1B" stroke-width="2"/>
<text fill="#1B1B1B" xml:space="preserve" style="white-space: pre" font-family="Source Sans 3" font-size="10" font-weight="bold" letter-spacing="0em"><tspan x="667" y="123.12">Legend</tspan></text>
<text fill="#1B1B1B" xml:space="preserve" style="white-space: pre" font-family="Source Sans 3" font-size="10" letter-spacing="0em"><tspan x="688.629" y="142.12">Biomass Power Plants</tspan></text>
<circle cx="676.5" cy="137.5" r="9" fill="white" stroke="#4D8055"/>
<path d="M677.028 133.739H676.097C676.07 133.739 676.048 133.761 676.048 133.789V144.015C676.048 144.042 676.07 144.064 676.097 144.064H677.028C677.055 144.064 677.077 144.042 677.077 144.015V133.789C677.077 133.761 677.055 133.739 677.028 133.739Z" fill="#4D8055"/>
<path d="M679.861 134.852C678.896 135.164 677.607 134.575 677.6 134.783C677.6 134.783 677.847 133.321 678.856 132.9C679.564 132.606 680.863 133.17 681.118 132.97C681.118 132.97 680.9 134.516 679.861 134.852Z" fill="#4D8055"/>
<path d="M679.861 137.368C678.896 137.679 677.607 137.091 677.6 137.298C677.6 137.298 677.847 135.837 678.856 135.416C679.564 135.122 680.863 135.686 681.118 135.485C681.118 135.485 680.9 137.031 679.861 137.368Z" fill="#4D8055"/>
<path d="M679.861 139.883C678.896 140.195 677.607 139.606 677.6 139.814C677.6 139.814 677.847 138.352 678.856 137.932C679.564 137.637 680.863 138.201 681.118 138.001C681.118 138.001 680.9 139.547 679.861 139.883Z" fill="#4D8055"/>
<path d="M673.267 134.852C674.231 135.164 675.52 134.575 675.528 134.783C675.528 134.783 675.281 133.321 674.271 132.9C673.563 132.606 672.265 133.17 672.01 132.97C672.01 132.97 672.227 134.516 673.267 134.852Z" fill="#4D8055"/>
<path d="M673.267 137.368C674.231 137.679 675.52 137.091 675.528 137.298C675.528 137.298 675.281 135.837 674.271 135.416C673.563 135.122 672.265 135.686 672.01 135.485C672.01 135.485 672.227 137.031 673.267 137.368Z" fill="#4D8055"/>
<path d="M673.267 139.883C674.231 140.195 675.52 139.606 675.528 139.814C675.528 139.814 675.281 138.352 674.271 137.932C673.563 137.637 672.265 138.201 672.01 138.001C672.01 138.001 672.227 139.547 673.267 139.883Z" fill="#4D8055"/>
</svg>
