<svg width="820" height="512" viewBox="0 0 820 512" fill="none" xmlns="http://www.w3.org/2000/svg">
<rect x="1" y="1" width="818" height="510" rx="4" fill="white" stroke="#1B1B1B" stroke-width="2"/>
<rect width="32" height="10" transform="matrix(-1 1.2822e-07 2.74757e-07 1 778.5 372)" fill="#2378C3"/>
<line x1="743" y1="388" x2="743" y2="372" stroke="#2E2E2E"/>
<rect width="32" height="10" transform="matrix(-1 2.71641e-07 1.2891e-07 1 740.5 372)" fill="#4F97D1"/>
<line x1="705" y1="388" x2="705" y2="372" stroke="#2E2E2E"/>
<rect width="32" height="10" transform="matrix(-1 2.71641e-07 1.2891e-07 1 702.5 372)" fill="#E6E6E6"/>
<line x1="667" y1="388" x2="667" y2="372" stroke="#2E2E2E"/>
<rect width="32" height="10" transform="matrix(-1 2.71641e-07 1.2891e-07 1 664.5 372)" fill="#E5A000"/>
<line x1="629" y1="388" x2="629" y2="372" stroke="#2E2E2E"/>
<rect width="32" height="10" transform="matrix(-1 2.71641e-07 1.2891e-07 1 626.5 372)" fill="#936F38"/>
<text fill="#2E2E2E" xml:space="preserve" style="white-space: pre" font-family="Source Sans 3" font-size="12" letter-spacing="0em"><tspan x="616.195" y="404.244">-0.06</tspan></text>
<text fill="#2E2E2E" xml:space="preserve" style="white-space: pre" font-family="Source Sans 3" font-size="12" letter-spacing="0em"><tspan x="655.195" y="404.244">-0.03</tspan></text>
<text fill="#2E2E2E" xml:space="preserve" style="white-space: pre" font-family="Source Sans 3" font-size="12" letter-spacing="0em"><tspan x="696.059" y="404.244">0.03</tspan></text>
<text fill="#2E2E2E" xml:space="preserve" style="white-space: pre" font-family="Source Sans 3" font-size="12" letter-spacing="0em"><tspan x="733.059" y="404.244">0.06</tspan></text>
<text fill="#2E2E2E" xml:space="preserve" style="white-space: pre" font-family="Source Sans 3" font-size="14" font-weight="bold" letter-spacing="0em"><tspan x="591" y="342.368">Legend</tspan></text>
<text fill="#2E2E2E" xml:space="preserve" style="white-space: pre" font-family="Source Sans 3" font-size="14" letter-spacing="0em"><tspan x="591" y="362.368">lb/MWh</tspan></text>
<path d="M454.247 380.508L454.509 375.714L453.918 374.926L452.802 374.467L451.16 372.628L451.489 370.724L483.534 367.375L483.074 365.93L482.089 364.945L481.761 364.026L482.155 359.889L480.579 356.146L480.907 354.439L481.104 352.009L482.549 349.514L482.417 348.791L481.301 348.135V346.033L480.119 344.786L478.215 340.78L469.744 310.705L439.734 313.332L440.588 314.645L439.734 358.641L442.624 380.442L443.215 380.114L444.068 380.18L444.462 380.442L444.988 380.377L446.301 377.881V376.371L447.023 375.649L447.943 375.977L450.175 380.18V380.771L448.008 382.215L450.307 381.953L453.524 380.902L454.247 380.508Z" fill="#E5A000" stroke="black" stroke-width="1.5" stroke-linejoin="round"/>
<path d="M123.684 328.105L125.654 326.661L126.179 325.085L125.523 324.034L124.341 323.903L123.618 322.852L124.341 318.321L125.391 318.124L126.967 316.023L128.018 311.426L129.594 309.062L132.746 307.946L133.6 307.092L133.337 305.844L131.827 304.203L131.039 300.394L130.119 299.212L129.266 296.98L129.857 295.601L130.776 293.631L131.104 291.726L130.776 288.509L131.433 279.578L133.731 279.184L136.16 280.103L136.948 281.876H138.262L139.838 279.972L142.07 268.48L172.408 273.865L198.674 277.805L187.249 359.297L162.755 355.751L120.598 331.126L120.926 329.221L122.239 328.04L123.684 328.105Z" fill="#E5A000" stroke="black" stroke-width="1.5" stroke-linejoin="round"/>
<path d="M415.635 314.579L416.226 313.134L417.014 313.463L417.473 312.806L416.948 312.346L417.145 311.361L416.423 310.77L416.817 310.114L416.751 309.129L416.029 309.063L416.554 308.538L417.408 309.063L417.605 308.144L417.342 307.421L417.408 306.962L418.721 307.356L418.458 306.371L419.509 305.517L419.181 304.926L418.458 304.992L418.064 304.401L418.655 303.81L419.706 303.678L420.034 303.153L420.954 303.022L420.888 302.496L420.297 301.905V301.577H421.282L421.545 301.117L420.625 300.461L420.56 300.067L413.205 300.592L415.044 297.243L416.16 296.258V294.814L415.109 293.172L388.974 294.485L363.299 294.945L365.991 310.967L365.531 336.577L367.239 338.087L369.077 337.234L371.179 337.759L371.31 345.573L405.653 344.72L406.441 343.735L406.77 341.765L405.785 340.254L405.456 338.81L406.047 338.35V337.825L404.931 337.102L404.865 336.643L405.916 336.052L405.128 335.329L406.244 330.667L408.477 329.616V329.091L407.755 328.172L409.659 324.626H410.907L411.892 323.838L411.695 320.423L413.73 317.468L414.912 317.074L414.584 315.039L415.635 314.579Z" fill="#4F97D1" stroke="black" stroke-width="1.5" stroke-linejoin="round"/>
<path d="M77.586 313.66L79.8186 317.074L78.8993 317.14L77.7173 315.893L77.586 313.66ZM78.8336 307.225L80.0156 309.917L81.7229 310.574L82.1826 310.18L81.3289 308.538L79.6216 306.962L78.8336 307.225ZM65.7661 294.748V296.324L67.0794 297.112L69.9687 296.981L70.6254 296.324L68.5897 296.193L65.7661 294.748ZM61.8918 294.814L64.0588 295.142L64.9781 296.587H62.4828L61.8918 294.814ZM93.3458 324.692L92.6891 322.722L92.8205 320.752L92.5578 315.564L91.3758 312.412L90.5878 311.493L90.1938 310.508L85.5972 304.861L83.2332 304.926L81.9199 303.679L82.6423 302.497L82.1826 300.067L80.7379 299.279L78.177 298.885L76.3383 298.031L75.3533 296.784L72.3984 292.45L70.6254 291.005L68.1957 290.677L66.1601 289.166L63.0738 288.181L61.2351 287.984L59.5935 286.343L59.7248 284.504L60.2502 281.352L61.4321 278.003L60.5128 276.953L57.8862 270.78L56.1132 268.35L55.8505 266.38L54.7999 264.87L54.9312 263.228L53.6179 259.945L51.7136 258.172L52.1076 253.51L53.6836 252.985L54.8656 250.949L54.6029 248.848L53.9462 248.257H52.3046L50.6629 246.09L49.6779 243.791V238.866L50.4659 236.108L50.5973 234.729L52.2389 234.861L52.1732 235.911L51.6479 236.371V238.013L54.0776 240.114V237.028L53.1582 234.795L53.4866 234.073L52.8299 232.956L54.6686 231.971L53.4209 230.001L52.5016 230.33L51.5166 232.825L51.8449 233.679L51.3196 234.335L50.7286 234.27L47.1826 230.264L47.6423 226.587L46.92 224.026L42.6517 215.621L43.177 208.594L44.6873 206.23L44.8187 202.028L41.207 194.739L41.404 191.324L45.935 186.399L47.0513 184.823L46.9856 183.904L49.6123 177.863L49.6779 172.347L50.2689 170.705L93.6741 182.919L82.9049 224.354L83.6272 226.652L129.856 295.602L129.265 296.981L130.119 299.213L131.038 300.395L131.826 304.204L133.336 305.846L133.599 307.093L132.745 307.947L129.593 309.063L128.017 311.427L126.967 316.024L125.391 318.125L124.34 318.322L123.618 322.853L124.34 323.904L125.522 324.035L126.179 325.086L125.653 326.662L123.683 328.106L122.239 328.041L93.3458 324.692Z" fill="#936F38" stroke="black" stroke-width="1.5" stroke-linejoin="round"/>
<path d="M277.998 285.882L267.163 285.226L233.214 282.074L198.674 277.805L206.225 219.822L235.709 223.565L260.334 225.798L282.07 227.374L281.15 241.886L277.998 285.882Z" fill="#4F97D1" stroke="black" stroke-width="1.5" stroke-linejoin="round"/>
<path d="M605.606 191.063L605.869 190.34L603.768 182.263L603.702 182.066L593.918 184.299V184.759L593.327 184.956L592.998 184.496L586.104 186.072L587.942 196.776L589.124 197.761L586.826 199.993L587.942 201.438L591.488 198.483L592.604 197.629H593.13L594.706 195.594L595.625 195.659L597.529 194.937H598.908L602.389 193.164L604.227 192.573L604.884 191.916L605.869 192.245L605.606 191.063Z" fill="#936F38" stroke="black" stroke-width="1.5" stroke-linejoin="round"/>
<path d="M571.919 222.385L570.869 222.582L569.884 223.304L569.096 224.683L574.086 242.479L581.244 240.968L579.799 235.978L579.077 236.306L576.91 234.599L576.582 233.482L575.4 232.826L575.268 230.396L573.889 228.951L573.167 228.426L572.379 227.704L572.116 225.602L572.313 224.223L572.97 222.779L571.919 222.385Z" fill="#936F38" stroke="black" stroke-width="1.5" stroke-linejoin="round"/>
<path d="M525.625 365.867L522.999 365.407L521.882 364.816L520.438 365.736V367.377L521.357 368.756L521.029 371.58L519.65 371.974L518.993 371.252L518.599 369.15L485.7 371.317L483.533 367.377L451.488 370.726L451.16 372.631L452.802 374.469L453.918 374.929L454.509 375.717L454.246 380.511L453.524 380.905L453.852 381.167L454.509 380.97L454.969 380.445L461.864 378.672L467.905 378.344L473.224 379.591L478.806 382.875L480.382 383.4L481.826 384.713L481.761 386.486H483.336L484.584 385.83L486.226 385.895L487.539 385.37L489.443 384.057L491.479 382.152L492.201 381.89L492.595 382.218H493.515L493.843 381.693L493.515 380.905L493.121 380.511L493.252 379.985L494.565 379.263L497.849 379L498.374 379.657L499.031 379.723L500.541 380.379L502.511 381.561L503.299 382.678L504.021 383.466L505.86 384.385V385.961L507.699 387.209L508.355 387.274L509.406 388.193L509.866 389.244L510.522 389.375L511.048 390.754L511.507 391.148L512.164 390.426L514.068 390.492L514.396 391.411L515.119 392.002V392.856L517.023 394.3L517.154 400.604L515.972 404.413L516.629 405.201L516.498 407.434L515.972 408.353L516.432 409.141L517.942 410.651L518.139 411.636L518.665 412.293L518.402 411.045L519.256 410.651L519.781 408.287L517.811 407.499L517.877 407.105L519.584 406.843L520.175 408.55L520.897 408.944L520.963 407.631L521.685 407.828L522.079 408.353L522.014 408.813L520.109 411.571L519.978 412.293L518.862 413.541V414.263L521.291 416.758L524.772 421.946L525.954 423.325V424.507L527.792 427.527L529.303 427.921L529.762 427.133L528.383 427.33L526.413 424.375L526.545 423.456L527.53 422.931V421.946L527.136 421.092L527.727 420.501L527.989 421.092L528.449 421.42V424.047L527.661 423.653L527.136 424.244L528.055 425.295L528.712 427.002L529.5 426.608L531.01 427.396L532.389 428.841L533.44 432.19L535.475 435.342L536.001 434.488L537.839 434.16L539.941 435.013L540.138 436.13L542.305 438.625L542.37 439.347L543.815 441.12L543.355 441.449V443.222L545.128 444.141H546.113L547.886 442.959L548.871 443.156L549.593 443.419L551.104 442.302L551.235 441.843L552.023 442.04L553.599 440.923L554.453 439.413L553.993 437.312L553.862 436.458L554.584 433.831L554.978 433.7L555.372 434.751L555.897 433.569L555.372 428.841L555.109 421.946L554.453 417.481L553.993 416.364L549.659 409.075L546.244 403.1L544.8 400.933L543.946 398.569L543.815 396.336L544.406 396.139V395.548L543.684 394.103L541.057 391.477L536.066 385.107L532.323 378.278L529.5 371.252L529.106 368.822L528.318 368.165L527.989 365.67L525.625 365.867ZM531.667 454.188L532.783 454.122L532.323 453.465L531.667 454.188ZM536.46 453.465V453.006L537.511 452.874L539.941 450.707L540.926 450.314L542.502 449.722L542.699 450.576L543.815 451.102L542.108 451.889H540.532L537.971 453.531L536.46 453.465ZM547.755 448.475L545.785 449.394L545.128 450.248L545.85 450.314L547.755 448.475ZM550.25 446.571L549.528 446.768L548.608 448.081L549.331 447.95L550.316 446.899L550.25 446.571ZM555.7 436.261L554.584 439.938L554.059 440.595L553.402 442.302L552.614 443.353L552.154 444.469L550.907 445.914V446.505L552.68 444.666L554.256 442.368L554.65 441.055L556.029 437.837L555.7 436.261Z" fill="#E5A000" stroke="black" stroke-width="1.5" stroke-linejoin="round"/>
<path d="M532.256 345.507V346.427L529.498 350.498L528.71 350.629L529.695 350.958V352.271L529.104 352.993L528.71 356.933L527.2 361.005L527.528 362.318L527.988 365.667L525.624 365.864L522.997 365.404L521.881 364.813L520.436 365.732V367.374L521.356 368.753L521.027 371.577L519.648 371.971L518.992 371.248L518.598 369.147L485.699 371.314L483.532 367.374L483.072 365.929L482.087 364.944L481.759 364.025L482.153 359.888L480.577 356.145L480.905 354.438L481.102 352.008L482.547 349.513L482.416 348.791L481.299 348.134V346.033L480.117 344.785L478.213 340.779L469.742 310.704L484.78 308.8L498.832 306.83L498.767 308.078L497.519 308.734L496.6 310.836L496.731 311.689L500.737 314.185L502.444 313.988L504.479 316.614L504.742 317.731L507.5 321.08L509.207 322.196L510.127 322.327L511.571 323.378L512.294 324.823L513.607 325.873L514.789 326.202L516.562 327.975L516.628 328.894L518.335 330.732L521.618 332.243L523.982 336.642L524.179 338.415L526.74 339.794L528.382 342.946L528.907 344.982L531.665 345.245L532.256 345.507Z" fill="#E6E6E6" stroke="black" stroke-width="1.5" stroke-linejoin="round"/>
<path d="M140.56 193.821L124.537 190.275L130.119 165.781L132.023 161.973L132.286 160.594L132.811 160.003L132.22 158.689L130.316 157.901L130.447 155.144L133.074 151.335L134.715 150.81L135.766 149.299L135.7 148.249L136.882 147.198L138.984 143.586L141.742 140.434L141.413 138.333L139.115 136.297L138.064 133.933L138.787 131.11L138.327 128.483L146.667 91.6445L155.991 93.6145L152.839 108.061L155.269 112.92L154.218 116.072L156.582 119.224L157.83 119.684L160.391 125.134V126.513L161.901 128.483H162.492L163.411 129.862H165.513V130.913L160.85 142.076L160.522 144.768L161.441 145.097L162.492 146.804L164.331 145.885L166.695 144.309L167.942 145.556L168.271 147.198L167.942 149.299L169.584 155.669L171.291 157.967L172.802 158.886L173.064 160.856V163.549L174.575 165.059L175.625 163.549L180.156 164.599L181.535 163.811L187.445 164.928L189.284 162.761L190.466 162.367L191.254 163.549L192.304 166.241L192.895 166.307L187.314 202.292L155.86 196.907L140.56 193.821Z" fill="#E5A000" stroke="black" stroke-width="1.5" stroke-linejoin="round"/>
<path d="M441.441 248.192L440.785 251.606V252.92L442.361 255.218V255.678L442.163 256.269L442.754 257.516L442.557 259.092L441.507 260.274L440.653 263.032L438.158 266.513L438.092 271.109H437.436L438.027 272.357V272.948L436.582 274.721L436.648 275.443L437.633 276.888L437.567 277.479L435.137 277.873L434.743 278.661L433.955 278.267L433.299 278.595L433.036 280.762L434.152 281.944L433.89 283.52L432.905 283.717L428.374 281.747L425.747 284.177L425.944 285.359H424.105L423.186 284.374L422.004 281.878V280.631L422.529 280.237L422.595 279.383L421.479 278.135L420.888 276.494L419.115 273.801L415.963 272.948L411.103 268.286L410.841 266.71L412.679 261.719L412.417 260.471L413.205 259.749V258.895L411.366 257.91L409.396 257.451L407.164 258.239L406.31 256.728L406.704 255.481L406.244 253.905L400.597 248.389L399.152 247.404L397.511 243.529L396.723 239.984L397.642 237.554L398.102 237.094L398.167 235.584L397.708 234.993L398.364 234.008L399.546 233.614L400.137 233.417L400.794 232.629V231.053L401.91 229.477L402.239 229.149L402.304 226.85L401.713 225.931L401.057 225.734L400.334 224.683L400.991 222.057L402.961 221.531H404.537L407.295 220.349L408.411 218.905L408.477 217.329L409.199 216.475L410.053 214.374L409.987 212.666L408.149 210.368H407.361L406.77 209.646L406.901 208.595L405.785 207.479L404.143 206.625L404.471 206.231L434.612 204.393L434.678 207.413L436.91 210.434L437.698 213.126L438.749 215.227L441.441 248.192Z" fill="#E5A000" stroke="black" stroke-width="1.5" stroke-linejoin="round"/>
<path d="M445.184 214.637L441.835 216.147L438.749 215.228L441.441 248.192L440.784 251.607V252.92L442.36 255.218V255.678L442.163 256.269L442.754 257.517L442.557 259.093L441.507 260.275L440.653 263.033L438.158 266.513L438.092 271.11H437.436L438.027 272.357L438.749 272.883L439.143 272.226L438.683 271.11L441.704 270.781L441.835 271.569L442.557 271.701L442.82 271.11L442.426 270.256L442.623 269.731L443.477 270.256L444.593 269.993L445.709 270.387L447.942 271.766L449.124 269.928L451.422 268.483L453.392 270.65L454.443 269.271L454.64 267.498L457.135 265.988L457.267 266.841L458.514 267.629L460.484 267.498L461.272 267.038L461.338 264.806L462.98 262.376L466 259.487L465.935 258.37L466.723 255.875L468.167 256.532L472.567 253.577L472.304 252.46L471.319 251.081L471.976 249.834L467.642 212.273L467.576 211.354L446.3 213.586L445.184 214.637Z" fill="#E5A000" stroke="black" stroke-width="1.5" stroke-linejoin="round"/>
<path d="M397.707 193.754L399.086 194.805L399.48 195.527L398.43 197.694L398.364 199.336L399.677 202.947L401.45 203.932L403.617 204.392L404.471 206.231L404.143 206.625L405.784 207.478L406.901 208.595L406.769 209.645L407.36 210.368H408.148L409.987 212.666L410.053 214.373L409.199 216.475L408.477 217.328L408.411 218.904L407.295 220.349L404.537 221.531H402.961L400.991 222.056L400.334 224.683L401.056 225.734L401.713 225.931L402.304 226.85L402.238 229.148L401.91 229.476L400.794 231.052V232.628L400.137 233.416L399.546 233.613L398.364 234.007L397.707 234.992L398.167 235.583L398.101 237.094L397.642 237.553L396.657 237.028L395.934 236.306L395.54 235.255L394.424 234.401L385.034 234.927L367.173 235.715L350.165 235.649L348.983 232.76L349.443 231.315L348.918 229.148L349.049 227.244L348.195 226.784L347.933 222.779L346.094 219.495L345.963 217.066L344.518 214.242L343.664 211.812V210.893L343.27 209.777V208.266L342.942 207.675L342.482 206.559L342.285 205.705L341.432 204.917L342.088 202.094L343.205 198.745L342.745 197.431L341.891 197.169L341.629 196.118L342.285 195.79L342.351 195.068L341.497 194.083L341.563 193.032L343.008 193.098H361.525L385.362 192.507L397.576 192.047L397.707 193.754Z" fill="#E5A000" stroke="black" stroke-width="1.5" stroke-linejoin="round"/>
<path d="M333.486 243.988L304.79 243.2L281.15 241.887L277.998 285.883L322.454 287.787L363.167 287.853L362.838 256.268L360.737 255.808L359.03 252.722L357.388 251.08L357.717 249.57L359.49 247.862L359.555 247.074L358.57 245.695L357.979 246.352L356.666 245.958L354.762 243.988H333.486Z" fill="#936F38" stroke="black" stroke-width="1.5" stroke-linejoin="round"/>
<path d="M486.488 285.358L473.027 286.277L469.612 286.802L458.186 287.459L456.479 287.984L441.638 289.298L441.179 288.904H438.749L439.537 291.005L439.143 291.596L423.843 292.581L424.499 290.808L425.419 291.399L425.878 291.136L426.666 288.444L426.01 287.787L426.666 286.474L426.798 285.883L425.944 285.358L425.747 284.176L428.374 281.746L432.905 283.716L433.89 283.519L434.152 281.943L433.036 280.761L433.299 278.594L433.955 278.266L434.743 278.66L435.137 277.872L437.567 277.478L437.633 276.887L436.648 275.442L436.582 274.72L438.027 272.947V272.356L438.749 272.881L439.143 272.225L438.683 271.108L441.704 270.78L441.835 271.568L442.558 271.699L442.82 271.108L442.426 270.255L442.623 269.729L443.477 270.255L444.593 269.992L445.71 270.386L447.942 271.765L449.124 269.926L451.422 268.482L453.392 270.649L454.443 269.27L454.64 267.497L457.135 265.986L457.267 266.84L458.514 267.628L460.484 267.497L461.272 267.037L461.338 264.804L462.98 262.375L466 259.485L465.935 258.369L466.723 255.874L468.167 256.53L472.567 253.575L472.304 252.459L471.319 251.08L471.976 249.832L472.83 250.161L474.274 250.226L475.522 249.701L477.426 250.489L478.871 252.722V253.378L481.563 253.838L483.073 253.707L484.321 255.086L485.766 255.217V254.56L487.013 254.035L488.983 254.56L489.771 255.086L490.625 254.626H491.216L491.61 253.51L493.843 252.328L494.171 252.853L494.696 254.757L496.995 255.677L497.783 257.056L497.717 257.778L498.111 258.435L497.717 260.799L498.965 261.849L499.49 262.572L500.147 262.966L500.081 263.557L502.97 267.234H503.89L504.875 268.416L505.663 268.613L506.582 268.547L503.364 272.881L501.46 273.538L499.49 275.508L499.227 276.953L497.848 277.806L497.783 278.923L496.863 279.842L495.681 280.17L495.353 281.418L494.696 281.68L490.165 284.438L486.488 285.358ZM422.135 292.778L421.676 292.318L421.807 291.662H422.529L422.989 292.121L422.792 292.778H422.135Z" fill="#2378C3" stroke="black" stroke-width="1.5" stroke-linejoin="round"/>
<path d="M427.651 384.055L426.863 382.873L427.06 382.019L423.908 377.554L424.499 374.533L425.156 373.614L425.221 372.694L401.582 374.008L402.698 366.193L404.274 363.042L408.214 357.526L407.032 355.884H408.345V353.717L406.769 352.075L407.098 350.959L406.31 350.302L405.259 345.64L405.653 344.721L371.31 345.574L371.638 358.642L372.098 360.875L373.805 362.713L374.265 366.259L376.76 369.28L377.285 372.103H377.942L377.876 376.897L375.709 381.1L376.563 382.61L375.709 383.595L376.169 385.565L376.103 388.389L374.659 390.687L374.593 391.212L373.477 392L374.133 393.182L374.921 393.905L375.972 393.051L379.452 392.46L383.458 392.394L389.762 394.889L395.015 395.546L396 394.627L397.182 394.496L400.334 395.94L401.385 395.677L402.107 394.693L399.349 393.511L397.904 394.167L397.182 394.036L396.263 392.723L398.43 391.278L399.48 391.212V392.329L400.465 392.263L402.698 392.066L402.961 393.576L403.683 393.839L404.077 395.087L407.229 395.743L408.345 396.794V397.253H407.557L406.572 398.37L407.688 399.158L411.234 399.814L413.007 401.653L415.897 400.996L413.467 401.128L413.401 400.734L415.24 400.274L415.371 399.092L416.159 398.895V397.976L416.882 398.041V399.092L418.523 399.158L419.049 397.91L419.64 398.107L419.771 399.749L420.559 399.88L419.377 401.193L421.084 400.602L422.398 399.88L424.302 397.713H423.842L422.989 398.501L422.726 398.435L422.398 397.91L422.989 397.122V395.612L423.711 395.087L424.171 395.546L424.827 395.021L425.484 394.955L425.878 395.809L425.484 397.056H427.06L430.409 398.173L430.737 399.026L431.788 399.946L433.627 400.011L434.48 400.471L435.662 399.814L436.253 398.698V397.582H435.334L434.546 396.662L433.824 395.94L431.722 395.349L430.015 395.481L427.257 393.905V392.394L428.111 391.738L429.687 392.132L427.651 391.081L427.782 390.556H430.146L431.854 388.257L430.146 387.075L430.672 386.09L429.884 385.565H429.358L428.045 386.944V388.323L427.651 388.783L426.929 388.717L425.878 387.798H425.024V386.813L425.418 386.353L425.944 386.813L427.06 385.762L427.52 384.711L428.045 384.514L427.651 384.055ZM420.887 382.282L422.135 382.938L422.66 383.661L424.302 383.726L425.287 384.252L425.418 385.171L425.156 385.565L424.565 384.58L423.645 385.368L423.054 386.287L421.216 386.813L420.165 386.878L417.735 386.222L417.801 385.105L419.114 383.792L419.837 382.216L420.887 382.282ZM417.801 383.07V383.792L416.619 385.105H415.831V383.661L416.882 382.676L417.801 383.07Z" fill="#4F97D1" stroke="black" stroke-width="1.5" stroke-linejoin="round"/>
<path d="M606.591 158.096L606.985 160.723L609.086 162.036L609.611 163.481L611.122 164.4L612.041 164.203L612.698 162.233L612.172 160.329L613.223 159.738L613.551 157.899L613.157 157.046L615.324 155.798L613.88 154.288L614.471 152.712L615.39 151.267L615.718 153.368L616.769 152.055L617.623 152.646L618.411 152.121V151.004L620.512 150.151L620.709 148.246L622.35 148.115L624.123 145.685V145.226L623.532 144.897L623.467 142.73L623.861 142.008L623.992 143.059L624.649 142.73L624.517 140.629L623.926 140.826L623.861 141.614L623.073 140.695L623.664 139.775L624.058 139.841L624.78 139.578L625.108 141.417L626.422 141.22L628.326 141.68V141.023L627.604 140.235L628.457 140.301L628.523 138.79L628.917 139.316L629.114 140.563L630.493 141.548L630.624 140.892L631.215 140.76L631.018 140.235L631.544 139.841L631.478 138.79L630.427 138.659L629.114 139.119L630.033 138.068L630.493 137.543L631.347 137.411L631.609 138.265L632.726 139.316L632.988 137.937L634.499 137.149L633.908 136.295L633.973 135.179L634.696 135.507H635.155L636.272 134.588L636.534 133.078L637.979 133.275L638.045 132.815L638.176 131.764L638.504 132.684L639.489 132.027L641 129.335L640.934 127.89L640.015 126.577L638.045 124.475H636.797L636.272 125.92L634.367 123.95L634.564 123.425V122.44L633.514 119.485L632.988 119.353L632.529 119.616H629.377L629.18 117.252L623.861 100.179L619.067 97.7493L617.163 97.6836L612.763 102.018L610.99 101.361L610.334 98.7999H608.561L604.03 111.605L604.489 115.676L603.373 117.252L603.11 120.273L603.964 122.702L604.489 122.834V123.884L603.439 126.839L602.454 127.759L601.6 129.203L601.337 134.325L599.761 133.669L598.776 133.931L606.591 158.096ZM629.311 141.877L628.654 142.402V143.256L629.114 142.73L629.705 143.256L629.968 142.927L630.69 143.059L630.033 142.533L630.296 142.008L629.311 141.877ZM628.195 143.584L627.538 144.306L627.866 144.569L627.801 145.226H628.523V144.044L628.195 143.584ZM626.225 142.533L626.816 143.387L627.472 143.715L627.669 143.059V141.877L626.816 141.417L626.553 142.205L626.225 142.533ZM625.568 145.817L624.452 144.7L625.502 143.124L626.028 143.321L626.159 144.044L626.816 144.569V145.291L626.159 145.948L625.568 145.817Z" fill="#936F38" stroke="black" stroke-width="1.5" stroke-linejoin="round"/>
<path d="M572.379 250.423V249.306H571.854V250.488L572.379 250.423ZM580.128 247.862L580.916 246.417L580.982 244.775L580.588 244.381L580.128 244.972L579.997 246.351L579.471 247.271L579.274 247.993L576.254 249.044L575.794 249.569L574.94 249.7L574.678 250.291L573.824 250.685L573.627 249.044L573.89 248.584L573.364 248.256L573.496 247.271L572.445 247.927V246.614L573.233 246.417L571.985 246.154L571.526 245.629L571.788 244.775L571.263 244.381L570.803 245.432L571.132 245.957L570.672 246.351L569.95 246.68L568.636 246.023L568.505 245.235L567.848 244.513L566.929 243.396L567.914 242.871L567.257 242.477V241.886L567.651 241.229L568.768 241.032L567.848 240.638L567.783 240.179L566.929 240.113L566.666 240.835L566.272 241.032L566.338 238.8L566.995 238.143L567.52 238.603L567.586 237.552L566.929 236.961L566.338 237.683L565.681 238.603L565.287 237.946L565.419 236.37L566.01 235.714L566.601 236.305L567.389 235.845L567.126 234.729L566.469 235.385L565.878 234.006L565.747 232.89L566.469 231.314L567.192 230.395L568.111 230.263L567.783 229.738L568.111 229.344L567.914 228.884L568.045 227.505L567.06 227.768L566.535 228.49L567.192 229.344L565.484 231.708L564.893 231.445L564.434 232.036L564.04 233.481L562.858 233.809L563.711 234.203L564.565 235.057L564.434 235.517L565.025 236.305L564.302 236.961L564.631 237.158L564.302 238.012V239.391L563.974 240.244L564.565 240.967L565.025 243.199L565.878 244.119L566.929 245.038L567.192 246.877L568.242 248.19L568.505 249.109V249.766H568.045L567.06 248.978L566.798 249.109L566.01 248.978L564.893 248.059L563.974 247.862L563.317 248.19L562.529 247.993L562.267 248.124L561.15 247.599L560.494 246.942L559.837 246.089L559.443 245.957L558.918 246.417L557.867 247.271L557.145 246.745L556.882 245.235L557.407 243.856L557.211 243.528L557.407 243.265L556.948 242.608L557.605 242.543L558.261 241.952L558.524 240.77L559.64 239.062L557.933 237.88L557.276 238.997L556.882 238.603H556.226L555.832 238.537L555.569 238.274L555.635 237.946L554.518 237.552L553.993 237.749L553.205 237.683L552.745 237.224L552.417 237.093L552.286 236.633L552.68 236.108V235.517L551.892 235.385L551.235 234.794L550.644 234.86L549.593 234.663L549.002 234.4L549.134 233.35L548.477 233.021L548.346 232.562H547.886L547.361 231.774L547.492 231.117L545.785 231.38L544.34 230.329L543.421 230.526L542.83 231.445H541.976L540.86 233.35L538.693 233.612L537.445 232.956L535.738 235.451L534.293 235.254L532.257 237.815L531.666 238.865L530.484 239.916L529.368 232.43L569.096 224.682L574.087 242.477L581.244 240.967V244.447L581.179 246.483L580.522 247.665L580.128 247.862ZM571.329 246.68L570.475 247.271L571 248.453L572.117 248.978L571.854 247.927L571.329 246.68Z" fill="#936F38" stroke="black" stroke-width="1.5" stroke-linejoin="round"/>
<path d="M622.942 187.975H625.174L625.765 187.581L625.831 186.727L624.584 185.545L624.846 186.202L623.861 187.187H622.351L622.416 187.712L622.942 187.975ZM617.032 189.157L616.244 188.763L616.901 188.237L617.295 186.858L618.083 186.202L618.608 186.07L619.002 186.661L619.724 186.793L620.118 186.399L620.447 187.646L619.593 187.843L617.754 188.303L617.032 189.157ZM594.114 173.791L606.197 171.295L606.854 170.31L607.051 169.194L608.298 168.8L608.627 168.078L609.743 167.355L610.597 167.552L611.713 169.719L612.37 169.982L613.092 169.128L613.617 169.982V170.704L611.647 172.28L611.779 172.806L611.188 173.462L611.45 173.988L610.597 174.185L611.188 174.973L610.662 175.432L611.056 176.089L611.647 175.958L611.844 175.432L612.567 175.826H613.749L615.39 177.534L615.522 179.241L616.704 179.307L617.229 180.029L617.623 181.342L618.28 181.802H619.527L620.775 181.736L621.3 181.145L622.351 180.357L623.073 180.16L622.285 178.781L622.088 179.372L621.103 177.008H620.578L620.315 177.599L619.527 176.943L620.381 176.22L621.563 176.483L623.073 177.862L623.927 179.635L624.715 181.802L624.058 183.641V182.459L623.599 181.802L621.3 183.312L620.709 183.115L619.659 183.772L619.593 184.56L618.148 185.348L616.835 186.727L615.522 187.975H614.734L616.901 185.808L617.229 184.56L616.901 184.166L616.704 183.312L616.113 183.247L616.047 184.1L615.39 184.888H614.602L614.405 185.611L614.668 186.399L613.88 187.121L613.158 186.99L612.895 187.646L611.976 185.676L611.122 184.954L609.415 184.1L609.021 182.656H608.495L608.036 180.948L603.767 182.262L603.702 182.065L593.917 184.297V184.757L593.326 184.954L592.998 184.494L586.103 186.07L585.644 185.414L585.972 175.564L594.114 173.791Z" fill="#936F38" stroke="black" stroke-width="1.5" stroke-linejoin="round"/>
<path d="M467.576 211.353L467.641 212.272L481.694 209.974L482.022 209.186L484.583 205.312V202.488L485.108 201.109L486.553 200.584L487.866 195.462L488.523 195.133L489.18 195.527L489.048 195.921L488.326 196.447L488.523 197.038L489.048 197.3L490.296 196.381L490.559 189.946L489.508 188.435L488.72 186.006V184.364L487.21 181.475V180.293L486.422 178.126L484.911 176.156L483.007 175.499L479.855 177.469L478.213 180.49L478.082 181.081L476.112 183.379L475.127 183.248L473.223 181.409L473.157 179.177L474.142 177.929L475.455 177.798L476.243 176.681L476.375 174.055L476.9 173.529L477.622 173.464L478.213 172.347L478.082 166.043L477.885 165.19L477.097 164.402L475.981 163.745L475.915 162.563L476.375 162.169L477.557 162.694L477.36 161.578L476.112 159.805L475.652 158.754L474.93 158.032H473.486L468.167 156.128L467.247 155.012L465.212 154.815L464.424 155.012L461.534 153.501H460.615L460.943 154.158L459.17 154.092L459.236 154.486L459.63 154.88L457.988 156.259L458.054 157.441L459.039 158.951L460.024 159.083V159.477L459.039 159.805L457.66 159.739L455.821 161.381L455.887 163.023L456.15 166.831L454.705 169.064L455.23 166.109L454.705 165.715L454.114 169.195L453.457 167.685L453.786 166.175L453.457 165.518L453.851 164.664L453.457 163.942L454.114 163.285V162.497L453.26 162.891L452.407 164.927L451.947 165.387L451.093 166.963L449.977 166.831L449.911 167.619H448.861L448.992 168.604L449.123 169.918L447.153 170.706L447.219 171.559L447.876 172.676L447.81 176.09L446.956 178.98L445.84 180.621L446.628 181.541L447.153 183.839L446.497 185.481L446.365 186.86L447.482 189.092L449.123 192.31L449.911 193.557L450.962 198.088L450.896 203.867L450.305 206.428L448.992 208.529L448.401 210.959L447.088 212.929L446.3 213.586L467.576 211.353ZM404.668 147.788L406.638 150.284L417.801 152.779L418.72 153.436L421.347 153.961L421.806 154.289L423.645 154.158L426.863 154.683L427.782 155.668L427.125 156.325L427.651 156.85L430.146 157.31L430.934 158.098L431 160.987L430.146 162.826L431.459 162.891L432.116 162.366L432.707 162.891L431.985 164.927L432.641 165.978L433.429 166.175L433.955 164.993L435.859 161.972L436.91 158.032L438.42 156.719L438.092 155.668L438.42 155.077L439.077 156.128L438.88 157.572L440.784 156.128L440.915 154.618L442.294 155.012L442.819 153.961L443.279 154.355L442.819 155.34L442.163 155.668L441.506 156.981L442.426 158.163L443.148 157.835L442.819 157.375L443.476 156.391L444.724 155.274H445.249L445.38 153.567L446.694 152.385L451.881 152.057L453.129 150.021L455.624 149.824L458.12 150.612L460.878 152.385L461.337 152.254L461.206 149.955L461.666 149.824L464.621 150.546L465.606 150.415L467.51 149.955L468.626 150.218L469.808 150.284V149.561L469.349 148.97L468.364 148.839L467.641 148.314L467.97 147.394L467.444 147.197L465.737 147.263L465.671 146.606L466.394 146.081L466.788 146.606L467.116 145.424L466.656 144.965L467.116 144.833L466.197 143.98L466.394 143.126L466.459 141.878H465.606L464.621 142.535L463.373 142.601L463.045 143.783L461.797 143.914L461.6 143.126L460.155 143.192L459.499 143.98L459.039 143.914L458.908 143.389L457.2 143.651L457.135 140.499L457.791 139.186L457.332 139.12L456.15 139.843H454.705L452.21 141.616L448.138 141.813L445.446 142.338L444.199 143.323L443.279 144.177L441.638 145.293L441.441 145.818L441.047 144.702L440.193 144.308V144.702L440.653 145.162V146.015L439.668 145.621H439.274L439.077 146.409L437.763 145.162L436.91 145.03L436.056 146.015L433.955 145.95L433.626 145.03L432.313 143.783L431.459 142.732V142.272L430.737 141.353L429.03 140.565L426.863 140.499L426.14 139.908H425.221L424.761 140.171L423.317 141.616L422.857 142.338L422.2 141.878L422.332 141.222L422.857 139.843L424.958 136.559L425.484 136.428L426.6 135.18L427.06 134.13L429.03 133.736L429.555 133.342L429.489 132.685L429.161 132.357L426.206 132.488L424.893 132.816L423.185 133.604L422.397 134.392L421.281 135.837L420.099 136.494L417.932 138.726L417.669 139.777L412.81 142.798L410.184 143.126L409.002 143.389L407.491 145.359L406.309 145.818L403.42 147.329L404.668 147.788ZM470.793 150.284L473.289 150.349L473.682 150.021L473.551 148.708L472.435 147.526L471.187 147.591L471.122 147.92L471.844 148.182L470.793 148.708L470.596 149.364L470.202 148.97L469.94 149.496L470.793 150.284ZM421.478 122.77L419.968 122.901L418.195 124.149L413.532 127.629L414.058 128.285L415.24 128.482L417.078 127.169L416.356 126.841L417.866 125.79H418.523L420.493 124.543L420.427 123.952L421.478 122.77ZM448.467 164.008V164.664L449.846 165.715L449.714 164.139L448.467 164.008ZM448.007 165.846L448.729 165.912V166.503H448.073L448.007 165.846ZM462.06 151.86V152.451L462.585 152.319V151.991L462.06 151.86ZM465.146 153.895L465.08 153.173L464.03 153.042L463.636 152.779H463.045L462.782 152.976L463.373 153.239L464.095 153.961L465.146 153.895ZM453.326 154.683L453.26 155.406L453.063 155.865L453.195 157.31L453.457 157.507L453.917 157.572L454.245 156.981L454.311 155.931L454.114 155.537L454.048 154.815L453.326 154.683Z" fill="#4F97D1" stroke="black" stroke-width="1.5" stroke-linejoin="round"/>
<path d="M337.164 118.632L336.442 120.471L336.967 121.39L336.77 124.739L336.442 125.461L338.215 131.437L339.068 133.078L339.528 142.272L340.185 144.045L339.922 147.853L341.826 152.713L342.023 156.521L341.957 157.9L341.892 159.345L341.301 160.658L339.265 161.906L339.068 162.694L340.185 164.335L340.447 165.517L342.154 165.911L343.139 167.159L343.008 193.097H361.526L385.363 192.506L397.577 192.046L396.854 189.091L396.723 187.121L395.278 185.152L393.44 184.692L390.025 182.328L389.631 180.161L385.494 178.125L385.363 177.272H383.196L381.751 175.564L380.438 174.711L380.897 171.362L380.306 170.311L380.635 166.765L381.291 165.583L381.094 163.81L380.306 162.956L379.124 162.759V161.643L380.963 157.834L384.837 155.273L384.575 146.737L385.166 147L385.56 146.671L385.625 145.949L386.216 145.555L387.136 146.343L387.595 146.277L386.807 144.833L389.631 142.797L391.667 140.367L392.717 139.842L395.804 135.968L399.941 132.159L402.502 130.78L406.638 129.007L411.629 126.052L411.235 125.789L408.805 126.249L406.967 126.315L406.31 125.264L405.391 124.673L398.956 125.461L398.299 123.622L397.248 123.557L396.132 124.082L393.702 126.118H391.01L389.631 125.461L389.434 124.345L386.873 123.819L386.479 122.769L386.019 121.915L385.363 122.506L383.655 122.572L377.154 118.96H375.25L374.725 118.501L372.689 119.354L372.164 120.208L369.997 120.733L369.143 120.602V119.486L368.684 118.895H364.809L364.547 117.975H362.839L362.117 118.238L360.541 117.122L360.738 116.202L360.344 114.626L359.884 113.904L359.753 111.934L359.096 109.898L357.717 108.848H355.813L355.879 114.101L335.588 113.838L337.164 118.632Z" fill="#E6E6E6" stroke="black" stroke-width="1.5" stroke-linejoin="round"/>
<path d="M441.638 381.296L438.355 381.362L436.779 380.377L431.591 382.019L431 381.559L430.672 381.69L430.606 382.741L430.212 382.807L428.505 384.58L428.045 384.514L427.651 384.054L426.863 382.872L427.06 382.019L423.908 377.553L424.499 374.533L425.156 373.613L425.222 372.694L401.582 374.007L402.698 366.193L404.274 363.041L408.214 357.525L407.032 355.884H408.346V353.717L406.77 352.075L407.098 350.959L406.31 350.302L405.259 345.64L405.653 344.72L406.441 343.735L406.77 341.765L405.785 340.255L405.456 338.81L406.047 338.351V337.825L404.931 337.103L404.865 336.643L405.916 336.052L405.128 335.33L406.244 330.668L408.477 329.617V329.092L407.755 328.173L409.659 324.627H410.907L411.892 323.839L411.695 320.424L413.73 317.469L414.912 317.075L414.584 315.039L439.734 313.332L440.588 314.645L439.734 358.642L442.623 380.443L441.638 381.296Z" fill="#E5A000" stroke="black" stroke-width="1.5" stroke-linejoin="round"/>
<path d="M396.658 237.027L395.935 236.305L395.541 235.254L394.425 234.4L385.035 234.926L367.173 235.714L350.166 235.648L351.02 236.502L350.823 237.421L352.202 239.851L354.763 243.988L356.667 245.958L357.98 246.352L358.571 245.695L359.556 247.074L359.491 247.862L357.718 249.569L357.389 251.08L359.031 252.721L360.738 255.807L362.84 256.267L363.168 287.852L363.299 294.944L388.975 294.485L415.11 293.171L416.16 294.813V296.258L415.044 297.243L413.205 300.592L420.56 300.066L421.217 298.753L422.005 298.425V297.965L421.217 297.243L420.823 296.586L421.939 296.717L422.464 296.258L421.545 295.273L422.464 294.944L422.53 294.288L422.136 293.631V292.777L421.676 292.318L421.808 291.661H422.53L422.99 292.121L422.793 292.777L423.318 293.237L423.843 292.58L424.5 290.807L425.419 291.398L425.879 291.136L426.667 288.443L426.01 287.787L426.667 286.474L426.798 285.882L425.945 285.357H424.106L423.187 284.372L422.005 281.877V280.629L422.53 280.235L422.596 279.382L421.479 278.134L420.888 276.492L419.115 273.8L415.963 272.946L411.104 268.284L410.841 266.708L412.68 261.717L412.417 260.47L413.205 259.747V258.894L411.367 257.909L409.397 257.449L407.164 258.237L406.31 256.727L406.704 255.479L406.245 253.903L400.597 248.387L399.153 247.402L397.511 243.528L396.723 239.982L397.642 237.552L396.658 237.027Z" fill="#2378C3" stroke="black" stroke-width="1.5" stroke-linejoin="round"/>
<path d="M194.209 159.281L231.836 164.469L265.326 167.949L266.639 154.356L270.054 110.557L234.922 106.88L199.266 101.823L155.992 93.6152L152.84 108.062L155.269 112.921L154.219 116.073L156.583 119.225L157.83 119.685L160.391 125.135V126.514L161.902 128.484H162.493L163.412 129.863H165.513V130.914L160.851 142.077L160.523 144.769L161.442 145.097L162.493 146.805L164.331 145.885L166.695 144.309L167.943 145.557L168.271 147.199L167.943 149.3L169.585 155.67L171.292 157.968L172.802 158.887L173.065 160.857V163.549L174.575 165.06L175.626 163.549L180.157 164.6L181.536 163.812L187.446 164.928L189.284 162.761L190.466 162.367L191.254 163.549L192.305 166.242L192.896 166.307L194.209 159.281Z" fill="#2378C3" stroke="black" stroke-width="1.5" stroke-linejoin="round"/>
<path d="M296.319 199.074L321.272 200.124L323.505 202.226L324.621 202.357L326 203.67L327.182 203.605L328.364 202.291L329.349 202.685L330.006 202.226L330.465 202.554L331.056 202.291L331.516 202.554L332.107 202.291L332.764 202.62L333.683 202.226L334.996 202.62L335.39 203.342L339.396 204.787L340.184 205.64L340.775 207.348L341.957 207.807L342.942 207.676L343.27 208.267V209.777L343.664 210.894V211.813L344.518 214.243L345.962 217.066L346.094 219.496L347.932 222.779L348.195 226.785L349.049 227.244L348.917 229.149L349.443 231.316L348.983 232.76L350.165 235.65L351.019 236.503L350.822 237.423L352.201 239.852L354.762 243.989H333.486L304.79 243.201L281.15 241.888L282.069 227.376L260.334 225.8L262.764 196.775L296.319 199.074Z" fill="#2378C3" stroke="black" stroke-width="1.5" stroke-linejoin="round"/>
<path d="M142.07 268.483L139.838 279.974L138.262 281.879H136.948L136.16 280.106L133.731 279.186L131.432 279.58L130.776 288.511L131.104 291.728L130.776 293.633L129.856 295.603L83.6276 226.653L82.9053 224.355L93.6745 182.92L124.537 190.275L140.56 193.82L155.86 196.907L142.07 268.483Z" fill="#E6E6E6" stroke="black" stroke-width="1.5" stroke-linejoin="round"/>
<path d="M598.448 135.048L597.594 135.114L596.937 134.391L595.69 135.311L595.361 139.316L596.149 140.827L595.427 143.125L596.806 144.964L596.543 146.08L596.609 146.933L595.887 148.312L594.967 148.575L594.573 149.429L593.194 150.085L592.735 151.07L593.654 153.303L593.326 154.945L593.654 155.93L592.997 157.177L593.26 158.425L592.406 159.673L592.538 161.117L592.078 161.84L592.538 164.795L592.997 165.78L592.669 167.487L593.26 168.669L593.129 170.311L592.8 171.164L592.735 172.084L594.114 173.791L606.196 171.296L606.853 170.311L607.05 169.194L608.298 168.8L608.626 168.078L609.742 167.356L610.596 167.553L611.121 164.401L609.611 163.481L609.086 162.037L606.984 160.723L606.59 158.097L598.776 133.932L598.448 135.048Z" fill="#936F38" stroke="black" stroke-width="1.5" stroke-linejoin="round"/>
<path d="M585.249 201.895L575.662 198.678L574.48 200.319L574.546 201.764L572.576 205.31L573.561 206.492L573.101 207.805L572.445 208.462L572.773 210.826L574.546 211.417L575.203 213.256L576.581 213.978L579.339 216.079L577.172 217.787L576.122 219.297L574.94 221.267L573.889 221.661L572.97 222.777L572.313 224.222L572.116 225.601L572.642 226.192L572.904 227.702L573.692 228.096L575.268 229.081L576.45 229.606L577.501 230.132L577.566 230.854L578.092 230.92L578.814 230.132L579.339 230.394L580.718 230.526L580.587 232.43L580.718 234.072L581.9 233.612L582.885 231.051L583.936 227.899L585.84 226.06L586.234 223.762L585.84 222.974L586.957 221.07V220.282L586.497 219.56L587.285 217.787L587.088 215.423L586.694 210.038L585.906 209.119V210.038L586.234 210.432H585.512L585.118 210.169L584.264 210.038L583.673 210.432L582.885 209.381L583.345 208.265V207.608L584.461 207.149L584.987 205.77L585.249 201.895Z" fill="#936F38" stroke="black" stroke-width="1.5" stroke-linejoin="round"/>
<path d="M266.77 292.187H266.244L261.057 357.394L240.175 355.686L217.586 353.323L217.389 355.292L218.702 356.737L198.477 354.045L197.558 360.743L187.248 359.298L198.674 277.807L233.214 282.075L267.164 285.227L266.77 292.187Z" fill="#E5A000" stroke="black" stroke-width="1.5" stroke-linejoin="round"/>
<path d="M605.212 192.836L604.359 192.902L604.03 193.559L605.212 192.836ZM585.118 207.743L585.578 208.137L586.432 207.94L587.154 208.137L587.745 207.283H588.993L590.569 206.692L593.918 205.313L593.589 204.985L592.342 205.51L591.028 206.101L591.16 205.576L592.867 204.853L593.392 204.197L594.18 204.262L596.873 202.752V203.212L594.115 205.182L597.07 203.343L598.186 201.898L599.171 201.833L602.126 199.797L604.227 197.761L606.197 196.251L606.854 195.463L605.738 195.397L605.081 196.185L604.95 196.645L604.359 197.105L603.833 196.382L602.717 197.039L602.651 197.63L602.06 197.499L602.389 196.908L601.601 196.448L601.207 197.039L601.798 197.236L601.929 197.564L601.732 197.893L600.813 199.6H599.565L600.156 198.418L600.747 198.024L600.944 196.908L601.863 195.857L602.454 195.332L603.439 194.872L602.651 194.741L602.192 195.332H601.732L601.01 195.857L600.878 196.514L599.434 197.893L599.171 198.484L598.252 199.075L593.195 200.322L593.327 200.913L592.736 201.373L591.422 201.57L590.766 201.176L590.634 201.898L589.912 201.636L589.978 202.292L589.19 202.227L588.402 202.555L588.27 203.277H587.614L587.745 203.934H587.285L587.417 204.591L586.235 204.853L585.25 206.364L585.118 207.743ZM584.593 207.48L583.542 207.743V208.399L583.083 209.45L583.477 209.91L585.053 208.399L584.987 207.808L584.593 207.48ZM577.961 144.966L577.567 146.214L578.486 146.805L578.223 147.79L578.552 149.891L579.996 151.401L579.734 152.846L580.128 154.159L579.865 154.816L579.668 157.311L581.704 161.711L581.178 162.893L581.769 164.337L582.36 163.287L583.608 164.272L585.578 173.596L585.25 174.91L585.972 175.566L585.644 185.416L586.103 186.073L587.942 196.776L589.124 197.761L586.826 199.994L587.942 201.439L587.088 203.606L586.103 204.722L585.118 206.232L584.987 205.773L585.25 201.898L575.663 198.681L574.612 197.958L573.364 198.155L571.394 196.711L569.424 192.902H568.111L567.848 191.917L566.732 191.195L520.437 200.322L519.912 196.382L522.736 193.821L523.13 192.705L525.691 191.063L526.085 189.487L527.595 188.174L528.12 187.452L527.004 185.285L525.888 184.957L524.706 182.987L524.574 180.885L529.565 178.324L534.95 177.274H537.839L539.94 178.324L540.531 178.259L541.713 177.208L543.946 176.748H545.916L547.623 175.895L549.265 174.187L550.841 172.152L552.088 171.889L552.811 171.561L553.073 169.459L552.154 167.686L551.366 167.227L552.679 166.373L552.614 165.191H551.629L550.118 164.272L550.053 162.236L554.124 158.23L554.584 156.654L557.013 152.518L560.888 148.315L562.267 147.199L563.908 147.264L577.435 143.85L577.961 144.966Z" fill="#E5A000" stroke="black" stroke-width="1.5" stroke-linejoin="round"/>
<path d="M576.385 270.649L557.276 274.655L531.404 279.449L512.098 281.747V285.162L511.113 285.096L510.194 285.884L508.618 289.299L506.911 288.576L504.612 290.218L504.153 291.597L503.168 292.385L502.642 291.859L502.577 290.874L502.051 290.743L499.425 292.91L499.031 295.143L495.944 296.719L495.616 297.507L493.515 299.214L491.151 299.542L488.13 301.512L487.605 304.205L486.751 304.796L485.766 304.73L484.847 305.584L484.781 308.801L498.834 306.831L501.723 305.584L502.577 305.518L507.37 302.694L522.605 301.25L522.868 301.578L522.736 302.497L523.196 302.694L523.984 301.709L526.151 303.679L526.216 305.387L539.153 303.548L555.241 314.777L557.867 313.332L559.837 312.873H560.954L561.676 313.595L562.201 312.282L562.595 308.998L563.712 306.437L567.258 302.432L569.95 300.133L573.496 298.623L575.138 298.36L575.991 298.623L576.451 299.345L578.618 295.011L580.785 291.531L580.325 291.334L577.436 295.799L577.108 295.274L578.421 293.829L578.158 292.844L576.845 292.516L577.502 293.37L576.714 293.435L575.926 292.253L575.138 293.567L574.087 293.698L574.744 291.925L575.203 290.809L575.072 288.905L573.627 288.839L574.218 288.248L574.941 288.445L576.714 288.511L577.239 288.182H578.749L580.063 286.935L580.194 284.833L581.048 283.914L581.836 283.783L582.689 283.126L582.361 280.696L580.916 278.201L579.143 278.07L578.552 279.12L578.224 278.464L576.451 278.595L575.663 278.858L574.415 279.646L574.218 279.383H573.627L572.445 280.171L570.738 280.499V279.646L571.263 278.989L571.92 279.449H572.577L573.693 278.07L576.123 276.953L577.436 275.509H579.012L579.537 276.362L580.654 276.888L580.325 275.903L580.128 274.852L578.29 272.816L578.093 271.897L577.83 272.554L577.239 271.7L576.385 270.649ZM580.982 291.006L582.755 289.364L585.775 287.197V284.768L585.513 282.732L584.397 279.974L585.382 280.893L586.038 282.995L586.301 287.985L585.185 288.248L583.149 289.824L581.048 291.925L580.982 291.006ZM582.23 278.332L581.639 278.201V278.858L583.28 280.302L583.149 279.383L582.23 278.332ZM584.134 279.711L583.215 277.873L581.77 275.64L580.194 273.67L578.749 270.846L578.224 270.387L579.669 273.21L579.866 274.064L582.098 277.676L583.28 279.055L584.134 279.711Z" fill="#E5A000" stroke="black" stroke-width="1.5" stroke-linejoin="round"/>
<path d="M337.163 118.632L336.441 120.47L336.966 121.39L336.769 124.739L336.441 125.461L338.214 131.436L339.067 133.078L339.527 142.271L340.184 144.044L339.921 147.853L341.825 152.712L342.022 156.521L341.957 157.9L322.585 157.637L292.379 156.258L266.638 154.354L270.052 110.555L299.274 112.787L335.587 113.838L337.163 118.632Z" fill="#2378C3" stroke="black" stroke-width="1.5" stroke-linejoin="round"/>
<path d="M482.286 210.696L483.534 210.434L485.504 211.287L486.883 211.681L487.342 212.272H487.999L488.656 211.287L489.509 211.813H490.494L490.429 212.469L488.393 212.798L487.08 213.52L488.327 214.045L489.378 213.06L490.954 212.798L492.399 213.782L493.384 213.717L495.025 212.601L497.389 211.222L500.804 211.025L504.021 207.15L506.517 205.115L512.624 201.766L515.841 221.4L514.397 222.188L515.316 223.567L515.25 225.011L515.644 226.325L514.922 228.557L514.856 232.103L514.2 234.467L514.528 235.19L514.265 236.634L513.543 236.963L512.23 239.13L511.048 240.443H510.654L509.472 241.559L508.618 240.771L507.633 241.953L507.436 242.741H506.582L505.729 244.186L505.794 245.565L505.138 245.893L506.057 246.615V247.863L505.401 247.994L504.941 248.52L504.284 248.848L503.89 247.469L502.84 247.141L502.183 248.651L501.986 250.096L501.264 250.949L502.117 253.313L501.132 253.839L500.87 256.137H499.885L497.783 257.056L496.995 255.677L494.697 254.758L494.172 252.854L493.843 252.328L491.611 253.51L491.217 254.627H490.626L489.772 255.086L488.984 254.561L487.014 254.036L485.766 254.561V255.218L484.322 255.086L483.074 253.707L481.564 253.839L478.871 253.379V252.722L477.427 250.49L475.522 249.702L474.275 250.227L472.83 250.161L471.977 249.833L467.643 212.272L481.695 209.974L482.286 210.696Z" fill="#2378C3" stroke="black" stroke-width="1.5" stroke-linejoin="round"/>
<path d="M361.329 335.33L358.308 332.834L356.863 332.243L356.535 333.294L353.186 333.491L352.792 332.506L349.509 334.148L348.458 333.688L346.028 333.885L345.634 335.001L343.27 335.592L342.417 334.804L341.629 334.87L340.315 333.688L338.936 334.148L337.623 333.819L336.441 332.506L334.799 335.264L334.011 335.789L333.355 334.607L333.552 333.294L332.764 332.834L331.254 334.476L330.137 333.688L330.072 332.703L329.218 333.031L327.511 331.915L325.541 333.622L324.03 332.9L324.49 331.521L322.98 331.587L321.732 329.617L319.434 328.894L318.12 330.405L316.61 328.96L315.691 329.223L314.377 329.288L312.079 328.041L310.569 328.106L309.781 327.647L309.452 325.742L307.942 324.626L307.22 325.611L306.3 324.954L305.512 324.692L304.79 325.348L303.805 325.151L302.163 323.182L300.391 322.328L301.31 294.288L266.77 292.187L267.164 285.227L277.998 285.883L322.454 287.788L363.167 287.853L363.298 294.945L365.991 310.968L365.531 336.577L361.329 335.33Z" fill="#E6E6E6" stroke="black" stroke-width="1.5" stroke-linejoin="round"/>
<path d="M93.6739 182.921L124.537 190.275L130.119 165.782L132.023 161.973L132.285 160.594L132.811 160.003L132.22 158.69L130.316 157.902L130.447 155.144L133.073 151.335L134.715 150.81L135.766 149.3L135.7 148.249L136.882 147.198L138.983 143.587L141.741 140.435L141.413 138.334L139.115 136.298L138.064 133.934L118.167 129.14L116.329 129.797L112.783 129.206L111.601 128.615L110.616 129.403L108.449 129.14L105.494 129.469L104.903 129.928L102.145 129.666L101.619 128.615L100.831 128.484L97.9422 129.337L96.8915 128.615L95.4469 129.14L95.3156 127.958L93.8052 127.17L92.8202 127.039L92.1636 126.317L90.1936 126.514L89.4056 125.988H88.6176L87.8296 126.579L84.218 127.039L79.884 124.281L80.6064 120.604L80.3437 117.911L78.2424 115.482L75.8128 115.548L75.5501 114.825L75.8128 114.037L75.3531 113.512L74.6964 113.578L73.9741 114.431L72.9891 114.3L72.6608 113.578L72.0041 113.512L71.5445 113.906L70.2312 112.658V115.482L69.3775 116.335L68.6552 118.634L68.5895 120.144L65.6345 128.221L56.9666 148.774L54.8653 151.795L53.8147 151.729L53.8803 153.108L50.4657 157.771L50.2687 159.938L50.9254 160.791L50.991 162.367L50.203 163.09L49.415 165.06L49.4807 168.803L50.2687 170.707L93.6739 182.921Z" fill="#936F38" stroke="black" stroke-width="1.5" stroke-linejoin="round"/>
<path d="M574.612 197.957L573.364 198.154L571.394 196.709L569.424 192.901H568.111L567.848 191.916L566.732 191.193L520.437 200.321L519.912 196.381L517.154 198.614L516.563 198.679L514.79 200.649L512.623 201.766L515.841 221.4L517.942 234.336L529.368 232.432L569.096 224.683L569.884 223.304L570.869 222.582L571.919 222.385L572.97 222.779L573.889 221.662L574.94 221.268L576.122 219.298L577.173 217.788L579.34 216.081L576.582 213.979L575.203 213.257L574.546 211.418L572.773 210.827L572.445 208.464L573.101 207.807L573.561 206.494L572.576 205.312L574.546 201.766L574.48 200.321L575.662 198.679L574.612 197.957Z" fill="#E5A000" stroke="black" stroke-width="1.5" stroke-linejoin="round"/>
<path d="M611.976 185.679L611.122 184.957L609.415 184.103L609.021 182.658H608.496L608.036 180.951L603.768 182.264L605.869 190.341L605.606 191.064L605.869 192.246L609.546 189.882L609.612 187.912L609.087 187.386L609.349 186.992L609.283 186.139L608.693 185.679L609.481 185.416L608.89 184.366L610.071 184.825L610.268 185.745L610.728 186.533L609.809 186.007L610.531 187.124L610.334 187.912L609.94 187.189V188.831L610.334 188.24L610.597 188.831L611.451 187.846L611.319 186.204L612.238 188.24L612.895 187.649L611.976 185.679ZM608.89 193.69H609.481L609.809 193.296L609.283 192.443L608.824 192.902L608.89 193.69Z" fill="#936F38" stroke="black" stroke-width="1.5" stroke-linejoin="round"/>
<path d="M539.152 303.548L526.216 305.387L526.15 303.68L523.983 301.71L523.195 302.695L522.736 302.498L522.867 301.578L522.604 301.25L507.37 302.695L502.576 305.518L501.723 305.584L498.833 306.832L498.768 308.079L497.52 308.736L496.601 310.837L496.732 311.691L500.738 314.186L502.445 313.989L504.481 316.616L504.743 317.732L507.501 321.081L509.208 322.197L510.128 322.329L511.572 323.379L512.295 324.824L513.608 325.875L514.79 326.203L516.563 327.976L516.629 328.895L518.336 330.734L521.619 332.244L523.983 336.644L524.18 338.417L526.741 339.796L528.383 342.948L528.908 344.984L531.666 345.246L532.192 344.261H532.586L533.768 343.276L534.096 341.963L536.197 340.584L536.394 339.008L535.606 338.417L536.132 337.957L536.657 338.22L537.51 337.957L538.692 336.578L541.188 335.396L542.238 333.82L542.304 333.361L545.456 330.471L545.39 330.143L544.799 329.618L545.522 328.633H546.047L546.31 328.961L546.769 328.436H547.623L548.017 327.451L549.527 326.072L549.33 322.526L549.856 321.015L552.22 316.944L553.796 315.5L555.24 314.777L539.152 303.548Z" fill="#E6E6E6" stroke="black" stroke-width="1.5" stroke-linejoin="round"/>
<path d="M292.379 156.26L322.585 157.639L341.957 157.901L341.891 159.346L341.3 160.659L339.265 161.907L339.068 162.695L340.184 164.337L340.447 165.519L342.154 165.913L343.139 167.16L343.007 193.098L341.563 193.033L341.497 194.083L342.351 195.068L342.285 195.791L341.628 196.119L341.891 197.17L342.745 197.432L343.204 198.746L342.088 202.095L341.432 204.918L342.285 205.706L342.482 206.56L342.942 207.676L341.957 207.808L340.775 207.348L340.184 205.641L339.396 204.787L335.39 203.342L334.996 202.62L333.683 202.226L332.764 202.62L332.107 202.292L331.516 202.554L331.056 202.292L330.465 202.554L330.006 202.226L329.349 202.686L328.364 202.292L327.182 203.605L326 203.671L324.621 202.357L323.505 202.226L321.272 200.125L296.319 199.074L262.764 196.776L265.325 167.948L266.638 154.355L292.379 156.26Z" fill="#936F38" stroke="black" stroke-width="1.5" stroke-linejoin="round"/>
<path d="M439.734 313.33L469.743 310.704L484.781 308.799L484.847 305.582L485.766 304.728L486.751 304.794L487.605 304.203L488.13 301.51L491.151 299.54L493.514 299.212L495.616 297.505L495.944 296.717L499.03 295.141L499.424 292.908L502.051 290.741L502.576 290.872L502.642 291.857L503.167 292.383L504.152 291.595L504.612 290.216L506.91 288.574L508.618 289.296L510.194 285.882L511.113 285.094L512.098 285.159V281.745L512.295 281.285L509.274 281.613L509.143 282.27L490.166 284.437L486.488 285.356L473.027 286.276L469.612 286.801L458.186 287.458L456.479 287.983L441.638 289.296L441.179 288.902H438.749L439.537 291.004L439.143 291.595L423.843 292.58L423.318 293.236L422.792 292.777H422.136V293.63L422.53 294.287L422.464 294.944L421.545 295.272L422.464 296.257L421.939 296.717L420.822 296.585L421.216 297.242L422.004 297.964V298.424L421.216 298.752L420.56 300.066L420.625 300.46L421.545 301.116L421.282 301.576H420.297V301.904L420.888 302.495L420.954 303.021L420.034 303.152L419.706 303.677L418.655 303.809L418.064 304.4L418.458 304.991L419.181 304.925L419.509 305.516L418.458 306.37L418.721 307.355L417.408 306.961L417.342 307.42L417.605 308.143L417.408 309.062L416.554 308.537L416.029 309.062L416.751 309.128L416.817 310.113L416.423 310.769L417.145 311.36L416.948 312.345L417.473 312.805L417.014 313.461L416.226 313.133L415.635 314.578L414.584 315.037L439.734 313.33Z" fill="#936F38" stroke="black" stroke-width="1.5" stroke-linejoin="round"/>
<path d="M217.389 355.291L217.586 353.321L240.175 355.685L261.057 357.392L266.244 292.186H266.769L301.31 294.287L300.39 322.326L302.163 323.18L303.805 325.15L304.79 325.347L305.512 324.69L306.3 324.953L307.22 325.61L307.942 324.625L309.452 325.741L309.781 327.645L310.569 328.105L312.079 328.039L314.377 329.287L315.691 329.221L316.61 328.958L318.12 330.403L319.434 328.893L321.732 329.615L322.98 331.585L324.49 331.519L324.03 332.898L325.541 333.621L327.51 331.913L329.218 333.03L330.071 332.701L330.137 333.686L331.253 334.474L332.764 332.833L333.552 333.292L333.355 334.606L334.011 335.788L334.799 335.262L336.441 332.504L337.623 333.818L338.936 334.146L340.315 333.686L341.629 334.868L342.417 334.803L343.27 335.591L345.634 335L346.028 333.883L348.458 333.686L349.509 334.146L352.792 332.504L353.186 333.489L356.535 333.292L356.863 332.242L358.308 332.833L361.328 335.328L365.531 336.576L367.238 338.086L369.077 337.232L371.178 337.758L371.31 345.572L371.638 358.64L372.098 360.872L373.805 362.711L374.265 366.257L376.76 369.277L377.285 372.101H377.942L377.876 376.895L375.709 381.097L376.563 382.608L375.709 383.593L376.169 385.563L376.103 388.386L374.659 390.684L374.593 391.21L373.477 391.998L374.133 393.18L374.921 393.902L372.623 394.099L367.107 396.66L364.809 397.579L363.627 398.761L363.167 398.433L364.546 396.923L365.728 396.463L366.056 395.872L364.152 395.806L363.692 395.281L364.218 393.968L363.627 392.786H363.233L361.657 393.639L360.409 395.347L360.606 396.463L362.773 398.696L363.627 398.893V399.418L362.116 400.469L358.899 403.095L356.272 405.656L354.171 406.576L350.888 408.546L348.458 409.859L345.503 411.107L342.811 412.748L344.912 410.778V410.056L345.306 409.531L345.175 408.349L344.19 408.283L343.467 409.268L341.76 410.122L340.578 409.334L340.381 408.217H339.396L339.921 409.662L340.841 410.122L341.629 410.713L342.811 411.763L342.351 412.289L339.79 413.405L338.674 413.471L337.886 412.683L337.557 414.062L337.886 414.784L336.113 416.097L335.128 416.229L334.602 416.688L334.34 417.805L333.158 419.972L332.107 420.431L331.056 420.037L329.874 420.76L330.071 421.679L330.925 422.204L331.582 422.729L330.4 425.028L330.203 426.866L329.546 427.983L328.627 428.639L326.722 428.902L327.904 429.296L329.152 428.902L328.889 431.003L328.167 430.938L328.298 431.726L328.495 432.645L327.642 433.236V435.272L328.692 436.191L329.086 438.227L328.824 439.671L328.167 439.934L328.43 440.919L329.152 441.182L329.677 442.298V444.005L330.4 445.384L331.844 447.092L331.779 447.551L330.334 447.42L329.283 448.339L329.415 449.259L328.824 449.062L327.904 448.93L325.672 446.501L324.162 446.107H319.499L317.661 445.581L315.297 443.611L314.18 442.955L312.801 443.02L310.7 441.313L307.154 440.262V439.409L306.235 438.227L305.644 435.14L304.921 434.024L303.805 433.105V432.054L302.886 431.66L303.28 429.953L303.083 428.508L302.229 427.589L302.689 425.619L302.163 423.517L301.047 422.598H300.325L297.698 420.3L297.764 419.052L297.238 417.936L296.713 417.805L296.122 416.229L294.809 415.178L292.905 413.536L292.773 412.157L292.117 411.698L292.248 410.647L292.576 410.187L291.657 409.202L291.723 408.743L290.409 407.298L290.475 405.919L288.702 402.701L288.636 401.585L287.454 399.549L284.105 396.397V395.675L281.938 394.559L281.873 393.377L281.085 393.114V392.654L280.559 392.523L279.18 390.684H278.655L278.195 390.29L277.342 391.013H275.897L274.19 390.29H271.169L268.411 388.912L267.557 390.159L266.113 389.765L263.946 390.553L262.83 392.392L261.516 394.493L260.794 397.382L259.875 398.17L259.152 398.236L258.561 399.287L257.708 399.681L257.642 400.863L255.738 400.928L254.556 399.943H253.899L252.586 398.039L250.222 397.711L249.105 396.2L248.252 396.069L246.873 395.544L244.64 393.311L244.771 392.786L243.721 391.998L243.064 391.932L240.831 389.897L240.766 388.583L239.255 385.957L239.387 384.906L238.927 384.052L239.452 383.067L239.387 381.491L237.679 378.799L237.285 376.041L236.235 374.99V374.334L235.447 374.202L234.987 373.48L233.411 372.364L232.82 372.298L231.573 371.247V370.525L229.668 369.343L229.274 367.964L227.567 366.454L225.466 363.564L223.496 362.711L222.117 361.529L222.248 360.741L221.394 359.821L220.278 357.392L218.702 356.735L217.389 355.291ZM332.238 446.107L332.764 446.172L332.37 443.02L330.071 434.943L329.94 429.624L333.158 422.729L337.163 417.345L341.891 413.996V413.536H341.366L339.659 414.193L337.295 415.703L336.835 416.688L331.45 424.305L329.612 429.493V435.272L331.976 443.152L332.238 446.107Z" fill="#4F97D1" stroke="black" stroke-width="1.5" stroke-linejoin="round"/>
<path d="M185.147 216.672L187.314 202.291L155.86 196.906L142.07 268.482L172.408 273.867L198.674 277.807L206.226 219.824L185.147 216.672Z" fill="#4F97D1" stroke="black" stroke-width="1.5" stroke-linejoin="round"/>
<path d="M596.15 140.827L595.428 143.125L596.807 144.964L596.544 146.08L596.61 146.934L595.888 148.313L594.968 148.575L594.574 149.429L593.195 150.086L592.736 151.071L593.655 153.303L593.327 154.945L593.655 155.93L592.998 157.178L593.261 158.425L592.407 159.673L592.539 161.118L592.079 161.84L592.539 164.795L592.998 165.78L592.67 167.487L593.261 168.669L593.13 170.311L592.801 171.164L592.736 172.084L594.115 173.791L585.972 175.564L585.25 174.907L585.578 173.594L583.608 164.269L582.36 163.284L581.77 164.335L581.179 162.89L581.704 161.708L579.668 157.309L579.865 154.814L580.128 154.157L579.734 152.844L579.997 151.399L578.552 149.889L578.224 147.787L578.486 146.802L577.567 146.211L577.961 144.964L577.436 143.847L595.362 139.316L596.15 140.827Z" fill="#936F38" stroke="black" stroke-width="1.5" stroke-linejoin="round"/>
<path d="M580.127 247.862L579.405 249.701L579.733 250.423L579.996 249.701L580.521 247.665L580.127 247.862ZM557.407 243.266L556.947 242.609L557.604 242.543L558.261 241.952L558.523 240.77L558.392 240.442L558.458 240.114L558.261 239.654L557.867 239.326L557.604 239.26L557.276 238.997L556.882 238.603H556.225L555.831 238.538L555.568 238.275L555.634 237.947L554.518 237.553L553.992 237.75L553.204 237.684L552.745 237.224L552.416 237.093L552.285 236.634L552.679 236.108V235.517L551.891 235.386L551.234 234.795L550.643 234.861L549.593 234.664L549.33 235.123L549.067 236.174L548.739 237.684L542.172 234.27L542.041 234.861L542.632 235.911L542.107 237.421L542.172 239.326L541.384 239.851L541.056 241.23L540.465 241.755L539.546 242.937L538.955 243.463L538.298 245.104L536.722 244.382L535.212 249.964L534.358 251.014L532.52 250.686L531.666 249.438L530.156 248.979L530.09 252.065L529.171 253.181L529.433 254.166L528.054 255.611L528.317 256.859L525.887 260.996L525.231 263.163L526.216 263.951L525.231 265.198L525.296 266.118L523.786 267.431L523.326 266.709L520.503 268.744L519.518 268.088L519.124 269.007L519.649 269.335L519.321 269.926L515.709 271.502L513.739 270.32L513.214 271.436L511.966 272.618L510.456 272.684L507.567 271.174L507.501 270.189L506.516 269.729L507.041 268.941L506.582 268.547L503.364 272.881L501.46 273.538L499.49 275.508L499.227 276.952L497.848 277.806L497.782 278.922L496.863 279.842L495.681 280.17L495.353 281.418L494.696 281.68L490.165 284.438L509.142 282.271L509.274 281.615L512.294 281.286L512.097 281.746L531.403 279.448L557.276 274.654L576.384 270.648L575.99 269.86L576.253 269.795L576.844 270.386L576.778 269.466L576.581 268.219L577.632 269.007L578.223 270.386V269.532L575.99 265.921V265.133L575.531 264.607L574.677 265.067L575.005 265.986H574.48L574.217 265.33L573.823 265.921L573.232 265.198L571.853 265.133L571.722 265.592L572.707 266.971L571.788 266.512L571.459 265.855L571.197 266.38L570.671 266.446L569.687 267.562L569.883 266.512V265.592L568.899 265.133L567.717 264.804L567.585 263.688L567.191 262.834L566.797 263.557L565.681 262.9L564.368 263.097L564.499 262.506L565.484 262.375L566.075 262.703L567.191 262.178L567.782 262.44L568.111 263.097V263.557L569.358 263.819L569.555 264.41L570.146 264.673L570.737 265.461L571.656 264.41H572.05L571.985 263.031L571.131 263.688L570.737 263.097L571.722 262.966L570.934 262.375L570.146 262.769L570.081 261.652L568.964 261.784L567.52 261.061L566.338 259.617L568.702 261.061L569.293 261.258L570.409 260.733L569.293 260.142L569.687 259.748L569.03 259.42L569.555 259.288L569.358 258.697L570.081 259.288L570.343 258.763L570.606 259.617L571.394 260.142L571.788 259.814L571.459 259.42L571.394 257.778L570.671 257.712L569.621 257.187L570.212 256.465L568.899 256.399L568.636 256.071L567.717 256.465L566.797 255.939L566.469 255.151L565.09 254.363L563.711 253.181L562.266 251.934L564.236 252.787L564.827 253.575L566.206 254.035L567.717 255.677L567.848 254.56L568.242 255.414L569.752 255.742V253.116L569.227 252.393L569.949 252.656L570.015 251.605L567.979 250.686L566.929 250.555L566.075 250.423L566.272 249.635L565.287 249.438L565.221 249.044H564.039L563.908 249.57L563.448 248.913H561.675L561.019 248.65L560.887 247.994L560.099 247.6L559.837 246.615L559.443 246.352L558.983 247.074L558.392 247.206L557.801 247.665H556.816L556.225 246.812L556.488 244.776L556.816 243.2L557.21 243.528L557.407 243.266ZM571.788 250.883L572.379 250.817V250.423L571.853 250.489L571.788 250.883ZM576.713 260.208L576.056 261.981L576.844 261.127L576.713 260.208ZM575.531 250.161L575.99 250.358L575.859 251.605L575.531 251.277L574.677 251.934L575.334 252.196L574.152 255.086L574.217 260.405L575.465 262.44L575.793 261.455L576.056 259.682L575.859 258.172L576.319 257.581L576.187 256.662L576.975 256.268L576.581 255.939L576.91 255.48L577.435 256.202L577.304 256.924L577.041 259.485L577.763 258.041L578.026 256.005L578.092 254.035L577.895 252.722L578.289 251.211L579.011 250.029L579.077 248.585L579.274 247.994L576.253 249.044L575.793 249.57L575.531 250.161Z" fill="#E5A000" stroke="black" stroke-width="1.5" stroke-linejoin="round"/>
<path d="M138.327 128.482L138.787 131.109L138.064 133.932L118.168 129.139L116.329 129.795L112.783 129.204L111.601 128.613L110.616 129.401L108.449 129.139L105.494 129.467L104.903 129.927L102.145 129.664L101.62 128.613L100.832 128.482L97.9424 129.336L96.8918 128.613L95.4471 129.139L95.3158 127.957L93.8055 127.169L92.8205 127.037L92.1638 126.315L90.1938 126.512L89.4058 125.987H88.6178L87.8299 126.578L84.2182 127.037L79.8843 124.279L80.6066 120.602L80.3439 117.91L78.2426 115.48L75.813 115.546L75.5503 114.824L75.813 114.036L75.3533 113.51L74.6967 113.576L73.3177 112.591L72.5297 112.854L71.2164 112.788L70.7567 111.803L69.7061 111.606L71.3477 106.681L70.888 110.621L71.2164 110.949V109.636L71.7417 109.505L72.464 111.015L72.1357 109.57L72.9237 106.812L74.1057 107.075L73.3833 105.762L72.7267 105.959L71.7417 105.696L71.873 102.938L72.0044 103.923L72.5954 104.251L72.9894 103.201H75.0907L73.646 102.413L72.5297 101.165L71.6104 102.216L72.3984 100.18L72.2014 97.1595L72.07 94.7955L72.661 90.7899L72.3327 89.4765L71.4134 88.0975L71.479 85.4709L71.7417 83.6979L73.055 82.1876L72.5954 81.2683L72.7267 80.8743L73.3177 80.94L78.4396 85.9306L81.5259 87.1782L84.8749 88.8199L86.9762 88.7542L87.1075 90.7242L87.7642 89.6735H88.2239L88.6178 91.4465L88.9462 89.7392L89.8655 89.6079L90.1938 90.0675L89.4715 90.4615L89.5372 91.5122L89.9968 90.5272H90.7192L90.4565 92.2345L89.7342 91.7092L89.9968 92.6285L89.9312 93.6135L89.4058 94.0732L87.7642 95.9775L88.5522 93.7448L87.5015 94.0075L87.2389 95.3865L84.7436 97.2251L84.4809 97.8818L83.1019 99.3264L83.0362 99.9831H84.4809L86.0569 99.8518L86.3852 99.2608L83.8242 99.5891V99.1951L85.5316 97.3564L86.7135 96.8311L87.9612 96.6998L88.6178 95.6491L90.5878 94.1388V93.2195H91.3102L91.3758 95.8461H90.3908L89.9968 96.3715L89.2745 95.7805L89.4715 96.5028V97.6191L89.0118 98.0788L88.8148 97.0281L88.2895 97.5534L88.7492 97.9474L88.1582 98.6698H89.0118L89.4715 98.3414L89.5372 99.6548L88.8805 100.902L88.2895 101.559L88.2239 102.741L87.5672 102.61L87.4359 101.69L88.0269 100.968L87.5015 100.64L86.9762 101.099L86.5165 102.544L85.9912 103.135L85.9255 101.822L86.4509 101.099L86.3195 100.377L85.5316 101.165L85.5972 102.61L85.2032 102.872L83.8242 102.61L82.9706 103.398L84.4152 103.004L84.2839 104.448L84.9406 103.266L85.2032 104.186L85.5316 103.529L85.9912 104.711H86.4509L86.9105 104.186L87.3045 104.12L88.6178 102.872L88.7492 102.084L89.2745 102.478L89.4715 103.069L89.9312 102.872L89.9968 102.084H90.8505L90.9818 100.18L90.9162 98.4071L91.5072 98.6041L91.0475 97.2251L91.9668 96.6998L92.0981 95.1238L93.6085 93.6792L94.2651 93.7448L94.4621 92.8255L93.6741 91.9062L93.6085 89.6079L93.0831 90.1989L93.5428 92.1032L93.1488 92.1688L92.7548 90.9212L92.3608 90.5929L92.5578 89.0825L93.7398 89.0169L93.9368 89.4765L94.1338 88.4259L93.0831 87.3096L92.6891 86.2589L92.5578 87.5722L93.1488 88.2945L92.6891 88.5572L92.0325 88.0319L90.8505 88.8855L91.8355 89.2139L91.9668 90.7899L91.7698 91.9718L92.3608 91.1182L93.2801 92.6285L93.0175 93.8762H92.0325V93.0882L91.0475 92.3002L91.3758 90.3302L90.1282 88.6229L91.9011 86.6529L92.2951 83.9606H92.8861L93.8055 86.0619V84.3546L94.5935 84.5516V82.3846L94.0025 81.8593L93.2145 83.5009L92.5578 81.531L93.4115 81.4653L92.4265 78.2477L93.6741 77.8537L110.353 82.7786L131.169 88.0319L146.667 91.6435L138.327 128.482ZM86.6479 102.61H86.9762L87.0419 103.135L86.7135 103.332L86.7792 103.726L86.3195 103.989L86.1882 103.398L86.5165 103.135L86.6479 102.61ZM89.9312 99.7861L89.1432 101.034L89.0775 101.559L89.3402 101.69L89.6685 101.296L90.3908 101.362L89.9312 99.7861ZM89.6685 85.6022L89.9968 85.9962L90.8505 85.7992L90.9818 85.1426L91.7698 83.9606L91.1132 83.6979L90.6535 84.7486L90.5878 83.6979L89.8655 83.8293L89.4058 84.7486L89.6685 85.6022ZM91.7698 81.9906L92.2295 82.9756L91.6385 83.1069L91.1132 83.3696L90.9818 81.7936L91.7698 81.9906ZM89.9968 80.94L89.2745 80.8086L89.6028 81.7279L89.9968 80.94ZM89.3402 82.5816L89.8655 82.8443L89.6028 83.5666L90.7192 83.2383L90.5878 81.7936L89.9968 81.6623L89.3402 82.5816ZM87.5672 82.3189L87.7642 84.0919L88.8148 84.9456L89.2088 83.6979L88.4865 82.2533L87.5672 82.3189ZM88.8148 81.5966L88.0925 80.94L87.5015 81.0056L88.6835 81.9906L88.8148 81.5966ZM90.9162 77H90.1282V77.5253L90.9162 77.9193V77ZM90.3252 98.3414L90.5878 96.5685H89.8655L89.7342 97.8161L90.3252 98.3414Z" fill="#E5A000" stroke="black" stroke-width="1.5" stroke-linejoin="round"/>
<path d="M507.041 268.941L506.516 269.729L507.501 270.188L507.567 271.173L510.456 272.684L511.966 272.618L513.214 271.436L513.739 270.32L515.709 271.502L519.321 269.926L519.649 269.335L519.124 269.006L519.518 268.087L520.503 268.744L523.327 266.708L523.786 267.43L525.297 266.117L525.231 265.198L526.216 263.95L525.231 263.162L525.887 260.995L528.317 256.858L528.054 255.61L529.433 254.166L529.171 253.181L530.09 252.064L530.156 248.978L531.666 249.438L532.52 250.685L534.358 251.014L535.212 249.963L536.722 244.382L538.298 245.104L538.955 243.462L539.546 242.937L540.465 241.755L541.056 241.23L541.385 239.851L542.173 239.325L542.107 237.421L542.632 235.911L542.041 234.86L542.173 234.269L548.739 237.684L549.068 236.173L549.33 235.123L549.593 234.663L549.002 234.4L549.133 233.35L548.477 233.021L548.345 232.562H547.886L547.36 231.774L547.492 231.117L545.784 231.38L544.34 230.329L543.42 230.526L542.829 231.445H541.976L540.859 233.35L538.692 233.612L537.445 232.956L535.737 235.451L534.293 235.254L532.257 237.815L531.666 238.866L530.484 239.916L529.368 232.43L517.942 234.335L515.841 221.398L514.396 222.186L515.315 223.565L515.25 225.01L515.644 226.323L514.921 228.556L514.856 232.102L514.199 234.466L514.527 235.188L514.265 236.633L513.542 236.961L512.229 239.128L511.047 240.442H510.653L509.471 241.558L508.617 240.77L507.632 241.952L507.435 242.74H506.582L505.728 244.185L505.794 245.564L505.137 245.892L506.056 246.614V247.862L505.4 247.993L504.94 248.518L504.283 248.847L503.889 247.468L502.839 247.139L502.182 248.65L501.985 250.094L501.263 250.948L502.116 253.312L501.131 253.837L500.869 256.136H499.884L497.782 257.055L497.717 257.777L498.111 258.434L497.717 260.798L498.964 261.849L499.49 262.571L500.146 262.965L500.081 263.556L502.97 267.233H503.889L504.874 268.415L505.662 268.612L506.582 268.547L507.041 268.941Z" fill="#2378C3" stroke="black" stroke-width="1.5" stroke-linejoin="round"/>
<path d="M433.233 168.145L431.328 168.67L431.46 170.18L429.884 172.413L429.753 174.449L430.146 174.908L430.672 174.449L431 173.398L432.313 172.676L433.364 169.918L435.662 169.195L436.188 167.028L436.647 166.437L436.91 165.058L438.092 164.336V163.351L438.749 162.76L439.668 162.826V164.139L439.011 164.205L439.34 164.993L438.88 166.437L438.486 166.503L437.698 169.458L437.238 169.786L435.4 174.514L435.203 177.272L435.597 178.585L435.662 179.439L434.086 180.687L434.283 181.934L433.692 183.97L433.889 185.021L434.152 187.45L433.43 190.143L432.445 193.426L433.101 194.411L432.904 194.608L433.43 195.724L433.101 196.447L433.824 197.038V198.811L434.677 199.796L434.415 201.766L434.612 204.392L404.471 206.231L403.617 204.392L401.45 203.933L399.678 202.948L398.364 199.336L398.43 197.694L399.48 195.527L399.086 194.805L397.708 193.754L397.576 192.047L396.854 189.092L396.723 187.122L395.278 185.152L393.439 184.692L390.025 182.328L389.631 180.161L385.494 178.126L385.362 177.272H383.195L381.751 175.565L380.437 174.711L380.897 171.362L380.306 170.312L380.634 166.766L381.291 165.584L381.094 163.811L380.306 162.957L379.124 162.76V161.644L380.963 157.835L384.837 155.274L384.574 146.737L385.165 147L385.559 146.672L385.625 145.949L386.216 145.555L387.135 146.343L387.595 146.278H389.302L393.768 144.57L393.965 143.914H394.753L395.212 143.126L395.475 143.651L396.657 143.06L397.839 141.944L398.036 142.272L398.693 141.616L400.137 142.666L399.612 143.717L398.824 144.636L399.152 145.621L398.233 146.672L398.495 147.263L400.006 146.54V145.621L402.173 146.869L403.42 147.328L404.668 147.788L406.638 150.283L417.801 152.779L418.721 153.435L421.347 153.961L421.807 154.289L423.646 154.158L426.863 154.683L427.783 155.668L427.126 156.325L427.651 156.85L430.146 157.31L430.934 158.098L431 160.987L430.146 162.826L431.46 162.891L432.116 162.366L432.707 162.891L431.985 164.927L432.642 165.978L433.43 166.175L433.233 168.145ZM400.728 143.651L400.4 143.717L399.415 144.767L399.546 145.096L400.531 144.702V144.308L401.122 144.111L400.728 143.651ZM401.779 142.929L401.122 143.126L400.991 143.585L401.582 143.52L401.779 142.929ZM400.925 141.878L400.794 142.469H401.91L402.304 142.207L402.37 141.55L400.925 141.878ZM402.764 139.908L402.567 141.156L403.355 140.828L403.42 139.908H402.764ZM441.047 160.856L439.734 161.053L439.471 161.906L440.325 163.023L441.047 160.856Z" fill="#E6E6E6" stroke="black" stroke-width="1.5" stroke-linejoin="round"/>
<path d="M265.325 167.947L231.835 164.467L194.208 159.279L192.895 166.306L187.313 202.291L185.146 216.671L206.225 219.823L235.709 223.566L260.334 225.799L262.764 196.775L265.325 167.947Z" fill="#2378C3" stroke="black" stroke-width="1.5" stroke-linejoin="round"/>
<path d="M559.639 239.063L557.932 237.881L557.275 238.997L557.604 239.26L557.866 239.326L558.26 239.654L558.457 240.114L558.392 240.442L558.523 240.77L559.639 239.063Z" fill="#936F38" stroke="black" stroke-width="1.5" stroke-linejoin="round"/>
<path d="M439.734 313.332L469.744 310.705Z" fill="#936F38"/>
<path d="M439.734 313.332L469.744 310.705" stroke="black" stroke-width="1.5" stroke-linejoin="round"/>
<path d="M371.31 345.574L405.653 344.721Z" fill="#936F38"/>
<path d="M371.31 345.574L405.653 344.721" stroke="black" stroke-width="1.5" stroke-linejoin="round"/>
<path d="M129.856 295.602L129.265 296.981L130.118 299.213L131.038 300.395L131.826 304.204L133.336 305.845L133.598 307.093L132.745 307.947L129.593 309.063L128.017 311.427L126.966 316.024L125.39 318.125L124.34 318.322L123.617 322.853L124.34 323.904L125.522 324.035L126.178 325.086L125.653 326.662L123.683 328.106L122.238 328.041" fill="#936F38"/>
<path d="M129.856 295.602L129.265 296.981L130.118 299.213L131.038 300.395L131.826 304.204L133.336 305.845L133.598 307.093L132.745 307.947L129.593 309.063L128.017 311.427L126.966 316.024L125.39 318.125L124.34 318.322L123.617 322.853L124.34 323.904L125.522 324.035L126.178 325.086L125.653 326.662L123.683 328.106L122.238 328.041" stroke="black" stroke-width="1.5" stroke-linejoin="round"/>
<path d="M198.674 277.807L187.248 359.298Z" fill="#936F38"/>
<path d="M198.674 277.807L187.248 359.298" stroke="black" stroke-width="1.5" stroke-linejoin="round"/>
<path d="M142.07 268.48L172.408 273.865L198.674 277.805" fill="#936F38"/>
<path d="M142.07 268.48L172.408 273.865L198.674 277.805" stroke="black" stroke-width="1.5" stroke-linejoin="round"/>
<path d="M281.15 241.887L277.998 285.883Z" fill="#936F38"/>
<path d="M281.15 241.887L277.998 285.883" stroke="black" stroke-width="1.5" stroke-linejoin="round"/>
<path d="M198.674 277.807L233.214 282.075L267.163 285.227" fill="#936F38"/>
<path d="M198.674 277.807L233.214 282.075L267.163 285.227" stroke="black" stroke-width="1.5" stroke-linejoin="round"/>
<path d="M267.163 285.227L277.998 285.883Z" fill="#936F38"/>
<path d="M267.163 285.227L277.998 285.883" stroke="black" stroke-width="1.5" stroke-linejoin="round"/>
<path d="M206.225 219.822L198.674 277.805Z" fill="#936F38"/>
<path d="M206.225 219.822L198.674 277.805" stroke="black" stroke-width="1.5" stroke-linejoin="round"/>
<path d="M206.225 219.822L235.709 223.565L260.333 225.798" fill="#936F38"/>
<path d="M206.225 219.822L235.709 223.565L260.333 225.798" stroke="black" stroke-width="1.5" stroke-linejoin="round"/>
<path d="M586.104 186.072L592.998 184.496L593.327 184.956L593.918 184.759V184.299L603.702 182.066L603.768 182.263" fill="#936F38"/>
<path d="M586.104 186.072L592.998 184.496L593.327 184.956L593.918 184.759V184.299L603.702 182.066L603.768 182.263" stroke="black" stroke-width="1.5" stroke-linejoin="round"/>
<path d="M587.942 201.436L586.826 199.991L589.124 197.759L587.942 196.774L586.104 186.07" fill="#936F38"/>
<path d="M587.942 201.436L586.826 199.991L589.124 197.759L587.942 196.774L586.104 186.07" stroke="black" stroke-width="1.5" stroke-linejoin="round"/>
<path d="M603.768 182.264L605.869 190.341L605.606 191.063L605.869 192.245" fill="#936F38"/>
<path d="M603.768 182.264L605.869 190.341L605.606 191.063L605.869 192.245" stroke="black" stroke-width="1.5" stroke-linejoin="round"/>
<path d="M558.523 240.77L559.639 239.063L557.932 237.881L557.275 238.997" fill="#936F38"/>
<path d="M558.523 240.77L559.639 239.063L557.932 237.881L557.275 238.997" stroke="black" stroke-width="1.5" stroke-linejoin="round"/>
<path d="M557.275 238.996L557.604 239.259L557.866 239.324L558.26 239.653L558.457 240.112L558.392 240.441L558.523 240.769" fill="#936F38"/>
<path d="M557.275 238.996L557.604 239.259L557.866 239.324L558.26 239.653L558.457 240.112L558.392 240.441L558.523 240.769" stroke="black" stroke-width="1.5" stroke-linejoin="round"/>
<path d="M569.096 224.682L574.086 242.477L581.244 240.967" fill="#936F38"/>
<path d="M569.096 224.682L574.086 242.477L581.244 240.967" stroke="black" stroke-width="1.5" stroke-linejoin="round"/>
<path d="M572.97 222.779L572.313 224.224L572.116 225.603" fill="#936F38"/>
<path d="M572.97 222.779L572.313 224.224L572.116 225.603" stroke="black" stroke-width="1.5" stroke-linejoin="round"/>
<path d="M569.096 224.683L569.884 223.304L570.869 222.582L571.919 222.385L572.97 222.779" fill="#936F38"/>
<path d="M569.096 224.683L569.884 223.304L570.869 222.582L571.919 222.385L572.97 222.779" stroke="black" stroke-width="1.5" stroke-linejoin="round"/>
<path d="M484.781 308.8L498.834 306.83Z" fill="#936F38"/>
<path d="M484.781 308.8L498.834 306.83" stroke="black" stroke-width="1.5" stroke-linejoin="round"/>
<path d="M469.742 310.705L484.78 308.801Z" fill="#936F38"/>
<path d="M469.742 310.705L484.78 308.801" stroke="black" stroke-width="1.5" stroke-linejoin="round"/>
<path d="M343.008 193.098H361.526L385.362 192.507L397.576 192.047" fill="#936F38"/>
<path d="M343.008 193.098H361.526L385.362 192.507L397.576 192.047" stroke="black" stroke-width="1.5" stroke-linejoin="round"/>
<path d="M124.537 190.273L140.56 193.819L155.86 196.906" fill="#936F38"/>
<path d="M124.537 190.273L140.56 193.819L155.86 196.906" stroke="black" stroke-width="1.5" stroke-linejoin="round"/>
<path d="M187.313 202.291L155.859 196.906Z" fill="#936F38"/>
<path d="M187.313 202.291L155.859 196.906" stroke="black" stroke-width="1.5" stroke-linejoin="round"/>
<path d="M146.667 91.6445L138.327 128.483L138.787 131.11L138.064 133.933" fill="#936F38"/>
<path d="M146.667 91.6445L138.327 128.483L138.787 131.11L138.064 133.933" stroke="black" stroke-width="1.5" stroke-linejoin="round"/>
<path d="M192.895 166.307L187.313 202.292Z" fill="#936F38"/>
<path d="M192.895 166.307L187.313 202.292" stroke="black" stroke-width="1.5" stroke-linejoin="round"/>
<path d="M404.471 206.231L434.611 204.393Z" fill="#936F38"/>
<path d="M404.471 206.231L434.611 204.393" stroke="black" stroke-width="1.5" stroke-linejoin="round"/>
<path d="M446.301 213.586L467.577 211.354L467.642 212.273" fill="#936F38"/>
<path d="M446.301 213.586L467.577 211.354L467.642 212.273" stroke="black" stroke-width="1.5" stroke-linejoin="round"/>
<path d="M471.976 249.832L467.642 212.271Z" fill="#936F38"/>
<path d="M471.976 249.832L467.642 212.271" stroke="black" stroke-width="1.5" stroke-linejoin="round"/>
<path d="M363.167 287.853L362.839 256.268L360.737 255.808L359.03 252.722L357.388 251.08L357.717 249.57L359.49 247.863L359.555 247.075L358.57 245.696L357.979 246.352L356.666 245.958L354.762 243.988" fill="#936F38"/>
<path d="M363.167 287.853L362.839 256.268L360.737 255.808L359.03 252.722L357.388 251.08L357.717 249.57L359.49 247.863L359.555 247.075L358.57 245.696L357.979 246.352L356.666 245.958L354.762 243.988" stroke="black" stroke-width="1.5" stroke-linejoin="round"/>
<path d="M281.15 241.887L304.79 243.2L333.486 243.988H354.762" fill="#936F38"/>
<path d="M281.15 241.887L304.79 243.2L333.486 243.988H354.762" stroke="black" stroke-width="1.5" stroke-linejoin="round"/>
<path d="M277.998 285.883L322.454 287.787L363.167 287.853" fill="#936F38"/>
<path d="M277.998 285.883L322.454 287.787L363.167 287.853" stroke="black" stroke-width="1.5" stroke-linejoin="round"/>
<path d="M423.842 292.58L439.142 291.595L439.536 291.004L438.748 288.903H441.178L441.638 289.297L456.478 287.983L458.185 287.458L469.611 286.801L473.026 286.276L486.487 285.357L490.165 284.438M422.135 292.777H422.791Z" fill="#936F38"/>
<path d="M423.842 292.58L439.142 291.595L439.536 291.004L438.748 288.903H441.178L441.638 289.297L456.478 287.983L458.185 287.458L469.611 286.801L473.026 286.276L486.487 285.357L490.165 284.438M422.135 292.777H422.791" stroke="black" stroke-width="1.5" stroke-linejoin="round"/>
<path d="M594.114 173.791L606.197 171.295L606.853 170.31L607.05 169.194L608.298 168.8L608.626 168.078L609.743 167.355L610.596 167.552" fill="#936F38"/>
<path d="M594.114 173.791L606.197 171.295L606.853 170.31L607.05 169.194L608.298 168.8L608.626 168.078L609.743 167.355L610.596 167.552" stroke="black" stroke-width="1.5" stroke-linejoin="round"/>
<path d="M586.102 186.071L585.643 185.414L585.971 175.564" fill="#936F38"/>
<path d="M586.102 186.071L585.643 185.414L585.971 175.564" stroke="black" stroke-width="1.5" stroke-linejoin="round"/>
<path d="M603.768 182.264L608.036 180.951L608.496 182.658H609.021L609.415 184.103L611.122 184.957L611.976 185.679L612.895 187.649" fill="#936F38"/>
<path d="M603.768 182.264L608.036 180.951L608.496 182.658H609.021L609.415 184.103L611.122 184.957L611.976 185.679L612.895 187.649" stroke="black" stroke-width="1.5" stroke-linejoin="round"/>
<path d="M585.972 175.564L594.114 173.791Z" fill="#936F38"/>
<path d="M585.972 175.564L594.114 173.791" stroke="black" stroke-width="1.5" stroke-linejoin="round"/>
<path d="M529.368 232.43L569.096 224.682Z" fill="#936F38"/>
<path d="M529.368 232.43L569.096 224.682" stroke="black" stroke-width="1.5" stroke-linejoin="round"/>
<path d="M572.379 250.424L571.854 250.49ZM580.521 247.666L580.127 247.863ZM579.274 247.994L576.253 249.045L575.793 249.57M557.276 238.998L556.882 238.604H556.225L555.831 238.538L555.568 238.276L555.634 237.947L554.518 237.553L553.992 237.75L553.204 237.685L552.745 237.225L552.416 237.094L552.285 236.634L552.679 236.109V235.518L551.891 235.386L551.234 234.795L550.643 234.861L549.593 234.664M557.21 243.529L557.407 243.266L556.947 242.61L557.604 242.544L558.261 241.953L558.523 240.771" fill="#936F38"/>
<path d="M572.379 250.424L571.854 250.49M580.521 247.666L580.127 247.863M579.274 247.994L576.253 249.045L575.793 249.57M557.276 238.998L556.882 238.604H556.225L555.831 238.538L555.568 238.276L555.634 237.947L554.518 237.553L553.992 237.75L553.204 237.685L552.745 237.225L552.416 237.094L552.285 236.634L552.679 236.109V235.518L551.891 235.386L551.234 234.795L550.643 234.861L549.593 234.664M557.21 243.529L557.407 243.266L556.947 242.61L557.604 242.544L558.261 241.953L558.523 240.771" stroke="black" stroke-width="1.5" stroke-linejoin="round"/>
<path d="M611.122 164.401L609.611 163.481L609.086 162.037L606.985 160.723L606.591 158.097L598.776 133.932" fill="#936F38"/>
<path d="M611.122 164.401L609.611 163.481L609.086 162.037L606.985 160.723L606.591 158.097L598.776 133.932" stroke="black" stroke-width="1.5" stroke-linejoin="round"/>
<path d="M467.643 212.271L481.695 209.973Z" fill="#936F38"/>
<path d="M467.643 212.271L481.695 209.973" stroke="black" stroke-width="1.5" stroke-linejoin="round"/>
<path d="M335.588 113.838L337.164 118.632L336.442 120.47L336.967 121.389L336.77 124.738L336.442 125.461L338.215 131.436L339.068 133.078L339.528 142.271L340.185 144.044L339.922 147.853L341.826 152.712L342.023 156.521L341.957 157.9" fill="#936F38"/>
<path d="M335.588 113.838L337.164 118.632L336.442 120.47L336.967 121.389L336.77 124.738L336.442 125.461L338.215 131.436L339.068 133.078L339.528 142.271L340.185 144.044L339.922 147.853L341.826 152.712L342.023 156.521L341.957 157.9" stroke="black" stroke-width="1.5" stroke-linejoin="round"/>
<path d="M354.763 243.99L352.202 239.853L350.823 237.423L351.02 236.504L350.166 235.65" fill="#936F38"/>
<path d="M354.763 243.99L352.202 239.853L350.823 237.423L351.02 236.504L350.166 235.65" stroke="black" stroke-width="1.5" stroke-linejoin="round"/>
<path d="M363.167 287.854L363.298 294.945Z" fill="#936F38"/>
<path d="M363.167 287.854L363.298 294.945" stroke="black" stroke-width="1.5" stroke-linejoin="round"/>
<path d="M420.56 300.068L421.216 298.755L422.004 298.426V297.967L421.216 297.244L420.822 296.588L421.939 296.719L422.464 296.259L421.545 295.274L422.464 294.946L422.53 294.289L422.136 293.633V292.779M422.792 292.779L423.318 293.239L423.843 292.582" fill="#936F38"/>
<path d="M420.56 300.068L421.216 298.755L422.004 298.426V297.967L421.216 297.244L420.822 296.588L421.939 296.719L422.464 296.259L421.545 295.274L422.464 294.946L422.53 294.289L422.136 293.633V292.779M422.792 292.779L423.318 293.239L423.843 292.582" stroke="black" stroke-width="1.5" stroke-linejoin="round"/>
<path d="M414.584 315.039L439.734 313.332Z" fill="#936F38"/>
<path d="M414.584 315.039L439.734 313.332" stroke="black" stroke-width="1.5" stroke-linejoin="round"/>
<path d="M270.052 110.555L266.638 154.354Z" fill="#936F38"/>
<path d="M270.052 110.555L266.638 154.354" stroke="black" stroke-width="1.5" stroke-linejoin="round"/>
<path d="M266.639 154.355L265.325 167.948Z" fill="#936F38"/>
<path d="M266.639 154.355L265.325 167.948" stroke="black" stroke-width="1.5" stroke-linejoin="round"/>
<path d="M512.098 281.748L531.403 279.45L557.276 274.656L576.385 270.65" fill="#936F38"/>
<path d="M512.098 281.748L531.403 279.45L557.276 274.656L576.385 270.65" stroke="black" stroke-width="1.5" stroke-linejoin="round"/>
<path d="M266.638 154.355L292.379 156.26L322.585 157.639L341.957 157.901" fill="#936F38"/>
<path d="M266.638 154.355L292.379 156.26L322.585 157.639L341.957 157.901" stroke="black" stroke-width="1.5" stroke-linejoin="round"/>
<path d="M260.334 225.8L262.764 196.775Z" fill="#936F38"/>
<path d="M260.334 225.8L262.764 196.775" stroke="black" stroke-width="1.5" stroke-linejoin="round"/>
<path d="M595.361 139.316L596.149 140.827L595.427 143.125L596.806 144.964L596.543 146.08L596.609 146.934L595.887 148.313L594.967 148.575L594.573 149.429L593.194 150.086L592.735 151.071L593.654 153.303L593.326 154.945L593.654 155.93L592.997 157.178L593.26 158.425L592.406 159.673L592.538 161.118L592.078 161.84L592.538 164.795L592.997 165.78L592.669 167.487L593.26 168.669L593.129 170.311L592.8 171.164L592.735 172.084L594.114 173.791" fill="#936F38"/>
<path d="M595.361 139.316L596.149 140.827L595.427 143.125L596.806 144.964L596.543 146.08L596.609 146.934L595.887 148.313L594.967 148.575L594.573 149.429L593.194 150.086L592.735 151.071L593.654 153.303L593.326 154.945L593.654 155.93L592.997 157.178L593.26 158.425L592.406 159.673L592.538 161.118L592.078 161.84L592.538 164.795L592.997 165.78L592.669 167.487L593.26 168.669L593.129 170.311L592.8 171.164L592.735 172.084L594.114 173.791" stroke="black" stroke-width="1.5" stroke-linejoin="round"/>
<path d="M575.662 198.678L585.249 201.895L584.987 205.77" fill="#936F38"/>
<path d="M575.662 198.678L585.249 201.895L584.987 205.77" stroke="black" stroke-width="1.5" stroke-linejoin="round"/>
<path d="M267.164 285.227L266.77 292.187Z" fill="#936F38"/>
<path d="M267.164 285.227L266.77 292.187" stroke="black" stroke-width="1.5" stroke-linejoin="round"/>
<path d="M93.6738 182.92L124.537 190.275Z" fill="#936F38"/>
<path d="M93.6738 182.92L124.537 190.275" stroke="black" stroke-width="1.5" stroke-linejoin="round"/>
<path d="M155.86 196.906L142.07 268.482Z" fill="#936F38"/>
<path d="M155.86 196.906L142.07 268.482" stroke="black" stroke-width="1.5" stroke-linejoin="round"/>
<path d="M585.972 175.566L585.25 174.91L585.578 173.596L583.608 164.272L582.36 163.287L581.77 164.337L581.179 162.893L581.704 161.711L579.668 157.311L579.865 154.816L580.128 154.159L579.734 152.846L579.997 151.401L578.552 149.891L578.224 147.79L578.486 146.805L577.567 146.214L577.961 144.966L577.436 143.85" fill="#936F38"/>
<path d="M585.972 175.566L585.25 174.91L585.578 173.596L583.608 164.272L582.36 163.287L581.77 164.337L581.179 162.893L581.704 161.711L579.668 157.311L579.865 154.816L580.128 154.159L579.734 152.846L579.997 151.401L578.552 149.891L578.224 147.79L578.486 146.805L577.567 146.214L577.961 144.966L577.436 143.85" stroke="black" stroke-width="1.5" stroke-linejoin="round"/>
<path d="M515.841 221.4L512.623 201.766Z" fill="#936F38"/>
<path d="M515.841 221.4L512.623 201.766" stroke="black" stroke-width="1.5" stroke-linejoin="round"/>
<path d="M262.764 196.775L265.325 167.947Z" fill="#936F38"/>
<path d="M262.764 196.775L265.325 167.947" stroke="black" stroke-width="1.5" stroke-linejoin="round"/>
<path d="M490.165 284.437L509.142 282.27L509.274 281.613L512.294 281.285L512.097 281.745" fill="#936F38"/>
<path d="M490.165 284.437L509.142 282.27L509.274 281.613L512.294 281.285L512.097 281.745" stroke="black" stroke-width="1.5" stroke-linejoin="round"/>
<path d="M558.393 242.412C560.206 242.412 561.676 240.942 561.676 239.129C561.676 237.316 560.206 235.846 558.393 235.846C556.579 235.846 555.109 237.316 555.109 239.129C555.109 240.942 556.579 242.412 558.393 242.412Z" fill="#936F38" stroke="black" stroke-width="1.5" stroke-linejoin="round"/>
<path d="M50.2686 170.705L93.6738 182.919Z" fill="#936F38"/>
<path d="M50.2686 170.705L93.6738 182.919" stroke="black" stroke-width="1.5" stroke-linejoin="round"/>
<text fill="#2E2E2E" xml:space="preserve" style="white-space: pre" font-family="Source Sans 3" font-size="14" letter-spacing="0em"><tspan x="70.0664" y="481.368">: This map is for illustrative purposes only.</tspan></text>
<text fill="#2E2E2E" xml:space="preserve" style="white-space: pre" font-family="Source Sans 3" font-size="14" font-weight="bold" letter-spacing="0em"><tspan x="41" y="481.368">Note</tspan></text>
<text fill="#2E2E2E" xml:space="preserve" style="white-space: pre" font-family="Source Sans 3" font-size="18" letter-spacing="0em"><tspan x="41" y="45.616">Change in SO&#x2082; Total Output Emission Rate by US State</tspan></text>
</svg>
