<?xml version="1.0" encoding="UTF-8"?><svg id="Layer_1" xmlns="http://www.w3.org/2000/svg" viewBox="0 0 138.22 171.4"><defs><style>.cls-1{fill:#00a91c;}.cls-2{fill:#1b1b1b;}</style></defs><path class="cls-1" d="M88,76.85c0,4.48-3.63,8.11-8.1,8.11s-8.11-3.63-8.11-8.11,3.63-8.11,8.11-8.11,8.1,3.63,8.1,8.11Z"/><path class="cls-2" d="M103.67,1.46c2.91-2.97,5.42-1,4.42,2.21l-19.15,62.11c-2.48-2.03-5.6-3.3-9.04-3.3-1.67,0-3.24.33-4.72.88-.4-4.15-.76-8.74-.88-11.98-.09-2.75,0-5.54,1.33-7.93,4.02-7.14,7.23-12.68,15.19-24.17,6.05-8.74,11.16-16.07,12.88-17.82"/><path class="cls-2" d="M97.89,171.4l-11.64-79.42,47.37,42.78c2.69,2.42,5.75.88,4.17-3.3-.93-2.48-5.74-10.8-11.52-20.66-7.62-12.98-11.56-18.61-16.7-25.81-1.72-2.39-4.42-3.75-7.14-4.9-2.24-.94-5.14-2.06-8.14-3.15-.06,7.87-6.47,14.28-14.36,14.28-2.18,0-4.24-.51-6.08-1.39l-11.98,81.56h36.05-.03Z"/><path class="cls-2" d="M0,83.99c2.3.91,11.05,2.78,21.45,4.93,13.71,2.84,20.03,3.63,28.2,4.57,2.72.3,5.32-.7,7.8-1.88,3.09-1.45,7.47-3.75,11.28-5.78-1.99-2.48-3.23-5.57-3.23-8.99,0-1.57.3-3.06.78-4.48L.31,79.06"/></svg>