<?xml version="1.0" encoding="UTF-8"?><svg id="Layer_1" xmlns="http://www.w3.org/2000/svg" viewBox="0 0 152.79 160.86"><defs><style>.cls-1{fill:#00a91c;}.cls-2{fill:#1a1a1a;}</style></defs><path class="cls-2" d="M14.27,80.42c0-33.92,27.32-61.57,61.14-62.11l7.8-13.98c-2.23-.21-4.53-.33-6.83-.33C34.27,3.99,0,38.27,0,80.39c0,35.1,23.8,64.74,56.11,73.64l2.78-14.04c-25.77-7.56-44.62-31.4-44.62-59.6v.03Z"/><path class="cls-2" d="M96.68,6.78l-2.79,14.04c25.78,7.56,44.62,31.4,44.62,59.6,0,33.91-27.31,61.57-61.13,62.11l-7.81,13.98c2.24.21,4.54.33,6.84.33,42.11,0,76.38-34.28,76.38-76.39,0-35.09-23.81-64.74-56.11-73.64v-.03Z"/><path class="cls-1" d="M113.28,66.65h-34.33L92.2,0l-52.73,94.21h34.34l-13.22,66.65,52.69-94.21Z"/></svg>