<?xml version="1.0" encoding="UTF-8"?><svg id="Layer_1" xmlns="http://www.w3.org/2000/svg" viewBox="0 0 442.42 266.3"><defs><style>.cls-1{fill:#1b1b1b;}</style></defs><path class="cls-1" d="M241.41,119.42c0,6.96-5.63,12.58-12.58,12.58s-12.58-5.63-12.58-12.58,5.62-12.58,12.58-12.58,12.58,5.63,12.58,12.58Z"/><path class="cls-1" d="M265.75,2.27c4.5-4.6,8.42-1.57,6.85,3.41l-29.76,96.49c-3.85-3.14-8.69-5.11-14.05-5.11-2.59,0-5.04.51-7.33,1.33-.61-6.41-1.19-13.57-1.39-18.62-.17-4.26,0-8.59,2.04-12.31,6.28-11.11,11.25-19.67,23.59-37.54,9.38-13.6,17.36-24.96,20.02-27.68"/><path class="cls-1" d="M256.75,266.26l-18.1-123.35,73.57,66.48c4.16,3.78,8.93,1.36,6.48-5.15-1.47-3.85-8.94-16.77-17.94-32.12-11.83-20.15-17.93-28.91-25.94-40.06-2.66-3.72-6.85-5.83-11.08-7.6-3.48-1.47-8.01-3.17-12.65-4.88-.07,12.24-10.06,22.16-22.33,22.16-3.37,0-6.55-.82-9.44-2.15l-18.62,126.69h55.98l.07-.03Z"/><path class="cls-1" d="M104.73,130.5c3.58,1.4,17.15,4.29,33.31,7.64,21.27,4.4,31.13,5.66,43.81,7.09,4.23.48,8.28-1.09,12.14-2.9,4.8-2.25,11.62-5.83,17.52-9-3.1-3.82-5.05-8.63-5.05-13.94,0-2.42.48-4.74,1.23-6.96l-102.48,10.36"/><path class="cls-1" d="M394.86,176.73c0,4.23-3.45,7.67-7.67,7.67s-7.67-3.44-7.67-7.67,3.44-7.67,7.67-7.67,7.67,3.44,7.67,7.67Z"/><path class="cls-1" d="M409.72,105.3c2.76-2.83,5.12-.96,4.19,2.08l-18.13,58.85c-2.35-1.91-5.32-3.14-8.56-3.14-1.57,0-3.07.31-4.47.82-.37-3.92-.71-8.29-.85-11.35-.1-2.59,0-5.25,1.26-7.5,3.82-6.79,6.86-12,14.39-22.88,5.73-8.29,10.57-15.21,12.21-16.88"/><path class="cls-1" d="M404.23,266.26l-11.04-75.21,44.86,40.54c2.56,2.28,5.46.82,3.96-3.14-.89-2.35-5.46-10.23-10.95-19.57-7.22-12.31-10.94-17.63-15.82-24.45-1.63-2.28-4.15-3.55-6.75-4.64-2.11-.89-4.87-1.94-7.7-2.97-.07,7.47-6.14,13.5-13.6,13.5-2.05,0-3.99-.51-5.76-1.33l-11.36,77.22h34.13l.03.03Z"/><path class="cls-1" d="M311.54,183.48c2.18.85,10.43,2.62,20.31,4.67,12.99,2.69,18.99,3.44,26.7,4.33,2.59.31,5.04-.65,7.4-1.77,2.93-1.36,7.09-3.55,10.67-5.49-1.88-2.35-3.07-5.29-3.07-8.49,0-1.5.31-2.9.75-4.23l-62.49,6.31"/><path class="cls-1" d="M82.81,177.28c0,4.19-3.41,7.64-7.63,7.64s-7.64-3.41-7.64-7.64,3.41-7.64,7.64-7.64,7.63,3.41,7.63,7.64Z"/><path class="cls-1" d="M97.57,106.33c2.73-2.8,5.08-.95,4.16,2.08l-18.03,58.47c-2.32-1.91-5.29-3.1-8.52-3.1-1.57,0-3.04.31-4.47.82-.38-3.89-.72-8.22-.85-11.29-.11-2.59,0-5.22,1.26-7.47,3.78-6.72,6.82-11.93,14.28-22.74,5.7-8.25,10.5-15.1,12.14-16.77"/><path class="cls-1" d="M92.12,266.26l-10.98-74.74,44.56,40.27c2.52,2.28,5.42.82,3.92-3.1-.89-2.35-5.42-10.16-10.88-19.47-7.15-12.21-10.87-17.52-15.71-24.28-1.6-2.25-4.16-3.55-6.72-4.6-2.11-.89-4.84-1.94-7.63-2.97-.07,7.4-6.11,13.43-13.54,13.43-2.04,0-3.99-.48-5.73-1.29l-11.28,76.75h33.99Z"/><path class="cls-1" d="M0,183.99c2.18.85,10.4,2.59,20.18,4.64,12.89,2.66,18.86,3.44,26.53,4.3,2.55.31,5.01-.65,7.36-1.74,2.93-1.36,7.02-3.51,10.6-5.45-1.87-2.32-3.03-5.25-3.03-8.46,0-1.47.31-2.86.75-4.19L.31,179.36"/></svg>