<?xml version="1.0" encoding="UTF-8"?><svg id="Layer_1" xmlns="http://www.w3.org/2000/svg" viewBox="0 0 342.35 291.78"><defs><style>.cls-1{fill:#1b1b1b;}</style></defs><path class="cls-1" d="M314.76,8.08c0-4.47-3.78-8.08-8.25-8.08h-73.02c-4.47,0-8.12,3.61-8.12,8.11v25.88h89.39V8.08Z"/><path class="cls-1" d="M314.76,54.24h-89.39v28.71h89.39v-28.71Z"/><path class="cls-1" d="M332.22,271.53h-17.25V101.94h-89.6v23.59H23.96c-3.75,0-6.82,3.07-6.82,6.82v139.17h-6.62c-4.9,0-9.4,3.31-10.33,8.11-1.22,6.48,3.69,12.14,9.96,12.14h321.49c5.49,0,10.4-4.12,10.7-9.58.31-5.86-4.33-10.67-10.12-10.67ZM171,260.48h-97.06c-8.39,0-13.64-9.07-9.45-16.33l48.52-84.04c4.19-7.26,14.66-7.26,18.85,0l48.51,84.04c4.2,7.26-1.06,16.33-9.44,16.33h.07Z"/><path class="cls-1" d="M127.39,175.24l-24.27,43.37h15.82l-6.1,30.68,24.27-43.37h-15.82l6.1-30.68Z"/></svg>