<?xml version="1.0" encoding="UTF-8"?><svg id="Layer_1" xmlns="http://www.w3.org/2000/svg" viewBox="0 0 111.35 137.6"><defs><style>.cls-1{fill:#1b1b1b;}</style></defs><path class="cls-1" d="M61.34,11.32h-11.37c-.33,0-.61.27-.61.61v125.07c0,.33.28.61.61.61h11.37c.34,0,.61-.27.61-.61V11.92c0-.33-.27-.61-.61-.61Z"/><path class="cls-1" d="M95.98,24.93c-11.8,3.81-27.56-3.39-27.65-.85,0,0,3.03-17.88,15.37-23.02,8.65-3.6,24.53,3.3,27.65.85,0,0-2.66,18.91-15.37,23.02Z"/><path class="cls-1" d="M95.98,55.7c-11.8,3.81-27.56-3.39-27.65-.85,0,0,3.03-17.88,15.37-23.02,8.65-3.6,24.53,3.3,27.65.85,0,0-2.66,18.91-15.37,23.02Z"/><path class="cls-1" d="M95.98,86.47c-11.8,3.81-27.56-3.39-27.65-.85,0,0,3.03-17.88,15.37-23.02,8.65-3.6,24.53,3.3,27.65.85,0,0-2.66,18.91-15.37,23.02Z"/><path class="cls-1" d="M15.36,24.93c11.8,3.81,27.56-3.39,27.65-.85,0,0-3.02-17.88-15.37-23.02C18.99-2.54,3.11,4.36,0,1.91c0,0,2.66,18.91,15.36,23.02Z"/><path class="cls-1" d="M15.36,55.7c11.8,3.81,27.56-3.39,27.65-.85,0,0-3.02-17.88-15.37-23.02-8.65-3.6-24.53,3.3-27.64.85,0,0,2.66,18.91,15.36,23.02Z"/><path class="cls-1" d="M15.36,86.47c11.8,3.81,27.56-3.39,27.65-.85,0,0-3.02-17.88-15.37-23.02-8.65-3.6-24.53,3.3-27.64.85,0,0,2.66,18.91,15.36,23.02Z"/></svg>