<?xml version="1.0" encoding="UTF-8"?><svg id="Layer_1" xmlns="http://www.w3.org/2000/svg" viewBox="0 0 174.42 174.44"><defs><style>.cls-1{fill:#fff;}.cls-2{fill:#8e704f;}</style></defs><path class="cls-2" d="M87.21,174.44c48.17,0,87.21-39.05,87.21-87.22S135.38,0,87.21,0,0,39.05,0,87.22s39.05,87.22,87.21,87.22Z"/><path class="cls-1" d="M87.21,8.71C43.86,8.71,8.71,43.87,8.71,87.22s35.15,78.51,78.5,78.51,78.5-35.15,78.5-78.51S130.56,8.71,87.21,8.71ZM115.47,81.84h14.58c2.78.27,4.93,2.57,4.93,5.42,0,3.03-2.45,5.48-5.48,5.48h-1.18v29.01h-12.92c-1.57,0-2.81,1.27-2.81,2.81s1.27,2.81,2.81,2.81h14.1c3.03,0,5.48,2.45,5.48,5.48s-2.45,5.48-5.48,5.48H44.86c-3.02,0-5.48-2.45-5.48-5.48s2.45-5.48,5.48-5.48h13.98c1.57,0,2.81-1.27,2.81-2.81s-1.27-2.81-2.81-2.81h-12.8v-29.01h-1.18c-3.02,0-5.48-2.45-5.48-5.48,0-2.84,2.18-5.14,4.93-5.42h14.49c1.57,0,2.81-1.27,2.81-2.81s-1.27-2.81-2.81-2.81h-12.8v-29.1h-1.18c-3.03,0-5.48-2.45-5.48-5.48s2.45-5.48,5.48-5.48h84.64c3.03,0,5.48,2.45,5.48,5.48s-2.45,5.48-5.48,5.48h-1.18v29.1h-12.92c-1.57,0-2.81,1.27-2.81,2.81s1.27,2.81,2.81,2.81h.09Z"/><path class="cls-1" d="M97.86,79.87c3.78,5.75,7.35,11.19,7.35,17.7,0,9.92-8.08,17.97-18,17.97s-18-8.05-18-17.97c0-6.35,3.3-11.28,7.11-17.03,3.99-5.93,8.5-11.01,9.98-20.84.06-.42.42-.79.91-.79.42,0,.85.33.91.79,1.45,9.14,5.84,14.28,9.74,20.18ZM89.75,107.55c0-1.42-1.12-2.57-2.54-2.57-4.11,0-7.44-3.33-7.44-7.41,0-1.42-1.12-2.57-2.54-2.57s-2.57,1.15-2.57,2.57c0,6.93,5.63,12.52,12.55,12.52,1.42,0,2.54-1.12,2.54-2.54Z"/><path class="cls-2" d="M87.24,104.98c1.42,0,2.54,1.15,2.54,2.57s-1.12,2.54-2.54,2.54c-6.93,0-12.55-5.6-12.55-12.52,0-1.42,1.12-2.57,2.57-2.57s2.54,1.15,2.54,2.57c0,4.11,3.36,7.41,7.44,7.41Z"/></svg>