<?xml version="1.0" encoding="UTF-8"?><svg id="Layer_1" xmlns="http://www.w3.org/2000/svg" viewBox="0 0 174.43 174.44"><defs><style>.cls-1{fill:#4a77b8;}.cls-2{fill:#fff;}</style></defs><path class="cls-1" d="M87.22,174.44c48.16,0,87.21-39.05,87.21-87.22S135.38,0,87.22,0,0,39.05,0,87.22s39.05,87.22,87.22,87.22Z"/><path class="cls-2" d="M87.22,8.71C43.87,8.71,8.69,43.87,8.69,87.25s35.15,78.54,78.53,78.54,78.53-35.15,78.53-78.54S130.6,8.71,87.22,8.71ZM36.7,51.16c6.11,0,9.35,3.18,11.74,5.48,2.11,2.06,3.23,3.06,5.77,3.06s3.66-1,5.78-3.06c2.36-2.3,5.63-5.48,11.74-5.48s9.35,3.18,11.74,5.48c2.11,2.06,3.23,3.06,5.77,3.06s3.66-1,5.78-3.06c2.36-2.3,5.63-5.48,11.74-5.48s9.35,3.18,11.74,5.48c2.11,2.06,3.23,3.06,5.77,3.06s3.66-1,5.78-3.06c2.36-2.3,5.63-5.48,11.74-5.48,2.36,0,4.26,1.91,4.26,4.27s-1.9,4.27-4.26,4.27c-2.54,0-3.66,1-5.78,3.06-2.36,2.3-5.63,5.48-11.74,5.48s-9.34-3.18-11.73-5.48c-2.12-2.06-3.24-3.06-5.78-3.06s-3.66,1-5.78,3.06c-2.36,2.3-5.63,5.48-11.74,5.48s-9.34-3.18-11.73-5.48c-2.12-2.06-3.24-3.06-5.78-3.06s-3.66,1-5.78,3.06c-2.36,2.3-5.63,5.48-11.74,5.48s-9.34-3.18-11.73-5.48c-2.12-2.06-3.24-3.06-5.78-3.06-2.36,0-4.27-1.91-4.27-4.27s1.91-4.27,4.27-4.27ZM141.73,116.33c-2.54,0-3.66,1-5.78,3.06-2.36,2.3-5.63,5.48-11.74,5.48s-9.34-3.18-11.73-5.48c-2.12-2.06-3.24-3.06-5.78-3.06s-3.66,1-5.78,3.06c-2.36,2.3-5.63,5.48-11.74,5.48s-9.34-3.18-11.73-5.48c-2.12-2.06-3.24-3.06-5.78-3.06s-3.66,1-5.78,3.06c-2.36,2.3-5.63,5.48-11.74,5.48s-9.34-3.18-11.73-5.48c-2.12-2.06-3.24-3.06-5.78-3.06-2.36,0-4.27-1.91-4.27-4.27s1.91-4.27,4.27-4.27c6.11,0,9.35,3.18,11.74,5.48,2.11,2.06,3.23,3.06,5.77,3.06s3.66-1,5.78-3.06c2.36-2.3,5.63-5.48,11.74-5.48s9.35,3.18,11.74,5.48c2.11,2.06,3.23,3.06,5.77,3.06s3.66-1,5.78-3.06c2.36-2.3,5.63-5.48,11.74-5.48s9.35,3.18,11.74,5.48c2.11,2.06,3.23,3.06,5.77,3.06s3.66-1,5.78-3.06c2.36-2.3,5.63-5.48,11.74-5.48,2.36,0,4.26,1.91,4.26,4.27s-1.9,4.27-4.26,4.27ZM141.73,88.01c-2.54,0-3.66,1-5.78,3.06-2.36,2.3-5.63,5.48-11.74,5.48s-9.34-3.18-11.73-5.48c-2.12-2.06-3.24-3.06-5.78-3.06s-3.66,1-5.78,3.06c-2.36,2.3-5.63,5.48-11.74,5.48s-9.34-3.18-11.73-5.48c-2.12-2.06-3.24-3.06-5.78-3.06s-3.66,1-5.78,3.06c-2.36,2.3-5.63,5.48-11.74,5.48s-9.34-3.18-11.73-5.48c-2.12-2.06-3.24-3.06-5.78-3.06-2.36,0-4.27-1.91-4.27-4.27s1.91-4.27,4.27-4.27c6.11,0,9.35,3.18,11.74,5.48,2.11,2.06,3.23,3.06,5.77,3.06s3.66-1,5.78-3.06c2.36-2.3,5.63-5.48,11.74-5.48s9.35,3.18,11.74,5.48c2.11,2.06,3.23,3.06,5.77,3.06s3.66-1,5.78-3.06c2.36-2.3,5.63-5.48,11.74-5.48s9.35,3.18,11.74,5.48c2.11,2.06,3.23,3.06,5.77,3.06s3.66-1,5.78-3.06c2.36-2.3,5.63-5.48,11.74-5.48,2.36,0,4.26,1.91,4.26,4.27s-1.9,4.27-4.26,4.27Z"/></svg>