<?xml version="1.0" encoding="UTF-8"?><svg id="Layer_1" xmlns="http://www.w3.org/2000/svg" viewBox="0 0 174.42 174.44"><defs><style>.cls-1{fill:#8a984b;}.cls-2{fill:#fff;}</style></defs><path class="cls-1" d="M87.21,174.44c48.17,0,87.21-39.05,87.21-87.22S135.38,0,87.21,0,0,39.05,0,87.22s39.05,87.22,87.21,87.22Z"/><path class="cls-2" d="M87.21,8.71C43.86,8.71,8.71,43.87,8.71,87.22s35.15,78.51,78.5,78.51,78.5-35.15,78.5-78.51S130.56,8.71,87.21,8.71ZM110.08,58.18l11.53-11.5c1.72-1.72,4.48-1.72,6.2,0,1.72,1.72,1.72,4.48,0,6.2l-11.52,11.5c-.85.85-1.97,1.27-3.12,1.27s-2.24-.42-3.12-1.27c-1.72-1.72-1.72-4.48,0-6.2h.03ZM82.79,34.25c0-2.42,1.97-4.39,4.39-4.39s4.39,1.97,4.39,4.39v16.28c0,2.42-1.97,4.39-4.39,4.39s-4.39-1.97-4.39-4.39v-16.28ZM46.59,46.68c1.3-1.3,3.18-1.6,4.75-.97.54.21,1.03.54,1.45.97l11.52,11.5c1.72,1.72,1.72,4.48,0,6.2-1.06,1.09-2.57,1.48-3.96,1.21-.82-.15-1.63-.54-2.27-1.21l-11.53-11.5c-1.72-1.72-1.72-4.48,0-6.2h.03ZM29.8,87.22c0-2.42,1.97-4.39,4.39-4.39h16.3c2.42,0,4.39,1.97,4.39,4.39s-1.97,4.39-4.39,4.39h-16.3c-2.42,0-4.39-1.97-4.39-4.39ZM64.34,116.3l-11.52,11.5c-1.72,1.72-4.48,1.72-6.2,0-1.72-1.73-1.72-4.48,0-6.2l11.53-11.5c.85-.85,1.97-1.27,3.12-1.27s2.24.42,3.12,1.27c1.72,1.72,1.72,4.48,0,6.2h-.03ZM91.6,140.2c0,2.42-1.97,4.39-4.39,4.39s-4.39-1.97-4.39-4.39v-16.28c0-2.42,1.97-4.39,4.39-4.39s4.39,1.97,4.39,4.39v16.28ZM102,109.97c-.24.18-.51.3-.79.48-.3.18-.61.39-.94.55-.48.27-.97.51-1.45.73-.12.06-.24.12-.33.18-.58.27-1.15.51-1.75.73-.03,0-.06,0-.09.03-2.93,1.09-6.11,1.69-9.44,1.69-15,0-27.17-12.16-27.17-27.14,0-9.53,4.93-17.91,12.4-22.72.24-.18.51-.3.79-.48.3-.18.6-.39.94-.54.48-.27.97-.51,1.45-.73.12-.06.24-.12.33-.18.57-.27,1.15-.51,1.75-.73.03,0,.06,0,.09-.03,2.93-1.09,6.11-1.69,9.44-1.69,15,0,27.17,12.16,27.17,27.14,0,9.53-4.93,17.91-12.4,22.72ZM127.81,127.79c-1.3,1.3-3.18,1.6-4.75.97-.52-.21-1.03-.54-1.45-.97l-11.53-11.5c-1.72-1.72-1.72-4.48,0-6.2,1.06-1.09,2.57-1.48,3.96-1.21.82.15,1.63.54,2.27,1.21l11.52,11.5c1.73,1.73,1.73,4.48,0,6.2h-.03ZM140.21,91.61h-16.3c-2.42,0-4.39-1.97-4.39-4.39s1.97-4.39,4.39-4.39h16.3c2.42,0,4.39,1.97,4.39,4.39s-1.97,4.39-4.39,4.39Z"/></svg>