<?xml version="1.0" encoding="UTF-8"?><svg id="Layer_1" xmlns="http://www.w3.org/2000/svg" viewBox="0 0 174.43 174.44"><defs><style>.cls-1{fill:#fff;}.cls-2{fill:#b1545f;}</style></defs><path class="cls-2" d="M87.22,174.44c48.16,0,87.21-39.05,87.21-87.22S135.38,0,87.22,0,0,39.05,0,87.22s39.05,87.22,87.22,87.22Z"/><path class="cls-1" d="M87.22,8.71C43.87,8.71,8.72,43.87,8.72,87.22s35.15,78.51,78.5,78.51,78.5-35.15,78.5-78.51S130.56,8.71,87.22,8.71ZM137.92,130.61H36.49c-8.78,0-14.25-9.5-9.87-17.06L77.32,25.72c4.39-7.59,15.34-7.59,19.73,0l50.7,87.83c4.38,7.59-1.09,17.06-9.86,17.06h.03Z"/><path class="cls-1" d="M92.36,41.51l-25.35,45.32h16.52l-6.39,32.07,25.38-45.32h-16.54l6.38-32.07Z"/></svg>