<?xml version="1.0" encoding="UTF-8"?><svg id="Layer_1" xmlns="http://www.w3.org/2000/svg" viewBox="0 0 174.43 174.44"><defs><style>.cls-1{fill:#fff;}.cls-2{fill:#168092;}</style></defs><path class="cls-2" d="M87.21,174.44c48.17,0,87.22-39.05,87.22-87.22S135.38,0,87.21,0,0,39.05,0,87.22s39.05,87.22,87.21,87.22Z"/><path class="cls-1" d="M87.21,8.71C43.87,8.71,8.71,43.87,8.71,87.22s35.16,78.51,78.5,78.51,78.5-35.15,78.5-78.51S130.56,8.71,87.21,8.71ZM86.06,55.24c3.06-5.42,5.48-9.59,11.5-18.3,4.57-6.63,8.44-12.16,9.77-13.49,2.21-2.24,4.08-.76,3.36,1.66l-14.49,47.04c-1.88-1.54-4.24-2.48-6.84-2.48-1.27,0-2.45.27-3.57.67-.3-3.12-.57-6.63-.66-9.08-.09-2.09,0-4.18,1-5.99l-.07-.03ZM89.33,74.42c3.39,0,6.14,2.75,6.14,6.14s-2.75,6.14-6.14,6.14-6.14-2.75-6.14-6.14,2.75-6.14,6.14-6.14ZM66.43,93.12c-6.17-.7-10.98-1.3-21.35-3.45-7.9-1.63-14.49-3.06-16.25-3.72l.24-3.72,49.95-5.05c-.37,1.06-.61,2.21-.61,3.39,0,2.57.94,4.93,2.45,6.81-2.87,1.54-6.17,3.3-8.53,4.39-1.87.88-3.84,1.63-5.93,1.42l.03-.06ZM129.99,124.4l-35.85-32.4,8.83,60.12h-27.28l9.07-61.75c1.4.67,2.94,1.06,4.6,1.06,5.99,0,10.83-4.84,10.89-10.8,2.27.82,4.48,1.66,6.14,2.39,2.06.88,4.09,1.88,5.39,3.72,3.9,5.45,6.86,9.71,12.64,19.54,4.39,7.47,8.02,13.77,8.74,15.64,1.21,3.18-1.11,4.33-3.14,2.51l-.03-.03Z"/></svg>