<?xml version="1.0" encoding="UTF-8"?><svg id="Layer_1" xmlns="http://www.w3.org/2000/svg" viewBox="0 0 181.87 181.89"><defs><style>.cls-1{fill:#c84281;}.cls-2{fill:#fff;}</style></defs><path class="cls-1" d="M90.93,181.89c50.22,0,90.93-40.72,90.93-90.94S141.15,0,90.93,0,0,40.72,0,90.94s40.71,90.94,90.93,90.94Z"/><path class="cls-2" d="M90.93,9.11C45.74,9.11,9.08,45.74,9.08,90.97s36.63,81.87,81.86,81.87,81.86-36.64,81.86-81.87S136.16,9.11,90.93,9.11ZM145.75,125.22c-6.29-6.66-13.46-11.92-21.18-15.85-.36.73-.76,1.39-1.12,2.06-1.57,2.75-2.69,4.72-2.69,9.26h-10.07c0-7.23,2.24-11.13,4.02-14.25.21-.36.39-.7.57-1.03-5.75-2.03-11.71-3.39-17.73-4.02-.67,4.63-2.33,7.59-3.72,10.07-1.57,2.75-2.69,4.72-2.69,9.26h-10.07c0-7.23,2.24-11.13,4.02-14.25,1.06-1.85,1.91-3.36,2.33-5.51-6.75.15-13.46,1.18-20,3.09-.82,3.21-2.12,5.48-3.24,7.44-1.57,2.75-2.69,4.72-2.69,9.26h-10.07c0-5.2,1.15-8.65,2.48-11.38-6.47,3.3-12.61,7.53-18.15,12.77l-6.29-6.66c8.53-8.08,18.3-14.04,28.68-18v-.27c0-4.54-1.12-6.53-2.69-9.26-1.75-3.06-3.9-6.9-3.99-13.8h-7.17l12.01-17.4,12.01,17.4h-6.75c.09,4.21,1.18,6.14,2.69,8.8,1.54,2.69,3.39,5.99,3.9,11.44,6.2-1.54,12.55-2.39,18.91-2.54-.48-1.36-1.15-2.54-1.91-3.87-1.75-3.06-3.9-6.9-3.99-13.8h-7.17l12.01-17.4,12.01,17.4h-6.75c.09,4.21,1.18,6.14,2.69,8.8,1.33,2.33,2.87,5.05,3.6,9.26,6.78.64,13.46,2.06,19.94,4.27-.12-4.02-1.21-5.96-2.66-8.53-1.75-3.06-3.9-6.9-3.99-13.8h-7.17l12.01-17.4,12.01,17.4h-6.75c.09,4.21,1.18,6.14,2.69,8.8,1.78,3.15,4.02,7.05,4.02,14.25,0,1.21-.09,2.3-.18,3.33,9.17,4.45,17.73,10.62,25.14,18.46l-6.66,6.29-.21-.09Z"/></svg>