<?xml version="1.0" encoding="UTF-8"?><svg id="Layer_1" xmlns="http://www.w3.org/2000/svg" viewBox="0 0 174.43 174.44"><defs><style>.cls-1{fill:#8e8acd;}.cls-2{fill:#fff;}</style></defs><path class="cls-1" d="M87.22,174.44c48.16,0,87.21-39.05,87.21-87.22S135.38,0,87.22,0,0,39.05,0,87.22s39.05,87.22,87.22,87.22Z"/><path class="cls-2" d="M87.22,8.71C43.87,8.71,8.72,43.87,8.72,87.22s35.15,78.51,78.5,78.51,78.5-35.15,78.5-78.51S130.56,8.71,87.22,8.71ZM86.91,76.21c5.78,0,10.44,4.69,10.44,10.44s-4.69,10.44-10.44,10.44-10.43-4.69-10.43-10.44,4.69-10.44,10.43-10.44ZM22.57,88.28c.06-5.36-.18-15.97,7.68-31.98,7.87-16,21.81-23.48,24.66-25.35l23.08,36.18c-.64.33-6.26,3.06-9.26,8.38-2.99,5.32-3.2,10.04-2.96,12.86l-43.17-.09h-.03ZM89.12,150.97c-18.42,0-28.92-5.99-33.33-8.14l19.9-38.21c1.88,1.21,5.99,3.33,12.34,3.33s11.59-3.99,12.25-4.45l21.48,37.24c-2.6,1.6-15.94,10.2-32.64,10.2v.03ZM108.75,87.28c.16-4.11-.84-8.08-3.08-11.83-2.39-3.99-5.69-6.87-9.8-8.62l21.6-37.3c10.37,5.35,18.66,13.31,25.04,23.96,6.11,10.2,9.26,20.85,9.35,32.01l-43.11,1.78Z"/></svg>