<?xml version="1.0" encoding="UTF-8"?><svg id="Layer_1" xmlns="http://www.w3.org/2000/svg" viewBox="0 0 174.43 174.44"><defs><style>.cls-1{fill:#617e5c;}.cls-2{fill:#fff;}</style></defs><path class="cls-1" d="M87.22,174.44c48.16,0,87.21-39.05,87.21-87.22S135.38,0,87.22,0,0,39.05,0,87.22s39.05,87.22,87.22,87.22Z"/><path class="cls-2" d="M87.22,8.71C43.87,8.71,8.72,43.87,8.72,87.22s35.15,78.51,78.5,78.51,78.5-35.15,78.5-78.51S130.57,8.71,87.22,8.71ZM51.13,113.48c-11.41-3.69-13.77-20.6-13.77-20.6,2.79,2.21,17-3.96,24.78-.76,11.07,4.57,13.76,20.6,13.76,20.6-.09-2.3-14.22,4.17-24.77.76ZM51.13,85.95c-11.41-3.69-13.77-20.6-13.77-20.6,2.79,2.21,17-3.96,24.78-.76,11.07,4.57,13.76,20.6,13.76,20.6-.09-2.3-14.22,4.18-24.77.76ZM51.13,58.39c-11.41-3.69-13.77-20.6-13.77-20.6,2.79,2.21,17-3.96,24.78-.76,11.07,4.57,13.76,20.6,13.76,20.6-.09-2.3-14.22,4.18-24.77.76ZM92.84,158.71c0,.3-.24.54-.54.54h-10.17c-.3,0-.54-.24-.54-.54V46.74c0-.3.24-.54.54-.54h10.17c.3,0,.54.24.54.54v111.97ZM123.31,113.48c-10.56,3.42-24.66-3.06-24.78-.76,0,0,2.72-16.03,13.76-20.6,7.75-3.21,21.97,2.93,24.78.76,0,0-2.39,16.91-13.76,20.6ZM123.31,85.95c-10.56,3.42-24.66-3.06-24.78-.76,0,0,2.72-16.03,13.76-20.6,7.75-3.21,21.97,2.93,24.78.76,0,0-2.39,16.91-13.76,20.6ZM123.31,58.39c-10.56,3.42-24.66-3.06-24.78-.76,0,0,2.72-16.03,13.76-20.6,7.75-3.21,21.97,2.93,24.78.76,0,0-2.39,16.91-13.76,20.6Z"/></svg>