<?xml version="1.0" encoding="UTF-8"?><svg id="Layer_1" xmlns="http://www.w3.org/2000/svg" viewBox="0 0 174.42 174.44"><defs><style>.cls-1{fill:#5c5c5c;}.cls-2{fill:#fff;}</style></defs><path class="cls-1" d="M87.21,174.44c48.17,0,87.21-39.05,87.21-87.22S135.38,0,87.21,0,0,39.05,0,87.22s39.04,87.22,87.21,87.22Z"/><path class="cls-2" d="M65.85,125.52c-2.99,0-5.41,2.39-5.41,5.39s2.42,5.38,5.38,5.41c2.97,0,5.42-2.39,5.42-5.38s-2.42-5.39-5.39-5.42Z"/><path class="cls-2" d="M87.21,8.71C43.86,8.71,8.71,43.87,8.71,87.22s35.15,78.51,78.5,78.51,78.5-35.15,78.5-78.51S130.56,8.71,87.21,8.71ZM46.76,53.76l9.26-12.22c.42-.54,1.03-.91,1.7-1.03l15.42-2.63c.76-.12,1.52.06,2.12.54,0,0,2.12,1.66,2.12,1.63l10.28-10.01c.73-.73,1.82-.97,2.79-.6l23.5,8.47c.64.24,1.18.7,1.48,1.3l5.33,10.38,9.44,4.11c1.36.61,1.99,2.42,1.39,3.54-.61,1.15-1.82,2.09-3.54,1.39-1.73-.7-10.32-4.51-10.32-4.51-.57-.24-1.03-.7-1.33-1.24l-5.26-10.29-20.91-7.53-8.56,8.35,6.48,5.05c1.18.91,1.39,2.6.45,3.78-.91,1.18-2.6,1.39-3.78.45l-11.92-9.32-13.22,2.24s-7.65,10.14-8.59,11.35c-.94,1.21-2.6,1.33-3.78.51-1.15-.82-1.42-2.6-.52-3.78l-.03.06ZM65.79,145.19c-7.89,0-14.31-6.44-14.28-14.31,0-7.9,6.45-14.28,14.34-14.25,7.9,0,14.31,6.44,14.28,14.31,0,7.9-6.44,14.28-14.34,14.25ZM108.9,145.19c-7.9,0-14.31-6.44-14.28-14.31,0-7.9,6.44-14.28,14.34-14.25,7.89,0,14.31,6.44,14.28,14.31,0,7.9-6.45,14.28-14.34,14.25ZM141.12,78.84h-4.54l-7.84,32.83h4.69c1.54,0,2.79,1.24,2.79,2.78v13.37c0,1.54-1.25,2.78-2.79,2.78h-5.9c0-8.59-6.98-18.33-18.6-18.33-10.17,0-18.48,8.2-18.6,18.33h-5.9c0-9.08-7.51-18.33-18.61-18.33-10.16,0-18.48,8.2-18.6,18.33h-7.41c-1.55,0-2.79-1.24-2.79-2.78v-13.37c0-1.54,1.24-2.78,2.79-2.78h5.74l-6.74-28.23h18.36c1.27,0,2.3-1.03,2.3-2.3s-1.03-2.3-2.3-2.3h-23.9c-1.54,0-2.78-1.24-2.78-2.78v-8.92c0-1.54,1.24-2.78,2.78-2.78h107.85c1.54,0,2.78,1.24,2.78,2.78v8.92c0,1.54-1.24,2.78-2.78,2.78Z"/><path class="cls-2" d="M108.96,125.52c-3,0-5.42,2.39-5.42,5.39s2.42,5.38,5.39,5.41c2.96,0,5.41-2.39,5.41-5.38s-2.42-5.39-5.38-5.42Z"/></svg>