<?xml version="1.0" encoding="UTF-8"?><svg id="Layer_1" xmlns="http://www.w3.org/2000/svg" viewBox="0 0 174.42 174.44"><defs><style>.cls-1{fill:#fff;}.cls-2{fill:#d16e44;}</style></defs><path class="cls-2" d="M87.21,174.44c48.17,0,87.21-39.05,87.21-87.22S135.38,0,87.21,0,0,39.05,0,87.22s39.05,87.22,87.21,87.22Z"/><path class="cls-1" d="M87.21,8.71C43.86,8.71,8.71,43.87,8.71,87.22s35.15,78.51,78.5,78.51,78.5-35.15,78.5-78.51S130.56,8.71,87.21,8.71ZM89.18,145.58c-16.46.58-30.7-10.16-36.57-23.99-5.99-14.04-3.81-35.58,11.77-54.55,1.06,4.99,2.6,8.96,4.45,12.22,7.23-11.92,16.91-23.11,13.43-44.02,25.96,23.96,40.41,44.93,42.47,65.53,1.91,19.09-7.77,43.84-35.54,44.81Z"/><path class="cls-1" d="M85.67,86.19c1.75,10.53-3.12,16.19-6.78,22.18-.94-1.63-1.73-3.63-2.24-6.14-7.84,9.56-8.92,20.39-5.93,27.47,2.97,6.96,10.13,12.37,18.42,12.07,13.97-.48,18.85-12.95,17.88-22.57-1.03-10.38-8.32-20.94-21.39-33.01h.03Z"/></svg>