<?xml version="1.0" encoding="UTF-8"?><svg id="Layer_1" xmlns="http://www.w3.org/2000/svg" viewBox="0 0 342.35 239.34"><defs><style>.cls-1{fill:#00bde3;}.cls-2{fill:#1b1b1b;}</style></defs><path class="cls-2" d="M314.97,49.51h-89.6v23.59H23.96c-3.75,0-6.82,3.07-6.82,6.82v139.17h-6.62c-4.9,0-9.4,3.31-10.33,8.11-1.22,6.48,3.69,12.14,9.96,12.14h321.49c5.49,0,10.4-4.12,10.7-9.58.31-5.86-4.33-10.67-10.12-10.67h-17.25V73.1"/><path class="cls-1" d="M180.41,189.16l-48.52-84.04c-4.19-7.26-14.66-7.26-18.85,0l-48.51,84.04c-4.2,7.26,1.05,16.33,9.44,16.33h97.06c8.39,0,13.64-9.07,9.44-16.33h-.06ZM112.83,194.3l6.11-30.68h-15.82l24.27-43.37-6.1,30.68h15.82l-24.28,43.37Z"/><path class="cls-2" d="M314.76,0h-89.39v28.71h89.39V0Z"/></svg>