<svg width="820" height="512" viewBox="0 0 820 512" fill="none" xmlns="http://www.w3.org/2000/svg">
<rect x="1" y="1" width="818" height="510" rx="4" fill="white" stroke="#1B1B1B" stroke-width="2"/>
<line x1="65.6113" y1="288.002" x2="698.802" y2="288.002" stroke="#C9C9C9" stroke-dasharray="3 3"/>
<line x1="65.6113" y1="355.638" x2="698.802" y2="355.638" stroke="#C9C9C9" stroke-dasharray="3 3"/>
<line x1="67.0498" y1="220.365" x2="700.24" y2="220.365" stroke="#C9C9C9" stroke-dasharray="3 3"/>
<line x1="67.0508" y1="152.729" x2="700.241" y2="152.729" stroke="#C9C9C9" stroke-dasharray="3 3"/>
<line x1="67.0498" y1="85.0928" x2="700.24" y2="85.0928" stroke="#C9C9C9" stroke-dasharray="3 3"/>
<line x1="67.0508" y1="421.834" x2="700.241" y2="421.834" stroke="#2E2E2E"/>
<text fill="#2E2E2E" xml:space="preserve" style="white-space: pre" font-family="Source Sans 3" font-size="14" letter-spacing="0em"><tspan x="65.4238" y="451.059">2002</tspan></text>
<text fill="#2E2E2E" xml:space="preserve" style="white-space: pre" font-family="Source Sans 3" font-size="14" letter-spacing="0em"><tspan x="50.0184" y="429.014">0</tspan></text>
<text fill="#2E2E2E" xml:space="preserve" style="white-space: pre" font-family="Source Sans 3" font-size="14" letter-spacing="0em"><tspan x="36.1001" y="295.18">500</tspan></text>
<text fill="#2E2E2E" xml:space="preserve" style="white-space: pre" font-family="Source Sans 3" font-size="14" letter-spacing="0em"><tspan x="36.1001" y="362.816">250</tspan></text>
<text fill="#2E2E2E" xml:space="preserve" style="white-space: pre" font-family="Source Sans 3" font-size="14" letter-spacing="0em"><tspan x="36.1001" y="227.544">750</tspan></text>
<text fill="#2E2E2E" xml:space="preserve" style="white-space: pre" font-family="Source Sans 3" font-size="14" letter-spacing="0em"><tspan x="43.0865" y="159.907">1k</tspan></text>
<text fill="#2E2E2E" xml:space="preserve" style="white-space: pre" font-family="Source Sans 3" font-size="14" letter-spacing="0em"><tspan x="25.7051" y="91.368">1.25k</tspan></text>
<text fill="#2E2E2E" xml:space="preserve" style="white-space: pre" font-family="Source Sans 3" font-size="14" letter-spacing="0em"><tspan x="148.831" y="451.094">2005</tspan></text>
<text fill="#2E2E2E" xml:space="preserve" style="white-space: pre" font-family="Source Sans 3" font-size="14" letter-spacing="0em"><tspan x="307.128" y="451.094">2010</tspan></text>
<text fill="#2E2E2E" xml:space="preserve" style="white-space: pre" font-family="Source Sans 3" font-size="14" letter-spacing="0em"><tspan x="465.425" y="451.094">2015</tspan></text>
<text fill="#2E2E2E" xml:space="preserve" style="white-space: pre" font-family="Source Sans 3" font-size="14" letter-spacing="0em"><tspan x="623.723" y="451.094">2020</tspan></text>
<text fill="#2E2E2E" xml:space="preserve" style="white-space: pre" font-family="Source Sans 3" font-size="14" letter-spacing="0em"><tspan x="673.652" y="451.094">2022</tspan></text>
<text fill="#CD425B" xml:space="preserve" style="white-space: pre" font-family="Source Sans 3" font-size="14" font-weight="500" letter-spacing="0em"><tspan x="707" y="131.663">ABCD</tspan></text>
<text fill="#2E2E2E" xml:space="preserve" style="white-space: pre" font-family="Source Sans 3" font-size="14" font-weight="500" letter-spacing="0em"><tspan x="707" y="184.368">U.S. Average</tspan></text>
<text fill="#2E2E2E" xml:space="preserve" style="white-space: pre" font-family="Source Sans 3" font-size="14" font-weight="bold" letter-spacing="0em"><tspan x="21" y="66.368">lb/MWh</tspan></text>
<text fill="#2E2E2E" xml:space="preserve" style="white-space: pre" font-family="Source Sans 3" font-size="14" letter-spacing="0em"><tspan x="50.0664" y="486.368">: This chart is for illustrative purposes only.</tspan></text>
<text fill="#2E2E2E" xml:space="preserve" style="white-space: pre" font-family="Source Sans 3" font-size="14" font-weight="bold" letter-spacing="0em"><tspan x="21" y="486.368">Note</tspan></text>
<text fill="#2E2E2E" xml:space="preserve" style="white-space: pre" font-family="Source Sans 3" font-size="18" letter-spacing="0em"><tspan x="21" y="40.616">CO&#x2082; Emissions, ABCD vs U.S. Average</tspan></text>
<line x1="67.5498" y1="425.213" x2="67.5498" y2="433.847" stroke="#2E2E2E"/>
<line x1="162.528" y1="425.213" x2="162.528" y2="433.847" stroke="#2E2E2E"/>
<line x1="320.826" y1="425.213" x2="320.826" y2="433.847" stroke="#2E2E2E"/>
<line x1="479.123" y1="425.213" x2="479.123" y2="433.847" stroke="#2E2E2E"/>
<line x1="637.422" y1="425.213" x2="637.422" y2="433.847" stroke="#2E2E2E"/>
<line x1="699.301" y1="425.213" x2="699.301" y2="433.847" stroke="#2E2E2E"/>
<path d="M67.7695 182.009L99.429 229.499L130.369 219.425L162.748 259L195.127 271.951L226.067 259L258.446 252.524L288.667 264.036L321.765 252.524L353.425 235.255L385.804 219.425H416.024L448.403 229.499L480.063 210.071L510.283 177.692L542.662 140.996L574.322 125.886L605.262 136.679H637.641L668.581 140.996L700.96 125.886" stroke="#CD425B" stroke-width="3" stroke-linecap="round" stroke-linejoin="round"/>
<path d="M700.961 180.572L669.301 201.438L638.361 218.707L605.982 231.659L573.603 218.707L542.663 231.659L510.284 238.134L480.064 291.38L446.965 289.221L415.306 297.136L382.927 271.233H352.706L320.327 261.159L288.668 280.587L258.447 312.966L226.068 349.662L194.409 364.772L163.469 353.979H131.09L100.15 349.662L67.7706 364.772" stroke="#2E2E2E" stroke-width="3" stroke-linecap="round" stroke-linejoin="round"/>
</svg>
