<?xml version="1.0" encoding="UTF-8"?><svg id="Layer_1" xmlns="http://www.w3.org/2000/svg" viewBox="0 0 218.41 121.98"><defs><style>.cls-1{fill:#1b1b1b;}</style></defs><path class="cls-1" d="M65.13,31.37h12.19L55.69,0l-21.63,31.37h12.92c.18,12.43,4.05,19.33,7.2,24.84,2.81,4.93,4.84,8.5,4.84,16.67s-2.03,11.74-4.87,16.7c-3.24,5.66-7.23,12.68-7.23,25.69h18.15c0-8.2,2.03-11.74,4.87-16.7,3.24-5.66,7.23-12.68,7.23-25.69s-4.02-20.03-7.23-25.69c-2.72-4.75-4.69-8.29-4.84-15.82h.03Z"/><path class="cls-1" d="M118.49,31.37h12.19L109.05,0l-21.63,31.37h12.92c.18,12.43,4.05,19.33,7.2,24.84,2.81,4.93,4.84,8.5,4.84,16.67s-2.03,11.74-4.87,16.7c-3.24,5.66-7.23,12.68-7.23,25.69h18.15c0-8.2,2.03-11.74,4.87-16.7,3.24-5.66,7.23-12.68,7.23-25.69s-4.02-20.03-7.23-25.69c-2.72-4.75-4.69-8.29-4.84-15.82h.03Z"/><path class="cls-1" d="M171.88,31.37h12.19L162.45,0l-21.63,31.37h12.92c.18,12.43,4.05,19.33,7.2,24.84,2.81,4.93,4.84,8.5,4.84,16.67s-2.03,11.74-4.87,16.7c-3.24,5.66-7.23,12.68-7.23,25.69h18.15c0-8.2,2.03-11.74,4.87-16.7,3.24-5.66,7.23-12.68,7.23-25.69s-4.02-20.03-7.23-25.69c-2.72-4.75-4.69-8.29-4.84-15.82h.03Z"/><path class="cls-1" d="M209.58,121.98c-26.11-27.65-61.44-43.5-99.43-44.59-38.06-1.09-74.17,12.68-101.82,38.82L0,107.4c30.01-28.32,69.15-43.26,110.51-42.11,41.26,1.18,79.56,18.36,107.9,48.38l-8.8,8.32h-.03Z"/></svg>