<?xml version="1.0" encoding="UTF-8"?><svg id="Layer_1" xmlns="http://www.w3.org/2000/svg" viewBox="0 0 150.25 150.15"><defs><style>.cls-1{fill:#1b1b1b;}</style></defs><path class="cls-1" d="M37.09,45.2c.85.85,1.88,1.36,2.96,1.57,1.81.36,3.75-.18,5.17-1.57,2.24-2.24,2.24-5.87,0-8.11l-15.07-15.07c-.57-.57-1.21-.97-1.91-1.27-2.09-.85-4.54-.42-6.23,1.27-2.24,2.24-2.24,5.87,0,8.11l15.07,15.07Z"/><path class="cls-1" d="M75.11,32.8c3.18,0,5.75-2.57,5.75-5.75V5.75c0-3.18-2.57-5.75-5.75-5.75s-5.75,2.57-5.75,5.75v21.3c0,3.18,2.57,5.75,5.75,5.75Z"/><path class="cls-1" d="M109.11,46.86c1.48,0,2.93-.54,4.05-1.66l15.06-15.07c2.24-2.24,2.24-5.87,0-8.11-2.24-2.24-5.87-2.24-8.11,0l-15.07,15.07c-2.24,2.24-2.24,5.87,0,8.11,1.12,1.12,2.6,1.69,4.05,1.69v-.03Z"/><path class="cls-1" d="M144.51,69.34h-21.33c-3.18,0-5.75,2.57-5.75,5.75s2.57,5.75,5.75,5.75h21.33c3.18,0,5.75-2.57,5.75-5.75s-2.57-5.75-5.75-5.75Z"/><path class="cls-1" d="M75.17,39.57c-4.36,0-8.5.79-12.34,2.24,0,0-.09.03-.12.06-.79.3-1.54.6-2.3.94-.15.06-.3.15-.45.21-.64.3-1.3.61-1.91.97-.42.24-.82.48-1.21.73-.33.21-.7.39-1.03.64-9.74,6.32-16.21,17.27-16.21,29.74,0,19.6,15.91,35.49,35.54,35.49,4.36,0,8.5-.79,12.34-2.24,0,0,.09-.03.12-.06.79-.3,1.54-.6,2.3-.94.15-.06.3-.15.45-.21.64-.3,1.3-.6,1.9-.97.42-.24.82-.48,1.21-.73.33-.21.7-.39,1.03-.64,9.74-6.32,16.21-17.28,16.21-29.74,0-19.6-15.91-35.49-35.54-35.49Z"/><path class="cls-1" d="M113.17,104.95c-.85-.85-1.88-1.36-2.97-1.57-1.81-.36-3.75.18-5.17,1.57-2.24,2.24-2.24,5.87,0,8.11l15.07,15.07c.57.57,1.21.97,1.91,1.27,2.09.85,4.54.42,6.23-1.27,2.24-2.24,2.24-5.87,0-8.11l-15.06-15.07Z"/><path class="cls-1" d="M41.14,103.29c-1.48,0-2.93.54-4.05,1.66l-15.07,15.07c-2.24,2.24-2.24,5.87,0,8.11,2.24,2.24,5.87,2.24,8.11,0l15.07-15.07c2.24-2.24,2.24-5.87,0-8.11-1.12-1.12-2.6-1.69-4.05-1.69v.03Z"/><path class="cls-1" d="M32.82,75.06c0-3.18-2.57-5.75-5.75-5.75H5.75c-3.18,0-5.75,2.57-5.75,5.75s2.57,5.75,5.75,5.75h21.33c3.18,0,5.75-2.57,5.75-5.75Z"/><path class="cls-1" d="M75.14,117.35c-3.18,0-5.75,2.57-5.75,5.75v21.3c0,3.18,2.57,5.75,5.75,5.75s5.75-2.57,5.75-5.75v-21.3c0-3.18-2.57-5.75-5.75-5.75Z"/></svg>