<?xml version="1.0" encoding="UTF-8"?><svg id="Layer_1" xmlns="http://www.w3.org/2000/svg" viewBox="0 0 98.69 144.46"><defs><style>.cls-1{fill:#1b1b1b;}</style></defs><path class="cls-1" d="M98.37,85.8c-2.72-26.99-21.6-54.43-55.57-85.8,4.57,27.35-8.14,42.02-17.58,57.63-2.42-4.27-4.45-9.47-5.84-16C-.97,66.47-3.81,94.66,4.02,113.03c7.68,18.09,26.32,32.16,47.86,31.4,36.33-1.27,49.04-33.64,46.49-58.63ZM51.88,139.44c-10.83.42-20.24-6.69-24.11-15.79-3.93-9.23-2.51-23.42,7.74-35.94.7,3.3,1.72,5.9,2.93,8.05,4.78-7.87,11.13-15.25,8.83-29.01,17.06,15.76,26.59,29.59,27.98,43.17,1.27,12.59-5.11,28.89-23.41,29.53h.03Z"/></svg>