<?xml version="1.0" encoding="UTF-8"?><svg id="Layer_1" xmlns="http://www.w3.org/2000/svg" viewBox="0 0 161.11 104.56"><defs><style>.cls-1{fill:#1b1b1b;}</style></defs><path class="cls-1" d="M130.23,104.56c-8.68,0-13.28-4.48-16.64-7.78-2.99-2.93-4.6-4.33-8.2-4.33s-5.17,1.39-8.2,4.33c-3.35,3.27-7.95,7.78-16.63,7.78s-13.28-4.48-16.64-7.78c-3-2.93-4.6-4.33-8.2-4.33s-5.17,1.39-8.2,4.33c-3.35,3.27-7.95,7.78-16.63,7.78s-13.28-4.48-16.64-7.78c-3-2.93-4.6-4.33-8.2-4.33-3.33,0-6.05-2.72-6.05-6.05s2.72-6.05,6.05-6.05c8.68,0,13.28,4.48,16.64,7.78,2.99,2.93,4.6,4.33,8.2,4.33s5.17-1.39,8.19-4.33c3.36-3.27,7.96-7.78,16.64-7.78s13.28,4.48,16.64,7.78c2.99,2.93,4.6,4.33,8.2,4.33s5.17-1.39,8.19-4.33c3.36-3.27,7.96-7.78,16.64-7.78s13.28,4.48,16.64,7.78c2.99,2.93,4.6,4.33,8.2,4.33s5.2-1.42,8.2-4.33c3.35-3.27,7.95-7.78,16.63-7.78,3.33,0,6.05,2.72,6.05,6.05s-2.72,6.05-6.05,6.05c-3.6,0-5.2,1.39-8.19,4.33-3.36,3.27-7.99,7.78-16.64,7.78Z"/><path class="cls-1" d="M130.23,64.38c-8.68,0-13.28-4.48-16.64-7.78-2.99-2.93-4.6-4.33-8.2-4.33s-5.17,1.39-8.2,4.33c-3.35,3.27-7.95,7.78-16.63,7.78s-13.28-4.48-16.64-7.78c-3-2.93-4.6-4.33-8.2-4.33s-5.17,1.39-8.2,4.33c-3.35,3.27-7.95,7.78-16.63,7.78s-13.28-4.48-16.64-7.78c-3-2.93-4.6-4.33-8.2-4.33-3.33,0-6.05-2.72-6.05-6.05s2.72-6.05,6.05-6.05c8.68,0,13.28,4.48,16.64,7.78,2.99,2.93,4.6,4.33,8.2,4.33s5.17-1.39,8.19-4.33c3.36-3.27,7.96-7.78,16.64-7.78s13.28,4.48,16.64,7.78c2.99,2.93,4.6,4.33,8.2,4.33s5.17-1.39,8.19-4.33c3.36-3.27,7.96-7.78,16.64-7.78s13.28,4.48,16.64,7.78c2.99,2.93,4.6,4.33,8.2,4.33s5.2-1.42,8.2-4.33c3.35-3.27,7.95-7.78,16.63-7.78,3.33,0,6.05,2.72,6.05,6.05s-2.72,6.05-6.05,6.05c-3.6,0-5.2,1.39-8.19,4.33-3.36,3.27-7.99,7.78-16.64,7.78Z"/><path class="cls-1" d="M130.23,24.2c-8.68,0-13.28-4.48-16.64-7.78-2.99-2.93-4.6-4.33-8.2-4.33s-5.17,1.39-8.2,4.33c-3.35,3.27-7.95,7.78-16.63,7.78s-13.28-4.48-16.64-7.78c-3-2.93-4.6-4.33-8.2-4.33s-5.17,1.39-8.2,4.33c-3.35,3.27-7.95,7.78-16.63,7.78s-13.28-4.48-16.64-7.78c-3-2.93-4.6-4.33-8.2-4.33-3.33,0-6.05-2.72-6.05-6.05S2.72,0,6.05,0c8.68,0,13.28,4.48,16.64,7.78,2.99,2.93,4.6,4.33,8.2,4.33s5.17-1.39,8.19-4.33c3.36-3.27,7.96-7.78,16.64-7.78s13.28,4.48,16.64,7.78c2.99,2.93,4.6,4.33,8.2,4.33s5.17-1.39,8.19-4.33c3.36-3.27,7.96-7.78,16.64-7.78s13.28,4.48,16.64,7.78c2.99,2.93,4.6,4.33,8.2,4.33s5.2-1.42,8.2-4.33c3.35-3.27,7.95-7.78,16.63-7.78,3.33,0,6.05,2.72,6.05,6.05s-2.72,6.05-6.05,6.05c-3.6,0-5.2,1.39-8.19,4.33-3.36,3.27-7.99,7.78-16.64,7.78Z"/></svg>