<svg width="826" height="88" viewBox="0 0 826 88" fill="none" xmlns="http://www.w3.org/2000/svg">
<text fill="#1B1B1B" xml:space="preserve" style="white-space: pre" font-family="Source Sans Pro" font-size="12" font-weight="600" letter-spacing="0em"><tspan x="0" y="13.266">Other </tspan><tspan x="0" y="31.266">Unknown</tspan></text>
<text fill="#1B1B1B" xml:space="preserve" style="white-space: pre" font-family="Source Sans Pro" font-size="12" font-weight="600" letter-spacing="0em"><tspan x="76" y="31.266">Gas</tspan></text>
<text fill="#1B1B1B" xml:space="preserve" style="white-space: pre" font-family="Source Sans Pro" font-size="12" font-weight="600" letter-spacing="0em"><tspan x="152" y="31.266">Oil</tspan></text>
<text fill="#1B1B1B" xml:space="preserve" style="white-space: pre" font-family="Source Sans Pro" font-size="12" font-weight="600" letter-spacing="0em"><tspan x="228" y="31.266">Solar</tspan></text>
<text fill="#1B1B1B" xml:space="preserve" style="white-space: pre" font-family="Source Sans Pro" font-size="12" font-weight="600" letter-spacing="0em"><tspan x="304" y="31.266">Biomass</tspan></text>
<text fill="#1B1B1B" xml:space="preserve" style="white-space: pre" font-family="Source Sans Pro" font-size="12" font-weight="600" letter-spacing="0em"><tspan x="380" y="31.266">Wind</tspan></text>
<text fill="#1B1B1B" xml:space="preserve" style="white-space: pre" font-family="Source Sans Pro" font-size="12" font-weight="600" letter-spacing="0em"><tspan x="456" y="31.266">Coal</tspan></text>
<text fill="#1B1B1B" xml:space="preserve" style="white-space: pre" font-family="Source Sans Pro" font-size="12" font-weight="600" letter-spacing="0em"><tspan x="532" y="31.266">Hydro</tspan></text>
<text fill="#1B1B1B" xml:space="preserve" style="white-space: pre" font-family="Source Sans Pro" font-size="12" font-weight="600" letter-spacing="0em"><tspan x="608" y="31.266">Nuclear</tspan></text>
<text fill="#1B1B1B" xml:space="preserve" style="white-space: pre" font-family="Source Sans Pro" font-size="12" font-weight="600" letter-spacing="0em"><tspan x="684" y="13.266">Other </tspan><tspan x="684" y="31.266">Fossil</tspan></text>
<text fill="#1B1B1B" xml:space="preserve" style="white-space: pre" font-family="Source Sans Pro" font-size="12" font-weight="600" letter-spacing="0em"><tspan x="760" y="31.266">Geothermal</tspan></text>
<rect width="60" height="15" transform="matrix(-1 8.74228e-08 8.74228e-08 1 820 44)" fill="#C84281"/>
<rect width="60" height="15" transform="matrix(-1 8.74228e-08 8.74228e-08 1 744 44)" fill="#B04ABD"/>
<rect width="60" height="15" transform="matrix(-1 8.74228e-08 8.74228e-08 1 668 44)" fill="#9287D8"/>
<rect width="60" height="15" transform="matrix(-1 8.74228e-08 8.74228e-08 1 592 44)" fill="#2378C3"/>
<rect width="60" height="15" transform="matrix(-1 8.74228e-08 8.74228e-08 1 516 44)" fill="#5C5C5C"/>
<rect width="60" height="15" transform="matrix(-1 6.56737e-08 1.16374e-07 1 440 44)" fill="#168092"/>
<rect width="60" height="15" transform="matrix(-1 6.56737e-08 1.16374e-07 1 364 44)" fill="#4D8055"/>
<rect width="60" height="15" transform="matrix(-1 6.56737e-08 1.16374e-07 1 288 44)" fill="#8A984B"/>
<rect width="60" height="15" transform="matrix(-1 6.56737e-08 1.16374e-07 1 212 44)" fill="#8E704F"/>
<rect width="60" height="15" transform="matrix(-1 6.56737e-08 1.16374e-07 1 136 44)" fill="#EF5E25"/>
<rect width="60" height="15" transform="matrix(-1 6.56737e-08 1.16374e-07 1 60 44)" fill="#CD425B"/>
<text fill="#1B1B1B" xml:space="preserve" style="white-space: pre" font-family="Source Sans Pro" font-size="14" font-weight="600" letter-spacing="0em"><tspan x="0" y="82.477">#CD425B</tspan></text>
<text fill="#1B1B1B" xml:space="preserve" style="white-space: pre" font-family="Source Sans Pro" font-size="14" font-weight="600" letter-spacing="0em"><tspan x="76" y="82.477">#EF5E25</tspan></text>
<text fill="#1B1B1B" xml:space="preserve" style="white-space: pre" font-family="Source Sans Pro" font-size="14" font-weight="600" letter-spacing="0em"><tspan x="152" y="82.477">#8E704F</tspan></text>
<text fill="#1B1B1B" xml:space="preserve" style="white-space: pre" font-family="Source Sans Pro" font-size="14" font-weight="600" letter-spacing="0em"><tspan x="228" y="82.477">#8A984B</tspan></text>
<text fill="#1B1B1B" xml:space="preserve" style="white-space: pre" font-family="Source Sans Pro" font-size="14" font-weight="600" letter-spacing="0em"><tspan x="304" y="82.477">#4D8055</tspan></text>
<text fill="#1B1B1B" xml:space="preserve" style="white-space: pre" font-family="Source Sans Pro" font-size="14" font-weight="600" letter-spacing="0em"><tspan x="380" y="82.477">#168092</tspan></text>
<text fill="#1B1B1B" xml:space="preserve" style="white-space: pre" font-family="Source Sans Pro" font-size="14" font-weight="600" letter-spacing="0em"><tspan x="456" y="82.477">#5C5C5C</tspan></text>
<text fill="#1B1B1B" xml:space="preserve" style="white-space: pre" font-family="Source Sans Pro" font-size="14" font-weight="600" letter-spacing="0em"><tspan x="532" y="82.477">#2378C3</tspan></text>
<text fill="#1B1B1B" xml:space="preserve" style="white-space: pre" font-family="Source Sans Pro" font-size="14" font-weight="600" letter-spacing="0em"><tspan x="608" y="82.477">#9287D8</tspan></text>
<text fill="#1B1B1B" xml:space="preserve" style="white-space: pre" font-family="Source Sans Pro" font-size="14" font-weight="600" letter-spacing="0em"><tspan x="684" y="82.477">#B04ABD</tspan></text>
<text fill="#1B1B1B" xml:space="preserve" style="white-space: pre" font-family="Source Sans Pro" font-size="14" font-weight="600" letter-spacing="0em"><tspan x="760" y="82.477">#C84281</tspan></text>
</svg>
