<svg width="752" height="60" viewBox="0 0 752 60" fill="none" xmlns="http://www.w3.org/2000/svg">
<path d="M14.5895 10.5838V10.0078C15.2535 9.43977 15.7735 8.95577 16.1495 8.55577C16.5335 8.15577 16.7255 7.79577 16.7255 7.47577C16.7255 7.21177 16.6535 7.00377 16.5095 6.85177C16.3735 6.69977 16.1815 6.62377 15.9335 6.62377C15.7575 6.62377 15.5935 6.68377 15.4415 6.80377C15.2895 6.91577 15.1455 7.06377 15.0095 7.24777L14.4095 6.69577C14.6175 6.39977 14.8655 6.17177 15.1535 6.01177C15.4415 5.84377 15.7535 5.75977 16.0895 5.75977C16.5855 5.75977 16.9815 5.89577 17.2775 6.16777C17.5815 6.43177 17.7335 6.81177 17.7335 7.30777C17.7335 7.72377 17.5895 8.11577 17.3015 8.48377C17.0135 8.85977 16.6615 9.26777 16.2455 9.70777H17.9375V10.5838H14.5895Z" fill="#1B1B1B"/>
<path d="M9.97163 8.5442C9.29163 8.5442 8.69163 8.3802 8.17163 8.0522C7.65163 7.7162 7.24363 7.2442 6.94763 6.6362C6.65963 6.0202 6.51562 5.2882 6.51562 4.4402C6.51562 3.5922 6.65963 2.8682 6.94763 2.2682C7.24363 1.6682 7.65163 1.2082 8.17163 0.888203C8.69163 0.568203 9.29163 0.408203 9.97163 0.408203C10.6596 0.408203 11.2636 0.568203 11.7836 0.888203C12.3036 1.2082 12.7076 1.6682 12.9956 2.2682C13.2916 2.8682 13.4396 3.5922 13.4396 4.4402C13.4396 5.2882 13.2916 6.0202 12.9956 6.6362C12.7076 7.2442 12.3036 7.7162 11.7836 8.0522C11.2636 8.3802 10.6596 8.5442 9.97163 8.5442ZM9.97163 7.3322C10.5876 7.3322 11.0796 7.0722 11.4476 6.5522C11.8156 6.0242 11.9996 5.3202 11.9996 4.4402C11.9996 3.5602 11.8156 2.8722 11.4476 2.3762C11.0796 1.8722 10.5876 1.6202 9.97163 1.6202C9.35563 1.6202 8.86363 1.8722 8.49563 2.3762C8.12762 2.8722 7.94362 3.5602 7.94362 4.4402C7.94362 5.3202 8.12762 6.0242 8.49563 6.5522C8.86363 7.0722 9.35563 7.3322 9.97163 7.3322Z" fill="#1B1B1B"/>
<path d="M3.54 8.5442C2.884 8.5442 2.288 8.3882 1.752 8.0762C1.216 7.7642 0.788 7.3082 0.468 6.7082C0.156 6.1002 0 5.3642 0 4.5002C0 3.6442 0.16 2.9122 0.48 2.3042C0.808 1.6882 1.244 1.2202 1.788 0.900203C2.332 0.572203 2.932 0.408203 3.588 0.408203C4.084 0.408203 4.524 0.508203 4.908 0.708203C5.292 0.908203 5.608 1.1402 5.856 1.4042L5.112 2.3042C4.912 2.0962 4.688 1.9322 4.44 1.8122C4.2 1.6842 3.928 1.6202 3.624 1.6202C3.2 1.6202 2.82 1.7362 2.484 1.9682C2.156 2.1922 1.896 2.5162 1.704 2.9402C1.52 3.3642 1.428 3.8722 1.428 4.4642C1.428 5.3602 1.624 6.0642 2.016 6.5762C2.408 7.0802 2.932 7.3322 3.588 7.3322C3.94 7.3322 4.252 7.2602 4.524 7.1162C4.796 6.9642 5.044 6.7682 5.268 6.5282L6.012 7.4042C5.692 7.7722 5.324 8.0562 4.908 8.2562C4.5 8.4482 4.044 8.5442 3.54 8.5442Z" fill="#1B1B1B"/>
<path d="M111.059 10.992L112.398 8.5656L111.145 6.2832H112.074L112.592 7.3272C112.65 7.4328 112.705 7.5456 112.758 7.6656C112.815 7.7808 112.88 7.908 112.952 8.0472H112.981C113.039 7.908 113.091 7.7808 113.139 7.6656C113.192 7.5456 113.245 7.4328 113.298 7.3272L113.795 6.2832H114.68L113.427 8.6016L114.767 10.992H113.838L113.262 9.8832C113.199 9.7584 113.137 9.636 113.075 9.516C113.017 9.3912 112.952 9.2568 112.88 9.1128H112.851C112.789 9.2568 112.729 9.3912 112.671 9.516C112.619 9.636 112.563 9.7584 112.506 9.8832L111.944 10.992H111.059Z" fill="#1B1B1B"/>
<path d="M106.923 8.136C106.243 8.136 105.643 7.972 105.123 7.644C104.603 7.308 104.195 6.836 103.899 6.228C103.611 5.612 103.467 4.88 103.467 4.032C103.467 3.184 103.611 2.46 103.899 1.86C104.195 1.26 104.603 0.8 105.123 0.48C105.643 0.16 106.243 0 106.923 0C107.611 0 108.215 0.16 108.735 0.48C109.255 0.8 109.659 1.26 109.947 1.86C110.243 2.46 110.391 3.184 110.391 4.032C110.391 4.88 110.243 5.612 109.947 6.228C109.659 6.836 109.255 7.308 108.735 7.644C108.215 7.972 107.611 8.136 106.923 8.136ZM106.923 6.924C107.539 6.924 108.031 6.664 108.399 6.144C108.767 5.616 108.951 4.912 108.951 4.032C108.951 3.152 108.767 2.464 108.399 1.968C108.031 1.464 107.539 1.212 106.923 1.212C106.307 1.212 105.815 1.464 105.447 1.968C105.079 2.464 104.895 3.152 104.895 4.032C104.895 4.912 105.079 5.616 105.447 6.144C105.815 6.664 106.307 6.924 106.923 6.924Z" fill="#1B1B1B"/>
<path d="M96 7.99253V0.144531H97.428L99.876 4.56053L100.68 6.22853H100.728C100.696 5.82853 100.656 5.39253 100.608 4.92053C100.568 4.44853 100.548 3.99253 100.548 3.55253V0.144531H101.88V7.99253H100.452L98.004 3.57653L97.2 1.90853H97.152C97.184 2.32453 97.22 2.76053 97.26 3.21653C97.308 3.67253 97.332 4.12053 97.332 4.56053V7.99253H96Z" fill="#1B1B1B"/>
<path d="M206.745 10.5838V10.0078C207.409 9.43977 207.929 8.95577 208.305 8.55577C208.689 8.15577 208.881 7.79577 208.881 7.47577C208.881 7.21177 208.809 7.00377 208.665 6.85177C208.529 6.69977 208.337 6.62377 208.089 6.62377C207.913 6.62377 207.749 6.68377 207.597 6.80377C207.445 6.91577 207.301 7.06377 207.165 7.24777L206.565 6.69577C206.773 6.39977 207.021 6.17177 207.309 6.01177C207.597 5.84377 207.909 5.75977 208.245 5.75977C208.741 5.75977 209.137 5.89577 209.433 6.16777C209.737 6.43177 209.889 6.81177 209.889 7.30777C209.889 7.72377 209.745 8.11577 209.457 8.48377C209.169 8.85977 208.817 9.26777 208.401 9.70777H210.093V10.5838H206.745Z" fill="#1B1B1B"/>
<path d="M202.127 8.5442C201.447 8.5442 200.847 8.3802 200.327 8.0522C199.807 7.7162 199.399 7.2442 199.103 6.6362C198.815 6.0202 198.671 5.2882 198.671 4.4402C198.671 3.5922 198.815 2.8682 199.103 2.2682C199.399 1.6682 199.807 1.2082 200.327 0.888203C200.847 0.568203 201.447 0.408203 202.127 0.408203C202.815 0.408203 203.419 0.568203 203.939 0.888203C204.459 1.2082 204.863 1.6682 205.151 2.2682C205.447 2.8682 205.595 3.5922 205.595 4.4402C205.595 5.2882 205.447 6.0202 205.151 6.6362C204.863 7.2442 204.459 7.7162 203.939 8.0522C203.419 8.3802 202.815 8.5442 202.127 8.5442ZM202.127 7.3322C202.743 7.3322 203.235 7.0722 203.603 6.5522C203.971 6.0242 204.155 5.3202 204.155 4.4402C204.155 3.5602 203.971 2.8722 203.603 2.3762C203.235 1.8722 202.743 1.6202 202.127 1.6202C201.511 1.6202 201.019 1.8722 200.651 2.3762C200.283 2.8722 200.099 3.5602 200.099 4.4402C200.099 5.3202 200.283 6.0242 200.651 6.5522C201.019 7.0722 201.511 7.3322 202.127 7.3322Z" fill="#1B1B1B"/>
<path d="M194.832 8.5442C194.304 8.5442 193.792 8.4442 193.296 8.2442C192.808 8.0442 192.376 7.7602 192 7.3922L192.816 6.4442C193.096 6.7082 193.416 6.9242 193.776 7.0922C194.136 7.2522 194.496 7.3322 194.856 7.3322C195.304 7.3322 195.644 7.2402 195.876 7.0562C196.108 6.8722 196.224 6.6282 196.224 6.3242C196.224 5.9962 196.108 5.7602 195.876 5.6162C195.652 5.4722 195.364 5.3242 195.012 5.1722L193.932 4.7042C193.676 4.5922 193.424 4.4482 193.176 4.2722C192.936 4.0962 192.736 3.8722 192.576 3.6002C192.424 3.3282 192.348 3.0002 192.348 2.6162C192.348 2.2002 192.46 1.8282 192.684 1.5002C192.916 1.1642 193.228 0.900203 193.62 0.708203C194.02 0.508203 194.476 0.408203 194.988 0.408203C195.444 0.408203 195.884 0.500203 196.308 0.684203C196.732 0.860203 197.096 1.1002 197.4 1.4042L196.692 2.2922C196.444 2.0842 196.18 1.9202 195.9 1.8002C195.628 1.6802 195.324 1.6202 194.988 1.6202C194.62 1.6202 194.32 1.7042 194.088 1.8722C193.864 2.0322 193.752 2.2562 193.752 2.5442C193.752 2.7442 193.808 2.9122 193.92 3.0482C194.04 3.1762 194.196 3.2882 194.388 3.3842C194.58 3.4722 194.784 3.5602 195 3.6482L196.068 4.0922C196.532 4.2922 196.912 4.5562 197.208 4.8842C197.504 5.2042 197.652 5.6482 197.652 6.2162C197.652 6.6402 197.54 7.0282 197.316 7.3802C197.092 7.7322 196.768 8.0162 196.344 8.2322C195.928 8.4402 195.424 8.5442 194.832 8.5442Z" fill="#1B1B1B"/>
<path d="M297.889 10.722C297.425 10.722 297.005 10.666 296.629 10.554C296.261 10.442 295.969 10.27 295.753 10.038C295.545 9.81403 295.441 9.53003 295.441 9.18603C295.441 8.69803 295.721 8.27803 296.281 7.92603V7.87803C296.129 7.78203 296.001 7.65403 295.897 7.49403C295.801 7.33403 295.753 7.13403 295.753 6.89403C295.753 6.66203 295.817 6.45403 295.945 6.27003C296.081 6.07803 296.233 5.92203 296.401 5.80203V5.75403C296.201 5.60203 296.021 5.39003 295.861 5.11803C295.709 4.84603 295.633 4.53803 295.633 4.19403C295.633 3.73803 295.741 3.35403 295.957 3.04203C296.173 2.73003 296.457 2.49403 296.809 2.33403C297.169 2.16603 297.553 2.08203 297.961 2.08203C298.121 2.08203 298.273 2.09803 298.417 2.13003C298.569 2.15403 298.705 2.18603 298.825 2.22603H300.937V3.24603H299.857C299.953 3.35803 300.033 3.50203 300.097 3.67803C300.161 3.84603 300.193 4.03403 300.193 4.24203C300.193 4.67403 300.093 5.04203 299.893 5.34603C299.693 5.64203 299.425 5.86603 299.089 6.01803C298.753 6.17003 298.377 6.24603 297.961 6.24603C297.833 6.24603 297.701 6.23403 297.565 6.21003C297.429 6.18603 297.293 6.14603 297.157 6.09003C297.069 6.17003 296.997 6.25003 296.941 6.33003C296.893 6.41003 296.869 6.51803 296.869 6.65403C296.869 6.82203 296.937 6.95403 297.073 7.05003C297.217 7.14603 297.469 7.19403 297.829 7.19403H298.873C299.585 7.19403 300.121 7.31003 300.481 7.54203C300.849 7.76603 301.033 8.13403 301.033 8.64603C301.033 9.03003 300.905 9.37803 300.649 9.69003C300.393 10.01 300.029 10.262 299.557 10.446C299.085 10.63 298.529 10.722 297.889 10.722ZM297.961 5.38203C298.241 5.38203 298.481 5.27803 298.681 5.07003C298.881 4.86203 298.981 4.57003 298.981 4.19403C298.981 3.82603 298.881 3.54203 298.681 3.34203C298.489 3.13403 298.249 3.03003 297.961 3.03003C297.673 3.03003 297.429 3.13003 297.229 3.33003C297.029 3.53003 296.929 3.81803 296.929 4.19403C296.929 4.57003 297.029 4.86203 297.229 5.07003C297.429 5.27803 297.673 5.38203 297.961 5.38203ZM298.105 9.82203C298.577 9.82203 298.961 9.72603 299.257 9.53403C299.553 9.34203 299.701 9.12203 299.701 8.87403C299.701 8.64203 299.609 8.48603 299.425 8.40603C299.249 8.32603 298.993 8.28603 298.657 8.28603H297.853C297.533 8.28603 297.265 8.25803 297.049 8.20203C296.745 8.43403 296.593 8.69403 296.593 8.98203C296.593 9.24603 296.729 9.45003 297.001 9.59403C297.273 9.74603 297.641 9.82203 298.105 9.82203Z" fill="#1B1B1B"/>
<path d="M288 8.11753V0.269531H289.392V3.42553H292.572V0.269531H293.964V8.11753H292.572V4.63753H289.392V8.11753H288Z" fill="#1B1B1B"/>
<path d="M408.935 10.1756C408.519 10.1756 408.155 10.0916 407.843 9.92356C407.539 9.75556 407.287 9.52756 407.087 9.23956L407.735 8.73556C407.887 8.94356 408.051 9.09956 408.227 9.20356C408.403 9.31556 408.607 9.37156 408.839 9.37156C409.071 9.37156 409.263 9.28756 409.415 9.11956C409.575 8.95956 409.655 8.75556 409.655 8.50756C409.655 8.23556 409.575 8.02356 409.415 7.87156C409.255 7.71956 409.055 7.64356 408.815 7.64356C408.655 7.64356 408.511 7.67556 408.383 7.73956C408.263 7.79556 408.143 7.87156 408.023 7.96756L407.555 7.64356L407.771 5.35156H410.471V6.23956H408.599L408.503 7.12756C408.743 7.04756 408.959 7.00756 409.151 7.00756C409.575 7.00756 409.935 7.14356 410.231 7.41556C410.527 7.67956 410.675 8.05956 410.675 8.55556C410.675 9.02756 410.511 9.41556 410.183 9.71956C409.855 10.0236 409.439 10.1756 408.935 10.1756Z" fill="#1B1B1B"/>
<path d="M405.547 10.1272C405.363 10.1272 405.207 10.0632 405.079 9.9352C404.959 9.8152 404.899 9.6552 404.899 9.4552C404.899 9.2632 404.959 9.1032 405.079 8.9752C405.207 8.8472 405.363 8.7832 405.547 8.7832C405.739 8.7832 405.895 8.8472 406.015 8.9752C406.143 9.1032 406.207 9.2632 406.207 9.4552C406.207 9.6552 406.143 9.8152 406.015 9.9352C405.895 10.0632 405.739 10.1272 405.547 10.1272Z" fill="#1B1B1B"/>
<path d="M400.506 10.031V9.45503C401.17 8.88703 401.69 8.40303 402.066 8.00303C402.45 7.60303 402.642 7.24303 402.642 6.92303C402.642 6.65903 402.57 6.45103 402.426 6.29903C402.29 6.14703 402.098 6.07103 401.85 6.07103C401.674 6.07103 401.51 6.13103 401.358 6.25103C401.206 6.36303 401.062 6.51103 400.926 6.69503L400.326 6.14303C400.534 5.84703 400.782 5.61903 401.07 5.45903C401.358 5.29103 401.67 5.20703 402.006 5.20703C402.502 5.20703 402.898 5.34303 403.194 5.61503C403.498 5.87903 403.65 6.25903 403.65 6.75503C403.65 7.17103 403.506 7.56303 403.218 7.93103C402.93 8.30703 402.578 8.71503 402.162 9.15503H403.854V10.031H400.506Z" fill="#1B1B1B"/>
<path d="M391.984 7.848V0H393.556L394.948 3.84C395.036 4.088 395.12 4.344 395.2 4.608C395.288 4.864 395.372 5.12 395.452 5.376H395.5C395.588 5.12 395.672 4.864 395.752 4.608C395.832 4.344 395.912 4.088 395.992 3.84L397.348 0H398.932V7.848H397.648V4.26C397.648 4.012 397.656 3.744 397.672 3.456C397.696 3.16 397.72 2.864 397.744 2.568C397.776 2.272 397.804 2.004 397.828 1.764H397.78L397.144 3.588L395.86 7.116H395.032L393.736 3.588L393.112 1.764H393.064C393.088 2.004 393.112 2.272 393.136 2.568C393.168 2.864 393.192 3.16 393.208 3.456C393.232 3.744 393.244 4.012 393.244 4.26V7.848H391.984Z" fill="#1B1B1B"/>
<path d="M385 7.848V0H387.472C388.056 0 388.576 0.0759997 389.032 0.228C389.488 0.38 389.848 0.632 390.112 0.984C390.376 1.336 390.508 1.816 390.508 2.424C390.508 3 390.376 3.476 390.112 3.852C389.848 4.228 389.492 4.508 389.044 4.692C388.596 4.876 388.088 4.968 387.52 4.968H386.392V7.848H385ZM386.392 3.852H387.412C388.564 3.852 389.14 3.376 389.14 2.424C389.14 1.928 388.988 1.588 388.684 1.404C388.388 1.212 387.948 1.116 387.364 1.116H386.392V3.852Z" fill="#1B1B1B"/>
<path d="M495.747 8.7363H496.887V8.0763L496.947 6.7203H496.899L496.359 7.6683L495.747 8.7363ZM496.887 10.5843V9.4443H494.739V8.9163L496.563 5.9043H497.811V8.7363H498.507V9.4443H497.811V10.5843H496.887Z" fill="#1B1B1B"/>
<path d="M487.322 8.40073V0.552734H488.714V3.70873H491.894V0.552734H493.286V8.40073H491.894V4.92073H488.714V8.40073H487.322Z" fill="#1B1B1B"/>
<path d="M483.54 8.5442C482.884 8.5442 482.288 8.3882 481.752 8.0762C481.216 7.7642 480.788 7.3082 480.468 6.7082C480.156 6.1002 480 5.3642 480 4.5002C480 3.6442 480.16 2.9122 480.48 2.3042C480.808 1.6882 481.244 1.2202 481.788 0.900203C482.332 0.572203 482.932 0.408203 483.588 0.408203C484.084 0.408203 484.524 0.508203 484.908 0.708203C485.292 0.908203 485.608 1.1402 485.856 1.4042L485.112 2.3042C484.912 2.0962 484.688 1.9322 484.44 1.8122C484.2 1.6842 483.928 1.6202 483.624 1.6202C483.2 1.6202 482.82 1.7362 482.484 1.9682C482.156 2.1922 481.896 2.5162 481.704 2.9402C481.52 3.3642 481.428 3.8722 481.428 4.4642C481.428 5.3602 481.624 6.0642 482.016 6.5762C482.408 7.0802 482.932 7.3322 483.588 7.3322C483.94 7.3322 484.252 7.2602 484.524 7.1162C484.796 6.9642 485.044 6.7682 485.268 6.5282L486.012 7.4042C485.692 7.7722 485.324 8.0562 484.908 8.2562C484.5 8.4482 484.044 8.5442 483.54 8.5442Z" fill="#1B1B1B"/>
<path d="M592.388 8.136C591.708 8.136 591.108 7.972 590.588 7.644C590.068 7.308 589.66 6.836 589.364 6.228C589.076 5.612 588.932 4.88 588.932 4.032C588.932 3.184 589.076 2.46 589.364 1.86C589.66 1.26 590.068 0.8 590.588 0.48C591.108 0.16 591.708 0 592.388 0C593.076 0 593.68 0.16 594.2 0.48C594.72 0.8 595.124 1.26 595.412 1.86C595.708 2.46 595.856 3.184 595.856 4.032C595.856 4.88 595.708 5.612 595.412 6.228C595.124 6.836 594.72 7.308 594.2 7.644C593.68 7.972 593.076 8.136 592.388 8.136ZM592.388 6.924C593.004 6.924 593.496 6.664 593.864 6.144C594.232 5.616 594.416 4.912 594.416 4.032C594.416 3.152 594.232 2.464 593.864 1.968C593.496 1.464 593.004 1.212 592.388 1.212C591.772 1.212 591.28 1.464 590.912 1.968C590.544 2.464 590.36 3.152 590.36 4.032C590.36 4.912 590.544 5.616 590.912 6.144C591.28 6.664 591.772 6.924 592.388 6.924Z" fill="#1B1B1B"/>
<path d="M584.455 10.1756V9.59956C585.119 9.03156 585.639 8.54756 586.015 8.14756C586.399 7.74756 586.591 7.38756 586.591 7.06756C586.591 6.80356 586.519 6.59556 586.375 6.44356C586.239 6.29156 586.047 6.21556 585.799 6.21556C585.623 6.21556 585.459 6.27556 585.307 6.39556C585.155 6.50756 585.011 6.65556 584.875 6.83956L584.275 6.28756C584.483 5.99156 584.731 5.76356 585.019 5.60356C585.307 5.43556 585.619 5.35156 585.955 5.35156C586.451 5.35156 586.847 5.48756 587.143 5.75956C587.447 6.02356 587.599 6.40356 587.599 6.89956C587.599 7.31556 587.455 7.70756 587.167 8.07556C586.879 8.45156 586.527 8.85956 586.111 9.29956H587.803V10.1756H584.455Z" fill="#1B1B1B"/>
<path d="M577 7.99253V0.144531H578.428L580.876 4.56053L581.68 6.22853H581.728C581.696 5.82853 581.656 5.39253 581.608 4.92053C581.568 4.44853 581.548 3.99253 581.548 3.55253V0.144531H582.88V7.99253H581.452L579.004 3.57653L578.2 1.90853H578.152C578.184 2.32453 578.22 2.76053 578.26 3.21653C578.308 3.67253 578.332 4.12053 578.332 4.56053V7.99253H577Z" fill="#1B1B1B"/>
<path d="M686.824 8.2675C686.504 8.2675 686.216 8.4115 685.96 8.6995C686 9.0915 686.104 9.3795 686.272 9.5635C686.448 9.7555 686.648 9.8515 686.872 9.8515C687.072 9.8515 687.24 9.7795 687.376 9.6355C687.512 9.4995 687.58 9.3075 687.58 9.0595C687.58 8.8195 687.516 8.6275 687.388 8.4835C687.26 8.3395 687.072 8.2675 686.824 8.2675ZM686.908 10.6555C686.316 10.6555 685.848 10.4355 685.504 9.9955C685.168 9.5635 685 8.9795 685 8.2435C685 7.4355 685.192 6.8075 685.576 6.3595C685.968 5.9115 686.48 5.6875 687.112 5.6875C687.416 5.6875 687.668 5.7315 687.868 5.8195C688.076 5.9075 688.248 6.0075 688.384 6.1195L687.976 6.7915C687.856 6.7035 687.732 6.6315 687.604 6.5755C687.476 6.5195 687.332 6.4915 687.172 6.4915C686.828 6.4915 686.548 6.6195 686.332 6.8755C686.124 7.1315 686 7.5075 685.96 8.0035C686.264 7.6995 686.628 7.5475 687.052 7.5475C687.516 7.5475 687.876 7.6835 688.132 7.9555C688.388 8.2275 688.516 8.5875 688.516 9.0355C688.516 9.3395 688.444 9.6155 688.3 9.8635C688.164 10.1115 687.972 10.3035 687.724 10.4395C687.484 10.5835 687.212 10.6555 686.908 10.6555Z" fill="#1B1B1B"/>
<path d="M679 8.32847V0.480469H683.74V1.65647H680.392V3.87647H683.248V5.05247H680.392V8.32847H679Z" fill="#1B1B1B"/>
<path d="M674.832 8.47194C674.304 8.47194 673.792 8.37194 673.296 8.17194C672.808 7.97194 672.376 7.68794 672 7.31994L672.816 6.37194C673.096 6.63594 673.416 6.85194 673.776 7.01994C674.136 7.17994 674.496 7.25994 674.856 7.25994C675.304 7.25994 675.644 7.16794 675.876 6.98394C676.108 6.79994 676.224 6.55594 676.224 6.25194C676.224 5.92394 676.108 5.68794 675.876 5.54394C675.652 5.39994 675.364 5.25194 675.012 5.09994L673.932 4.63194C673.676 4.51994 673.424 4.37594 673.176 4.19994C672.936 4.02394 672.736 3.79994 672.576 3.52794C672.424 3.25594 672.348 2.92794 672.348 2.54394C672.348 2.12794 672.46 1.75594 672.684 1.42794C672.916 1.09194 673.228 0.827937 673.62 0.635937C674.02 0.435937 674.476 0.335938 674.988 0.335938C675.444 0.335938 675.884 0.427938 676.308 0.611938C676.732 0.787937 677.096 1.02794 677.4 1.33194L676.692 2.21994C676.444 2.01194 676.18 1.84794 675.9 1.72794C675.628 1.60794 675.324 1.54794 674.988 1.54794C674.62 1.54794 674.32 1.63194 674.088 1.79994C673.864 1.95994 673.752 2.18394 673.752 2.47194C673.752 2.67194 673.808 2.83994 673.92 2.97594C674.04 3.10394 674.196 3.21594 674.388 3.31194C674.58 3.39994 674.784 3.48794 675 3.57594L676.068 4.01994C676.532 4.21994 676.912 4.48394 677.208 4.81194C677.504 5.13194 677.652 5.57594 677.652 6.14394C677.652 6.56794 677.54 6.95594 677.316 7.30794C677.092 7.65994 676.768 7.94394 676.344 8.15994C675.928 8.36794 675.424 8.47194 674.832 8.47194Z" fill="#1B1B1B"/>
<rect width="80" height="15" transform="matrix(-1 8.74228e-08 8.74228e-08 1 752 18.9922)" fill="#4D8055"/>
<rect width="80" height="15" transform="matrix(-1 8.74228e-08 8.74228e-08 1 656 18.9922)" fill="#919191"/>
<rect width="80" height="15" transform="matrix(-1 6.56737e-08 1.16374e-07 1 560 18.9922)" fill="#B04ABD"/>
<rect width="80" height="15" transform="matrix(-1 6.56737e-08 1.16374e-07 1 464 18.9922)" fill="#8A984B"/>
<rect width="80" height="15" transform="matrix(-1 6.56737e-08 1.16374e-07 1 368 18.9922)" fill="#C84281"/>
<rect width="80" height="15" transform="matrix(-1 6.56737e-08 1.16374e-07 1 272 18.9922)" fill="#9287D8"/>
<rect width="80" height="15" transform="matrix(-1 6.56737e-08 1.16374e-07 1 176 18.9922)" fill="#2378C3"/>
<rect width="80" height="15" transform="matrix(-1 6.56737e-08 1.16374e-07 1 80 18.9922)" fill="#CD425B"/>
<text fill="#1B1B1B" xml:space="preserve" style="white-space: pre" font-family="Source Sans Pro" font-size="12" font-weight="600" letter-spacing="0em"><tspan x="0" y="55.2582">#CD425B</tspan></text>
<text fill="#1B1B1B" xml:space="preserve" style="white-space: pre" font-family="Source Sans Pro" font-size="12" font-weight="600" letter-spacing="0em"><tspan x="96" y="55.2582">#2378C3</tspan></text>
<text fill="#1B1B1B" xml:space="preserve" style="white-space: pre" font-family="Source Sans Pro" font-size="12" font-weight="600" letter-spacing="0em"><tspan x="192" y="55.2582">#9287D8</tspan></text>
<text fill="#1B1B1B" xml:space="preserve" style="white-space: pre" font-family="Source Sans Pro" font-size="12" font-weight="600" letter-spacing="0em"><tspan x="288" y="55.2582">#C84281</tspan></text>
<text fill="#1B1B1B" xml:space="preserve" style="white-space: pre" font-family="Source Sans Pro" font-size="12" font-weight="600" letter-spacing="0em"><tspan x="384" y="55.2582">#8A984B</tspan></text>
<text fill="#1B1B1B" xml:space="preserve" style="white-space: pre" font-family="Source Sans Pro" font-size="12" font-weight="600" letter-spacing="0em"><tspan x="480" y="55.2582">#B04ABD</tspan></text>
<text fill="#1B1B1B" xml:space="preserve" style="white-space: pre" font-family="Source Sans Pro" font-size="12" font-weight="600" letter-spacing="0em"><tspan x="576" y="55.2582">#919191</tspan></text>
<text fill="#1B1B1B" xml:space="preserve" style="white-space: pre" font-family="Source Sans Pro" font-size="12" font-weight="600" letter-spacing="0em"><tspan x="672" y="55.2582">#4D8055</tspan></text>
</svg>
