<svg width="752" height="73" viewBox="0 0 752 73" fill="none" xmlns="http://www.w3.org/2000/svg">
<text fill="#1B1B1B" xml:space="preserve" style="white-space: pre" font-family="Source Sans Pro" font-size="14" font-weight="600" letter-spacing="0em"><tspan x="17.0352" y="15.477">&#x2082;</tspan></text>
<text fill="#1B1B1B" xml:space="preserve" style="white-space: pre" font-family="Source Sans Pro" font-size="14" font-weight="600" letter-spacing="0em"><tspan x="0" y="15.477">CO</tspan></text>
<path d="M113.568 18.9995L115.131 16.1687L113.669 13.5059H114.753L115.357 14.7239C115.425 14.8471 115.489 14.9787 115.551 15.1187C115.618 15.2531 115.693 15.4015 115.777 15.5639H115.811C115.878 15.4015 115.94 15.2531 115.996 15.1187C116.057 14.9787 116.119 14.8471 116.181 14.7239L116.76 13.5059H117.793L116.332 16.2107L117.894 18.9995H116.811L116.139 17.7059C116.066 17.5603 115.993 17.4175 115.92 17.2775C115.853 17.1319 115.777 16.9751 115.693 16.8071H115.66C115.587 16.9751 115.517 17.1319 115.45 17.2775C115.388 17.4175 115.324 17.5603 115.257 17.7059L114.601 18.9995H113.568Z" fill="#1B1B1B"/>
<path d="M108.743 16.1678C107.95 16.1678 107.25 15.9764 106.643 15.5938C106.037 15.2018 105.561 14.6511 105.215 13.9418C104.879 13.2231 104.711 12.3691 104.711 11.3798C104.711 10.3904 104.879 9.54578 105.215 8.84578C105.561 8.14578 106.037 7.60911 106.643 7.23578C107.25 6.86245 107.95 6.67578 108.743 6.67578C109.546 6.67578 110.251 6.86245 110.857 7.23578C111.464 7.60911 111.935 8.14578 112.271 8.84578C112.617 9.54578 112.789 10.3904 112.789 11.3798C112.789 12.3691 112.617 13.2231 112.271 13.9418C111.935 14.6511 111.464 15.2018 110.857 15.5938C110.251 15.9764 109.546 16.1678 108.743 16.1678ZM108.743 14.7538C109.462 14.7538 110.036 14.4504 110.465 13.8438C110.895 13.2278 111.109 12.4064 111.109 11.3798C111.109 10.3531 110.895 9.55045 110.465 8.97178C110.036 8.38378 109.462 8.08978 108.743 8.08978C108.025 8.08978 107.451 8.38378 107.021 8.97178C106.592 9.55045 106.377 10.3531 106.377 11.3798C106.377 12.4064 106.592 13.2278 107.021 13.8438C107.451 14.4504 108.025 14.7538 108.743 14.7538Z" fill="#1B1B1B"/>
<path d="M96 15.9998V6.84375H97.666L100.522 11.9958L101.46 13.9418H101.516C101.479 13.4751 101.432 12.9664 101.376 12.4158C101.329 11.8651 101.306 11.3331 101.306 10.8198V6.84375H102.86V15.9998H101.194L98.338 10.8478L97.4 8.90175H97.344C97.3813 9.38708 97.4233 9.89575 97.47 10.4278C97.526 10.9598 97.554 11.4824 97.554 11.9958V15.9998H96Z" fill="#1B1B1B"/>
<text fill="#1B1B1B" xml:space="preserve" style="white-space: pre" font-family="Source Sans Pro" font-size="14" font-weight="600" letter-spacing="0em"><tspan x="209.062" y="15.477">&#x2082;</tspan></text>
<text fill="#1B1B1B" xml:space="preserve" style="white-space: pre" font-family="Source Sans Pro" font-size="14" font-weight="600" letter-spacing="0em"><tspan x="192" y="15.477">SO</tspan></text>
<text fill="#1B1B1B" xml:space="preserve" style="white-space: pre" font-family="Source Sans Pro" font-size="14" font-weight="600" letter-spacing="0em"><tspan x="288" y="15.477">Hg</tspan></text>
<path d="M384 15.9998V6.84375H386.884C387.565 6.84375 388.172 6.93242 388.704 7.10975C389.236 7.28708 389.656 7.58108 389.964 7.99175C390.272 8.40242 390.426 8.96242 390.426 9.67175C390.426 10.3438 390.272 10.8991 389.964 11.3378C389.656 11.7764 389.241 12.1031 388.718 12.3178C388.195 12.5324 387.603 12.6398 386.94 12.6398H385.624V15.9998H384ZM385.624 11.3378H386.814C388.158 11.3378 388.83 10.7824 388.83 9.67175C388.83 9.09308 388.653 8.69642 388.298 8.48175C387.953 8.25775 387.439 8.14575 386.758 8.14575H385.624V11.3378Z" fill="#1B1B1B"/>
<path d="M392.426 15.9998V6.84375H394.26L395.884 11.3238C395.987 11.6131 396.085 11.9118 396.178 12.2198C396.281 12.5184 396.379 12.8171 396.472 13.1158H396.528C396.631 12.8171 396.729 12.5184 396.822 12.2198C396.915 11.9118 397.009 11.6131 397.102 11.3238L398.684 6.84375H400.532V15.9998H399.034V11.8137C399.034 11.5244 399.043 11.2118 399.062 10.8758C399.09 10.5304 399.118 10.1851 399.146 9.83975C399.183 9.49442 399.216 9.18175 399.244 8.90175H399.188L398.446 11.0298L396.948 15.1458H395.982L394.47 11.0298L393.742 8.90175H393.686C393.714 9.18175 393.742 9.49442 393.77 9.83975C393.807 10.1851 393.835 10.5304 393.854 10.8758C393.882 11.2118 393.896 11.5244 393.896 11.8137V15.9998H392.426Z" fill="#1B1B1B"/>
<path d="M402.742 16.9991V16.3271C403.517 15.6644 404.123 15.0998 404.562 14.6331C405.01 14.1664 405.234 13.7464 405.234 13.3731C405.234 13.0651 405.15 12.8224 404.982 12.6451C404.823 12.4678 404.599 12.3791 404.31 12.3791C404.105 12.3791 403.913 12.4491 403.736 12.5891C403.559 12.7198 403.391 12.8924 403.232 13.1071L402.532 12.4631C402.775 12.1178 403.064 11.8518 403.4 11.6651C403.736 11.4691 404.1 11.3711 404.492 11.3711C405.071 11.3711 405.533 11.5298 405.878 11.8471C406.233 12.1551 406.41 12.5984 406.41 13.1771C406.41 13.6624 406.242 14.1198 405.906 14.5491C405.57 14.9878 405.159 15.4638 404.674 15.9771H406.648V16.9991H402.742Z" fill="#1B1B1B"/>
<path d="M409.404 16.9996C409.189 16.9996 409.007 16.925 408.858 16.7756C408.718 16.6356 408.648 16.449 408.648 16.2156C408.648 15.9916 408.718 15.805 408.858 15.6556C409.007 15.5063 409.189 15.4316 409.404 15.4316C409.628 15.4316 409.81 15.5063 409.95 15.6556C410.099 15.805 410.174 15.9916 410.174 16.2156C410.174 16.449 410.099 16.6356 409.95 16.7756C409.81 16.925 409.628 16.9996 409.404 16.9996Z" fill="#1B1B1B"/>
<path d="M414.33 16.9991C413.845 16.9991 413.42 16.9011 413.056 16.7051C412.701 16.5091 412.407 16.2431 412.174 15.9071L412.93 15.3191C413.107 15.5618 413.299 15.7438 413.504 15.8651C413.709 15.9958 413.947 16.0611 414.218 16.0611C414.489 16.0611 414.713 15.9631 414.89 15.7671C415.077 15.5804 415.17 15.3424 415.17 15.0531C415.17 14.7358 415.077 14.4884 414.89 14.3111C414.703 14.1338 414.47 14.0451 414.19 14.0451C414.003 14.0451 413.835 14.0824 413.686 14.1571C413.546 14.2224 413.406 14.3111 413.266 14.4231L412.72 14.0451L412.972 11.3711H416.122V12.4071H413.938L413.826 13.4431C414.106 13.3498 414.358 13.3031 414.582 13.3031C415.077 13.3031 415.497 13.4618 415.842 13.7791C416.187 14.0871 416.36 14.5304 416.36 15.1091C416.36 15.6598 416.169 16.1124 415.786 16.4671C415.403 16.8218 414.918 16.9991 414.33 16.9991Z" fill="#1B1B1B"/>
<text fill="#1B1B1B" xml:space="preserve" style="white-space: pre" font-family="Source Sans Pro" font-size="14" font-weight="600" letter-spacing="0em"><tspan x="497.35" y="15.477">&#x2084;</tspan></text>
<text fill="#1B1B1B" xml:space="preserve" style="white-space: pre" font-family="Source Sans Pro" font-size="14" font-weight="600" letter-spacing="0em"><tspan x="480" y="15.477">CH</tspan></text>
<text fill="#1B1B1B" xml:space="preserve" style="white-space: pre" font-family="Source Sans Pro" font-size="14" font-weight="600" letter-spacing="0em"><tspan x="585.188" y="15.477">&#x2082;</tspan></text>
<text fill="#1B1B1B" xml:space="preserve" style="white-space: pre" font-family="Source Sans Pro" font-size="14" font-weight="600" letter-spacing="0em"><tspan x="576" y="15.477">N</tspan><tspan x="590.396" y="15.477">O</tspan></text>
<text fill="#1B1B1B" xml:space="preserve" style="white-space: pre" font-family="Source Sans Pro" font-size="14" font-weight="600" letter-spacing="0em"><tspan x="686.766" y="15.477">&#x2086;</tspan></text>
<text fill="#1B1B1B" xml:space="preserve" style="white-space: pre" font-family="Source Sans Pro" font-size="14" font-weight="600" letter-spacing="0em"><tspan x="672" y="15.477">SF</tspan></text>
<rect width="80" height="15" transform="matrix(-1 8.74228e-08 8.74228e-08 1 752 29)" fill="#4D8055"/>
<rect width="80" height="15" transform="matrix(-1 8.74228e-08 8.74228e-08 1 656 29)" fill="#919191"/>
<rect width="80" height="15" transform="matrix(-1 6.56737e-08 1.16374e-07 1 560 29)" fill="#B04ABD"/>
<rect width="80" height="15" transform="matrix(-1 6.56737e-08 1.16374e-07 1 464 29)" fill="#8A984B"/>
<rect width="80" height="15" transform="matrix(-1 6.56737e-08 1.16374e-07 1 368 29)" fill="#C84281"/>
<rect width="80" height="15" transform="matrix(-1 6.56737e-08 1.16374e-07 1 272 29)" fill="#9287D8"/>
<rect width="80" height="15" transform="matrix(-1 6.56737e-08 1.16374e-07 1 176 29)" fill="#2378C3"/>
<rect width="80" height="15" transform="matrix(-1 6.56737e-08 1.16374e-07 1 80 29)" fill="#CD425B"/>
<text fill="#1B1B1B" xml:space="preserve" style="white-space: pre" font-family="Source Sans Pro" font-size="14" font-weight="600" letter-spacing="0em"><tspan x="0" y="67.477">#CD425B</tspan></text>
<text fill="#1B1B1B" xml:space="preserve" style="white-space: pre" font-family="Source Sans Pro" font-size="14" font-weight="600" letter-spacing="0em"><tspan x="96" y="67.477">#2378C3</tspan></text>
<text fill="#1B1B1B" xml:space="preserve" style="white-space: pre" font-family="Source Sans Pro" font-size="14" font-weight="600" letter-spacing="0em"><tspan x="192" y="67.477">#9287D8</tspan></text>
<text fill="#1B1B1B" xml:space="preserve" style="white-space: pre" font-family="Source Sans Pro" font-size="14" font-weight="600" letter-spacing="0em"><tspan x="288" y="67.477">#C84281</tspan></text>
<text fill="#1B1B1B" xml:space="preserve" style="white-space: pre" font-family="Source Sans Pro" font-size="14" font-weight="600" letter-spacing="0em"><tspan x="384" y="67.477">#8A984B</tspan></text>
<text fill="#1B1B1B" xml:space="preserve" style="white-space: pre" font-family="Source Sans Pro" font-size="14" font-weight="600" letter-spacing="0em"><tspan x="480" y="67.477">#B04ABD</tspan></text>
<text fill="#1B1B1B" xml:space="preserve" style="white-space: pre" font-family="Source Sans Pro" font-size="14" font-weight="600" letter-spacing="0em"><tspan x="576" y="67.477">#919191</tspan></text>
<text fill="#1B1B1B" xml:space="preserve" style="white-space: pre" font-family="Source Sans Pro" font-size="14" font-weight="600" letter-spacing="0em"><tspan x="672" y="67.477">#4D8055</tspan></text>
</svg>
