<svg width="752" height="73" viewBox="0 0 752 73" fill="none" xmlns="http://www.w3.org/2000/svg">
<text fill="#1B1B1B" xml:space="preserve" style="white-space: pre" font-family="Source Sans Pro" font-size="14" font-weight="600" letter-spacing="0em"><tspan x="17.0352" y="15.477">&#x2082;</tspan></text>
<text fill="#1B1B1B" xml:space="preserve" style="white-space: pre" font-family="Source Sans Pro" font-size="14" font-weight="600" letter-spacing="0em"><tspan x="0" y="15.477">CO</tspan></text>
<path d="M113.568 18.9995L115.131 16.1687L113.669 13.5059H114.753L115.357 14.7239C115.425 14.8471 115.489 14.9787 115.551 15.1187C115.618 15.2531 115.693 15.4015 115.777 15.5639H115.811C115.878 15.4015 115.94 15.2531 115.996 15.1187C116.057 14.9787 116.119 14.8471 116.181 14.7239L116.76 13.5059H117.793L116.332 16.2107L117.894 18.9995H116.811L116.139 17.7059C116.066 17.5603 115.993 17.4175 115.92 17.2775C115.853 17.1319 115.777 16.9751 115.693 16.8071H115.66C115.587 16.9751 115.517 17.1319 115.45 17.2775C115.388 17.4175 115.324 17.5603 115.257 17.7059L114.601 18.9995H113.568Z" fill="#1B1B1B"/>
<path d="M108.743 16.1678C107.95 16.1678 107.25 15.9764 106.643 15.5938C106.037 15.2018 105.561 14.6511 105.215 13.9418C104.879 13.2231 104.711 12.3691 104.711 11.3798C104.711 10.3904 104.879 9.54578 105.215 8.84578C105.561 8.14578 106.037 7.60911 106.643 7.23578C107.25 6.86245 107.95 6.67578 108.743 6.67578C109.546 6.67578 110.251 6.86245 110.857 7.23578C111.464 7.60911 111.935 8.14578 112.271 8.84578C112.617 9.54578 112.789 10.3904 112.789 11.3798C112.789 12.3691 112.617 13.2231 112.271 13.9418C111.935 14.6511 111.464 15.2018 110.857 15.5938C110.251 15.9764 109.546 16.1678 108.743 16.1678ZM108.743 14.7538C109.462 14.7538 110.036 14.4504 110.465 13.8438C110.895 13.2278 111.109 12.4064 111.109 11.3798C111.109 10.3531 110.895 9.55045 110.465 8.97178C110.036 8.38378 109.462 8.08978 108.743 8.08978C108.025 8.08978 107.451 8.38378 107.021 8.97178C106.592 9.55045 106.377 10.3531 106.377 11.3798C106.377 12.4064 106.592 13.2278 107.021 13.8438C107.451 14.4504 108.025 14.7538 108.743 14.7538Z" fill="#1B1B1B"/>
<path d="M96 15.9998V6.84375H97.666L100.522 11.9958L101.46 13.9418H101.516C101.479 13.4751 101.432 12.9664 101.376 12.4158C101.329 11.8651 101.306 11.3331 101.306 10.8198V6.84375H102.86V15.9998H101.194L98.338 10.8478L97.4 8.90175H97.344C97.3813 9.38708 97.4233 9.89575 97.47 10.4278C97.526 10.9598 97.554 11.4824 97.554 11.9958V15.9998H96Z" fill="#1B1B1B"/>
<text fill="#1B1B1B" xml:space="preserve" style="white-space: pre" font-family="Source Sans Pro" font-size="14" font-weight="600" letter-spacing="0em"><tspan x="209.062" y="15.477">&#x2082;</tspan></text>
<text fill="#1B1B1B" xml:space="preserve" style="white-space: pre" font-family="Source Sans Pro" font-size="14" font-weight="600" letter-spacing="0em"><tspan x="192" y="15.477">SO</tspan></text>
<text fill="#1B1B1B" xml:space="preserve" style="white-space: pre" font-family="Source Sans Pro" font-size="14" font-weight="600" letter-spacing="0em"><tspan x="288" y="15.477">Hg</tspan></text>
<text fill="#1B1B1B" xml:space="preserve" style="white-space: pre" font-family="Source Sans Pro" font-size="14" font-weight="600" letter-spacing="0em"><tspan x="402.58" y="15.477">&#x2082;.&#x2085;</tspan></text>
<text fill="#1B1B1B" xml:space="preserve" style="white-space: pre" font-family="Source Sans Pro" font-size="14" font-weight="600" letter-spacing="0em"><tspan x="384" y="15.477">PM</tspan></text>
<text fill="#1B1B1B" xml:space="preserve" style="white-space: pre" font-family="Source Sans Pro" font-size="14" font-weight="600" letter-spacing="0em"><tspan x="497.35" y="15.477">&#x2084;</tspan></text>
<text fill="#1B1B1B" xml:space="preserve" style="white-space: pre" font-family="Source Sans Pro" font-size="14" font-weight="600" letter-spacing="0em"><tspan x="480" y="15.477">CH</tspan></text>
<text fill="#1B1B1B" xml:space="preserve" style="white-space: pre" font-family="Source Sans Pro" font-size="14" font-weight="600" letter-spacing="0em"><tspan x="585.188" y="15.477">&#x2082;</tspan></text>
<text fill="#1B1B1B" xml:space="preserve" style="white-space: pre" font-family="Source Sans Pro" font-size="14" font-weight="600" letter-spacing="0em"><tspan x="576" y="15.477">N</tspan><tspan x="590.396" y="15.477">O</tspan></text>
<text fill="#1B1B1B" xml:space="preserve" style="white-space: pre" font-family="Source Sans Pro" font-size="14" font-weight="600" letter-spacing="0em"><tspan x="686.766" y="15.477">&#x2086;</tspan></text>
<text fill="#1B1B1B" xml:space="preserve" style="white-space: pre" font-family="Source Sans Pro" font-size="14" font-weight="600" letter-spacing="0em"><tspan x="672" y="15.477">SF</tspan></text>
<rect width="80" height="15" transform="matrix(-1 8.74228e-08 8.74228e-08 1 752 29)" fill="#4D8055"/>
<rect width="80" height="15" transform="matrix(-1 8.74228e-08 8.74228e-08 1 656 29)" fill="#919191"/>
<rect width="80" height="15" transform="matrix(-1 6.56737e-08 1.16374e-07 1 560 29)" fill="#B04ABD"/>
<rect width="80" height="15" transform="matrix(-1 6.56737e-08 1.16374e-07 1 464 29)" fill="#8A984B"/>
<rect width="80" height="15" transform="matrix(-1 6.56737e-08 1.16374e-07 1 368 29)" fill="#C84281"/>
<rect width="80" height="15" transform="matrix(-1 6.56737e-08 1.16374e-07 1 272 29)" fill="#9287D8"/>
<rect width="80" height="15" transform="matrix(-1 6.56737e-08 1.16374e-07 1 176 29)" fill="#2378C3"/>
<rect width="80" height="15" transform="matrix(-1 6.56737e-08 1.16374e-07 1 80 29)" fill="#CD425B"/>
<text fill="#1B1B1B" xml:space="preserve" style="white-space: pre" font-family="Source Sans Pro" font-size="14" font-weight="600" letter-spacing="0em"><tspan x="0" y="67.477">#CD425B</tspan></text>
<text fill="#1B1B1B" xml:space="preserve" style="white-space: pre" font-family="Source Sans Pro" font-size="14" font-weight="600" letter-spacing="0em"><tspan x="96" y="67.477">#2378C3</tspan></text>
<text fill="#1B1B1B" xml:space="preserve" style="white-space: pre" font-family="Source Sans Pro" font-size="14" font-weight="600" letter-spacing="0em"><tspan x="192" y="67.477">#9287D8</tspan></text>
<text fill="#1B1B1B" xml:space="preserve" style="white-space: pre" font-family="Source Sans Pro" font-size="14" font-weight="600" letter-spacing="0em"><tspan x="288" y="67.477">#C84281</tspan></text>
<text fill="#1B1B1B" xml:space="preserve" style="white-space: pre" font-family="Source Sans Pro" font-size="14" font-weight="600" letter-spacing="0em"><tspan x="384" y="67.477">#8A984B</tspan></text>
<text fill="#1B1B1B" xml:space="preserve" style="white-space: pre" font-family="Source Sans Pro" font-size="14" font-weight="600" letter-spacing="0em"><tspan x="480" y="67.477">#B04ABD</tspan></text>
<text fill="#1B1B1B" xml:space="preserve" style="white-space: pre" font-family="Source Sans Pro" font-size="14" font-weight="600" letter-spacing="0em"><tspan x="576" y="67.477">#919191</tspan></text>
<text fill="#1B1B1B" xml:space="preserve" style="white-space: pre" font-family="Source Sans Pro" font-size="14" font-weight="600" letter-spacing="0em"><tspan x="672" y="67.477">#4D8055</tspan></text>
</svg>
