<svg width="821" height="387" viewBox="0 0 821 387" fill="none" xmlns="http://www.w3.org/2000/svg">
<rect width="110" height="15" transform="matrix(-1 8.74228e-08 8.74228e-08 1 820.844 0)" fill="#321015"/>
<rect width="110" height="15" transform="matrix(-1 6.56737e-08 1.16374e-07 1 702.37 0)" fill="#641F2B"/>
<rect width="110" height="15" transform="matrix(-1 6.56737e-08 1.16374e-07 1 583.896 0)" fill="#8F2F40"/>
<rect width="110" height="15" transform="matrix(-1 6.56737e-08 1.16374e-07 1 465.422 0)" fill="#CD425B"/>
<rect x="-0.5" y="0.5" width="109" height="14" transform="matrix(-1 6.56737e-08 1.16374e-07 1 345.948 3.28368e-08)" fill="#E36D87" stroke="#321015"/>
<rect x="-0.5" y="0.5" width="109" height="14" transform="matrix(-1 6.56737e-08 1.16374e-07 1 227.474 3.28368e-08)" fill="#EDA9B9" stroke="#321015"/>
<rect x="-0.5" y="0.5" width="109" height="14" transform="matrix(-1 6.56737e-08 1.16374e-07 1 109 3.28368e-08)" fill="#F6DEE3" stroke="#321015"/>
<text fill="#1B1B1B" xml:space="preserve" style="white-space: pre" font-family="Source Sans Pro" font-size="14" font-weight="600" letter-spacing="0em"><tspan x="0" y="36.477">#F6DEE3&#10;</tspan><tspan x="0" y="57.477">(border: #321015)</tspan></text>
<text fill="#1B1B1B" xml:space="preserve" style="white-space: pre" font-family="Source Sans Pro" font-size="14" font-weight="600" letter-spacing="0em"><tspan x="118.5" y="36.477">#EDA9B9&#10;</tspan><tspan x="118.5" y="57.477">(border: #321015)</tspan></text>
<text fill="#1B1B1B" xml:space="preserve" style="white-space: pre" font-family="Source Sans Pro" font-size="14" font-weight="600" letter-spacing="0em"><tspan x="236.5" y="36.477">#E36D87&#10;</tspan><tspan x="236.5" y="57.477">(border: #321015)</tspan></text>
<text fill="#1B1B1B" xml:space="preserve" style="white-space: pre" font-family="Source Sans Pro" font-size="14" font-weight="600" letter-spacing="0em"><tspan x="355.5" y="36.477">#CD425B</tspan></text>
<text fill="#1B1B1B" xml:space="preserve" style="white-space: pre" font-family="Source Sans Pro" font-size="14" font-weight="600" letter-spacing="0em"><tspan x="474" y="36.477">#8F2F40</tspan></text>
<text fill="#1B1B1B" xml:space="preserve" style="white-space: pre" font-family="Source Sans Pro" font-size="14" font-weight="600" letter-spacing="0em"><tspan x="592.5" y="36.477">#641F2B</tspan></text>
<text fill="#1B1B1B" xml:space="preserve" style="white-space: pre" font-family="Source Sans Pro" font-size="14" font-weight="600" letter-spacing="0em"><tspan x="711" y="36.477">#321015</tspan></text>
<rect width="110" height="15" transform="matrix(-1 8.74228e-08 8.74228e-08 1 702.37 81)" fill="#641F2B"/>
<rect width="110" height="15" transform="matrix(-1 6.56737e-08 1.16374e-07 1 583.896 81)" fill="#8F2F40"/>
<rect width="110" height="15" transform="matrix(-1 6.56737e-08 1.16374e-07 1 465.422 81)" fill="#CD425B"/>
<rect x="-0.5" y="0.5" width="109" height="14" transform="matrix(-1 6.56737e-08 1.16374e-07 1 345.948 81)" fill="#E36D87" stroke="#321015"/>
<rect x="-0.5" y="0.5" width="109" height="14" transform="matrix(-1 6.56737e-08 1.16374e-07 1 227.474 81)" fill="#EDA9B9" stroke="#321015"/>
<rect x="-0.5" y="0.5" width="109" height="14" transform="matrix(-1 6.56737e-08 1.16374e-07 1 109 81)" fill="#F6DEE3" stroke="#321015"/>
<text fill="#1B1B1B" xml:space="preserve" style="white-space: pre" font-family="Source Sans Pro" font-size="14" font-weight="600" letter-spacing="0em"><tspan x="0" y="117.477">#F6DEE3&#10;</tspan><tspan x="0" y="138.477">(border: #321015)</tspan></text>
<text fill="#1B1B1B" xml:space="preserve" style="white-space: pre" font-family="Source Sans Pro" font-size="14" font-weight="600" letter-spacing="0em"><tspan x="118.5" y="117.477">#EDA9B9&#10;</tspan><tspan x="118.5" y="138.477">(border: #321015)</tspan></text>
<text fill="#1B1B1B" xml:space="preserve" style="white-space: pre" font-family="Source Sans Pro" font-size="14" font-weight="600" letter-spacing="0em"><tspan x="236.5" y="117.477">#E36D87&#10;</tspan><tspan x="236.5" y="138.477">(border: #321015)</tspan></text>
<text fill="#1B1B1B" xml:space="preserve" style="white-space: pre" font-family="Source Sans Pro" font-size="14" font-weight="600" letter-spacing="0em"><tspan x="355.5" y="117.477">#CD425B</tspan></text>
<text fill="#1B1B1B" xml:space="preserve" style="white-space: pre" font-family="Source Sans Pro" font-size="14" font-weight="600" letter-spacing="0em"><tspan x="474" y="117.477">#8F2F40</tspan></text>
<text fill="#1B1B1B" xml:space="preserve" style="white-space: pre" font-family="Source Sans Pro" font-size="14" font-weight="600" letter-spacing="0em"><tspan x="592.5" y="117.477">#641F2B</tspan></text>
<rect width="110" height="15" transform="matrix(-1 8.74228e-08 8.74228e-08 1 583.896 162)" fill="#8F2F40"/>
<rect width="110" height="15" transform="matrix(-1 6.56737e-08 1.16374e-07 1 465.422 162)" fill="#CD425B"/>
<rect x="-0.5" y="0.5" width="109" height="14" transform="matrix(-1 6.56737e-08 1.16374e-07 1 345.948 162)" fill="#E36D87" stroke="#321015"/>
<rect x="-0.5" y="0.5" width="109" height="14" transform="matrix(-1 6.56737e-08 1.16374e-07 1 227.474 162)" fill="#EDA9B9" stroke="#321015"/>
<rect x="-0.5" y="0.5" width="109" height="14" transform="matrix(-1 6.56737e-08 1.16374e-07 1 109 162)" fill="#F6DEE3" stroke="#321015"/>
<text fill="#1B1B1B" xml:space="preserve" style="white-space: pre" font-family="Source Sans Pro" font-size="14" font-weight="600" letter-spacing="0em"><tspan x="0" y="198.477">#F6DEE3&#10;</tspan><tspan x="0" y="219.477">(border: #321015)</tspan></text>
<text fill="#1B1B1B" xml:space="preserve" style="white-space: pre" font-family="Source Sans Pro" font-size="14" font-weight="600" letter-spacing="0em"><tspan x="118.5" y="198.477">#EDA9B9&#10;</tspan><tspan x="118.5" y="219.477">(border: #321015)</tspan></text>
<text fill="#1B1B1B" xml:space="preserve" style="white-space: pre" font-family="Source Sans Pro" font-size="14" font-weight="600" letter-spacing="0em"><tspan x="236.5" y="198.477">#E36D87&#10;</tspan><tspan x="236.5" y="219.477">(border: #321015)</tspan></text>
<text fill="#1B1B1B" xml:space="preserve" style="white-space: pre" font-family="Source Sans Pro" font-size="14" font-weight="600" letter-spacing="0em"><tspan x="355.5" y="198.477">#CD425B</tspan></text>
<text fill="#1B1B1B" xml:space="preserve" style="white-space: pre" font-family="Source Sans Pro" font-size="14" font-weight="600" letter-spacing="0em"><tspan x="474" y="198.477">#8F2F40</tspan></text>
<rect width="110" height="15" transform="matrix(-1 8.74228e-08 8.74228e-08 1 465.422 243)" fill="#CD425B"/>
<rect x="-0.5" y="0.5" width="109" height="14" transform="matrix(-1 6.56737e-08 1.16374e-07 1 345.948 243)" fill="#E36D87" stroke="#321015"/>
<rect x="-0.5" y="0.5" width="109" height="14" transform="matrix(-1 6.56737e-08 1.16374e-07 1 227.474 243)" fill="#EDA9B9" stroke="#321015"/>
<rect x="-0.5" y="0.5" width="109" height="14" transform="matrix(-1 6.56737e-08 1.16374e-07 1 109 243)" fill="#F6DEE3" stroke="#321015"/>
<text fill="#1B1B1B" xml:space="preserve" style="white-space: pre" font-family="Source Sans Pro" font-size="14" font-weight="600" letter-spacing="0em"><tspan x="0" y="279.477">#F6DEE3&#10;</tspan><tspan x="0" y="300.477">(border: #321015)</tspan></text>
<text fill="#1B1B1B" xml:space="preserve" style="white-space: pre" font-family="Source Sans Pro" font-size="14" font-weight="600" letter-spacing="0em"><tspan x="118.5" y="279.477">#EDA9B9&#10;</tspan><tspan x="118.5" y="300.477">(border: #321015)</tspan></text>
<text fill="#1B1B1B" xml:space="preserve" style="white-space: pre" font-family="Source Sans Pro" font-size="14" font-weight="600" letter-spacing="0em"><tspan x="236.5" y="279.477">#E36D87&#10;</tspan><tspan x="236.5" y="300.477">(border: #321015)</tspan></text>
<text fill="#1B1B1B" xml:space="preserve" style="white-space: pre" font-family="Source Sans Pro" font-size="14" font-weight="600" letter-spacing="0em"><tspan x="355.5" y="279.477">#CD425B</tspan></text>
<rect x="-0.5" y="0.5" width="109" height="14" transform="matrix(-1 8.74228e-08 8.74228e-08 1 346 324)" fill="#E36D87" stroke="#321015"/>
<rect x="-0.5" y="0.5" width="109" height="14" transform="matrix(-1 6.56737e-08 1.16374e-07 1 227.474 324)" fill="#EDA9B9" stroke="#321015"/>
<rect x="-0.5" y="0.5" width="109" height="14" transform="matrix(-1 6.56737e-08 1.16374e-07 1 109 324)" fill="#F6DEE3" stroke="#321015"/>
<text fill="#1B1B1B" xml:space="preserve" style="white-space: pre" font-family="Source Sans Pro" font-size="14" font-weight="600" letter-spacing="0em"><tspan x="0" y="360.477">#F6DEE3&#10;</tspan><tspan x="0" y="381.477">(border: #321015)</tspan></text>
<text fill="#1B1B1B" xml:space="preserve" style="white-space: pre" font-family="Source Sans Pro" font-size="14" font-weight="600" letter-spacing="0em"><tspan x="118.5" y="360.477">#EDA9B9&#10;</tspan><tspan x="118.5" y="381.477">(border: #321015)</tspan></text>
<text fill="#1B1B1B" xml:space="preserve" style="white-space: pre" font-family="Source Sans Pro" font-size="14" font-weight="600" letter-spacing="0em"><tspan x="237.5" y="360.477">#E36D87&#10;</tspan><tspan x="237.5" y="381.477">(border: #321015)</tspan></text>
</svg>
