<?xml version="1.0" encoding="UTF-8"?><svg id="Layer_1" xmlns="http://www.w3.org/2000/svg" viewBox="0 0 180.47 180.49"><defs><style>.cls-1{fill:#8a984b;}.cls-2{fill:#1b1b1b;}</style></defs><path class="cls-1" d="M90.24,177.44c48.17,0,87.21-39.05,87.21-87.22S138.4,2.99,90.24,2.99,3.03,42.05,3.03,90.22s39.05,87.22,87.21,87.22Z"/><path class="cls-1" d="M90.24,180.49C40.47,180.49,0,140.02,0,90.25S40.47,0,90.24,0s90.24,40.48,90.24,90.25-40.47,90.25-90.24,90.25ZM90.24,6.02C43.8,6.02,6.05,43.81,6.05,90.22s37.78,84.2,84.19,84.2,84.19-37.79,84.19-84.2S136.64,6.02,90.24,6.02Z"/><path class="cls-2" d="M61.14,67.38c.64.64,1.42,1.03,2.27,1.21,1.39.27,2.87-.12,3.96-1.21,1.72-1.73,1.72-4.48,0-6.2l-11.52-11.5c-.42-.42-.94-.76-1.45-.97-1.57-.64-3.48-.33-4.75.97-1.72,1.73-1.72,4.48,0,6.2l11.53,11.5h-.03Z"/><path class="cls-2" d="M90.21,57.91c2.42,0,4.39-1.97,4.39-4.39v-16.28c0-2.42-1.97-4.39-4.39-4.39s-4.39,1.97-4.39,4.39v16.28c0,2.42,1.97,4.39,4.39,4.39Z"/><path class="cls-2" d="M116.19,68.65c1.12,0,2.24-.42,3.12-1.27l11.53-11.5c1.72-1.72,1.72-4.48,0-6.2-1.73-1.72-4.48-1.72-6.2,0l-11.52,11.5c-1.72,1.72-1.72,4.48,0,6.2.85.85,1.97,1.27,3.12,1.27h-.03Z"/><path class="cls-2" d="M143.24,85.83h-16.3c-2.42,0-4.39,1.97-4.39,4.39s1.97,4.39,4.39,4.39h16.3c2.42,0,4.39-1.97,4.39-4.39s-1.97-4.39-4.39-4.39Z"/><path class="cls-2" d="M90.24,63.08c-3.33,0-6.5.6-9.44,1.69,0,0-.06,0-.09.03-.61.21-1.18.45-1.76.73-.12.06-.24.12-.33.18-.48.24-1,.48-1.45.73-.33.18-.63.36-.94.54-.27.15-.55.3-.79.49-7.44,4.84-12.4,13.19-12.4,22.72,0,14.98,12.16,27.14,27.17,27.14,3.33,0,6.5-.61,9.44-1.69,0,0,.06,0,.09-.03.61-.21,1.18-.45,1.76-.73.12-.06.24-.12.33-.18.48-.24,1-.48,1.45-.73.33-.18.63-.36.94-.55.27-.15.55-.3.79-.48,7.44-4.84,12.4-13.19,12.4-22.72,0-14.98-12.16-27.14-27.17-27.14Z"/><path class="cls-2" d="M119.31,113.06c-.64-.63-1.42-1.03-2.27-1.21-1.39-.27-2.87.12-3.96,1.21-1.73,1.73-1.73,4.48,0,6.2l11.52,11.5c.42.42.94.76,1.45.97,1.57.63,3.48.33,4.75-.97,1.73-1.72,1.73-4.48,0-6.2l-11.52-11.5h.03Z"/><path class="cls-2" d="M64.25,111.79c-1.12,0-2.24.42-3.11,1.27l-11.53,11.5c-1.72,1.72-1.72,4.48,0,6.2,1.72,1.72,4.48,1.72,6.2,0l11.53-11.5c1.72-1.72,1.72-4.48,0-6.2-.85-.85-1.97-1.27-3.12-1.27h.03Z"/><path class="cls-2" d="M57.87,90.22c0-2.42-1.97-4.39-4.39-4.39h-16.31c-2.42,0-4.39,1.97-4.39,4.39s1.97,4.39,4.39,4.39h16.31c2.42,0,4.39-1.97,4.39-4.39Z"/><path class="cls-2" d="M90.24,122.53c-2.42,0-4.39,1.97-4.39,4.39v16.28c0,2.42,1.97,4.39,4.39,4.39s4.39-1.97,4.39-4.39v-16.28c0-2.42-1.97-4.39-4.39-4.39Z"/></svg>