<?xml version="1.0" encoding="UTF-8"?><svg id="Layer_1" xmlns="http://www.w3.org/2000/svg" viewBox="0 0 174.42 174.45"><defs><style>.cls-1{fill:#1b1b1b;}.cls-2{fill:#8e704f;}</style></defs><path class="cls-2" d="M87.21,174.45c48.17,0,87.21-39.05,87.21-87.22S135.38,0,87.21,0,0,39.05,0,87.22s39.05,87.22,87.21,87.22Z"/><path class="cls-1" d="M129.53,127.37h-14.1c-1.57,0-2.81-1.27-2.81-2.81s1.27-2.81,2.81-2.81h12.92v-29.01h1.18c3.03,0,5.47-2.45,5.47-5.48,0-2.84-2.18-5.14-4.93-5.42h-14.58c-1.57,0-2.81-1.27-2.81-2.81s1.27-2.81,2.81-2.81h12.92v-29.1h1.18c3.03,0,5.47-2.45,5.47-5.48s-2.45-5.48-5.47-5.48H44.95c-3.03,0-5.48,2.45-5.48,5.48s2.45,5.48,5.48,5.48h1.18v29.1h12.8c1.57,0,2.81,1.27,2.81,2.81s-1.27,2.81-2.81,2.81h-14.49c-2.78.27-4.93,2.57-4.93,5.42,0,3.02,2.45,5.48,5.47,5.48h1.18v29.01h12.8c1.57,0,2.81,1.27,2.81,2.81s-1.27,2.81-2.81,2.81h-13.98c-3.02,0-5.47,2.45-5.47,5.48s2.45,5.48,5.47,5.48h84.64c3.02,0,5.48-2.45,5.48-5.48s-2.45-5.48-5.48-5.48h-.09Z"/><path class="cls-2" d="M97.86,79.87c3.78,5.75,7.35,11.19,7.35,17.7,0,9.92-8.08,17.97-18,17.97s-18-8.05-18-17.97c0-6.35,3.3-11.28,7.11-17.03,3.99-5.93,8.5-11.01,9.98-20.85.06-.42.42-.79.91-.79.42,0,.85.33.91.79,1.45,9.14,5.84,14.28,9.74,20.18ZM89.75,107.55c0-1.42-1.12-2.57-2.54-2.57-4.11,0-7.44-3.33-7.44-7.41,0-1.42-1.12-2.57-2.54-2.57s-2.57,1.15-2.57,2.57c0,6.93,5.63,12.53,12.55,12.53,1.42,0,2.54-1.12,2.54-2.54Z"/><path class="cls-1" d="M87.21,104.98c1.42,0,2.54,1.15,2.54,2.57s-1.12,2.54-2.54,2.54c-6.93,0-12.55-5.6-12.55-12.53,0-1.42,1.12-2.57,2.57-2.57s2.54,1.15,2.54,2.57c0,4.12,3.36,7.41,7.44,7.41Z"/></svg>