<?xml version="1.0" encoding="UTF-8"?><svg id="Layer_1" xmlns="http://www.w3.org/2000/svg" viewBox="0 0 174.42 174.45"><defs><style>.cls-1{fill:#9859b2;}.cls-2{fill:#1b1b1b;}</style></defs><path class="cls-1" d="M87.21,174.45c48.17,0,87.21-39.05,87.21-87.22S135.38,0,87.21,0,0,39.05,0,87.22s39.05,87.22,87.21,87.22Z"/><path class="cls-2" d="M36.39,88.34c0-27.74,22.36-50.37,50-50.8l6.39-11.44c-1.85-.15-3.69-.27-5.6-.27-34.45,0-62.5,28.05-62.5,62.51,0,28.71,19.48,52.98,45.92,60.27l2.27-11.5c-21.08-6.2-36.51-25.72-36.51-48.77h.03Z"/><path class="cls-2" d="M103.82,28.11l-2.27,11.5c21.08,6.2,36.51,25.72,36.51,48.77,0,27.74-22.35,50.37-50,50.8l-6.39,11.43c1.85.15,3.7.27,5.6.27,34.46,0,62.5-28.05,62.5-62.51,0-28.71-19.48-52.98-45.92-60.24l-.03-.03Z"/><path class="cls-2" d="M117.43,77.09h-28.1l10.83-54.55-43.14,77.09h28.1l-10.83,54.55,43.14-77.09Z"/></svg>