<?xml version="1.0" encoding="UTF-8"?><svg id="Layer_1" xmlns="http://www.w3.org/2000/svg" viewBox="0 0 174.43 174.45"><defs><style>.cls-1{fill:#d16e44;}.cls-2{fill:#1b1b1b;}</style></defs><path class="cls-1" d="M87.21,174.45c48.17,0,87.21-39.05,87.21-87.22S135.38,0,87.21,0,0,39.05,0,87.22s39.05,87.22,87.21,87.22Z"/><path class="cls-2" d="M129.35,98.87c2.18,21.48-8.71,49.31-39.96,50.4-18.51.64-34.55-11.44-41.14-26.99-6.75-15.76-4.3-40.03,13.19-61.36,1.18,5.63,2.9,10.11,5.02,13.77,8.14-13.4,19.03-26.02,15.12-49.56,29.22,26.96,45.44,50.55,47.77,73.76v-.03ZM89.39,144.98c15.73-.54,21.21-14.55,20.12-25.38-1.18-11.68-9.38-23.54-24.05-37.12,1.97,11.83-3.51,18.18-7.59,24.93-1.06-1.85-1.94-4.08-2.54-6.93-8.8,10.77-10.04,22.96-6.66,30.89,3.33,7.84,11.4,13.95,20.72,13.58v.03Z"/><path class="cls-1" d="M109.51,119.59c1.09,10.83-4.39,24.84-20.12,25.38-9.32.36-17.39-5.75-20.72-13.58-3.39-7.93-2.15-20.12,6.66-30.89.58,2.84,1.48,5.08,2.54,6.93,4.08-6.75,9.59-13.13,7.59-24.93,14.67,13.55,22.87,25.44,24.05,37.12v-.03Z"/></svg>