<svg width="820" height="472" viewBox="0 0 820 472" fill="none" xmlns="http://www.w3.org/2000/svg">
<rect x="1" y="1" width="818" height="470" rx="4" fill="white" stroke="#1B1B1B" stroke-width="2"/>
<line x1="90" y1="269.5" x2="770" y2="269.5" stroke="#C9C9C9" stroke-dasharray="3 3"/>
<line x1="90" y1="211.5" x2="770" y2="211.5" stroke="#C9C9C9" stroke-dasharray="3 3"/>
<line x1="90" y1="152.5" x2="770" y2="152.5" stroke="#C9C9C9" stroke-dasharray="3 3"/>
<line x1="90" y1="95.5" x2="770" y2="95.5" stroke="#C9C9C9" stroke-dasharray="3 3"/>
<rect width="40" height="62" transform="matrix(-1 0 0 1 287 95)" fill="#9287D8"/>
<rect x="247" y="242" width="40" height="87" fill="#2378C3"/>
<rect x="247" y="159" width="40" height="81" fill="#CD425B"/>
<rect x="511" y="282" width="40" height="47" fill="#2378C3"/>
<rect x="511" y="214" width="40" height="66" fill="#CD425B"/>
<rect width="40" height="117" transform="matrix(-1 0 0 1 551 95)" fill="#9287D8"/>
<rect width="40" height="66" transform="matrix(-1 0 0 1 617 95)" fill="#9287D8"/>
<rect width="40" height="128" transform="matrix(-1 0 0 1 617 163)" fill="#CD425B"/>
<rect x="577" y="293" width="40" height="36" fill="#2378C3"/>
<rect x="181" y="276" width="40" height="53" fill="#2378C3"/>
<rect x="181" y="144" width="40" height="130" fill="#CD425B"/>
<rect width="40" height="47" transform="matrix(-1 0 0 1 221 95)" fill="#9287D8"/>
<rect width="40" height="80" transform="matrix(-1 0 0 1 353 95)" fill="#9287D8"/>
<rect width="40" height="112" transform="matrix(-1 0 0 1 353 177)" fill="#CD425B"/>
<rect x="313" y="291" width="40" height="38" fill="#2378C3"/>
<rect x="445" y="269" width="40" height="60" fill="#2378C3"/>
<rect width="40" height="49" transform="matrix(-1 0 0 1 485 95)" fill="#9287D8"/>
<rect width="40" height="121" transform="matrix(-1 0 0 1 485 146)" fill="#CD425B"/>
<rect width="40" height="91" transform="matrix(-1 0 0 1 683 95)" fill="#9287D8"/>
<rect width="40" height="89" transform="matrix(-1 0 0 1 683 188)" fill="#CD425B"/>
<rect x="643" y="279" width="40" height="50" fill="#2378C3"/>
<rect width="40" height="68" transform="matrix(-1 0 0 1 749 95)" fill="#9287D8"/>
<rect width="40" height="104" transform="matrix(-1 0 0 1 749 165)" fill="#CD425B"/>
<rect x="709" y="271" width="40" height="57" fill="#2378C3"/>
<rect x="115" y="261" width="40" height="68" fill="#2378C3"/>
<rect width="40" height="66" transform="matrix(-1 0 0 1 155 95)" fill="#9287D8"/>
<rect width="40" height="96" transform="matrix(-1 0 0 1 155 163)" fill="#CD425B"/>
<rect x="379" y="286" width="40" height="43" fill="#2378C3"/>
<rect x="379" y="153" width="40" height="131" fill="#CD425B"/>
<rect width="40" height="56" transform="matrix(-1 0 0 1 419 95)" fill="#9287D8"/>
<text fill="#2E2E2E" xml:space="preserve" style="white-space: pre" font-family="Roboto" font-size="14" letter-spacing="0em"><tspan x="114.419" y="351.785">ABCD</tspan></text>
<text fill="#2E2E2E" xml:space="preserve" style="white-space: pre" font-family="Roboto" font-size="14" letter-spacing="0em"><tspan x="64.8711" y="328.785">0%</tspan></text>
<text fill="#2E2E2E" xml:space="preserve" style="white-space: pre" font-family="Roboto" font-size="14" letter-spacing="0em"><tspan x="56.9961" y="272.785">25%</tspan></text>
<text fill="#2E2E2E" xml:space="preserve" style="white-space: pre" font-family="Roboto" font-size="14" letter-spacing="0em"><tspan x="56.9961" y="214.785">50%</tspan></text>
<text fill="#2E2E2E" xml:space="preserve" style="white-space: pre" font-family="Roboto" font-size="14" letter-spacing="0em"><tspan x="56.9961" y="155.785">75%</tspan></text>
<text fill="#2E2E2E" xml:space="preserve" style="white-space: pre" font-family="Roboto" font-size="14" letter-spacing="0em"><tspan x="49.1211" y="97.7852">100%</tspan></text>
<text fill="#2E2E2E" xml:space="preserve" style="white-space: pre" font-family="Roboto" font-size="14" letter-spacing="0em"><tspan x="181.384" y="351.785">EFGH</tspan></text>
<text fill="#2E2E2E" xml:space="preserve" style="white-space: pre" font-family="Roboto" font-size="14" letter-spacing="0em"><tspan x="253.062" y="351.785">IJKL</tspan></text>
<text fill="#2E2E2E" xml:space="preserve" style="white-space: pre" font-family="Roboto" font-size="14" letter-spacing="0em"><tspan x="312.156" y="351.785">MNOP</tspan></text>
<text fill="#2E2E2E" xml:space="preserve" style="white-space: pre" font-family="Roboto" font-size="14" letter-spacing="0em"><tspan x="381.034" y="351.785">QRST</tspan></text>
<text fill="#2E2E2E" xml:space="preserve" style="white-space: pre" font-family="Roboto" font-size="14" font-weight="bold" letter-spacing="0em"><tspan x="49" y="75.7852">Emissions (% of total)</tspan></text>
<text fill="#2E2E2E" xml:space="preserve" style="white-space: pre" font-family="Roboto" font-size="14" letter-spacing="0em"><tspan x="445.401" y="351.785">UVWX</tspan></text>
<text fill="#2E2E2E" xml:space="preserve" style="white-space: pre" font-family="Roboto" font-size="14" letter-spacing="0em"><tspan x="515.123" y="351.785">YZAB</tspan></text>
<text fill="#2E2E2E" xml:space="preserve" style="white-space: pre" font-family="Roboto" font-size="14" letter-spacing="0em"><tspan x="582.499" y="351.785">CDEF</tspan></text>
<text fill="#2E2E2E" xml:space="preserve" style="white-space: pre" font-family="Roboto" font-size="14" letter-spacing="0em"><tspan x="648.462" y="351.785">GHIJ</tspan></text>
<text fill="#2E2E2E" xml:space="preserve" style="white-space: pre" font-family="Roboto" font-size="14" letter-spacing="0em"><tspan x="709.223" y="351.785">KLMN</tspan></text>
<line x1="90" y1="328.5" x2="770" y2="328.5" stroke="#2E2E2E"/>
<text fill="#2E2E2E" xml:space="preserve" style="white-space: pre" font-family="Roboto" font-size="14" font-weight="bold" letter-spacing="0em"><tspan x="49" y="404.785">Legend</tspan></text>
<rect width="10" height="10" rx="1" transform="matrix(-1 0 0 1 117 395)" fill="#9287D8"/>
<text fill="#2E2E2E" xml:space="preserve" style="white-space: pre" font-family="Roboto" font-size="14" letter-spacing="0em"><tspan x="139.405" y="404.785">&#x2082;</tspan></text>
<text fill="#2E2E2E" xml:space="preserve" style="white-space: pre" font-family="Roboto" font-size="14" letter-spacing="0em"><tspan x="121.454" y="404.785">SO</tspan></text>
<rect width="10" height="10" rx="1" transform="matrix(-1 0 0 1 175 395)" fill="#CD425B"/>
<text fill="#2E2E2E" xml:space="preserve" style="white-space: pre" font-family="Roboto" font-size="14" letter-spacing="0em"><tspan x="197.809" y="404.785">&#x2082;</tspan></text>
<text fill="#2E2E2E" xml:space="preserve" style="white-space: pre" font-family="Roboto" font-size="14" letter-spacing="0em"><tspan x="179.051" y="404.785">CO</tspan></text>
<rect x="223" y="395" width="10" height="10" rx="1" fill="#2378C3"/>
<text fill="#2E2E2E" xml:space="preserve" style="white-space: pre" font-family="Roboto" font-size="14" letter-spacing="0em"><tspan x="256.704" y="404.785">x</tspan></text>
<text fill="#2E2E2E" xml:space="preserve" style="white-space: pre" font-family="Roboto" font-size="14" letter-spacing="0em"><tspan x="237.071" y="404.785">NO</tspan></text>
<text fill="#2E2E2E" xml:space="preserve" style="white-space: pre" font-family="Roboto" font-size="14" font-weight="bold" letter-spacing="0em"><tspan x="378.009" y="381.785">Region</tspan></text>
<text fill="#2E2E2E" xml:space="preserve" style="white-space: pre" font-family="Roboto" font-size="14" letter-spacing="0em"><tspan x="79.0918" y="442.785">: This chart is for illustrative purposes only.</tspan></text>
<text fill="#2E2E2E" xml:space="preserve" style="white-space: pre" font-family="Roboto" font-size="14" font-weight="bold" letter-spacing="0em"><tspan x="49" y="442.785">Note</tspan></text>
<text fill="#2E2E2E" xml:space="preserve" style="white-space: pre" font-family="Roboto" font-size="18" letter-spacing="0em"><tspan x="49" y="39.6523">Share of Total Emissions by Region</tspan></text>
</svg>
