<?xml version="1.0" encoding="UTF-8"?><svg id="Layer_1" xmlns="http://www.w3.org/2000/svg" viewBox="0 0 180.47 180.49"><defs><style>.cls-1{fill:#fff;}.cls-2{fill:#168092;}</style></defs><path class="cls-2" d="M90.24,177.44c48.16,0,87.21-39.05,87.21-87.22S138.4,2.99,90.24,2.99,3.02,42.05,3.02,90.22s39.05,87.22,87.22,87.22Z"/><path class="cls-2" d="M90.24,180.49C40.47,180.49,0,140.01,0,90.25S40.47,0,90.24,0s90.23,40.48,90.23,90.25-40.47,90.25-90.23,90.25ZM90.24,6.02C43.8,6.02,6.05,43.81,6.05,90.22s37.78,84.2,84.19,84.2,84.18-37.79,84.18-84.2S136.64,6.02,90.24,6.02Z"/><path class="cls-1" d="M101.52,83.53c0,3.39-2.75,6.14-6.14,6.14s-6.14-2.75-6.14-6.14,2.75-6.14,6.14-6.14,6.14,2.75,6.14,6.14Z"/><path class="cls-1" d="M113.38,26.44c2.21-2.24,4.08-.76,3.36,1.66l-14.49,47.05c-1.88-1.54-4.24-2.48-6.84-2.48-1.27,0-2.45.27-3.57.67-.3-3.12-.58-6.63-.67-9.08-.09-2.09,0-4.17,1-5.99,3.06-5.41,5.48-9.59,11.5-18.3,4.57-6.62,8.44-12.16,9.77-13.49"/><path class="cls-1" d="M109.02,155.11l-8.83-60.11,35.85,32.4c2.02,1.85,4.35.67,3.14-2.51-.72-1.88-4.35-8.17-8.74-15.64-5.78-9.83-8.74-14.1-12.65-19.54-1.3-1.82-3.32-2.84-5.38-3.72-1.69-.7-3.9-1.54-6.14-2.39-.03,5.96-4.9,10.8-10.89,10.8-1.63,0-3.21-.39-4.6-1.06l-9.07,61.75h27.28l.03.03Z"/><path class="cls-1" d="M34.91,88.95c1.75.7,8.35,2.09,16.24,3.72,10.38,2.15,15.16,2.75,21.36,3.45,2.06.24,4.02-.55,5.93-1.42,2.36-1.09,5.66-2.84,8.53-4.39-1.51-1.88-2.45-4.21-2.45-6.81,0-1.18.24-2.3.6-3.39l-49.94,5.05"/></svg>