<?xml version="1.0" encoding="UTF-8"?><svg id="Layer_1" xmlns="http://www.w3.org/2000/svg" viewBox="0 0 174.42 174.44"><defs><style>.cls-1{fill:#5c5c5c;}.cls-2{fill:#fff;}</style></defs><path class="cls-1" d="M87.21,174.44c48.17,0,87.21-39.05,87.21-87.22S135.38,0,87.21,0,0,39.05,0,87.22s39.04,87.22,87.21,87.22Z"/><path class="cls-2" d="M130.2,53.7l-9.44-4.11-5.33-10.38c-.3-.6-.84-1.09-1.48-1.3l-23.5-8.47c-.97-.36-2.06-.12-2.79.6l-10.28,10.01-2.12-1.63c-.6-.45-1.36-.67-2.12-.54l-15.42,2.63c-.67.12-1.27.48-1.7,1.03l-9.26,12.22c-.9,1.18-.63,2.97.52,3.78,1.15.82,2.84.7,3.78-.51.94-1.21,8.59-11.35,8.59-11.35l13.22-2.24,11.92,9.32c1.18.91,2.87.7,3.78-.45.91-1.18.7-2.87-.45-3.78l-6.48-5.05,8.56-8.35,20.91,7.53,5.26,10.29c.27.54.76,1,1.33,1.24,0,0,8.59,3.81,10.32,4.51,1.72.7,2.93-.24,3.54-1.39.6-1.15,0-2.96-1.39-3.54l.03-.06Z"/><path class="cls-2" d="M141.15,64.35H33.3c-1.54,0-2.78,1.24-2.78,2.78v8.92c0,1.54,1.24,2.78,2.78,2.78h23.9c1.27,0,2.3,1.03,2.3,2.3s-1.03,2.3-2.3,2.3h-18.36l6.74,28.23h-5.74c-1.55,0-2.79,1.24-2.79,2.78v13.37c0,1.54,1.24,2.78,2.79,2.78h7.41c.15-10.14,8.44-18.33,18.6-18.33,11.1,0,18.61,9.26,18.61,18.33h5.9c.15-10.14,8.44-18.33,18.6-18.33,11.62,0,18.6,9.74,18.6,18.33h5.9c1.55,0,2.79-1.24,2.79-2.78v-13.37c0-1.54-1.24-2.78-2.79-2.78h-4.69l7.84-32.83h4.54c1.54,0,2.78-1.24,2.78-2.78v-8.92c0-1.54-1.24-2.78-2.78-2.78Z"/><path class="cls-2" d="M65.88,116.6c-7.89,0-14.34,6.35-14.34,14.25s6.39,14.31,14.28,14.31,14.34-6.35,14.34-14.25-6.35-14.31-14.28-14.31ZM65.82,136.29c-2.99,0-5.38-2.42-5.38-5.42s2.45-5.38,5.41-5.38,5.39,2.42,5.39,5.41-2.45,5.39-5.42,5.39ZM108.99,116.6c-7.9,0-14.34,6.35-14.34,14.25s6.38,14.31,14.28,14.31,14.34-6.35,14.34-14.25-6.35-14.31-14.28-14.31ZM108.93,136.29c-3,0-5.39-2.42-5.39-5.42s2.46-5.38,5.42-5.38,5.38,2.42,5.38,5.41-2.45,5.39-5.41,5.39Z"/></svg>