<svg width="800" height="276" viewBox="0 0 800 276" fill="none" xmlns="http://www.w3.org/2000/svg">
<path d="M790.814 29.8014L784.497 27.0462L780.935 20.1018C780.726 19.699 780.371 19.3768 779.936 19.2318L764.207 13.5603C763.547 13.3186 762.838 13.4797 762.338 13.9631L755.457 20.6658L754.039 19.5701C753.636 19.264 753.136 19.119 752.62 19.2156L742.29 20.9719C741.839 21.0525 741.436 21.2941 741.146 21.6647L734.958 29.8336C734.362 30.6231 734.523 31.8154 735.313 32.3632C736.086 32.9111 737.214 32.8305 737.843 32.0088C738.471 31.2032 743.596 24.4038 743.596 24.4038L752.443 22.9054L760.42 29.1408C761.21 29.7531 762.338 29.6242 762.95 28.8347C763.563 28.0452 763.418 26.9173 762.644 26.305L758.309 22.9215L764.046 17.3305L778.051 22.3736L781.58 29.2536C781.773 29.6242 782.079 29.9142 782.466 30.0914C782.466 30.0914 788.203 32.6372 789.364 33.1044C790.524 33.5717 791.33 32.9272 791.733 32.1699C792.135 31.4126 791.716 30.1881 790.798 29.8014H790.814Z" fill="#1B1B1B"/>
<path d="M798.131 36.9062H725.95C724.919 36.9062 724.081 37.7441 724.081 38.7753V44.7368C724.081 45.768 724.919 46.6058 725.95 46.6058H741.936C742.791 46.6058 743.467 47.2987 743.467 48.1365C743.467 48.9743 742.774 49.6672 741.936 49.6672H729.64L734.153 68.5668H730.317C729.286 68.5668 728.448 69.4047 728.448 70.4358V79.3782C728.448 80.4093 729.286 81.2472 730.317 81.2472H735.265C735.361 74.48 740.905 68.9858 747.722 68.9858C755.167 68.9858 760.179 75.1729 760.179 81.2472H764.127C764.224 74.48 769.784 68.9858 776.584 68.9858C784.368 68.9858 789.042 75.5112 789.042 81.2472H792.99C794.021 81.2472 794.859 80.4093 794.859 79.3782V70.4358C794.859 69.4047 794.021 68.5668 792.99 68.5668H789.847L795.085 46.6058H798.131C799.162 46.6058 800 45.768 800 44.7368V38.7753C800 37.7441 799.162 36.9062 798.131 36.9062Z" fill="#1B1B1B"/>
<path d="M747.754 71.8867C742.468 71.8867 738.166 76.1404 738.149 81.4252C738.149 86.71 742.42 90.9959 747.706 91.012C752.992 91.0281 757.295 86.7583 757.311 81.4735C757.327 76.1887 753.056 71.9028 747.754 71.8867ZM747.722 85.0505C745.724 85.0505 744.112 83.4231 744.112 81.4413C744.112 79.4434 745.74 77.8322 747.738 77.8483C749.736 77.8483 751.348 79.4756 751.348 81.4735C751.348 83.4714 749.72 85.0666 747.722 85.0666V85.0505ZM776.601 71.8867C771.299 71.8867 767.012 76.1404 766.996 81.4252C766.996 86.71 771.267 90.9959 776.552 91.012C781.838 91.0281 786.141 86.7583 786.157 81.4735C786.173 76.1887 781.903 71.9028 776.601 71.8867ZM776.569 85.0505C774.57 85.0505 772.959 83.4231 772.959 81.4413C772.959 79.4434 774.586 77.8322 776.585 77.8483C778.583 77.8483 780.195 79.4756 780.195 81.4735C780.195 83.4714 778.567 85.0666 776.569 85.0666V85.0505Z" fill="#1B1B1B"/>
<path d="M34.6965 38.2279H41.191L29.6685 21.5195L18.146 38.2279H25.0273C25.124 44.8501 27.1867 48.5237 28.8627 51.4561C30.3615 54.0824 31.4412 55.9836 31.4412 60.3339C31.4412 64.6843 30.3615 66.5855 28.8466 69.2279C27.1223 72.2409 24.995 75.979 24.995 82.9072H34.6643C34.6643 78.5408 35.744 76.6557 37.2588 74.0133C38.9832 71.0003 41.1104 67.2622 41.1104 60.3339C41.1104 53.4057 38.9671 49.6677 37.2588 46.6547C35.8085 44.125 34.761 42.2399 34.6804 38.2279H34.6965Z" fill="#1B1B1B"/>
<path d="M63.1242 38.2279H69.6187L58.0962 21.5195L46.5737 38.2279H53.455C53.5517 44.8501 55.6145 48.5237 57.2905 51.4561C58.7892 54.0824 59.8689 55.9836 59.8689 60.3339C59.8689 64.6843 58.7892 66.5855 57.2744 69.2279C55.55 72.2409 53.4228 75.979 53.4228 82.9072H63.092C63.092 78.5408 64.1717 76.6557 65.6866 74.0133C67.4109 71.0003 69.5382 67.2622 69.5382 60.3339C69.5382 53.4057 67.3948 49.6677 65.6866 46.6547C64.2362 44.125 63.1887 42.2399 63.1081 38.2279H63.1242Z" fill="#1B1B1B"/>
<path d="M91.5676 38.2279H98.0621L86.5396 21.5195L75.0171 38.2279H81.8984C81.9951 44.8501 84.0578 48.5237 85.7338 51.4561C87.2326 54.0824 88.3123 55.9836 88.3123 60.3339C88.3123 64.6843 87.2326 66.5855 85.7177 69.2279C83.9934 72.2409 81.8661 75.979 81.8661 82.9072H91.5354C91.5354 78.5408 92.6151 76.6557 94.1299 74.0133C95.8543 71.0003 97.9815 67.2622 97.9815 60.3339C97.9815 53.4057 95.8382 49.6677 94.1299 46.6547C92.6796 44.125 91.6321 42.2399 91.5515 38.2279H91.5676Z" fill="#1B1B1B"/>
<path d="M171.871 36.3107C172.322 36.7618 172.87 37.0357 173.45 37.1485C174.417 37.3419 175.448 37.0519 176.206 36.3107C177.398 35.1184 177.398 33.1849 176.206 31.9926L168.18 23.9687C167.874 23.6626 167.536 23.4531 167.165 23.292C166.053 22.8408 164.748 23.0664 163.845 23.9687C162.653 25.161 162.653 27.0945 163.845 28.2868L171.871 36.3107Z" fill="#1B1B1B"/>
<path d="M192.128 29.704C193.82 29.704 195.19 28.3344 195.19 26.6426V15.2996C195.19 13.6078 193.82 12.2383 192.128 12.2383C190.436 12.2383 189.066 13.6078 189.066 15.2996V26.6426C189.066 28.3344 190.436 29.704 192.128 29.704Z" fill="#1B1B1B"/>
<path d="M210.241 37.1966C211.031 37.1966 211.805 36.9066 212.401 36.3104L220.426 28.2865C221.619 27.0942 221.619 25.1608 220.426 23.9684C219.234 22.7761 217.3 22.7761 216.107 23.9684L208.082 31.9923C206.889 33.1847 206.889 35.1181 208.082 36.3104C208.678 36.9066 209.468 37.2127 210.241 37.2127V37.1966Z" fill="#1B1B1B"/>
<path d="M229.096 49.168H217.735C216.043 49.168 214.673 50.5375 214.673 52.2293C214.673 53.9211 216.043 55.2906 217.735 55.2906H229.096C230.788 55.2906 232.158 53.9211 232.158 52.2293C232.158 50.5375 230.788 49.168 229.096 49.168Z" fill="#1B1B1B"/>
<path d="M192.16 33.3145C189.839 33.3145 187.631 33.7334 185.585 34.5067C185.585 34.5067 185.536 34.5229 185.52 34.539C185.101 34.7001 184.698 34.8612 184.295 35.0385C184.215 35.0707 184.134 35.119 184.054 35.1512C183.715 35.3124 183.361 35.4735 183.038 35.6668C182.813 35.7957 182.603 35.9246 182.394 36.0535C182.217 36.1663 182.023 36.263 181.846 36.3919C176.657 39.7593 173.208 45.592 173.208 52.2302C173.208 62.671 181.685 71.1299 192.144 71.1299C194.464 71.1299 196.672 70.711 198.719 69.9376C198.719 69.9376 198.767 69.9215 198.783 69.9054C199.202 69.7442 199.605 69.5831 200.008 69.4059C200.088 69.3737 200.169 69.3253 200.25 69.2931C200.588 69.132 200.943 68.9709 201.265 68.7775C201.49 68.6486 201.7 68.5197 201.91 68.3908C202.087 68.278 202.28 68.1814 202.457 68.0525C207.647 64.685 211.095 58.8524 211.095 52.2141C211.095 41.7734 202.619 33.3145 192.16 33.3145Z" fill="#1B1B1B"/>
<path d="M212.401 68.1324C211.95 67.6813 211.402 67.4074 210.822 67.2946C209.855 67.1012 208.823 67.3913 208.066 68.1324C206.873 69.3247 206.873 71.2582 208.066 72.4505L216.091 80.4744C216.397 80.7805 216.736 80.99 217.107 81.1511C218.218 81.6023 219.524 81.3767 220.426 80.4744C221.619 79.2821 221.619 77.3486 220.426 76.1563L212.401 68.1324Z" fill="#1B1B1B"/>
<path d="M174.03 67.2466C173.24 67.2466 172.467 67.5366 171.871 68.1328L163.845 76.1567C162.653 77.349 162.653 79.2824 163.845 80.4747C165.038 81.6671 166.971 81.6671 168.164 80.4747L176.189 72.4508C177.382 71.2585 177.382 69.3251 176.189 68.1328C175.593 67.5366 174.804 67.2305 174.03 67.2305V67.2466Z" fill="#1B1B1B"/>
<path d="M169.598 52.2137C169.598 50.5219 168.229 49.1523 166.537 49.1523H155.175C153.483 49.1523 152.113 50.5219 152.113 52.2137C152.113 53.9054 153.483 55.275 155.175 55.275H166.537C168.229 55.275 169.598 53.9054 169.598 52.2137Z" fill="#1B1B1B"/>
<path d="M192.144 74.7383C190.452 74.7383 189.082 76.1078 189.082 77.7996V89.1426C189.082 90.8344 190.452 92.204 192.144 92.204C193.836 92.204 195.206 90.8344 195.206 89.1426V77.7996C195.206 76.1078 193.836 74.7383 192.144 74.7383Z" fill="#1B1B1B"/>
<path d="M503.348 79.0884H502.559H493.921C492.873 79.0884 492.035 78.2344 492.035 77.2033C492.035 76.1721 492.889 75.3181 493.921 75.3181H502.559V55.8867H503.348C505.363 55.8867 507.006 54.2433 507.006 52.2293C507.006 50.328 505.556 48.7812 503.703 48.604H493.937C492.889 48.604 492.051 47.7662 492.051 46.7189C492.051 45.6716 492.905 44.8337 493.937 44.8337H502.575V25.354H503.364C505.379 25.354 507.023 23.7106 507.023 21.6965C507.023 19.6825 505.379 18.0391 503.364 18.0391H446.686C444.672 18.0391 443.028 19.6825 443.028 21.6965C443.028 23.7106 444.672 25.354 446.686 25.354H447.476V44.8337H456.05C457.097 44.8337 457.935 45.6877 457.935 46.7189C457.935 47.7501 457.081 48.604 456.05 48.604H446.348C444.495 48.7812 443.044 50.328 443.044 52.2293C443.044 54.2433 444.688 55.8867 446.703 55.8867H447.492V75.3181H456.066C457.113 75.3181 457.951 76.1721 457.951 77.2033C457.951 78.2344 457.097 79.0884 456.066 79.0884H447.492H446.703C444.688 79.0884 443.044 80.7318 443.044 82.7459C443.044 84.7599 444.688 86.4034 446.703 86.4034H503.38C505.395 86.4034 507.039 84.7599 507.039 82.7459C507.039 80.7318 505.395 79.0884 503.38 79.0884H503.348Z" fill="#1B1B1B"/>
<path d="M482.14 47.2994C484.67 51.1502 487.071 54.8077 487.071 59.1419C487.071 65.7801 481.657 71.1616 475.017 71.1616C468.378 71.1616 462.963 65.7801 462.963 59.1419C462.963 54.8883 465.171 51.5852 467.717 47.7505C470.392 43.7869 473.422 40.3711 474.405 33.7973C474.453 33.5073 474.695 33.2656 475.017 33.2656C475.307 33.2656 475.581 33.4912 475.63 33.7973C476.596 39.92 479.546 43.3519 482.14 47.3155V47.2994ZM476.709 65.8124C476.709 64.8617 475.952 64.0884 475.017 64.0884C472.278 64.0884 470.038 61.8649 470.038 59.1258C470.038 58.1751 469.28 57.4018 468.345 57.4018C467.411 57.4018 466.621 58.1751 466.621 59.1258C466.621 63.75 470.392 67.5042 475.017 67.5042C475.968 67.5042 476.709 66.7469 476.709 65.8124Z" fill="white"/>
<path d="M475.017 64.1046C475.968 64.1046 476.709 64.8779 476.709 65.8286C476.709 66.7792 475.952 67.5204 475.017 67.5204C470.392 67.5204 466.621 63.7662 466.621 59.142C466.621 58.1914 467.379 57.418 468.345 57.418C469.312 57.418 470.038 58.1914 470.038 59.142C470.038 61.8811 472.278 64.1046 475.017 64.1046Z" fill="#1B1B1B"/>
<path d="M357.149 59.4326C358.503 72.7414 351.751 89.9815 332.38 90.6582C320.906 91.061 310.979 83.5688 306.885 73.9337C302.695 64.1696 304.226 49.1369 315.072 35.9088C315.797 39.389 316.877 42.1764 318.182 44.4321C323.226 36.1182 329.979 28.3038 327.545 13.7383C345.643 30.4467 355.715 45.0605 357.149 59.4326ZM332.38 87.9997C342.13 87.6774 345.53 78.9768 344.853 72.2741C344.128 65.0397 339.052 57.6764 329.946 49.2819C331.171 56.5969 327.771 60.5444 325.241 64.7336C324.58 63.5896 324.032 62.1878 323.678 60.4477C318.214 67.1182 317.457 74.6749 319.552 79.5891C321.615 84.4389 326.627 88.2252 332.396 87.9997H332.38Z" fill="#1B1B1B"/>
<path d="M111.647 86.4851C97.7398 71.7585 78.917 63.3156 58.6761 62.7356C38.403 62.1555 19.1612 69.4866 4.43173 83.4076L0 78.7189C15.9865 63.6379 36.8398 55.6784 58.8695 56.2907C80.8509 56.9191 101.253 66.0708 116.353 82.0542L111.664 86.4851H111.647Z" fill="#1B1B1B"/>
<path d="M630.353 41.1443C630.353 43.5289 628.419 45.4623 626.034 45.4623C623.649 45.4623 621.715 43.5289 621.715 41.1443C621.715 38.7597 623.649 36.8262 626.034 36.8262C628.419 36.8262 630.353 38.7597 630.353 41.1443Z" fill="#1B1B1B"/>
<path d="M638.701 0.976417C640.248 -0.602584 641.586 0.444718 641.054 2.15262L630.853 35.2311C629.531 34.1515 627.872 33.4748 626.034 33.4748C625.148 33.4748 624.31 33.6521 623.52 33.9421C623.311 31.7347 623.118 29.2857 623.053 27.5616C623.005 26.0954 623.053 24.6131 623.762 23.3402C625.905 19.5377 627.614 16.5892 631.852 10.4665C635.075 5.81009 637.799 1.91093 638.717 0.976417" fill="#1B1B1B"/>
<path d="M635.623 91.4958L629.418 49.2012L654.655 71.9839C656.089 73.2729 657.717 72.4511 656.879 70.2276C656.379 68.9064 653.817 64.4756 650.739 59.223C646.678 52.3108 644.583 49.3139 641.843 45.4792C640.925 44.2063 639.49 43.4813 638.04 42.869C636.847 42.3695 635.3 41.7734 633.705 41.1934C633.673 45.3825 630.256 48.7983 626.05 48.7983C624.89 48.7983 623.794 48.5244 622.811 48.0572L616.429 91.4958H635.639H635.623Z" fill="#1B1B1B"/>
<path d="M583.474 44.9469C584.698 45.4303 589.356 46.4292 594.899 47.5732C602.2 49.0877 605.568 49.5067 609.919 50.0061C611.369 50.1673 612.755 49.6355 614.077 49.0072C615.721 48.2338 618.057 47.0093 620.088 45.9297C619.024 44.6085 618.363 42.9651 618.363 41.1444C618.363 40.3066 618.525 39.517 618.782 38.7598L583.635 42.3206" fill="#1B1B1B"/>
<path d="M344.853 72.3535C345.53 79.0562 342.129 87.7407 332.379 88.0791C326.61 88.3046 321.598 84.5183 319.536 79.6685C317.441 74.7542 318.198 67.1976 323.661 60.5271C324.032 62.2834 324.58 63.669 325.224 64.813C327.771 60.6238 331.155 56.6924 329.93 49.3613C339.019 57.7558 344.095 65.1191 344.837 72.3535H344.853Z" fill="white"/>
<text fill="#1B1B1B" xml:space="preserve" style="white-space: pre" font-family="Source Sans Pro" font-size="16" font-weight="600" letter-spacing="0em"><tspan x="10.8643" y="127.446">Geothermal</tspan></text>
<text fill="#1B1B1B" xml:space="preserve" style="white-space: pre" font-family="Source Sans Pro" font-size="16" font-weight="600" letter-spacing="0em"><tspan x="173.052" y="127.12">Solar</tspan></text>
<text fill="#1B1B1B" xml:space="preserve" style="white-space: pre" font-family="Source Sans Pro" font-size="16" font-weight="600" letter-spacing="0em"><tspan x="315.989" y="127.12">Gas</tspan></text>
<text fill="#1B1B1B" xml:space="preserve" style="white-space: pre" font-family="Source Sans Pro" font-size="16" font-weight="600" letter-spacing="0em"><tspan x="463.927" y="127.12">Oil</tspan></text>
<text fill="#1B1B1B" xml:space="preserve" style="white-space: pre" font-family="Source Sans Pro" font-size="16" font-weight="600" letter-spacing="0em"><tspan x="606.599" y="127.12">Wind</tspan></text>
<text fill="#1B1B1B" xml:space="preserve" style="white-space: pre" font-family="Source Sans Pro" font-size="16" font-weight="600" letter-spacing="0em"><tspan x="745.88" y="127.12">Coal</tspan></text>
<path d="M357.707 236.944C381.693 236.944 401.138 217.503 401.138 193.522C401.138 169.54 381.693 150.1 357.707 150.1C333.721 150.1 314.276 169.54 314.276 193.522C314.276 217.503 333.721 236.944 357.707 236.944Z" fill="#1B1B1B"/>
<path d="M206.114 162.711H199.608C199.417 162.711 199.262 162.866 199.262 163.057V234.574C199.262 234.765 199.417 234.92 199.608 234.92H206.114C206.305 234.92 206.46 234.765 206.46 234.574V163.057C206.46 162.866 206.305 162.711 206.114 162.711Z" fill="#1B1B1B"/>
<path d="M225.926 170.496C219.178 172.676 210.163 168.558 210.111 170.012C210.111 170.012 211.842 159.787 218.901 156.846C223.85 154.788 232.934 158.732 234.716 157.331C234.716 157.331 233.194 168.143 225.926 170.496Z" fill="#1B1B1B"/>
<path d="M225.926 188.092C219.178 190.271 210.163 186.154 210.111 187.607C210.111 187.607 211.842 177.383 218.901 174.442C223.85 172.383 232.934 176.328 234.716 174.927C234.716 174.927 233.194 185.739 225.926 188.092Z" fill="#1B1B1B"/>
<path d="M225.926 205.683C219.178 207.863 210.163 203.746 210.111 205.199C210.111 205.199 211.842 194.975 218.901 192.034C223.85 189.975 232.934 193.92 234.716 192.518C234.716 192.518 233.194 203.331 225.926 205.683Z" fill="#1B1B1B"/>
<path d="M179.814 170.496C186.562 172.676 195.577 168.558 195.629 170.012C195.629 170.012 193.899 159.787 186.839 156.846C181.89 154.788 172.806 158.732 171.024 157.331C171.024 157.331 172.547 168.143 179.814 170.496Z" fill="#1B1B1B"/>
<path d="M179.814 188.092C186.562 190.271 195.577 186.154 195.629 187.607C195.629 187.607 193.899 177.383 186.839 174.442C181.89 172.383 172.806 176.328 171.024 174.927C171.024 174.927 172.547 185.739 179.814 188.092Z" fill="#1B1B1B"/>
<path d="M179.814 205.683C186.562 207.863 195.577 203.746 195.629 205.199C195.629 205.199 193.899 194.975 186.839 192.034C181.89 189.975 172.806 193.92 171.024 192.518C171.024 192.518 172.547 203.331 179.814 205.683Z" fill="#1B1B1B"/>
<path d="M344.539 194.507L319.848 194.455C319.882 191.393 319.744 185.321 324.243 176.17C328.742 167.018 336.718 162.745 338.345 161.672L351.547 182.363C351.184 182.553 347.965 184.11 346.252 187.155C344.539 190.2 344.418 192.898 344.557 194.507H344.539ZM367.362 187.12C368.642 189.266 369.231 191.532 369.127 193.885L393.784 192.864C393.732 186.48 391.95 180.408 388.437 174.561C384.786 168.471 380.028 163.921 374.11 160.859L361.756 182.19C364.109 183.193 365.995 184.837 367.362 187.12ZM376.585 224.47L364.299 203.175C363.919 203.434 360.908 205.718 357.292 205.718C353.675 205.718 351.305 204.489 350.232 203.815L338.847 225.664C341.373 226.892 347.377 230.318 357.914 230.318C367.466 230.318 375.097 225.387 376.585 224.488V224.47ZM362.604 193.521C362.604 196.826 359.922 199.49 356.634 199.49C353.346 199.49 350.664 196.808 350.664 193.521C350.664 190.234 353.346 187.553 356.634 187.553C359.922 187.553 362.604 190.234 362.604 193.521Z" fill="white"/>
<path d="M621.233 191.758C621.233 172.365 636.858 156.553 656.203 156.241L660.667 148.249C659.387 148.128 658.072 148.059 656.757 148.059C632.671 148.059 613.066 167.659 613.066 191.74C613.066 211.808 626.684 228.762 645.164 233.848L646.755 225.821C632.013 221.496 621.233 207.864 621.233 191.74V191.758Z" fill="#1A1A1A"/>
<path d="M668.366 149.65L666.774 157.677C681.517 162.002 692.297 175.635 692.297 191.758C692.297 211.151 676.672 226.963 657.327 227.274L652.863 235.267C654.143 235.388 655.458 235.457 656.773 235.457C680.859 235.457 700.464 215.856 700.464 191.775C700.464 171.708 686.846 154.754 668.366 149.668V149.65Z" fill="#1A1A1A"/>
<path d="M677.866 183.886H658.227L665.805 145.758L635.646 199.629H655.285L647.724 237.758L677.866 183.886Z" fill="#1A1A1A"/>
<path d="M550.065 222.431L516.099 163.629C513.158 158.543 505.839 158.543 502.897 163.629L468.931 222.431C465.99 227.517 469.658 233.866 475.541 233.866H543.456C549.321 233.866 552.989 227.517 550.065 222.431ZM502.759 226.046L507.032 204.578H495.959L512.95 174.234L508.676 195.703H519.75L502.759 226.046Z" fill="#1B1B1B"/>
<path d="M74.4898 226.738C69.5238 226.738 66.8938 224.178 64.9731 222.292C63.2601 220.614 62.343 219.818 60.2839 219.818C58.2249 219.818 57.3252 220.614 55.5949 222.292C53.6742 224.161 51.0441 226.738 46.0782 226.738C41.1122 226.738 38.4821 224.178 36.5615 222.292C34.8484 220.614 33.9313 219.818 31.8723 219.818C29.8132 219.818 28.9135 220.614 27.1832 222.292C25.2626 224.161 22.6325 226.738 17.6665 226.738C12.7005 226.738 10.0704 224.178 8.1498 222.292C6.43679 220.614 5.51969 219.818 3.46062 219.818C1.55728 219.818 0 218.261 0 216.358C0 214.455 1.55728 212.898 3.46062 212.898C8.42661 212.898 11.0567 215.459 12.9773 217.344C14.6903 219.023 15.6074 219.818 17.6665 219.818C19.7256 219.818 20.6253 219.023 22.3556 217.344C24.2762 215.476 26.9063 212.898 31.8723 212.898C36.8383 212.898 39.4683 215.459 41.389 217.344C43.102 219.023 44.0191 219.818 46.0782 219.818C48.1372 219.818 49.0369 219.023 50.7672 217.344C52.6879 215.476 55.3179 212.898 60.2839 212.898C65.2499 212.898 67.88 215.459 69.8006 217.344C71.5136 219.023 72.4307 219.818 74.4898 219.818C76.5489 219.818 77.466 219.005 79.179 217.344C81.0996 215.476 83.7297 212.898 88.6957 212.898C90.599 212.898 92.1563 214.455 92.1563 216.358C92.1563 218.261 90.599 219.818 88.6957 219.818C86.6366 219.818 85.7195 220.614 84.0065 222.292C82.0859 224.161 79.4385 226.738 74.4898 226.738Z" fill="#1B1B1B"/>
<path d="M74.4898 203.764C69.5238 203.764 66.8938 201.203 64.9731 199.318C63.2601 197.64 62.343 196.844 60.2839 196.844C58.2249 196.844 57.3252 197.64 55.5949 199.318C53.6742 201.186 51.0441 203.764 46.0782 203.764C41.1122 203.764 38.4821 201.203 36.5615 199.318C34.8484 197.64 33.9313 196.844 31.8723 196.844C29.8132 196.844 28.9135 197.64 27.1832 199.318C25.2626 201.186 22.6325 203.764 17.6665 203.764C12.7005 203.764 10.0704 201.203 8.1498 199.318C6.43679 197.64 5.51969 196.844 3.46062 196.844C1.55728 196.844 0 195.287 0 193.384C0 191.481 1.55728 189.924 3.46062 189.924C8.42661 189.924 11.0567 192.484 12.9773 194.37C14.6903 196.048 15.6074 196.844 17.6665 196.844C19.7256 196.844 20.6253 196.048 22.3556 194.37C24.2762 192.502 26.9063 189.924 31.8723 189.924C36.8383 189.924 39.4683 192.484 41.389 194.37C43.102 196.048 44.0191 196.844 46.0782 196.844C48.1372 196.844 49.0369 196.048 50.7672 194.37C52.6879 192.502 55.3179 189.924 60.2839 189.924C65.2499 189.924 67.88 192.484 69.8006 194.37C71.5136 196.048 72.4307 196.844 74.4898 196.844C76.5489 196.844 77.466 196.031 79.179 194.37C81.0996 192.502 83.7297 189.924 88.6957 189.924C90.599 189.924 92.1563 191.481 92.1563 193.384C92.1563 195.287 90.599 196.844 88.6957 196.844C86.6366 196.844 85.7195 197.64 84.0065 199.318C82.0859 201.186 79.4385 203.764 74.4898 203.764Z" fill="#1B1B1B"/>
<path d="M74.4898 180.791C69.5238 180.791 66.8938 178.231 64.9731 176.345C63.2601 174.667 62.343 173.871 60.2839 173.871C58.2249 173.871 57.3252 174.667 55.5949 176.345C53.6742 178.213 51.0441 180.791 46.0782 180.791C41.1122 180.791 38.4821 178.231 36.5615 176.345C34.8484 174.667 33.9313 173.871 31.8723 173.871C29.8132 173.871 28.9135 174.667 27.1832 176.345C25.2626 178.213 22.6325 180.791 17.6665 180.791C12.7005 180.791 10.0704 178.231 8.1498 176.345C6.43679 174.667 5.51969 173.871 3.46062 173.871C1.55728 173.871 0 172.314 0 170.411C0 168.508 1.55728 166.951 3.46062 166.951C8.42661 166.951 11.0567 169.512 12.9773 171.397C14.6903 173.075 15.6074 173.871 17.6665 173.871C19.7256 173.871 20.6253 173.075 22.3556 171.397C24.2762 169.529 26.9063 166.951 31.8723 166.951C36.8383 166.951 39.4683 169.512 41.389 171.397C43.102 173.075 44.0191 173.871 46.0782 173.871C48.1372 173.871 49.0369 173.075 50.7672 171.397C52.6879 169.529 55.3179 166.951 60.2839 166.951C65.2499 166.951 67.88 169.512 69.8006 171.397C71.5136 173.075 72.4307 173.871 74.4898 173.871C76.5489 173.871 77.466 173.058 79.179 171.397C81.0996 169.529 83.7297 166.951 88.6957 166.951C90.599 166.951 92.1563 168.508 92.1563 170.411C92.1563 172.314 90.599 173.871 88.6957 173.871C86.6366 173.871 85.7195 174.667 84.0065 176.345C82.0859 178.213 79.4385 180.791 74.4898 180.791Z" fill="#1B1B1B"/>
<text fill="#1B1B1B" xml:space="preserve" style="white-space: pre" font-family="Source Sans Pro" font-size="16" font-weight="600" letter-spacing="0em"><tspan x="24.4688" y="268.604">Hydro</tspan></text>
<text fill="#1B1B1B" xml:space="preserve" style="white-space: pre" font-family="Source Sans Pro" font-size="16" font-weight="600" letter-spacing="0em"><tspan x="174.484" y="268.604">Biomass</tspan></text>
<text fill="#1B1B1B" xml:space="preserve" style="white-space: pre" font-family="Source Sans Pro" font-size="16" font-weight="600" letter-spacing="0em"><tspan x="328.367" y="268.604">Nuclear</tspan></text>
<text fill="#1B1B1B" xml:space="preserve" style="white-space: pre" font-family="Source Sans Pro" font-size="16" font-weight="600" letter-spacing="0em"><tspan x="451.438" y="268.604">Other Unknown</tspan></text>
<text fill="#1B1B1B" xml:space="preserve" style="white-space: pre" font-family="Source Sans Pro" font-size="16" font-weight="600" letter-spacing="0em"><tspan x="617.148" y="269.004">Other Fossil</tspan></text>
</svg>
