<svg width="801" height="283" viewBox="0 0 801 283" fill="none" xmlns="http://www.w3.org/2000/svg">
<path d="M73.7758 39.9592L70.9855 8.29492H56.6371L53.8469 39.9592H50.3378V21.5167H14.9159V39.9592H0V73.2123C0 82.2633 7.33975 89.6024 16.3915 89.6024H20.2316C20.4964 85.4316 21.8679 83.0009 23.0029 81.0148C24.1001 79.0949 24.8946 77.7047 24.8946 74.5174C24.8946 71.3302 24.1001 69.9399 23.0029 68.02C21.7733 65.8731 20.26 63.1872 20.1938 58.3448H15.1619L23.5799 46.135L31.9979 58.3448H27.2592C27.316 61.2862 28.0821 62.6575 29.1414 64.5112C30.3994 66.7149 31.96 69.4481 31.96 74.5174C31.96 79.5867 30.3994 82.32 29.1414 84.5236C28.224 86.1314 27.524 87.3798 27.316 89.6024H41.0118C41.2766 85.4316 42.6481 83.0009 43.7831 81.0148C44.8803 79.0949 45.6748 77.7047 45.6748 74.5174C45.6748 71.3302 44.8803 69.9399 43.7831 68.02C42.5535 65.8731 41.0401 63.1872 40.9739 58.3448H35.942L44.3601 46.135L52.7781 58.3448H48.0394C48.0961 61.2862 48.8623 62.6575 49.9216 64.5112C51.1796 66.7149 52.7402 69.4481 52.7402 74.5174C52.7402 79.5867 51.1796 82.32 49.9216 84.5236C49.0041 86.1314 48.3042 87.3798 48.0961 89.6024H61.7919C62.0568 85.4316 63.4283 83.0009 64.5633 81.0148C65.6604 79.0949 66.4549 77.7047 66.4549 74.5174C66.4549 71.3302 65.6604 69.9399 64.5633 68.02C63.3337 65.8731 61.8203 63.1872 61.7541 58.3448H56.7222L65.1402 46.135L73.5582 58.3448H68.8196C68.8763 61.2862 69.6424 62.6575 70.7018 64.5112C71.9598 66.7149 73.5204 69.4481 73.5204 74.5174C73.5204 79.5867 71.9598 82.32 70.7018 84.5236C69.7843 86.1314 69.0844 87.3798 68.8763 89.6024H74.1352L76.0269 89.1674C83.3004 87.4933 88.739 80.9865 88.739 73.2028V39.9497H73.7379L73.7758 39.9592ZM29.6049 36.1383H21.6031V28.1371H29.6049V36.1383ZM43.679 36.1383H35.6772V28.1371H43.679V36.1383Z" fill="#1B1B1B"/>
<path d="M214.432 23.6544C213.439 23.6544 212.635 22.8505 212.635 21.8575V15.1993C212.635 14.2062 213.439 13.4023 214.432 13.4023C215.425 13.4023 216.229 14.2062 216.229 15.1993V21.8575C216.229 22.8505 215.425 23.6544 214.432 23.6544ZM226.321 27.5226L231.032 22.8127C231.732 22.1129 231.732 20.9779 231.032 20.2781C230.332 19.5782 229.197 19.5782 228.497 20.2781L223.787 24.988C223.087 25.6878 223.087 26.8228 223.787 27.5226C224.136 27.8726 224.6 28.0523 225.054 28.0523C225.508 28.0523 225.971 27.882 226.321 27.5321V27.5226ZM237.917 36.8668C237.917 35.8737 237.113 35.0698 236.12 35.0698H229.452C228.459 35.0698 227.655 35.8737 227.655 36.8668C227.655 37.8598 228.459 38.6637 229.452 38.6637H236.12C237.113 38.6637 237.917 37.8598 237.917 36.8668ZM231.041 53.4461C231.741 52.7462 231.741 51.6113 231.041 50.9114L226.331 46.2015C225.631 45.5016 224.496 45.5016 223.796 46.2015C223.096 46.9014 223.096 48.0363 223.796 48.7362L228.506 53.4461C228.856 53.796 229.32 53.9662 229.774 53.9662C230.228 53.9662 230.691 53.7865 231.041 53.4366V53.4461ZM205.078 27.5226C205.778 26.8228 205.778 25.6878 205.078 24.988L200.367 20.2781C199.667 19.5782 198.532 19.5782 197.833 20.2781C197.133 20.9779 197.133 22.1129 197.833 22.8127L202.543 27.5226C202.893 27.8726 203.356 28.0428 203.81 28.0428C204.264 28.0428 204.728 27.8726 205.078 27.5132V27.5226ZM214.442 25.7635C209.353 25.7635 205.068 29.1872 203.754 33.8498H213.562C215.643 33.8498 217.393 35.3914 217.534 37.3586L218.272 47.2607C222.51 45.7002 225.546 41.6334 225.546 36.8573C225.546 30.7288 220.571 25.7635 214.432 25.7635H214.442Z" fill="#1B1B1B"/>
<path d="M166.099 43.0798H178.149L177.714 54.1452H165.324L166.099 43.0798ZM180.429 68.6911H193.283L193.094 56.8123H180.618L180.429 68.6911ZM164.529 68.6911H177.383L177.658 56.8123H165.182L164.529 68.6911ZM180.665 54.1358H193.056V43.0703H181.015L180.665 54.1358ZM207.962 43.0798H195.912L195.988 54.1452H208.379L207.953 43.0798H207.962ZM208.539 56.8028H196.064L196.338 68.6816H209.192L208.549 56.8028H208.539Z" fill="#1B1B1B"/>
<path d="M215.085 37.5475C215.038 36.8666 214.347 36.3086 213.562 36.3086H160.652C159.857 36.3086 159.176 36.8571 159.129 37.5475L155.591 75.2363C155.525 76.0686 156.187 76.7401 157.067 76.7401H178.916V80.9582H175.104V84.5048H198.627V80.9582H194.816V76.7401H216.447C217.327 76.7401 217.979 76.0686 217.923 75.2363L215.104 37.5475H215.085ZM161.304 71.5573L163.404 40.5929H210.677L212.418 71.5573H161.314H161.304Z" fill="#1B1B1B"/>
<path d="M332.114 85.2532H329.494L318.853 37.7758C319.931 37.3123 320.688 36.2436 320.688 34.9952C320.688 33.3212 319.336 31.9688 317.661 31.9688H299.388C297.714 31.9688 296.361 33.3212 296.361 34.9952C296.361 36.1774 297.051 37.1988 298.045 37.6906L289.343 85.2437H286.808C285.134 85.2437 283.781 86.5962 283.781 88.2702C283.781 89.9442 285.134 91.2966 286.808 91.2966H332.104C333.779 91.2966 335.131 89.9442 335.131 88.2702C335.131 86.5962 333.779 85.2437 332.104 85.2437L332.114 85.2532ZM318.825 65.2692L302.745 58.715L315.59 50.8462L318.825 65.2692ZM312.724 38.05L314.2 44.6136L301.525 52.3784L304.145 38.05H312.724ZM315.297 70.3668L296.323 80.7513L299.407 63.8883L315.297 70.3668ZM320.83 74.235L323.299 85.2532H300.702L320.83 74.235Z" fill="#1B1B1B"/>
<path d="M317.51 17.0906C318.002 22.0086 315.505 28.3925 308.354 28.6384C304.117 28.7897 300.447 26.0186 298.924 22.4625C297.382 18.8403 297.941 13.2981 301.96 8.399C302.235 9.6947 302.622 10.7161 303.105 11.5484C304.968 8.47467 307.465 5.59008 306.567 0.199219C313.254 6.37507 316.971 11.7754 317.51 17.0811V17.0906ZM308.354 27.6548C311.958 27.5318 313.216 24.3162 312.97 21.8383C312.705 19.1713 310.832 16.4475 307.456 13.3359C307.91 16.0503 306.652 17.5067 305.715 19.0483C305.479 18.6322 305.28 18.112 305.138 17.4594C303.114 19.9184 302.831 22.7179 303.606 24.5432C304.372 26.3402 306.226 27.7305 308.354 27.6548Z" fill="#1B1B1B"/>
<path d="M312.97 21.8384C313.216 24.3163 311.958 27.5319 308.354 27.6548C306.226 27.7399 304.372 26.3402 303.606 24.5433C302.831 22.7179 303.114 19.9185 305.139 17.4595C305.271 18.1026 305.479 18.6228 305.715 19.0484C306.652 17.5068 307.91 16.0503 307.456 13.3359C310.832 16.4475 312.705 19.1713 312.97 21.8384Z" fill="white"/>
<path d="M465.033 82.4156L467.596 72.835L483.098 82.4156H492.481C492.481 82.4156 482.881 46.59 481.897 42.9393C481.188 40.3007 478.823 38.2578 475.929 38.2578C473.035 38.2578 470.585 40.2817 469.942 43.0055C469.913 43.0623 459.386 82.4156 459.386 82.4156H465.023H465.033ZM481.481 62.3937L485.529 77.5165L471.654 68.9479L481.491 62.3937H481.481ZM475.929 42.457C477.092 42.457 478.038 43.4028 478.038 44.5661C478.038 45.7294 477.092 46.6751 475.929 46.6751C474.766 46.6751 473.82 45.7294 473.82 44.5661C473.82 43.4028 474.766 42.457 475.929 42.457ZM473.678 50.1083C474.378 50.3825 475.135 50.5433 475.938 50.5433C476.742 50.5433 477.499 50.3825 478.208 50.0988L480.006 56.8232L470.122 63.4057L473.678 50.0988V50.1083Z" fill="#1B1B1B"/>
<path d="M437.982 53.8429C438.2 53.8713 438.474 53.8997 438.758 53.9375V77.4303H442.248V54.3726C442.475 54.4009 442.673 54.4293 442.825 54.4482C443.023 54.4766 443.213 54.3726 443.317 54.1929L454.723 33.9346L467.805 40.4887C469.289 37.4055 472.392 35.3721 475.939 35.3721C480.015 35.3721 483.619 38.1811 484.707 42.1911C484.953 43.1085 485.757 46.0782 486.807 50.0031L506.225 59.7256V68.2753H509.715V44.9149L460.181 20.2493L458.119 8.98528C458.081 8.87178 458.015 8.78666 457.911 8.73937C457.277 8.42727 454.78 7.20723 453.787 6.78164C453.683 6.73435 453.588 6.75327 453.494 6.82893C449.956 9.67569 445.142 15.3786 441.936 22.1125C436.251 34.067 436.875 44.8298 437.556 53.3984C437.575 53.6349 437.755 53.824 437.992 53.8524L437.982 53.8429Z" fill="#1B1B1B"/>
<path d="M518.312 85.9049H515.049V74.2341C515.049 73.6288 514.557 73.1465 513.962 73.1465H501.864C501.259 73.1465 500.776 73.6383 500.776 74.2341V85.9049H443.676V82.8784C443.676 82.5001 443.373 82.1975 442.995 82.1975H437.802C437.424 82.1975 437.121 82.5001 437.121 82.8784V85.9049H433.603C433.338 85.9049 433.111 86.1224 433.111 86.3967V89.773C433.111 90.0379 433.328 90.2648 433.603 90.2648H518.312C518.577 90.2648 518.804 90.0473 518.804 89.773V86.3967C518.804 86.1318 518.587 85.9049 518.312 85.9049Z" fill="#1B1B1B"/>
<path d="M421.666 87.1256H421.231H416.473C415.896 87.1256 415.433 86.6621 415.433 86.0852C415.433 85.5083 415.896 85.0449 416.473 85.0449H421.231V74.3388H421.666C422.782 74.3388 423.681 73.4403 423.681 72.3243C423.681 71.2745 422.877 70.4233 421.855 70.3288H416.473C415.896 70.3288 415.433 69.8653 415.433 69.2884C415.433 68.7115 415.896 68.2481 416.473 68.2481H421.231V57.5231H421.666C422.782 57.5231 423.681 56.6246 423.681 55.5086C423.681 54.3926 422.782 53.4941 421.666 53.4941H390.444C389.328 53.4941 388.429 54.3926 388.429 55.5086C388.429 56.6246 389.328 57.5231 390.444 57.5231H390.879V68.2481H395.599C396.176 68.2481 396.639 68.7115 396.639 69.2884C396.639 69.8653 396.176 70.3288 395.599 70.3288H390.255C389.233 70.4233 388.429 71.2745 388.429 72.3243C388.429 73.4403 389.328 74.3388 390.444 74.3388H390.879V85.0449H395.599C396.176 85.0449 396.639 85.5083 396.639 86.0852C396.639 86.6621 396.176 87.1256 395.599 87.1256H390.879H390.444C389.328 87.1256 388.429 88.024 388.429 89.14C388.429 90.256 389.328 91.1545 390.444 91.1545H421.666C422.782 91.1545 423.681 90.256 423.681 89.14C423.681 88.024 422.782 87.1256 421.666 87.1256Z" fill="#1B1B1B"/>
<path d="M409.985 69.6075C411.385 71.7354 412.7 73.7404 412.7 76.1332C412.7 79.7933 409.72 82.7631 406.06 82.7631C402.399 82.7631 399.42 79.7933 399.42 76.1332C399.42 73.7877 400.631 71.9624 402.049 69.8533C403.515 67.6686 405.18 65.7866 405.719 62.1737C405.738 62.0035 405.88 61.8711 406.05 61.8711C406.211 61.8711 406.362 61.994 406.381 62.1643C406.911 65.5312 408.538 67.4322 409.976 69.6075H409.985ZM406.987 79.8123C406.987 79.2921 406.571 78.8665 406.05 78.8665C404.537 78.8665 403.307 77.6465 403.307 76.1332C403.307 75.6131 402.891 75.1875 402.371 75.1875C401.851 75.1875 401.425 75.6131 401.425 76.1332C401.425 78.6868 403.506 80.7486 406.05 80.7486C406.571 80.7486 406.987 80.3324 406.987 79.8123Z" fill="white"/>
<path d="M406.06 78.8685C406.58 78.8685 406.996 79.2941 406.996 79.8143C406.996 80.3344 406.58 80.7506 406.06 80.7506C403.506 80.7506 401.435 78.6888 401.435 76.1352C401.435 75.615 401.86 75.1895 402.38 75.1895C402.901 75.1895 403.317 75.615 403.317 76.1352C403.317 77.6484 404.556 78.8685 406.06 78.8685Z" fill="#1B1B1B"/>
<path d="M800.476 85.603L787.906 62.9141C787.745 62.6303 787.537 62.3844 787.281 62.1858L780.745 57.1544L769.178 35.6382C769.036 35.3639 768.837 35.1275 768.601 34.9383L750.176 19.702C749.703 19.3143 749.107 19.1251 748.502 19.1629L739.469 19.7966C738.892 19.8344 738.343 20.0898 737.946 20.5059L727.636 31.0607C727.532 31.1742 727.428 31.2971 727.343 31.4201L714.612 50.9501H713.676L711.595 49.3045C711.179 48.9735 710.659 48.7938 710.129 48.7938H707.84C706.979 48.7938 706.194 49.2572 705.778 50.0044L685.915 85.5935C685.509 86.3218 685.518 87.2203 685.944 87.939C686.369 88.6578 687.145 89.1023 687.987 89.1023H725.395C725.906 88.3552 726.747 87.8539 727.712 87.8066L726.889 84.3735H692.007L709.23 53.5131H709.306L711.387 55.1588C711.803 55.4898 712.323 55.6695 712.853 55.6695H715.889C716.684 55.6695 717.431 55.2628 717.866 54.5913L731.164 34.1817L740.689 24.4403L747.887 23.9391L765.224 38.2769L776.811 59.8309C776.972 60.1241 777.189 60.3794 777.454 60.5875L783.999 65.6284L794.385 84.3735H765.99L765.158 87.8539C765.953 87.9958 766.624 88.4687 767.069 89.1023H798.395C799.237 89.1023 800.012 88.6578 800.428 87.939C800.845 87.2203 800.864 86.3218 800.457 85.5935L800.476 85.603Z" fill="#1B1B1B"/>
<path d="M763.352 66.9422L759.644 65.325L757.554 61.2487C757.431 61.0123 757.223 60.8231 756.967 60.738L747.736 57.4089C747.348 57.2671 746.932 57.3616 746.639 57.6454L742.6 61.5797L741.768 60.9366C741.531 60.7569 741.238 60.6718 740.935 60.7286L734.872 61.7594C734.608 61.8067 734.371 61.9486 734.201 62.1661L730.569 66.9612C730.219 67.4246 730.314 68.1244 730.777 68.446C731.231 68.7676 731.893 68.7203 732.262 68.2379C732.631 67.7651 735.639 63.7739 735.639 63.7739L740.831 62.8944L745.513 66.5545C745.977 66.9139 746.639 66.8382 746.998 66.3748C747.358 65.9114 747.272 65.2493 746.818 64.8899L744.274 62.9038L747.641 59.622L755.861 62.5823L757.932 66.6207C758.046 66.8382 758.225 67.0084 758.452 67.1125C758.452 67.1125 761.82 68.6068 762.501 68.8811C763.182 69.1553 763.655 68.777 763.891 68.3325C764.127 67.888 763.882 67.1692 763.342 66.9422H763.352Z" fill="#1B1B1B"/>
<path d="M767.647 71.1133H725.283C724.677 71.1133 724.186 71.6051 724.186 72.2104V75.7097C724.186 76.315 724.677 76.8068 725.283 76.8068H734.666C735.167 76.8068 735.564 77.2135 735.564 77.7053C735.564 78.1971 735.157 78.6037 734.666 78.6037H727.449L730.097 89.6976H727.846C727.241 89.6976 726.749 90.1894 726.749 90.7947V96.0437C726.749 96.649 727.241 97.1408 727.846 97.1408H730.75C730.806 93.1685 734.06 89.9435 738.061 89.9435C742.431 89.9435 745.372 93.5752 745.372 97.1408H747.69C747.747 93.1685 751.01 89.9435 755.001 89.9435C759.57 89.9435 762.312 93.7738 762.312 97.1408H764.63C765.235 97.1408 765.727 96.649 765.727 96.0437V90.7947C765.727 90.1894 765.235 89.6976 764.63 89.6976H762.785L765.859 76.8068H767.647C768.252 76.8068 768.744 76.315 768.744 75.7097V72.2104C768.744 71.6051 768.252 71.1133 767.647 71.1133Z" fill="#1B1B1B"/>
<path d="M738.08 91.6465C734.977 91.6465 732.452 94.1433 732.442 97.2454C732.442 100.348 734.949 102.863 738.051 102.873C741.154 102.882 743.679 100.376 743.688 97.2738C743.698 94.1717 741.191 91.6559 738.08 91.6465ZM738.061 99.3734C736.888 99.3734 735.942 98.4182 735.942 97.2549C735.942 96.0821 736.897 95.1364 738.07 95.1458C739.243 95.1458 740.189 96.101 740.189 97.2738C740.189 98.4465 739.234 99.3828 738.061 99.3828V99.3734ZM755.02 91.6465C751.908 91.6465 749.392 94.1433 749.382 97.2454C749.382 100.348 751.889 102.863 754.991 102.873C758.094 102.882 760.619 100.376 760.628 97.2738C760.638 94.1717 758.131 91.6559 755.02 91.6465ZM755.001 99.3734C753.828 99.3734 752.882 98.4182 752.882 97.2549C752.882 96.0821 753.837 95.1364 755.01 95.1458C756.183 95.1458 757.129 96.101 757.129 97.2738C757.129 98.4465 756.174 99.3828 755.001 99.3828V99.3734Z" fill="#1B1B1B"/>
<path d="M605.765 49.7106C605.765 51.6399 604.204 53.2004 602.275 53.2004C600.345 53.2004 598.785 51.6399 598.785 49.7106C598.785 47.7812 600.345 46.2207 602.275 46.2207C604.204 46.2207 605.765 47.7812 605.765 49.7106Z" fill="#1B1B1B"/>
<path d="M612.519 17.2138C613.767 15.9371 614.855 16.7788 614.42 18.1596L606.163 44.9248C605.094 44.0547 603.751 43.5061 602.266 43.5061C601.547 43.5061 600.866 43.648 600.232 43.875C600.062 42.097 599.901 40.1108 599.844 38.7111C599.797 37.5289 599.844 36.3278 600.412 35.2969C602.152 32.2137 603.533 29.8398 606.957 24.884C609.558 21.1104 611.771 17.961 612.509 17.2044" fill="#1B1B1B"/>
<path d="M610.021 90.4447L604.999 56.2269L625.41 74.6693C626.564 75.7191 627.888 75.0476 627.207 73.2412C626.801 72.1725 624.729 68.588 622.232 64.3321C618.95 58.7426 617.257 56.312 615.034 53.2193C614.297 52.1884 613.133 51.6021 611.96 51.1103C610.996 50.7036 609.738 50.2307 608.451 49.7578C608.432 53.1531 605.661 55.9053 602.256 55.9053C601.32 55.9053 600.44 55.6783 599.636 55.3095L594.472 90.4541H610.002L610.021 90.4447Z" fill="#1B1B1B"/>
<path d="M567.846 52.784C568.839 53.1718 572.604 53.9757 577.087 54.9026C582.989 56.1226 585.723 56.4725 589.241 56.8697C590.414 57.0022 591.54 56.5671 592.608 56.0659C593.942 55.4416 595.834 54.4486 597.47 53.569C596.609 52.5098 596.07 51.1762 596.07 49.7008C596.07 49.0293 596.203 48.3862 596.411 47.7715L567.979 50.6466" fill="#1B1B1B"/>
<path d="M648.338 65.6084C648.338 66.7812 647.383 67.7364 646.21 67.7364C645.037 67.7364 644.082 66.7812 644.082 65.6084C644.082 64.4357 645.037 63.4805 646.21 63.4805C647.383 63.4805 648.338 64.4357 648.338 65.6084Z" fill="#1B1B1B"/>
<path d="M652.461 45.795C653.227 45.01 653.879 45.5302 653.624 46.3719L648.592 62.6958C647.94 62.1662 647.117 61.8257 646.218 61.8257C645.783 61.8257 645.367 61.9109 644.979 62.0527C644.875 60.9651 644.78 59.7545 644.743 58.9033C644.714 58.1845 644.743 57.4468 645.093 56.8226C646.152 54.9406 646.994 53.4935 649.084 50.4766C650.673 48.1783 652.016 46.2584 652.47 45.795" fill="#1B1B1B"/>
<path d="M650.939 90.4441L647.875 69.5806L660.322 80.8257C661.031 81.4594 661.835 81.0527 661.419 79.9556C661.173 79.303 659.906 77.1183 658.383 74.5269C656.378 71.1127 655.347 69.6373 653.994 67.7458C653.54 67.1121 652.84 66.7622 652.122 66.4595C651.535 66.2136 650.769 65.9204 649.984 65.6367C649.965 67.7079 648.281 69.3819 646.21 69.3819C645.643 69.3819 645.103 69.2401 644.612 69.0131L641.462 90.4347H650.93L650.939 90.4441Z" fill="#1B1B1B"/>
<path d="M625.221 67.4809C625.827 67.7174 628.115 68.2091 630.858 68.7766C634.462 69.5238 636.127 69.7318 638.264 69.9777C638.983 70.0629 639.664 69.798 640.317 69.4859C641.13 69.1076 642.284 68.5023 643.277 67.9632C642.757 67.3107 642.426 66.4973 642.426 65.6083C642.426 65.1922 642.511 64.8044 642.634 64.4355L625.297 66.1852" fill="#1B1B1B"/>
<path d="M561.765 65.7591C561.765 66.9224 560.819 67.8777 559.646 67.8777C558.473 67.8777 557.527 66.9319 557.527 65.7591C557.527 64.5864 558.473 63.6406 559.646 63.6406C560.819 63.6406 561.765 64.5864 561.765 65.7591Z" fill="#1B1B1B"/>
<path d="M565.86 46.0779C566.617 45.3024 567.269 45.8131 567.014 46.6548L562.01 62.8747C561.367 62.3451 560.544 62.0141 559.646 62.0141C559.211 62.0141 558.804 62.0992 558.407 62.2411C558.303 61.1629 558.208 59.9618 558.17 59.1106C558.142 58.3918 558.17 57.6636 558.52 57.0394C559.57 55.1762 560.412 53.7292 562.483 50.7311C564.063 48.4424 565.397 46.5414 565.851 46.0779" fill="#1B1B1B"/>
<path d="M564.347 90.4452L561.301 69.714L573.663 80.8835C574.363 81.5171 575.167 81.1105 574.751 80.0228C574.505 79.3702 573.247 77.2044 571.734 74.6225C569.747 71.2367 568.716 69.7613 567.373 67.8887C566.929 67.2645 566.219 66.9051 565.51 66.6119C564.923 66.366 564.167 66.0728 563.391 65.7891C563.372 67.8414 561.698 69.5154 559.636 69.5154C559.069 69.5154 558.53 69.383 558.047 69.156L554.917 90.4452H564.328H564.347Z" fill="#1B1B1B"/>
<path d="M538.79 67.6222C539.395 67.8586 541.675 68.3409 544.389 68.9084C547.965 69.6461 549.62 69.8636 551.748 70.1001C552.457 70.1852 553.139 69.9204 553.791 69.6177C554.605 69.2394 555.74 68.6436 556.733 68.1045C556.212 67.4614 555.891 66.648 555.891 65.759C555.891 65.3523 555.976 64.9646 556.099 64.5957L538.875 66.3359" fill="#1B1B1B"/>
<text fill="#1B1B1B" xml:space="preserve" style="white-space: pre" font-family="Source Sans Pro" font-size="16" font-weight="600" letter-spacing="0em"><tspan x="5.28125" y="132.887">Geothermal</tspan></text>
<text fill="#1B1B1B" xml:space="preserve" style="white-space: pre" font-family="Source Sans Pro" font-size="16" font-weight="600" letter-spacing="0em"><tspan x="173.469" y="132.561">Solar</tspan></text>
<text fill="#1B1B1B" xml:space="preserve" style="white-space: pre" font-family="Source Sans Pro" font-size="16" font-weight="600" letter-spacing="0em"><tspan x="294.406" y="132.561">Gas</tspan></text>
<text fill="#1B1B1B" xml:space="preserve" style="white-space: pre" font-family="Source Sans Pro" font-size="16" font-weight="600" letter-spacing="0em"><tspan x="432.344" y="132.561">Oil</tspan></text>
<text fill="#1B1B1B" xml:space="preserve" style="white-space: pre" font-family="Source Sans Pro" font-size="16" font-weight="600" letter-spacing="0em"><tspan x="585.016" y="132.561">Wind</tspan></text>
<text fill="#1B1B1B" xml:space="preserve" style="white-space: pre" font-family="Source Sans Pro" font-size="16" font-weight="600" letter-spacing="0em"><tspan x="732.297" y="132.561">Coal</tspan></text>
<path d="M498.27 184.738H473.413V191.283H417.533C416.492 191.283 415.641 192.134 415.641 193.175V231.781H413.806C412.444 231.781 411.196 232.698 410.94 234.032C410.6 235.829 411.962 237.399 413.702 237.399H502.895C504.418 237.399 505.78 236.254 505.865 234.741C505.95 233.114 504.664 231.781 503.056 231.781H498.27V191.283" fill="#1B1B1B"/>
<path d="M349.016 238.79C345.686 232.624 343.161 227.564 340.986 222.608C337.543 214.739 334.507 202.217 334.507 190.178C334.507 183.491 334.639 181.505 334.639 176.615C334.639 175.887 334.119 175.301 333.39 175.301H291.064C290.336 175.301 289.815 175.897 289.815 176.615C289.815 181.373 289.948 183.444 289.948 190.178C289.948 202.227 286.912 214.749 283.469 222.608C281.303 227.564 278.768 232.624 275.439 238.79C274.767 240.029 275.675 241.533 277.084 241.533H347.361C348.77 241.533 349.678 240.029 349.006 238.79H349.016ZM312.62 226.287C304.722 226.287 298.319 219.903 298.319 212.025C298.319 204.147 304.722 197.763 312.62 197.763C320.518 197.763 326.921 204.147 326.921 212.025C326.921 219.903 320.518 226.287 312.62 226.287Z" fill="#1B1B1B"/>
<path d="M308.836 212.326L301.137 212.308C301.146 211.352 301.108 209.461 302.508 206.605C303.908 203.748 306.396 202.424 306.897 202.084L311.011 208.534C310.898 208.591 309.895 209.073 309.356 210.028C308.817 210.983 308.789 211.816 308.826 212.317L308.836 212.326ZM315.949 210.019C316.346 210.69 316.526 211.39 316.497 212.128L324.177 211.806C324.159 209.82 323.6 207.919 322.513 206.103C321.378 204.202 319.893 202.793 318.048 201.838L314.199 208.487C314.937 208.799 315.514 209.309 315.949 210.019ZM318.824 221.661L315.003 215.022C314.88 215.107 313.943 215.816 312.818 215.816C311.692 215.816 310.955 215.438 310.614 215.22L307.067 222.03C307.852 222.418 309.725 223.477 313.007 223.477C315.987 223.477 318.361 221.945 318.824 221.661ZM314.473 212.014C314.473 213.045 313.641 213.877 312.61 213.877C311.579 213.877 310.747 213.045 310.747 212.014C310.747 210.983 311.579 210.151 312.61 210.151C313.641 210.151 314.473 210.983 314.473 212.014Z" fill="#1B1B1B"/>
<path d="M293.664 171.829C293.844 170.543 294.27 169.304 294.951 168.178C296.256 166.031 298.441 164.414 301.221 163.96C301.619 159.316 304.863 155.401 309.412 154.427C311.332 154.011 313.338 154.181 315.182 154.881C316.894 153.169 319.06 151.977 321.406 151.476C328.367 149.982 335.31 154.691 336.88 161.964C337.655 165.568 336.974 169.209 335.12 172.15C334.591 171.942 334.014 171.819 333.399 171.819H330.136C332.557 169.606 333.617 166.192 332.898 162.816C331.801 157.737 327.034 154.446 322.266 155.458C320.29 155.883 318.587 156.971 317.32 158.616L316.232 160.035L314.681 159.137C313.319 158.352 311.758 158.096 310.273 158.408C307.067 159.089 304.939 162.239 305.307 165.71L305.582 168.225C305.582 168.225 304.352 168.102 303.066 167.961C300.115 167.63 298.195 169.994 297.835 171.819H293.674L293.664 171.829Z" fill="#1B1B1B"/>
<path d="M363.648 236.198H351.56C348.41 230.315 346.102 225.653 344.163 221.217C341.468 215.06 338.346 203.976 338.006 192.258H354.378C354.861 192.258 355.201 192.655 355.201 193.128C355.201 196.372 355.116 197.687 355.116 202.122C355.116 210.114 357.131 218.418 359.41 223.638C360.848 226.93 362.532 230.278 364.735 234.373C365.18 235.196 364.575 236.189 363.638 236.189L363.648 236.198Z" fill="#1B1B1B"/>
<path d="M338.082 180.444L338.119 180.321C338.488 179.044 339.245 178.004 340.314 177.295C342.924 175.573 346.556 176.434 348.42 179.234C349.706 181.163 349.857 183.565 348.807 185.504L348.316 186.696L348.997 187.717C349.507 188.493 349.782 189.353 349.838 190.233H353.915C353.868 188.909 353.546 187.594 352.903 186.346C354.085 183.31 353.707 179.81 351.815 176.964C348.713 172.301 342.536 170.92 338.063 173.89C337.873 174.013 337.703 174.164 337.523 174.306C337.892 174.987 338.119 175.772 338.119 176.614C338.119 178.08 338.11 179.29 338.091 180.444H338.082Z" fill="#1B1B1B"/>
<path d="M498.212 158.702C498.212 157.463 497.162 156.461 495.923 156.461H475.663C474.424 156.461 473.412 157.463 473.412 158.712V165.89H498.212V158.702Z" fill="#1B1B1B"/>
<path d="M498.212 171.508H473.412V179.471H498.212V171.508Z" fill="#1B1B1B"/>
<path d="M460.937 224.187L447.478 200.874C446.314 198.86 443.411 198.86 442.247 200.874L428.788 224.187C427.625 226.202 429.081 228.717 431.408 228.717H458.336C460.663 228.717 462.119 226.202 460.956 224.187H460.937ZM442.191 225.615L443.884 217.103H439.495L446.229 205.073L444.536 213.585H448.925L442.191 225.615Z" fill="white"/>
<path d="M189.604 179.773H184.714C184.573 179.773 184.459 179.888 184.459 180.029V233.729C184.459 233.87 184.573 233.985 184.714 233.985H189.604C189.745 233.985 189.86 233.87 189.86 233.729V180.029C189.86 179.888 189.745 179.773 189.604 179.773Z" fill="#1B1B1B"/>
<path d="M204.462 185.628C199.402 187.264 192.629 184.172 192.582 185.269C192.582 185.269 193.878 177.589 199.184 175.385C202.901 173.844 209.721 176.795 211.064 175.745C211.064 175.745 209.919 183.86 204.462 185.628Z" fill="#1B1B1B"/>
<path d="M204.462 198.831C199.402 200.467 192.629 197.375 192.582 198.472C192.582 198.472 193.878 190.792 199.184 188.589C202.901 187.047 209.721 189.998 211.064 188.948C211.064 188.948 209.919 197.063 204.462 198.831Z" fill="#1B1B1B"/>
<path d="M204.462 212.042C199.402 213.678 192.629 210.586 192.582 211.683C192.582 211.683 193.878 204.003 199.184 201.8C202.901 200.258 209.721 203.209 211.064 202.159C211.064 202.159 209.919 210.274 204.462 212.042Z" fill="#1B1B1B"/>
<path d="M169.854 185.628C174.914 187.264 181.686 184.172 181.734 185.269C181.734 185.269 180.438 177.589 175.132 175.385C171.415 173.844 164.595 176.795 163.252 175.745C163.252 175.745 164.397 183.86 169.854 185.628Z" fill="#1B1B1B"/>
<path d="M169.854 198.831C174.914 200.467 181.686 197.375 181.734 198.472C181.734 198.472 180.438 190.792 175.132 188.589C171.415 187.047 164.595 189.998 163.252 188.948C163.252 188.948 164.397 197.063 169.854 198.831Z" fill="#1B1B1B"/>
<path d="M169.854 212.042C174.914 213.678 181.686 210.586 181.734 211.683C181.734 211.683 180.438 204.003 175.132 201.8C171.415 200.258 164.595 203.209 163.252 202.159C163.252 202.159 164.397 210.274 169.854 212.042Z" fill="#1B1B1B"/>
<path d="M163.707 197.961C163.934 205.452 157.89 203.475 153.189 210.691C149.15 216.895 151.714 221.019 153.009 222.513C159.602 215.893 163.101 207.504 163.764 205.792C163.801 205.688 163.849 205.584 163.887 205.47C163.887 205.47 163.849 205.584 163.764 205.792C160.614 214.096 156.944 220.347 154.91 223.506C157.199 223.932 162.089 223.79 165.75 216.195C170.072 207.22 163.669 196.94 163.707 197.961Z" fill="#1B1B1B"/>
<path d="M140.703 200.456C140.703 200.456 140.741 200.551 140.798 200.73C143.342 207.937 144.392 214.085 144.808 217.291C146.548 216.307 149.689 213.489 147.882 206.471C145.744 198.167 135.822 194.961 136.418 195.623C140.722 200.428 135.662 202.471 136.57 209.829C137.355 216.146 141.327 217.433 143.011 217.697C143.673 209.687 141.318 202.234 140.807 200.73C140.779 200.636 140.741 200.541 140.712 200.456H140.703Z" fill="#1B1B1B"/>
<path d="M153.406 223.477C153.274 223.656 151.269 226.39 150.493 231.61C148.611 230.154 145.281 225.945 144.231 218.738L143.541 218.814C144.042 227.033 148.119 232.376 149.557 233.984H152.167C151.382 228.707 153.851 223.968 153.879 223.921L153.416 223.477H153.406Z" fill="#1B1B1B"/>
<path d="M220.504 207.503C221.204 207.796 224.505 208.875 226.671 204.411C228.941 199.739 231.627 199.72 231.627 199.72C231.627 199.72 227.607 197.866 223.672 201.091C221.582 202.803 220.787 204.486 220.494 205.697" fill="#1B1B1B"/>
<path d="M220.542 218.624C221.459 219.003 225.819 220.44 228.685 214.539C231.674 208.372 235.231 208.344 235.231 208.344C235.231 208.344 229.924 205.894 224.732 210.15C221.989 212.401 220.929 214.614 220.532 216.213" fill="#1B1B1B"/>
<path d="M220.59 230.363C221.696 230.817 226.804 232.472 230.161 225.549C233.68 218.295 237.861 218.258 237.861 218.258C237.861 218.258 231.618 215.373 225.508 220.386C222.301 223.015 221.053 225.597 220.58 227.469" fill="#1B1B1B"/>
<path d="M220.192 205.65C219.861 204.458 219.038 202.851 217.052 201.224C213.117 197.999 209.098 199.852 209.098 199.852C209.098 199.852 211.793 199.871 214.054 204.543C216.144 208.866 219.303 207.995 220.145 207.674" fill="#1B1B1B"/>
<path d="M219.719 226.286C219.038 224.602 217.732 222.578 215.226 220.516C209.116 215.504 202.873 218.388 202.873 218.388C202.873 218.388 207.054 218.426 210.572 225.68C213.542 231.818 217.893 231.213 219.615 230.683L219.719 226.286Z" fill="#1B1B1B"/>
<path d="M212.049 214.672C214.669 220.091 218.556 219.325 219.89 218.871L219.966 215.589C219.445 214.086 218.329 212.203 215.993 210.293C210.8 206.037 205.494 208.487 205.494 208.487C205.494 208.487 209.051 208.515 212.039 214.681L212.049 214.672Z" fill="#1B1B1B"/>
<path d="M219.635 233.993H221.356L220.59 199H219.635V233.993Z" fill="#1B1B1B"/>
<path d="M21.5556 172.151H22.4541V188.182L12.3809 216.763C13.147 217.226 13.8753 217.444 15.0765 217.444C16.5048 217.444 17.2614 217.132 18.2167 216.47C20.6664 209.736 24.743 198.519 26.228 194.424C27.5711 190.735 30.5978 187.993 35.2135 187.841V178.488H28.8291V174.79H38.6564V187.822C38.6564 187.822 33.9272 201.555 30.3046 211.788C32.3949 211.845 34.1163 212.251 35.5635 212.809C37.8903 206.066 40.6994 197.677 41.8912 194.433C43.2437 190.745 46.1286 188.002 50.8767 187.841V178.488H44.4922V174.79H54.3196V187.822C54.3196 187.822 47.7365 206.397 43.7639 217.415C44.0004 217.434 44.2463 217.453 44.5206 217.453C46.4312 217.453 47.1406 216.905 48.7107 215.694C49.2593 215.268 49.893 214.786 50.6308 214.304C53.2791 207.078 56.5896 198.018 57.8665 194.433C59.1907 190.735 62.066 187.993 66.852 187.841V178.488H60.4676V174.79H70.2948V187.822L61.5931 211.939C65.6129 212.488 68.0721 214.379 69.7841 215.694C71.3447 216.895 72.0636 217.453 73.9742 217.453C75.5443 217.453 76.3199 217.075 77.4076 216.271V172.151H77.89C78.3156 172.151 78.6561 171.811 78.6561 171.385V168.737C78.6561 168.311 78.3156 167.971 77.89 167.971H21.5461C21.1205 167.971 20.78 168.311 20.78 168.737V171.385C20.78 171.811 21.1205 172.151 21.5461 172.151H21.5556Z" fill="#1B1B1B"/>
<path d="M73.9835 245.798C69.5002 245.798 67.0977 243.954 65.1777 242.469C63.4752 241.154 62.1321 240.123 59.2567 240.123C56.3813 240.123 55.0382 241.154 53.3357 242.469C51.4062 243.954 49.0132 245.798 44.5299 245.798C40.0466 245.798 37.6442 243.954 35.7241 242.469C34.0216 241.164 32.6785 240.123 29.8031 240.123C26.9278 240.123 25.5847 241.154 23.8822 242.469C21.9621 243.954 19.5597 245.798 15.0764 245.798C10.5931 245.798 8.1906 243.954 6.27054 242.469C4.92744 241.429 3.80191 240.568 1.97643 240.256C1.04951 240.095 0.349609 239.329 0.349609 238.383V237.428C0.349609 236.284 1.36162 235.376 2.49663 235.546C5.64629 236.019 7.56639 237.494 9.15541 238.724C10.8579 240.038 12.201 241.069 15.0764 241.069C17.9518 241.069 19.2948 240.038 20.9973 238.724C22.9174 237.239 25.3198 235.395 29.8031 235.395C34.2864 235.395 36.6889 237.239 38.6089 238.724C40.3114 240.038 41.6545 241.069 44.5299 241.069C47.4053 241.069 48.7484 240.038 50.4509 238.724C52.3804 237.239 54.7734 235.395 59.2567 235.395C63.74 235.395 66.1424 237.239 68.0625 238.724C69.765 240.038 71.1081 241.069 73.9835 241.069C76.8588 241.069 78.202 240.038 79.9045 238.724C81.4935 237.494 83.4135 236.019 86.5632 235.546C87.6982 235.376 88.7103 236.274 88.7103 237.428V238.383C88.7103 239.319 88.0103 240.095 87.0834 240.256C85.2485 240.568 84.1324 241.438 82.7893 242.469C80.8598 243.954 78.4668 245.798 73.9835 245.798Z" fill="#1B1B1B"/>
<path d="M88.2755 225.795C87.7837 225.378 87.1405 225.189 86.5163 225.284C83.4517 225.757 81.6073 227.175 79.971 228.433C78.1834 229.805 76.897 230.798 73.9838 230.798C71.0706 230.798 69.7748 229.805 67.9872 228.424C65.982 226.873 63.7025 225.123 59.2476 225.123C54.7927 225.123 52.5227 226.882 50.5175 228.424C48.7298 229.795 47.4434 230.798 44.5208 230.798C41.5981 230.798 40.3118 229.805 38.5242 228.424C36.519 226.873 34.2395 225.123 29.7941 225.123C25.3486 225.123 23.0691 226.882 21.0639 228.433C19.2762 229.805 17.9899 230.798 15.0767 230.798C12.1635 230.798 10.8677 229.805 9.08954 228.424C7.46269 227.166 5.61826 225.747 2.55373 225.274C1.92002 225.18 1.28631 225.359 0.794476 225.785C0.293179 226.22 0 226.844 0 227.506C0 228.613 0.813405 229.549 1.9295 229.729C3.82119 230.032 4.93726 230.892 6.34657 231.98C8.35176 233.531 10.6313 235.281 15.0767 235.281C19.5222 235.281 21.8017 233.521 23.8069 231.97C25.5945 230.599 26.8809 229.606 29.7941 229.606C32.7073 229.606 34.003 230.599 35.7812 231.98C37.7864 233.531 40.0659 235.281 44.5114 235.281C48.9568 235.281 51.2363 233.521 53.2415 231.98C55.0291 230.608 56.3155 229.606 59.2381 229.606C62.1608 229.606 63.4471 230.599 65.2348 231.98C67.24 233.531 69.5194 235.281 73.9744 235.281C78.4293 235.281 80.6993 233.521 82.714 231.97C84.1327 230.883 85.2394 230.022 87.1311 229.719C88.2472 229.54 89.0606 228.603 89.0606 227.497C89.0606 226.835 88.7768 226.211 88.266 225.776L88.2755 225.795Z" fill="#1B1B1B"/>
<path d="M73.9835 225.019C69.5002 225.019 67.0977 223.174 65.1777 221.69C63.4752 220.375 62.1321 219.344 59.2567 219.344C56.3813 219.344 55.0382 220.375 53.3357 221.69C51.4062 223.174 49.0132 225.019 44.5299 225.019C40.0466 225.019 37.6442 223.174 35.7241 221.69C34.0216 220.384 32.6785 219.344 29.8031 219.344C26.9278 219.344 25.5847 220.375 23.8822 221.69C21.9621 223.174 19.5597 225.019 15.0764 225.019C10.5931 225.019 8.1906 223.174 6.27054 221.69C4.92744 220.649 3.80191 219.789 1.97643 219.476C1.04951 219.316 0.349609 218.55 0.349609 217.604V216.649C0.349609 215.504 1.36162 214.596 2.49663 214.767C5.64629 215.239 7.56639 216.715 9.15541 217.944C10.8579 219.259 12.201 220.29 15.0764 220.29C17.9518 220.29 19.2948 219.259 20.9973 217.944C22.9174 216.459 25.3198 214.615 29.8031 214.615C34.2864 214.615 36.6889 216.459 38.6089 217.944C40.3114 219.259 41.6545 220.29 44.5299 220.29C47.4053 220.29 48.7484 219.259 50.4509 217.944C52.3804 216.459 54.7734 214.615 59.2567 214.615C63.74 214.615 66.1424 216.459 68.0625 217.944C69.765 219.259 71.1081 220.29 73.9835 220.29C76.8588 220.29 78.202 219.259 79.9045 217.944C81.4935 216.715 83.4135 215.239 86.5632 214.767C87.6982 214.596 88.7103 215.495 88.7103 216.649V217.604C88.7103 218.54 88.0103 219.316 87.0834 219.476C85.2485 219.789 84.1324 220.659 82.7893 221.69C80.8598 223.174 78.4668 225.019 73.9835 225.019Z" fill="#1B1B1B"/>
<path d="M575.062 157.085C575.062 155.836 574.003 154.824 572.754 154.824H552.305C551.047 154.824 550.035 155.836 550.035 157.094V164.339H575.062V157.085Z" fill="#1B1B1B"/>
<path d="M575.062 170.004H550.035V178.043H575.062V170.004Z" fill="#1B1B1B"/>
<path d="M638.254 230.598H633.431V183.716C633.431 182.78 632.352 182.241 631.605 182.808C631.605 182.808 612.972 196.881 604.743 203.066V197.638L604.98 183.744C604.999 182.799 603.92 182.25 603.164 182.818C603.164 182.818 582.951 197.884 575.063 203.747V183.716H550.036V230.598H548.078C546.508 230.598 545.24 231.865 545.24 233.435C545.24 235.005 546.508 236.272 548.078 236.272H638.254C639.825 236.272 641.092 235.005 641.092 233.435C641.092 231.865 639.825 230.598 638.254 230.598ZM588.38 229.482C583.273 228.073 579.518 223.391 579.518 217.849C579.518 211.191 584.928 205.781 591.587 205.781C591.946 205.781 592.305 205.8 592.665 205.828L591.426 208.032C586.082 208.117 581.769 212.486 581.769 217.839C581.769 222.294 584.748 226.058 588.825 227.259L588.38 229.482ZM585.76 220.024L594.093 205.138L592.003 215.664H597.432L589.099 230.55L591.189 220.024H585.76ZM591.587 229.917C591.227 229.917 590.868 229.898 590.508 229.869L591.747 227.666C597.091 227.581 601.404 223.211 601.404 217.858C601.404 213.404 598.425 209.64 594.348 208.438L594.793 206.216C599.9 207.625 603.656 212.307 603.656 217.849C603.656 224.507 598.245 229.917 591.587 229.917Z" fill="#1D1D1B"/>
<text fill="#1B1B1B" xml:space="preserve" style="white-space: pre" font-family="Source Sans Pro" font-size="16" font-weight="600" letter-spacing="0em"><tspan x="16.4688" y="275.487">Hydro</tspan></text>
<text fill="#1B1B1B" xml:space="preserve" style="white-space: pre" font-family="Source Sans Pro" font-size="16" font-weight="600" letter-spacing="0em"><tspan x="154.484" y="275.487">Biomass</tspan></text>
<text fill="#1B1B1B" xml:space="preserve" style="white-space: pre" font-family="Source Sans Pro" font-size="16" font-weight="600" letter-spacing="0em"><tspan x="288.367" y="275.487">Nuclear</tspan></text>
<text fill="#1B1B1B" xml:space="preserve" style="white-space: pre" font-family="Source Sans Pro" font-size="16" font-weight="600" letter-spacing="0em"><tspan x="405.438" y="275.487">Other Unknown</tspan></text>
<text fill="#1B1B1B" xml:space="preserve" style="white-space: pre" font-family="Source Sans Pro" font-size="16" font-weight="600" letter-spacing="0em"><tspan x="547.148" y="275.887">Other Fossil</tspan></text>
</svg>
