<svg width="5310" height="371" viewBox="0 0 5310 371" fill="none" xmlns="http://www.w3.org/2000/svg">
<path d="M266.425 143.981L256.368 29.833H204.65L194.593 143.981H181.944V77.4968H54.2693V143.981H0.505981V263.856C0.505981 296.484 26.9615 322.942 59.5877 322.942H73.4291C74.3837 307.906 79.3271 299.144 83.4181 291.984C87.3728 285.063 90.2365 280.051 90.2365 268.561C90.2365 257.071 87.3728 252.06 83.4181 245.138C78.9861 237.399 73.5314 227.716 73.2927 210.26H55.1557L85.4977 166.244L115.84 210.26H98.7596C98.9641 220.863 101.726 225.807 105.544 232.489C110.078 240.433 115.703 250.287 115.703 268.561C115.703 286.836 110.078 296.689 105.544 304.633C102.237 310.429 99.7142 314.929 98.9641 322.942H148.33C149.284 307.906 154.228 299.144 158.319 291.984C162.273 285.063 165.137 280.051 165.137 268.561C165.137 257.071 162.273 252.06 158.319 245.138C153.887 237.399 148.432 227.716 148.193 210.26H130.056L160.398 166.244L190.74 210.26H173.66C173.865 220.863 176.626 225.807 180.444 232.489C184.979 240.433 190.604 250.287 190.604 268.561C190.604 286.836 184.979 296.689 180.444 304.633C177.137 310.429 174.615 314.929 173.865 322.942H223.23C224.185 307.906 229.128 299.144 233.219 291.984C237.174 285.063 240.038 280.051 240.038 268.561C240.038 257.071 237.174 252.06 233.219 245.138C228.787 237.399 223.332 227.716 223.094 210.26H204.957L235.299 166.244L265.641 210.26H248.561C248.765 220.863 251.527 225.807 255.345 232.489C259.879 240.433 265.504 250.287 265.504 268.561C265.504 286.836 259.879 296.689 255.345 304.633C252.038 310.429 249.515 314.929 248.765 322.942H267.72L274.539 321.373C300.756 315.339 320.359 291.882 320.359 263.822V143.947H266.288L266.425 143.981ZM107.214 130.207H78.3725V101.363H107.214V130.207ZM157.944 130.207H129.102V101.363H157.944V130.207Z" fill="#1B1B1B"/>
<path d="M773.409 85.2021C769.83 85.2021 766.932 82.3041 766.932 78.7242V54.7218C766.932 51.1419 769.83 48.2439 773.409 48.2439C776.989 48.2439 779.887 51.1419 779.887 54.7218V78.7242C779.887 82.3041 776.989 85.2021 773.409 85.2021ZM816.263 99.1467L833.241 82.1677C835.764 79.6447 835.764 75.5534 833.241 73.0305C830.718 70.5075 826.627 70.5075 824.104 73.0305L807.127 90.0094C804.604 92.5324 804.604 96.6237 807.127 99.1467C808.388 100.408 810.058 101.056 811.695 101.056C813.331 101.056 815.002 100.442 816.263 99.1807V99.1467ZM858.06 132.832C858.06 129.252 855.162 126.354 851.583 126.354H827.548C823.968 126.354 821.07 129.252 821.07 132.832C821.07 136.412 823.968 139.31 827.548 139.31H851.583C855.162 139.31 858.06 136.412 858.06 132.832ZM833.275 192.599C835.798 190.076 835.798 185.985 833.275 183.462L816.297 166.483C813.775 163.96 809.684 163.96 807.161 166.483C804.638 169.006 804.638 173.097 807.161 175.62L824.139 192.599C825.4 193.861 827.071 194.474 828.707 194.474C830.343 194.474 832.014 193.826 833.275 192.565V192.599ZM739.692 99.1467C742.215 96.6237 742.215 92.5324 739.692 90.0094L722.714 73.0305C720.192 70.5075 716.1 70.5075 713.578 73.0305C711.055 75.5534 711.055 79.6447 713.578 82.1677L730.556 99.1467C731.817 100.408 733.488 101.022 735.124 101.022C736.76 101.022 738.431 100.408 739.692 99.1126V99.1467ZM773.443 92.8051C755.102 92.8051 739.658 105.147 734.919 121.956H770.273C777.773 121.956 784.08 127.513 784.592 134.605L787.251 170.301C802.524 164.676 813.468 150.015 813.468 132.798C813.468 110.705 795.535 92.8051 773.409 92.8051H773.443Z" fill="#1B1B1B"/>
<path d="M599.198 155.232H642.632L641.064 195.122H596.403L599.198 155.232ZM650.848 247.559H697.179L696.497 204.737H651.53L650.848 247.559ZM593.539 247.559H639.87L640.859 204.737H595.891L593.539 247.559ZM651.7 195.088H696.361V155.198H652.962L651.7 195.088ZM750.09 155.232H706.657L706.93 195.122H751.59L750.056 155.232H750.09ZM752.17 204.703H707.202L708.191 247.525H754.522L752.204 204.703H752.17Z" fill="#1B1B1B"/>
<path d="M775.762 135.287C775.591 132.832 773.103 130.82 770.273 130.82H579.561C576.698 130.82 574.243 132.798 574.073 135.287L561.322 271.152C561.083 274.153 563.47 276.573 566.64 276.573H645.393V291.779H631.654V304.565H716.441V291.779H702.702V276.573H780.671C783.842 276.573 786.194 274.153 785.989 271.152L775.83 135.287H775.762ZM581.914 257.89L589.482 146.265H759.875L766.148 257.89H581.948H581.914Z" fill="#1B1B1B"/>
<path d="M1197.58 307.258H1188.14L1149.79 136.105C1153.67 134.434 1156.4 130.582 1156.4 126.081C1156.4 120.046 1151.53 115.171 1145.49 115.171H1079.63C1073.59 115.171 1068.72 120.046 1068.72 126.081C1068.72 130.343 1071.2 134.025 1074.78 135.798L1043.42 307.224H1034.28C1028.25 307.224 1023.37 312.099 1023.37 318.134C1023.37 324.169 1028.25 329.044 1034.28 329.044H1197.55C1203.58 329.044 1208.46 324.169 1208.46 318.134C1208.46 312.099 1203.58 307.224 1197.55 307.224L1197.58 307.258ZM1149.68 235.217L1091.73 211.59L1138.03 183.223L1149.68 235.217ZM1127.7 137.094L1133.01 160.755L1087.33 188.746L1096.77 137.094H1127.7ZM1136.97 253.594L1068.58 291.029L1079.69 230.239L1136.97 253.594ZM1156.91 267.538L1165.81 307.258H1084.36L1156.91 267.538Z" fill="#1B1B1B"/>
<path d="M1144.95 61.5409C1143 42.3799 1129.6 22.9462 1105.5 0.682617C1108.71 20.0823 1099.71 30.5151 1093.02 41.5957C1091.28 38.5614 1089.85 34.8792 1088.9 30.2423C1074.41 47.8691 1072.4 67.8824 1077.95 80.9405C1083.44 93.7941 1096.67 103.784 1111.94 103.204C1137.72 102.318 1146.72 79.3381 1144.95 61.575V61.5409ZM1111.94 99.6242C1104.27 99.931 1097.59 94.8851 1094.83 88.4072C1092.03 81.827 1093.06 71.7351 1100.35 62.8706C1100.83 65.189 1101.58 67.0642 1102.43 68.5984C1105.81 63.041 1110.34 57.7905 1108.71 48.0055C1120.84 59.2225 1127.63 69.0416 1128.58 78.6562C1129.47 87.5889 1124.93 99.181 1111.94 99.6242Z" fill="#1B1B1B"/>
<path d="M1676.68 297.03L1685.92 262.492L1741.8 297.03H1775.62C1775.62 297.03 1741.01 167.881 1737.47 154.72C1734.91 145.208 1726.39 137.844 1715.96 137.844C1705.52 137.844 1696.69 145.14 1694.37 154.959C1694.27 155.164 1656.33 297.03 1656.33 297.03H1676.65H1676.68ZM1735.97 224.852L1750.56 279.369L1700.55 248.48L1736 224.852H1735.97ZM1715.96 152.982C1720.15 152.982 1723.56 156.391 1723.56 160.585C1723.56 164.778 1720.15 168.188 1715.96 168.188C1711.76 168.188 1708.35 164.778 1708.35 160.585C1708.35 156.391 1711.76 152.982 1715.96 152.982ZM1707.84 180.564C1710.36 181.553 1713.09 182.132 1715.99 182.132C1718.89 182.132 1721.61 181.553 1724.17 180.53L1730.65 204.771L1695.02 228.5L1707.84 180.53V180.564Z" fill="#1B1B1B"/>
<path d="M1579.18 194.031C1579.96 194.134 1580.95 194.236 1581.97 194.372V279.062H1594.55V195.941C1595.37 196.043 1596.09 196.145 1596.63 196.213C1597.35 196.316 1598.03 195.94 1598.41 195.293L1639.52 122.263L1686.67 145.89C1692.02 134.775 1703.21 127.445 1715.99 127.445C1730.68 127.445 1743.67 137.571 1747.59 152.027C1748.48 155.334 1751.38 166.04 1755.16 180.189L1825.15 215.238V246.059H1837.73V161.846L1659.19 72.9283L1651.76 32.3221C1651.62 31.9129 1651.39 31.6061 1651.01 31.4356C1648.73 30.3105 1639.73 25.9123 1636.15 24.3781C1635.77 24.2076 1635.43 24.2758 1635.09 24.5486C1622.34 34.811 1604.99 55.3698 1593.43 79.6449C1572.94 122.74 1575.19 161.539 1577.64 192.429C1577.71 193.281 1578.36 193.963 1579.21 194.065L1579.18 194.031Z" fill="#1B1B1B"/>
<path d="M1868.72 309.611H1856.96V267.538C1856.96 265.356 1855.19 263.618 1853.04 263.618H1809.44C1807.25 263.618 1805.52 265.391 1805.52 267.538V309.611H1599.7V298.701C1599.7 297.337 1598.61 296.246 1597.25 296.246H1578.53C1577.17 296.246 1576.08 297.337 1576.08 298.701V309.611H1563.39C1562.44 309.611 1561.62 310.395 1561.62 311.384V323.555C1561.62 324.51 1562.4 325.328 1563.39 325.328H1868.72C1869.68 325.328 1870.5 324.544 1870.5 323.555V311.384C1870.5 310.429 1869.71 309.611 1868.72 309.611Z" fill="#1B1B1B"/>
<path d="M1464.12 284.245C1458.66 284.245 1454.2 279.846 1454.2 274.391C1454.2 272.516 1452.7 270.982 1450.82 270.982C1448.95 270.982 1447.41 272.516 1447.41 274.391C1447.41 283.597 1454.91 291.029 1464.08 291.029C1465.96 291.029 1467.46 289.529 1467.46 287.654C1467.46 285.779 1465.96 284.245 1464.08 284.245H1464.12Z" fill="#1B1B1B"/>
<path d="M1501.65 306.508H1518.8V267.913H1520.37C1524.39 267.913 1527.63 264.674 1527.63 260.651C1527.63 256.867 1524.73 253.798 1521.05 253.457H1501.65C1499.57 253.457 1497.9 251.787 1497.9 249.707C1497.9 247.627 1499.57 245.957 1501.65 245.957H1518.8V207.294H1520.37C1524.39 207.294 1527.63 204.055 1527.63 200.032C1527.63 196.008 1524.39 192.77 1520.37 192.77H1407.83C1403.81 192.77 1400.57 196.008 1400.57 200.032C1400.57 204.055 1403.81 207.294 1407.83 207.294H1409.4V245.957H1426.41C1428.49 245.957 1430.16 247.627 1430.16 249.707C1430.16 251.787 1428.49 253.457 1426.41 253.457H1407.15C1403.47 253.798 1400.57 256.867 1400.57 260.651C1400.57 264.674 1403.81 267.913 1407.83 267.913H1409.4V306.508H1426.41C1428.49 306.508 1430.16 308.179 1430.16 310.258C1430.16 312.338 1428.49 314.009 1426.41 314.009H1409.4H1407.83C1403.81 314.009 1400.57 317.248 1400.57 321.271C1400.57 325.294 1403.81 328.533 1407.83 328.533H1520.37C1524.39 328.533 1527.63 325.294 1527.63 321.271C1527.63 317.248 1524.39 314.009 1520.37 314.009H1518.8H1501.65C1499.57 314.009 1497.9 312.338 1497.9 310.258C1497.9 308.179 1499.57 306.508 1501.65 306.508ZM1464.12 298.257C1450.92 298.257 1440.18 287.552 1440.18 274.357C1440.18 265.902 1444.55 259.322 1449.66 251.719C1454.95 243.843 1460.95 237.058 1462.89 224.034C1462.96 223.42 1463.47 222.943 1464.08 222.943C1464.66 222.943 1465.21 223.386 1465.28 224C1467.18 236.137 1473.05 242.99 1478.23 250.832C1483.28 258.503 1488.02 265.731 1488.02 274.357C1488.02 287.552 1477.28 298.257 1464.08 298.257H1464.12Z" fill="#1B1B1B"/>
<path d="M4256.5 329.317C4244.5 307.088 4235.4 288.847 4227.56 270.982C4215.15 242.615 4204.21 197.475 4204.21 154.073C4204.21 129.968 4204.68 122.808 4204.68 105.181C4204.68 102.556 4202.81 100.442 4200.18 100.442H4047.62C4045 100.442 4043.12 102.59 4043.12 105.181C4043.12 122.331 4043.6 129.798 4043.6 154.073C4043.6 197.509 4032.65 242.65 4020.24 270.982C4012.44 288.847 4003.3 307.088 3991.3 329.317C3988.88 333.784 3992.15 339.205 3997.23 339.205H4250.54C4255.62 339.205 4258.89 333.784 4256.47 329.317H4256.5ZM4125.32 284.245C4096.85 284.245 4073.77 261.231 4073.77 232.83C4073.77 204.43 4096.85 181.416 4125.32 181.416C4153.78 181.416 4176.86 204.43 4176.86 232.83C4176.86 261.231 4153.78 284.245 4125.32 284.245Z" fill="#1B1B1B"/>
<path d="M4111.68 233.921L4083.93 233.853C4083.96 230.41 4083.83 223.591 4088.87 213.294C4093.92 202.998 4102.88 198.225 4104.69 196.997L4119.52 220.25C4119.11 220.454 4115.5 222.193 4113.56 225.636C4111.61 229.08 4111.51 232.08 4111.65 233.887L4111.68 233.921ZM4137.32 225.602C4138.75 228.023 4139.4 230.546 4139.29 233.205L4166.98 232.046C4166.91 224.886 4164.9 218.033 4160.98 211.487C4156.89 204.634 4151.53 199.554 4144.89 196.111L4131.01 220.079C4133.67 221.204 4135.75 223.045 4137.32 225.602ZM4147.68 267.572L4133.91 243.638C4133.46 243.945 4130.09 246.502 4126.03 246.502C4121.98 246.502 4119.32 245.138 4118.09 244.354L4105.3 268.902C4108.13 270.3 4114.88 274.119 4126.71 274.119C4137.45 274.119 4146.01 268.595 4147.68 267.572ZM4132 232.796C4132 236.513 4129 239.513 4125.28 239.513C4121.57 239.513 4118.57 236.513 4118.57 232.796C4118.57 229.08 4121.57 226.08 4125.28 226.08C4129 226.08 4132 229.08 4132 232.796Z" fill="#1B1B1B"/>
<path d="M4057 87.9297C4057.64 83.2929 4059.18 78.8265 4061.63 74.7693C4066.34 67.0299 4074.21 61.1998 4084.24 59.5633C4085.67 42.823 4097.36 28.708 4113.76 25.1962C4120.68 23.6961 4127.91 24.3098 4134.56 26.8328C4140.73 20.6617 4148.53 16.3658 4156.99 14.5588C4182.08 9.17195 4207.1 26.1509 4212.76 52.3694C4215.56 65.3593 4213.1 78.4856 4206.42 89.0889C4204.51 88.3389 4202.43 87.8956 4200.22 87.8956H4188.46C4197.18 79.9176 4201 67.6095 4198.41 55.4379C4194.46 37.1293 4177.27 25.2644 4160.09 28.9125C4152.97 30.4468 4146.83 34.3676 4142.26 40.3L4138.34 45.4142L4132.75 42.1752C4127.84 39.3454 4122.21 38.4248 4116.86 39.55C4105.3 42.0047 4097.63 53.3581 4098.96 65.8707L4099.95 74.9398C4099.95 74.9398 4095.52 74.4966 4090.88 73.9852C4080.25 72.7919 4073.33 81.3154 4072.03 87.8956H4057.03L4057 87.9297Z" fill="#1B1B1B"/>
<path d="M4309.24 319.975H4265.67C4254.32 298.769 4246 281.96 4239.01 265.97C4229.3 243.775 4218.05 203.816 4216.82 161.573H4275.83C4277.57 161.573 4278.8 163.005 4278.8 164.71C4278.8 176.404 4278.49 181.143 4278.49 197.134C4278.49 225.943 4285.75 255.878 4293.97 274.698C4299.15 286.563 4305.22 298.632 4313.16 313.395C4314.77 316.361 4312.59 319.941 4309.21 319.941L4309.24 319.975Z" fill="#1B1B1B"/>
<path d="M4217.09 118.99L4217.23 118.546C4218.56 113.944 4221.29 110.193 4225.14 107.636C4234.55 101.431 4247.64 104.534 4254.36 114.626C4258.99 121.581 4259.54 130.241 4255.75 137.23L4253.98 141.526L4256.43 145.208C4258.28 148.004 4259.26 151.106 4259.47 154.277H4274.16C4273.99 149.504 4272.83 144.765 4270.51 140.264C4274.78 129.32 4273.41 116.705 4266.59 106.443C4255.41 89.6344 4233.15 84.6567 4217.02 95.3623C4216.34 95.8055 4215.73 96.351 4215.08 96.8624C4216.41 99.3172 4217.23 102.147 4217.23 105.181C4217.23 110.466 4217.2 114.83 4217.13 118.99H4217.09Z" fill="#1B1B1B"/>
<path d="M2885.76 308.52L2840.45 226.727C2839.87 225.705 2839.12 224.818 2838.2 224.102L2814.64 205.964L2772.95 128.4C2772.44 127.411 2771.72 126.558 2770.87 125.877L2704.46 70.9507C2702.75 69.5528 2700.6 68.871 2698.42 69.0073L2665.87 71.2917C2663.79 71.428 2661.81 72.3486 2660.38 73.8487L2623.22 111.898C2622.84 112.307 2622.47 112.75 2622.16 113.193L2576.27 183.598H2572.9L2565.4 177.666C2563.9 176.472 2562.02 175.825 2560.11 175.825H2551.86C2548.76 175.825 2545.93 177.495 2544.43 180.189L2472.84 308.486C2471.37 311.111 2471.4 314.35 2472.94 316.941C2474.47 319.532 2477.27 321.135 2480.3 321.135H2615.14C2616.98 318.441 2620.01 316.634 2623.49 316.464L2620.52 304.087H2494.79L2556.87 192.838H2557.15L2564.65 198.77C2566.15 199.963 2568.02 200.611 2569.93 200.611H2580.87C2583.74 200.611 2586.43 199.145 2588 196.724L2635.93 123.149L2670.26 88.032L2696.21 86.225L2758.7 137.912L2800.46 215.613C2801.04 216.67 2801.82 217.59 2802.78 218.34L2826.37 236.513L2863.8 304.087H2761.46L2758.46 316.634C2761.32 317.146 2763.74 318.85 2765.35 321.135H2878.26C2881.29 321.135 2884.09 319.532 2885.59 316.941C2887.09 314.35 2887.16 311.111 2885.69 308.486L2885.76 308.52Z" fill="#1B1B1B"/>
<path d="M2751.95 241.252L2738.58 235.422L2731.05 220.727C2730.61 219.875 2729.86 219.193 2728.94 218.886L2695.66 206.885C2694.26 206.373 2692.76 206.714 2691.71 207.737L2677.15 221.92L2674.15 219.602C2673.3 218.954 2672.24 218.647 2671.15 218.852L2649.3 222.568C2648.34 222.739 2647.49 223.25 2646.88 224.034L2633.78 241.32C2632.52 242.991 2632.86 245.514 2634.53 246.673C2636.17 247.832 2638.56 247.662 2639.89 245.923C2641.22 244.218 2652.06 229.83 2652.06 229.83L2670.77 226.66L2687.65 239.854C2689.32 241.15 2691.71 240.877 2693 239.206C2694.3 237.536 2693.99 235.149 2692.36 233.853L2683.18 226.694L2695.32 214.863L2724.95 225.534L2732.41 240.093C2732.82 240.877 2733.47 241.491 2734.29 241.866C2734.29 241.866 2746.43 247.252 2748.88 248.241C2751.33 249.23 2753.04 247.866 2753.89 246.264C2754.74 244.661 2753.86 242.07 2751.91 241.252H2751.95Z" fill="#1B1B1B"/>
<path d="M2767.43 256.287H2614.73C2612.55 256.287 2610.77 258.06 2610.77 260.242V272.857C2610.77 275.039 2612.55 276.812 2614.73 276.812H2648.55C2650.35 276.812 2651.79 278.278 2651.79 280.051C2651.79 281.824 2650.32 283.29 2648.55 283.29H2622.53L2632.08 323.283H2623.97C2621.78 323.283 2620.01 325.056 2620.01 327.238V346.16C2620.01 348.342 2621.78 350.115 2623.97 350.115H2634.43C2634.64 335.795 2646.36 324.169 2660.79 324.169C2676.54 324.169 2687.14 337.261 2687.14 350.115H2695.49C2695.7 335.795 2707.46 324.169 2721.84 324.169C2738.31 324.169 2748.2 337.977 2748.2 350.115H2756.55C2758.73 350.115 2760.51 348.342 2760.51 346.16V327.238C2760.51 325.056 2758.73 323.283 2756.55 323.283H2749.9L2760.98 276.812H2767.43C2769.61 276.812 2771.38 275.039 2771.38 272.857V260.242C2771.38 258.06 2769.61 256.287 2767.43 256.287Z" fill="#1B1B1B"/>
<path d="M2660.85 330.306C2649.67 330.306 2640.57 339.307 2640.54 350.49C2640.54 361.673 2649.57 370.742 2660.75 370.776C2671.93 370.81 2681.04 361.775 2681.07 350.592C2681.1 339.409 2672.07 330.34 2660.85 330.306ZM2660.79 358.161C2656.56 358.161 2653.15 354.717 2653.15 350.524C2653.15 346.296 2656.59 342.887 2660.82 342.921C2665.05 342.921 2668.46 346.364 2668.46 350.592C2668.46 354.82 2665.01 358.195 2660.79 358.195V358.161ZM2721.91 330.306C2710.7 330.306 2701.63 339.307 2701.59 350.49C2701.59 361.673 2710.63 370.742 2721.81 370.776C2732.99 370.81 2742.1 361.775 2742.13 350.592C2742.16 339.409 2733.13 330.34 2721.91 330.306ZM2721.84 358.161C2717.62 358.161 2714.21 354.717 2714.21 350.524C2714.21 346.296 2717.65 342.887 2721.88 342.921C2726.11 342.921 2729.52 346.364 2729.52 350.592C2729.52 354.82 2726.07 358.195 2721.84 358.195V358.161Z" fill="#1B1B1B"/>
<path d="M4794.27 40.607C4794.27 36.1406 4790.49 32.5266 4786.02 32.5266H4713C4708.53 32.5266 4704.88 36.1406 4704.88 40.6411V66.5186H4794.27V40.607Z" fill="#1B1B1B"/>
<path d="M4794.27 86.7705H4704.88V115.478H4794.27V86.7705Z" fill="#1B1B1B"/>
<path d="M4811.73 304.053H4794.48V134.469H4704.88V158.062H4503.47C4499.72 158.062 4496.65 161.13 4496.65 164.881V304.053H4490.03C4485.13 304.053 4480.63 307.361 4479.7 312.168C4478.48 318.646 4483.39 324.305 4489.66 324.305H4811.15C4816.64 324.305 4821.55 320.18 4821.85 314.725C4822.16 308.861 4817.52 304.053 4811.73 304.053ZM4650.51 293.007H4553.45C4545.06 293.007 4539.81 283.938 4544 276.676L4592.52 192.633C4596.71 185.371 4607.18 185.371 4611.37 192.633L4659.88 276.676C4664.08 283.938 4658.82 293.007 4650.44 293.007H4650.51Z" fill="#1B1B1B"/>
<path d="M4606.9 207.771L4582.63 251.139H4598.45L4592.35 281.824L4616.62 238.456H4600.8L4606.9 207.771Z" fill="#1B1B1B"/>
<path d="M2183.94 179.132C2183.94 186.087 2178.31 191.713 2171.36 191.713C2164.4 191.713 2158.78 186.087 2158.78 179.132C2158.78 172.177 2164.4 166.551 2171.36 166.551C2178.31 166.551 2183.94 172.177 2183.94 179.132Z" fill="#1B1B1B"/>
<path d="M2208.28 61.984C2212.78 57.3813 2216.7 60.4157 2215.13 65.3934L2185.37 161.88C2181.52 158.744 2176.68 156.766 2171.32 156.766C2168.73 156.766 2166.28 157.278 2163.99 158.096C2163.38 151.686 2162.8 144.526 2162.6 139.48C2162.43 135.219 2162.6 130.889 2164.64 127.172C2170.92 116.058 2175.89 107.5 2188.23 89.6345C2197.61 76.0309 2205.59 64.6775 2208.25 61.9499" fill="#1B1B1B"/>
<path d="M2199.28 325.976L2181.18 202.623L2254.75 269.107C2258.91 272.891 2263.68 270.47 2261.23 263.958C2259.76 260.106 2252.29 247.184 2243.29 231.842C2231.46 211.692 2225.36 202.93 2217.35 191.781C2214.69 188.064 2210.5 185.951 2206.27 184.178C2202.79 182.712 2198.26 181.007 2193.62 179.302C2193.55 191.542 2183.56 201.464 2171.29 201.464C2167.92 201.464 2164.74 200.645 2161.85 199.316L2143.23 326.01H2199.21L2199.28 325.976Z" fill="#1B1B1B"/>
<path d="M2047.26 190.213C2050.84 191.61 2064.41 194.508 2080.57 197.85C2101.84 202.248 2111.7 203.509 2124.38 204.941C2128.61 205.419 2132.66 203.85 2136.52 202.043C2141.32 199.793 2148.14 196.213 2154.04 193.042C2150.94 189.224 2148.99 184.416 2148.99 179.098C2148.99 176.677 2149.47 174.359 2150.22 172.143L2047.74 182.507" fill="#1B1B1B"/>
<path d="M2337.39 236.444C2337.39 240.672 2333.94 244.116 2329.72 244.116C2325.49 244.116 2322.05 240.672 2322.05 236.444C2322.05 232.217 2325.49 228.773 2329.72 228.773C2333.94 228.773 2337.39 232.217 2337.39 236.444Z" fill="#1B1B1B"/>
<path d="M2352.25 165.017C2355.01 162.187 2357.37 164.062 2356.44 167.097L2338.31 225.943C2335.96 224.034 2332.99 222.807 2329.75 222.807C2328.18 222.807 2326.68 223.114 2325.28 223.625C2324.91 219.704 2324.57 215.34 2324.43 212.272C2324.33 209.681 2324.43 207.021 2325.69 204.771C2329.51 197.986 2332.55 192.77 2340.08 181.894C2345.81 173.609 2350.65 166.688 2352.29 165.017" fill="#1B1B1B"/>
<path d="M2346.76 325.976L2335.72 250.764L2380.58 291.302C2383.14 293.586 2386.04 292.12 2384.54 288.165C2383.65 285.813 2379.08 277.937 2373.59 268.595C2366.37 256.287 2362.65 250.968 2357.77 244.15C2356.14 241.865 2353.62 240.604 2351.02 239.513C2348.91 238.626 2346.15 237.569 2343.32 236.547C2343.25 244.013 2337.18 250.048 2329.72 250.048C2327.67 250.048 2325.73 249.537 2323.96 248.718L2312.6 325.942H2346.73L2346.76 325.976Z" fill="#1B1B1B"/>
<path d="M2254.07 243.195C2256.25 244.048 2264.5 245.82 2274.38 247.866C2287.37 250.56 2293.37 251.31 2301.08 252.196C2303.67 252.503 2306.12 251.548 2308.48 250.423C2311.41 249.059 2315.57 246.877 2319.15 244.934C2317.27 242.581 2316.08 239.649 2316.08 236.445C2316.08 234.944 2316.39 233.546 2316.83 232.217L2254.34 238.524" fill="#1B1B1B"/>
<path d="M2025.34 236.99C2025.34 241.184 2021.93 244.627 2017.71 244.627C2013.48 244.627 2010.07 241.218 2010.07 236.99C2010.07 232.762 2013.48 229.353 2017.71 229.353C2021.93 229.353 2025.34 232.762 2025.34 236.99Z" fill="#1B1B1B"/>
<path d="M2040.1 166.04C2042.83 163.244 2045.18 165.085 2044.26 168.119L2026.23 226.591C2023.91 224.682 2020.94 223.489 2017.71 223.489C2016.14 223.489 2014.67 223.795 2013.24 224.307C2012.86 220.42 2012.52 216.09 2012.39 213.022C2012.28 210.43 2012.39 207.805 2013.65 205.555C2017.43 198.838 2020.47 193.622 2027.93 182.814C2033.63 174.563 2038.43 167.71 2040.07 166.04" fill="#1B1B1B"/>
<path d="M2034.65 325.976L2023.67 251.241L2068.23 291.507C2070.75 293.791 2073.65 292.325 2072.15 288.404C2071.26 286.052 2066.73 278.244 2061.27 268.936C2054.12 256.731 2050.4 251.412 2045.56 244.661C2043.96 242.411 2041.4 241.115 2038.84 240.058C2036.73 239.172 2034 238.115 2031.21 237.092C2031.14 244.491 2025.1 250.525 2017.67 250.525C2015.63 250.525 2013.68 250.048 2011.94 249.23L2000.66 325.976H2034.58H2034.65Z" fill="#1B1B1B"/>
<path d="M1942.53 243.707C1944.71 244.559 1952.93 246.298 1962.71 248.343C1975.6 251.003 1981.57 251.787 1989.24 252.639C1991.79 252.946 1994.25 251.991 1996.6 250.9C1999.53 249.537 2003.62 247.389 2007.2 245.445C2005.33 243.127 2004.17 240.195 2004.17 236.99C2004.17 235.524 2004.48 234.126 2004.92 232.796L1942.84 239.07" fill="#1B1B1B"/>
<path d="M3681.91 116.569H3664.29C3663.78 116.569 3663.37 116.981 3663.37 117.489V311.077C3663.37 311.585 3663.78 311.997 3664.29 311.997H3681.91C3682.42 311.997 3682.83 311.585 3682.83 311.077V117.489C3682.83 116.981 3682.42 116.569 3681.91 116.569Z" fill="#1B1B1B"/>
<path d="M3735.47 137.673C3717.23 143.572 3692.82 132.423 3692.65 136.378C3692.65 136.378 3697.32 108.693 3716.45 100.749C3729.85 95.1918 3754.43 105.829 3759.27 102.045C3759.27 102.045 3755.14 131.298 3735.47 137.673Z" fill="#1B1B1B"/>
<path d="M3735.47 185.269C3717.23 191.167 3692.82 180.018 3692.65 183.973C3692.65 183.973 3697.32 156.289 3716.45 148.345C3729.85 142.788 3754.43 153.425 3759.27 149.64C3759.27 149.64 3755.14 178.893 3735.47 185.269Z" fill="#1B1B1B"/>
<path d="M3735.47 232.899C3717.23 238.797 3692.82 227.648 3692.65 231.603C3692.65 231.603 3697.32 203.918 3716.45 195.975C3729.85 190.417 3754.43 201.055 3759.27 197.27C3759.27 197.27 3755.14 226.523 3735.47 232.899Z" fill="#1B1B1B"/>
<path d="M3610.73 137.673C3628.97 143.572 3653.38 132.423 3653.55 136.378C3653.55 136.378 3648.88 108.693 3629.75 100.749C3616.35 95.1918 3591.77 105.829 3586.93 102.045C3586.93 102.045 3591.06 131.298 3610.73 137.673Z" fill="#1B1B1B"/>
<path d="M3610.73 185.269C3628.97 191.167 3653.38 180.018 3653.55 183.973C3653.55 183.973 3648.88 156.289 3629.75 148.345C3616.35 142.788 3591.77 153.425 3586.93 149.64C3586.93 149.64 3591.06 178.893 3610.73 185.269Z" fill="#1B1B1B"/>
<path d="M3610.73 232.899C3628.97 238.797 3653.38 227.648 3653.55 231.603C3653.55 231.603 3648.88 203.918 3629.75 195.975C3616.35 190.417 3591.77 201.055 3586.93 197.27C3586.93 197.27 3591.06 226.523 3610.73 232.899Z" fill="#1B1B1B"/>
<path d="M3588.57 182.132C3589.39 209.135 3567.6 202.009 3550.66 228.023C3536.1 250.389 3545.34 265.254 3550.01 270.641C3573.77 246.775 3586.39 216.533 3588.77 210.362C3588.91 209.987 3589.08 209.612 3589.22 209.203C3589.22 209.203 3589.08 209.612 3588.77 210.362C3577.42 240.297 3564.19 262.834 3556.86 274.221C3565.11 275.755 3582.74 275.244 3595.93 247.866C3611.51 215.511 3588.43 178.45 3588.57 182.132Z" fill="#1B1B1B"/>
<path d="M3505.66 191.133C3505.66 191.133 3505.79 191.474 3506 192.122C3515.17 218.102 3518.95 240.263 3520.45 251.821C3526.73 248.275 3538.05 238.115 3531.53 212.817C3523.83 182.882 3488.07 171.324 3490.21 173.711C3505.73 191.031 3487.49 198.395 3490.76 224.92C3493.59 247.695 3507.91 252.332 3513.98 253.287C3516.36 224.409 3507.87 197.543 3506.03 192.122C3505.93 191.781 3505.79 191.44 3505.69 191.133H3505.66Z" fill="#1B1B1B"/>
<path d="M3551.44 274.119C3550.97 274.766 3543.74 284.62 3540.94 303.44C3534.16 298.189 3522.16 283.017 3518.37 257.037L3515.88 257.31C3517.69 286.938 3532.39 306.201 3537.57 311.997H3546.98C3544.15 292.973 3553.05 275.892 3553.15 275.721L3551.48 274.119H3551.44Z" fill="#1B1B1B"/>
<path d="M3793.29 216.533C3795.82 217.59 3807.71 221.477 3815.52 205.384C3823.7 188.542 3833.39 188.474 3833.39 188.474C3833.39 188.474 3818.9 181.791 3804.71 193.417C3797.18 199.588 3794.32 205.657 3793.26 210.021" fill="#1B1B1B"/>
<path d="M3793.43 256.628C3796.74 257.992 3812.45 263.174 3822.78 241.899C3833.56 219.67 3846.37 219.568 3846.37 219.568C3846.37 219.568 3827.25 210.737 3808.53 226.08C3798.65 234.194 3794.83 242.172 3793.4 247.934" fill="#1B1B1B"/>
<path d="M3793.6 298.939C3797.59 300.576 3816 306.542 3828.1 281.585C3840.78 255.435 3855.85 255.299 3855.85 255.299C3855.85 255.299 3833.35 244.9 3811.33 262.97C3799.77 272.448 3795.27 281.756 3793.57 288.506" fill="#1B1B1B"/>
<path d="M3792.17 209.851C3790.97 205.555 3788.01 199.759 3780.85 193.895C3766.67 182.269 3752.18 188.951 3752.18 188.951C3752.18 188.951 3761.89 189.019 3770.04 205.862C3777.58 221.443 3788.96 218.306 3792 217.147" fill="#1B1B1B"/>
<path d="M3790.46 284.245C3788.01 278.176 3783.3 270.88 3774.27 263.447C3752.25 245.377 3729.75 255.776 3729.75 255.776C3729.75 255.776 3744.81 255.912 3757.5 282.063C3768.2 304.19 3783.88 302.008 3790.09 300.099L3790.46 284.245Z" fill="#1B1B1B"/>
<path d="M3762.81 242.377C3772.26 261.913 3786.27 259.151 3791.08 257.515L3791.35 245.684C3789.47 240.263 3785.45 233.478 3777.03 226.591C3758.31 211.249 3739.19 220.079 3739.19 220.079C3739.19 220.079 3752.01 220.181 3762.78 242.411L3762.81 242.377Z" fill="#1B1B1B"/>
<path d="M3790.16 312.031H3796.36L3793.6 185.883H3790.16V312.031Z" fill="#1B1B1B"/>
<path d="M3076.2 89.089H3079.44V146.879L3043.13 249.912C3045.89 251.582 3048.52 252.366 3052.85 252.366C3057.99 252.366 3060.72 251.241 3064.16 248.855C3072.99 224.58 3087.69 184.144 3093.04 169.381C3097.88 156.084 3108.79 146.197 3125.43 145.651V111.932H3102.42V98.6012H3137.84V145.583C3137.84 145.583 3120.79 195.088 3107.73 231.978C3115.27 232.183 3121.47 233.649 3126.69 235.66C3135.08 211.351 3145.2 181.109 3149.5 169.415C3154.37 156.118 3164.77 146.231 3181.88 145.651V111.932H3158.87V98.6012H3194.29V145.583C3194.29 145.583 3170.57 212.544 3156.25 252.264C3157.1 252.332 3157.99 252.401 3158.97 252.401C3165.86 252.401 3168.42 250.423 3174.08 246.059C3176.05 244.525 3178.34 242.786 3181 241.047C3190.54 214.999 3202.48 182.337 3207.08 169.415C3211.85 156.084 3222.22 146.197 3239.47 145.651V111.932H3216.45V98.6012H3251.88V145.583L3220.51 232.524C3235 234.501 3243.86 241.32 3250.03 246.059C3255.66 250.389 3258.25 252.401 3265.14 252.401C3270.8 252.401 3273.59 251.037 3277.51 248.139V89.089H3279.25C3280.79 89.089 3282.01 87.8616 3282.01 86.3273V76.7809C3282.01 75.2467 3280.79 74.0193 3279.25 74.0193H3076.16C3074.63 74.0193 3073.4 75.2467 3073.4 76.7809V86.3273C3073.4 87.8616 3074.63 89.089 3076.16 89.089H3076.2Z" fill="#1B1B1B"/>
<path d="M3265.17 354.581C3249.01 354.581 3240.35 347.933 3233.43 342.58C3227.29 337.841 3222.45 334.125 3212.09 334.125C3201.73 334.125 3196.88 337.841 3190.75 342.58C3183.79 347.933 3175.17 354.581 3159.01 354.581C3142.85 354.581 3134.19 347.933 3127.27 342.58C3121.13 337.875 3116.29 334.125 3105.93 334.125C3095.56 334.125 3090.72 337.841 3084.58 342.58C3077.66 347.933 3069 354.581 3052.85 354.581C3036.69 354.581 3028.03 347.933 3021.11 342.58C3016.26 338.83 3012.21 335.727 3005.63 334.602C3002.29 334.022 2999.76 331.261 2999.76 327.851V324.408C2999.76 320.282 3003.41 317.009 3007.5 317.623C3018.86 319.328 3025.78 324.646 3031.5 329.079C3037.64 333.818 3042.48 337.534 3052.85 337.534C3063.21 337.534 3068.05 333.818 3074.19 329.079C3081.11 323.726 3089.77 317.077 3105.93 317.077C3122.09 317.077 3130.75 323.726 3137.67 329.079C3143.8 333.818 3148.64 337.534 3159.01 337.534C3169.37 337.534 3174.21 333.818 3180.35 329.079C3187.3 323.726 3195.93 317.077 3212.09 317.077C3228.25 317.077 3236.91 323.726 3243.83 329.079C3249.97 333.818 3254.81 337.534 3265.17 337.534C3275.54 337.534 3280.38 333.818 3286.51 329.079C3292.24 324.646 3299.16 319.328 3310.51 317.623C3314.6 317.009 3318.25 320.248 3318.25 324.408V327.851C3318.25 331.227 3315.73 334.022 3312.39 334.602C3305.77 335.727 3301.75 338.864 3296.91 342.58C3289.96 347.933 3281.33 354.581 3265.17 354.581Z" fill="#1B1B1B"/>
<path d="M3316.68 282.472C3314.91 280.972 3312.59 280.29 3310.34 280.631C3299.3 282.335 3292.65 287.449 3286.75 291.984C3280.31 296.928 3275.67 300.508 3265.17 300.508C3254.67 300.508 3250 296.928 3243.56 291.95C3236.33 286.358 3228.11 280.051 3212.06 280.051C3196 280.051 3187.82 286.393 3180.59 291.95C3174.15 296.894 3169.51 300.508 3158.97 300.508C3148.44 300.508 3143.8 296.928 3137.36 291.95C3130.13 286.358 3121.92 280.051 3105.89 280.051C3089.87 280.051 3081.65 286.393 3074.43 291.984C3067.98 296.928 3063.35 300.508 3052.85 300.508C3042.35 300.508 3037.67 296.928 3031.27 291.95C3025.4 287.415 3018.75 282.301 3007.71 280.597C3005.42 280.256 3003.14 280.903 3001.37 282.438C2999.56 284.006 2998.5 286.256 2998.5 288.643C2998.5 292.632 3001.43 296.007 3005.46 296.655C3012.28 297.746 3016.3 300.849 3021.38 304.769C3028.61 310.361 3036.82 316.668 3052.85 316.668C3068.87 316.668 3077.09 310.327 3084.31 304.735C3090.76 299.792 3095.39 296.212 3105.89 296.212C3116.39 296.212 3121.06 299.792 3127.47 304.769C3134.7 310.361 3142.92 316.668 3158.94 316.668C3174.96 316.668 3183.18 310.327 3190.41 304.769C3196.85 299.826 3201.49 296.212 3212.02 296.212C3222.56 296.212 3227.19 299.792 3233.64 304.769C3240.86 310.361 3249.08 316.668 3265.14 316.668C3281.19 316.668 3289.38 310.327 3296.64 304.735C3301.75 300.814 3305.74 297.712 3312.56 296.621C3316.58 295.973 3319.51 292.598 3319.51 288.609C3319.51 286.222 3318.49 283.972 3316.65 282.404L3316.68 282.472Z" fill="#1B1B1B"/>
<path d="M5071.27 34.7767C5071.27 30.2763 5067.45 26.6282 5062.95 26.6282H4989.25C4984.71 26.6282 4981.06 30.2763 4981.06 34.8108V60.927H5071.27V34.7767Z" fill="#1B1B1B"/>
<path d="M5071.27 81.3496H4981.06V110.33H5071.27V81.3496Z" fill="#1B1B1B"/>
<path d="M5299.04 299.792H5281.65V130.786C5281.65 127.411 5277.77 125.468 5275.07 127.513C5275.07 127.513 5207.91 178.246 5178.25 200.543V180.973L5179.11 130.889C5179.17 127.479 5175.29 125.502 5172.56 127.547C5172.56 127.547 5099.7 181.86 5071.27 202.998V130.786H4981.06V299.792H4974.01C4968.35 299.792 4963.78 304.36 4963.78 310.02C4963.78 315.68 4968.35 320.248 4974.01 320.248H5299.04C5304.7 320.248 5309.27 315.68 5309.27 310.02C5309.27 304.36 5304.7 299.792 5299.04 299.792ZM5119.27 295.769C5100.86 290.688 5087.33 273.812 5087.33 253.833C5087.33 229.83 5106.83 210.328 5130.83 210.328C5132.13 210.328 5133.42 210.396 5134.72 210.499L5130.25 218.443C5110.99 218.75 5095.44 234.501 5095.44 253.798C5095.44 269.857 5106.18 283.426 5120.88 287.756L5119.27 295.769ZM5109.83 261.674L5139.86 208.01L5132.33 245.957H5151.9L5121.86 299.621L5129.4 261.674H5109.83ZM5130.83 297.337C5129.54 297.337 5128.24 297.269 5126.94 297.166L5131.41 289.222C5150.67 288.916 5166.22 273.164 5166.22 253.867C5166.22 237.808 5155.48 224.239 5140.79 219.909L5142.39 211.897C5160.8 216.977 5174.33 233.853 5174.33 253.833C5174.33 277.835 5154.83 297.337 5130.83 297.337Z" fill="#1D1D1B"/>
<path d="M3265.17 280.051C3249.01 280.051 3240.35 273.403 3233.43 268.05C3227.29 263.311 3222.45 259.595 3212.09 259.595C3201.73 259.595 3196.88 263.311 3190.75 268.05C3183.79 273.403 3175.17 280.051 3159.01 280.051C3142.85 280.051 3134.19 273.403 3127.27 268.05C3121.13 263.345 3116.29 259.595 3105.93 259.595C3095.56 259.595 3090.72 263.311 3084.58 268.05C3077.66 273.403 3069 280.051 3052.85 280.051C3036.69 280.051 3028.03 273.403 3021.11 268.05C3016.26 264.3 3012.21 261.197 3005.63 260.072C3002.29 259.492 2999.76 256.731 2999.76 253.321V249.878C2999.76 245.752 3003.41 242.479 3007.5 243.093C3018.86 244.798 3025.78 250.116 3031.5 254.549C3037.64 259.288 3042.48 263.004 3052.85 263.004C3063.21 263.004 3068.05 259.288 3074.19 254.549C3081.11 249.196 3089.77 242.547 3105.93 242.547C3122.09 242.547 3130.75 249.196 3137.67 254.549C3143.8 259.288 3148.64 263.004 3159.01 263.004C3169.37 263.004 3174.21 259.288 3180.35 254.549C3187.3 249.196 3195.93 242.547 3212.09 242.547C3228.25 242.547 3236.91 249.196 3243.83 254.549C3249.97 259.288 3254.81 263.004 3265.17 263.004C3275.54 263.004 3280.38 259.288 3286.51 254.549C3292.24 250.116 3299.16 244.798 3310.51 243.093C3314.6 242.479 3318.25 245.718 3318.25 249.878V253.321C3318.25 256.697 3315.73 259.492 3312.39 260.072C3305.77 261.197 3301.75 264.334 3296.91 268.05C3289.96 273.403 3281.33 280.051 3265.17 280.051Z" fill="#1B1B1B"/>
</svg>
