<svg width="802" height="283" viewBox="0 0 802 283" fill="none" xmlns="http://www.w3.org/2000/svg">
<path d="M73.7758 39.9592L70.9855 8.29492H56.6371L53.8469 39.9592H50.3378V21.5167H14.9159V39.9592H0V73.2123C0 82.2633 7.33975 89.6024 16.3915 89.6024H20.2316C20.4964 85.4316 21.8679 83.0009 23.0029 81.0148C24.1001 79.0949 24.8946 77.7047 24.8946 74.5174C24.8946 71.3302 24.1001 69.9399 23.0029 68.02C21.7733 65.8731 20.26 63.1872 20.1938 58.3448H15.1619L23.5799 46.135L31.9979 58.3448H27.2592C27.316 61.2862 28.0821 62.6575 29.1414 64.5112C30.3994 66.7149 31.96 69.4481 31.96 74.5174C31.96 79.5867 30.3994 82.32 29.1414 84.5236C28.224 86.1314 27.524 87.3798 27.316 89.6024H41.0118C41.2766 85.4316 42.6481 83.0009 43.7831 81.0148C44.8803 79.0949 45.6748 77.7047 45.6748 74.5174C45.6748 71.3302 44.8803 69.9399 43.7831 68.02C42.5535 65.8731 41.0401 63.1872 40.9739 58.3448H35.942L44.3601 46.135L52.7781 58.3448H48.0394C48.0961 61.2862 48.8623 62.6575 49.9216 64.5112C51.1796 66.7149 52.7402 69.4481 52.7402 74.5174C52.7402 79.5867 51.1796 82.32 49.9216 84.5236C49.0041 86.1314 48.3042 87.3798 48.0961 89.6024H61.7919C62.0568 85.4316 63.4283 83.0009 64.5633 81.0148C65.6604 79.0949 66.4549 77.7047 66.4549 74.5174C66.4549 71.3302 65.6604 69.9399 64.5633 68.02C63.3337 65.8731 61.8203 63.1872 61.7541 58.3448H56.7222L65.1402 46.135L73.5582 58.3448H68.8196C68.8763 61.2862 69.6424 62.6575 70.7018 64.5112C71.9598 66.7149 73.5204 69.4481 73.5204 74.5174C73.5204 79.5867 71.9598 82.32 70.7018 84.5236C69.7843 86.1314 69.0844 87.3798 68.8763 89.6024H74.1352L76.0269 89.1674C83.3004 87.4933 88.739 80.9865 88.739 73.2028V39.9497H73.7379L73.7758 39.9592ZM29.6049 36.1383H21.6031V28.1371H29.6049V36.1383ZM43.679 36.1383H35.6772V28.1371H43.679V36.1383Z" fill="#1B1B1B"/>
<path d="M204.845 23.6544C203.852 23.6544 203.048 22.8505 203.048 21.8575V15.1993C203.048 14.2062 203.852 13.4023 204.845 13.4023C205.838 13.4023 206.642 14.2062 206.642 15.1993V21.8575C206.642 22.8505 205.838 23.6544 204.845 23.6544ZM216.734 27.5226L221.445 22.8127C222.145 22.1129 222.145 20.9779 221.445 20.2781C220.745 19.5782 219.61 19.5782 218.91 20.2781L214.2 24.988C213.5 25.6878 213.5 26.8228 214.2 27.5226C214.55 27.8726 215.013 28.0523 215.467 28.0523C215.921 28.0523 216.384 27.882 216.734 27.5321V27.5226ZM228.33 36.8668C228.33 35.8737 227.527 35.0698 226.533 35.0698H219.865C218.872 35.0698 218.068 35.8737 218.068 36.8668C218.068 37.8598 218.872 38.6637 219.865 38.6637H226.533C227.527 38.6637 228.33 37.8598 228.33 36.8668ZM221.454 53.4461C222.154 52.7462 222.154 51.6113 221.454 50.9114L216.744 46.2015C216.044 45.5016 214.909 45.5016 214.209 46.2015C213.509 46.9014 213.509 48.0363 214.209 48.7362L218.919 53.4461C219.269 53.796 219.733 53.9662 220.187 53.9662C220.641 53.9662 221.104 53.7865 221.454 53.4366V53.4461ZM195.491 27.5226C196.191 26.8228 196.191 25.6878 195.491 24.988L190.78 20.2781C190.081 19.5782 188.946 19.5782 188.246 20.2781C187.546 20.9779 187.546 22.1129 188.246 22.8127L192.956 27.5226C193.306 27.8726 193.769 28.0428 194.223 28.0428C194.677 28.0428 195.141 27.8726 195.491 27.5132V27.5226ZM204.855 25.7635C199.766 25.7635 195.481 29.1872 194.167 33.8498H203.975C206.056 33.8498 207.806 35.3914 207.948 37.3586L208.685 47.2607C212.923 45.7002 215.959 41.6334 215.959 36.8573C215.959 30.7288 210.984 25.7635 204.845 25.7635H204.855Z" fill="#1B1B1B"/>
<path d="M156.512 43.0798H168.563L168.127 54.1452H155.737L156.512 43.0798ZM170.842 68.6911H183.696L183.507 56.8123H171.031L170.842 68.6911ZM154.942 68.6911H167.796L168.071 56.8123H155.595L154.942 68.6911ZM171.078 54.1358H183.469V43.0703H171.428L171.078 54.1358ZM198.375 43.0798H186.325L186.401 54.1452H198.792L198.366 43.0798H198.375ZM198.952 56.8028H186.477L186.751 68.6816H199.605L198.962 56.8028H198.952Z" fill="#1B1B1B"/>
<path d="M205.498 37.5475C205.451 36.8666 204.76 36.3086 203.975 36.3086H151.065C150.27 36.3086 149.589 36.8571 149.542 37.5475L146.005 75.2363C145.938 76.0686 146.6 76.7401 147.48 76.7401H169.329V80.9582H165.517V84.5048H189.04V80.9582H185.229V76.7401H206.86C207.74 76.7401 208.392 76.0686 208.336 75.2363L205.517 37.5475H205.498ZM151.717 71.5573L153.817 40.5929H201.09L202.831 71.5573H151.727H151.717Z" fill="#1B1B1B"/>
<path d="M342.333 85.2532H339.713L329.072 37.7758C330.15 37.3123 330.907 36.2436 330.907 34.9952C330.907 33.3212 329.554 31.9688 327.88 31.9688H309.606C307.932 31.9688 306.58 33.3212 306.58 34.9952C306.58 36.1774 307.27 37.1988 308.263 37.6906L299.562 85.2437H297.027C295.353 85.2437 294 86.5962 294 88.2702C294 89.9442 295.353 91.2966 297.027 91.2966H342.323C343.997 91.2966 345.35 89.9442 345.35 88.2702C345.35 86.5962 343.997 85.2437 342.323 85.2437L342.333 85.2532ZM329.044 65.2692L312.964 58.715L325.809 50.8462L329.044 65.2692ZM322.943 38.05L324.418 44.6136L311.744 52.3784L314.364 38.05H322.943ZM325.516 70.3668L306.542 80.7513L309.625 63.8883L325.516 70.3668ZM331.049 74.235L333.517 85.2532H310.921L331.049 74.235Z" fill="#1B1B1B"/>
<path d="M327.729 17.0906C328.221 22.0086 325.724 28.3925 318.573 28.6384C314.336 28.7897 310.666 26.0186 309.143 22.4625C307.601 18.8403 308.159 13.2981 312.179 8.399C312.453 9.6947 312.841 10.7161 313.324 11.5484C315.187 8.47467 317.684 5.59008 316.785 0.199219C323.472 6.37507 327.19 11.7754 327.729 17.0811V17.0906ZM318.573 27.6548C322.177 27.5318 323.435 24.3162 323.189 21.8383C322.924 19.1713 321.051 16.4475 317.674 13.3359C318.128 16.0503 316.87 17.5067 315.934 19.0483C315.698 18.6322 315.499 18.112 315.357 17.4594C313.333 19.9184 313.049 22.7179 313.825 24.5432C314.591 26.3402 316.445 27.7305 318.573 27.6548Z" fill="#1B1B1B"/>
<path d="M323.189 21.8384C323.435 24.3163 322.177 27.5319 318.573 27.6548C316.445 27.7399 314.591 26.3402 313.825 24.5433C313.049 22.7179 313.333 19.9185 315.357 17.4595C315.49 18.1026 315.698 18.6228 315.934 19.0484C316.871 17.5068 318.129 16.0503 317.675 13.3359C321.051 16.4475 322.924 19.1713 323.189 21.8384Z" fill="white"/>
<path d="M465.289 85L467.69 76.1045L482.211 85H491C491 85 482.007 51.7363 481.086 48.3468C480.422 45.8968 478.207 44 475.496 44C472.785 44 470.49 45.8792 469.887 48.4082C469.861 48.4609 460 85 460 85H465.28H465.289ZM480.696 66.4099L484.488 80.4513L471.491 72.4954L480.705 66.4099H480.696ZM475.496 47.8989C476.585 47.8989 477.471 48.777 477.471 49.8571C477.471 50.9372 476.585 51.8154 475.496 51.8154C474.406 51.8154 473.52 50.9372 473.52 49.8571C473.52 48.777 474.406 47.8989 475.496 47.8989ZM473.387 55.003C474.043 55.2577 474.751 55.4069 475.504 55.4069C476.258 55.4069 476.966 55.2576 477.631 54.9942L479.314 61.2377L470.056 67.3495L473.387 54.9942V55.003Z" fill="#1B1B1B"/>
<path d="M440.791 58.3064C440.992 58.3325 441.245 58.3586 441.507 58.3934V80H444.728V58.7935C444.938 58.8196 445.121 58.8457 445.261 58.8631C445.444 58.8892 445.619 58.7935 445.715 58.6283L456.243 39.9965L468.317 46.0245C469.688 43.1888 472.551 41.3187 475.825 41.3187C479.588 41.3187 482.914 43.9021 483.918 47.5901C484.145 48.4339 484.887 51.1651 485.856 54.7749L503.779 63.7168V71.58H507V50.0952L461.281 27.4101L459.377 17.0504C459.343 16.946 459.281 16.8677 459.185 16.8243C458.6 16.5372 456.296 15.4151 455.379 15.0237C455.283 14.9802 455.196 14.9976 455.108 15.0672C451.843 17.6854 447.4 22.9305 444.44 29.1236C439.194 40.1183 439.77 50.017 440.398 57.8976C440.416 58.1151 440.582 58.289 440.8 58.3151L440.791 58.3064Z" fill="#1B1B1B"/>
<path d="M514.547 87.9249H511.538V77.0166C511.538 76.4508 511.085 76 510.536 76H499.383C498.825 76 498.38 76.4597 498.38 77.0166V87.9249H445.74V85.0961C445.74 84.7425 445.461 84.4597 445.112 84.4597H440.325C439.976 84.4597 439.697 84.7425 439.697 85.0961V87.9249H436.453C436.209 87.9249 436 88.1282 436 88.3845V91.5403C436 91.7879 436.201 92 436.453 92H514.547C514.791 92 515 91.7967 515 91.5403V88.3845C515 88.137 514.799 87.9249 514.547 87.9249Z" fill="#1B1B1B"/>
<path d="M425.114 89.2557H424.707H420.253C419.713 89.2557 419.279 88.825 419.279 88.2888C419.279 87.7526 419.713 87.322 420.253 87.322H424.707V77.3722H425.114C426.159 77.3722 427 76.5372 427 75.5C427 74.5244 426.247 73.7333 425.291 73.6454H420.253C419.713 73.6454 419.279 73.2147 419.279 72.6786C419.279 72.1424 419.713 71.7117 420.253 71.7117H424.707V61.7443H425.114C426.159 61.7443 427 60.9093 427 59.8722C427 58.835 426.159 58 425.114 58H395.886C394.841 58 394 58.835 394 59.8722C394 60.9093 394.841 61.7443 395.886 61.7443H396.293V71.7117H400.712C401.252 71.7117 401.686 72.1424 401.686 72.6786C401.686 73.2147 401.252 73.6454 400.712 73.6454H395.709C394.753 73.7333 394 74.5244 394 75.5C394 76.5372 394.841 77.3722 395.886 77.3722H396.293V87.322H400.712C401.252 87.322 401.686 87.7526 401.686 88.2888C401.686 88.825 401.252 89.2557 400.712 89.2557H396.293H395.886C394.841 89.2557 394 90.0907 394 91.1278C394 92.165 394.841 93 395.886 93H425.114C426.159 93 427 92.165 427 91.1278C427 90.0907 426.159 89.2557 425.114 89.2557Z" fill="#1B1B1B"/>
<path d="M414.547 73.0358C415.812 74.971 417 76.7945 417 78.9706C417 82.2992 414.308 85 411 85C407.692 85 405 82.2992 405 78.9706C405 76.8375 406.094 75.1774 407.376 73.2594C408.701 71.2725 410.205 69.5609 410.692 66.2752C410.709 66.1204 410.838 66 410.991 66C411.137 66 411.273 66.1118 411.291 66.2666C411.769 69.3287 413.239 71.0575 414.538 73.0358H414.547ZM411.838 82.3164C411.838 81.8434 411.462 81.4563 410.991 81.4563C409.624 81.4563 408.513 80.3468 408.513 78.9706C408.513 78.4975 408.137 78.1104 407.667 78.1104C407.197 78.1104 406.812 78.4975 406.812 78.9706C406.812 81.2929 408.692 83.1679 410.991 83.1679C411.462 83.1679 411.838 82.7895 411.838 82.3164Z" fill="white"/>
<path d="M410.99 81.3078C411.551 81.3078 412 81.6905 412 82.1582C412 82.6259 411.551 83 410.99 83C408.235 83 406 81.1463 406 78.8503C406 78.3827 406.459 78 407.02 78C407.582 78 408.031 78.3827 408.031 78.8503C408.031 80.2109 409.367 81.3078 410.99 81.3078Z" fill="#1B1B1B"/>
<path d="M800.859 85.603L788.288 62.9141C788.128 62.6303 787.919 62.3844 787.664 62.1858L781.128 57.1544L769.561 35.6382C769.419 35.3639 769.22 35.1275 768.984 34.9383L750.559 19.702C750.086 19.3143 749.49 19.1251 748.885 19.1629L739.852 19.7966C739.275 19.8344 738.726 20.0898 738.329 20.5059L728.019 31.0607C727.915 31.1742 727.811 31.2971 727.726 31.4201L714.995 50.9501H714.059L711.978 49.3045C711.562 48.9735 711.041 48.7938 710.512 48.7938H708.223C707.362 48.7938 706.577 49.2572 706.161 50.0044L686.298 85.5935C685.891 86.3218 685.901 87.2203 686.326 87.939C686.752 88.6578 687.528 89.1023 688.37 89.1023H725.778C726.288 88.3552 727.13 87.8539 728.095 87.8066L727.272 84.3735H692.389L709.613 53.5131H709.689L711.77 55.1588C712.186 55.4898 712.706 55.6695 713.236 55.6695H716.272C717.066 55.6695 717.814 55.2628 718.249 54.5913L731.547 34.1817L741.072 24.4403L748.27 23.9391L765.607 38.2769L777.194 59.8309C777.354 60.1241 777.572 60.3794 777.837 60.5875L784.382 65.6284L794.767 84.3735H766.373L765.541 87.8539C766.335 87.9958 767.007 88.4687 767.451 89.1023H798.778C799.62 89.1023 800.395 88.6578 800.811 87.939C801.227 87.2203 801.246 86.3218 800.84 85.5935L800.859 85.603Z" fill="#1B1B1B"/>
<path d="M763.735 66.9422L760.027 65.325L757.937 61.2487C757.814 61.0123 757.606 60.8231 757.35 60.738L748.119 57.4089C747.731 57.2671 747.315 57.3616 747.022 57.6454L742.983 61.5797L742.151 60.9366C741.914 60.7569 741.621 60.6718 741.318 60.7286L735.255 61.7594C734.99 61.8067 734.754 61.9486 734.584 62.1661L730.952 66.9612C730.602 67.4246 730.696 68.1244 731.16 68.446C731.614 68.7676 732.276 68.7203 732.645 68.2379C733.014 67.7651 736.021 63.7739 736.021 63.7739L741.214 62.8944L745.896 66.5545C746.359 66.9139 747.022 66.8382 747.381 66.3748C747.74 65.9114 747.655 65.2493 747.201 64.8899L744.657 62.9038L748.024 59.622L756.244 62.5823L758.315 66.6207C758.428 66.8382 758.608 67.0084 758.835 67.1125C758.835 67.1125 762.202 68.6068 762.883 68.8811C763.564 69.1553 764.037 68.777 764.274 68.3325C764.51 67.888 764.264 67.1692 763.725 66.9422H763.735Z" fill="#1B1B1B"/>
<path d="M768.03 71.1133H725.666C725.06 71.1133 724.568 71.6051 724.568 72.2104V75.7097C724.568 76.315 725.06 76.8068 725.666 76.8068H735.048C735.55 76.8068 735.947 77.2135 735.947 77.7053C735.947 78.1971 735.54 78.6037 735.048 78.6037H727.832L730.48 89.6976H728.229C727.623 89.6976 727.132 90.1894 727.132 90.7947V96.0437C727.132 96.649 727.623 97.1408 728.229 97.1408H731.133C731.189 93.1685 734.443 89.9435 738.444 89.9435C742.814 89.9435 745.755 93.5752 745.755 97.1408H748.073C748.129 93.1685 751.392 89.9435 755.384 89.9435C759.952 89.9435 762.695 93.7738 762.695 97.1408H765.013C765.618 97.1408 766.11 96.649 766.11 96.0437V90.7947C766.11 90.1894 765.618 89.6976 765.013 89.6976H763.168L766.242 76.8068H768.03C768.635 76.8068 769.127 76.315 769.127 75.7097V72.2104C769.127 71.6051 768.635 71.1133 768.03 71.1133Z" fill="#1B1B1B"/>
<path d="M738.462 91.6465C735.36 91.6465 732.835 94.1433 732.825 97.2454C732.825 100.348 735.332 102.863 738.434 102.873C741.536 102.882 744.062 100.376 744.071 97.2738C744.081 94.1717 741.574 91.6559 738.462 91.6465ZM738.444 99.3734C737.271 99.3734 736.325 98.4182 736.325 97.2549C736.325 96.0821 737.28 95.1364 738.453 95.1458C739.626 95.1458 740.572 96.101 740.572 97.2738C740.572 98.4465 739.616 99.3828 738.444 99.3828V99.3734ZM755.402 91.6465C752.291 91.6465 749.775 94.1433 749.765 97.2454C749.765 100.348 752.272 102.863 755.374 102.873C758.476 102.882 761.002 100.376 761.011 97.2738C761.021 94.1717 758.514 91.6559 755.402 91.6465ZM755.384 99.3734C754.211 99.3734 753.265 98.4182 753.265 97.2549C753.265 96.0821 754.22 95.1364 755.393 95.1458C756.566 95.1458 757.512 96.101 757.512 97.2738C757.512 98.4465 756.556 99.3828 755.384 99.3828V99.3734Z" fill="#1B1B1B"/>
<path d="M605.975 49.7106C605.975 51.6399 604.414 53.2004 602.485 53.2004C600.555 53.2004 598.995 51.6399 598.995 49.7106C598.995 47.7812 600.555 46.2207 602.485 46.2207C604.414 46.2207 605.975 47.7812 605.975 49.7106Z" fill="#1B1B1B"/>
<path d="M612.729 17.2138C613.977 15.9371 615.065 16.7788 614.63 18.1596L606.373 44.9248C605.304 44.0547 603.961 43.5061 602.476 43.5061C601.757 43.5061 601.076 43.648 600.442 43.875C600.272 42.097 600.111 40.1108 600.054 38.7111C600.007 37.5289 600.054 36.3278 600.622 35.2969C602.362 32.2137 603.743 29.8398 607.167 24.884C609.768 21.1104 611.981 17.961 612.719 17.2044" fill="#1B1B1B"/>
<path d="M610.231 90.4447L605.209 56.2269L625.62 74.6693C626.774 75.7191 628.098 75.0476 627.417 73.2412C627.011 72.1725 624.939 68.588 622.442 64.3321C619.16 58.7426 617.467 56.312 615.244 53.2193C614.507 52.1884 613.343 51.6021 612.17 51.1103C611.206 50.7036 609.948 50.2307 608.661 49.7578C608.642 53.1531 605.871 55.9053 602.466 55.9053C601.53 55.9053 600.65 55.6783 599.846 55.3095L594.682 90.4541H610.212L610.231 90.4447Z" fill="#1B1B1B"/>
<path d="M568.056 52.784C569.049 53.1718 572.814 53.9757 577.297 54.9026C583.199 56.1226 585.933 56.4725 589.451 56.8697C590.624 57.0022 591.75 56.5671 592.818 56.0659C594.152 55.4416 596.044 54.4486 597.68 53.569C596.819 52.5098 596.28 51.1762 596.28 49.7008C596.28 49.0293 596.413 48.3862 596.621 47.7715L568.189 50.6466" fill="#1B1B1B"/>
<path d="M648.548 65.6084C648.548 66.7812 647.593 67.7364 646.42 67.7364C645.247 67.7364 644.292 66.7812 644.292 65.6084C644.292 64.4357 645.247 63.4805 646.42 63.4805C647.593 63.4805 648.548 64.4357 648.548 65.6084Z" fill="#1B1B1B"/>
<path d="M652.671 45.795C653.437 45.01 654.089 45.5302 653.834 46.3719L648.802 62.6958C648.15 62.1662 647.327 61.8257 646.428 61.8257C645.993 61.8257 645.577 61.9109 645.189 62.0527C645.085 60.9651 644.99 59.7545 644.953 58.9033C644.924 58.1845 644.953 57.4468 645.303 56.8226C646.362 54.9406 647.204 53.4935 649.294 50.4766C650.883 48.1783 652.226 46.2584 652.68 45.795" fill="#1B1B1B"/>
<path d="M651.149 90.4441L648.085 69.5806L660.532 80.8257C661.241 81.4594 662.045 81.0527 661.629 79.9556C661.383 79.303 660.116 77.1183 658.593 74.5269C656.588 71.1127 655.557 69.6373 654.204 67.7458C653.75 67.1121 653.05 66.7622 652.331 66.4595C651.745 66.2136 650.979 65.9204 650.194 65.6367C650.175 67.7079 648.491 69.3819 646.42 69.3819C645.852 69.3819 645.313 69.2401 644.821 69.0131L641.672 90.4347H651.14L651.149 90.4441Z" fill="#1B1B1B"/>
<path d="M625.431 67.4809C626.036 67.7174 628.325 68.2091 631.068 68.7766C634.672 69.5238 636.337 69.7318 638.474 69.9777C639.193 70.0629 639.874 69.798 640.527 69.4859C641.34 69.1076 642.494 68.5023 643.487 67.9632C642.967 67.3107 642.636 66.4973 642.636 65.6083C642.636 65.1922 642.721 64.8044 642.844 64.4355L625.507 66.1852" fill="#1B1B1B"/>
<path d="M561.975 65.7591C561.975 66.9224 561.029 67.8777 559.856 67.8777C558.683 67.8777 557.737 66.9319 557.737 65.7591C557.737 64.5864 558.683 63.6406 559.856 63.6406C561.029 63.6406 561.975 64.5864 561.975 65.7591Z" fill="#1B1B1B"/>
<path d="M566.07 46.0779C566.827 45.3024 567.479 45.8131 567.224 46.6548L562.22 62.8747C561.577 62.3451 560.754 62.0141 559.856 62.0141C559.421 62.0141 559.014 62.0992 558.617 62.2411C558.513 61.1629 558.418 59.9618 558.38 59.1106C558.352 58.3918 558.38 57.6636 558.73 57.0394C559.78 55.1762 560.622 53.7292 562.693 50.7311C564.273 48.4424 565.607 46.5414 566.061 46.0779" fill="#1B1B1B"/>
<path d="M564.556 90.4452L561.511 69.714L573.873 80.8835C574.573 81.5171 575.377 81.1105 574.961 80.0228C574.715 79.3702 573.457 77.2044 571.944 74.6225C569.957 71.2367 568.926 69.7613 567.583 67.8887C567.139 67.2645 566.429 66.9051 565.72 66.6119C565.133 66.366 564.377 66.0728 563.601 65.7891C563.582 67.8414 561.908 69.5154 559.846 69.5154C559.279 69.5154 558.74 69.383 558.257 69.156L555.126 90.4452H564.538H564.556Z" fill="#1B1B1B"/>
<path d="M539 67.6222C539.605 67.8586 541.885 68.3409 544.599 68.9084C548.175 69.6461 549.83 69.8636 551.958 70.1001C552.667 70.1852 553.348 69.9204 554.001 69.6177C554.815 69.2394 555.95 68.6436 556.943 68.1045C556.422 67.4614 556.101 66.648 556.101 65.759C556.101 65.3523 556.186 64.9646 556.309 64.5957L539.085 66.3359" fill="#1B1B1B"/>
<path d="M9.99325 133.391C9.05458 133.391 8.21192 133.183 7.46525 132.767C6.71858 132.351 6.13192 131.743 5.70525 130.943C5.27858 130.133 5.06525 129.151 5.06525 127.999C5.06525 126.858 5.28392 125.882 5.72125 125.071C6.15858 124.25 6.75058 123.626 7.49725 123.199C8.24392 122.762 9.08125 122.543 10.0093 122.543C10.7559 122.543 11.3853 122.682 11.8973 122.959C12.4199 123.226 12.8466 123.53 13.1773 123.871L12.1853 125.071C11.9186 124.815 11.6199 124.602 11.2893 124.431C10.9693 124.25 10.5639 124.159 10.0733 124.159C9.14525 124.159 8.39325 124.501 7.81725 125.183C7.25192 125.855 6.96925 126.778 6.96925 127.951C6.96925 129.146 7.24125 130.085 7.78525 130.767C8.32925 131.439 9.12392 131.775 10.1693 131.775C10.4679 131.775 10.7506 131.738 11.0173 131.663C11.2839 131.578 11.5026 131.461 11.6733 131.311V129.055H9.68925V127.535H13.3373V132.143C12.9853 132.495 12.5159 132.794 11.9293 133.039C11.3533 133.274 10.7079 133.391 9.99325 133.391ZM18.8561 133.391C18.1308 133.391 17.4748 133.231 16.8881 132.911C16.3015 132.581 15.8375 132.111 15.4961 131.503C15.1548 130.885 14.9841 130.143 14.9841 129.279C14.9841 128.426 15.1548 127.69 15.4961 127.071C15.8481 126.453 16.3015 125.978 16.8561 125.647C17.4108 125.317 17.9921 125.151 18.6001 125.151C19.3148 125.151 19.9121 125.311 20.3921 125.631C20.8721 125.941 21.2348 126.378 21.4801 126.943C21.7255 127.498 21.8481 128.143 21.8481 128.879C21.8481 129.263 21.8215 129.562 21.7681 129.775H16.7761C16.8615 130.469 17.1121 131.007 17.5281 131.391C17.9441 131.775 18.4668 131.967 19.0961 131.967C19.4375 131.967 19.7521 131.919 20.0401 131.823C20.3388 131.717 20.6321 131.573 20.9201 131.391L21.5441 132.543C21.1708 132.789 20.7548 132.991 20.2961 133.151C19.8375 133.311 19.3575 133.391 18.8561 133.391ZM16.7601 128.527H20.2481C20.2481 127.919 20.1148 127.445 19.8481 127.103C19.5815 126.751 19.1815 126.575 18.6481 126.575C18.1895 126.575 17.7788 126.746 17.4161 127.087C17.0641 127.418 16.8455 127.898 16.7601 128.527ZM26.8215 133.391C26.1708 133.391 25.5628 133.231 24.9975 132.911C24.4322 132.581 23.9735 132.111 23.6215 131.503C23.2695 130.885 23.0935 130.143 23.0935 129.279C23.0935 128.405 23.2695 127.663 23.6215 127.055C23.9735 126.437 24.4322 125.967 24.9975 125.647C25.5628 125.317 26.1708 125.151 26.8215 125.151C27.4828 125.151 28.0962 125.317 28.6615 125.647C29.2268 125.967 29.6855 126.437 30.0375 127.055C30.3895 127.663 30.5655 128.405 30.5655 129.279C30.5655 130.143 30.3895 130.885 30.0375 131.503C29.6855 132.111 29.2268 132.581 28.6615 132.911C28.0962 133.231 27.4828 133.391 26.8215 133.391ZM26.8215 131.887C27.3975 131.887 27.8508 131.647 28.1815 131.167C28.5122 130.687 28.6775 130.058 28.6775 129.279C28.6775 128.49 28.5122 127.855 28.1815 127.375C27.8508 126.895 27.3975 126.655 26.8215 126.655C26.2455 126.655 25.7922 126.895 25.4615 127.375C25.1415 127.855 24.9815 128.49 24.9815 129.279C24.9815 130.058 25.1415 130.687 25.4615 131.167C25.7922 131.647 26.2455 131.887 26.8215 131.887ZM34.7954 133.391C33.8887 133.391 33.2434 133.13 32.8594 132.607C32.486 132.074 32.2994 131.386 32.2994 130.543V126.799H31.1794V125.423L32.3954 125.343L32.6194 123.199H34.1554V125.343H36.1554V126.799H34.1554V130.543C34.1554 131.461 34.5234 131.919 35.2594 131.919C35.398 131.919 35.542 131.903 35.6914 131.871C35.8407 131.829 35.9687 131.786 36.0754 131.743L36.3954 133.103C36.182 133.178 35.9367 133.242 35.6594 133.295C35.3927 133.359 35.1047 133.391 34.7954 133.391ZM37.8086 133.199V121.903H39.6486V124.815L39.5846 126.335C39.9153 126.026 40.2833 125.754 40.6886 125.519C41.094 125.274 41.5633 125.151 42.0966 125.151C42.9393 125.151 43.5526 125.423 43.9366 125.967C44.3206 126.511 44.5126 127.279 44.5126 128.271V133.199H42.6726V128.511C42.6726 127.861 42.5766 127.402 42.3846 127.135C42.1926 126.869 41.878 126.735 41.4406 126.735C41.0993 126.735 40.7953 126.821 40.5286 126.991C40.2726 127.151 39.9793 127.391 39.6486 127.711V133.199H37.8086ZM50.0905 133.391C49.3652 133.391 48.7092 133.231 48.1225 132.911C47.5358 132.581 47.0718 132.111 46.7305 131.503C46.3892 130.885 46.2185 130.143 46.2185 129.279C46.2185 128.426 46.3892 127.69 46.7305 127.071C47.0825 126.453 47.5358 125.978 48.0905 125.647C48.6452 125.317 49.2265 125.151 49.8345 125.151C50.5492 125.151 51.1465 125.311 51.6265 125.631C52.1065 125.941 52.4692 126.378 52.7145 126.943C52.9598 127.498 53.0825 128.143 53.0825 128.879C53.0825 129.263 53.0558 129.562 53.0025 129.775H48.0105C48.0958 130.469 48.3465 131.007 48.7625 131.391C49.1785 131.775 49.7012 131.967 50.3305 131.967C50.6718 131.967 50.9865 131.919 51.2745 131.823C51.5732 131.717 51.8665 131.573 52.1545 131.391L52.7785 132.543C52.4052 132.789 51.9892 132.991 51.5305 133.151C51.0718 133.311 50.5918 133.391 50.0905 133.391ZM47.9945 128.527H51.4825C51.4825 127.919 51.3492 127.445 51.0825 127.103C50.8158 126.751 50.4158 126.575 49.8825 126.575C49.4238 126.575 49.0132 126.746 48.6505 127.087C48.2985 127.418 48.0798 127.898 47.9945 128.527ZM54.8399 133.199V125.343H56.3599L56.4879 126.735H56.5519C56.8292 126.223 57.1652 125.834 57.5599 125.567C57.9545 125.29 58.3599 125.151 58.7759 125.151C59.1492 125.151 59.4479 125.205 59.6719 125.311L59.3519 126.911C59.2132 126.869 59.0852 126.837 58.9679 126.815C58.8505 126.794 58.7065 126.783 58.5359 126.783C58.2265 126.783 57.9012 126.906 57.5599 127.151C57.2185 127.386 56.9252 127.802 56.6799 128.399V133.199H54.8399ZM60.8086 133.199V125.343H62.3286L62.4566 126.415H62.5206C62.8513 126.063 63.2086 125.765 63.5926 125.519C63.9873 125.274 64.43 125.151 64.9206 125.151C65.4966 125.151 65.9553 125.279 66.2966 125.535C66.6486 125.781 66.9153 126.122 67.0966 126.559C67.47 126.154 67.8593 125.818 68.2646 125.551C68.6806 125.285 69.134 125.151 69.6246 125.151C70.4566 125.151 71.07 125.423 71.4646 125.967C71.8593 126.511 72.0566 127.279 72.0566 128.271V133.199H70.2006V128.511C70.2006 127.861 70.0993 127.402 69.8966 127.135C69.7046 126.869 69.406 126.735 69.0006 126.735C68.51 126.735 67.9606 127.061 67.3526 127.711V133.199H65.5126V128.511C65.5126 127.861 65.4113 127.402 65.2086 127.135C65.0166 126.869 64.7126 126.735 64.2966 126.735C63.806 126.735 63.2566 127.061 62.6486 127.711V133.199H60.8086ZM76.197 133.391C75.5143 133.391 74.9543 133.178 74.517 132.751C74.0903 132.325 73.877 131.77 73.877 131.087C73.877 130.245 74.245 129.594 74.981 129.135C75.717 128.666 76.8903 128.346 78.501 128.175C78.4903 127.759 78.3783 127.402 78.165 127.103C77.9623 126.794 77.5943 126.639 77.061 126.639C76.677 126.639 76.2983 126.714 75.925 126.863C75.5623 127.013 75.205 127.194 74.853 127.407L74.181 126.175C74.6183 125.898 75.109 125.658 75.653 125.455C76.2077 125.253 76.7943 125.151 77.413 125.151C78.3943 125.151 79.125 125.445 79.605 126.031C80.0957 126.607 80.341 127.445 80.341 128.543V133.199H78.821L78.693 132.335H78.629C78.277 132.634 77.8983 132.885 77.493 133.087C77.0983 133.29 76.6663 133.391 76.197 133.391ZM76.789 131.951C77.109 131.951 77.397 131.877 77.653 131.727C77.9197 131.567 78.2023 131.354 78.501 131.087V129.327C77.4343 129.466 76.693 129.674 76.277 129.951C75.861 130.218 75.653 130.549 75.653 130.943C75.653 131.295 75.7597 131.551 75.973 131.711C76.1863 131.871 76.4583 131.951 76.789 131.951ZM84.335 133.391C83.6843 133.391 83.2203 133.194 82.943 132.799C82.6763 132.405 82.543 131.866 82.543 131.183V121.903H84.383V131.279C84.383 131.503 84.4257 131.663 84.511 131.759C84.5963 131.845 84.687 131.887 84.783 131.887C84.8257 131.887 84.863 131.887 84.895 131.887C84.9377 131.877 84.9963 131.866 85.071 131.855L85.311 133.231C85.2043 133.274 85.0657 133.311 84.895 133.343C84.735 133.375 84.5483 133.391 84.335 133.391Z" fill="#1B1B1B"/>
<path d="M173.853 133.065C173.149 133.065 172.466 132.932 171.805 132.665C171.154 132.398 170.578 132.02 170.077 131.529L171.165 130.265C171.538 130.617 171.965 130.905 172.445 131.129C172.925 131.342 173.405 131.449 173.885 131.449C174.482 131.449 174.935 131.326 175.245 131.081C175.554 130.836 175.709 130.51 175.709 130.105C175.709 129.668 175.554 129.353 175.245 129.161C174.946 128.969 174.562 128.772 174.093 128.569L172.653 127.945C172.311 127.796 171.975 127.604 171.645 127.369C171.325 127.134 171.058 126.836 170.845 126.473C170.642 126.11 170.541 125.673 170.541 125.161C170.541 124.606 170.69 124.11 170.989 123.673C171.298 123.225 171.714 122.873 172.237 122.617C172.77 122.35 173.378 122.217 174.061 122.217C174.669 122.217 175.255 122.34 175.821 122.585C176.386 122.82 176.871 123.14 177.277 123.545L176.333 124.729C176.002 124.452 175.65 124.233 175.277 124.073C174.914 123.913 174.509 123.833 174.061 123.833C173.57 123.833 173.17 123.945 172.861 124.169C172.562 124.382 172.413 124.681 172.413 125.065C172.413 125.332 172.487 125.556 172.637 125.737C172.797 125.908 173.005 126.057 173.261 126.185C173.517 126.302 173.789 126.42 174.077 126.537L175.501 127.129C176.119 127.396 176.626 127.748 177.021 128.185C177.415 128.612 177.613 129.204 177.613 129.961C177.613 130.526 177.463 131.044 177.165 131.513C176.866 131.982 176.434 132.361 175.869 132.649C175.314 132.926 174.642 133.065 173.853 133.065ZM182.572 133.065C181.921 133.065 181.313 132.905 180.748 132.585C180.182 132.254 179.724 131.785 179.372 131.177C179.02 130.558 178.844 129.817 178.844 128.953C178.844 128.078 179.02 127.337 179.372 126.729C179.724 126.11 180.182 125.641 180.748 125.321C181.313 124.99 181.921 124.825 182.572 124.825C183.233 124.825 183.846 124.99 184.412 125.321C184.977 125.641 185.436 126.11 185.788 126.729C186.14 127.337 186.316 128.078 186.316 128.953C186.316 129.817 186.14 130.558 185.788 131.177C185.436 131.785 184.977 132.254 184.412 132.585C183.846 132.905 183.233 133.065 182.572 133.065ZM182.572 131.561C183.148 131.561 183.601 131.321 183.932 130.841C184.262 130.361 184.428 129.732 184.428 128.953C184.428 128.164 184.262 127.529 183.932 127.049C183.601 126.569 183.148 126.329 182.572 126.329C181.996 126.329 181.542 126.569 181.212 127.049C180.892 127.529 180.732 128.164 180.732 128.953C180.732 129.732 180.892 130.361 181.212 130.841C181.542 131.321 181.996 131.561 182.572 131.561ZM189.929 133.065C189.278 133.065 188.814 132.868 188.537 132.473C188.27 132.078 188.137 131.54 188.137 130.857V121.577H189.977V130.953C189.977 131.177 190.019 131.337 190.105 131.433C190.19 131.518 190.281 131.561 190.377 131.561C190.419 131.561 190.457 131.561 190.489 131.561C190.531 131.55 190.59 131.54 190.665 131.529L190.905 132.905C190.798 132.948 190.659 132.985 190.489 133.017C190.329 133.049 190.142 133.065 189.929 133.065ZM194.385 133.065C193.702 133.065 193.142 132.852 192.705 132.425C192.278 131.998 192.065 131.444 192.065 130.761C192.065 129.918 192.433 129.268 193.169 128.809C193.905 128.34 195.078 128.02 196.689 127.849C196.678 127.433 196.566 127.076 196.353 126.777C196.15 126.468 195.782 126.313 195.249 126.313C194.865 126.313 194.486 126.388 194.113 126.537C193.75 126.686 193.393 126.868 193.041 127.081L192.368 125.849C192.806 125.572 193.297 125.332 193.841 125.129C194.395 124.926 194.982 124.825 195.601 124.825C196.582 124.825 197.313 125.118 197.793 125.705C198.283 126.281 198.529 127.118 198.529 128.217V132.873H197.009L196.881 132.009H196.817C196.465 132.308 196.086 132.558 195.681 132.761C195.286 132.964 194.854 133.065 194.385 133.065ZM194.977 131.625C195.297 131.625 195.585 131.55 195.841 131.401C196.107 131.241 196.39 131.028 196.689 130.761V129.001C195.622 129.14 194.881 129.348 194.465 129.625C194.049 129.892 193.841 130.222 193.841 130.617C193.841 130.969 193.947 131.225 194.161 131.385C194.374 131.545 194.646 131.625 194.977 131.625ZM200.731 132.873V125.017H202.251L202.379 126.409H202.443C202.72 125.897 203.056 125.508 203.451 125.241C203.845 124.964 204.251 124.825 204.667 124.825C205.04 124.825 205.339 124.878 205.563 124.985L205.243 126.585C205.104 126.542 204.976 126.51 204.859 126.489C204.741 126.468 204.597 126.457 204.427 126.457C204.117 126.457 203.792 126.58 203.451 126.825C203.109 127.06 202.816 127.476 202.571 128.073V132.873H200.731Z" fill="#1B1B1B"/>
<path d="M313.118 133.065C312.18 133.065 311.337 132.857 310.59 132.441C309.844 132.025 309.257 131.417 308.83 130.617C308.404 129.806 308.19 128.825 308.19 127.673C308.19 126.532 308.409 125.556 308.846 124.745C309.284 123.924 309.876 123.3 310.622 122.873C311.369 122.436 312.206 122.217 313.134 122.217C313.881 122.217 314.51 122.356 315.022 122.633C315.545 122.9 315.972 123.204 316.302 123.545L315.31 124.745C315.044 124.489 314.745 124.276 314.414 124.105C314.094 123.924 313.689 123.833 313.198 123.833C312.27 123.833 311.518 124.174 310.942 124.857C310.377 125.529 310.094 126.452 310.094 127.625C310.094 128.82 310.366 129.758 310.91 130.441C311.454 131.113 312.249 131.449 313.294 131.449C313.593 131.449 313.876 131.412 314.142 131.337C314.409 131.252 314.628 131.134 314.798 130.985V128.729H312.814V127.209H316.462V131.817C316.11 132.169 315.641 132.468 315.054 132.713C314.478 132.948 313.833 133.065 313.118 133.065ZM320.525 133.065C319.842 133.065 319.282 132.852 318.845 132.425C318.418 131.998 318.205 131.444 318.205 130.761C318.205 129.918 318.573 129.268 319.309 128.809C320.045 128.34 321.218 128.02 322.829 127.849C322.818 127.433 322.706 127.076 322.493 126.777C322.29 126.468 321.922 126.313 321.389 126.313C321.005 126.313 320.626 126.388 320.253 126.537C319.89 126.686 319.533 126.868 319.181 127.081L318.509 125.849C318.946 125.572 319.437 125.332 319.981 125.129C320.536 124.926 321.122 124.825 321.741 124.825C322.722 124.825 323.453 125.118 323.933 125.705C324.424 126.281 324.669 127.118 324.669 128.217V132.873H323.149L323.021 132.009H322.957C322.605 132.308 322.226 132.558 321.821 132.761C321.426 132.964 320.994 133.065 320.525 133.065ZM321.117 131.625C321.437 131.625 321.725 131.55 321.981 131.401C322.248 131.241 322.53 131.028 322.829 130.761V129.001C321.762 129.14 321.021 129.348 320.605 129.625C320.189 129.892 319.981 130.222 319.981 130.617C319.981 130.969 320.088 131.225 320.301 131.385C320.514 131.545 320.786 131.625 321.117 131.625ZM329.063 133.065C328.53 133.065 327.996 132.964 327.463 132.761C326.93 132.548 326.471 132.286 326.087 131.977L326.951 130.793C327.303 131.06 327.655 131.273 328.007 131.433C328.359 131.593 328.732 131.673 329.127 131.673C329.554 131.673 329.868 131.582 330.071 131.401C330.274 131.22 330.375 130.996 330.375 130.729C330.375 130.505 330.29 130.324 330.119 130.185C329.959 130.036 329.751 129.908 329.495 129.801C329.239 129.684 328.972 129.572 328.695 129.465C328.354 129.337 328.012 129.182 327.671 129.001C327.34 128.809 327.068 128.569 326.855 128.281C326.642 127.982 326.535 127.614 326.535 127.177C326.535 126.484 326.791 125.918 327.303 125.481C327.815 125.044 328.508 124.825 329.383 124.825C329.938 124.825 330.434 124.921 330.871 125.113C331.308 125.305 331.687 125.524 332.007 125.769L331.159 126.889C330.882 126.686 330.599 126.526 330.311 126.409C330.034 126.281 329.74 126.217 329.431 126.217C329.036 126.217 328.743 126.302 328.551 126.473C328.359 126.633 328.263 126.836 328.263 127.081C328.263 127.39 328.423 127.625 328.743 127.785C329.063 127.945 329.436 128.1 329.863 128.249C330.226 128.377 330.578 128.537 330.919 128.729C331.26 128.91 331.543 129.15 331.767 129.449C332.002 129.748 332.119 130.142 332.119 130.633C332.119 131.305 331.858 131.881 331.335 132.361C330.812 132.83 330.055 133.065 329.063 133.065Z" fill="#1B1B1B"/>
<path d="M450.736 133.065C449.829 133.065 449.029 132.846 448.336 132.409C447.642 131.961 447.098 131.332 446.704 130.521C446.32 129.7 446.128 128.724 446.128 127.593C446.128 126.462 446.32 125.497 446.704 124.697C447.098 123.897 447.642 123.284 448.336 122.857C449.029 122.43 449.829 122.217 450.736 122.217C451.653 122.217 452.458 122.43 453.152 122.857C453.845 123.284 454.384 123.897 454.768 124.697C455.162 125.497 455.36 126.462 455.36 127.593C455.36 128.724 455.162 129.7 454.768 130.521C454.384 131.332 453.845 131.961 453.152 132.409C452.458 132.846 451.653 133.065 450.736 133.065ZM450.736 131.449C451.557 131.449 452.213 131.102 452.704 130.409C453.194 129.705 453.44 128.766 453.44 127.593C453.44 126.42 453.194 125.502 452.704 124.841C452.213 124.169 451.557 123.833 450.736 123.833C449.914 123.833 449.258 124.169 448.768 124.841C448.277 125.502 448.032 126.42 448.032 127.593C448.032 128.766 448.277 129.705 448.768 130.409C449.258 131.102 449.914 131.449 450.736 131.449ZM457.293 132.873V125.017H459.133V132.873H457.293ZM458.221 123.641C457.89 123.641 457.624 123.545 457.421 123.353C457.218 123.161 457.117 122.905 457.117 122.585C457.117 122.276 457.218 122.025 457.421 121.833C457.624 121.641 457.89 121.545 458.221 121.545C458.552 121.545 458.818 121.641 459.021 121.833C459.224 122.025 459.325 122.276 459.325 122.585C459.325 122.905 459.224 123.161 459.021 123.353C458.818 123.545 458.552 123.641 458.221 123.641ZM463.273 133.065C462.622 133.065 462.158 132.868 461.881 132.473C461.614 132.078 461.481 131.54 461.481 130.857V121.577H463.321V130.953C463.321 131.177 463.363 131.337 463.449 131.433C463.534 131.518 463.625 131.561 463.721 131.561C463.763 131.561 463.801 131.561 463.833 131.561C463.875 131.55 463.934 131.54 464.009 131.529L464.249 132.905C464.142 132.948 464.003 132.985 463.833 133.017C463.673 133.049 463.486 133.065 463.273 133.065Z" fill="#1B1B1B"/>
<path d="M585.384 132.873L583.304 122.409H585.208L586.12 127.689C586.205 128.244 586.29 128.804 586.376 129.369C586.472 129.924 586.557 130.478 586.632 131.033H586.696C586.813 130.478 586.925 129.924 587.032 129.369C587.149 128.804 587.266 128.244 587.384 127.689L588.664 122.409H590.28L591.56 127.689C591.677 128.233 591.794 128.788 591.912 129.353C592.029 129.908 592.146 130.468 592.264 131.033H592.328C592.413 130.468 592.498 129.908 592.584 129.353C592.669 128.798 592.749 128.244 592.824 127.689L593.736 122.409H595.512L593.512 132.873H591.208L589.912 127.369C589.826 126.964 589.741 126.558 589.656 126.153C589.581 125.748 589.512 125.348 589.448 124.953H589.384C589.309 125.348 589.229 125.748 589.144 126.153C589.069 126.558 588.989 126.964 588.904 127.369L587.64 132.873H585.384ZM596.981 132.873V125.017H598.821V132.873H596.981ZM597.909 123.641C597.578 123.641 597.311 123.545 597.109 123.353C596.906 123.161 596.805 122.905 596.805 122.585C596.805 122.276 596.906 122.025 597.109 121.833C597.311 121.641 597.578 121.545 597.909 121.545C598.239 121.545 598.506 121.641 598.709 121.833C598.911 122.025 599.013 122.276 599.013 122.585C599.013 122.905 598.911 123.161 598.709 123.353C598.506 123.545 598.239 123.641 597.909 123.641ZM601.168 132.873V125.017H602.688L602.816 126.073H602.88C603.232 125.732 603.616 125.438 604.032 125.193C604.448 124.948 604.923 124.825 605.456 124.825C606.299 124.825 606.912 125.097 607.296 125.641C607.68 126.185 607.872 126.953 607.872 127.945V132.873H606.032V128.185C606.032 127.534 605.936 127.076 605.744 126.809C605.552 126.542 605.237 126.409 604.8 126.409C604.459 126.409 604.155 126.494 603.888 126.665C603.632 126.825 603.339 127.065 603.008 127.385V132.873H601.168ZM612.873 133.065C611.892 133.065 611.108 132.702 610.521 131.977C609.934 131.252 609.641 130.244 609.641 128.953C609.641 128.1 609.796 127.364 610.105 126.745C610.425 126.126 610.841 125.652 611.353 125.321C611.865 124.99 612.404 124.825 612.969 124.825C613.417 124.825 613.796 124.905 614.105 125.065C614.425 125.214 614.734 125.422 615.033 125.689L614.969 124.425V121.577H616.809V132.873H615.289L615.161 132.025H615.097C614.809 132.313 614.473 132.558 614.089 132.761C613.705 132.964 613.3 133.065 612.873 133.065ZM613.321 131.545C613.908 131.545 614.457 131.252 614.969 130.665V127.001C614.702 126.756 614.436 126.585 614.169 126.489C613.902 126.393 613.636 126.345 613.369 126.345C612.868 126.345 612.436 126.574 612.073 127.033C611.721 127.481 611.545 128.116 611.545 128.937C611.545 129.78 611.7 130.425 612.009 130.873C612.318 131.321 612.756 131.545 613.321 131.545Z" fill="#1B1B1B"/>
<path d="M733.801 133.065C732.926 133.065 732.132 132.857 731.417 132.441C730.702 132.025 730.132 131.417 729.705 130.617C729.289 129.806 729.081 128.825 729.081 127.673C729.081 126.532 729.294 125.556 729.721 124.745C730.158 123.924 730.74 123.3 731.465 122.873C732.19 122.436 732.99 122.217 733.865 122.217C734.526 122.217 735.113 122.35 735.625 122.617C736.137 122.884 736.558 123.193 736.889 123.545L735.897 124.745C735.63 124.468 735.332 124.249 735.001 124.089C734.681 123.918 734.318 123.833 733.913 123.833C733.348 123.833 732.841 123.988 732.393 124.297C731.956 124.596 731.609 125.028 731.353 125.593C731.108 126.158 730.985 126.836 730.985 127.625C730.985 128.82 731.246 129.758 731.769 130.441C732.292 131.113 732.99 131.449 733.865 131.449C734.334 131.449 734.75 131.353 735.113 131.161C735.476 130.958 735.806 130.697 736.105 130.377L737.097 131.545C736.67 132.036 736.18 132.414 735.625 132.681C735.081 132.937 734.473 133.065 733.801 133.065ZM741.9 133.065C741.249 133.065 740.641 132.905 740.076 132.585C739.51 132.254 739.052 131.785 738.7 131.177C738.348 130.558 738.172 129.817 738.172 128.953C738.172 128.078 738.348 127.337 738.7 126.729C739.052 126.11 739.51 125.641 740.076 125.321C740.641 124.99 741.249 124.825 741.9 124.825C742.561 124.825 743.174 124.99 743.74 125.321C744.305 125.641 744.764 126.11 745.116 126.729C745.468 127.337 745.644 128.078 745.644 128.953C745.644 129.817 745.468 130.558 745.116 131.177C744.764 131.785 744.305 132.254 743.74 132.585C743.174 132.905 742.561 133.065 741.9 133.065ZM741.9 131.561C742.476 131.561 742.929 131.321 743.26 130.841C743.59 130.361 743.756 129.732 743.756 128.953C743.756 128.164 743.59 127.529 743.26 127.049C742.929 126.569 742.476 126.329 741.9 126.329C741.324 126.329 740.87 126.569 740.54 127.049C740.22 127.529 740.06 128.164 740.06 128.953C740.06 129.732 740.22 130.361 740.54 130.841C740.87 131.321 741.324 131.561 741.9 131.561ZM749.181 133.065C748.499 133.065 747.939 132.852 747.501 132.425C747.075 131.998 746.861 131.444 746.861 130.761C746.861 129.918 747.229 129.268 747.965 128.809C748.701 128.34 749.875 128.02 751.485 127.849C751.475 127.433 751.363 127.076 751.149 126.777C750.947 126.468 750.579 126.313 750.045 126.313C749.661 126.313 749.283 126.388 748.909 126.537C748.547 126.686 748.189 126.868 747.837 127.081L747.165 125.849C747.603 125.572 748.093 125.332 748.637 125.129C749.192 124.926 749.779 124.825 750.397 124.825C751.379 124.825 752.109 125.118 752.589 125.705C753.08 126.281 753.325 127.118 753.325 128.217V132.873H751.805L751.677 132.009H751.613C751.261 132.308 750.883 132.558 750.477 132.761C750.083 132.964 749.651 133.065 749.181 133.065ZM749.773 131.625C750.093 131.625 750.381 131.55 750.637 131.401C750.904 131.241 751.187 131.028 751.485 130.761V129.001C750.419 129.14 749.677 129.348 749.261 129.625C748.845 129.892 748.637 130.222 748.637 130.617C748.637 130.969 748.744 131.225 748.957 131.385C749.171 131.545 749.443 131.625 749.773 131.625ZM757.319 133.065C756.669 133.065 756.205 132.868 755.927 132.473C755.661 132.078 755.527 131.54 755.527 130.857V121.577H757.367V130.953C757.367 131.177 757.41 131.337 757.495 131.433C757.581 131.518 757.671 131.561 757.767 131.561C757.81 131.561 757.847 131.561 757.879 131.561C757.922 131.55 757.981 131.54 758.055 131.529L758.295 132.905C758.189 132.948 758.05 132.985 757.879 133.017C757.719 133.049 757.533 133.065 757.319 133.065Z" fill="#1B1B1B"/>
<path d="M348.803 238.79C345.474 232.624 342.948 227.564 340.773 222.608C337.33 214.739 334.294 202.217 334.294 190.178C334.294 183.491 334.426 181.505 334.426 176.615C334.426 175.887 333.906 175.301 333.178 175.301H290.851C290.123 175.301 289.603 175.897 289.603 176.615C289.603 181.373 289.735 183.444 289.735 190.178C289.735 202.227 286.699 214.749 283.256 222.608C281.09 227.564 278.555 232.624 275.226 238.79C274.554 240.029 275.462 241.533 276.872 241.533H347.148C348.557 241.533 349.465 240.029 348.793 238.79H348.803ZM312.407 226.287C304.509 226.287 298.106 219.903 298.106 212.025C298.106 204.147 304.509 197.763 312.407 197.763C320.305 197.763 326.708 204.147 326.708 212.025C326.708 219.903 320.305 226.287 312.407 226.287Z" fill="#1B1B1B"/>
<path d="M308.623 212.326L300.924 212.308C300.933 211.352 300.896 209.461 302.295 206.605C303.695 203.748 306.183 202.424 306.684 202.084L310.798 208.534C310.685 208.591 309.682 209.073 309.143 210.028C308.604 210.983 308.576 211.816 308.614 212.317L308.623 212.326ZM315.736 210.019C316.133 210.69 316.313 211.39 316.284 212.128L323.965 211.806C323.946 209.82 323.388 207.919 322.3 206.103C321.165 204.202 319.68 202.793 317.836 201.838L313.986 208.487C314.724 208.799 315.301 209.309 315.736 210.019ZM318.611 221.661L314.79 215.022C314.667 215.107 313.731 215.816 312.605 215.816C311.479 215.816 310.742 215.438 310.401 215.22L306.854 222.03C307.639 222.418 309.512 223.477 312.794 223.477C315.774 223.477 318.148 221.945 318.611 221.661ZM314.26 212.014C314.26 213.045 313.428 213.877 312.397 213.877C311.366 213.877 310.534 213.045 310.534 212.014C310.534 210.983 311.366 210.151 312.397 210.151C313.428 210.151 314.26 210.983 314.26 212.014Z" fill="#1B1B1B"/>
<path d="M293.451 171.829C293.631 170.543 294.057 169.304 294.738 168.178C296.043 166.031 298.228 164.414 301.009 163.96C301.406 159.316 304.65 155.401 309.199 154.427C311.12 154.011 313.125 154.181 314.969 154.881C316.681 153.169 318.847 151.977 321.193 151.476C328.154 149.982 335.097 154.691 336.667 161.964C337.442 165.568 336.761 169.209 334.908 172.15C334.378 171.942 333.801 171.819 333.186 171.819H329.923C332.344 169.606 333.404 166.192 332.685 162.816C331.588 157.737 326.821 154.446 322.054 155.458C320.077 155.883 318.374 156.971 317.107 158.616L316.019 160.035L314.468 159.137C313.106 158.352 311.545 158.096 310.06 158.408C306.854 159.089 304.726 162.239 305.095 165.71L305.369 168.225C305.369 168.225 304.139 168.102 302.853 167.961C299.902 167.63 297.982 169.994 297.622 171.819H293.461L293.451 171.829Z" fill="#1B1B1B"/>
<path d="M363.435 236.198H351.347C348.197 230.315 345.889 225.653 343.95 221.217C341.255 215.06 338.133 203.976 337.793 192.258H354.166C354.648 192.258 354.988 192.655 354.988 193.128C354.988 196.372 354.903 197.687 354.903 202.122C354.903 210.114 356.918 218.418 359.197 223.638C360.635 226.93 362.319 230.278 364.523 234.373C364.967 235.196 364.362 236.189 363.425 236.189L363.435 236.198Z" fill="#1B1B1B"/>
<path d="M337.869 180.444L337.906 180.321C338.275 179.044 339.032 178.004 340.101 177.295C342.711 175.573 346.343 176.434 348.207 179.234C349.493 181.163 349.644 183.565 348.595 185.504L348.103 186.696L348.784 187.717C349.294 188.493 349.569 189.353 349.625 190.233H353.702C353.655 188.909 353.333 187.594 352.69 186.346C353.872 183.31 353.494 179.81 351.602 176.964C348.5 172.301 342.324 170.92 337.85 173.89C337.661 174.013 337.49 174.164 337.311 174.306C337.679 174.987 337.906 175.772 337.906 176.614C337.906 178.08 337.897 179.29 337.878 180.444H337.869Z" fill="#1B1B1B"/>
<path d="M494.382 184.738H469.525V191.283H413.645C412.605 191.283 411.753 192.134 411.753 193.175V231.781H409.918C408.556 231.781 407.308 232.698 407.052 234.032C406.712 235.829 408.074 237.399 409.814 237.399H499.007C500.53 237.399 501.892 236.254 501.977 234.741C502.062 233.114 500.776 231.781 499.168 231.781H494.382V191.283" fill="#1B1B1B"/>
<path d="M494.324 158.702C494.324 157.463 493.275 156.461 492.036 156.461H471.776C470.536 156.461 469.524 157.463 469.524 158.712V165.89H494.324V158.702Z" fill="#1B1B1B"/>
<path d="M494.324 171.508H469.524V179.471H494.324V171.508Z" fill="#1B1B1B"/>
<path d="M457.05 224.187L443.59 200.874C442.427 198.86 439.523 198.86 438.36 200.874L424.9 224.187C423.737 226.202 425.193 228.717 427.52 228.717H454.448C456.775 228.717 458.232 226.202 457.068 224.187H457.05ZM438.303 225.615L439.996 217.103H435.607L442.342 205.073L440.649 213.585H445.037L438.303 225.615Z" fill="white"/>
<path d="M189.212 179.773H184.322C184.181 179.773 184.066 179.888 184.066 180.029V233.729C184.066 233.87 184.181 233.985 184.322 233.985H189.212C189.353 233.985 189.467 233.87 189.467 233.729V180.029C189.467 179.888 189.353 179.773 189.212 179.773Z" fill="#1B1B1B"/>
<path d="M204.069 185.628C199.009 187.264 192.237 184.172 192.189 185.269C192.189 185.269 193.485 177.589 198.792 175.385C202.509 173.844 209.328 176.795 210.671 175.745C210.671 175.745 209.527 183.86 204.069 185.628Z" fill="#1B1B1B"/>
<path d="M204.069 198.831C199.009 200.467 192.237 197.375 192.189 198.472C192.189 198.472 193.485 190.792 198.792 188.589C202.509 187.047 209.328 189.998 210.671 188.948C210.671 188.948 209.527 197.063 204.069 198.831Z" fill="#1B1B1B"/>
<path d="M204.069 212.042C199.009 213.678 192.237 210.586 192.189 211.683C192.189 211.683 193.485 204.003 198.792 201.8C202.509 200.258 209.328 203.209 210.671 202.159C210.671 202.159 209.527 210.274 204.069 212.042Z" fill="#1B1B1B"/>
<path d="M169.461 185.628C174.522 187.264 181.294 184.172 181.341 185.269C181.341 185.269 180.045 177.589 174.739 175.385C171.022 173.844 164.202 176.795 162.859 175.745C162.859 175.745 164.004 183.86 169.461 185.628Z" fill="#1B1B1B"/>
<path d="M169.461 198.831C174.522 200.467 181.294 197.375 181.341 198.472C181.341 198.472 180.045 190.792 174.739 188.589C171.022 187.047 164.202 189.998 162.859 188.948C162.859 188.948 164.004 197.063 169.461 198.831Z" fill="#1B1B1B"/>
<path d="M169.461 212.042C174.522 213.678 181.294 210.586 181.341 211.683C181.341 211.683 180.045 204.003 174.739 201.8C171.022 200.258 164.202 203.209 162.859 202.159C162.859 202.159 164.004 210.274 169.461 212.042Z" fill="#1B1B1B"/>
<path d="M163.314 197.961C163.541 205.452 157.497 203.475 152.797 210.691C148.758 216.895 151.321 221.019 152.617 222.513C159.209 215.893 162.709 207.504 163.371 205.792C163.409 205.688 163.456 205.584 163.494 205.47C163.494 205.47 163.456 205.584 163.371 205.792C160.221 214.096 156.551 220.347 154.518 223.506C156.807 223.932 161.697 223.79 165.357 216.195C169.68 207.22 163.276 196.94 163.314 197.961Z" fill="#1B1B1B"/>
<path d="M140.31 200.456C140.31 200.456 140.348 200.551 140.405 200.73C142.949 207.937 143.999 214.085 144.415 217.291C146.156 216.307 149.296 213.489 147.489 206.471C145.352 198.167 135.43 194.961 136.026 195.623C140.329 200.428 135.269 202.471 136.177 209.829C136.962 216.146 140.935 217.433 142.618 217.697C143.28 209.687 140.925 202.234 140.414 200.73C140.386 200.636 140.348 200.541 140.32 200.456H140.31Z" fill="#1B1B1B"/>
<path d="M153.014 223.477C152.881 223.656 150.876 226.39 150.1 231.61C148.218 230.154 144.889 225.945 143.839 218.738L143.148 218.814C143.65 227.033 147.726 232.376 149.164 233.984H151.775C150.989 228.707 153.458 223.968 153.487 223.921L153.023 223.477H153.014Z" fill="#1B1B1B"/>
<path d="M220.111 207.503C220.811 207.796 224.112 208.875 226.278 204.411C228.548 199.739 231.234 199.72 231.234 199.72C231.234 199.72 227.214 197.866 223.28 201.091C221.189 202.803 220.395 204.486 220.102 205.697" fill="#1B1B1B"/>
<path d="M220.149 218.624C221.067 219.003 225.427 220.44 228.293 214.539C231.282 208.372 234.838 208.344 234.838 208.344C234.838 208.344 229.532 205.894 224.339 210.15C221.596 212.401 220.537 214.614 220.14 216.213" fill="#1B1B1B"/>
<path d="M220.197 230.363C221.304 230.817 226.411 232.472 229.769 225.549C233.287 218.295 237.468 218.258 237.468 218.258C237.468 218.258 231.225 215.373 225.115 220.386C221.909 223.015 220.66 225.597 220.188 227.469" fill="#1B1B1B"/>
<path d="M219.8 205.65C219.469 204.458 218.646 202.851 216.66 201.224C212.725 197.999 208.705 199.852 208.705 199.852C208.705 199.852 211.401 199.871 213.661 204.543C215.752 208.866 218.911 207.995 219.752 207.674" fill="#1B1B1B"/>
<path d="M219.326 226.286C218.645 224.602 217.34 222.578 214.833 220.516C208.723 215.504 202.48 218.388 202.48 218.388C202.48 218.388 206.661 218.426 210.18 225.68C213.15 231.818 217.501 231.213 219.222 230.683L219.326 226.286Z" fill="#1B1B1B"/>
<path d="M211.656 214.672C214.276 220.091 218.164 219.325 219.497 218.871L219.573 215.589C219.053 214.086 217.937 212.203 215.6 210.293C210.408 206.037 205.102 208.487 205.102 208.487C205.102 208.487 208.658 208.515 211.647 214.681L211.656 214.672Z" fill="#1B1B1B"/>
<path d="M219.242 233.993H220.964L220.197 199H219.242V233.993Z" fill="#1B1B1B"/>
<path d="M21.5556 172.151H22.4541V188.182L12.3809 216.763C13.147 217.226 13.8753 217.444 15.0765 217.444C16.5048 217.444 17.2614 217.132 18.2167 216.47C20.6664 209.736 24.743 198.519 26.228 194.424C27.5711 190.735 30.5978 187.993 35.2135 187.841V178.488H28.8291V174.79H38.6564V187.822C38.6564 187.822 33.9272 201.555 30.3046 211.788C32.3949 211.845 34.1163 212.251 35.5635 212.809C37.8903 206.066 40.6994 197.677 41.8912 194.433C43.2437 190.745 46.1286 188.002 50.8767 187.841V178.488H44.4922V174.79H54.3196V187.822C54.3196 187.822 47.7365 206.397 43.7639 217.415C44.0004 217.434 44.2463 217.453 44.5206 217.453C46.4312 217.453 47.1406 216.905 48.7107 215.694C49.2593 215.268 49.893 214.786 50.6308 214.304C53.2791 207.078 56.5896 198.018 57.8665 194.433C59.1907 190.735 62.066 187.993 66.852 187.841V178.488H60.4676V174.79H70.2948V187.822L61.5931 211.939C65.6129 212.488 68.0721 214.379 69.7841 215.694C71.3447 216.895 72.0636 217.453 73.9742 217.453C75.5443 217.453 76.3199 217.075 77.4076 216.271V172.151H77.89C78.3156 172.151 78.6561 171.811 78.6561 171.385V168.737C78.6561 168.311 78.3156 167.971 77.89 167.971H21.5461C21.1205 167.971 20.78 168.311 20.78 168.737V171.385C20.78 171.811 21.1205 172.151 21.5461 172.151H21.5556Z" fill="#1B1B1B"/>
<path d="M73.9835 245.798C69.5002 245.798 67.0977 243.954 65.1777 242.469C63.4752 241.154 62.1321 240.123 59.2567 240.123C56.3813 240.123 55.0382 241.154 53.3357 242.469C51.4062 243.954 49.0132 245.798 44.5299 245.798C40.0466 245.798 37.6442 243.954 35.7241 242.469C34.0216 241.164 32.6785 240.123 29.8031 240.123C26.9278 240.123 25.5847 241.154 23.8822 242.469C21.9621 243.954 19.5597 245.798 15.0764 245.798C10.5931 245.798 8.1906 243.954 6.27054 242.469C4.92744 241.429 3.80191 240.568 1.97643 240.256C1.04951 240.095 0.349609 239.329 0.349609 238.383V237.428C0.349609 236.284 1.36162 235.376 2.49663 235.546C5.64629 236.019 7.56639 237.494 9.15541 238.724C10.8579 240.038 12.201 241.069 15.0764 241.069C17.9518 241.069 19.2948 240.038 20.9973 238.724C22.9174 237.239 25.3198 235.395 29.8031 235.395C34.2864 235.395 36.6889 237.239 38.6089 238.724C40.3114 240.038 41.6545 241.069 44.5299 241.069C47.4053 241.069 48.7484 240.038 50.4509 238.724C52.3804 237.239 54.7734 235.395 59.2567 235.395C63.74 235.395 66.1424 237.239 68.0625 238.724C69.765 240.038 71.1081 241.069 73.9835 241.069C76.8588 241.069 78.202 240.038 79.9045 238.724C81.4935 237.494 83.4135 236.019 86.5632 235.546C87.6982 235.376 88.7103 236.274 88.7103 237.428V238.383C88.7103 239.319 88.0103 240.095 87.0834 240.256C85.2485 240.568 84.1324 241.438 82.7893 242.469C80.8598 243.954 78.4668 245.798 73.9835 245.798Z" fill="#1B1B1B"/>
<path d="M88.2755 225.795C87.7837 225.378 87.1405 225.189 86.5163 225.284C83.4517 225.757 81.6073 227.175 79.971 228.433C78.1834 229.805 76.897 230.798 73.9838 230.798C71.0706 230.798 69.7748 229.805 67.9872 228.424C65.982 226.873 63.7025 225.123 59.2476 225.123C54.7927 225.123 52.5227 226.882 50.5175 228.424C48.7298 229.795 47.4434 230.798 44.5208 230.798C41.5981 230.798 40.3118 229.805 38.5242 228.424C36.519 226.873 34.2395 225.123 29.7941 225.123C25.3486 225.123 23.0691 226.882 21.0639 228.433C19.2762 229.805 17.9899 230.798 15.0767 230.798C12.1635 230.798 10.8677 229.805 9.08954 228.424C7.46269 227.166 5.61826 225.747 2.55373 225.274C1.92002 225.18 1.28631 225.359 0.794476 225.785C0.293179 226.22 0 226.844 0 227.506C0 228.613 0.813405 229.549 1.9295 229.729C3.82119 230.032 4.93726 230.892 6.34657 231.98C8.35176 233.531 10.6313 235.281 15.0767 235.281C19.5222 235.281 21.8017 233.521 23.8069 231.97C25.5945 230.599 26.8809 229.606 29.7941 229.606C32.7073 229.606 34.003 230.599 35.7812 231.98C37.7864 233.531 40.0659 235.281 44.5114 235.281C48.9568 235.281 51.2363 233.521 53.2415 231.98C55.0291 230.608 56.3155 229.606 59.2381 229.606C62.1608 229.606 63.4471 230.599 65.2348 231.98C67.24 233.531 69.5194 235.281 73.9744 235.281C78.4293 235.281 80.6993 233.521 82.714 231.97C84.1327 230.883 85.2394 230.022 87.1311 229.719C88.2472 229.54 89.0606 228.603 89.0606 227.497C89.0606 226.835 88.7768 226.211 88.266 225.776L88.2755 225.795Z" fill="#1B1B1B"/>
<path d="M73.9835 225.019C69.5002 225.019 67.0977 223.174 65.1777 221.69C63.4752 220.375 62.1321 219.344 59.2567 219.344C56.3813 219.344 55.0382 220.375 53.3357 221.69C51.4062 223.174 49.0132 225.019 44.5299 225.019C40.0466 225.019 37.6442 223.174 35.7241 221.69C34.0216 220.384 32.6785 219.344 29.8031 219.344C26.9278 219.344 25.5847 220.375 23.8822 221.69C21.9621 223.174 19.5597 225.019 15.0764 225.019C10.5931 225.019 8.1906 223.174 6.27054 221.69C4.92744 220.649 3.80191 219.789 1.97643 219.476C1.04951 219.316 0.349609 218.55 0.349609 217.604V216.649C0.349609 215.504 1.36162 214.596 2.49663 214.767C5.64629 215.239 7.56639 216.715 9.15541 217.944C10.8579 219.259 12.201 220.29 15.0764 220.29C17.9518 220.29 19.2948 219.259 20.9973 217.944C22.9174 216.459 25.3198 214.615 29.8031 214.615C34.2864 214.615 36.6889 216.459 38.6089 217.944C40.3114 219.259 41.6545 220.29 44.5299 220.29C47.4053 220.29 48.7484 219.259 50.4509 217.944C52.3804 216.459 54.7734 214.615 59.2567 214.615C63.74 214.615 66.1424 216.459 68.0625 217.944C69.765 219.259 71.1081 220.29 73.9835 220.29C76.8588 220.29 78.202 219.259 79.9045 217.944C81.4935 216.715 83.4135 215.239 86.5632 214.767C87.6982 214.596 88.7103 215.495 88.7103 216.649V217.604C88.7103 218.54 88.0103 219.316 87.0834 219.476C85.2485 219.789 84.1324 220.659 82.7893 221.69C80.8598 223.174 78.4668 225.019 73.9835 225.019Z" fill="#1B1B1B"/>
<path d="M581.822 157.085C581.822 155.836 580.763 154.824 579.514 154.824H559.065C557.807 154.824 556.795 155.836 556.795 157.094V164.339H581.822V157.085Z" fill="#1B1B1B"/>
<path d="M581.822 170.004H556.795V178.043H581.822V170.004Z" fill="#1B1B1B"/>
<path d="M645.014 230.598H640.19V183.716C640.19 182.78 639.112 182.241 638.365 182.808C638.365 182.808 619.732 196.881 611.503 203.066V197.638L611.739 183.744C611.758 182.799 610.68 182.25 609.923 182.818C609.923 182.818 589.711 197.884 581.822 203.747V183.716H556.795V230.598H554.838C553.267 230.598 552 231.865 552 233.435C552 235.005 553.267 236.272 554.838 236.272H645.014C646.584 236.272 647.852 235.005 647.852 233.435C647.852 231.865 646.584 230.598 645.014 230.598ZM595.14 229.482C590.032 228.073 586.277 223.391 586.277 217.849C586.277 211.191 591.688 205.781 598.346 205.781C598.706 205.781 599.065 205.8 599.424 205.828L598.185 208.032C592.841 208.117 588.528 212.486 588.528 217.839C588.528 222.294 591.508 226.058 595.584 227.259L595.14 229.482ZM592.52 220.024L600.853 205.138L598.762 215.664H604.192L595.859 230.55L597.949 220.024H592.52ZM598.346 229.917C597.987 229.917 597.627 229.898 597.268 229.869L598.507 227.666C603.851 227.581 608.164 223.211 608.164 217.858C608.164 213.404 605.185 209.64 601.108 208.438L601.553 206.216C606.66 207.625 610.415 212.307 610.415 217.849C610.415 224.507 605.005 229.917 598.346 229.917Z" fill="#1D1D1B"/>
<path d="M24.7968 275.799V265.335H26.6528V269.543H30.8928V265.335H32.7488V275.799H30.8928V271.159H26.6528V275.799H24.7968ZM35.7741 279.031C35.5608 279.031 35.3741 279.015 35.2141 278.983C35.0541 278.951 34.8995 278.913 34.7501 278.871L35.0861 277.431C35.1608 277.452 35.2461 277.473 35.3421 277.495C35.4488 277.527 35.5501 277.543 35.6461 277.543C36.0621 277.543 36.3928 277.415 36.6381 277.159C36.8941 276.913 37.0861 276.593 37.2141 276.199L37.3581 275.703L34.2701 267.943H36.1421L37.5021 271.799C37.6195 272.14 37.7315 272.503 37.8381 272.887C37.9555 273.26 38.0728 273.633 38.1901 274.007H38.2541C38.3501 273.644 38.4461 273.276 38.5421 272.903C38.6488 272.519 38.7501 272.151 38.8461 271.799L40.0301 267.943H41.8061L38.9581 276.151C38.6275 277.036 38.2275 277.735 37.7581 278.247C37.2888 278.769 36.6275 279.031 35.7741 279.031ZM45.8263 275.991C44.8449 275.991 44.0609 275.628 43.4743 274.903C42.8876 274.177 42.5943 273.169 42.5943 271.879C42.5943 271.025 42.7489 270.289 43.0583 269.671C43.3783 269.052 43.7943 268.577 44.3063 268.247C44.8183 267.916 45.3569 267.751 45.9223 267.751C46.3703 267.751 46.7489 267.831 47.0583 267.991C47.3783 268.14 47.6876 268.348 47.9863 268.615L47.9223 267.351V264.503H49.7623V275.799H48.2423L48.1143 274.951H48.0503C47.7623 275.239 47.4263 275.484 47.0423 275.687C46.6583 275.889 46.2529 275.991 45.8263 275.991ZM46.2743 274.471C46.8609 274.471 47.4103 274.177 47.9223 273.591V269.927C47.6556 269.681 47.3889 269.511 47.1223 269.415C46.8556 269.319 46.5889 269.271 46.3223 269.271C45.8209 269.271 45.3889 269.5 45.0263 269.959C44.6743 270.407 44.4983 271.041 44.4983 271.863C44.4983 272.705 44.6529 273.351 44.9623 273.799C45.2716 274.247 45.7089 274.471 46.2743 274.471ZM52.1055 275.799V267.943H53.6255L53.7535 269.335H53.8175C54.0948 268.823 54.4308 268.433 54.8255 268.167C55.2202 267.889 55.6255 267.751 56.0415 267.751C56.4148 267.751 56.7135 267.804 56.9375 267.911L56.6175 269.511C56.4788 269.468 56.3508 269.436 56.2335 269.415C56.1162 269.393 55.9722 269.383 55.8015 269.383C55.4922 269.383 55.1668 269.505 54.8255 269.751C54.4842 269.985 54.1908 270.401 53.9455 270.999V275.799H52.1055ZM61.134 275.991C60.4833 275.991 59.8753 275.831 59.31 275.511C58.7447 275.18 58.286 274.711 57.934 274.103C57.582 273.484 57.406 272.743 57.406 271.879C57.406 271.004 57.582 270.263 57.934 269.655C58.286 269.036 58.7447 268.567 59.31 268.247C59.8753 267.916 60.4833 267.751 61.134 267.751C61.7953 267.751 62.4087 267.916 62.974 268.247C63.5393 268.567 63.998 269.036 64.35 269.655C64.702 270.263 64.878 271.004 64.878 271.879C64.878 272.743 64.702 273.484 64.35 274.103C63.998 274.711 63.5393 275.18 62.974 275.511C62.4087 275.831 61.7953 275.991 61.134 275.991ZM61.134 274.487C61.71 274.487 62.1633 274.247 62.494 273.767C62.8247 273.287 62.99 272.657 62.99 271.879C62.99 271.089 62.8247 270.455 62.494 269.975C62.1633 269.495 61.71 269.255 61.134 269.255C60.558 269.255 60.1047 269.495 59.774 269.975C59.454 270.455 59.294 271.089 59.294 271.879C59.294 272.657 59.454 273.287 59.774 273.767C60.1047 274.247 60.558 274.487 61.134 274.487Z" fill="#1B1B1B"/>
<path d="M159.812 275.799V265.335H163.156C163.882 265.335 164.522 265.415 165.076 265.575C165.642 265.735 166.084 266.007 166.404 266.391C166.735 266.764 166.9 267.271 166.9 267.911C166.9 268.401 166.772 268.865 166.516 269.303C166.26 269.729 165.903 270.023 165.444 270.183V270.247C166.02 270.375 166.495 270.647 166.868 271.063C167.252 271.468 167.444 272.023 167.444 272.727C167.444 273.42 167.268 273.996 166.916 274.455C166.575 274.913 166.1 275.255 165.492 275.479C164.884 275.692 164.196 275.799 163.428 275.799H159.812ZM161.668 269.655H162.996C163.722 269.655 164.25 269.521 164.58 269.255C164.911 268.988 165.076 268.631 165.076 268.183C165.076 267.671 164.906 267.308 164.564 267.095C164.223 266.881 163.711 266.775 163.028 266.775H161.668V269.655ZM161.668 274.359H163.236C164.004 274.359 164.596 274.22 165.012 273.943C165.428 273.655 165.636 273.217 165.636 272.631C165.636 272.076 165.434 271.676 165.028 271.431C164.623 271.175 164.026 271.047 163.236 271.047H161.668V274.359ZM169.199 275.799V267.943H171.039V275.799H169.199ZM170.127 266.567C169.797 266.567 169.53 266.471 169.327 266.279C169.125 266.087 169.023 265.831 169.023 265.511C169.023 265.201 169.125 264.951 169.327 264.759C169.53 264.567 169.797 264.471 170.127 264.471C170.458 264.471 170.725 264.567 170.927 264.759C171.13 264.951 171.231 265.201 171.231 265.511C171.231 265.831 171.13 266.087 170.927 266.279C170.725 266.471 170.458 266.567 170.127 266.567ZM176.603 275.991C175.952 275.991 175.344 275.831 174.779 275.511C174.213 275.18 173.755 274.711 173.403 274.103C173.051 273.484 172.875 272.743 172.875 271.879C172.875 271.004 173.051 270.263 173.403 269.655C173.755 269.036 174.213 268.567 174.779 268.247C175.344 267.916 175.952 267.751 176.603 267.751C177.264 267.751 177.877 267.916 178.443 268.247C179.008 268.567 179.467 269.036 179.819 269.655C180.171 270.263 180.347 271.004 180.347 271.879C180.347 272.743 180.171 273.484 179.819 274.103C179.467 274.711 179.008 275.18 178.443 275.511C177.877 275.831 177.264 275.991 176.603 275.991ZM176.603 274.487C177.179 274.487 177.632 274.247 177.963 273.767C178.293 273.287 178.459 272.657 178.459 271.879C178.459 271.089 178.293 270.455 177.963 269.975C177.632 269.495 177.179 269.255 176.603 269.255C176.027 269.255 175.573 269.495 175.243 269.975C174.923 270.455 174.763 271.089 174.763 271.879C174.763 272.657 174.923 273.287 175.243 273.767C175.573 274.247 176.027 274.487 176.603 274.487ZM182.168 275.799V267.943H183.688L183.816 269.015H183.88C184.211 268.663 184.568 268.364 184.952 268.119C185.347 267.873 185.789 267.751 186.28 267.751C186.856 267.751 187.315 267.879 187.656 268.135C188.008 268.38 188.275 268.721 188.456 269.159C188.829 268.753 189.219 268.417 189.624 268.151C190.04 267.884 190.493 267.751 190.984 267.751C191.816 267.751 192.429 268.023 192.824 268.567C193.219 269.111 193.416 269.879 193.416 270.871V275.799H191.56V271.111C191.56 270.46 191.459 270.001 191.256 269.735C191.064 269.468 190.765 269.335 190.36 269.335C189.869 269.335 189.32 269.66 188.712 270.311V275.799H186.872V271.111C186.872 270.46 186.771 270.001 186.568 269.735C186.376 269.468 186.072 269.335 185.656 269.335C185.165 269.335 184.616 269.66 184.008 270.311V275.799H182.168ZM197.556 275.991C196.874 275.991 196.314 275.777 195.876 275.351C195.45 274.924 195.236 274.369 195.236 273.687C195.236 272.844 195.604 272.193 196.34 271.735C197.076 271.265 198.25 270.945 199.86 270.775C199.85 270.359 199.738 270.001 199.524 269.703C199.322 269.393 198.954 269.239 198.42 269.239C198.036 269.239 197.658 269.313 197.284 269.463C196.922 269.612 196.564 269.793 196.212 270.007L195.54 268.775C195.978 268.497 196.468 268.257 197.012 268.055C197.567 267.852 198.154 267.751 198.772 267.751C199.754 267.751 200.484 268.044 200.964 268.631C201.455 269.207 201.7 270.044 201.7 271.143V275.799H200.18L200.052 274.935H199.988C199.636 275.233 199.258 275.484 198.852 275.687C198.458 275.889 198.026 275.991 197.556 275.991ZM198.148 274.551C198.468 274.551 198.756 274.476 199.012 274.327C199.279 274.167 199.562 273.953 199.86 273.687V271.927C198.794 272.065 198.052 272.273 197.636 272.551C197.22 272.817 197.012 273.148 197.012 273.543C197.012 273.895 197.119 274.151 197.332 274.311C197.546 274.471 197.818 274.551 198.148 274.551ZM206.094 275.991C205.561 275.991 205.028 275.889 204.494 275.687C203.961 275.473 203.502 275.212 203.118 274.903L203.982 273.719C204.334 273.985 204.686 274.199 205.038 274.359C205.39 274.519 205.764 274.599 206.158 274.599C206.585 274.599 206.9 274.508 207.102 274.327C207.305 274.145 207.406 273.921 207.406 273.655C207.406 273.431 207.321 273.249 207.15 273.111C206.99 272.961 206.782 272.833 206.526 272.727C206.27 272.609 206.004 272.497 205.726 272.391C205.385 272.263 205.044 272.108 204.702 271.927C204.372 271.735 204.1 271.495 203.886 271.207C203.673 270.908 203.566 270.54 203.566 270.103C203.566 269.409 203.822 268.844 204.334 268.407C204.846 267.969 205.54 267.751 206.414 267.751C206.969 267.751 207.465 267.847 207.902 268.039C208.34 268.231 208.718 268.449 209.038 268.695L208.19 269.815C207.913 269.612 207.63 269.452 207.342 269.335C207.065 269.207 206.772 269.143 206.462 269.143C206.068 269.143 205.774 269.228 205.582 269.399C205.39 269.559 205.294 269.761 205.294 270.007C205.294 270.316 205.454 270.551 205.774 270.711C206.094 270.871 206.468 271.025 206.894 271.175C207.257 271.303 207.609 271.463 207.95 271.655C208.292 271.836 208.574 272.076 208.798 272.375C209.033 272.673 209.15 273.068 209.15 273.559C209.15 274.231 208.889 274.807 208.366 275.287C207.844 275.756 207.086 275.991 206.094 275.991ZM212.985 275.991C212.452 275.991 211.918 275.889 211.385 275.687C210.852 275.473 210.393 275.212 210.009 274.903L210.873 273.719C211.225 273.985 211.577 274.199 211.929 274.359C212.281 274.519 212.654 274.599 213.049 274.599C213.476 274.599 213.79 274.508 213.993 274.327C214.196 274.145 214.297 273.921 214.297 273.655C214.297 273.431 214.212 273.249 214.041 273.111C213.881 272.961 213.673 272.833 213.417 272.727C213.161 272.609 212.894 272.497 212.617 272.391C212.276 272.263 211.934 272.108 211.593 271.927C211.262 271.735 210.99 271.495 210.777 271.207C210.564 270.908 210.457 270.54 210.457 270.103C210.457 269.409 210.713 268.844 211.225 268.407C211.737 267.969 212.43 267.751 213.305 267.751C213.86 267.751 214.356 267.847 214.793 268.039C215.23 268.231 215.609 268.449 215.929 268.695L215.081 269.815C214.804 269.612 214.521 269.452 214.233 269.335C213.956 269.207 213.662 269.143 213.353 269.143C212.958 269.143 212.665 269.228 212.473 269.399C212.281 269.559 212.185 269.761 212.185 270.007C212.185 270.316 212.345 270.551 212.665 270.711C212.985 270.871 213.358 271.025 213.785 271.175C214.148 271.303 214.5 271.463 214.841 271.655C215.182 271.836 215.465 272.076 215.689 272.375C215.924 272.673 216.041 273.068 216.041 273.559C216.041 274.231 215.78 274.807 215.257 275.287C214.734 275.756 213.977 275.991 212.985 275.991Z" fill="#1B1B1B"/>
<path d="M294.695 275.799V265.335H296.599L299.863 271.223L300.935 273.447H300.999C300.957 272.913 300.903 272.332 300.839 271.703C300.786 271.073 300.759 270.465 300.759 269.879V265.335H302.535V275.799H300.631L297.367 269.911L296.295 267.687H296.231C296.274 268.241 296.322 268.823 296.375 269.431C296.439 270.039 296.471 270.636 296.471 271.223V275.799H294.695ZM307.371 275.991C306.529 275.991 305.915 275.719 305.531 275.175C305.147 274.631 304.955 273.863 304.955 272.871V267.943H306.795V272.631C306.795 273.281 306.891 273.74 307.083 274.007C307.275 274.273 307.585 274.407 308.011 274.407C308.353 274.407 308.651 274.321 308.907 274.151C309.174 273.98 309.457 273.703 309.755 273.319V267.943H311.595V275.799H310.091L309.947 274.647H309.899C309.558 275.052 309.185 275.377 308.779 275.623C308.374 275.868 307.905 275.991 307.371 275.991ZM317.206 275.991C316.491 275.991 315.846 275.831 315.27 275.511C314.704 275.18 314.251 274.711 313.91 274.103C313.579 273.484 313.414 272.743 313.414 271.879C313.414 271.004 313.595 270.263 313.958 269.655C314.32 269.036 314.8 268.567 315.398 268.247C316.006 267.916 316.656 267.751 317.35 267.751C317.851 267.751 318.288 267.836 318.662 268.007C319.035 268.177 319.366 268.385 319.654 268.631L318.758 269.831C318.555 269.649 318.347 269.511 318.134 269.415C317.92 269.308 317.691 269.255 317.446 269.255C316.816 269.255 316.299 269.495 315.894 269.975C315.499 270.455 315.302 271.089 315.302 271.879C315.302 272.657 315.494 273.287 315.878 273.767C316.272 274.247 316.779 274.487 317.398 274.487C317.707 274.487 317.995 274.423 318.262 274.295C318.539 274.156 318.79 273.996 319.014 273.815L319.766 275.031C319.403 275.351 318.998 275.591 318.55 275.751C318.102 275.911 317.654 275.991 317.206 275.991ZM323.108 275.991C322.458 275.991 321.994 275.793 321.716 275.399C321.45 275.004 321.316 274.465 321.316 273.783V264.503H323.156V273.879C323.156 274.103 323.199 274.263 323.284 274.359C323.37 274.444 323.46 274.487 323.556 274.487C323.599 274.487 323.636 274.487 323.668 274.487C323.711 274.476 323.77 274.465 323.844 274.455L324.084 275.831C323.978 275.873 323.839 275.911 323.668 275.943C323.508 275.975 323.322 275.991 323.108 275.991ZM329.02 275.991C328.295 275.991 327.639 275.831 327.052 275.511C326.466 275.18 326.002 274.711 325.66 274.103C325.319 273.484 325.148 272.743 325.148 271.879C325.148 271.025 325.319 270.289 325.66 269.671C326.012 269.052 326.466 268.577 327.02 268.247C327.575 267.916 328.156 267.751 328.764 267.751C329.479 267.751 330.076 267.911 330.556 268.231C331.036 268.54 331.399 268.977 331.644 269.543C331.89 270.097 332.012 270.743 332.012 271.479C332.012 271.863 331.986 272.161 331.932 272.375H326.94C327.026 273.068 327.276 273.607 327.692 273.991C328.108 274.375 328.631 274.567 329.26 274.567C329.602 274.567 329.916 274.519 330.204 274.423C330.503 274.316 330.796 274.172 331.084 273.991L331.708 275.143C331.335 275.388 330.919 275.591 330.46 275.751C330.002 275.911 329.522 275.991 329.02 275.991ZM326.924 271.127H330.412C330.412 270.519 330.279 270.044 330.012 269.703C329.746 269.351 329.346 269.175 328.812 269.175C328.354 269.175 327.943 269.345 327.58 269.687C327.228 270.017 327.01 270.497 326.924 271.127ZM335.486 275.991C334.803 275.991 334.243 275.777 333.806 275.351C333.379 274.924 333.166 274.369 333.166 273.687C333.166 272.844 333.534 272.193 334.27 271.735C335.006 271.265 336.179 270.945 337.79 270.775C337.779 270.359 337.667 270.001 337.454 269.703C337.251 269.393 336.883 269.239 336.35 269.239C335.966 269.239 335.587 269.313 335.214 269.463C334.851 269.612 334.494 269.793 334.142 270.007L333.47 268.775C333.907 268.497 334.398 268.257 334.942 268.055C335.497 267.852 336.083 267.751 336.702 267.751C337.683 267.751 338.414 268.044 338.894 268.631C339.385 269.207 339.63 270.044 339.63 271.143V275.799H338.11L337.982 274.935H337.918C337.566 275.233 337.187 275.484 336.782 275.687C336.387 275.889 335.955 275.991 335.486 275.991ZM336.078 274.551C336.398 274.551 336.686 274.476 336.942 274.327C337.209 274.167 337.491 273.953 337.79 273.687V271.927C336.723 272.065 335.982 272.273 335.566 272.551C335.15 272.817 334.942 273.148 334.942 273.543C334.942 273.895 335.049 274.151 335.262 274.311C335.475 274.471 335.747 274.551 336.078 274.551ZM341.832 275.799V267.943H343.352L343.48 269.335H343.544C343.821 268.823 344.157 268.433 344.552 268.167C344.947 267.889 345.352 267.751 345.768 267.751C346.141 267.751 346.44 267.804 346.664 267.911L346.344 269.511C346.205 269.468 346.077 269.436 345.96 269.415C345.843 269.393 345.699 269.383 345.528 269.383C345.219 269.383 344.893 269.505 344.552 269.751C344.211 269.985 343.917 270.401 343.672 270.999V275.799H341.832Z" fill="#1B1B1B"/>
<path d="M405.83 275.991C404.923 275.991 404.123 275.772 403.43 275.335C402.736 274.887 402.192 274.257 401.798 273.447C401.414 272.625 401.222 271.649 401.222 270.519C401.222 269.388 401.414 268.423 401.798 267.623C402.192 266.823 402.736 266.209 403.43 265.783C404.123 265.356 404.923 265.143 405.83 265.143C406.747 265.143 407.552 265.356 408.246 265.783C408.939 266.209 409.478 266.823 409.862 267.623C410.256 268.423 410.454 269.388 410.454 270.519C410.454 271.649 410.256 272.625 409.862 273.447C409.478 274.257 408.939 274.887 408.246 275.335C407.552 275.772 406.747 275.991 405.83 275.991ZM405.83 274.375C406.651 274.375 407.307 274.028 407.798 273.335C408.288 272.631 408.534 271.692 408.534 270.519C408.534 269.345 408.288 268.428 407.798 267.767C407.307 267.095 406.651 266.759 405.83 266.759C405.008 266.759 404.352 267.095 403.862 267.767C403.371 268.428 403.126 269.345 403.126 270.519C403.126 271.692 403.371 272.631 403.862 273.335C404.352 274.028 405.008 274.375 405.83 274.375ZM415.155 275.991C414.248 275.991 413.603 275.729 413.219 275.207C412.845 274.673 412.659 273.985 412.659 273.143V269.399H411.539V268.023L412.755 267.943L412.979 265.799H414.515V267.943H416.515V269.399H414.515V273.143C414.515 274.06 414.883 274.519 415.619 274.519C415.757 274.519 415.901 274.503 416.051 274.471C416.2 274.428 416.328 274.385 416.435 274.343L416.755 275.703C416.541 275.777 416.296 275.841 416.019 275.895C415.752 275.959 415.464 275.991 415.155 275.991ZM418.168 275.799V264.503H420.008V267.415L419.944 268.935C420.275 268.625 420.643 268.353 421.048 268.119C421.453 267.873 421.923 267.751 422.456 267.751C423.299 267.751 423.912 268.023 424.296 268.567C424.68 269.111 424.872 269.879 424.872 270.871V275.799H423.032V271.111C423.032 270.46 422.936 270.001 422.744 269.735C422.552 269.468 422.237 269.335 421.8 269.335C421.459 269.335 421.155 269.42 420.888 269.591C420.632 269.751 420.339 269.991 420.008 270.311V275.799H418.168ZM430.45 275.991C429.725 275.991 429.069 275.831 428.482 275.511C427.895 275.18 427.431 274.711 427.09 274.103C426.749 273.484 426.578 272.743 426.578 271.879C426.578 271.025 426.749 270.289 427.09 269.671C427.442 269.052 427.895 268.577 428.45 268.247C429.005 267.916 429.586 267.751 430.194 267.751C430.909 267.751 431.506 267.911 431.986 268.231C432.466 268.54 432.829 268.977 433.074 269.543C433.319 270.097 433.442 270.743 433.442 271.479C433.442 271.863 433.415 272.161 433.362 272.375H428.37C428.455 273.068 428.706 273.607 429.122 273.991C429.538 274.375 430.061 274.567 430.69 274.567C431.031 274.567 431.346 274.519 431.634 274.423C431.933 274.316 432.226 274.172 432.514 273.991L433.138 275.143C432.765 275.388 432.349 275.591 431.89 275.751C431.431 275.911 430.951 275.991 430.45 275.991ZM428.354 271.127H431.842C431.842 270.519 431.709 270.044 431.442 269.703C431.175 269.351 430.775 269.175 430.242 269.175C429.783 269.175 429.373 269.345 429.01 269.687C428.658 270.017 428.439 270.497 428.354 271.127ZM435.199 275.799V267.943H436.719L436.847 269.335H436.911C437.189 268.823 437.525 268.433 437.919 268.167C438.314 267.889 438.719 267.751 439.135 267.751C439.509 267.751 439.807 267.804 440.031 267.911L439.711 269.511C439.573 269.468 439.445 269.436 439.327 269.415C439.21 269.393 439.066 269.383 438.895 269.383C438.586 269.383 438.261 269.505 437.919 269.751C437.578 269.985 437.285 270.401 437.039 270.999V275.799H435.199ZM448.451 275.991C447.651 275.991 446.952 275.831 446.355 275.511C445.758 275.191 445.294 274.679 444.963 273.975C444.643 273.271 444.483 272.348 444.483 271.207V265.335H446.339V271.351C446.339 272.108 446.424 272.711 446.595 273.159C446.776 273.596 447.027 273.911 447.347 274.103C447.667 274.284 448.035 274.375 448.451 274.375C448.878 274.375 449.251 274.284 449.571 274.103C449.902 273.911 450.158 273.596 450.339 273.159C450.531 272.711 450.627 272.108 450.627 271.351V265.335H452.403V271.207C452.403 272.348 452.243 273.271 451.923 273.975C451.603 274.679 451.144 275.191 450.547 275.511C449.96 275.831 449.262 275.991 448.451 275.991ZM454.856 275.799V267.943H456.376L456.504 268.999H456.568C456.92 268.657 457.304 268.364 457.72 268.119C458.136 267.873 458.61 267.751 459.144 267.751C459.986 267.751 460.6 268.023 460.984 268.567C461.368 269.111 461.56 269.879 461.56 270.871V275.799H459.72V271.111C459.72 270.46 459.624 270.001 459.432 269.735C459.24 269.468 458.925 269.335 458.488 269.335C458.146 269.335 457.842 269.42 457.576 269.591C457.32 269.751 457.026 269.991 456.696 270.311V275.799H454.856ZM463.809 275.799V264.503H465.617V271.559H465.665L468.577 267.943H470.593L467.905 271.143L470.865 275.799H468.865L466.849 272.391L465.617 273.799V275.799H463.809ZM472.168 275.799V267.943H473.688L473.816 268.999H473.88C474.232 268.657 474.616 268.364 475.032 268.119C475.448 267.873 475.923 267.751 476.456 267.751C477.299 267.751 477.912 268.023 478.296 268.567C478.68 269.111 478.872 269.879 478.872 270.871V275.799H477.032V271.111C477.032 270.46 476.936 270.001 476.744 269.735C476.552 269.468 476.237 269.335 475.8 269.335C475.459 269.335 475.155 269.42 474.888 269.591C474.632 269.751 474.339 269.991 474.008 270.311V275.799H472.168ZM484.337 275.991C483.686 275.991 483.078 275.831 482.513 275.511C481.948 275.18 481.489 274.711 481.137 274.103C480.785 273.484 480.609 272.743 480.609 271.879C480.609 271.004 480.785 270.263 481.137 269.655C481.489 269.036 481.948 268.567 482.513 268.247C483.078 267.916 483.686 267.751 484.337 267.751C484.998 267.751 485.612 267.916 486.177 268.247C486.742 268.567 487.201 269.036 487.553 269.655C487.905 270.263 488.081 271.004 488.081 271.879C488.081 272.743 487.905 273.484 487.553 274.103C487.201 274.711 486.742 275.18 486.177 275.511C485.612 275.831 484.998 275.991 484.337 275.991ZM484.337 274.487C484.913 274.487 485.366 274.247 485.697 273.767C486.028 273.287 486.193 272.657 486.193 271.879C486.193 271.089 486.028 270.455 485.697 269.975C485.366 269.495 484.913 269.255 484.337 269.255C483.761 269.255 483.308 269.495 482.977 269.975C482.657 270.455 482.497 271.089 482.497 271.879C482.497 272.657 482.657 273.287 482.977 273.767C483.308 274.247 483.761 274.487 484.337 274.487ZM491.105 275.799L489.025 267.943H490.881L491.825 272.023C491.91 272.396 491.979 272.769 492.033 273.143C492.097 273.516 492.166 273.895 492.241 274.279H492.305C492.379 273.895 492.454 273.516 492.529 273.143C492.614 272.759 492.705 272.385 492.801 272.023L493.825 267.943H495.505L496.545 272.023C496.641 272.396 496.731 272.769 496.817 273.143C496.902 273.516 496.987 273.895 497.073 274.279H497.137C497.211 273.895 497.281 273.516 497.345 273.143C497.409 272.769 497.478 272.396 497.553 272.023L498.497 267.943H500.225L498.225 275.799H496.033L495.121 272.135C495.035 271.761 494.955 271.393 494.881 271.031C494.806 270.657 494.726 270.263 494.641 269.847H494.577C494.502 270.263 494.427 270.657 494.353 271.031C494.278 271.404 494.198 271.777 494.113 272.151L493.217 275.799H491.105ZM501.777 275.799V267.943H503.297L503.425 268.999H503.489C503.841 268.657 504.225 268.364 504.641 268.119C505.057 267.873 505.532 267.751 506.065 267.751C506.908 267.751 507.521 268.023 507.905 268.567C508.289 269.111 508.481 269.879 508.481 270.871V275.799H506.641V271.111C506.641 270.46 506.545 270.001 506.353 269.735C506.161 269.468 505.847 269.335 505.409 269.335C505.068 269.335 504.764 269.42 504.497 269.591C504.241 269.751 503.948 269.991 503.617 270.311V275.799H501.777Z" fill="#1B1B1B"/>
<path d="M564.54 276.391C563.634 276.391 562.834 276.173 562.14 275.735C561.447 275.287 560.903 274.658 560.508 273.847C560.124 273.026 559.932 272.05 559.932 270.919C559.932 269.789 560.124 268.823 560.508 268.023C560.903 267.223 561.447 266.61 562.14 266.183C562.834 265.757 563.634 265.543 564.54 265.543C565.458 265.543 566.263 265.757 566.956 266.183C567.65 266.61 568.188 267.223 568.572 268.023C568.967 268.823 569.164 269.789 569.164 270.919C569.164 272.05 568.967 273.026 568.572 273.847C568.188 274.658 567.65 275.287 566.956 275.735C566.263 276.173 565.458 276.391 564.54 276.391ZM564.54 274.775C565.362 274.775 566.018 274.429 566.508 273.735C566.999 273.031 567.244 272.093 567.244 270.919C567.244 269.746 566.999 268.829 566.508 268.167C566.018 267.495 565.362 267.159 564.54 267.159C563.719 267.159 563.063 267.495 562.572 268.167C562.082 268.829 561.836 269.746 561.836 270.919C561.836 272.093 562.082 273.031 562.572 273.735C563.063 274.429 563.719 274.775 564.54 274.775ZM573.866 276.391C572.959 276.391 572.314 276.13 571.93 275.607C571.556 275.074 571.37 274.386 571.37 273.543V269.799H570.25V268.423L571.466 268.343L571.69 266.199H573.226V268.343H575.226V269.799H573.226V273.543C573.226 274.461 573.594 274.919 574.33 274.919C574.468 274.919 574.612 274.903 574.762 274.871C574.911 274.829 575.039 274.786 575.146 274.743L575.466 276.103C575.252 276.178 575.007 276.242 574.73 276.295C574.463 276.359 574.175 276.391 573.866 276.391ZM576.879 276.199V264.903H578.719V267.815L578.655 269.335C578.986 269.026 579.354 268.754 579.759 268.519C580.164 268.274 580.634 268.151 581.167 268.151C582.01 268.151 582.623 268.423 583.007 268.967C583.391 269.511 583.583 270.279 583.583 271.271V276.199H581.743V271.511C581.743 270.861 581.647 270.402 581.455 270.135C581.263 269.869 580.948 269.735 580.511 269.735C580.17 269.735 579.866 269.821 579.599 269.991C579.343 270.151 579.05 270.391 578.719 270.711V276.199H576.879ZM589.161 276.391C588.435 276.391 587.779 276.231 587.193 275.911C586.606 275.581 586.142 275.111 585.801 274.503C585.459 273.885 585.289 273.143 585.289 272.279C585.289 271.426 585.459 270.69 585.801 270.071C586.153 269.453 586.606 268.978 587.161 268.647C587.715 268.317 588.297 268.151 588.905 268.151C589.619 268.151 590.217 268.311 590.697 268.631C591.177 268.941 591.539 269.378 591.785 269.943C592.03 270.498 592.153 271.143 592.153 271.879C592.153 272.263 592.126 272.562 592.073 272.775H587.081C587.166 273.469 587.417 274.007 587.833 274.391C588.249 274.775 588.771 274.967 589.401 274.967C589.742 274.967 590.057 274.919 590.345 274.823C590.643 274.717 590.937 274.573 591.225 274.391L591.849 275.543C591.475 275.789 591.059 275.991 590.601 276.151C590.142 276.311 589.662 276.391 589.161 276.391ZM587.065 271.527H590.553C590.553 270.919 590.419 270.445 590.153 270.103C589.886 269.751 589.486 269.575 588.953 269.575C588.494 269.575 588.083 269.746 587.721 270.087C587.369 270.418 587.15 270.898 587.065 271.527ZM593.91 276.199V268.343H595.43L595.558 269.735H595.622C595.9 269.223 596.236 268.834 596.63 268.567C597.025 268.29 597.43 268.151 597.846 268.151C598.22 268.151 598.518 268.205 598.742 268.311L598.422 269.911C598.284 269.869 598.156 269.837 598.038 269.815C597.921 269.794 597.777 269.783 597.606 269.783C597.297 269.783 596.972 269.906 596.63 270.151C596.289 270.386 595.996 270.802 595.75 271.399V276.199H593.91ZM603.242 276.199V265.735H609.562V267.303H605.098V270.263H608.906V271.831H605.098V276.199H603.242ZM614.204 276.391C613.554 276.391 612.946 276.231 612.38 275.911C611.815 275.581 611.356 275.111 611.004 274.503C610.652 273.885 610.476 273.143 610.476 272.279C610.476 271.405 610.652 270.663 611.004 270.055C611.356 269.437 611.815 268.967 612.38 268.647C612.946 268.317 613.554 268.151 614.204 268.151C614.866 268.151 615.479 268.317 616.044 268.647C616.61 268.967 617.068 269.437 617.42 270.055C617.772 270.663 617.948 271.405 617.948 272.279C617.948 273.143 617.772 273.885 617.42 274.503C617.068 275.111 616.61 275.581 616.044 275.911C615.479 276.231 614.866 276.391 614.204 276.391ZM614.204 274.887C614.78 274.887 615.234 274.647 615.564 274.167C615.895 273.687 616.06 273.058 616.06 272.279C616.06 271.49 615.895 270.855 615.564 270.375C615.234 269.895 614.78 269.655 614.204 269.655C613.628 269.655 613.175 269.895 612.844 270.375C612.524 270.855 612.364 271.49 612.364 272.279C612.364 273.058 612.524 273.687 612.844 274.167C613.175 274.647 613.628 274.887 614.204 274.887ZM621.899 276.391C621.366 276.391 620.832 276.29 620.299 276.087C619.766 275.874 619.307 275.613 618.923 275.303L619.787 274.119C620.139 274.386 620.491 274.599 620.843 274.759C621.195 274.919 621.568 274.999 621.963 274.999C622.39 274.999 622.704 274.909 622.907 274.727C623.11 274.546 623.211 274.322 623.211 274.055C623.211 273.831 623.126 273.65 622.955 273.511C622.795 273.362 622.587 273.234 622.331 273.127C622.075 273.01 621.808 272.898 621.531 272.791C621.19 272.663 620.848 272.509 620.507 272.327C620.176 272.135 619.904 271.895 619.691 271.607C619.478 271.309 619.371 270.941 619.371 270.503C619.371 269.81 619.627 269.245 620.139 268.807C620.651 268.37 621.344 268.151 622.219 268.151C622.774 268.151 623.27 268.247 623.707 268.439C624.144 268.631 624.523 268.85 624.843 269.095L623.995 270.215C623.718 270.013 623.435 269.853 623.147 269.735C622.87 269.607 622.576 269.543 622.267 269.543C621.872 269.543 621.579 269.629 621.387 269.799C621.195 269.959 621.099 270.162 621.099 270.407C621.099 270.717 621.259 270.951 621.579 271.111C621.899 271.271 622.272 271.426 622.699 271.575C623.062 271.703 623.414 271.863 623.755 272.055C624.096 272.237 624.379 272.477 624.603 272.775C624.838 273.074 624.955 273.469 624.955 273.959C624.955 274.631 624.694 275.207 624.171 275.687C623.648 276.157 622.891 276.391 621.899 276.391ZM628.79 276.391C628.256 276.391 627.723 276.29 627.19 276.087C626.656 275.874 626.198 275.613 625.814 275.303L626.678 274.119C627.03 274.386 627.382 274.599 627.734 274.759C628.086 274.919 628.459 274.999 628.854 274.999C629.28 274.999 629.595 274.909 629.798 274.727C630 274.546 630.102 274.322 630.102 274.055C630.102 273.831 630.016 273.65 629.846 273.511C629.686 273.362 629.478 273.234 629.222 273.127C628.966 273.01 628.699 272.898 628.422 272.791C628.08 272.663 627.739 272.509 627.398 272.327C627.067 272.135 626.795 271.895 626.582 271.607C626.368 271.309 626.262 270.941 626.262 270.503C626.262 269.81 626.518 269.245 627.03 268.807C627.542 268.37 628.235 268.151 629.11 268.151C629.664 268.151 630.16 268.247 630.598 268.439C631.035 268.631 631.414 268.85 631.734 269.095L630.886 270.215C630.608 270.013 630.326 269.853 630.038 269.735C629.76 269.607 629.467 269.543 629.158 269.543C628.763 269.543 628.47 269.629 628.278 269.799C628.086 269.959 627.99 270.162 627.99 270.407C627.99 270.717 628.15 270.951 628.47 271.111C628.79 271.271 629.163 271.426 629.59 271.575C629.952 271.703 630.304 271.863 630.646 272.055C630.987 272.237 631.27 272.477 631.494 272.775C631.728 273.074 631.846 273.469 631.846 273.959C631.846 274.631 631.584 275.207 631.062 275.687C630.539 276.157 629.782 276.391 628.79 276.391ZM633.488 276.199V268.343H635.328V276.199H633.488ZM634.416 266.967C634.086 266.967 633.819 266.871 633.616 266.679C633.414 266.487 633.312 266.231 633.312 265.911C633.312 265.602 633.414 265.351 633.616 265.159C633.819 264.967 634.086 264.871 634.416 264.871C634.747 264.871 635.014 264.967 635.216 265.159C635.419 265.351 635.52 265.602 635.52 265.911C635.52 266.231 635.419 266.487 635.216 266.679C635.014 266.871 634.747 266.967 634.416 266.967ZM639.468 276.391C638.817 276.391 638.353 276.194 638.076 275.799C637.809 275.405 637.676 274.866 637.676 274.183V264.903H639.516V274.279C639.516 274.503 639.558 274.663 639.644 274.759C639.729 274.845 639.82 274.887 639.916 274.887C639.958 274.887 639.996 274.887 640.028 274.887C640.07 274.877 640.129 274.866 640.204 274.855L640.444 276.231C640.337 276.274 640.198 276.311 640.028 276.343C639.868 276.375 639.681 276.391 639.468 276.391Z" fill="#1B1B1B"/>
</svg>
