<svg width="5316" height="784" viewBox="0 0 5316 784" fill="none" xmlns="http://www.w3.org/2000/svg">
<path d="M4794.48 141.084H4704.88V164.677H4503.47C4499.72 164.677 4496.65 167.746 4496.65 171.496V310.669H4490.03C4485.13 310.669 4480.63 313.976 4479.7 318.783C4478.48 325.261 4483.39 330.921 4489.66 330.921H4811.15C4816.64 330.921 4821.55 326.796 4821.85 321.34C4822.16 315.476 4817.52 310.669 4811.73 310.669H4794.48V164.677" fill="#1B1B1B"/>
<path d="M4794.48 557.954H4704.88V581.547H4503.47C4499.72 581.547 4496.65 584.616 4496.65 588.366V727.539H4490.03C4485.13 727.539 4480.63 730.846 4479.7 735.653C4478.48 742.131 4483.39 747.791 4489.66 747.791H4811.15C4816.64 747.791 4821.55 743.666 4821.85 738.211C4822.16 732.346 4817.52 727.539 4811.73 727.539H4794.48V581.547" fill="#1B1B1B"/>
<path d="M266.425 568.319L256.368 454.171H204.65L194.593 568.319H181.944V501.835H54.2693V568.319H0.505981V688.194C0.505981 720.823 26.9615 747.28 59.5877 747.28H73.4291C74.3837 732.244 79.3271 723.482 83.4181 716.322C87.3728 709.401 90.2365 704.389 90.2365 692.899C90.2365 681.41 87.3728 676.398 83.4181 669.477C78.9861 661.737 73.5314 652.055 73.2927 634.598H55.1557L85.4977 590.583L115.84 634.598H98.7596C98.9641 645.202 101.726 650.145 105.544 656.828C110.078 664.772 115.703 674.625 115.703 692.899C115.703 711.174 110.078 721.027 105.544 728.971C102.237 734.767 99.7142 739.268 98.9641 747.28H148.33C149.284 732.244 154.228 723.482 158.319 716.322C162.273 709.401 165.137 704.389 165.137 692.899C165.137 681.41 162.273 676.398 158.319 669.477C153.887 661.737 148.432 652.055 148.193 634.598H130.056L160.398 590.583L190.74 634.598H173.66C173.865 645.202 176.626 650.145 180.444 656.828C184.979 664.772 190.604 674.625 190.604 692.899C190.604 711.174 184.979 721.027 180.444 728.971C177.137 734.767 174.615 739.268 173.865 747.28H223.23C224.185 732.244 229.128 723.482 233.219 716.322C237.174 709.401 240.038 704.389 240.038 692.899C240.038 681.41 237.174 676.398 233.219 669.477C228.787 661.737 223.332 652.055 223.094 634.598H204.957L235.299 590.583L265.641 634.598H248.561C248.765 645.202 251.527 650.145 255.345 656.828C259.879 664.772 265.504 674.625 265.504 692.899C265.504 711.174 259.879 721.027 255.345 728.971C252.038 734.767 249.515 739.268 248.765 747.28H267.72L274.539 745.712C300.756 739.677 320.359 716.22 320.359 688.16V568.285H266.288L266.425 568.319ZM107.214 554.545H78.3725V525.701H107.214V554.545ZM157.944 554.545H129.102V525.701H157.944V554.545Z" fill="#1B1B1B"/>
<path d="M773.409 509.54C769.83 509.54 766.932 506.642 766.932 503.062V479.06C766.932 475.48 769.83 472.582 773.409 472.582C776.989 472.582 779.887 475.48 779.887 479.06V503.062C779.887 506.642 776.989 509.54 773.409 509.54ZM816.263 523.485L833.241 506.506C835.764 503.983 835.764 499.892 833.241 497.369C830.718 494.846 826.627 494.846 824.104 497.369L807.127 514.348C804.604 516.87 804.604 520.962 807.127 523.485C808.388 524.746 810.058 525.394 811.695 525.394C813.331 525.394 815.002 524.78 816.263 523.519V523.485ZM858.06 557.17C858.06 553.59 855.162 550.692 851.583 550.692H827.548C823.968 550.692 821.07 553.59 821.07 557.17C821.07 560.75 823.968 563.648 827.548 563.648H851.583C855.162 563.648 858.06 560.75 858.06 557.17ZM833.275 616.971C835.798 614.448 835.798 610.357 833.275 607.834L816.297 590.855C813.775 588.332 809.684 588.332 807.161 590.855C804.638 593.378 804.638 597.469 807.161 599.992L824.139 616.971C825.4 618.233 827.071 618.846 828.707 618.846C830.343 618.846 832.014 618.199 833.275 616.937V616.971ZM739.692 523.485C742.215 520.962 742.215 516.87 739.692 514.348L722.714 497.369C720.192 494.846 716.1 494.846 713.578 497.369C711.055 499.892 711.055 503.983 713.578 506.506L730.556 523.485C731.817 524.746 733.488 525.36 735.124 525.36C736.76 525.36 738.431 524.746 739.692 523.451V523.485ZM773.443 517.177C755.102 517.177 739.658 529.519 734.919 546.328H770.273C777.773 546.328 784.08 551.885 784.592 558.977L787.251 594.674C802.524 589.048 813.468 574.388 813.468 557.17C813.468 535.077 795.535 517.177 773.409 517.177H773.443Z" fill="#1B1B1B"/>
<path d="M599.198 579.57H642.632L641.064 619.461H596.403L599.198 579.57ZM650.848 671.898H697.179L696.497 629.075H651.53L650.848 671.898ZM593.539 671.898H639.87L640.859 629.075H595.891L593.539 671.898ZM651.7 619.461H696.361V579.57H652.962L651.7 619.461ZM750.09 579.57H706.657L706.93 619.461H751.59L750.056 579.57H750.09ZM752.17 629.075H707.202L708.191 671.898H754.522L752.204 629.075H752.17Z" fill="#00A91C"/>
<path d="M775.762 559.625C775.591 557.17 773.103 555.159 770.273 555.159H579.561C576.698 555.159 574.243 557.136 574.073 559.625L561.322 695.491C561.083 698.491 563.47 700.912 566.64 700.912H645.393V716.118H631.654V728.903H716.441V716.118H702.702V700.912H780.671C783.842 700.912 786.194 698.491 785.989 695.491L775.83 559.625H775.762ZM581.914 682.228L589.482 570.603H759.875L766.148 682.228H581.948H581.914Z" fill="#1B1B1B"/>
<path d="M1197.58 731.596H1188.14L1149.79 560.443C1153.67 558.773 1156.4 554.92 1156.4 550.419C1156.4 544.385 1151.53 539.509 1145.49 539.509H1079.63C1073.59 539.509 1068.72 544.385 1068.72 550.419C1068.72 554.681 1071.2 558.363 1074.78 560.136L1043.42 731.562H1034.28C1028.25 731.562 1023.37 736.438 1023.37 742.473C1023.37 748.507 1028.25 753.383 1034.28 753.383H1197.55C1203.58 753.383 1208.46 748.507 1208.46 742.473C1208.46 736.438 1203.58 731.562 1197.55 731.562L1197.58 731.596ZM1149.68 659.555L1091.73 635.928L1138.03 607.561L1149.68 659.555ZM1127.7 561.432L1133.01 585.093L1087.33 613.085L1096.77 561.432H1127.7ZM1136.97 677.932L1068.58 715.368L1079.69 654.577L1136.97 677.932ZM1156.91 691.877L1165.81 731.596H1084.36L1156.91 691.877Z" fill="#1B1B1B"/>
<path d="M1144.95 485.879C1143 466.718 1129.6 447.285 1105.5 425.021C1108.71 444.421 1099.71 454.853 1093.02 465.934C1091.28 462.9 1089.85 459.217 1088.9 454.581C1074.41 472.207 1072.4 492.221 1077.95 505.279C1083.44 518.132 1096.67 528.122 1111.94 527.542C1137.72 526.656 1146.72 503.676 1144.95 485.913V485.879ZM1111.94 523.963C1104.27 524.269 1097.59 519.223 1094.83 512.746C1092.03 506.165 1093.06 496.073 1100.35 487.209C1100.83 489.527 1101.58 491.402 1102.43 492.937C1105.81 487.379 1110.34 482.129 1108.71 472.344C1120.84 483.561 1127.63 493.38 1128.58 502.995C1129.47 511.927 1124.93 523.519 1111.94 523.963Z" fill="#00A91C"/>
<path d="M1676.68 721.368L1685.92 686.831L1741.8 721.368H1775.62C1775.62 721.368 1741.01 592.219 1737.47 579.059C1734.91 569.547 1726.39 562.182 1715.96 562.182C1705.52 562.182 1696.69 569.478 1694.37 579.298C1694.27 579.502 1656.33 721.368 1656.33 721.368H1676.65H1676.68ZM1735.97 649.191L1750.56 703.708L1700.55 672.818L1736 649.191H1735.97ZM1715.96 577.32C1720.15 577.32 1723.56 580.729 1723.56 584.923C1723.56 589.117 1720.15 592.526 1715.96 592.526C1711.76 592.526 1708.35 589.117 1708.35 584.923C1708.35 580.729 1711.76 577.32 1715.96 577.32ZM1707.84 604.936C1710.36 605.925 1713.09 606.505 1715.99 606.505C1718.89 606.505 1721.61 605.925 1724.17 604.902L1730.65 629.143L1695.02 652.873L1707.84 604.902V604.936Z" fill="#00A91C"/>
<path d="M1579.18 618.37C1579.96 618.472 1580.95 618.574 1581.97 618.711V703.401H1594.55V620.279C1595.37 620.381 1596.09 620.483 1596.63 620.552C1597.35 620.654 1598.03 620.279 1598.41 619.631L1639.52 546.601L1686.67 570.229C1692.02 559.114 1703.21 551.784 1715.99 551.784C1730.68 551.784 1743.67 561.909 1747.59 576.365C1748.48 579.673 1751.38 590.378 1755.16 604.527L1825.15 639.576V670.398H1837.73V586.185L1659.19 497.267L1651.76 456.66C1651.62 456.251 1651.39 455.944 1651.01 455.774C1648.73 454.649 1639.73 450.251 1636.15 448.716C1635.77 448.546 1635.43 448.614 1635.09 448.887C1622.34 459.149 1604.99 479.708 1593.43 503.983C1572.94 547.078 1575.19 585.878 1577.64 616.767C1577.71 617.62 1578.36 618.301 1579.21 618.404L1579.18 618.37Z" fill="#1B1B1B"/>
<path d="M1868.72 733.949H1856.96V691.877C1856.96 689.695 1855.19 687.956 1853.04 687.956H1809.44C1807.25 687.956 1805.52 689.729 1805.52 691.877V733.949H1599.7V723.039C1599.7 721.675 1598.61 720.584 1597.25 720.584H1578.53C1577.17 720.584 1576.08 721.675 1576.08 723.039V733.949H1563.39C1562.44 733.949 1561.62 734.733 1561.62 735.722V747.894C1561.62 748.848 1562.4 749.667 1563.39 749.667H1868.72C1869.68 749.667 1870.5 748.882 1870.5 747.894V735.722C1870.5 734.767 1869.71 733.949 1868.72 733.949Z" fill="#1B1B1B"/>
<path d="M1520.37 738.347H1518.8H1501.65C1499.57 738.347 1497.9 736.677 1497.9 734.597C1497.9 732.517 1499.57 730.846 1501.65 730.846H1518.8V692.252H1520.37C1524.39 692.252 1527.63 689.013 1527.63 684.99C1527.63 681.205 1524.73 678.137 1521.05 677.796H1501.65C1499.57 677.796 1497.9 676.125 1497.9 674.045C1497.9 671.966 1499.57 670.295 1501.65 670.295H1518.8V631.632H1520.37C1524.39 631.632 1527.63 628.393 1527.63 624.37C1527.63 620.347 1524.39 617.108 1520.37 617.108H1407.83C1403.81 617.108 1400.57 620.347 1400.57 624.37C1400.57 628.393 1403.81 631.632 1407.83 631.632H1409.4V670.295H1426.41C1428.49 670.295 1430.16 671.966 1430.16 674.045C1430.16 676.125 1428.49 677.796 1426.41 677.796H1407.15C1403.47 678.137 1400.57 681.205 1400.57 684.99C1400.57 689.013 1403.81 692.252 1407.83 692.252H1409.4V730.846H1426.41C1428.49 730.846 1430.16 732.517 1430.16 734.597C1430.16 736.677 1428.49 738.347 1426.41 738.347H1409.4H1407.83C1403.81 738.347 1400.57 741.586 1400.57 745.609C1400.57 749.632 1403.81 752.871 1407.83 752.871H1520.37C1524.39 752.871 1527.63 749.632 1527.63 745.609C1527.63 741.586 1524.39 738.347 1520.37 738.347Z" fill="#1B1B1B"/>
<path d="M1478.26 675.205C1473.12 667.329 1467.25 660.51 1465.31 648.372C1465.24 647.793 1464.7 647.315 1464.12 647.315C1463.5 647.315 1462.99 647.759 1462.92 648.406C1460.98 661.43 1454.98 668.215 1449.7 676.091C1444.58 683.694 1440.22 690.274 1440.22 698.73C1440.22 711.924 1450.96 722.63 1464.15 722.63C1477.34 722.63 1488.08 711.924 1488.08 698.73C1488.08 690.104 1483.34 682.876 1478.3 675.205H1478.26ZM1464.12 715.368C1454.91 715.368 1447.45 707.935 1447.45 698.73C1447.45 696.854 1448.98 695.32 1450.85 695.32C1452.73 695.32 1454.23 696.854 1454.23 698.73C1454.23 704.185 1458.7 708.583 1464.15 708.583C1466.03 708.583 1467.53 710.117 1467.53 711.992C1467.53 713.867 1466.03 715.368 1464.15 715.368H1464.12Z" fill="#00A91C"/>
<path d="M4256.5 753.689C4244.5 731.46 4235.4 713.219 4227.56 695.354C4215.15 666.988 4204.21 621.847 4204.21 578.445C4204.21 554.34 4204.68 547.18 4204.68 529.554C4204.68 526.928 4202.81 524.814 4200.18 524.814H4047.62C4045 524.814 4043.12 526.962 4043.12 529.554C4043.12 546.703 4043.6 554.17 4043.6 578.445C4043.6 621.881 4032.65 667.022 4020.24 695.354C4012.44 713.219 4003.3 731.46 3991.3 753.689C3988.88 758.156 3992.15 763.577 3997.23 763.577H4250.54C4255.62 763.577 4258.89 758.156 4256.47 753.689H4256.5ZM4125.32 708.583C4096.85 708.583 4073.77 685.569 4073.77 657.168C4073.77 628.768 4096.85 605.754 4125.32 605.754C4153.78 605.754 4176.86 628.768 4176.86 657.168C4176.86 685.569 4153.78 708.583 4125.32 708.583Z" fill="#1B1B1B"/>
<path d="M4111.68 658.26L4083.93 658.192C4083.96 654.748 4083.83 647.929 4088.87 637.633C4093.92 627.336 4102.88 622.563 4104.69 621.336L4119.52 644.588C4119.11 644.793 4115.5 646.531 4113.56 649.975C4111.61 653.418 4111.51 656.419 4111.65 658.226L4111.68 658.26ZM4137.32 649.941C4138.75 652.362 4139.4 654.884 4139.29 657.544L4166.98 656.385C4166.91 649.225 4164.9 642.372 4160.98 635.826C4156.89 628.973 4151.53 623.893 4144.89 620.449L4131.01 644.417C4133.67 645.543 4135.75 647.384 4137.32 649.941ZM4147.68 691.911L4133.91 667.977C4133.46 668.284 4130.09 670.841 4126.03 670.841C4121.98 670.841 4119.32 669.477 4118.09 668.693L4105.3 693.241C4108.13 694.638 4114.88 698.457 4126.71 698.457C4137.45 698.457 4146.01 692.934 4147.68 691.911ZM4132 657.135C4132 660.851 4129 663.851 4125.28 663.851C4121.57 663.851 4118.57 660.851 4118.57 657.135C4118.57 653.418 4121.57 650.418 4125.28 650.418C4129 650.418 4132 653.418 4132 657.135Z" fill="#00A91C"/>
<path d="M4057 512.268C4057.64 507.631 4059.18 503.165 4061.63 499.108C4066.34 491.368 4074.21 485.538 4084.24 483.902C4085.67 467.161 4097.36 453.046 4113.76 449.535C4120.68 448.034 4127.91 448.648 4134.56 451.171C4140.73 445 4148.53 440.704 4156.99 438.897C4182.08 433.51 4207.1 450.489 4212.76 476.708C4215.56 489.698 4213.1 502.824 4206.42 513.427C4204.51 512.677 4202.43 512.234 4200.22 512.234H4188.46C4197.18 504.256 4201 491.948 4198.41 479.776C4194.46 461.468 4177.27 449.603 4160.09 453.251C4152.97 454.785 4146.83 458.706 4142.26 464.638L4138.34 469.753L4132.75 466.514C4127.84 463.684 4122.21 462.763 4116.86 463.888C4105.3 466.343 4097.63 477.697 4098.96 490.209L4099.95 499.278C4099.95 499.278 4095.52 498.835 4090.88 498.324C4080.25 497.13 4073.33 505.654 4072.03 512.234H4057.03L4057 512.268Z" fill="#00A91C"/>
<path d="M4309.24 744.348H4265.67C4254.32 723.141 4246 706.333 4239.01 690.342C4229.3 668.147 4218.05 628.189 4216.82 585.946H4275.83C4277.57 585.946 4278.8 587.378 4278.8 589.083C4278.8 600.777 4278.49 605.516 4278.49 621.506C4278.49 650.316 4285.75 680.251 4293.97 699.071C4299.15 710.935 4305.22 723.005 4313.16 737.768C4314.77 740.734 4312.59 744.314 4309.21 744.314L4309.24 744.348Z" fill="#1B1B1B"/>
<path d="M4217.09 543.328L4217.23 542.885C4218.56 538.282 4221.29 534.532 4225.14 531.975C4234.55 525.769 4247.64 528.872 4254.36 538.964C4258.99 545.919 4259.54 554.579 4255.75 561.568L4253.98 565.864L4256.43 569.546C4258.28 572.342 4259.26 575.445 4259.47 578.616H4274.16C4273.99 573.842 4272.83 569.103 4270.51 564.603C4274.78 553.658 4273.41 541.044 4266.59 530.781C4255.41 513.973 4233.15 508.995 4217.02 519.701C4216.34 520.144 4215.73 520.689 4215.08 521.201C4216.41 523.656 4217.23 526.485 4217.23 529.52C4217.23 534.804 4217.2 539.168 4217.13 543.328H4217.09Z" fill="#00A91C"/>
<path d="M2751.95 665.59L2738.58 659.76L2731.05 645.066C2730.61 644.213 2729.86 643.531 2728.94 643.224L2695.66 631.223C2694.26 630.712 2692.76 631.053 2691.71 632.076L2677.15 646.259L2674.15 643.94C2673.3 643.293 2672.24 642.986 2671.15 643.19L2649.3 646.907C2648.34 647.077 2647.49 647.588 2646.88 648.373L2633.78 665.658C2632.52 667.329 2632.86 669.852 2634.53 671.011C2636.17 672.171 2638.56 672 2639.89 670.261C2641.22 668.557 2652.06 654.169 2652.06 654.169L2670.77 650.998L2687.65 664.192C2689.32 665.488 2691.71 665.215 2693 663.545C2694.3 661.874 2693.99 659.487 2692.36 658.192L2683.18 651.032L2695.32 639.201L2724.95 649.873L2732.41 664.431C2732.82 665.215 2733.47 665.829 2734.29 666.204C2734.29 666.204 2746.43 671.591 2748.88 672.58C2751.33 673.568 2753.04 672.205 2753.89 670.602C2754.74 669 2753.86 666.409 2751.91 665.59H2751.95Z" fill="white"/>
<path d="M2885.76 732.858L2840.45 651.066C2839.87 650.043 2839.12 649.157 2838.2 648.441L2814.64 630.302L2772.95 552.738C2772.44 551.749 2771.72 550.897 2770.87 550.215L2704.46 495.289C2702.75 493.891 2700.6 493.209 2698.42 493.346L2665.87 495.63C2663.79 495.766 2661.81 496.687 2660.38 498.187L2623.22 536.236C2622.84 536.646 2622.47 537.089 2622.16 537.532L2576.27 607.937H2572.9L2565.4 602.004C2563.9 600.811 2562.02 600.163 2560.11 600.163H2551.86C2548.76 600.163 2545.93 601.834 2544.43 604.527L2472.84 732.824C2471.37 735.449 2471.4 738.688 2472.94 741.279C2474.47 743.87 2477.27 745.473 2480.3 745.473H2615.14C2616.98 742.78 2620.01 740.973 2623.49 740.802L2620.52 728.426H2494.79L2556.87 617.176H2557.15L2564.65 623.109C2566.15 624.302 2568.02 624.95 2569.93 624.95H2580.87C2583.74 624.95 2586.43 623.484 2588 621.063L2635.93 547.487L2670.26 512.37L2696.21 510.563L2758.7 562.25L2800.46 639.951C2801.04 641.008 2801.82 641.929 2802.78 642.679L2826.37 660.851L2863.8 728.426H2761.46L2758.46 740.972C2761.32 741.484 2763.74 743.189 2765.35 745.473H2878.26C2881.29 745.473 2884.09 743.87 2885.59 741.279C2887.09 738.688 2887.16 735.449 2885.69 732.824L2885.76 732.858Z" fill="#1B1B1B"/>
<path d="M2753.93 670.602C2754.78 669 2753.89 666.409 2751.95 665.59L2738.58 659.76L2731.05 645.066C2730.61 644.213 2729.86 643.531 2728.94 643.224L2695.66 631.223C2694.26 630.712 2692.76 631.053 2691.71 632.076L2677.15 646.259L2674.15 643.94C2673.3 643.293 2672.24 642.986 2671.15 643.19L2649.3 646.907C2648.34 647.077 2647.49 647.588 2646.88 648.373L2633.78 665.658C2632.52 667.329 2632.86 669.852 2634.53 671.011C2636.17 672.171 2638.56 672 2639.89 670.261C2641.22 668.557 2652.06 654.169 2652.06 654.169L2670.77 650.998L2687.65 664.192C2689.32 665.488 2691.71 665.215 2693 663.545C2694.3 661.874 2693.99 659.487 2692.36 658.192L2683.18 651.032L2695.32 639.201L2724.95 649.873L2732.41 664.431C2732.82 665.215 2733.47 665.829 2734.29 666.204C2734.29 666.204 2746.43 671.591 2748.88 672.58C2751.33 673.568 2753.07 672.205 2753.89 670.602H2753.93Z" fill="#00A91C"/>
<path d="M2767.43 680.66H2614.73C2612.55 680.66 2610.77 682.433 2610.77 684.615V697.23C2610.77 699.412 2612.55 701.184 2614.73 701.184H2648.55C2650.35 701.184 2651.79 702.65 2651.79 704.423C2651.79 706.196 2650.32 707.662 2648.55 707.662H2622.53L2632.08 747.655H2623.97C2621.78 747.655 2620.01 749.428 2620.01 751.61V770.532C2620.01 772.714 2621.78 774.487 2623.97 774.487H2634.43C2634.64 760.168 2646.36 748.541 2660.79 748.541C2676.54 748.541 2687.14 761.634 2687.14 774.487H2695.49C2695.7 760.168 2707.46 748.541 2721.84 748.541C2738.31 748.541 2748.2 762.35 2748.2 774.487H2756.55C2758.73 774.487 2760.51 772.714 2760.51 770.532V751.61C2760.51 749.428 2758.73 747.655 2756.55 747.655H2749.9L2760.98 701.184H2767.43C2769.61 701.184 2771.38 699.412 2771.38 697.23V684.615C2771.38 682.433 2769.61 680.66 2767.43 680.66Z" fill="#1B1B1B"/>
<path d="M4659.92 701.014L4611.4 616.971C4607.21 609.709 4596.74 609.709 4592.55 616.971L4544.04 701.014C4539.84 708.276 4545.09 717.345 4553.48 717.345H4650.54C4658.93 717.345 4664.18 708.276 4659.98 701.014H4659.92ZM4592.34 706.162L4598.45 675.477H4582.63L4606.9 632.109L4600.8 662.794H4616.62L4592.34 706.162Z" fill="#00A91C"/>
<path d="M266.425 148.073L256.368 33.9253H204.65L194.593 148.073H181.944V81.5891H54.2693V148.073H0.505981V267.948C0.505981 300.577 26.9615 327.034 59.5877 327.034H73.4291C74.3837 311.998 79.3271 303.236 83.4181 296.076C87.3728 289.155 90.2365 284.143 90.2365 272.653C90.2365 261.164 87.3728 256.152 83.4181 249.231C78.9861 241.491 73.5314 231.808 73.2927 214.352H55.1557L85.4977 170.336L115.84 214.352H98.7596C98.9641 224.956 101.726 229.899 105.544 236.582C110.078 244.526 115.703 254.379 115.703 272.653C115.703 290.928 110.078 300.781 105.544 308.725C102.237 314.521 99.7142 319.022 98.9641 327.034H148.33C149.284 311.998 154.228 303.236 158.319 296.076C162.273 289.155 165.137 284.143 165.137 272.653C165.137 261.164 162.273 256.152 158.319 249.231C153.887 241.491 148.432 231.808 148.193 214.352H130.056L160.398 170.336L190.74 214.352H173.66C173.865 224.956 176.626 229.899 180.444 236.582C184.979 244.526 190.604 254.379 190.604 272.653C190.604 290.928 184.979 300.781 180.444 308.725C177.137 314.521 174.615 319.022 173.865 327.034H223.23C224.185 311.998 229.128 303.236 233.219 296.076C237.174 289.155 240.038 284.143 240.038 272.653C240.038 261.164 237.174 256.152 233.219 249.231C228.787 241.491 223.332 231.808 223.094 214.352H204.957L235.299 170.336L265.641 214.352H248.561C248.765 224.956 251.527 229.899 255.345 236.582C259.879 244.526 265.504 254.379 265.504 272.653C265.504 290.928 259.879 300.781 255.345 308.725C252.038 314.521 249.515 319.022 248.765 327.034H267.72L274.539 325.465C300.756 319.431 320.359 295.974 320.359 267.914V148.039H266.288L266.425 148.073ZM107.214 134.265H78.3725V105.421H107.214V134.265ZM157.944 134.265H129.102V105.421H157.944V134.265Z" fill="#1B1B1B"/>
<path d="M773.409 89.2604C769.83 89.2604 766.932 86.3624 766.932 82.7825V58.7801C766.932 55.2002 769.83 52.3022 773.409 52.3022C776.989 52.3022 779.887 55.2002 779.887 58.7801V82.7825C779.887 86.3624 776.989 89.2604 773.409 89.2604ZM816.263 103.205L833.241 86.226C835.764 83.703 835.764 79.6117 833.241 77.0887C830.718 74.5658 826.627 74.5658 824.104 77.0887L807.127 94.0677C804.604 96.5907 804.604 100.682 807.127 103.205C808.388 104.466 810.058 105.114 811.695 105.114C813.331 105.114 815.002 104.501 816.263 103.239V103.205ZM858.06 136.89C858.06 133.31 855.162 130.412 851.583 130.412H827.548C823.968 130.412 821.07 133.31 821.07 136.89C821.07 140.47 823.968 143.368 827.548 143.368H851.583C855.162 143.368 858.06 140.47 858.06 136.89ZM833.275 196.692C835.798 194.169 835.798 190.077 833.275 187.554L816.297 170.575C813.775 168.052 809.684 168.052 807.161 170.575C804.638 173.098 804.638 177.19 807.161 179.713L824.139 196.692C825.4 197.953 827.071 198.567 828.707 198.567C830.343 198.567 832.014 197.919 833.275 196.657V196.692ZM739.692 103.205C742.215 100.682 742.215 96.5907 739.692 94.0677L722.714 77.0887C720.192 74.5658 716.1 74.5658 713.578 77.0887C711.055 79.6117 711.055 83.703 713.578 86.226L730.556 103.205C731.817 104.466 733.488 105.08 735.124 105.08C736.76 105.08 738.431 104.466 739.692 103.171V103.205ZM773.443 96.8975C755.102 96.8975 739.658 109.24 734.919 126.048H770.273C777.773 126.048 784.08 131.606 784.592 138.697L787.251 174.394C802.524 168.768 813.468 154.108 813.468 136.89C813.468 114.797 795.535 96.8975 773.409 96.8975H773.443Z" fill="#1B1B1B"/>
<path d="M599.198 159.29H642.632L641.064 199.18H596.403L599.198 159.29ZM650.848 251.617H697.179L696.497 208.795H651.53L650.848 251.617ZM593.539 251.617H639.87L640.859 208.795H595.891L593.539 251.617ZM651.7 199.18H696.361V159.29H652.962L651.7 199.18ZM750.09 159.29H706.657L706.93 199.18H751.59L750.056 159.29H750.09ZM752.17 208.795H707.202L708.191 251.617H754.522L752.204 208.795H752.17Z" fill="#00BDE3"/>
<path d="M775.762 139.345C775.591 136.89 773.103 134.878 770.273 134.878H579.561C576.698 134.878 574.243 136.856 574.073 139.345L561.322 275.21C561.083 278.211 563.47 280.631 566.64 280.631H645.393V295.837H631.654V308.623H716.441V295.837H702.702V280.631H780.671C783.842 280.631 786.194 278.211 785.989 275.21L775.83 139.345H775.762ZM581.914 261.948L589.482 150.323H759.875L766.148 261.948H581.948H581.914Z" fill="#1B1B1B"/>
<path d="M1197.58 307.055H1188.14L1149.79 135.902C1153.67 134.231 1156.4 130.378 1156.4 125.878C1156.4 119.843 1151.53 114.968 1145.49 114.968H1079.63C1073.59 114.968 1068.72 119.843 1068.72 125.878C1068.72 130.14 1071.2 133.822 1074.78 135.595L1043.42 307.021H1034.28C1028.25 307.021 1023.37 311.896 1023.37 317.931C1023.37 323.966 1028.25 328.841 1034.28 328.841H1197.55C1203.58 328.841 1208.46 323.966 1208.46 317.931C1208.46 311.896 1203.58 307.021 1197.55 307.021L1197.58 307.055ZM1149.68 235.014L1091.73 211.386L1138.03 183.02L1149.68 235.014ZM1127.7 136.856L1133.01 160.518L1087.33 188.509L1096.77 136.856H1127.7ZM1136.97 253.39L1068.58 290.826L1079.69 230.036L1136.97 253.39ZM1156.91 267.335L1165.81 307.055H1084.36L1156.91 267.335Z" fill="#1B1B1B"/>
<path d="M1144.95 61.3373C1143 42.1763 1129.6 22.7426 1105.5 0.479004C1108.71 19.8786 1099.71 30.3115 1093.02 41.3921C1091.28 38.3577 1089.85 34.6756 1088.9 30.0388C1074.41 47.6655 1072.4 67.6789 1077.95 80.737C1083.44 93.5905 1096.67 103.58 1111.94 103.001C1137.72 102.114 1146.72 79.1346 1144.95 61.3714V61.3373ZM1111.94 99.3865C1104.27 99.6934 1097.59 94.6474 1094.83 88.1695C1092.03 81.5893 1093.06 71.4974 1100.35 62.6329C1100.83 64.9513 1101.58 66.8265 1102.43 68.3607C1105.81 62.8034 1110.34 57.5529 1108.71 47.7678C1120.84 58.9848 1127.63 68.804 1128.58 78.4186C1129.47 87.3513 1124.93 98.9433 1111.94 99.3865Z" fill="#00BDE3"/>
<path d="M1676.68 301.122L1685.92 266.585L1741.8 301.122H1775.62C1775.62 301.122 1741.01 171.973 1737.47 158.813C1734.91 149.3 1726.39 141.936 1715.96 141.936C1705.52 141.936 1696.69 149.232 1694.37 159.051C1694.27 159.256 1656.33 301.122 1656.33 301.122H1676.65H1676.68ZM1735.97 228.91L1750.56 283.427L1700.55 252.538L1736 228.91H1735.97ZM1715.96 157.04C1720.15 157.04 1723.56 160.449 1723.56 164.643C1723.56 168.836 1720.15 172.246 1715.96 172.246C1711.76 172.246 1708.35 168.836 1708.35 164.643C1708.35 160.449 1711.76 157.04 1715.96 157.04ZM1707.84 184.656C1710.36 185.645 1713.09 186.224 1715.99 186.224C1718.89 186.224 1721.61 185.645 1724.17 184.622L1730.65 208.863L1695.02 232.593L1707.84 184.622V184.656Z" fill="#00BDE3"/>
<path d="M1579.18 198.089C1579.96 198.192 1580.95 198.294 1581.97 198.43V283.12H1594.55V199.999C1595.37 200.101 1596.09 200.203 1596.63 200.271C1597.35 200.374 1598.03 199.999 1598.41 199.351L1639.52 126.321L1686.67 149.948C1692.02 138.833 1703.21 131.503 1715.99 131.503C1730.68 131.503 1743.67 141.629 1747.59 156.085C1748.48 159.392 1751.38 170.098 1755.16 184.247L1825.15 219.296V250.117H1837.73V165.904L1659.19 76.9864L1651.76 36.3801C1651.62 35.971 1651.39 35.6642 1651.01 35.4937C1648.73 34.3686 1639.73 29.9705 1636.15 28.4362C1635.77 28.2657 1635.43 28.3339 1635.09 28.6066C1622.34 38.869 1604.99 59.4279 1593.43 83.703C1572.94 126.798 1575.19 165.598 1577.64 196.487C1577.71 197.339 1578.36 198.021 1579.21 198.123L1579.18 198.089Z" fill="#1B1B1B"/>
<path d="M1868.72 313.669H1856.96V271.597C1856.96 269.415 1855.19 267.676 1853.04 267.676H1809.44C1807.25 267.676 1805.52 269.449 1805.52 271.597V313.669H1599.7V302.759C1599.7 301.395 1598.61 300.304 1597.25 300.304H1578.53C1577.17 300.304 1576.08 301.395 1576.08 302.759V313.669H1563.39C1562.44 313.669 1561.62 314.453 1561.62 315.442V327.614C1561.62 328.568 1562.4 329.386 1563.39 329.386H1868.72C1869.68 329.386 1870.5 328.602 1870.5 327.614V315.442C1870.5 314.487 1869.71 313.669 1868.72 313.669Z" fill="#1B1B1B"/>
<path d="M1520.37 318.101H1518.8H1501.65C1499.57 318.101 1497.9 316.43 1497.9 314.351C1497.9 312.271 1499.57 310.6 1501.65 310.6H1518.8V272.006H1520.37C1524.39 272.006 1527.63 268.767 1527.63 264.744C1527.63 260.959 1524.73 257.891 1521.05 257.55H1501.65C1499.57 257.55 1497.9 255.879 1497.9 253.799C1497.9 251.72 1499.57 250.049 1501.65 250.049H1518.8V211.386H1520.37C1524.39 211.386 1527.63 208.147 1527.63 204.124C1527.63 200.101 1524.39 196.862 1520.37 196.862H1407.83C1403.81 196.862 1400.57 200.101 1400.57 204.124C1400.57 208.147 1403.81 211.386 1407.83 211.386H1409.4V250.049H1426.41C1428.49 250.049 1430.16 251.72 1430.16 253.799C1430.16 255.879 1428.49 257.55 1426.41 257.55H1407.15C1403.47 257.891 1400.57 260.959 1400.57 264.744C1400.57 268.767 1403.81 272.006 1407.83 272.006H1409.4V310.6H1426.41C1428.49 310.6 1430.16 312.271 1430.16 314.351C1430.16 316.43 1428.49 318.101 1426.41 318.101H1409.4H1407.83C1403.81 318.101 1400.57 321.34 1400.57 325.363C1400.57 329.386 1403.81 332.625 1407.83 332.625H1520.37C1524.39 332.625 1527.63 329.386 1527.63 325.363C1527.63 321.34 1524.39 318.101 1520.37 318.101Z" fill="#1B1B1B"/>
<path d="M1478.26 254.924C1473.12 247.048 1467.25 240.23 1465.31 228.092C1465.24 227.512 1464.7 227.035 1464.12 227.035C1463.5 227.035 1462.99 227.478 1462.92 228.126C1460.98 241.15 1454.98 247.935 1449.7 255.811C1444.58 263.414 1440.22 269.994 1440.22 278.449C1440.22 291.644 1450.96 302.349 1464.15 302.349C1477.34 302.349 1488.08 291.644 1488.08 278.449C1488.08 269.823 1483.34 262.595 1478.3 254.924H1478.26ZM1464.12 295.087C1454.91 295.087 1447.45 287.655 1447.45 278.449C1447.45 276.574 1448.98 275.04 1450.85 275.04C1452.73 275.04 1454.23 276.574 1454.23 278.449C1454.23 283.904 1458.7 288.303 1464.15 288.303C1466.03 288.303 1467.53 289.837 1467.53 291.712C1467.53 293.587 1466.03 295.087 1464.15 295.087H1464.12Z" fill="#00BDE3"/>
<path d="M4256.5 333.409C4244.5 311.18 4235.4 292.94 4227.56 275.074C4215.15 246.708 4204.21 201.567 4204.21 158.165C4204.21 134.06 4204.68 126.9 4204.68 109.274C4204.68 106.648 4202.81 104.535 4200.18 104.535H4047.62C4045 104.535 4043.12 106.683 4043.12 109.274C4043.12 126.423 4043.6 133.89 4043.6 158.165C4043.6 201.601 4032.65 246.742 4020.24 275.074C4012.44 292.94 4003.3 311.18 3991.3 333.409C3988.88 337.876 3992.15 343.297 3997.23 343.297H4250.54C4255.62 343.297 4258.89 337.876 4256.47 333.409H4256.5ZM4125.32 288.303C4096.85 288.303 4073.77 265.289 4073.77 236.889C4073.77 208.488 4096.85 185.474 4125.32 185.474C4153.78 185.474 4176.86 208.488 4176.86 236.889C4176.86 265.289 4153.78 288.303 4125.32 288.303Z" fill="#1B1B1B"/>
<path d="M4111.68 237.98L4083.93 237.911C4083.96 234.468 4083.83 227.649 4088.87 217.353C4093.92 207.056 4102.88 202.283 4104.69 201.055L4119.52 224.308C4119.11 224.512 4115.5 226.251 4113.56 229.695C4111.61 233.138 4111.51 236.138 4111.65 237.945L4111.68 237.98ZM4137.32 229.695C4138.75 232.115 4139.4 234.638 4139.29 237.298L4166.98 236.138C4166.91 228.979 4164.9 222.126 4160.98 215.58C4156.89 208.727 4151.53 203.647 4144.89 200.203L4131.01 224.171C4133.67 225.297 4135.75 227.138 4137.32 229.695ZM4147.68 271.631L4133.91 247.696C4133.46 248.003 4130.09 250.56 4126.03 250.56C4121.98 250.56 4119.32 249.197 4118.09 248.412L4105.3 272.96C4108.13 274.358 4114.88 278.177 4126.71 278.177C4137.45 278.177 4146.01 272.653 4147.68 271.631ZM4132 236.888C4132 240.605 4129 243.605 4125.28 243.605C4121.57 243.605 4118.57 240.605 4118.57 236.888C4118.57 233.172 4121.57 230.172 4125.28 230.172C4129 230.172 4132 233.172 4132 236.888Z" fill="#00BDE3"/>
<path d="M4057 92.022C4057.64 87.3852 4059.18 82.9189 4061.63 78.8617C4066.34 71.1223 4074.21 65.2921 4084.24 63.6556C4085.67 46.9153 4097.36 32.8003 4113.76 29.2886C4120.68 27.7884 4127.91 28.4021 4134.56 30.9251C4140.73 24.754 4148.53 20.4581 4156.99 18.6511C4182.08 13.2642 4207.1 30.2432 4212.76 56.4617C4215.56 69.4516 4213.1 82.5779 4206.42 93.1812C4204.51 92.4311 4202.43 91.9879 4200.22 91.9879H4188.46C4197.18 84.0098 4201 71.7018 4198.41 59.5302C4194.46 41.2216 4177.27 29.3568 4160.09 33.0048C4152.97 34.5391 4146.83 38.4599 4142.26 44.3923L4138.34 49.5065L4132.75 46.2675C4127.84 43.4377 4122.21 42.5171 4116.86 43.6422C4105.3 46.097 4097.63 57.4504 4098.96 69.963L4099.95 79.0321C4099.95 79.0321 4095.52 78.5889 4090.88 78.0775C4080.25 76.8842 4073.33 85.4077 4072.03 91.9879H4057.03L4057 92.022Z" fill="#00BDE3"/>
<path d="M4309.24 324.068H4265.67C4254.32 302.861 4246 286.052 4239.01 270.062C4229.3 247.867 4218.05 207.908 4216.82 165.666H4275.83C4277.57 165.666 4278.8 167.097 4278.8 168.802C4278.8 180.496 4278.49 185.236 4278.49 201.226C4278.49 230.035 4285.75 259.97 4293.97 278.79C4299.15 290.655 4305.22 302.725 4313.16 317.487C4314.77 320.454 4312.59 324.033 4309.21 324.033L4309.24 324.068Z" fill="#1B1B1B"/>
<path d="M4217.09 123.048L4217.23 122.604C4218.56 118.002 4221.29 114.251 4225.14 111.694C4234.55 105.489 4247.64 108.592 4254.36 118.684C4258.99 125.639 4259.54 134.299 4255.75 141.288L4253.98 145.584L4256.43 149.266C4258.28 152.062 4259.26 155.165 4259.47 158.335H4274.16C4273.99 153.562 4272.83 148.823 4270.51 144.322C4274.78 133.378 4273.41 120.763 4266.59 110.501C4255.41 93.6925 4233.15 88.7148 4217.02 99.4204C4216.34 99.8636 4215.73 100.409 4215.08 100.92C4216.41 103.375 4217.23 106.205 4217.23 109.239C4217.23 114.524 4217.2 118.888 4217.13 123.048H4217.09Z" fill="#00BDE3"/>
<path d="M2751.95 245.31L2738.58 239.48L2731.05 224.785C2730.61 223.933 2729.86 223.251 2728.94 222.944L2695.66 210.943C2694.26 210.432 2692.76 210.772 2691.71 211.795L2677.15 225.979L2674.15 223.66C2673.3 223.012 2672.24 222.706 2671.15 222.91L2649.3 226.626C2648.34 226.797 2647.49 227.308 2646.88 228.092L2633.78 245.378C2632.52 247.049 2632.86 249.572 2634.53 250.731C2636.17 251.89 2638.56 251.72 2639.89 249.981C2641.22 248.276 2652.06 233.888 2652.06 233.888L2670.77 230.718L2687.65 243.912C2689.32 245.208 2691.71 244.935 2693 243.264C2694.3 241.594 2693.99 239.207 2692.36 237.912L2683.18 230.752L2695.32 218.921L2724.95 229.593L2732.41 244.151C2732.82 244.935 2733.47 245.549 2734.29 245.924C2734.29 245.924 2746.43 251.311 2748.88 252.299C2751.33 253.288 2753.04 251.924 2753.89 250.322C2754.74 248.719 2753.86 246.128 2751.91 245.31H2751.95Z" fill="white"/>
<path d="M2885.76 312.578L2840.45 230.786C2839.87 229.763 2839.12 228.876 2838.2 228.16L2814.64 210.022L2772.95 132.458C2772.44 131.469 2771.72 130.617 2770.87 129.935L2704.46 75.0088C2702.75 73.611 2700.6 72.9291 2698.42 73.0654L2665.87 75.3497C2663.79 75.4861 2661.81 76.4066 2660.38 77.9068L2623.22 115.956C2622.84 116.365 2622.47 116.808 2622.16 117.252L2576.27 187.69H2572.9L2565.4 181.758C2563.9 180.565 2562.02 179.917 2560.11 179.917H2551.86C2548.76 179.917 2545.93 181.588 2544.43 184.281L2472.84 312.578C2471.37 315.203 2471.4 318.442 2472.94 321.033C2474.47 323.624 2477.27 325.227 2480.3 325.227H2615.14C2616.98 322.533 2620.01 320.726 2623.49 320.556L2620.52 308.18H2494.79L2556.87 196.93H2557.15L2564.65 202.862C2566.15 204.056 2568.02 204.703 2569.93 204.703H2580.87C2583.74 204.703 2586.43 203.237 2588 200.817L2635.93 127.241L2670.26 92.1241L2696.21 90.3171L2758.7 142.004L2800.46 219.705C2801.04 220.762 2801.82 221.682 2802.78 222.432L2826.37 240.605L2863.8 308.18H2761.46L2758.46 320.726C2761.32 321.238 2763.74 322.942 2765.35 325.227H2878.26C2881.29 325.227 2884.09 323.624 2885.59 321.033C2887.09 318.442 2887.16 315.203 2885.69 312.578H2885.76Z" fill="#1B1B1B"/>
<path d="M2753.93 250.356C2754.78 248.754 2753.89 246.162 2751.95 245.344L2738.58 239.514L2731.05 224.819C2730.61 223.967 2729.86 223.285 2728.94 222.978L2695.66 210.977C2694.26 210.466 2692.76 210.807 2691.71 211.83L2677.15 226.013L2674.15 223.694C2673.3 223.046 2672.24 222.74 2671.15 222.944L2649.3 226.66C2648.34 226.831 2647.49 227.342 2646.88 228.127L2633.78 245.412C2632.52 247.083 2632.86 249.606 2634.53 250.765C2636.17 251.924 2638.56 251.754 2639.89 250.015C2641.22 248.31 2652.06 233.923 2652.06 233.923L2670.77 230.752L2687.65 243.946C2689.32 245.242 2691.71 244.969 2693 243.298C2694.3 241.628 2693.99 239.241 2692.36 237.946L2683.18 230.786L2695.32 218.955L2724.95 229.627L2732.41 244.185C2732.82 244.969 2733.47 245.583 2734.29 245.958C2734.29 245.958 2746.43 251.345 2748.88 252.333C2751.33 253.322 2753.07 251.958 2753.89 250.356H2753.93Z" fill="#00BDE3"/>
<path d="M2767.43 260.379H2614.73C2612.55 260.379 2610.77 262.152 2610.77 264.334V276.949C2610.77 279.131 2612.55 280.904 2614.73 280.904H2648.55C2650.35 280.904 2651.79 282.37 2651.79 284.143C2651.79 285.916 2650.32 287.382 2648.55 287.382H2622.53L2632.08 327.375H2623.97C2621.78 327.375 2620.01 329.148 2620.01 331.33V350.252C2620.01 352.434 2621.78 354.207 2623.97 354.207H2634.43C2634.64 339.887 2646.36 328.261 2660.79 328.261C2676.54 328.261 2687.14 341.353 2687.14 354.207H2695.49C2695.7 339.887 2707.46 328.261 2721.84 328.261C2738.31 328.261 2748.2 342.069 2748.2 354.207H2756.55C2758.73 354.207 2760.51 352.434 2760.51 350.252V331.33C2760.51 329.148 2758.73 327.375 2756.55 327.375H2749.9L2760.98 280.904H2767.43C2769.61 280.904 2771.38 279.131 2771.38 276.949V264.334C2771.38 262.152 2769.61 260.379 2767.43 260.379Z" fill="#1B1B1B"/>
<path d="M2660.85 334.364C2649.67 334.364 2640.57 343.365 2640.54 354.548C2640.54 365.731 2649.57 374.8 2660.75 374.834C2671.93 374.868 2681.04 365.833 2681.07 354.65C2681.1 343.467 2672.07 334.398 2660.85 334.364ZM2660.79 362.253C2656.56 362.253 2653.15 358.81 2653.15 354.616C2653.15 350.389 2656.59 346.979 2660.82 347.013C2665.05 347.013 2668.46 350.457 2668.46 354.685C2668.46 358.912 2665.01 362.287 2660.79 362.287V362.253ZM2721.91 334.364C2710.7 334.364 2701.63 343.365 2701.59 354.548C2701.59 365.731 2710.63 374.8 2721.81 374.834C2732.99 374.868 2742.1 365.833 2742.13 354.65C2742.16 343.467 2733.13 334.398 2721.91 334.364ZM2721.84 362.253C2717.62 362.253 2714.21 358.81 2714.21 354.616C2714.21 350.389 2717.65 346.979 2721.88 347.013C2726.11 347.013 2729.52 350.457 2729.52 354.685C2729.52 358.912 2726.07 362.287 2721.84 362.287V362.253Z" fill="#00BDE3"/>
<path d="M4659.92 280.734L4611.4 196.692C4607.21 189.43 4596.74 189.43 4592.55 196.692L4544.04 280.734C4539.84 287.996 4545.09 297.065 4553.48 297.065H4650.54C4658.93 297.065 4664.18 287.996 4659.98 280.734H4659.92ZM4592.34 285.882L4598.45 255.197H4582.63L4606.9 211.83L4600.8 242.514H4616.62L4592.34 285.882Z" fill="#00BDE3"/>
<path d="M2183.94 185.611C2183.94 192.566 2178.31 198.192 2171.36 198.192C2164.4 198.192 2158.78 192.566 2158.78 185.611C2158.78 178.656 2164.4 173.03 2171.36 173.03C2178.31 173.03 2183.94 178.656 2183.94 185.611Z" fill="#00BDE3"/>
<path d="M2208.28 68.463C2212.78 63.8603 2216.7 66.8947 2215.13 71.8724L2185.37 168.359C2181.52 165.223 2176.68 163.245 2171.32 163.245C2168.73 163.245 2166.28 163.757 2163.99 164.575C2163.38 158.165 2162.8 151.005 2162.6 145.959C2162.43 141.698 2162.6 137.368 2164.64 133.651C2170.92 122.537 2175.89 113.979 2188.23 96.1135C2197.61 82.5099 2205.59 71.1564 2208.25 68.4289" fill="#1B1B1B"/>
<path d="M2199.28 332.455L2181.18 209.102L2254.75 275.586C2258.91 279.37 2263.68 276.949 2261.23 270.437C2259.76 266.585 2252.29 253.663 2243.29 238.321C2231.46 218.171 2225.36 209.409 2217.35 198.26C2214.69 194.543 2210.5 192.43 2206.27 190.657C2202.79 189.191 2198.26 187.486 2193.62 185.781C2193.55 198.021 2183.56 207.943 2171.29 207.943C2167.92 207.943 2164.74 207.124 2161.85 205.795L2143.23 332.489H2199.21L2199.28 332.455Z" fill="#1B1B1B"/>
<path d="M2047.26 196.691C2050.84 198.089 2064.41 200.987 2080.57 204.328C2101.84 208.726 2111.7 209.988 2124.38 211.42C2128.61 211.897 2132.66 210.329 2136.52 208.522C2141.32 206.272 2148.14 202.692 2154.04 199.521C2150.94 195.702 2148.99 190.895 2148.99 185.576C2148.99 183.156 2149.47 180.837 2150.22 178.621L2047.74 188.986" fill="#1B1B1B"/>
<path d="M2337.39 242.923C2337.39 247.151 2333.94 250.594 2329.72 250.594C2325.49 250.594 2322.05 247.151 2322.05 242.923C2322.05 238.695 2325.49 235.252 2329.72 235.252C2333.94 235.252 2337.39 238.695 2337.39 242.923Z" fill="#00BDE3"/>
<path d="M2352.25 171.496C2355.01 168.666 2357.37 170.541 2356.44 173.576L2338.31 232.422C2335.96 230.513 2332.99 229.286 2329.75 229.286C2328.18 229.286 2326.68 229.593 2325.28 230.104C2324.91 226.183 2324.57 221.819 2324.43 218.751C2324.33 216.16 2324.43 213.5 2325.69 211.25C2329.51 204.465 2332.55 199.249 2340.08 188.373C2345.81 180.088 2350.65 173.167 2352.29 171.496" fill="#1B1B1B"/>
<path d="M2346.76 332.455L2335.72 257.243L2380.58 297.781C2383.14 300.065 2386.04 298.599 2384.54 294.644C2383.65 292.292 2379.08 284.416 2373.59 275.074C2366.37 262.766 2362.65 257.447 2357.77 250.628C2356.14 248.344 2353.62 247.083 2351.02 245.992C2348.91 245.105 2346.15 244.048 2343.32 243.025C2343.25 250.492 2337.18 256.527 2329.72 256.527C2327.67 256.527 2325.73 256.015 2323.96 255.197L2312.6 332.421H2346.73L2346.76 332.455Z" fill="#1B1B1B"/>
<path d="M2254.07 249.674C2256.25 250.526 2264.5 252.299 2274.38 254.345C2287.37 257.038 2293.37 257.788 2301.08 258.675C2303.67 258.981 2306.12 258.027 2308.48 256.902C2311.41 255.538 2315.57 253.356 2319.15 251.413C2317.27 249.06 2316.08 246.128 2316.08 242.923C2316.08 241.423 2316.39 240.025 2316.83 238.695L2254.34 245.003" fill="#1B1B1B"/>
<path d="M2025.34 243.469C2025.34 247.662 2021.93 251.106 2017.71 251.106C2013.48 251.106 2010.07 247.696 2010.07 243.469C2010.07 239.241 2013.48 235.832 2017.71 235.832C2021.93 235.832 2025.34 239.241 2025.34 243.469Z" fill="#00BDE3"/>
<path d="M2040.1 172.518C2042.83 169.723 2045.18 171.564 2044.26 174.598L2026.23 233.07C2023.91 231.161 2020.94 229.967 2017.71 229.967C2016.14 229.967 2014.67 230.274 2013.24 230.786C2012.86 226.899 2012.52 222.569 2012.39 219.5C2012.28 216.909 2012.39 214.284 2013.65 212.034C2017.43 205.317 2020.47 200.101 2027.93 189.293C2033.63 181.042 2038.43 174.189 2040.07 172.518" fill="#1B1B1B"/>
<path d="M2034.65 332.455L2023.67 257.72L2068.23 297.986C2070.75 300.27 2073.65 298.804 2072.15 294.883C2071.26 292.531 2066.73 284.723 2061.27 275.415C2054.12 263.21 2050.4 257.891 2045.56 251.14C2043.96 248.89 2041.4 247.594 2038.84 246.537C2036.73 245.651 2034 244.594 2031.21 243.571C2031.14 250.97 2025.1 257.004 2017.67 257.004C2015.63 257.004 2013.68 256.527 2011.94 255.709L2000.66 332.455H2034.58H2034.65Z" fill="#1B1B1B"/>
<path d="M1942.53 250.186C1944.71 251.038 1952.93 252.777 1962.71 254.822C1975.6 257.482 1981.57 258.266 1989.24 259.118C1991.79 259.425 1994.25 258.47 1996.6 257.379C1999.53 256.016 2003.62 253.868 2007.2 251.924C2005.33 249.606 2004.17 246.674 2004.17 243.469C2004.17 242.003 2004.48 240.605 2004.92 239.275L1942.84 245.549" fill="#1B1B1B"/>
<path d="M2183.94 609.948C2183.94 616.903 2178.31 622.529 2171.36 622.529C2164.4 622.529 2158.78 616.903 2158.78 609.948C2158.78 602.993 2164.4 597.367 2171.36 597.367C2178.31 597.367 2183.94 602.993 2183.94 609.948Z" fill="#00A91C"/>
<path d="M2208.28 492.8C2212.78 488.197 2216.7 491.232 2215.13 496.209L2185.37 592.696C2181.52 589.56 2176.68 587.582 2171.32 587.582C2168.73 587.582 2166.28 588.093 2163.99 588.912C2163.38 582.502 2162.8 575.342 2162.6 570.296C2162.43 566.034 2162.6 561.705 2164.64 557.988C2170.92 546.874 2175.89 538.316 2188.23 520.45C2197.61 506.847 2205.59 495.493 2208.25 492.766" fill="#1B1B1B"/>
<path d="M2199.28 756.792L2181.18 633.439L2254.75 699.923C2258.91 703.707 2263.68 701.287 2261.23 694.775C2259.76 690.922 2252.29 678 2243.29 662.658C2231.46 642.508 2225.36 633.746 2217.35 622.597C2214.69 618.881 2210.5 616.767 2206.27 614.994C2202.79 613.528 2198.26 611.823 2193.62 610.119C2193.55 622.358 2183.56 632.28 2171.29 632.28C2167.92 632.28 2164.74 631.462 2161.85 630.132L2143.23 756.826H2199.21L2199.28 756.792Z" fill="#1B1B1B"/>
<path d="M2047.26 621.029C2050.84 622.427 2064.41 625.325 2080.57 628.666C2101.84 633.064 2111.7 634.326 2124.38 635.758C2128.61 636.235 2132.66 634.667 2136.52 632.86C2141.32 630.61 2148.14 627.03 2154.04 623.859C2150.94 620.04 2148.99 615.233 2148.99 609.914C2148.99 607.494 2149.47 605.175 2150.22 602.959L2047.74 613.324" fill="#1B1B1B"/>
<path d="M2337.39 667.261C2337.39 671.488 2333.94 674.932 2329.72 674.932C2325.49 674.932 2322.05 671.488 2322.05 667.261C2322.05 663.033 2325.49 659.589 2329.72 659.589C2333.94 659.589 2337.39 663.033 2337.39 667.261Z" fill="#00A91C"/>
<path d="M2352.25 595.833C2355.01 593.003 2357.37 594.878 2356.44 597.913L2338.31 656.759C2335.96 654.85 2332.99 653.623 2329.75 653.623C2328.18 653.623 2326.68 653.93 2325.28 654.441C2324.91 650.52 2324.57 646.156 2324.43 643.088C2324.33 640.496 2324.43 637.837 2325.69 635.587C2329.51 628.802 2332.55 623.586 2340.08 612.71C2345.81 604.425 2350.65 597.504 2352.29 595.833" fill="#1B1B1B"/>
<path d="M2346.76 756.792L2335.72 681.58L2380.58 722.118C2383.14 724.403 2386.04 722.937 2384.54 718.982C2383.65 716.629 2379.08 708.753 2373.59 699.411C2366.37 687.103 2362.65 681.785 2357.77 674.966C2356.14 672.682 2353.62 671.42 2351.02 670.329C2348.91 669.443 2346.15 668.386 2343.32 667.363C2343.25 674.829 2337.18 680.864 2329.72 680.864C2327.67 680.864 2325.73 680.353 2323.96 679.534L2312.6 756.758H2346.73L2346.76 756.792Z" fill="#1B1B1B"/>
<path d="M2254.07 674.012C2256.25 674.864 2264.5 676.637 2274.38 678.682C2287.37 681.376 2293.37 682.126 2301.08 683.012C2303.67 683.319 2306.12 682.365 2308.48 681.24C2311.41 679.876 2315.57 677.694 2319.15 675.75C2317.27 673.398 2316.08 670.466 2316.08 667.261C2316.08 665.761 2316.39 664.363 2316.83 663.033L2254.34 669.341" fill="#1B1B1B"/>
<path d="M2025.34 667.806C2025.34 672 2021.93 675.443 2017.71 675.443C2013.48 675.443 2010.07 672.034 2010.07 667.806C2010.07 663.578 2013.48 660.169 2017.71 660.169C2021.93 660.169 2025.34 663.578 2025.34 667.806Z" fill="#00A91C"/>
<path d="M2040.1 596.856C2042.83 594.06 2045.18 595.901 2044.26 598.936L2026.23 657.407C2023.91 655.498 2020.94 654.305 2017.71 654.305C2016.14 654.305 2014.67 654.612 2013.24 655.123C2012.86 651.236 2012.52 646.906 2012.39 643.838C2012.28 641.247 2012.39 638.621 2013.65 636.371C2017.43 629.655 2020.47 624.438 2027.93 613.63C2033.63 605.379 2038.43 598.526 2040.07 596.856" fill="#1B1B1B"/>
<path d="M2034.65 756.792L2023.67 682.057L2068.23 722.323C2070.75 724.607 2073.65 723.141 2072.15 719.22C2071.26 716.868 2066.73 709.06 2061.27 699.752C2054.12 687.546 2050.4 682.228 2045.56 675.477C2043.96 673.227 2041.4 671.931 2038.84 670.874C2036.73 669.988 2034 668.931 2031.21 667.908C2031.14 675.307 2025.1 681.341 2017.67 681.341C2015.63 681.341 2013.68 680.864 2011.94 680.046L2000.66 756.792H2034.58H2034.65Z" fill="#1B1B1B"/>
<path d="M1942.53 674.523C1944.71 675.375 1952.93 677.114 1962.71 679.159C1975.6 681.819 1981.57 682.603 1989.24 683.455C1991.79 683.762 1994.25 682.807 1996.6 681.716C1999.53 680.353 2003.62 678.205 2007.2 676.261C2005.33 673.943 2004.17 671.011 2004.17 667.806C2004.17 666.34 2004.48 664.942 2004.92 663.612L1942.84 669.886" fill="#1B1B1B"/>
<path d="M4794.27 91.5786H4704.88V120.286H4794.27V91.5786Z" fill="#1B1B1B"/>
<path d="M4794.27 462.797C4794.27 458.331 4790.49 454.717 4786.02 454.717H4713C4708.53 454.717 4704.88 458.331 4704.88 462.831V488.709H4794.27V462.797Z" fill="#1B1B1B"/>
<path d="M4794.27 508.961H4704.88V537.668H4794.27V508.961Z" fill="#1B1B1B"/>
<path d="M3681.91 145.959H3664.29C3663.78 145.959 3663.37 146.371 3663.37 146.879V340.467C3663.37 340.975 3663.78 341.387 3664.29 341.387H3681.91C3682.42 341.387 3682.83 340.975 3682.83 340.467V146.879C3682.83 146.371 3682.42 145.959 3681.91 145.959Z" fill="#1B1B1B"/>
<path d="M3735.47 167.029C3717.23 172.928 3692.82 161.779 3692.65 165.734C3692.65 165.734 3697.32 138.049 3716.45 130.105C3729.85 124.548 3754.43 135.185 3759.27 131.401C3759.27 131.401 3755.14 160.654 3735.47 167.029Z" fill="#00BDE3"/>
<path d="M3735.47 214.659C3717.23 220.557 3692.82 209.408 3692.65 213.363C3692.65 213.363 3697.32 185.679 3716.45 177.735C3729.85 172.177 3754.43 182.815 3759.27 179.03C3759.27 179.03 3755.14 208.283 3735.47 214.659Z" fill="#00BDE3"/>
<path d="M3735.47 262.255C3717.23 268.153 3692.82 257.004 3692.65 260.959C3692.65 260.959 3697.32 233.274 3716.45 225.33C3729.85 219.773 3754.43 230.411 3759.27 226.626C3759.27 226.626 3755.14 255.879 3735.47 262.255Z" fill="#00BDE3"/>
<path d="M3610.73 167.029C3628.97 172.928 3653.38 161.779 3653.55 165.734C3653.55 165.734 3648.88 138.049 3629.75 130.105C3616.35 124.548 3591.77 135.185 3586.93 131.401C3586.93 131.401 3591.06 160.654 3610.73 167.029Z" fill="#00BDE3"/>
<path d="M3610.73 214.659C3628.97 220.557 3653.38 209.408 3653.55 213.363C3653.55 213.363 3648.88 185.679 3629.75 177.735C3616.35 172.177 3591.77 182.815 3586.93 179.03C3586.93 179.03 3591.06 208.283 3610.73 214.659Z" fill="#00BDE3"/>
<path d="M3610.73 262.255C3628.97 268.153 3653.38 257.004 3653.55 260.959C3653.55 260.959 3648.88 233.274 3629.75 225.33C3616.35 219.773 3591.77 230.411 3586.93 226.626C3586.93 226.626 3591.06 255.879 3610.73 262.255Z" fill="#00BDE3"/>
<path d="M3588.57 211.488C3589.39 238.491 3567.6 231.365 3550.66 257.379C3536.1 279.745 3545.34 294.61 3550.01 299.997C3573.77 276.131 3586.39 245.889 3588.77 239.718C3588.91 239.343 3589.08 238.968 3589.22 238.559C3589.22 238.559 3589.08 238.968 3588.77 239.718C3577.42 269.653 3564.19 292.189 3556.86 303.577C3565.11 305.111 3582.74 304.6 3595.93 277.222C3611.51 244.867 3588.43 207.806 3588.57 211.488Z" fill="#00BDE3"/>
<path d="M3505.66 220.489C3505.66 220.489 3505.79 220.83 3506 221.478C3515.17 247.458 3518.95 269.619 3520.45 281.177C3526.73 277.631 3538.05 267.471 3531.53 242.173C3523.83 212.239 3488.07 200.681 3490.21 203.067C3505.73 220.387 3487.49 227.752 3490.76 254.277C3493.59 277.052 3507.91 281.689 3513.98 282.643C3516.36 253.765 3507.87 226.899 3506.03 221.478C3505.93 221.137 3505.79 220.796 3505.69 220.489H3505.66Z" fill="#00BDE3"/>
<path d="M3551.44 303.509C3550.97 304.157 3543.74 314.01 3540.94 332.83C3534.16 327.58 3522.16 312.408 3518.37 286.428L3515.88 286.701C3517.69 316.328 3532.39 335.592 3537.57 341.388H3546.98C3544.15 322.363 3553.05 305.282 3553.15 305.111L3551.48 303.509H3551.44Z" fill="#1B1B1B"/>
<path d="M3793.29 245.89C3795.82 246.947 3807.71 250.833 3815.52 234.741C3823.7 217.898 3833.39 217.83 3833.39 217.83C3833.39 217.83 3818.9 211.148 3804.71 222.774C3797.18 228.945 3794.32 235.014 3793.26 239.378" fill="#00BDE3"/>
<path d="M3793.43 285.984C3796.74 287.348 3812.45 292.53 3822.78 271.255C3833.56 249.026 3846.37 248.924 3846.37 248.924C3846.37 248.924 3827.25 240.093 3808.53 255.436C3798.65 263.55 3794.83 271.528 3793.4 277.29" fill="#00BDE3"/>
<path d="M3793.6 328.295C3797.59 329.932 3816 335.898 3828.1 310.941C3840.78 284.791 3855.85 284.655 3855.85 284.655C3855.85 284.655 3833.35 274.256 3811.33 292.326C3799.77 301.804 3795.27 311.112 3793.57 317.862" fill="#00BDE3"/>
<path d="M3792.17 239.207C3790.97 234.911 3788.01 229.115 3780.85 223.251C3766.67 211.625 3752.18 218.307 3752.18 218.307C3752.18 218.307 3761.89 218.375 3770.04 235.218C3777.58 250.799 3788.96 247.662 3792 246.503" fill="#00BDE3"/>
<path d="M3790.46 313.601C3788.01 307.532 3783.3 300.236 3774.27 292.803C3752.25 274.733 3729.75 285.132 3729.75 285.132C3729.75 285.132 3744.81 285.268 3757.5 311.419C3768.2 333.546 3783.88 331.364 3790.09 329.455L3790.46 313.601Z" fill="#00BDE3"/>
<path d="M3762.81 271.767C3772.26 291.303 3786.27 288.541 3791.08 286.905L3791.35 275.074C3789.47 269.653 3785.45 262.868 3777.03 255.981C3758.31 240.639 3739.19 249.469 3739.19 249.469C3739.19 249.469 3752.01 249.571 3762.78 271.801L3762.81 271.767Z" fill="#00BDE3"/>
<path d="M3790.16 341.388H3796.36L3793.6 215.239H3790.16V341.388Z" fill="#1B1B1B"/>
<path d="M3681.91 549.09H3664.29C3663.78 549.09 3663.37 549.502 3663.37 550.01V743.598C3663.37 744.106 3663.78 744.518 3664.29 744.518H3681.91C3682.42 744.518 3682.83 744.106 3682.83 743.598V550.01C3682.83 549.502 3682.42 549.09 3681.91 549.09Z" fill="#1B1B1B"/>
<path d="M3735.47 570.194C3717.23 576.092 3692.82 564.943 3692.65 568.898C3692.65 568.898 3697.32 541.214 3716.45 533.27C3729.85 527.713 3754.43 538.35 3759.27 534.565C3759.27 534.565 3755.14 563.818 3735.47 570.194Z" fill="#00A91C"/>
<path d="M3735.47 617.79C3717.23 623.688 3692.82 612.539 3692.65 616.494C3692.65 616.494 3697.32 588.81 3716.45 580.866C3729.85 575.308 3754.43 585.946 3759.27 582.161C3759.27 582.161 3755.14 611.414 3735.47 617.79Z" fill="#00A91C"/>
<path d="M3735.47 665.385C3717.23 671.284 3692.82 660.135 3692.65 664.09C3692.65 664.09 3697.32 636.405 3716.45 628.461C3729.85 622.904 3754.43 633.541 3759.27 629.757C3759.27 629.757 3755.14 659.01 3735.47 665.385Z" fill="#00A91C"/>
<path d="M3610.73 570.194C3628.97 576.092 3653.38 564.943 3653.55 568.898C3653.55 568.898 3648.88 541.214 3629.75 533.27C3616.35 527.713 3591.77 538.35 3586.93 534.565C3586.93 534.565 3591.06 563.818 3610.73 570.194Z" fill="#00A91C"/>
<path d="M3610.73 617.79C3628.97 623.688 3653.38 612.539 3653.55 616.494C3653.55 616.494 3648.88 588.81 3629.75 580.866C3616.35 575.308 3591.77 585.946 3586.93 582.161C3586.93 582.161 3591.06 611.414 3610.73 617.79Z" fill="#00A91C"/>
<path d="M3610.73 665.385C3628.97 671.284 3653.38 660.135 3653.55 664.09C3653.55 664.09 3648.88 636.405 3629.75 628.461C3616.35 622.904 3591.77 633.541 3586.93 629.757C3586.93 629.757 3591.06 659.01 3610.73 665.385Z" fill="#00A91C"/>
<path d="M3588.57 614.619C3589.39 641.622 3567.6 634.496 3550.66 660.51C3536.1 682.876 3545.34 697.741 3550.01 703.128C3573.77 679.262 3586.39 649.02 3588.77 642.849C3588.91 642.474 3589.08 642.099 3589.22 641.69C3589.22 641.69 3589.08 642.099 3588.77 642.849C3577.42 672.784 3564.19 695.32 3556.86 706.708C3565.11 708.242 3582.74 707.731 3595.93 680.353C3611.51 647.997 3588.43 610.937 3588.57 614.619Z" fill="#00A91C"/>
<path d="M3505.66 623.654C3505.66 623.654 3505.79 623.995 3506 624.643C3515.17 650.623 3518.95 672.784 3520.45 684.342C3526.73 680.796 3538.05 670.636 3531.53 645.338C3523.83 615.403 3488.07 603.845 3490.21 606.232C3505.73 623.552 3487.49 630.916 3490.76 657.441C3493.59 680.216 3507.91 684.853 3513.98 685.808C3516.36 656.93 3507.87 630.064 3506.03 624.643C3505.93 624.302 3505.79 623.961 3505.69 623.654H3505.66Z" fill="#00A91C"/>
<path d="M3551.44 706.64C3550.97 707.288 3543.74 717.141 3540.94 735.961C3534.16 730.71 3522.16 715.538 3518.37 689.559L3515.88 689.831C3517.69 719.459 3532.39 738.723 3537.57 744.519H3546.98C3544.15 725.494 3553.05 708.413 3553.15 708.242L3551.48 706.64H3551.44Z" fill="#1B1B1B"/>
<path d="M3793.29 649.054C3795.82 650.111 3807.71 653.998 3815.52 637.905C3823.7 621.063 3833.39 620.995 3833.39 620.995C3833.39 620.995 3818.9 614.312 3804.71 625.938C3797.18 632.109 3794.32 638.178 3793.26 642.542" fill="#00A91C"/>
<path d="M3793.43 689.115C3796.74 690.479 3812.45 695.661 3822.78 674.386C3833.56 652.157 3846.37 652.055 3846.37 652.055C3846.37 652.055 3827.25 643.224 3808.53 658.567C3798.65 666.681 3794.83 674.659 3793.4 680.421" fill="#00A91C"/>
<path d="M3793.6 731.46C3797.59 733.097 3816 739.063 3828.1 714.106C3840.78 687.956 3855.85 687.82 3855.85 687.82C3855.85 687.82 3833.35 677.421 3811.33 695.491C3799.77 704.969 3795.27 714.277 3793.57 721.027" fill="#00A91C"/>
<path d="M3792.17 642.372C3790.97 638.076 3788.01 632.28 3780.85 626.415C3766.67 614.789 3752.18 621.472 3752.18 621.472C3752.18 621.472 3761.89 621.54 3770.04 638.382C3777.58 653.964 3788.96 650.827 3792 649.668" fill="#00A91C"/>
<path d="M3790.46 716.765C3788.01 710.697 3783.3 703.4 3774.27 695.968C3752.25 677.898 3729.75 688.297 3729.75 688.297C3729.75 688.297 3744.81 688.433 3757.5 714.583C3768.2 736.711 3783.88 734.529 3790.09 732.619L3790.46 716.765Z" fill="#00A91C"/>
<path d="M3762.81 674.898C3772.26 694.434 3786.27 691.672 3791.08 690.035L3791.35 678.205C3789.47 672.784 3785.45 665.999 3777.03 659.112C3758.31 643.769 3739.19 652.6 3739.19 652.6C3739.19 652.6 3752.01 652.702 3762.78 674.932L3762.81 674.898Z" fill="#00A91C"/>
<path d="M3790.16 744.518H3796.36L3793.6 618.403H3790.16V744.518Z" fill="#1B1B1B"/>
<path d="M3076.2 77.5999H3079.44V135.39L3043.13 238.423C3045.89 240.093 3048.52 240.877 3052.85 240.877C3057.99 240.877 3060.72 239.752 3064.16 237.366C3072.99 213.091 3087.69 172.655 3093.04 157.892C3097.88 144.595 3108.79 134.708 3125.43 134.162V100.443H3102.42V87.1122H3137.84V134.094C3137.84 134.094 3120.79 183.599 3107.73 220.489C3115.27 220.694 3121.47 222.16 3126.69 224.171C3135.08 199.862 3145.2 169.62 3149.5 157.926C3154.37 144.629 3164.77 134.742 3181.88 134.162V100.443H3158.87V87.1122H3194.29V134.094C3194.29 134.094 3170.57 201.055 3156.25 240.775C3157.1 240.843 3157.99 240.912 3158.97 240.912C3165.86 240.912 3168.42 238.934 3174.08 234.57C3176.05 233.036 3178.34 231.297 3181 229.558C3190.54 203.51 3202.48 170.848 3207.08 157.926C3211.85 144.595 3222.22 134.708 3239.47 134.162V100.443H3216.45V87.1122H3251.88V134.094L3220.51 221.035C3235 223.012 3243.86 229.831 3250.03 234.57C3255.66 238.9 3258.25 240.912 3265.14 240.912C3270.8 240.912 3273.59 239.548 3277.51 236.65V77.5999H3279.25C3280.79 77.5999 3282.01 76.3725 3282.01 74.8383V65.2919C3282.01 63.7577 3280.79 62.5303 3279.25 62.5303H3076.16C3074.63 62.5303 3073.4 63.7577 3073.4 65.2919V74.8383C3073.4 76.3725 3074.63 77.5999 3076.16 77.5999H3076.2Z" fill="#1B1B1B"/>
<path d="M3265.17 343.058C3249.01 343.058 3240.35 336.41 3233.43 331.057C3227.29 326.318 3222.45 322.602 3212.09 322.602C3201.73 322.602 3196.88 326.318 3190.75 331.057C3183.79 336.41 3175.17 343.058 3159.01 343.058C3142.85 343.058 3134.19 336.41 3127.27 331.057C3121.13 326.352 3116.29 322.602 3105.93 322.602C3095.56 322.602 3090.72 326.318 3084.58 331.057C3077.66 336.41 3069 343.058 3052.85 343.058C3036.69 343.058 3028.03 336.41 3021.11 331.057C3016.26 327.307 3012.21 324.204 3005.63 323.079C3002.29 322.499 2999.76 319.738 2999.76 316.328V312.885C2999.76 308.76 3003.41 305.487 3007.5 306.1C3018.86 307.805 3025.78 313.124 3031.5 317.556C3037.64 322.295 3042.48 326.011 3052.85 326.011C3063.21 326.011 3068.05 322.295 3074.19 317.556C3081.11 312.203 3089.77 305.555 3105.93 305.555C3122.09 305.555 3130.75 312.203 3137.67 317.556C3143.8 322.295 3148.64 326.011 3159.01 326.011C3169.37 326.011 3174.21 322.295 3180.35 317.556C3187.3 312.203 3195.93 305.555 3212.09 305.555C3228.25 305.555 3236.91 312.203 3243.83 317.556C3249.97 322.295 3254.81 326.011 3265.17 326.011C3275.54 326.011 3280.38 322.295 3286.51 317.556C3292.24 313.124 3299.16 307.805 3310.51 306.1C3314.6 305.487 3318.25 308.725 3318.25 312.885V316.328C3318.25 319.704 3315.73 322.499 3312.39 323.079C3305.77 324.204 3301.75 327.341 3296.91 331.057C3289.96 336.41 3281.33 343.058 3265.17 343.058Z" fill="#00BDE3"/>
<path d="M3265.17 268.187C3249.01 268.187 3240.35 261.539 3233.43 256.186C3227.29 251.447 3222.45 247.731 3212.09 247.731C3201.73 247.731 3196.88 251.447 3190.75 256.186C3183.79 261.539 3175.17 268.187 3159.01 268.187C3142.85 268.187 3134.19 261.539 3127.27 256.186C3121.13 251.481 3116.29 247.731 3105.93 247.731C3095.56 247.731 3090.72 251.447 3084.58 256.186C3077.66 261.539 3069 268.187 3052.85 268.187C3036.69 268.187 3028.03 261.539 3021.11 256.186C3016.26 252.436 3012.21 249.333 3005.63 248.208C3002.29 247.628 2999.76 244.867 2999.76 241.457V238.014C2999.76 233.888 3003.41 230.615 3007.5 231.229C3018.86 232.934 3025.78 238.252 3031.5 242.685C3037.64 247.424 3042.48 251.14 3052.85 251.14C3063.21 251.14 3068.05 247.424 3074.19 242.685C3081.11 237.332 3089.77 230.684 3105.93 230.684C3122.09 230.684 3130.75 237.332 3137.67 242.685C3143.8 247.424 3148.64 251.14 3159.01 251.14C3169.37 251.14 3174.21 247.424 3180.35 242.685C3187.3 237.332 3195.93 230.684 3212.09 230.684C3228.25 230.684 3236.91 237.332 3243.83 242.685C3249.97 247.424 3254.81 251.14 3265.17 251.14C3275.54 251.14 3280.38 247.424 3286.51 242.685C3292.24 238.252 3299.16 232.934 3310.51 231.229C3314.6 230.615 3318.25 233.854 3318.25 238.014V241.457C3318.25 244.833 3315.73 247.628 3312.39 248.208C3305.77 249.333 3301.75 252.47 3296.91 256.186C3289.96 261.539 3281.33 268.187 3265.17 268.187Z" fill="#00BDE3"/>
<path d="M3076.2 518.03H3079.44V575.82L3043.13 678.853C3045.89 680.523 3048.52 681.308 3052.85 681.308C3057.99 681.308 3060.72 680.183 3064.16 677.796C3072.99 653.521 3087.69 613.085 3093.04 598.322C3097.88 585.025 3108.79 575.138 3125.43 574.593V540.873H3102.42V527.542H3137.84V574.524C3137.84 574.524 3120.79 624.029 3107.73 660.919C3115.27 661.124 3121.47 662.59 3126.69 664.601C3135.08 640.292 3145.2 610.051 3149.5 598.356C3154.37 585.06 3164.77 575.172 3181.88 574.593V540.873H3158.87V527.542H3194.29V574.524C3194.29 574.524 3170.57 641.486 3156.25 681.205C3157.1 681.274 3157.99 681.342 3158.97 681.342C3165.86 681.342 3168.42 679.364 3174.08 675C3176.05 673.466 3178.34 671.727 3181 669.988C3190.54 643.94 3202.48 611.278 3207.08 598.356C3211.85 585.025 3222.22 575.138 3239.47 574.593V540.873H3216.45V527.542H3251.88V574.524L3220.51 661.465C3235 663.442 3243.86 670.261 3250.03 675C3255.66 679.33 3258.25 681.342 3265.14 681.342C3270.8 681.342 3273.59 679.978 3277.51 677.08V518.03H3279.25C3280.79 518.03 3282.01 516.803 3282.01 515.269V505.722C3282.01 504.188 3280.79 502.96 3279.25 502.96H3076.16C3074.63 502.96 3073.4 504.188 3073.4 505.722V515.269C3073.4 516.803 3074.63 518.03 3076.16 518.03H3076.2Z" fill="#1B1B1B"/>
<path d="M3265.17 783.488C3249.01 783.488 3240.35 776.84 3233.43 771.487C3227.29 766.748 3222.45 763.032 3212.09 763.032C3201.73 763.032 3196.88 766.748 3190.75 771.487C3183.79 776.84 3175.17 783.488 3159.01 783.488C3142.85 783.488 3134.19 776.84 3127.27 771.487C3121.13 766.782 3116.29 763.032 3105.93 763.032C3095.56 763.032 3090.72 766.748 3084.58 771.487C3077.66 776.84 3069 783.488 3052.85 783.488C3036.69 783.488 3028.03 776.84 3021.11 771.487C3016.26 767.737 3012.21 764.634 3005.63 763.509C3002.29 762.929 2999.76 760.168 2999.76 756.758V753.315C2999.76 749.189 3003.41 745.916 3007.5 746.53C3018.86 748.235 3025.78 753.553 3031.5 757.986C3037.64 762.725 3042.48 766.441 3052.85 766.441C3063.21 766.441 3068.05 762.725 3074.19 757.986C3081.11 752.633 3089.77 745.984 3105.93 745.984C3122.09 745.984 3130.75 752.633 3137.67 757.986C3143.8 762.725 3148.64 766.441 3159.01 766.441C3169.37 766.441 3174.21 762.725 3180.35 757.986C3187.3 752.633 3195.93 745.984 3212.09 745.984C3228.25 745.984 3236.91 752.633 3243.83 757.986C3249.97 762.725 3254.81 766.441 3265.17 766.441C3275.54 766.441 3280.38 762.725 3286.51 757.986C3292.24 753.553 3299.16 748.235 3310.51 746.53C3314.6 745.916 3318.25 749.155 3318.25 753.315V756.758C3318.25 760.134 3315.73 762.929 3312.39 763.509C3305.77 764.634 3301.75 767.771 3296.91 771.487C3289.96 776.84 3281.33 783.488 3265.17 783.488Z" fill="#00A91C"/>
<path d="M3265.17 708.617C3249.01 708.617 3240.35 701.969 3233.43 696.616C3227.29 691.877 3222.45 688.16 3212.09 688.16C3201.73 688.16 3196.88 691.877 3190.75 696.616C3183.79 701.969 3175.17 708.617 3159.01 708.617C3142.85 708.617 3134.19 701.969 3127.27 696.616C3121.13 691.911 3116.29 688.16 3105.93 688.16C3095.56 688.16 3090.72 691.877 3084.58 696.616C3077.66 701.969 3069 708.617 3052.85 708.617C3036.69 708.617 3028.03 701.969 3021.11 696.616C3016.26 692.865 3012.21 689.763 3005.63 688.638C3002.29 688.058 2999.76 685.297 2999.76 681.887V678.444C2999.76 674.318 3003.41 671.045 3007.5 671.659C3018.86 673.364 3025.78 678.682 3031.5 683.114C3037.64 687.854 3042.48 691.57 3052.85 691.57C3063.21 691.57 3068.05 687.854 3074.19 683.114C3081.11 677.762 3089.77 671.113 3105.93 671.113C3122.09 671.113 3130.75 677.762 3137.67 683.114C3143.8 687.854 3148.64 691.57 3159.01 691.57C3169.37 691.57 3174.21 687.854 3180.35 683.114C3187.3 677.762 3195.93 671.113 3212.09 671.113C3228.25 671.113 3236.91 677.762 3243.83 683.114C3249.97 687.854 3254.81 691.57 3265.17 691.57C3275.54 691.57 3280.38 687.854 3286.51 683.114C3292.24 678.682 3299.16 673.364 3310.51 671.659C3314.6 671.045 3318.25 674.284 3318.25 678.444V681.887C3318.25 685.262 3315.73 688.058 3312.39 688.638C3305.77 689.763 3301.75 692.899 3296.91 696.616C3289.96 701.969 3281.33 708.617 3265.17 708.617Z" fill="#00A91C"/>
<path d="M5071.27 93.3857H4981.06V122.366H5071.27V93.3857Z" fill="#1B1B1B"/>
<path d="M5299.04 311.828H5281.65V142.822C5281.65 139.447 5277.77 137.504 5275.07 139.549C5275.07 139.549 5207.91 190.281 5178.25 212.579V193.009L5179.11 142.924C5179.17 139.515 5175.29 137.538 5172.56 139.583C5172.56 139.583 5099.7 193.895 5071.27 215.034V142.822H4981.06V311.828H4974.01C4968.35 311.828 4963.78 316.396 4963.78 322.056C4963.78 327.716 4968.35 332.284 4974.01 332.284H5299.04C5304.7 332.284 5309.27 327.716 5309.27 322.056C5309.27 316.396 5304.7 311.828 5299.04 311.828ZM5119.27 307.839C5100.86 302.758 5087.33 285.882 5087.33 265.903C5087.33 241.9 5106.83 222.398 5130.83 222.398C5132.13 222.398 5133.42 222.467 5134.72 222.569L5130.25 230.513C5110.99 230.82 5095.44 246.571 5095.44 265.868C5095.44 281.927 5106.18 295.496 5120.88 299.826L5119.27 307.839ZM5109.83 273.744L5139.86 220.08L5132.33 258.027H5151.9L5121.86 311.691L5129.4 273.744H5109.83ZM5130.83 309.407C5129.54 309.407 5128.24 309.339 5126.94 309.236L5131.41 301.292C5150.67 300.986 5166.22 285.234 5166.22 265.937C5166.22 249.878 5155.48 236.309 5140.79 231.979L5142.39 223.967C5160.8 229.047 5174.33 245.923 5174.33 265.903C5174.33 289.905 5154.83 309.407 5130.83 309.407Z" fill="#1D1D1B"/>
<path d="M5077.89 467.195C5077.89 462.695 5074.07 459.047 5069.57 459.047H4995.86C4991.33 459.047 4987.68 462.695 4987.68 467.229V493.346H5077.89V467.195Z" fill="#1B1B1B"/>
<path d="M5077.89 513.768H4987.68V542.748H5077.89V513.768Z" fill="#1B1B1B"/>
<path d="M5305.66 732.21H5288.27V563.205C5288.27 559.83 5284.38 557.886 5281.69 559.932C5281.69 559.932 5214.53 610.664 5184.87 632.962V613.392L5185.72 563.307C5185.79 559.898 5181.9 557.92 5179.17 559.966C5179.17 559.966 5106.32 614.278 5077.89 635.417V563.205H4987.68V732.21H4980.62C4974.96 732.21 4970.39 736.779 4970.39 742.439C4970.39 748.098 4974.96 752.667 4980.62 752.667H5305.66C5311.31 752.667 5315.88 748.098 5315.88 742.439C5315.88 736.779 5311.31 732.21 5305.66 732.21ZM5125.92 728.221C5107.51 723.141 5093.98 706.265 5093.98 686.285C5093.98 662.283 5113.48 642.781 5137.48 642.781C5138.77 642.781 5140.07 642.849 5141.37 642.952L5136.9 650.896C5117.64 651.202 5102.09 666.954 5102.09 686.251C5102.09 702.31 5112.83 715.879 5127.52 720.209L5125.92 728.221ZM5116.44 694.127L5146.48 640.463L5138.94 678.41H5158.51L5128.48 732.074L5136.01 694.127H5116.44ZM5137.48 729.79C5136.18 729.79 5134.89 729.722 5133.59 729.619L5138.06 721.675C5157.32 721.368 5172.87 705.617 5172.87 686.319C5172.87 670.261 5162.13 656.692 5147.43 652.362L5149.04 644.349C5167.45 649.429 5180.98 666.306 5180.98 686.285C5180.98 710.288 5161.48 729.79 5137.48 729.79Z" fill="#1D1D1B"/>
<path d="M3316.68 270.506C3314.91 269.005 3312.59 268.324 3310.34 268.665C3299.3 270.369 3292.65 275.483 3286.75 280.018C3280.31 284.962 3275.67 288.542 3265.17 288.542C3254.67 288.542 3250 284.962 3243.56 279.984C3236.33 274.392 3228.11 268.085 3212.06 268.085C3196 268.085 3187.82 274.426 3180.59 279.984C3174.15 284.928 3169.51 288.542 3158.97 288.542C3148.44 288.542 3143.8 284.962 3137.36 279.984C3130.13 274.392 3121.92 268.085 3105.89 268.085C3089.87 268.085 3081.65 274.426 3074.43 280.018C3067.98 284.962 3063.35 288.542 3052.85 288.542C3042.35 288.542 3037.67 284.962 3031.27 279.984C3025.4 275.449 3018.75 270.335 3007.71 268.63C3005.42 268.289 3003.14 268.937 3001.37 270.471C2999.56 272.04 2998.5 274.29 2998.5 276.677C2998.5 280.666 3001.43 284.041 3005.46 284.689C3012.28 285.78 3016.3 288.882 3021.38 292.803C3028.61 298.395 3036.82 304.702 3052.85 304.702C3068.87 304.702 3077.09 298.361 3084.31 292.769C3090.76 287.826 3095.39 284.246 3105.89 284.246C3116.39 284.246 3121.06 287.826 3127.47 292.803C3134.7 298.395 3142.92 304.702 3158.94 304.702C3174.96 304.702 3183.18 298.361 3190.41 292.803C3196.85 287.86 3201.49 284.246 3212.02 284.246C3222.56 284.246 3227.19 287.826 3233.64 292.803C3240.86 298.395 3249.08 304.702 3265.14 304.702C3281.19 304.702 3289.38 298.361 3296.64 292.769C3301.75 288.848 3305.74 285.746 3312.56 284.655C3316.58 284.007 3319.51 280.632 3319.51 276.643C3319.51 274.256 3318.49 272.006 3316.65 270.437L3316.68 270.506Z" fill="#00BDE3"/>
<path d="M3316.68 712.299C3314.91 710.799 3312.59 710.117 3310.34 710.458C3299.3 712.163 3292.65 717.277 3286.75 721.811C3280.31 726.755 3275.67 730.335 3265.17 730.335C3254.67 730.335 3250 726.755 3243.56 721.777C3236.33 716.186 3228.11 709.878 3212.06 709.878C3196 709.878 3187.82 716.22 3180.59 721.777C3174.15 726.721 3169.51 730.335 3158.97 730.335C3148.44 730.335 3143.8 726.755 3137.36 721.777C3130.13 716.186 3121.92 709.878 3105.89 709.878C3089.87 709.878 3081.65 716.22 3074.43 721.811C3067.98 726.755 3063.35 730.335 3052.85 730.335C3042.35 730.335 3037.67 726.755 3031.27 721.777C3025.4 717.243 3018.75 712.129 3007.71 710.424C3005.42 710.083 3003.14 710.731 3001.37 712.265C2999.56 713.833 2998.5 716.084 2998.5 718.47C2998.5 722.459 3001.43 725.835 3005.46 726.482C3012.28 727.573 3016.3 730.676 3021.38 734.597C3028.61 740.188 3036.82 746.496 3052.85 746.496C3068.87 746.496 3077.09 740.154 3084.31 734.563C3090.76 729.619 3095.39 726.039 3105.89 726.039C3116.39 726.039 3121.06 729.619 3127.47 734.597C3134.7 740.188 3142.92 746.496 3158.94 746.496C3174.96 746.496 3183.18 740.154 3190.41 734.597C3196.85 729.653 3201.49 726.039 3212.02 726.039C3222.56 726.039 3227.19 729.619 3233.64 734.597C3240.86 740.188 3249.08 746.496 3265.14 746.496C3281.19 746.496 3289.38 740.154 3296.64 734.563C3301.75 730.642 3305.74 727.539 3312.56 726.448C3316.58 725.8 3319.51 722.425 3319.51 718.436C3319.51 716.05 3318.49 713.799 3316.65 712.231L3316.68 712.299Z" fill="#00A91C"/>
<path d="M5130.29 230.513L5134.75 222.569C5133.46 222.467 5132.16 222.398 5130.86 222.398C5106.86 222.398 5087.36 241.9 5087.36 265.903C5087.36 285.882 5100.93 302.759 5119.31 307.839L5120.91 299.827C5106.25 295.497 5095.48 281.927 5095.48 265.869C5095.48 246.537 5111.06 230.82 5130.29 230.513Z" fill="#00BDE3"/>
<path d="M5151.87 258.027H5132.3L5139.83 220.08L5109.83 273.744H5129.36L5121.83 311.691L5151.87 258.027Z" fill="#00BDE3"/>
<path d="M5174.33 265.903C5174.33 245.923 5160.76 229.047 5142.39 223.967L5140.79 231.979C5155.45 236.309 5166.22 249.878 5166.22 265.937C5166.22 285.268 5150.64 300.986 5131.41 301.293L5126.94 309.237C5128.24 309.339 5129.54 309.407 5130.83 309.407C5154.83 309.407 5174.33 289.905 5174.33 265.903Z" fill="#00BDE3"/>
<path d="M5158.48 678.409H5138.91L5146.48 640.462L5116.44 694.127H5136.01L5128.48 732.074L5158.48 678.409Z" fill="#00A91C"/>
<path d="M5180.98 686.251C5180.98 666.272 5167.41 649.395 5149.04 644.315L5147.43 652.328C5162.09 656.658 5172.87 670.227 5172.87 686.285C5172.87 705.617 5157.29 721.334 5138.06 721.641L5133.59 729.585C5134.89 729.688 5136.18 729.756 5137.48 729.756C5161.48 729.756 5180.98 710.254 5180.98 686.251Z" fill="#00A91C"/>
<path d="M5136.9 650.896L5141.37 642.952C5140.07 642.849 5138.77 642.781 5137.48 642.781C5113.48 642.781 5093.98 662.283 5093.98 686.285C5093.98 706.265 5107.55 723.141 5125.92 728.222L5127.52 720.209C5112.86 715.879 5102.09 702.31 5102.09 686.251C5102.09 666.92 5117.67 651.203 5136.9 650.896Z" fill="#00A91C"/>
<path d="M115.772 272.619C115.772 254.379 110.146 244.491 105.612 236.548C101.794 229.865 99.0324 224.921 98.8278 214.318H115.908L85.566 170.302L55.4285 214.011V214.352H73.3269C73.5655 231.808 79.0202 241.491 83.4522 249.23C87.4069 256.152 90.2707 261.164 90.2707 272.653C90.2707 284.143 87.4069 289.155 83.4522 296.076C79.3612 303.236 74.3837 311.998 73.4632 327.034H99.0323C99.7824 319.021 102.305 314.521 105.612 308.725C110.146 300.781 115.772 290.894 115.772 272.653V272.619Z" fill="#00BDE3"/>
<path d="M190.74 272.619C190.74 254.379 185.115 244.491 180.581 236.548C176.763 229.865 174.001 224.921 173.797 214.318H190.877L160.535 170.302L130.193 214.318H148.33C148.568 231.774 154.023 241.457 158.455 249.196C162.41 256.118 165.273 261.129 165.273 272.619C165.273 284.109 162.41 289.121 158.455 296.042C154.364 303.202 149.387 311.964 148.466 327H174.035C174.785 318.987 177.308 314.487 180.615 308.691C185.149 300.747 190.774 290.86 190.774 272.619H190.74Z" fill="#00BDE3"/>
<path d="M265.675 272.619C265.675 254.379 260.05 244.491 255.515 236.548C251.697 229.865 248.936 224.921 248.731 214.318H265.811L235.469 170.302L205.127 214.318H223.264C223.503 231.774 228.958 241.457 233.39 249.196C237.344 256.118 240.208 261.129 240.208 272.619C240.208 284.109 237.344 289.121 233.39 296.042C229.299 303.202 224.321 311.964 223.401 327H248.97C249.72 318.987 252.243 314.487 255.549 308.691C260.084 300.747 265.709 290.86 265.709 272.619H265.675Z" fill="#00BDE3"/>
<path d="M115.772 692.899C115.772 674.659 110.146 664.772 105.612 656.828C101.794 650.145 99.0323 645.202 98.8278 634.598H115.908L85.5659 590.583L55.2239 634.598H73.3609C73.5996 652.055 79.0543 661.737 83.4863 669.477C87.441 676.398 90.3047 681.41 90.3047 692.899C90.3047 704.389 87.441 709.401 83.4863 716.322C79.3952 723.482 74.4178 732.244 73.4973 747.28H99.0664C99.8164 739.268 102.339 734.767 105.646 728.971C110.18 721.027 115.806 711.14 115.806 692.899H115.772Z" fill="#00A91C"/>
<path d="M265.675 692.899C265.675 674.659 260.05 664.772 255.515 656.828C251.697 650.145 248.936 645.202 248.731 634.598H265.811L235.469 590.583L205.127 634.598H223.264C223.503 652.055 228.958 661.737 233.39 669.477C237.344 676.398 240.208 681.41 240.208 692.899C240.208 704.389 237.344 709.401 233.39 716.322C229.299 723.482 224.321 732.244 223.401 747.28H248.97C249.72 739.268 252.243 734.767 255.549 728.971C260.084 721.027 265.709 711.14 265.709 692.899H265.675Z" fill="#00A91C"/>
<path d="M190.74 692.899C190.74 674.659 185.115 664.772 180.581 656.828C176.763 650.145 174.001 645.202 173.797 634.598H190.877L160.535 590.583L130.193 634.598H148.33C148.568 652.055 154.023 661.737 158.455 669.477C162.41 676.398 165.273 681.41 165.273 692.899C165.273 704.389 162.41 709.401 158.455 716.322C154.364 723.482 149.387 732.244 148.466 747.28H174.035C174.785 739.268 177.308 734.767 180.615 728.971C185.149 721.027 190.774 711.14 190.774 692.899H190.74Z" fill="#00A91C"/>
</svg>
