<svg width="2846" height="173" viewBox="0 0 2846 173" fill="none" xmlns="http://www.w3.org/2000/svg">
<path d="M1485.01 55.676L1473.15 50.5026L1466.46 37.4632C1466.07 36.7068 1465.4 36.1017 1464.59 35.8294L1435.06 25.1801C1433.82 24.7262 1432.49 25.0288 1431.55 25.9364L1418.64 38.522L1415.98 36.4648C1415.22 35.8899 1414.28 35.6177 1413.31 35.7992L1393.92 39.0969C1393.08 39.2481 1392.32 39.702 1391.78 40.3978L1380.16 55.7366C1379.04 57.219 1379.34 59.4578 1380.82 60.4864C1382.28 61.515 1384.39 61.3638 1385.57 59.8208C1386.75 58.3081 1396.37 45.541 1396.37 45.541L1412.98 42.7273L1427.95 54.4356C1429.44 55.5853 1431.55 55.3432 1432.7 53.8608C1433.85 52.3784 1433.58 50.2606 1432.13 49.1109L1423.99 42.7576L1434.76 32.2595L1461.05 41.729L1467.67 54.6474C1468.04 55.3433 1468.61 55.8878 1469.34 56.2206C1469.34 56.2206 1480.11 61.0007 1482.28 61.8781C1484.46 62.7555 1485.98 61.5453 1486.73 60.1234C1487.49 58.7014 1486.7 56.4021 1484.98 55.676H1485.01Z" fill="#1B1B1B"/>
<path d="M1498.74 69.0181H1363.25C1361.31 69.0181 1359.74 70.5913 1359.74 72.5275V83.7215C1359.74 85.6578 1361.31 87.231 1363.25 87.231H1393.26C1394.86 87.231 1396.13 88.5319 1396.13 90.1051C1396.13 91.6783 1394.83 92.9792 1393.26 92.9792H1370.18L1378.65 128.467H1371.45C1369.51 128.467 1367.94 130.04 1367.94 131.977V148.768C1367.94 150.704 1369.51 152.277 1371.45 152.277H1380.73C1380.92 139.57 1391.32 129.254 1404.12 129.254C1418.09 129.254 1427.5 140.871 1427.5 152.277H1434.91C1435.09 139.57 1445.53 129.254 1458.3 129.254C1472.91 129.254 1481.68 141.507 1481.68 152.277H1489.09C1491.03 152.277 1492.6 150.704 1492.6 148.768V131.977C1492.6 130.04 1491.03 128.467 1489.09 128.467H1483.19L1493.02 87.231H1498.74C1500.68 87.231 1502.25 85.6578 1502.25 83.7215V72.5275C1502.25 70.5913 1500.68 69.0181 1498.74 69.0181Z" fill="#1B1B1B"/>
<path d="M1404.18 134.699C1394.26 134.699 1386.18 142.687 1386.15 152.61C1386.15 162.533 1394.16 170.581 1404.09 170.611C1414.01 170.641 1422.09 162.624 1422.12 152.701C1422.15 142.777 1414.13 134.73 1404.18 134.699ZM1404.12 159.417C1400.37 159.417 1397.34 156.361 1397.34 152.64C1397.34 148.889 1400.4 145.863 1404.15 145.893C1407.9 145.893 1410.92 148.949 1410.92 152.701C1410.92 156.452 1407.87 159.447 1404.12 159.447V159.417ZM1458.33 134.699C1448.37 134.699 1440.33 142.687 1440.3 152.61C1440.3 162.533 1448.31 170.581 1458.24 170.611C1468.16 170.641 1476.23 162.624 1476.26 152.701C1476.29 142.777 1468.28 134.73 1458.33 134.699ZM1458.27 159.417C1454.51 159.417 1451.49 156.361 1451.49 152.64C1451.49 148.889 1454.54 145.863 1458.3 145.893C1462.05 145.893 1465.07 148.949 1465.07 152.701C1465.07 156.452 1462.02 159.447 1458.27 159.447V159.417Z" fill="#1B1B1B"/>
<path d="M65.683 71.4988H77.874L56.2448 40.1255L34.6157 71.4988H47.5327C47.7142 83.9332 51.5863 90.8312 54.7323 96.3374C57.5456 101.269 59.5724 104.839 59.5724 113.007C59.5724 121.176 57.5456 124.746 54.7021 129.708C51.4653 135.365 47.4722 142.384 47.4722 155.393H65.6225C65.6225 147.194 67.6493 143.655 70.4928 138.693C73.7296 133.035 77.7227 126.017 77.7227 113.007C77.7227 99.9981 73.6994 92.9792 70.4928 87.3217C67.7703 82.5718 65.804 79.0321 65.6528 71.4988H65.683Z" fill="#1B1B1B"/>
<path d="M119.045 71.4988H131.236L109.607 40.1255L87.9777 71.4988H100.895C101.076 83.9332 104.948 90.8312 108.094 96.3374C110.908 101.269 112.934 104.839 112.934 113.007C112.934 121.176 110.908 124.746 108.064 129.708C104.827 135.365 100.834 142.384 100.834 155.393H118.984C118.984 147.194 121.011 143.655 123.855 138.693C127.092 133.035 131.085 126.017 131.085 113.007C131.085 99.9981 127.061 92.9792 123.855 87.3217C121.132 82.5718 119.166 79.0321 119.015 71.4988H119.045Z" fill="#1B1B1B"/>
<path d="M172.437 71.4988H184.628L162.999 40.1255L141.37 71.4988H154.287C154.468 83.9332 158.34 90.8312 161.486 96.3374C164.3 101.269 166.327 104.839 166.327 113.007C166.327 121.176 164.3 124.746 161.456 129.708C158.219 135.365 154.226 142.384 154.226 155.393H172.377C172.377 147.194 174.403 143.655 177.247 138.693C180.484 133.035 184.477 126.017 184.477 113.007C184.477 99.9981 180.454 92.9792 177.247 87.3217C174.524 82.5718 172.558 79.0321 172.407 71.4988H172.437Z" fill="#1B1B1B"/>
<path d="M323.176 67.8987C324.023 68.7458 325.051 69.2601 326.14 69.4719C327.955 69.8349 329.891 69.2904 331.313 67.8987C333.551 65.6599 333.551 62.0294 331.313 59.7906L316.248 44.7241C315.673 44.1493 315.038 43.756 314.342 43.4535C312.255 42.6063 309.805 43.0299 308.111 44.7241C305.872 46.9629 305.872 50.5934 308.111 52.8322L323.176 67.8987Z" fill="#1B1B1B"/>
<path d="M361.2 55.4945C364.377 55.4945 366.948 52.9229 366.948 49.7463V28.4475C366.948 25.2708 364.377 22.6992 361.2 22.6992C358.024 22.6992 355.453 25.2708 355.453 28.4475V49.7463C355.453 52.9229 358.024 55.4945 361.2 55.4945Z" fill="#1B1B1B"/>
<path d="M395.202 69.5626C396.684 69.5626 398.136 69.0181 399.256 67.8987L414.32 52.8322C416.559 50.5934 416.559 46.9629 414.32 44.7241C412.082 42.4853 408.452 42.4853 406.213 44.7241L391.148 59.7906C388.91 62.0294 388.91 65.6599 391.148 67.8987C392.268 69.0181 393.75 69.5929 395.202 69.5929V69.5626Z" fill="#1B1B1B"/>
<path d="M430.595 92.0413H409.268C406.092 92.0413 403.521 94.6128 403.521 97.7895C403.521 100.966 406.092 103.538 409.268 103.538H430.595C433.771 103.538 436.343 100.966 436.343 97.7895C436.343 94.6128 433.771 92.0413 430.595 92.0413Z" fill="#1B1B1B"/>
<path d="M361.261 62.2715C356.905 62.2715 352.76 63.0581 348.919 64.5102C348.919 64.5102 348.828 64.5405 348.798 64.5708C348.011 64.8733 347.255 65.1758 346.499 65.5086C346.347 65.5691 346.196 65.6599 346.045 65.7204C345.41 66.023 344.744 66.3255 344.139 66.6885C343.716 66.9306 343.322 67.1726 342.929 67.4147C342.596 67.6264 342.233 67.8079 341.901 68.05C332.16 74.373 325.686 85.325 325.686 97.7896C325.686 117.394 341.598 133.278 361.231 133.278C365.587 133.278 369.731 132.491 373.573 131.039C373.573 131.039 373.664 131.008 373.694 130.978C374.48 130.676 375.237 130.373 375.993 130.04C376.144 129.98 376.295 129.889 376.447 129.829C377.082 129.526 377.747 129.224 378.352 128.86C378.776 128.618 379.169 128.376 379.562 128.134C379.895 127.923 380.258 127.741 380.591 127.499C390.332 121.176 396.805 110.224 396.805 97.7594C396.805 78.1548 380.893 62.2715 361.261 62.2715Z" fill="#1B1B1B"/>
<path d="M399.256 127.65C398.408 126.803 397.38 126.289 396.291 126.077C394.476 125.714 392.54 126.259 391.118 127.65C388.88 129.889 388.88 133.52 391.118 135.758L406.183 150.825C406.758 151.4 407.393 151.793 408.089 152.095C410.176 152.943 412.626 152.519 414.32 150.825C416.559 148.586 416.559 144.956 414.32 142.717L399.256 127.65Z" fill="#1B1B1B"/>
<path d="M327.229 125.986C325.747 125.986 324.295 126.531 323.176 127.65L308.111 142.717C305.872 144.956 305.872 148.586 308.111 150.825C310.349 153.064 313.979 153.064 316.218 150.825L331.283 135.758C333.521 133.52 333.521 129.889 331.283 127.65C330.163 126.531 328.681 125.956 327.229 125.956V125.986Z" fill="#1B1B1B"/>
<path d="M318.91 97.7593C318.91 94.5827 316.339 92.0111 313.162 92.0111H291.836C288.66 92.0111 286.088 94.5827 286.088 97.7593C286.088 100.936 288.66 103.508 291.836 103.508H313.162C316.339 103.508 318.91 100.936 318.91 97.7593Z" fill="#1B1B1B"/>
<path d="M361.231 140.054C358.054 140.054 355.483 142.626 355.483 145.803V167.101C355.483 170.278 358.054 172.85 361.231 172.85C364.407 172.85 366.978 170.278 366.978 167.101V145.803C366.978 142.626 364.407 140.054 361.231 140.054Z" fill="#1B1B1B"/>
<path d="M892.218 120.087C887.075 120.087 882.871 115.912 882.871 110.769C882.871 108.984 881.449 107.531 879.694 107.531C877.94 107.531 876.458 108.984 876.458 110.769C876.458 119.451 883.536 126.501 892.218 126.501C894.003 126.501 895.394 125.079 895.394 123.324C895.394 121.569 893.973 120.087 892.218 120.087Z" fill="#1B1B1B"/>
<path d="M927.732 141.113H943.946V104.627H945.429C949.21 104.627 952.296 101.541 952.296 97.7594C952.296 94.1894 949.573 91.285 946.094 90.9522H927.762C925.796 90.9522 924.223 89.379 924.223 87.4125C924.223 85.446 925.826 83.8728 927.762 83.8728H943.977V47.2957H945.459C949.24 47.2957 952.326 44.2098 952.326 40.4281C952.326 36.6463 949.24 33.5604 945.459 33.5604H839.068C835.287 33.5604 832.201 36.6463 832.201 40.4281C832.201 44.2098 835.287 47.2957 839.068 47.2957H840.55V83.8728H856.643C858.61 83.8728 860.183 85.4763 860.183 87.4125C860.183 89.3488 858.579 90.9522 856.643 90.9522H838.433C834.954 91.285 832.231 94.1894 832.231 97.7594C832.231 101.541 835.317 104.627 839.098 104.627H840.58V141.113H856.674C858.64 141.113 860.213 142.717 860.213 144.653C860.213 146.589 858.61 148.193 856.674 148.193H840.58H839.098C835.317 148.193 832.231 151.279 832.231 155.06C832.231 158.842 835.317 161.928 839.098 161.928H945.489C949.27 161.928 952.356 158.842 952.356 155.06C952.356 151.279 949.27 148.193 945.489 148.193H944.007H927.793C925.826 148.193 924.253 146.589 924.253 144.653C924.253 142.717 925.857 141.113 927.793 141.113H927.732ZM892.218 133.338C879.755 133.338 869.591 123.233 869.591 110.769C869.591 102.782 873.735 96.5794 878.514 89.379C883.536 81.9365 889.223 75.5227 891.069 63.179C891.159 62.6345 891.613 62.1807 892.218 62.1807C892.762 62.1807 893.277 62.6042 893.367 63.179C895.183 74.6756 900.718 81.1196 905.589 88.5621C910.338 95.7928 914.845 102.66 914.845 110.799C914.845 123.263 904.711 133.368 892.218 133.368V133.338Z" fill="#1B1B1B"/>
<path d="M670.966 111.313C668.243 84.3265 649.367 56.8862 615.395 25.5128C619.963 52.8624 607.258 67.5356 597.82 83.1466C595.4 78.8808 593.373 73.6772 591.982 67.1423C571.623 91.9808 568.779 120.177 576.614 138.542C584.298 156.634 602.932 170.702 624.471 169.945C660.802 168.675 673.507 136.303 670.966 111.313ZM624.471 164.953C613.641 165.377 604.233 158.267 600.361 149.161C596.428 139.933 597.85 125.744 608.105 113.219C608.801 116.517 609.829 119.119 611.039 121.267C615.819 113.401 622.172 106.019 619.873 92.2531C636.934 108.015 646.463 121.841 647.854 135.426C649.125 148.011 642.742 164.318 624.44 164.953H624.471Z" fill="#1B1B1B"/>
<path d="M1980.9 40.2767H1969.53C1969.2 40.2767 1968.92 40.5476 1968.92 40.8818V165.952C1968.92 166.286 1969.2 166.557 1969.53 166.557H1980.9C1981.24 166.557 1981.51 166.286 1981.51 165.952V40.8818C1981.51 40.5476 1981.24 40.2767 1980.9 40.2767Z" fill="#1B1B1B"/>
<path d="M2015.54 53.891C2003.74 57.703 1987.98 50.5025 1987.89 53.0439C1987.89 53.0439 1990.92 35.1638 2003.26 30.0206C2011.91 26.4204 2027.79 33.3183 2030.91 30.8677C2030.91 30.8677 2028.25 49.7764 2015.54 53.891Z" fill="#1B1B1B"/>
<path d="M2015.54 84.6593C2003.74 88.4713 1987.98 81.2708 1987.89 83.8122C1987.89 83.8122 1990.92 65.9321 2003.26 60.7889C2011.91 57.1887 2027.79 64.0866 2030.91 61.636C2030.91 61.636 2028.25 80.5447 2015.54 84.6593Z" fill="#1B1B1B"/>
<path d="M2015.54 115.428C2003.74 119.24 1987.98 112.039 1987.89 114.58C1987.89 114.58 1990.92 96.7004 2003.26 91.5572C2011.91 87.957 2027.79 94.8549 2030.91 92.4043C2030.91 92.4043 2028.25 111.313 2015.54 115.428Z" fill="#1B1B1B"/>
<path d="M1934.92 53.891C1946.72 57.703 1962.48 50.5025 1962.57 53.0439C1962.57 53.0439 1959.55 35.1638 1947.2 30.0206C1938.55 26.4204 1922.67 33.3183 1919.56 30.8677C1919.56 30.8677 1922.22 49.7764 1934.92 53.891Z" fill="#1B1B1B"/>
<path d="M1934.92 84.6593C1946.72 88.4713 1962.48 81.2708 1962.57 83.8122C1962.57 83.8122 1959.55 65.9321 1947.2 60.7889C1938.55 57.1887 1922.67 64.0866 1919.56 61.636C1919.56 61.636 1922.22 80.5447 1934.92 84.6593Z" fill="#1B1B1B"/>
<path d="M1934.92 115.428C1946.72 119.24 1962.48 112.039 1962.57 114.58C1962.57 114.58 1959.55 96.7004 1947.2 91.5572C1938.55 87.957 1922.67 94.8549 1919.56 92.4043C1919.56 92.4043 1922.22 111.313 1934.92 115.428Z" fill="#1B1B1B"/>
<path d="M2245.93 18.252C2204 18.252 2170 52.2574 2170 94.1894C2170 136.121 2204 170.127 2245.93 170.127C2287.86 170.127 2321.86 136.121 2321.86 94.1894C2321.86 52.2574 2287.86 18.252 2245.93 18.252ZM2244.05 83.7215C2249.83 83.7215 2254.49 88.4109 2254.49 94.1592C2254.49 99.9074 2249.8 104.597 2244.05 104.597C2238.31 104.597 2233.62 99.9074 2233.62 94.1592C2233.62 88.4109 2238.31 83.7215 2244.05 83.7215ZM2179.71 95.7929C2179.77 90.438 2179.53 79.8188 2187.39 63.8144C2195.26 47.8101 2209.2 40.3374 2212.05 38.4616L2235.13 74.6454C2234.49 74.9781 2228.87 77.701 2225.87 83.0257C2222.88 88.3504 2222.67 93.07 2222.91 95.8837L2179.74 95.7929H2179.71ZM2246.29 158.479C2227.87 158.479 2217.37 152.489 2212.96 150.341L2232.86 112.13C2234.74 113.34 2238.85 115.458 2245.2 115.458C2251.56 115.458 2256.79 111.464 2257.45 111.011L2278.93 148.253C2276.33 149.857 2262.99 158.449 2246.29 158.449V158.479ZM2265.89 94.7945C2266.05 90.68 2265.05 86.7167 2262.81 82.9652C2260.42 78.9717 2257.12 76.0975 2253.01 74.3428L2274.61 37.0397C2284.98 42.3946 2293.27 50.3514 2299.65 61.0008C2305.76 71.1964 2308.91 81.8458 2309 93.0095L2265.89 94.7945Z" fill="#1B1B1B"/>
<path d="M210.129 162.109C184.023 134.457 148.691 118.604 110.696 117.515C72.6407 116.426 36.5216 130.192 8.8726 156.331L0.553711 147.527C30.5622 119.209 69.7064 104.264 111.059 105.414C152.321 106.593 190.618 123.778 218.962 153.79L210.16 162.109H210.129Z" fill="#1B1B1B"/>
<path d="M1183.8 76.9748C1183.8 81.4524 1180.17 85.0828 1175.7 85.0828C1171.22 85.0828 1167.59 81.4524 1167.59 76.9748C1167.59 72.4972 1171.22 68.8667 1175.7 68.8667C1180.17 68.8667 1183.8 72.4972 1183.8 76.9748Z" fill="#1B1B1B"/>
<path d="M1199.47 1.55163C1202.38 -1.41326 1204.89 0.553259 1203.89 3.76018L1184.74 65.8716C1182.26 63.8445 1179.14 62.5739 1175.7 62.5739C1174.03 62.5739 1172.46 62.9067 1170.98 63.4513C1170.58 59.3065 1170.22 54.7079 1170.1 51.4707C1170.01 48.7176 1170.1 45.9342 1171.43 43.5442C1175.45 36.4042 1178.66 30.8677 1186.62 19.3712C1192.67 10.6278 1197.78 3.30636 1199.5 1.55163" fill="#1B1B1B"/>
<path d="M1193.69 171.519L1182.05 92.1019L1229.42 134.881C1232.11 137.301 1235.17 135.758 1233.59 131.583C1232.66 129.102 1227.85 120.783 1222.07 110.92C1214.45 97.9409 1210.51 92.3136 1205.37 85.1132C1203.65 82.7231 1200.95 81.3617 1198.23 80.2121C1195.99 79.2742 1193.09 78.1548 1190.09 77.0657C1190.03 84.9317 1183.62 91.3456 1175.73 91.3456C1173.55 91.3456 1171.49 90.8312 1169.65 89.9539L1157.67 171.519H1193.72H1193.69Z" fill="#1B1B1B"/>
<path d="M1095.8 84.1148C1098.1 85.0224 1106.85 86.8981 1117.25 89.0461C1130.96 91.89 1137.28 92.6766 1145.45 93.6145C1148.17 93.917 1150.77 92.9186 1153.25 91.7387C1156.34 90.2865 1160.72 87.9873 1164.53 85.9602C1162.54 83.4794 1161.3 80.3935 1161.3 76.9748C1161.3 75.4016 1161.6 73.9191 1162.08 72.4972L1096.11 79.1833" fill="#1B1B1B"/>
<path d="M2706.64 91.0731C2706.64 57.1584 2733.96 29.5063 2767.78 28.9618L2775.58 14.9844C2773.35 14.7726 2771.05 14.6516 2768.75 14.6516C2726.64 14.6516 2692.37 48.9294 2692.37 91.0429C2692.37 126.138 2716.17 155.786 2748.48 164.681L2751.26 150.643C2725.49 143.08 2706.64 119.24 2706.64 91.0429V91.0731Z" fill="#1A1A1A"/>
<path d="M2789.05 17.4351L2786.26 31.4729C2812.04 39.0364 2830.88 62.8765 2830.88 91.0732C2830.88 124.988 2803.57 152.64 2769.75 153.185L2761.94 167.162C2764.18 167.374 2766.48 167.495 2768.78 167.495C2810.89 167.495 2845.16 133.217 2845.16 91.1035C2845.16 56.0089 2821.35 26.36 2789.05 17.4653V17.4351Z" fill="#1A1A1A"/>
<path d="M2805.65 77.3077H2771.32L2784.57 10.6279L2731.84 104.839H2766.18L2752.96 171.519L2805.65 77.3077Z" fill="#1A1A1A"/>
<path d="M1750.79 152.247C1742.11 152.247 1737.51 147.769 1734.15 144.471C1731.16 141.537 1729.55 140.145 1725.95 140.145C1722.35 140.145 1720.78 141.537 1717.75 144.471C1714.4 147.739 1709.8 152.247 1701.12 152.247C1692.43 152.247 1687.84 147.769 1684.48 144.471C1681.48 141.537 1679.88 140.145 1676.28 140.145C1672.68 140.145 1671.11 141.537 1668.08 144.471C1664.73 147.739 1660.13 152.247 1651.45 152.247C1642.76 152.247 1638.17 147.769 1634.81 144.471C1631.81 141.537 1630.21 140.145 1626.61 140.145C1623.28 140.145 1620.56 137.422 1620.56 134.094C1620.56 130.766 1623.28 128.043 1626.61 128.043C1635.29 128.043 1639.89 132.521 1643.25 135.819C1646.24 138.753 1647.85 140.145 1651.45 140.145C1655.05 140.145 1656.62 138.753 1659.64 135.819C1663 132.551 1667.6 128.043 1676.28 128.043C1684.96 128.043 1689.56 132.521 1692.92 135.819C1695.91 138.753 1697.52 140.145 1701.12 140.145C1704.72 140.145 1706.29 138.753 1709.31 135.819C1712.67 132.551 1717.27 128.043 1725.95 128.043C1734.63 128.043 1739.23 132.521 1742.59 135.819C1745.58 138.753 1747.19 140.145 1750.79 140.145C1754.39 140.145 1755.99 138.723 1758.99 135.819C1762.34 132.551 1766.94 128.043 1775.62 128.043C1778.95 128.043 1781.67 130.766 1781.67 134.094C1781.67 137.422 1778.95 140.145 1775.62 140.145C1772.02 140.145 1770.42 141.537 1767.43 144.471C1764.07 147.739 1759.44 152.247 1750.79 152.247Z" fill="#1B1B1B"/>
<path d="M1750.79 112.069C1742.11 112.069 1737.51 107.592 1734.15 104.294C1731.16 101.36 1729.55 99.9678 1725.95 99.9678C1722.35 99.9678 1720.78 101.36 1717.75 104.294C1714.4 107.562 1709.8 112.069 1701.12 112.069C1692.43 112.069 1687.84 107.592 1684.48 104.294C1681.48 101.36 1679.88 99.9678 1676.28 99.9678C1672.68 99.9678 1671.11 101.36 1668.08 104.294C1664.73 107.562 1660.13 112.069 1651.45 112.069C1642.76 112.069 1638.17 107.592 1634.81 104.294C1631.81 101.36 1630.21 99.9678 1626.61 99.9678C1623.28 99.9678 1620.56 97.2449 1620.56 93.917C1620.56 90.5891 1623.28 87.8662 1626.61 87.8662C1635.29 87.8662 1639.89 92.3438 1643.25 95.6415C1646.24 98.5761 1647.85 99.9678 1651.45 99.9678C1655.05 99.9678 1656.62 98.5761 1659.64 95.6415C1663 92.3741 1667.6 87.8662 1676.28 87.8662C1684.96 87.8662 1689.56 92.3438 1692.92 95.6415C1695.91 98.5761 1697.52 99.9678 1701.12 99.9678C1704.72 99.9678 1706.29 98.5761 1709.31 95.6415C1712.67 92.3741 1717.27 87.8662 1725.95 87.8662C1734.63 87.8662 1739.23 92.3438 1742.59 95.6415C1745.58 98.5761 1747.19 99.9678 1750.79 99.9678C1754.39 99.9678 1755.99 98.5459 1758.99 95.6415C1762.34 92.3741 1766.94 87.8662 1775.62 87.8662C1778.95 87.8662 1781.67 90.5891 1781.67 93.917C1781.67 97.2449 1778.95 99.9678 1775.62 99.9678C1772.02 99.9678 1770.42 101.36 1767.43 104.294C1764.07 107.562 1759.44 112.069 1750.79 112.069Z" fill="#1B1B1B"/>
<path d="M1750.79 71.8921C1742.11 71.8921 1737.51 67.4146 1734.15 64.1169C1731.16 61.1823 1729.55 59.7906 1725.95 59.7906C1722.35 59.7906 1720.78 61.1823 1717.75 64.1169C1714.4 67.3843 1709.8 71.8921 1701.12 71.8921C1692.43 71.8921 1687.84 67.4146 1684.48 64.1169C1681.48 61.1823 1679.88 59.7906 1676.28 59.7906C1672.68 59.7906 1671.11 61.1823 1668.08 64.1169C1664.73 67.3843 1660.13 71.8921 1651.45 71.8921C1642.76 71.8921 1638.17 67.4146 1634.81 64.1169C1631.81 61.1823 1630.21 59.7906 1626.61 59.7906C1623.28 59.7906 1620.56 57.0677 1620.56 53.7398C1620.56 50.4118 1623.28 47.689 1626.61 47.689C1635.29 47.689 1639.89 52.1666 1643.25 55.4642C1646.24 58.3989 1647.85 59.7906 1651.45 59.7906C1655.05 59.7906 1656.62 58.3989 1659.64 55.4642C1663 52.1968 1667.6 47.689 1676.28 47.689C1684.96 47.689 1689.56 52.1666 1692.92 55.4642C1695.91 58.3989 1697.52 59.7906 1701.12 59.7906C1704.72 59.7906 1706.29 58.3989 1709.31 55.4642C1712.67 52.1968 1717.27 47.689 1725.95 47.689C1734.63 47.689 1739.23 52.1666 1742.59 55.4642C1745.58 58.3989 1747.19 59.7906 1750.79 59.7906C1754.39 59.7906 1755.99 58.3686 1758.99 55.4642C1762.34 52.1968 1766.94 47.689 1775.62 47.689C1778.95 47.689 1781.67 50.4118 1781.67 53.7398C1781.67 57.0677 1778.95 59.7906 1775.62 59.7906C1772.02 59.7906 1770.42 61.1823 1767.43 64.1169C1764.07 67.3843 1759.44 71.8921 1750.79 71.8921Z" fill="#1B1B1B"/>
<path d="M2582.22 144.714L2522.84 41.8802C2517.7 32.9856 2504.9 32.9856 2499.76 41.8802L2440.38 144.714C2435.24 153.608 2441.65 164.711 2451.93 164.711H2570.67C2580.92 164.711 2587.34 153.608 2582.22 144.714ZM2499.52 151.037L2506.99 113.491H2487.63L2517.34 60.4259L2509.86 97.9711H2529.22L2499.52 151.037Z" fill="#1B1B1B"/>
</svg>
