<svg width="797" height="267" viewBox="0 0 797 267" fill="none" xmlns="http://www.w3.org/2000/svg">
<path d="M787.733 22.3522L781.416 19.597L777.855 12.6526C777.645 12.2498 777.291 11.9276 776.855 11.7825L761.127 6.11104C760.466 5.86935 759.757 6.03048 759.257 6.51384L752.376 13.2165L750.958 12.1209C750.555 11.8148 750.056 11.6698 749.54 11.7664L739.21 13.5227C738.759 13.6032 738.356 13.8449 738.066 14.2155L731.877 22.3844C731.281 23.1739 731.442 24.3662 732.232 24.914C733.006 25.4618 734.134 25.3813 734.762 24.5596C735.391 23.7539 740.515 16.9546 740.515 16.9546L749.363 15.4561L757.34 21.6916C758.129 22.3039 759.257 22.1749 759.87 21.3854C760.482 20.5959 760.337 19.4681 759.564 18.8558L755.229 15.4723L760.966 9.8813L774.97 14.9244L778.499 21.8044C778.693 22.175 778.999 22.465 779.386 22.6422C779.386 22.6422 785.123 25.1879 786.283 25.6552C787.443 26.1225 788.249 25.478 788.652 24.7207C789.055 23.9634 788.636 22.7389 787.717 22.3522H787.733Z" fill="#1B1B1B"/>
<path d="M795.05 29.457H722.869C721.838 29.457 721 30.2949 721 31.3261V37.2876C721 38.3188 721.838 39.1566 722.869 39.1566H738.856C739.71 39.1566 740.387 39.8494 740.387 40.6873C740.387 41.5251 739.694 42.2179 738.856 42.2179H726.56L731.072 61.1176H727.237C726.205 61.1176 725.367 61.9554 725.367 62.9866V71.9289C725.367 72.9601 726.205 73.798 727.237 73.798H732.184C732.281 67.0308 737.824 61.5365 744.641 61.5365C752.087 61.5365 757.098 67.7236 757.098 73.798H761.047C761.143 67.0308 766.703 61.5365 773.504 61.5365C781.288 61.5365 785.961 68.062 785.961 73.798H789.909C790.941 73.798 791.779 72.9601 791.779 71.9289V62.9866C791.779 61.9554 790.941 61.1176 789.909 61.1176H786.767L792.004 39.1566H795.05C796.082 39.1566 796.92 38.3188 796.92 37.2876V31.3261C796.92 30.2949 796.082 29.457 795.05 29.457Z" fill="#1B1B1B"/>
<path d="M744.674 64.4375C739.388 64.4375 735.085 68.6912 735.069 73.976C735.069 79.2608 739.339 83.5467 744.625 83.5628C749.911 83.5789 754.214 79.3091 754.23 74.0243C754.246 68.7395 749.976 64.4536 744.674 64.4375ZM744.641 77.6012C742.643 77.6012 741.032 75.9739 741.032 73.9921C741.032 71.9942 742.659 70.3829 744.658 70.3991C746.656 70.3991 748.267 72.0264 748.267 74.0243C748.267 76.0222 746.64 77.6173 744.641 77.6173V77.6012ZM773.52 64.4375C768.218 64.4375 763.932 68.6912 763.915 73.976C763.915 79.2608 768.186 83.5467 773.472 83.5628C778.758 83.5789 783.06 79.3091 783.077 74.0243C783.093 68.7395 778.822 64.4536 773.52 64.4375ZM773.488 77.6012C771.49 77.6012 769.878 75.9739 769.878 73.9921C769.878 71.9942 771.506 70.3829 773.504 70.3991C775.502 70.3991 777.114 72.0264 777.114 74.0243C777.114 76.0222 775.486 77.6173 773.488 77.6173V77.6012Z" fill="#1B1B1B"/>
<path d="M175.757 29.0724C176.208 29.5236 176.756 29.7974 177.337 29.9102C178.303 30.1036 179.335 29.8136 180.092 29.0724C181.285 27.8801 181.285 25.9466 180.092 24.7543L172.067 16.7304C171.761 16.4243 171.422 16.2148 171.052 16.0537C169.94 15.6026 168.634 15.8281 167.732 16.7304C166.539 17.9227 166.539 19.8562 167.732 21.0485L175.757 29.0724Z" fill="#1B1B1B"/>
<path d="M196.015 22.4657C197.707 22.4657 199.076 21.0961 199.076 19.4043V8.06132C199.076 6.36953 197.707 5 196.015 5C194.322 5 192.953 6.36953 192.953 8.06132V19.4043C192.953 21.0961 194.322 22.4657 196.015 22.4657Z" fill="#1B1B1B"/>
<path d="M214.128 29.9583C214.918 29.9583 215.691 29.6683 216.288 29.0722L224.313 21.0483C225.506 19.8559 225.506 17.9225 224.313 16.7302C223.12 15.5379 221.187 15.5379 219.994 16.7302L211.969 24.7541C210.776 25.9464 210.776 27.8799 211.969 29.0722C212.565 29.6683 213.355 29.9744 214.128 29.9744V29.9583Z" fill="#1B1B1B"/>
<path d="M232.983 41.9297H221.621C219.929 41.9297 218.56 43.2992 218.56 44.991C218.56 46.6828 219.929 48.0523 221.621 48.0523H232.983C234.675 48.0523 236.045 46.6828 236.045 44.991C236.045 43.2992 234.675 41.9297 232.983 41.9297Z" fill="#1B1B1B"/>
<path d="M196.046 26.0771C193.726 26.0771 191.518 26.4961 189.471 27.2694C189.471 27.2694 189.423 27.2856 189.407 27.3017C188.988 27.4628 188.585 27.6239 188.182 27.8011C188.102 27.8334 188.021 27.8817 187.94 27.9139C187.602 28.0751 187.247 28.2362 186.925 28.4295C186.699 28.5584 186.49 28.6873 186.28 28.8162C186.103 28.929 185.91 29.0257 185.733 29.1546C180.543 32.522 177.095 38.3547 177.095 44.9929C177.095 55.4337 185.571 63.8926 196.03 63.8926C198.351 63.8926 200.559 63.4737 202.605 62.7003C202.605 62.7003 202.654 62.6842 202.67 62.6681C203.089 62.5069 203.492 62.3458 203.895 62.1686C203.975 62.1364 204.056 62.088 204.136 62.0558C204.475 61.8947 204.829 61.7336 205.152 61.5402C205.377 61.4113 205.587 61.2824 205.796 61.1535C205.973 61.0407 206.167 60.9441 206.344 60.8152C211.533 57.4477 214.982 51.6151 214.982 44.9768C214.982 34.5361 206.505 26.0771 196.046 26.0771Z" fill="#1B1B1B"/>
<path d="M216.288 60.8942C215.836 60.443 215.288 60.1691 214.708 60.0563C213.741 59.863 212.71 60.153 211.953 60.8942C210.76 62.0865 210.76 64.0199 211.953 65.2122L219.978 73.2361C220.284 73.5423 220.623 73.7517 220.993 73.9128C222.105 74.364 223.411 74.1384 224.313 73.2361C225.506 72.0438 225.506 70.1104 224.313 68.9181L216.288 60.8942Z" fill="#1B1B1B"/>
<path d="M177.917 60.0083C177.127 60.0083 176.354 60.2983 175.757 60.8945L167.732 68.9184C166.539 70.1107 166.539 72.0442 167.732 73.2365C168.924 74.4288 170.858 74.4288 172.051 73.2365L180.076 65.2126C181.269 64.0203 181.269 62.0868 180.076 60.8945C179.48 60.2983 178.69 59.9922 177.917 59.9922V60.0083Z" fill="#1B1B1B"/>
<path d="M173.485 44.9754C173.485 43.2836 172.115 41.9141 170.423 41.9141H159.062C157.37 41.9141 156 43.2836 156 44.9754C156 46.6672 157.37 48.0367 159.062 48.0367H170.423C172.115 48.0367 173.485 46.6672 173.485 44.9754Z" fill="#1B1B1B"/>
<path d="M196.031 67.501C194.339 67.501 192.969 68.8705 192.969 70.5623V81.9053C192.969 83.5971 194.339 84.9667 196.031 84.9667C197.723 84.9667 199.093 83.5971 199.093 81.9053V70.5623C199.093 68.8705 197.723 67.501 196.031 67.501Z" fill="#1B1B1B"/>
<path d="M506.32 72.0493H505.53H496.892C495.845 72.0493 495.007 71.1954 495.007 70.1642C495.007 69.133 495.861 68.2791 496.892 68.2791H505.53V48.8477H506.32C508.334 48.8477 509.978 47.2042 509.978 45.1902C509.978 43.289 508.528 41.7422 506.674 41.5649H496.909C495.861 41.5649 495.023 40.7271 495.023 39.6798C495.023 38.6325 495.877 37.7947 496.909 37.7947H505.546V18.315H506.336C508.35 18.315 509.994 16.6715 509.994 14.6575C509.994 12.6434 508.35 11 506.336 11H449.658C447.644 11 446 12.6434 446 14.6575C446 16.6715 447.644 18.315 449.658 18.315H450.448V37.7947H459.021C460.069 37.7947 460.907 38.6486 460.907 39.6798C460.907 40.711 460.053 41.5649 459.021 41.5649H449.32C447.466 41.7422 446.016 43.289 446.016 45.1902C446.016 47.2042 447.66 48.8477 449.674 48.8477H450.464V68.2791H459.037C460.085 68.2791 460.923 69.133 460.923 70.1642C460.923 71.1954 460.069 72.0493 459.037 72.0493H450.464H449.674C447.66 72.0493 446.016 73.6928 446.016 75.7068C446.016 77.7208 447.66 79.3643 449.674 79.3643H506.352C508.367 79.3643 510.01 77.7208 510.01 75.7068C510.01 73.6928 508.367 72.0493 506.352 72.0493H506.32Z" fill="#1B1B1B"/>
<path d="M485.112 40.2603C487.642 44.1112 490.043 47.7686 490.043 52.1028C490.043 58.7411 484.628 64.1226 477.989 64.1226C471.349 64.1226 465.935 58.7411 465.935 52.1028C465.935 47.8492 468.142 44.5462 470.689 40.7115C473.364 36.7478 476.393 33.332 477.377 26.7582C477.425 26.4682 477.667 26.2266 477.989 26.2266C478.279 26.2266 478.553 26.4521 478.601 26.7582C479.568 32.8809 482.517 36.3128 485.112 40.2764V40.2603ZM479.681 58.7733C479.681 57.8227 478.924 57.0493 477.989 57.0493C475.249 57.0493 473.009 54.8258 473.009 52.0867C473.009 51.1361 472.252 50.3627 471.317 50.3627C470.382 50.3627 469.593 51.1361 469.593 52.0867C469.593 56.7109 473.364 60.4651 477.989 60.4651C478.94 60.4651 479.681 59.7078 479.681 58.7733Z" fill="white"/>
<path d="M477.989 57.0655C478.94 57.0655 479.681 57.8389 479.681 58.7895C479.681 59.7401 478.924 60.4813 477.989 60.4813C473.364 60.4813 469.593 56.7271 469.593 52.1029C469.593 51.1523 470.35 50.3789 471.317 50.3789C472.284 50.3789 473.009 51.1523 473.009 52.1029C473.009 54.842 475.249 57.0655 477.989 57.0655Z" fill="#1B1B1B"/>
<path d="M34.6965 29.7084H41.191L29.6685 13L18.146 29.7084H25.0273C25.124 36.3305 27.1867 40.0041 28.8627 42.9366C30.3615 45.5629 31.4412 47.4641 31.4412 51.8144C31.4412 56.1647 30.3615 58.066 28.8466 60.7084C27.1223 63.7214 24.995 67.4594 24.995 74.3877H34.6643C34.6643 70.0213 35.744 68.1361 37.2588 65.4937C38.9832 62.4807 41.1104 58.7427 41.1104 51.8144C41.1104 44.8861 38.9671 41.1481 37.2588 38.1351C35.8085 35.6055 34.761 33.7204 34.6804 29.7084H34.6965Z" fill="#1B1B1B"/>
<path d="M63.1242 29.7084H69.6187L58.0962 13L46.5737 29.7084H53.455C53.5517 36.3305 55.6145 40.0041 57.2905 42.9366C58.7892 45.5629 59.8689 47.4641 59.8689 51.8144C59.8689 56.1647 58.7892 58.066 57.2744 60.7084C55.55 63.7214 53.4228 67.4594 53.4228 74.3877H63.092C63.092 70.0213 64.1717 68.1361 65.6866 65.4937C67.4109 62.4807 69.5382 58.7427 69.5382 51.8144C69.5382 44.8861 67.3948 41.1481 65.6866 38.1351C64.2362 35.6055 63.1887 33.7204 63.1081 29.7084H63.1242Z" fill="#1B1B1B"/>
<path d="M91.5676 29.7084H98.0621L86.5396 13L75.0171 29.7084H81.8984C81.9951 36.3305 84.0578 40.0041 85.7338 42.9366C87.2326 45.5629 88.3123 47.4641 88.3123 51.8144C88.3123 56.1647 87.2326 58.066 85.7177 60.7084C83.9934 63.7214 81.8661 67.4594 81.8661 74.3877H91.5354C91.5354 70.0213 92.6151 68.1361 94.1299 65.4937C95.8543 62.4807 97.9815 58.7427 97.9815 51.8144C97.9815 44.8861 95.8382 41.1481 94.1299 38.1351C92.6796 35.6055 91.6321 33.7204 91.5515 29.7084H91.5676Z" fill="#1B1B1B"/>
<path d="M111.647 77.9655C97.7398 63.2389 78.917 54.7961 58.6761 54.216C38.403 53.636 19.1612 60.9671 4.43173 74.8881L0 70.1994C15.9865 55.1183 36.8398 47.1589 58.8695 47.7711C80.8509 48.3995 101.253 57.5513 116.353 73.5347L111.664 77.9655H111.647Z" fill="#1B1B1B"/>
<path d="M631.88 40.9451C631.88 43.3297 629.946 45.2631 627.561 45.2631C625.176 45.2631 623.242 43.3297 623.242 40.9451C623.242 38.5604 625.176 36.627 627.561 36.627C629.946 36.627 631.88 38.5604 631.88 40.9451Z" fill="#1B1B1B"/>
<path d="M640.227 0.777198C641.775 -0.801803 643.112 0.245499 642.58 1.9534L632.379 35.0318C631.058 33.9523 629.398 33.2756 627.561 33.2756C626.674 33.2756 625.836 33.4529 625.047 33.7429C624.837 31.5355 624.644 29.0864 624.579 27.3624C624.531 25.8962 624.579 24.4139 625.289 23.141C627.432 19.3385 629.14 16.39 633.378 10.2673C636.601 5.61087 639.325 1.71171 640.244 0.777198" fill="#1B1B1B"/>
<path d="M637.149 91.2966L630.945 49.0019L656.181 71.7847C657.616 73.0736 659.243 72.2519 658.405 70.0284C657.906 68.7072 655.343 64.2764 652.265 59.0238C648.204 52.1116 646.109 49.1147 643.37 45.28C642.451 44.0071 641.017 43.2821 639.566 42.6698C638.374 42.1703 636.827 41.5742 635.231 40.9941C635.199 45.1833 631.783 48.5991 627.576 48.5991C626.416 48.5991 625.32 48.3252 624.337 47.858L617.956 91.2966H637.165H637.149Z" fill="#1B1B1B"/>
<path d="M585 44.7477C586.225 45.231 590.882 46.23 596.426 47.374C603.726 48.8885 607.094 49.3074 611.445 49.8069C612.896 49.968 614.282 49.4363 615.603 48.8079C617.247 48.0346 619.584 46.81 621.614 45.7305C620.551 44.4093 619.89 42.7659 619.89 40.9452C619.89 40.1073 620.051 39.3178 620.309 38.5605L585.161 42.1214" fill="#1B1B1B"/>
<path d="M361.414 52.6944C362.768 66.0031 356.015 83.2432 336.644 83.9199C325.17 84.3227 315.243 76.8305 311.15 67.1954C306.96 57.4314 308.491 42.3986 319.337 29.1705C320.062 32.6507 321.142 35.4381 322.447 37.6939C327.491 29.3799 334.243 21.5655 331.81 7C349.907 23.7084 359.98 38.3222 361.414 52.6944ZM336.644 81.2614C346.394 80.9391 349.795 72.2385 349.118 65.5358C348.393 58.3014 343.316 50.9381 334.211 42.5436C335.436 49.8586 332.036 53.8061 329.505 57.9953C328.845 56.8513 328.297 55.4496 327.942 53.7094C322.479 60.3799 321.722 67.9366 323.817 72.8508C325.879 77.7006 330.891 81.487 336.661 81.2614H336.644Z" fill="#1B1B1B"/>
<path d="M349.117 65.6152C349.794 72.3179 346.394 81.0024 336.644 81.3408C330.875 81.5664 325.863 77.78 323.8 72.9302C321.705 68.016 322.463 60.4593 327.926 53.7889C328.296 55.5451 328.844 56.9307 329.489 58.0747C332.035 53.8855 335.419 49.9541 334.195 42.623C343.284 51.0175 348.36 58.3808 349.101 65.6152H349.117Z" fill="white"/>
<path d="M22.9933 118.95C22.0546 118.95 21.2119 118.742 20.4653 118.326C19.7186 117.91 19.1319 117.302 18.7053 116.502C18.2786 115.691 18.0653 114.71 18.0653 113.558C18.0653 112.416 18.2839 111.44 18.7213 110.63C19.1586 109.808 19.7506 109.184 20.4973 108.758C21.2439 108.32 22.0813 108.102 23.0093 108.102C23.7559 108.102 24.3853 108.24 24.8973 108.518C25.4199 108.784 25.8466 109.088 26.1773 109.43L25.1853 110.63C24.9186 110.374 24.6199 110.16 24.2893 109.99C23.9693 109.808 23.5639 109.718 23.0733 109.718C22.1453 109.718 21.3933 110.059 20.8173 110.742C20.2519 111.414 19.9693 112.336 19.9693 113.51C19.9693 114.704 20.2413 115.643 20.7853 116.326C21.3293 116.998 22.1239 117.334 23.1693 117.334C23.4679 117.334 23.7506 117.296 24.0173 117.222C24.2839 117.136 24.5026 117.019 24.6733 116.87V114.614H22.6893V113.094H26.3373V117.702C25.9853 118.054 25.5159 118.352 24.9293 118.598C24.3533 118.832 23.7079 118.95 22.9933 118.95ZM31.8561 118.95C31.1308 118.95 30.4748 118.79 29.8881 118.47C29.3015 118.139 28.8375 117.67 28.4961 117.062C28.1548 116.443 27.9841 115.702 27.9841 114.838C27.9841 113.984 28.1548 113.248 28.4961 112.63C28.8481 112.011 29.3015 111.536 29.8561 111.206C30.4108 110.875 30.9921 110.71 31.6001 110.71C32.3148 110.71 32.9121 110.87 33.3921 111.19C33.8721 111.499 34.2348 111.936 34.4801 112.502C34.7255 113.056 34.8481 113.702 34.8481 114.438C34.8481 114.822 34.8215 115.12 34.7681 115.334H29.7761C29.8615 116.027 30.1121 116.566 30.5281 116.95C30.9441 117.334 31.4668 117.526 32.0961 117.526C32.4375 117.526 32.7521 117.478 33.0401 117.382C33.3388 117.275 33.6321 117.131 33.9201 116.95L34.5441 118.102C34.1708 118.347 33.7548 118.55 33.2961 118.71C32.8375 118.87 32.3575 118.95 31.8561 118.95ZM29.7601 114.086H33.2481C33.2481 113.478 33.1148 113.003 32.8481 112.662C32.5815 112.31 32.1815 112.134 31.6481 112.134C31.1895 112.134 30.7788 112.304 30.4161 112.646C30.0641 112.976 29.8455 113.456 29.7601 114.086ZM39.8215 118.95C39.1708 118.95 38.5628 118.79 37.9975 118.47C37.4322 118.139 36.9735 117.67 36.6215 117.062C36.2695 116.443 36.0935 115.702 36.0935 114.838C36.0935 113.963 36.2695 113.222 36.6215 112.614C36.9735 111.995 37.4322 111.526 37.9975 111.206C38.5628 110.875 39.1708 110.71 39.8215 110.71C40.4828 110.71 41.0962 110.875 41.6615 111.206C42.2268 111.526 42.6855 111.995 43.0375 112.614C43.3895 113.222 43.5655 113.963 43.5655 114.838C43.5655 115.702 43.3895 116.443 43.0375 117.062C42.6855 117.67 42.2268 118.139 41.6615 118.47C41.0962 118.79 40.4828 118.95 39.8215 118.95ZM39.8215 117.446C40.3975 117.446 40.8508 117.206 41.1815 116.726C41.5122 116.246 41.6775 115.616 41.6775 114.838C41.6775 114.048 41.5122 113.414 41.1815 112.934C40.8508 112.454 40.3975 112.214 39.8215 112.214C39.2455 112.214 38.7922 112.454 38.4615 112.934C38.1415 113.414 37.9815 114.048 37.9815 114.838C37.9815 115.616 38.1415 116.246 38.4615 116.726C38.7922 117.206 39.2455 117.446 39.8215 117.446ZM47.7954 118.95C46.8887 118.95 46.2434 118.688 45.8594 118.166C45.486 117.632 45.2994 116.944 45.2994 116.102V112.358H44.1794V110.982L45.3954 110.902L45.6194 108.758H47.1554V110.902H49.1554V112.358H47.1554V116.102C47.1554 117.019 47.5234 117.478 48.2594 117.478C48.398 117.478 48.542 117.462 48.6914 117.43C48.8407 117.387 48.9687 117.344 49.0754 117.302L49.3954 118.662C49.182 118.736 48.9367 118.8 48.6594 118.854C48.3927 118.918 48.1047 118.95 47.7954 118.95ZM50.8086 118.758V107.462H52.6486V110.374L52.5846 111.894C52.9153 111.584 53.2833 111.312 53.6886 111.078C54.094 110.832 54.5633 110.71 55.0966 110.71C55.9393 110.71 56.5526 110.982 56.9366 111.526C57.3206 112.07 57.5126 112.838 57.5126 113.83V118.758H55.6726V114.07C55.6726 113.419 55.5766 112.96 55.3846 112.694C55.1926 112.427 54.878 112.294 54.4406 112.294C54.0993 112.294 53.7953 112.379 53.5286 112.55C53.2726 112.71 52.9793 112.95 52.6486 113.27V118.758H50.8086ZM63.0905 118.95C62.3652 118.95 61.7092 118.79 61.1225 118.47C60.5358 118.139 60.0718 117.67 59.7305 117.062C59.3892 116.443 59.2185 115.702 59.2185 114.838C59.2185 113.984 59.3892 113.248 59.7305 112.63C60.0825 112.011 60.5358 111.536 61.0905 111.206C61.6452 110.875 62.2265 110.71 62.8345 110.71C63.5492 110.71 64.1465 110.87 64.6265 111.19C65.1065 111.499 65.4692 111.936 65.7145 112.502C65.9598 113.056 66.0825 113.702 66.0825 114.438C66.0825 114.822 66.0558 115.12 66.0025 115.334H61.0105C61.0958 116.027 61.3465 116.566 61.7625 116.95C62.1785 117.334 62.7012 117.526 63.3305 117.526C63.6718 117.526 63.9865 117.478 64.2745 117.382C64.5732 117.275 64.8665 117.131 65.1545 116.95L65.7785 118.102C65.4052 118.347 64.9892 118.55 64.5305 118.71C64.0718 118.87 63.5918 118.95 63.0905 118.95ZM60.9945 114.086H64.4825C64.4825 113.478 64.3492 113.003 64.0825 112.662C63.8158 112.31 63.4158 112.134 62.8825 112.134C62.4238 112.134 62.0132 112.304 61.6505 112.646C61.2985 112.976 61.0798 113.456 60.9945 114.086ZM67.8399 118.758V110.902H69.3599L69.4879 112.294H69.5519C69.8292 111.782 70.1652 111.392 70.5599 111.126C70.9545 110.848 71.3599 110.71 71.7759 110.71C72.1492 110.71 72.4479 110.763 72.6719 110.87L72.3519 112.47C72.2132 112.427 72.0852 112.395 71.9679 112.374C71.8505 112.352 71.7065 112.342 71.5359 112.342C71.2265 112.342 70.9012 112.464 70.5599 112.71C70.2185 112.944 69.9252 113.36 69.6799 113.958V118.758H67.8399ZM73.8086 118.758V110.902H75.3286L75.4566 111.974H75.5206C75.8513 111.622 76.2086 111.323 76.5926 111.078C76.9873 110.832 77.43 110.71 77.9206 110.71C78.4966 110.71 78.9553 110.838 79.2966 111.094C79.6486 111.339 79.9153 111.68 80.0966 112.118C80.47 111.712 80.8593 111.376 81.2646 111.11C81.6806 110.843 82.134 110.71 82.6246 110.71C83.4566 110.71 84.07 110.982 84.4646 111.526C84.8593 112.07 85.0566 112.838 85.0566 113.83V118.758H83.2006V114.07C83.2006 113.419 83.0993 112.96 82.8966 112.694C82.7046 112.427 82.406 112.294 82.0006 112.294C81.51 112.294 80.9606 112.619 80.3526 113.27V118.758H78.5126V114.07C78.5126 113.419 78.4113 112.96 78.2086 112.694C78.0166 112.427 77.7126 112.294 77.2966 112.294C76.806 112.294 76.2566 112.619 75.6486 113.27V118.758H73.8086ZM89.197 118.95C88.5143 118.95 87.9543 118.736 87.517 118.31C87.0903 117.883 86.877 117.328 86.877 116.646C86.877 115.803 87.245 115.152 87.981 114.694C88.717 114.224 89.8903 113.904 91.501 113.734C91.4903 113.318 91.3783 112.96 91.165 112.662C90.9623 112.352 90.5943 112.198 90.061 112.198C89.677 112.198 89.2983 112.272 88.925 112.422C88.5623 112.571 88.205 112.752 87.853 112.966L87.181 111.734C87.6183 111.456 88.109 111.216 88.653 111.014C89.2077 110.811 89.7943 110.71 90.413 110.71C91.3943 110.71 92.125 111.003 92.605 111.59C93.0957 112.166 93.341 113.003 93.341 114.102V118.758H91.821L91.693 117.894H91.629C91.277 118.192 90.8983 118.443 90.493 118.646C90.0983 118.848 89.6663 118.95 89.197 118.95ZM89.789 117.51C90.109 117.51 90.397 117.435 90.653 117.286C90.9197 117.126 91.2023 116.912 91.501 116.646V114.886C90.4343 115.024 89.693 115.232 89.277 115.51C88.861 115.776 88.653 116.107 88.653 116.502C88.653 116.854 88.7597 117.11 88.973 117.27C89.1863 117.43 89.4583 117.51 89.789 117.51ZM97.335 118.95C96.6843 118.95 96.2203 118.752 95.943 118.358C95.6763 117.963 95.543 117.424 95.543 116.742V107.462H97.383V116.838C97.383 117.062 97.4257 117.222 97.511 117.318C97.5963 117.403 97.687 117.446 97.783 117.446C97.8257 117.446 97.863 117.446 97.895 117.446C97.9377 117.435 97.9963 117.424 98.071 117.414L98.311 118.79C98.2043 118.832 98.0657 118.87 97.895 118.902C97.735 118.934 97.5483 118.95 97.335 118.95Z" fill="#1B1B1B"/>
<path d="M182.853 118.624C182.149 118.624 181.466 118.49 180.805 118.224C180.154 117.957 179.578 117.578 179.077 117.088L180.165 115.824C180.538 116.176 180.965 116.464 181.445 116.688C181.925 116.901 182.405 117.008 182.885 117.008C183.482 117.008 183.935 116.885 184.245 116.64C184.554 116.394 184.709 116.069 184.709 115.664C184.709 115.226 184.554 114.912 184.245 114.72C183.946 114.528 183.562 114.33 183.093 114.128L181.653 113.504C181.311 113.354 180.975 113.162 180.645 112.928C180.325 112.693 180.058 112.394 179.845 112.032C179.642 111.669 179.541 111.232 179.541 110.72C179.541 110.165 179.69 109.669 179.989 109.232C180.298 108.784 180.714 108.432 181.237 108.176C181.77 107.909 182.378 107.776 183.061 107.776C183.669 107.776 184.255 107.898 184.821 108.144C185.386 108.378 185.871 108.698 186.277 109.104L185.333 110.288C185.002 110.01 184.65 109.792 184.277 109.632C183.914 109.472 183.509 109.392 183.061 109.392C182.57 109.392 182.17 109.504 181.861 109.728C181.562 109.941 181.413 110.24 181.413 110.624C181.413 110.89 181.487 111.114 181.637 111.296C181.797 111.466 182.005 111.616 182.261 111.744C182.517 111.861 182.789 111.978 183.077 112.096L184.501 112.688C185.119 112.954 185.626 113.306 186.021 113.744C186.415 114.17 186.613 114.762 186.613 115.52C186.613 116.085 186.463 116.602 186.165 117.072C185.866 117.541 185.434 117.92 184.869 118.208C184.314 118.485 183.642 118.624 182.853 118.624ZM191.572 118.624C190.921 118.624 190.313 118.464 189.748 118.144C189.182 117.813 188.724 117.344 188.372 116.736C188.02 116.117 187.844 115.376 187.844 114.512C187.844 113.637 188.02 112.896 188.372 112.288C188.724 111.669 189.182 111.2 189.748 110.88C190.313 110.549 190.921 110.384 191.572 110.384C192.233 110.384 192.846 110.549 193.412 110.88C193.977 111.2 194.436 111.669 194.788 112.288C195.14 112.896 195.316 113.637 195.316 114.512C195.316 115.376 195.14 116.117 194.788 116.736C194.436 117.344 193.977 117.813 193.412 118.144C192.846 118.464 192.233 118.624 191.572 118.624ZM191.572 117.12C192.148 117.12 192.601 116.88 192.932 116.4C193.262 115.92 193.428 115.29 193.428 114.512C193.428 113.722 193.262 113.088 192.932 112.608C192.601 112.128 192.148 111.888 191.572 111.888C190.996 111.888 190.542 112.128 190.212 112.608C189.892 113.088 189.732 113.722 189.732 114.512C189.732 115.29 189.892 115.92 190.212 116.4C190.542 116.88 190.996 117.12 191.572 117.12ZM198.929 118.624C198.278 118.624 197.814 118.426 197.537 118.032C197.27 117.637 197.137 117.098 197.137 116.416V107.136H198.977V116.512C198.977 116.736 199.019 116.896 199.105 116.992C199.19 117.077 199.281 117.12 199.377 117.12C199.419 117.12 199.457 117.12 199.489 117.12C199.531 117.109 199.59 117.098 199.665 117.088L199.905 118.464C199.798 118.506 199.659 118.544 199.489 118.576C199.329 118.608 199.142 118.624 198.929 118.624ZM203.385 118.624C202.702 118.624 202.142 118.41 201.705 117.984C201.278 117.557 201.065 117.002 201.065 116.32C201.065 115.477 201.433 114.826 202.169 114.368C202.905 113.898 204.078 113.578 205.689 113.408C205.678 112.992 205.566 112.634 205.353 112.336C205.15 112.026 204.782 111.872 204.249 111.872C203.865 111.872 203.486 111.946 203.113 112.096C202.75 112.245 202.393 112.426 202.041 112.64L201.368 111.408C201.806 111.13 202.297 110.89 202.841 110.688C203.395 110.485 203.982 110.384 204.601 110.384C205.582 110.384 206.313 110.677 206.793 111.264C207.283 111.84 207.529 112.677 207.529 113.776V118.432H206.009L205.881 117.568H205.817C205.465 117.866 205.086 118.117 204.681 118.32C204.286 118.522 203.854 118.624 203.385 118.624ZM203.977 117.184C204.297 117.184 204.585 117.109 204.841 116.96C205.107 116.8 205.39 116.586 205.689 116.32V114.56C204.622 114.698 203.881 114.906 203.465 115.184C203.049 115.45 202.841 115.781 202.841 116.176C202.841 116.528 202.947 116.784 203.161 116.944C203.374 117.104 203.646 117.184 203.977 117.184ZM209.731 118.432V110.576H211.251L211.379 111.968H211.443C211.72 111.456 212.056 111.066 212.451 110.8C212.845 110.522 213.251 110.384 213.667 110.384C214.04 110.384 214.339 110.437 214.563 110.544L214.243 112.144C214.104 112.101 213.976 112.069 213.859 112.048C213.741 112.026 213.597 112.016 213.427 112.016C213.117 112.016 212.792 112.138 212.451 112.384C212.109 112.618 211.816 113.034 211.571 113.632V118.432H209.731Z" fill="#1B1B1B"/>
<path d="M328.118 118.624C327.18 118.624 326.337 118.416 325.59 118C324.844 117.584 324.257 116.976 323.83 116.176C323.404 115.365 323.19 114.384 323.19 113.232C323.19 112.09 323.409 111.114 323.846 110.304C324.284 109.482 324.876 108.858 325.622 108.432C326.369 107.994 327.206 107.776 328.134 107.776C328.881 107.776 329.51 107.914 330.022 108.192C330.545 108.458 330.972 108.762 331.302 109.104L330.31 110.304C330.044 110.048 329.745 109.834 329.414 109.664C329.094 109.482 328.689 109.392 328.198 109.392C327.27 109.392 326.518 109.733 325.942 110.416C325.377 111.088 325.094 112.01 325.094 113.184C325.094 114.378 325.366 115.317 325.91 116C326.454 116.672 327.249 117.008 328.294 117.008C328.593 117.008 328.876 116.97 329.142 116.896C329.409 116.81 329.628 116.693 329.798 116.544V114.288H327.814V112.768H331.462V117.376C331.11 117.728 330.641 118.026 330.054 118.272C329.478 118.506 328.833 118.624 328.118 118.624ZM335.525 118.624C334.842 118.624 334.282 118.41 333.845 117.984C333.418 117.557 333.205 117.002 333.205 116.32C333.205 115.477 333.573 114.826 334.309 114.368C335.045 113.898 336.218 113.578 337.829 113.408C337.818 112.992 337.706 112.634 337.493 112.336C337.29 112.026 336.922 111.872 336.389 111.872C336.005 111.872 335.626 111.946 335.253 112.096C334.89 112.245 334.533 112.426 334.181 112.64L333.509 111.408C333.946 111.13 334.437 110.89 334.981 110.688C335.536 110.485 336.122 110.384 336.741 110.384C337.722 110.384 338.453 110.677 338.933 111.264C339.424 111.84 339.669 112.677 339.669 113.776V118.432H338.149L338.021 117.568H337.957C337.605 117.866 337.226 118.117 336.821 118.32C336.426 118.522 335.994 118.624 335.525 118.624ZM336.117 117.184C336.437 117.184 336.725 117.109 336.981 116.96C337.248 116.8 337.53 116.586 337.829 116.32V114.56C336.762 114.698 336.021 114.906 335.605 115.184C335.189 115.45 334.981 115.781 334.981 116.176C334.981 116.528 335.088 116.784 335.301 116.944C335.514 117.104 335.786 117.184 336.117 117.184ZM344.063 118.624C343.53 118.624 342.996 118.522 342.463 118.32C341.93 118.106 341.471 117.845 341.087 117.536L341.951 116.352C342.303 116.618 342.655 116.832 343.007 116.992C343.359 117.152 343.732 117.232 344.127 117.232C344.554 117.232 344.868 117.141 345.071 116.96C345.274 116.778 345.375 116.554 345.375 116.288C345.375 116.064 345.29 115.882 345.119 115.744C344.959 115.594 344.751 115.466 344.495 115.36C344.239 115.242 343.972 115.13 343.695 115.024C343.354 114.896 343.012 114.741 342.671 114.56C342.34 114.368 342.068 114.128 341.855 113.84C341.642 113.541 341.535 113.173 341.535 112.736C341.535 112.042 341.791 111.477 342.303 111.04C342.815 110.602 343.508 110.384 344.383 110.384C344.938 110.384 345.434 110.48 345.871 110.672C346.308 110.864 346.687 111.082 347.007 111.328L346.159 112.448C345.882 112.245 345.599 112.085 345.311 111.968C345.034 111.84 344.74 111.776 344.431 111.776C344.036 111.776 343.743 111.861 343.551 112.032C343.359 112.192 343.263 112.394 343.263 112.64C343.263 112.949 343.423 113.184 343.743 113.344C344.063 113.504 344.436 113.658 344.863 113.808C345.226 113.936 345.578 114.096 345.919 114.288C346.26 114.469 346.543 114.709 346.767 115.008C347.002 115.306 347.119 115.701 347.119 116.192C347.119 116.864 346.858 117.44 346.335 117.92C345.812 118.389 345.055 118.624 344.063 118.624Z" fill="#1B1B1B"/>
<path d="M473.736 118.624C472.829 118.624 472.029 118.405 471.336 117.968C470.642 117.52 470.098 116.89 469.704 116.08C469.32 115.258 469.128 114.282 469.128 113.152C469.128 112.021 469.32 111.056 469.704 110.256C470.098 109.456 470.642 108.842 471.336 108.416C472.029 107.989 472.829 107.776 473.736 107.776C474.653 107.776 475.458 107.989 476.152 108.416C476.845 108.842 477.384 109.456 477.768 110.256C478.162 111.056 478.36 112.021 478.36 113.152C478.36 114.282 478.162 115.258 477.768 116.08C477.384 116.89 476.845 117.52 476.152 117.968C475.458 118.405 474.653 118.624 473.736 118.624ZM473.736 117.008C474.557 117.008 475.213 116.661 475.704 115.968C476.194 115.264 476.44 114.325 476.44 113.152C476.44 111.978 476.194 111.061 475.704 110.4C475.213 109.728 474.557 109.392 473.736 109.392C472.914 109.392 472.258 109.728 471.768 110.4C471.277 111.061 471.032 111.978 471.032 113.152C471.032 114.325 471.277 115.264 471.768 115.968C472.258 116.661 472.914 117.008 473.736 117.008ZM480.293 118.432V110.576H482.133V118.432H480.293ZM481.221 109.2C480.89 109.2 480.624 109.104 480.421 108.912C480.218 108.72 480.117 108.464 480.117 108.144C480.117 107.834 480.218 107.584 480.421 107.392C480.624 107.2 480.89 107.104 481.221 107.104C481.552 107.104 481.818 107.2 482.021 107.392C482.224 107.584 482.325 107.834 482.325 108.144C482.325 108.464 482.224 108.72 482.021 108.912C481.818 109.104 481.552 109.2 481.221 109.2ZM486.273 118.624C485.622 118.624 485.158 118.426 484.881 118.032C484.614 117.637 484.481 117.098 484.481 116.416V107.136H486.321V116.512C486.321 116.736 486.363 116.896 486.449 116.992C486.534 117.077 486.625 117.12 486.721 117.12C486.763 117.12 486.801 117.12 486.833 117.12C486.875 117.109 486.934 117.098 487.009 117.088L487.249 118.464C487.142 118.506 487.003 118.544 486.833 118.576C486.673 118.608 486.486 118.624 486.273 118.624Z" fill="#1B1B1B"/>
<path d="M607.384 118.432L605.304 107.968H607.208L608.12 113.248C608.205 113.802 608.29 114.362 608.376 114.928C608.472 115.482 608.557 116.037 608.632 116.592H608.696C608.813 116.037 608.925 115.482 609.032 114.928C609.149 114.362 609.266 113.802 609.384 113.248L610.664 107.968H612.28L613.56 113.248C613.677 113.792 613.794 114.346 613.912 114.912C614.029 115.466 614.146 116.026 614.264 116.592H614.328C614.413 116.026 614.498 115.466 614.584 114.912C614.669 114.357 614.749 113.802 614.824 113.248L615.736 107.968H617.512L615.512 118.432H613.208L611.912 112.928C611.826 112.522 611.741 112.117 611.656 111.712C611.581 111.306 611.512 110.906 611.448 110.512H611.384C611.309 110.906 611.229 111.306 611.144 111.712C611.069 112.117 610.989 112.522 610.904 112.928L609.64 118.432H607.384ZM618.981 118.432V110.576H620.821V118.432H618.981ZM619.909 109.2C619.578 109.2 619.311 109.104 619.109 108.912C618.906 108.72 618.805 108.464 618.805 108.144C618.805 107.834 618.906 107.584 619.109 107.392C619.311 107.2 619.578 107.104 619.909 107.104C620.239 107.104 620.506 107.2 620.709 107.392C620.911 107.584 621.013 107.834 621.013 108.144C621.013 108.464 620.911 108.72 620.709 108.912C620.506 109.104 620.239 109.2 619.909 109.2ZM623.168 118.432V110.576H624.688L624.816 111.632H624.88C625.232 111.29 625.616 110.997 626.032 110.752C626.448 110.506 626.923 110.384 627.456 110.384C628.299 110.384 628.912 110.656 629.296 111.2C629.68 111.744 629.872 112.512 629.872 113.504V118.432H628.032V113.744C628.032 113.093 627.936 112.634 627.744 112.368C627.552 112.101 627.237 111.968 626.8 111.968C626.459 111.968 626.155 112.053 625.888 112.224C625.632 112.384 625.339 112.624 625.008 112.944V118.432H623.168ZM634.873 118.624C633.892 118.624 633.108 118.261 632.521 117.536C631.934 116.81 631.641 115.802 631.641 114.512C631.641 113.658 631.796 112.922 632.105 112.304C632.425 111.685 632.841 111.21 633.353 110.88C633.865 110.549 634.404 110.384 634.969 110.384C635.417 110.384 635.796 110.464 636.105 110.624C636.425 110.773 636.734 110.981 637.033 111.248L636.969 109.984V107.136H638.809V118.432H637.289L637.161 117.584H637.097C636.809 117.872 636.473 118.117 636.089 118.32C635.705 118.522 635.3 118.624 634.873 118.624ZM635.321 117.104C635.908 117.104 636.457 116.81 636.969 116.224V112.56C636.702 112.314 636.436 112.144 636.169 112.048C635.902 111.952 635.636 111.904 635.369 111.904C634.868 111.904 634.436 112.133 634.073 112.592C633.721 113.04 633.545 113.674 633.545 114.496C633.545 115.338 633.7 115.984 634.009 116.432C634.318 116.88 634.756 117.104 635.321 117.104Z" fill="#1B1B1B"/>
<path d="M751.384 118.624C750.509 118.624 749.715 118.416 749 118C748.285 117.584 747.715 116.976 747.288 116.176C746.872 115.365 746.664 114.384 746.664 113.232C746.664 112.09 746.877 111.114 747.304 110.304C747.741 109.482 748.323 108.858 749.048 108.432C749.773 107.994 750.573 107.776 751.448 107.776C752.109 107.776 752.696 107.909 753.208 108.176C753.72 108.442 754.141 108.752 754.472 109.104L753.48 110.304C753.213 110.026 752.915 109.808 752.584 109.648C752.264 109.477 751.901 109.392 751.496 109.392C750.931 109.392 750.424 109.546 749.976 109.856C749.539 110.154 749.192 110.586 748.936 111.152C748.691 111.717 748.568 112.394 748.568 113.184C748.568 114.378 748.829 115.317 749.352 116C749.875 116.672 750.573 117.008 751.448 117.008C751.917 117.008 752.333 116.912 752.696 116.72C753.059 116.517 753.389 116.256 753.688 115.936L754.68 117.104C754.253 117.594 753.763 117.973 753.208 118.24C752.664 118.496 752.056 118.624 751.384 118.624ZM759.483 118.624C758.832 118.624 758.224 118.464 757.659 118.144C757.093 117.813 756.635 117.344 756.283 116.736C755.931 116.117 755.755 115.376 755.755 114.512C755.755 113.637 755.931 112.896 756.283 112.288C756.635 111.669 757.093 111.2 757.659 110.88C758.224 110.549 758.832 110.384 759.483 110.384C760.144 110.384 760.757 110.549 761.323 110.88C761.888 111.2 762.347 111.669 762.699 112.288C763.051 112.896 763.227 113.637 763.227 114.512C763.227 115.376 763.051 116.117 762.699 116.736C762.347 117.344 761.888 117.813 761.323 118.144C760.757 118.464 760.144 118.624 759.483 118.624ZM759.483 117.12C760.059 117.12 760.512 116.88 760.843 116.4C761.173 115.92 761.339 115.29 761.339 114.512C761.339 113.722 761.173 113.088 760.843 112.608C760.512 112.128 760.059 111.888 759.483 111.888C758.907 111.888 758.453 112.128 758.123 112.608C757.803 113.088 757.643 113.722 757.643 114.512C757.643 115.29 757.803 115.92 758.123 116.4C758.453 116.88 758.907 117.12 759.483 117.12ZM766.764 118.624C766.082 118.624 765.522 118.41 765.084 117.984C764.658 117.557 764.444 117.002 764.444 116.32C764.444 115.477 764.812 114.826 765.548 114.368C766.284 113.898 767.458 113.578 769.068 113.408C769.058 112.992 768.946 112.634 768.732 112.336C768.53 112.026 768.162 111.872 767.628 111.872C767.244 111.872 766.866 111.946 766.492 112.096C766.13 112.245 765.772 112.426 765.42 112.64L764.748 111.408C765.186 111.13 765.676 110.89 766.22 110.688C766.775 110.485 767.362 110.384 767.98 110.384C768.962 110.384 769.692 110.677 770.172 111.264C770.663 111.84 770.908 112.677 770.908 113.776V118.432H769.388L769.26 117.568H769.196C768.844 117.866 768.466 118.117 768.06 118.32C767.666 118.522 767.234 118.624 766.764 118.624ZM767.356 117.184C767.676 117.184 767.964 117.109 768.22 116.96C768.487 116.8 768.77 116.586 769.068 116.32V114.56C768.002 114.698 767.26 114.906 766.844 115.184C766.428 115.45 766.22 115.781 766.22 116.176C766.22 116.528 766.327 116.784 766.54 116.944C766.754 117.104 767.026 117.184 767.356 117.184ZM774.902 118.624C774.252 118.624 773.788 118.426 773.51 118.032C773.244 117.637 773.11 117.098 773.11 116.416V107.136H774.95V116.512C774.95 116.736 774.993 116.896 775.078 116.992C775.164 117.077 775.254 117.12 775.35 117.12C775.393 117.12 775.43 117.12 775.462 117.12C775.505 117.109 775.564 117.098 775.638 117.088L775.878 118.464C775.772 118.506 775.633 118.544 775.462 118.576C775.302 118.608 775.116 118.624 774.902 118.624Z" fill="#1B1B1B"/>
<path d="M199.207 154.48H193.05C192.869 154.48 192.723 154.627 192.723 154.808V222.486C192.723 222.667 192.869 222.813 193.05 222.813H199.207C199.388 222.813 199.534 222.667 199.534 222.486V154.808C199.534 154.627 199.388 154.48 199.207 154.48Z" fill="#1B1B1B"/>
<path d="M217.955 161.848C211.569 163.911 203.038 160.014 202.989 161.389C202.989 161.389 204.627 151.714 211.307 148.931C215.99 146.983 224.587 150.715 226.273 149.389C226.273 149.389 224.833 159.621 217.955 161.848Z" fill="#1B1B1B"/>
<path d="M217.955 178.499C211.569 180.562 203.038 176.666 202.989 178.041C202.989 178.041 204.627 168.365 211.307 165.582C215.99 163.634 224.587 167.367 226.273 166.041C226.273 166.041 224.833 176.273 217.955 178.499Z" fill="#1B1B1B"/>
<path d="M217.955 195.147C211.569 197.209 203.038 193.313 202.989 194.688C202.989 194.688 204.627 185.013 211.307 182.23C215.99 180.282 224.587 184.014 226.273 182.688C226.273 182.688 224.833 192.92 217.955 195.147Z" fill="#1B1B1B"/>
<path d="M174.318 161.848C180.704 163.911 189.235 160.014 189.284 161.389C189.284 161.389 187.647 151.714 180.966 148.931C176.283 146.983 167.687 150.715 166 149.389C166 149.389 167.441 159.621 174.318 161.848Z" fill="#1B1B1B"/>
<path d="M174.318 178.499C180.704 180.562 189.235 176.666 189.284 178.041C189.284 178.041 187.647 168.365 180.966 165.582C176.283 163.634 167.687 167.367 166 166.041C166 166.041 167.441 176.273 174.318 178.499Z" fill="#1B1B1B"/>
<path d="M174.318 195.147C180.704 197.209 189.235 193.313 189.284 194.688C189.284 194.688 187.647 185.013 180.966 182.23C176.283 180.282 167.687 184.014 166 182.688C166 182.688 167.441 192.92 174.318 195.147Z" fill="#1B1B1B"/>
<path d="M335.099 222.968C357.798 222.968 376.199 204.571 376.199 181.877C376.199 159.182 357.798 140.785 335.099 140.785C312.401 140.785 294 159.182 294 181.877C294 204.571 312.401 222.968 335.099 222.968Z" fill="#1B1B1B"/>
<path d="M322.638 182.809L299.272 182.76C299.305 179.863 299.174 174.116 303.431 165.456C307.688 156.796 315.237 152.752 316.776 151.737L329.27 171.317C328.926 171.497 325.88 172.97 324.259 175.852C322.638 178.733 322.523 181.287 322.654 182.809H322.638ZM344.236 175.819C345.447 177.849 346.004 179.994 345.906 182.22L369.239 181.254C369.19 175.213 367.503 169.467 364.18 163.934C360.725 158.171 356.222 153.865 350.622 150.968L338.93 171.153C341.157 172.103 342.942 173.658 344.236 175.819ZM352.963 211.164L341.337 191.011C340.977 191.257 338.128 193.418 334.706 193.418C331.284 193.418 329.04 192.256 328.025 191.617L317.251 212.294C319.642 213.456 325.323 216.698 335.295 216.698C344.334 216.698 351.555 212.032 352.963 211.181V211.164ZM339.733 181.876C339.733 185.003 337.195 187.524 334.084 187.524C330.973 187.524 328.435 184.987 328.435 181.876C328.435 178.766 330.973 176.228 334.084 176.228C337.195 176.228 339.733 178.766 339.733 181.876Z" fill="white"/>
<path d="M590.289 183.007C590.289 165.699 604.234 151.588 621.498 151.31L625.483 144.177C624.34 144.069 623.166 144.007 621.993 144.007C600.496 144.007 583 161.5 583 182.992C583 200.902 595.153 216.033 611.646 220.572L613.067 213.408C599.91 209.548 590.289 197.382 590.289 182.992V183.007Z" fill="#1A1A1A"/>
<path d="M632.354 145.427L630.933 152.591C644.091 156.451 653.711 168.617 653.711 183.007C653.711 200.315 639.767 214.426 622.502 214.704L618.518 221.837C619.66 221.945 620.834 222.007 622.008 222.007C643.504 222.007 661 204.514 661 183.022C661 165.112 648.847 149.981 632.354 145.442V145.427Z" fill="#1A1A1A"/>
<path d="M640.832 175.982H623.304L630.068 141.953L603.152 190.032H620.679L613.931 224.061L640.832 175.982Z" fill="#1A1A1A"/>
<path d="M516.76 209.503L484.617 153.858C481.833 149.045 474.907 149.045 472.124 153.858L439.981 209.503C437.197 214.316 440.669 220.324 446.236 220.324H510.505C516.056 220.324 519.527 214.316 516.76 209.503ZM471.993 212.925L476.037 192.608H465.557L481.637 163.893L477.593 184.21H488.072L471.993 212.925Z" fill="#1B1B1B"/>
<path d="M85.4911 213.45C80.7917 213.45 78.3028 211.027 76.4853 209.243C74.8642 207.655 73.9964 206.902 72.0478 206.902C70.0993 206.902 69.2479 207.655 67.6105 209.243C65.7929 211.011 63.304 213.45 58.6046 213.45C53.9052 213.45 51.4163 211.027 49.5988 209.243C47.9777 207.655 47.1099 206.902 45.1613 206.902C43.2128 206.902 42.3614 207.655 40.724 209.243C38.9064 211.011 36.4176 213.45 31.7181 213.45C27.0187 213.45 24.5298 211.027 22.7123 209.243C21.0913 207.655 20.2234 206.902 18.2748 206.902C16.4737 206.902 15 205.429 15 203.628C15 201.827 16.4737 200.354 18.2748 200.354C22.9743 200.354 25.4631 202.776 27.2807 204.561C28.9017 206.149 29.7696 206.902 31.7181 206.902C33.6667 206.902 34.5181 206.149 36.1555 204.561C37.973 202.793 40.4619 200.354 45.1613 200.354C49.8607 200.354 52.3496 202.776 54.1672 204.561C55.7882 206.149 56.6561 206.902 58.6046 206.902C60.5532 206.902 61.4046 206.149 63.042 204.561C64.8595 202.793 67.3484 200.354 72.0478 200.354C76.7472 200.354 79.2361 202.776 81.0537 204.561C82.6747 206.149 83.5426 206.902 85.4911 206.902C87.4396 206.902 88.3075 206.133 89.9286 204.561C91.7461 202.793 94.235 200.354 98.9344 200.354C100.736 200.354 102.209 201.827 102.209 203.628C102.209 205.429 100.736 206.902 98.9344 206.902C96.9859 206.902 96.118 207.655 94.4969 209.243C92.6794 211.011 90.1741 213.45 85.4911 213.45Z" fill="#1B1B1B"/>
<path d="M85.4911 191.709C80.7917 191.709 78.3028 189.286 76.4853 187.502C74.8642 185.914 73.9964 185.161 72.0478 185.161C70.0993 185.161 69.2479 185.914 67.6105 187.502C65.7929 189.27 63.304 191.709 58.6046 191.709C53.9052 191.709 51.4163 189.286 49.5988 187.502C47.9777 185.914 47.1099 185.161 45.1613 185.161C43.2128 185.161 42.3614 185.914 40.724 187.502C38.9064 189.27 36.4176 191.709 31.7181 191.709C27.0187 191.709 24.5298 189.286 22.7123 187.502C21.0913 185.914 20.2234 185.161 18.2748 185.161C16.4737 185.161 15 183.687 15 181.887C15 180.086 16.4737 178.612 18.2748 178.612C22.9743 178.612 25.4631 181.035 27.2807 182.82C28.9017 184.408 29.7696 185.161 31.7181 185.161C33.6667 185.161 34.5181 184.408 36.1555 182.82C37.973 181.052 40.4619 178.612 45.1613 178.612C49.8607 178.612 52.3496 181.035 54.1672 182.82C55.7882 184.408 56.6561 185.161 58.6046 185.161C60.5532 185.161 61.4046 184.408 63.042 182.82C64.8595 181.052 67.3484 178.612 72.0478 178.612C76.7472 178.612 79.2361 181.035 81.0537 182.82C82.6747 184.408 83.5426 185.161 85.4911 185.161C87.4396 185.161 88.3075 184.391 89.9286 182.82C91.7461 181.052 94.235 178.612 98.9344 178.612C100.736 178.612 102.209 180.086 102.209 181.887C102.209 183.687 100.736 185.161 98.9344 185.161C96.9859 185.161 96.118 185.914 94.4969 187.502C92.6794 189.27 90.1741 191.709 85.4911 191.709Z" fill="#1B1B1B"/>
<path d="M85.4911 169.97C80.7917 169.97 78.3028 167.547 76.4853 165.763C74.8642 164.175 73.9964 163.421 72.0478 163.421C70.0993 163.421 69.2479 164.175 67.6105 165.763C65.7929 167.531 63.304 169.97 58.6046 169.97C53.9052 169.97 51.4163 167.547 49.5988 165.763C47.9777 164.175 47.1099 163.421 45.1613 163.421C43.2128 163.421 42.3614 164.175 40.724 165.763C38.9064 167.531 36.4176 169.97 31.7181 169.97C27.0187 169.97 24.5298 167.547 22.7123 165.763C21.0913 164.175 20.2234 163.421 18.2748 163.421C16.4737 163.421 15 161.948 15 160.147C15 158.346 16.4737 156.873 18.2748 156.873C22.9743 156.873 25.4631 159.296 27.2807 161.08C28.9017 162.668 29.7696 163.421 31.7181 163.421C33.6667 163.421 34.5181 162.668 36.1555 161.08C37.973 159.312 40.4619 156.873 45.1613 156.873C49.8607 156.873 52.3496 159.296 54.1672 161.08C55.7882 162.668 56.6561 163.421 58.6046 163.421C60.5532 163.421 61.4046 162.668 63.042 161.08C64.8595 159.312 67.3484 156.873 72.0478 156.873C76.7472 156.873 79.2361 159.296 81.0537 161.08C82.6747 162.668 83.5426 163.421 85.4911 163.421C87.4396 163.421 88.3075 162.652 89.9286 161.08C91.7461 159.312 94.235 156.873 98.9344 156.873C100.736 156.873 102.209 158.346 102.209 160.147C102.209 161.948 100.736 163.421 98.9344 163.421C96.9859 163.421 96.118 164.175 94.4969 165.763C92.6794 167.531 90.1741 169.97 85.4911 169.97Z" fill="#1B1B1B"/>
<path d="M38.7968 259.916V249.452H40.6528V253.66H44.8928V249.452H46.7488V259.916H44.8928V255.276H40.6528V259.916H38.7968ZM49.7741 263.148C49.5608 263.148 49.3741 263.132 49.2141 263.1C49.0541 263.068 48.8995 263.031 48.7501 262.988L49.0861 261.548C49.1608 261.569 49.2461 261.591 49.3421 261.612C49.4488 261.644 49.5501 261.66 49.6461 261.66C50.0621 261.66 50.3928 261.532 50.6381 261.276C50.8941 261.031 51.0861 260.711 51.2141 260.316L51.3581 259.82L48.2701 252.06H50.1421L51.5021 255.916C51.6195 256.257 51.7315 256.62 51.8381 257.004C51.9555 257.377 52.0728 257.751 52.1901 258.124H52.2541C52.3501 257.761 52.4461 257.393 52.5421 257.02C52.6488 256.636 52.7501 256.268 52.8461 255.916L54.0301 252.06H55.8061L52.9581 260.268C52.6275 261.153 52.2275 261.852 51.7581 262.364C51.2888 262.887 50.6275 263.148 49.7741 263.148ZM59.8263 260.108C58.8449 260.108 58.0609 259.745 57.4743 259.02C56.8876 258.295 56.5943 257.287 56.5943 255.996C56.5943 255.143 56.7489 254.407 57.0583 253.788C57.3783 253.169 57.7943 252.695 58.3063 252.364C58.8183 252.033 59.3569 251.868 59.9223 251.868C60.3703 251.868 60.7489 251.948 61.0583 252.108C61.3783 252.257 61.6876 252.465 61.9863 252.732L61.9223 251.468V248.62H63.7623V259.916H62.2423L62.1143 259.068H62.0503C61.7623 259.356 61.4263 259.601 61.0423 259.804C60.6583 260.007 60.2529 260.108 59.8263 260.108ZM60.2743 258.588C60.8609 258.588 61.4103 258.295 61.9223 257.708V254.044C61.6556 253.799 61.3889 253.628 61.1223 253.532C60.8556 253.436 60.5889 253.388 60.3223 253.388C59.8209 253.388 59.3889 253.617 59.0263 254.076C58.6743 254.524 58.4983 255.159 58.4983 255.98C58.4983 256.823 58.6529 257.468 58.9623 257.916C59.2716 258.364 59.7089 258.588 60.2743 258.588ZM66.1055 259.916V252.06H67.6255L67.7535 253.452H67.8175C68.0948 252.94 68.4308 252.551 68.8255 252.284C69.2202 252.007 69.6255 251.868 70.0415 251.868C70.4148 251.868 70.7135 251.921 70.9375 252.028L70.6175 253.628C70.4788 253.585 70.3508 253.553 70.2335 253.532C70.1162 253.511 69.9722 253.5 69.8015 253.5C69.4922 253.5 69.1668 253.623 68.8255 253.868C68.4842 254.103 68.1908 254.519 67.9455 255.116V259.916H66.1055ZM75.134 260.108C74.4833 260.108 73.8753 259.948 73.31 259.628C72.7447 259.297 72.286 258.828 71.934 258.22C71.582 257.601 71.406 256.86 71.406 255.996C71.406 255.121 71.582 254.38 71.934 253.772C72.286 253.153 72.7447 252.684 73.31 252.364C73.8753 252.033 74.4833 251.868 75.134 251.868C75.7953 251.868 76.4087 252.033 76.974 252.364C77.5393 252.684 77.998 253.153 78.35 253.772C78.702 254.38 78.878 255.121 78.878 255.996C78.878 256.86 78.702 257.601 78.35 258.22C77.998 258.828 77.5393 259.297 76.974 259.628C76.4087 259.948 75.7953 260.108 75.134 260.108ZM75.134 258.604C75.71 258.604 76.1633 258.364 76.494 257.884C76.8247 257.404 76.99 256.775 76.99 255.996C76.99 255.207 76.8247 254.572 76.494 254.092C76.1633 253.612 75.71 253.372 75.134 253.372C74.558 253.372 74.1047 253.612 73.774 254.092C73.454 254.572 73.294 255.207 73.294 255.996C73.294 256.775 73.454 257.404 73.774 257.884C74.1047 258.364 74.558 258.604 75.134 258.604Z" fill="#1B1B1B"/>
<path d="M168.812 259.916V249.452H172.156C172.882 249.452 173.522 249.532 174.076 249.692C174.642 249.852 175.084 250.124 175.404 250.508C175.735 250.881 175.9 251.388 175.9 252.028C175.9 252.519 175.772 252.983 175.516 253.42C175.26 253.847 174.903 254.14 174.444 254.3V254.364C175.02 254.492 175.495 254.764 175.868 255.18C176.252 255.585 176.444 256.14 176.444 256.844C176.444 257.537 176.268 258.113 175.916 258.572C175.575 259.031 175.1 259.372 174.492 259.596C173.884 259.809 173.196 259.916 172.428 259.916H168.812ZM170.668 253.772H171.996C172.722 253.772 173.25 253.639 173.58 253.372C173.911 253.105 174.076 252.748 174.076 252.3C174.076 251.788 173.906 251.425 173.564 251.212C173.223 250.999 172.711 250.892 172.028 250.892H170.668V253.772ZM170.668 258.476H172.236C173.004 258.476 173.596 258.337 174.012 258.06C174.428 257.772 174.636 257.335 174.636 256.748C174.636 256.193 174.434 255.793 174.028 255.548C173.623 255.292 173.026 255.164 172.236 255.164H170.668V258.476ZM178.199 259.916V252.06H180.039V259.916H178.199ZM179.127 250.684C178.797 250.684 178.53 250.588 178.327 250.396C178.125 250.204 178.023 249.948 178.023 249.628C178.023 249.319 178.125 249.068 178.327 248.876C178.53 248.684 178.797 248.588 179.127 248.588C179.458 248.588 179.725 248.684 179.927 248.876C180.13 249.068 180.231 249.319 180.231 249.628C180.231 249.948 180.13 250.204 179.927 250.396C179.725 250.588 179.458 250.684 179.127 250.684ZM185.603 260.108C184.952 260.108 184.344 259.948 183.779 259.628C183.213 259.297 182.755 258.828 182.403 258.22C182.051 257.601 181.875 256.86 181.875 255.996C181.875 255.121 182.051 254.38 182.403 253.772C182.755 253.153 183.213 252.684 183.779 252.364C184.344 252.033 184.952 251.868 185.603 251.868C186.264 251.868 186.877 252.033 187.443 252.364C188.008 252.684 188.467 253.153 188.819 253.772C189.171 254.38 189.347 255.121 189.347 255.996C189.347 256.86 189.171 257.601 188.819 258.22C188.467 258.828 188.008 259.297 187.443 259.628C186.877 259.948 186.264 260.108 185.603 260.108ZM185.603 258.604C186.179 258.604 186.632 258.364 186.963 257.884C187.293 257.404 187.459 256.775 187.459 255.996C187.459 255.207 187.293 254.572 186.963 254.092C186.632 253.612 186.179 253.372 185.603 253.372C185.027 253.372 184.573 253.612 184.243 254.092C183.923 254.572 183.763 255.207 183.763 255.996C183.763 256.775 183.923 257.404 184.243 257.884C184.573 258.364 185.027 258.604 185.603 258.604ZM191.168 259.916V252.06H192.688L192.816 253.132H192.88C193.211 252.78 193.568 252.481 193.952 252.236C194.347 251.991 194.789 251.868 195.28 251.868C195.856 251.868 196.315 251.996 196.656 252.252C197.008 252.497 197.275 252.839 197.456 253.276C197.829 252.871 198.219 252.535 198.624 252.268C199.04 252.001 199.493 251.868 199.984 251.868C200.816 251.868 201.429 252.14 201.824 252.684C202.219 253.228 202.416 253.996 202.416 254.988V259.916H200.56V255.228C200.56 254.577 200.459 254.119 200.256 253.852C200.064 253.585 199.765 253.452 199.36 253.452C198.869 253.452 198.32 253.777 197.712 254.428V259.916H195.872V255.228C195.872 254.577 195.771 254.119 195.568 253.852C195.376 253.585 195.072 253.452 194.656 253.452C194.165 253.452 193.616 253.777 193.008 254.428V259.916H191.168ZM206.556 260.108C205.874 260.108 205.314 259.895 204.876 259.468C204.45 259.041 204.236 258.487 204.236 257.804C204.236 256.961 204.604 256.311 205.34 255.852C206.076 255.383 207.25 255.063 208.86 254.892C208.85 254.476 208.738 254.119 208.524 253.82C208.322 253.511 207.954 253.356 207.42 253.356C207.036 253.356 206.658 253.431 206.284 253.58C205.922 253.729 205.564 253.911 205.212 254.124L204.54 252.892C204.978 252.615 205.468 252.375 206.012 252.172C206.567 251.969 207.154 251.868 207.772 251.868C208.754 251.868 209.484 252.161 209.964 252.748C210.455 253.324 210.7 254.161 210.7 255.26V259.916H209.18L209.052 259.052H208.988C208.636 259.351 208.258 259.601 207.852 259.804C207.458 260.007 207.026 260.108 206.556 260.108ZM207.148 258.668C207.468 258.668 207.756 258.593 208.012 258.444C208.279 258.284 208.562 258.071 208.86 257.804V256.044C207.794 256.183 207.052 256.391 206.636 256.668C206.22 256.935 206.012 257.265 206.012 257.66C206.012 258.012 206.119 258.268 206.332 258.428C206.546 258.588 206.818 258.668 207.148 258.668ZM215.094 260.108C214.561 260.108 214.028 260.007 213.494 259.804C212.961 259.591 212.502 259.329 212.118 259.02L212.982 257.836C213.334 258.103 213.686 258.316 214.038 258.476C214.39 258.636 214.764 258.716 215.158 258.716C215.585 258.716 215.9 258.625 216.102 258.444C216.305 258.263 216.406 258.039 216.406 257.772C216.406 257.548 216.321 257.367 216.15 257.228C215.99 257.079 215.782 256.951 215.526 256.844C215.27 256.727 215.004 256.615 214.726 256.508C214.385 256.38 214.044 256.225 213.702 256.044C213.372 255.852 213.1 255.612 212.886 255.324C212.673 255.025 212.566 254.657 212.566 254.22C212.566 253.527 212.822 252.961 213.334 252.524C213.846 252.087 214.54 251.868 215.414 251.868C215.969 251.868 216.465 251.964 216.902 252.156C217.34 252.348 217.718 252.567 218.038 252.812L217.19 253.932C216.913 253.729 216.63 253.569 216.342 253.452C216.065 253.324 215.772 253.26 215.462 253.26C215.068 253.26 214.774 253.345 214.582 253.516C214.39 253.676 214.294 253.879 214.294 254.124C214.294 254.433 214.454 254.668 214.774 254.828C215.094 254.988 215.468 255.143 215.894 255.292C216.257 255.42 216.609 255.58 216.95 255.772C217.292 255.953 217.574 256.193 217.798 256.492C218.033 256.791 218.15 257.185 218.15 257.676C218.15 258.348 217.889 258.924 217.366 259.404C216.844 259.873 216.086 260.108 215.094 260.108ZM221.985 260.108C221.452 260.108 220.918 260.007 220.385 259.804C219.852 259.591 219.393 259.329 219.009 259.02L219.873 257.836C220.225 258.103 220.577 258.316 220.929 258.476C221.281 258.636 221.654 258.716 222.049 258.716C222.476 258.716 222.79 258.625 222.993 258.444C223.196 258.263 223.297 258.039 223.297 257.772C223.297 257.548 223.212 257.367 223.041 257.228C222.881 257.079 222.673 256.951 222.417 256.844C222.161 256.727 221.894 256.615 221.617 256.508C221.276 256.38 220.934 256.225 220.593 256.044C220.262 255.852 219.99 255.612 219.777 255.324C219.564 255.025 219.457 254.657 219.457 254.22C219.457 253.527 219.713 252.961 220.225 252.524C220.737 252.087 221.43 251.868 222.305 251.868C222.86 251.868 223.356 251.964 223.793 252.156C224.23 252.348 224.609 252.567 224.929 252.812L224.081 253.932C223.804 253.729 223.521 253.569 223.233 253.452C222.956 253.324 222.662 253.26 222.353 253.26C221.958 253.26 221.665 253.345 221.473 253.516C221.281 253.676 221.185 253.879 221.185 254.124C221.185 254.433 221.345 254.668 221.665 254.828C221.985 254.988 222.358 255.143 222.785 255.292C223.148 255.42 223.5 255.58 223.841 255.772C224.182 255.953 224.465 256.193 224.689 256.492C224.924 256.791 225.041 257.185 225.041 257.676C225.041 258.348 224.78 258.924 224.257 259.404C223.734 259.873 222.977 260.108 221.985 260.108Z" fill="#1B1B1B"/>
<path d="M309.695 259.916V249.452H311.599L314.863 255.34L315.935 257.564H315.999C315.957 257.031 315.903 256.449 315.839 255.82C315.786 255.191 315.759 254.583 315.759 253.996V249.452H317.535V259.916H315.631L312.367 254.028L311.295 251.804H311.231C311.274 252.359 311.322 252.94 311.375 253.548C311.439 254.156 311.471 254.753 311.471 255.34V259.916H309.695ZM322.371 260.108C321.529 260.108 320.915 259.836 320.531 259.292C320.147 258.748 319.955 257.98 319.955 256.988V252.06H321.795V256.748C321.795 257.399 321.891 257.857 322.083 258.124C322.275 258.391 322.585 258.524 323.011 258.524C323.353 258.524 323.651 258.439 323.907 258.268C324.174 258.097 324.457 257.82 324.755 257.436V252.06H326.595V259.916H325.091L324.947 258.764H324.899C324.558 259.169 324.185 259.495 323.779 259.74C323.374 259.985 322.905 260.108 322.371 260.108ZM332.206 260.108C331.491 260.108 330.846 259.948 330.27 259.628C329.704 259.297 329.251 258.828 328.91 258.22C328.579 257.601 328.414 256.86 328.414 255.996C328.414 255.121 328.595 254.38 328.958 253.772C329.32 253.153 329.8 252.684 330.398 252.364C331.006 252.033 331.656 251.868 332.35 251.868C332.851 251.868 333.288 251.953 333.662 252.124C334.035 252.295 334.366 252.503 334.654 252.748L333.758 253.948C333.555 253.767 333.347 253.628 333.134 253.532C332.92 253.425 332.691 253.372 332.446 253.372C331.816 253.372 331.299 253.612 330.894 254.092C330.499 254.572 330.302 255.207 330.302 255.996C330.302 256.775 330.494 257.404 330.878 257.884C331.272 258.364 331.779 258.604 332.398 258.604C332.707 258.604 332.995 258.54 333.262 258.412C333.539 258.273 333.79 258.113 334.014 257.932L334.766 259.148C334.403 259.468 333.998 259.708 333.55 259.868C333.102 260.028 332.654 260.108 332.206 260.108ZM338.108 260.108C337.458 260.108 336.994 259.911 336.716 259.516C336.45 259.121 336.316 258.583 336.316 257.9V248.62H338.156V257.996C338.156 258.22 338.199 258.38 338.284 258.476C338.37 258.561 338.46 258.604 338.556 258.604C338.599 258.604 338.636 258.604 338.668 258.604C338.711 258.593 338.77 258.583 338.844 258.572L339.084 259.948C338.978 259.991 338.839 260.028 338.668 260.06C338.508 260.092 338.322 260.108 338.108 260.108ZM344.02 260.108C343.295 260.108 342.639 259.948 342.052 259.628C341.466 259.297 341.002 258.828 340.66 258.22C340.319 257.601 340.148 256.86 340.148 255.996C340.148 255.143 340.319 254.407 340.66 253.788C341.012 253.169 341.466 252.695 342.02 252.364C342.575 252.033 343.156 251.868 343.764 251.868C344.479 251.868 345.076 252.028 345.556 252.348C346.036 252.657 346.399 253.095 346.644 253.66C346.89 254.215 347.012 254.86 347.012 255.596C347.012 255.98 346.986 256.279 346.932 256.492H341.94C342.026 257.185 342.276 257.724 342.692 258.108C343.108 258.492 343.631 258.684 344.26 258.684C344.602 258.684 344.916 258.636 345.204 258.54C345.503 258.433 345.796 258.289 346.084 258.108L346.708 259.26C346.335 259.505 345.919 259.708 345.46 259.868C345.002 260.028 344.522 260.108 344.02 260.108ZM341.924 255.244H345.412C345.412 254.636 345.279 254.161 345.012 253.82C344.746 253.468 344.346 253.292 343.812 253.292C343.354 253.292 342.943 253.463 342.58 253.804C342.228 254.135 342.01 254.615 341.924 255.244ZM350.486 260.108C349.803 260.108 349.243 259.895 348.806 259.468C348.379 259.041 348.166 258.487 348.166 257.804C348.166 256.961 348.534 256.311 349.27 255.852C350.006 255.383 351.179 255.063 352.79 254.892C352.779 254.476 352.667 254.119 352.454 253.82C352.251 253.511 351.883 253.356 351.35 253.356C350.966 253.356 350.587 253.431 350.214 253.58C349.851 253.729 349.494 253.911 349.142 254.124L348.47 252.892C348.907 252.615 349.398 252.375 349.942 252.172C350.497 251.969 351.083 251.868 351.702 251.868C352.683 251.868 353.414 252.161 353.894 252.748C354.385 253.324 354.63 254.161 354.63 255.26V259.916H353.11L352.982 259.052H352.918C352.566 259.351 352.187 259.601 351.782 259.804C351.387 260.007 350.955 260.108 350.486 260.108ZM351.078 258.668C351.398 258.668 351.686 258.593 351.942 258.444C352.209 258.284 352.491 258.071 352.79 257.804V256.044C351.723 256.183 350.982 256.391 350.566 256.668C350.15 256.935 349.942 257.265 349.942 257.66C349.942 258.012 350.049 258.268 350.262 258.428C350.475 258.588 350.747 258.668 351.078 258.668ZM356.832 259.916V252.06H358.352L358.48 253.452H358.544C358.821 252.94 359.157 252.551 359.552 252.284C359.947 252.007 360.352 251.868 360.768 251.868C361.141 251.868 361.44 251.921 361.664 252.028L361.344 253.628C361.205 253.585 361.077 253.553 360.96 253.532C360.843 253.511 360.699 253.5 360.528 253.5C360.219 253.5 359.893 253.623 359.552 253.868C359.211 254.103 358.917 254.519 358.672 255.116V259.916H356.832Z" fill="#1B1B1B"/>
<path d="M428.83 260.108C427.923 260.108 427.123 259.889 426.43 259.452C425.736 259.004 425.192 258.375 424.798 257.564C424.414 256.743 424.222 255.767 424.222 254.636C424.222 253.505 424.414 252.54 424.798 251.74C425.192 250.94 425.736 250.327 426.43 249.9C427.123 249.473 427.923 249.26 428.83 249.26C429.747 249.26 430.552 249.473 431.246 249.9C431.939 250.327 432.478 250.94 432.862 251.74C433.256 252.54 433.454 253.505 433.454 254.636C433.454 255.767 433.256 256.743 432.862 257.564C432.478 258.375 431.939 259.004 431.246 259.452C430.552 259.889 429.747 260.108 428.83 260.108ZM428.83 258.492C429.651 258.492 430.307 258.145 430.798 257.452C431.288 256.748 431.534 255.809 431.534 254.636C431.534 253.463 431.288 252.545 430.798 251.884C430.307 251.212 429.651 250.876 428.83 250.876C428.008 250.876 427.352 251.212 426.862 251.884C426.371 252.545 426.126 253.463 426.126 254.636C426.126 255.809 426.371 256.748 426.862 257.452C427.352 258.145 428.008 258.492 428.83 258.492ZM438.155 260.108C437.248 260.108 436.603 259.847 436.219 259.324C435.845 258.791 435.659 258.103 435.659 257.26V253.516H434.539V252.14L435.755 252.06L435.979 249.916H437.515V252.06H439.515V253.516H437.515V257.26C437.515 258.177 437.883 258.636 438.619 258.636C438.757 258.636 438.901 258.62 439.051 258.588C439.2 258.545 439.328 258.503 439.435 258.46L439.755 259.82C439.541 259.895 439.296 259.959 439.019 260.012C438.752 260.076 438.464 260.108 438.155 260.108ZM441.168 259.916V248.62H443.008V251.532L442.944 253.052C443.275 252.743 443.643 252.471 444.048 252.236C444.453 251.991 444.923 251.868 445.456 251.868C446.299 251.868 446.912 252.14 447.296 252.684C447.68 253.228 447.872 253.996 447.872 254.988V259.916H446.032V255.228C446.032 254.577 445.936 254.119 445.744 253.852C445.552 253.585 445.237 253.452 444.8 253.452C444.459 253.452 444.155 253.537 443.888 253.708C443.632 253.868 443.339 254.108 443.008 254.428V259.916H441.168ZM453.45 260.108C452.725 260.108 452.069 259.948 451.482 259.628C450.895 259.297 450.431 258.828 450.09 258.22C449.749 257.601 449.578 256.86 449.578 255.996C449.578 255.143 449.749 254.407 450.09 253.788C450.442 253.169 450.895 252.695 451.45 252.364C452.005 252.033 452.586 251.868 453.194 251.868C453.909 251.868 454.506 252.028 454.986 252.348C455.466 252.657 455.829 253.095 456.074 253.66C456.319 254.215 456.442 254.86 456.442 255.596C456.442 255.98 456.415 256.279 456.362 256.492H451.37C451.455 257.185 451.706 257.724 452.122 258.108C452.538 258.492 453.061 258.684 453.69 258.684C454.031 258.684 454.346 258.636 454.634 258.54C454.933 258.433 455.226 258.289 455.514 258.108L456.138 259.26C455.765 259.505 455.349 259.708 454.89 259.868C454.431 260.028 453.951 260.108 453.45 260.108ZM451.354 255.244H454.842C454.842 254.636 454.709 254.161 454.442 253.82C454.175 253.468 453.775 253.292 453.242 253.292C452.783 253.292 452.373 253.463 452.01 253.804C451.658 254.135 451.439 254.615 451.354 255.244ZM458.199 259.916V252.06H459.719L459.847 253.452H459.911C460.189 252.94 460.525 252.551 460.919 252.284C461.314 252.007 461.719 251.868 462.135 251.868C462.509 251.868 462.807 251.921 463.031 252.028L462.711 253.628C462.573 253.585 462.445 253.553 462.327 253.532C462.21 253.511 462.066 253.5 461.895 253.5C461.586 253.5 461.261 253.623 460.919 253.868C460.578 254.103 460.285 254.519 460.039 255.116V259.916H458.199ZM471.451 260.108C470.651 260.108 469.952 259.948 469.355 259.628C468.758 259.308 468.294 258.796 467.963 258.092C467.643 257.388 467.483 256.465 467.483 255.324V249.452H469.339V255.468C469.339 256.225 469.424 256.828 469.595 257.276C469.776 257.713 470.027 258.028 470.347 258.22C470.667 258.401 471.035 258.492 471.451 258.492C471.878 258.492 472.251 258.401 472.571 258.22C472.902 258.028 473.158 257.713 473.339 257.276C473.531 256.828 473.627 256.225 473.627 255.468V249.452H475.403V255.324C475.403 256.465 475.243 257.388 474.923 258.092C474.603 258.796 474.144 259.308 473.547 259.628C472.96 259.948 472.262 260.108 471.451 260.108ZM477.856 259.916V252.06H479.376L479.504 253.116H479.568C479.92 252.775 480.304 252.481 480.72 252.236C481.136 251.991 481.61 251.868 482.144 251.868C482.986 251.868 483.6 252.14 483.984 252.684C484.368 253.228 484.56 253.996 484.56 254.988V259.916H482.72V255.228C482.72 254.577 482.624 254.119 482.432 253.852C482.24 253.585 481.925 253.452 481.488 253.452C481.146 253.452 480.842 253.537 480.576 253.708C480.32 253.868 480.026 254.108 479.696 254.428V259.916H477.856ZM486.809 259.916V248.62H488.617V255.676H488.665L491.577 252.06H493.593L490.905 255.26L493.865 259.916H491.865L489.849 256.508L488.617 257.916V259.916H486.809ZM495.168 259.916V252.06H496.688L496.816 253.116H496.88C497.232 252.775 497.616 252.481 498.032 252.236C498.448 251.991 498.923 251.868 499.456 251.868C500.299 251.868 500.912 252.14 501.296 252.684C501.68 253.228 501.872 253.996 501.872 254.988V259.916H500.032V255.228C500.032 254.577 499.936 254.119 499.744 253.852C499.552 253.585 499.237 253.452 498.8 253.452C498.459 253.452 498.155 253.537 497.888 253.708C497.632 253.868 497.339 254.108 497.008 254.428V259.916H495.168ZM507.337 260.108C506.686 260.108 506.078 259.948 505.513 259.628C504.948 259.297 504.489 258.828 504.137 258.22C503.785 257.601 503.609 256.86 503.609 255.996C503.609 255.121 503.785 254.38 504.137 253.772C504.489 253.153 504.948 252.684 505.513 252.364C506.078 252.033 506.686 251.868 507.337 251.868C507.998 251.868 508.612 252.033 509.177 252.364C509.742 252.684 510.201 253.153 510.553 253.772C510.905 254.38 511.081 255.121 511.081 255.996C511.081 256.86 510.905 257.601 510.553 258.22C510.201 258.828 509.742 259.297 509.177 259.628C508.612 259.948 507.998 260.108 507.337 260.108ZM507.337 258.604C507.913 258.604 508.366 258.364 508.697 257.884C509.028 257.404 509.193 256.775 509.193 255.996C509.193 255.207 509.028 254.572 508.697 254.092C508.366 253.612 507.913 253.372 507.337 253.372C506.761 253.372 506.308 253.612 505.977 254.092C505.657 254.572 505.497 255.207 505.497 255.996C505.497 256.775 505.657 257.404 505.977 257.884C506.308 258.364 506.761 258.604 507.337 258.604ZM514.105 259.916L512.025 252.06H513.881L514.825 256.14C514.91 256.513 514.979 256.887 515.033 257.26C515.097 257.633 515.166 258.012 515.241 258.396H515.305C515.379 258.012 515.454 257.633 515.529 257.26C515.614 256.876 515.705 256.503 515.801 256.14L516.825 252.06H518.505L519.545 256.14C519.641 256.513 519.731 256.887 519.817 257.26C519.902 257.633 519.987 258.012 520.073 258.396H520.137C520.211 258.012 520.281 257.633 520.345 257.26C520.409 256.887 520.478 256.513 520.553 256.14L521.497 252.06H523.225L521.225 259.916H519.033L518.121 256.252C518.035 255.879 517.955 255.511 517.881 255.148C517.806 254.775 517.726 254.38 517.641 253.964H517.577C517.502 254.38 517.427 254.775 517.353 255.148C517.278 255.521 517.198 255.895 517.113 256.268L516.217 259.916H514.105ZM524.777 259.916V252.06H526.297L526.425 253.116H526.489C526.841 252.775 527.225 252.481 527.641 252.236C528.057 251.991 528.532 251.868 529.065 251.868C529.908 251.868 530.521 252.14 530.905 252.684C531.289 253.228 531.481 253.996 531.481 254.988V259.916H529.641V255.228C529.641 254.577 529.545 254.119 529.353 253.852C529.161 253.585 528.847 253.452 528.409 253.452C528.068 253.452 527.764 253.537 527.497 253.708C527.241 253.868 526.948 254.108 526.617 254.428V259.916H524.777Z" fill="#1B1B1B"/>
<path d="M586.54 260.508C585.634 260.508 584.834 260.29 584.14 259.852C583.447 259.404 582.903 258.775 582.508 257.964C582.124 257.143 581.932 256.167 581.932 255.036C581.932 253.906 582.124 252.94 582.508 252.14C582.903 251.34 583.447 250.727 584.14 250.3C584.834 249.874 585.634 249.66 586.54 249.66C587.458 249.66 588.263 249.874 588.956 250.3C589.65 250.727 590.188 251.34 590.572 252.14C590.967 252.94 591.164 253.906 591.164 255.036C591.164 256.167 590.967 257.143 590.572 257.964C590.188 258.775 589.65 259.404 588.956 259.852C588.263 260.29 587.458 260.508 586.54 260.508ZM586.54 258.892C587.362 258.892 588.018 258.546 588.508 257.852C588.999 257.148 589.244 256.21 589.244 255.036C589.244 253.863 588.999 252.946 588.508 252.284C588.018 251.612 587.362 251.276 586.54 251.276C585.719 251.276 585.063 251.612 584.572 252.284C584.082 252.946 583.836 253.863 583.836 255.036C583.836 256.21 584.082 257.148 584.572 257.852C585.063 258.546 585.719 258.892 586.54 258.892ZM595.866 260.508C594.959 260.508 594.314 260.247 593.93 259.724C593.556 259.191 593.37 258.503 593.37 257.66V253.916H592.25V252.54L593.466 252.46L593.69 250.316H595.226V252.46H597.226V253.916H595.226V257.66C595.226 258.578 595.594 259.036 596.33 259.036C596.468 259.036 596.612 259.02 596.762 258.988C596.911 258.946 597.039 258.903 597.146 258.86L597.466 260.22C597.252 260.295 597.007 260.359 596.73 260.412C596.463 260.476 596.175 260.508 595.866 260.508ZM598.879 260.316V249.02H600.719V251.932L600.655 253.452C600.986 253.143 601.354 252.871 601.759 252.636C602.164 252.391 602.634 252.268 603.167 252.268C604.01 252.268 604.623 252.54 605.007 253.084C605.391 253.628 605.583 254.396 605.583 255.388V260.316H603.743V255.628C603.743 254.978 603.647 254.519 603.455 254.252C603.263 253.986 602.948 253.852 602.511 253.852C602.17 253.852 601.866 253.938 601.599 254.108C601.343 254.268 601.05 254.508 600.719 254.828V260.316H598.879ZM611.161 260.508C610.435 260.508 609.779 260.348 609.193 260.028C608.606 259.698 608.142 259.228 607.801 258.62C607.459 258.002 607.289 257.26 607.289 256.396C607.289 255.543 607.459 254.807 607.801 254.188C608.153 253.57 608.606 253.095 609.161 252.764C609.715 252.434 610.297 252.268 610.905 252.268C611.619 252.268 612.217 252.428 612.697 252.748C613.177 253.058 613.539 253.495 613.785 254.06C614.03 254.615 614.153 255.26 614.153 255.996C614.153 256.38 614.126 256.679 614.073 256.892H609.081C609.166 257.586 609.417 258.124 609.833 258.508C610.249 258.892 610.771 259.084 611.401 259.084C611.742 259.084 612.057 259.036 612.345 258.94C612.643 258.834 612.937 258.69 613.225 258.508L613.849 259.66C613.475 259.906 613.059 260.108 612.601 260.268C612.142 260.428 611.662 260.508 611.161 260.508ZM609.065 255.644H612.553C612.553 255.036 612.419 254.562 612.153 254.22C611.886 253.868 611.486 253.692 610.953 253.692C610.494 253.692 610.083 253.863 609.721 254.204C609.369 254.535 609.15 255.015 609.065 255.644ZM615.91 260.316V252.46H617.43L617.558 253.852H617.622C617.9 253.34 618.236 252.951 618.63 252.684C619.025 252.407 619.43 252.268 619.846 252.268C620.22 252.268 620.518 252.322 620.742 252.428L620.422 254.028C620.284 253.986 620.156 253.954 620.038 253.932C619.921 253.911 619.777 253.9 619.606 253.9C619.297 253.9 618.972 254.023 618.63 254.268C618.289 254.503 617.996 254.919 617.75 255.516V260.316H615.91ZM625.242 260.316V249.852H631.562V251.42H627.098V254.38H630.906V255.948H627.098V260.316H625.242ZM636.204 260.508C635.554 260.508 634.946 260.348 634.38 260.028C633.815 259.698 633.356 259.228 633.004 258.62C632.652 258.002 632.476 257.26 632.476 256.396C632.476 255.522 632.652 254.78 633.004 254.172C633.356 253.554 633.815 253.084 634.38 252.764C634.946 252.434 635.554 252.268 636.204 252.268C636.866 252.268 637.479 252.434 638.044 252.764C638.61 253.084 639.068 253.554 639.42 254.172C639.772 254.78 639.948 255.522 639.948 256.396C639.948 257.26 639.772 258.002 639.42 258.62C639.068 259.228 638.61 259.698 638.044 260.028C637.479 260.348 636.866 260.508 636.204 260.508ZM636.204 259.004C636.78 259.004 637.234 258.764 637.564 258.284C637.895 257.804 638.06 257.175 638.06 256.396C638.06 255.607 637.895 254.972 637.564 254.492C637.234 254.012 636.78 253.772 636.204 253.772C635.628 253.772 635.175 254.012 634.844 254.492C634.524 254.972 634.364 255.607 634.364 256.396C634.364 257.175 634.524 257.804 634.844 258.284C635.175 258.764 635.628 259.004 636.204 259.004ZM643.899 260.508C643.366 260.508 642.832 260.407 642.299 260.204C641.766 259.991 641.307 259.73 640.923 259.42L641.787 258.236C642.139 258.503 642.491 258.716 642.843 258.876C643.195 259.036 643.568 259.116 643.963 259.116C644.39 259.116 644.704 259.026 644.907 258.844C645.11 258.663 645.211 258.439 645.211 258.172C645.211 257.948 645.126 257.767 644.955 257.628C644.795 257.479 644.587 257.351 644.331 257.244C644.075 257.127 643.808 257.015 643.531 256.908C643.19 256.78 642.848 256.626 642.507 256.444C642.176 256.252 641.904 256.012 641.691 255.724C641.478 255.426 641.371 255.058 641.371 254.62C641.371 253.927 641.627 253.362 642.139 252.924C642.651 252.487 643.344 252.268 644.219 252.268C644.774 252.268 645.27 252.364 645.707 252.556C646.144 252.748 646.523 252.967 646.843 253.212L645.995 254.332C645.718 254.13 645.435 253.97 645.147 253.852C644.87 253.724 644.576 253.66 644.267 253.66C643.872 253.66 643.579 253.746 643.387 253.916C643.195 254.076 643.099 254.279 643.099 254.524C643.099 254.834 643.259 255.068 643.579 255.228C643.899 255.388 644.272 255.543 644.699 255.692C645.062 255.82 645.414 255.98 645.755 256.172C646.096 256.354 646.379 256.594 646.603 256.892C646.838 257.191 646.955 257.586 646.955 258.076C646.955 258.748 646.694 259.324 646.171 259.804C645.648 260.274 644.891 260.508 643.899 260.508ZM650.79 260.508C650.256 260.508 649.723 260.407 649.19 260.204C648.656 259.991 648.198 259.73 647.814 259.42L648.678 258.236C649.03 258.503 649.382 258.716 649.734 258.876C650.086 259.036 650.459 259.116 650.854 259.116C651.28 259.116 651.595 259.026 651.798 258.844C652 258.663 652.102 258.439 652.102 258.172C652.102 257.948 652.016 257.767 651.846 257.628C651.686 257.479 651.478 257.351 651.222 257.244C650.966 257.127 650.699 257.015 650.422 256.908C650.08 256.78 649.739 256.626 649.398 256.444C649.067 256.252 648.795 256.012 648.582 255.724C648.368 255.426 648.262 255.058 648.262 254.62C648.262 253.927 648.518 253.362 649.03 252.924C649.542 252.487 650.235 252.268 651.11 252.268C651.664 252.268 652.16 252.364 652.598 252.556C653.035 252.748 653.414 252.967 653.734 253.212L652.886 254.332C652.608 254.13 652.326 253.97 652.038 253.852C651.76 253.724 651.467 253.66 651.158 253.66C650.763 253.66 650.47 253.746 650.278 253.916C650.086 254.076 649.99 254.279 649.99 254.524C649.99 254.834 650.15 255.068 650.47 255.228C650.79 255.388 651.163 255.543 651.59 255.692C651.952 255.82 652.304 255.98 652.646 256.172C652.987 256.354 653.27 256.594 653.494 256.892C653.728 257.191 653.846 257.586 653.846 258.076C653.846 258.748 653.584 259.324 653.062 259.804C652.539 260.274 651.782 260.508 650.79 260.508ZM655.488 260.316V252.46H657.328V260.316H655.488ZM656.416 251.084C656.086 251.084 655.819 250.988 655.616 250.796C655.414 250.604 655.312 250.348 655.312 250.028C655.312 249.719 655.414 249.468 655.616 249.276C655.819 249.084 656.086 248.988 656.416 248.988C656.747 248.988 657.014 249.084 657.216 249.276C657.419 249.468 657.52 249.719 657.52 250.028C657.52 250.348 657.419 250.604 657.216 250.796C657.014 250.988 656.747 251.084 656.416 251.084ZM661.468 260.508C660.817 260.508 660.353 260.311 660.076 259.916C659.809 259.522 659.676 258.983 659.676 258.3V249.02H661.516V258.396C661.516 258.62 661.558 258.78 661.644 258.876C661.729 258.962 661.82 259.004 661.916 259.004C661.958 259.004 661.996 259.004 662.028 259.004C662.07 258.994 662.129 258.983 662.204 258.972L662.444 260.348C662.337 260.391 662.198 260.428 662.028 260.46C661.868 260.492 661.681 260.508 661.468 260.508Z" fill="#1B1B1B"/>
</svg>
