<svg width="2842" height="718" viewBox="0 0 2842 718" fill="none" xmlns="http://www.w3.org/2000/svg">
<path d="M340.357 186.966C388.523 186.966 427.569 147.916 427.569 99.7442C427.569 51.5727 388.523 12.522 340.357 12.522C292.191 12.522 253.145 51.5727 253.145 99.7442C253.145 147.916 292.191 186.966 340.357 186.966Z" fill="#8A984B"/>
<path d="M343.231 713.506C391.397 713.506 430.443 674.456 430.443 626.284C430.443 578.113 391.397 539.062 343.231 539.062C295.065 539.062 256.018 578.113 256.018 626.284C256.018 674.456 295.065 713.506 343.231 713.506Z" fill="#8A984B"/>
<path d="M343.231 716.562C293.468 716.562 252.993 676.082 252.993 626.315C252.993 576.547 293.468 536.067 343.231 536.067C392.993 536.067 433.468 576.547 433.468 626.315C433.468 676.082 392.993 716.562 343.231 716.562ZM343.231 542.088C296.796 542.088 259.043 579.875 259.043 626.284C259.043 672.694 296.826 710.481 343.231 710.481C389.635 710.481 427.418 672.694 427.418 626.284C427.418 579.875 389.635 542.088 343.231 542.088Z" fill="#8A984B"/>
<path d="M314.13 603.442C314.765 604.078 315.551 604.471 316.398 604.652C317.79 604.925 319.272 604.531 320.361 603.442C322.085 601.718 322.085 598.965 320.361 597.24L308.836 585.744C308.412 585.32 307.898 584.987 307.384 584.776C305.811 584.14 303.905 584.443 302.634 585.744C300.91 587.468 300.91 590.221 302.634 591.946L314.16 603.442H314.13Z" fill="white"/>
<path d="M343.2 593.973C345.62 593.973 347.587 592.007 347.587 589.586V573.31C347.587 570.889 345.62 568.923 343.2 568.923C340.78 568.923 338.814 570.889 338.814 573.31V589.586C338.814 592.007 340.78 593.973 343.2 593.973Z" fill="white"/>
<path d="M369.185 604.713C370.305 604.713 371.424 604.29 372.301 603.443L383.827 591.946C385.551 590.222 385.551 587.469 383.827 585.744C382.102 584.02 379.35 584.02 377.625 585.744L366.1 597.241C364.376 598.965 364.376 601.718 366.1 603.443C366.947 604.29 368.066 604.713 369.216 604.713H369.185Z" fill="white"/>
<path d="M396.229 621.897H379.924C377.504 621.897 375.538 623.864 375.538 626.284C375.538 628.704 377.504 630.671 379.924 630.671H396.229C398.649 630.671 400.616 628.704 400.616 626.284C400.616 623.864 398.649 621.897 396.229 621.897Z" fill="white"/>
<path d="M343.231 599.146C339.903 599.146 336.727 599.752 333.792 600.841C333.792 600.841 333.732 600.841 333.702 600.871C333.097 601.083 332.522 601.325 331.947 601.597C331.826 601.658 331.705 601.718 331.614 601.779C331.13 602.021 330.616 602.263 330.162 602.505C329.83 602.686 329.527 602.868 329.225 603.049C328.952 603.2 328.68 603.352 328.438 603.533C320.997 608.374 316.035 616.724 316.035 626.254C316.035 641.23 328.196 653.392 343.2 653.392C346.528 653.392 349.704 652.787 352.639 651.698C352.639 651.698 352.699 651.698 352.729 651.667C353.334 651.456 353.909 651.214 354.484 650.941C354.605 650.881 354.726 650.82 354.817 650.76C355.301 650.518 355.815 650.276 356.269 650.034C356.601 649.852 356.904 649.671 357.206 649.489C357.479 649.338 357.751 649.187 357.993 649.005C365.434 644.164 370.396 635.814 370.396 626.284C370.396 611.308 358.235 599.146 343.231 599.146Z" fill="white"/>
<path d="M372.301 649.126C371.666 648.491 370.879 648.097 370.032 647.916C368.641 647.644 367.159 648.037 366.07 649.126C364.345 650.851 364.345 653.604 366.07 655.328L377.595 666.825C378.019 667.248 378.533 667.581 379.047 667.793C380.62 668.428 382.526 668.125 383.796 666.825C385.521 665.1 385.521 662.347 383.796 660.623L372.271 649.126H372.301Z" fill="white"/>
<path d="M317.245 647.855C316.126 647.855 315.007 648.279 314.13 649.126L302.604 660.622C300.88 662.347 300.88 665.1 302.604 666.825C304.328 668.549 307.081 668.549 308.805 666.825L320.331 655.328C322.055 653.604 322.055 650.851 320.331 649.126C319.484 648.279 318.365 647.855 317.215 647.855H317.245Z" fill="white"/>
<path d="M310.863 626.284C310.863 623.864 308.896 621.897 306.476 621.897H290.171C287.751 621.897 285.785 623.864 285.785 626.284C285.785 628.704 287.751 630.671 290.171 630.671H306.476C308.896 630.671 310.863 628.704 310.863 626.284Z" fill="white"/>
<path d="M343.231 658.595C340.811 658.595 338.844 660.562 338.844 662.982V679.259C338.844 681.679 340.811 683.646 343.231 683.646C345.651 683.646 347.617 681.679 347.617 679.259V662.982C347.617 660.562 345.651 658.595 343.231 658.595Z" fill="white"/>
<path d="M874.218 713.506C922.384 713.506 961.43 674.456 961.43 626.284C961.43 578.113 922.384 539.062 874.218 539.062C826.052 539.062 787.006 578.113 787.006 626.284C787.006 674.456 826.052 713.506 874.218 713.506Z" fill="#8E704F"/>
<path d="M916.539 666.431H915.359H902.442C900.869 666.431 899.628 665.16 899.628 663.618C899.628 662.075 900.899 660.804 902.442 660.804H915.359V631.79H916.539C919.564 631.79 922.014 629.34 922.014 626.314C922.014 623.47 919.836 621.171 917.083 620.899H902.502C900.929 620.899 899.689 619.628 899.689 618.085C899.689 616.542 900.959 615.272 902.502 615.272H915.419V586.167H916.599C919.624 586.167 922.074 583.717 922.074 580.691C922.074 577.666 919.624 575.215 916.599 575.215H831.958C828.933 575.215 826.483 577.666 826.483 580.691C826.483 583.717 828.933 586.167 831.958 586.167H833.138V615.272H845.934C847.507 615.272 848.747 616.542 848.747 618.085C848.747 619.628 847.477 620.899 845.934 620.899H831.444C828.661 621.171 826.513 623.47 826.513 626.314C826.513 629.34 828.963 631.79 831.988 631.79H833.168V660.804H845.964C847.537 660.804 848.777 662.075 848.777 663.618C848.777 665.16 847.507 666.431 845.964 666.431H833.168H831.988C828.963 666.431 826.513 668.882 826.513 671.907C826.513 674.932 828.963 677.383 831.988 677.383H916.629C919.654 677.383 922.105 674.932 922.105 671.907C922.105 668.882 919.654 666.431 916.629 666.431H916.539Z" fill="white"/>
<path d="M884.866 618.933C888.647 624.681 892.217 630.127 892.217 636.631C892.217 646.555 884.14 654.602 874.218 654.602C864.296 654.602 856.219 646.555 856.219 636.631C856.219 630.278 859.516 625.346 863.328 619.598C867.321 613.668 871.828 608.586 873.31 598.753C873.371 598.33 873.734 597.967 874.218 597.967C874.641 597.967 875.065 598.299 875.125 598.753C876.577 607.89 880.964 613.033 884.866 618.933ZM876.759 646.615C876.759 645.193 875.64 644.043 874.218 644.043C870.104 644.043 866.776 640.716 866.776 636.631C866.776 635.209 865.657 634.06 864.235 634.06C862.813 634.06 861.664 635.209 861.664 636.631C861.664 643.559 867.29 649.156 874.218 649.156C875.64 649.156 876.759 648.037 876.759 646.615Z" fill="#8E704F"/>
<path d="M874.218 644.043C875.64 644.043 876.759 645.193 876.759 646.615C876.759 648.037 875.64 649.156 874.218 649.156C867.291 649.156 861.664 643.559 861.664 636.631C861.664 635.209 862.783 634.06 864.235 634.06C865.687 634.06 866.776 635.209 866.776 636.631C866.776 640.746 870.134 644.043 874.218 644.043Z" fill="white"/>
<path d="M603.93 713.506C652.096 713.506 691.142 674.456 691.142 626.284C691.142 578.113 652.096 539.062 603.93 539.062C555.764 539.062 516.717 578.113 516.717 626.284C516.717 674.456 555.764 713.506 603.93 713.506Z" fill="#D16E44"/>
<path d="M646.068 637.932C648.246 659.412 637.356 687.246 606.107 688.335C587.594 688.97 571.561 676.899 564.967 661.349C558.221 645.586 560.671 621.322 578.156 599.993C579.336 605.621 581.06 610.098 583.178 613.759C591.315 600.357 602.205 587.741 598.303 564.203C627.525 591.159 643.739 614.758 646.068 637.962V637.932ZM606.107 684.039C621.838 683.494 627.313 669.487 626.224 658.656C625.044 646.978 616.846 635.118 602.175 621.534C604.141 633.364 598.666 639.717 594.582 646.464C593.523 644.618 592.646 642.379 592.041 639.535C583.238 650.306 581.998 662.498 585.386 670.425C588.713 678.261 596.79 684.372 606.107 684.009V684.039Z" fill="white"/>
<path d="M626.224 658.656C627.313 669.487 621.838 683.494 606.108 684.039C596.791 684.402 588.714 678.291 585.386 670.455C581.998 662.528 583.238 650.336 592.041 639.566C592.616 642.409 593.523 644.648 594.582 646.494C598.666 639.747 604.172 633.364 602.175 621.564C616.847 635.118 625.045 647.008 626.224 658.686V658.656Z" fill="#D16E44"/>
<path d="M1686.78 713.506C1734.94 713.506 1773.99 674.456 1773.99 626.284C1773.99 578.113 1734.94 539.062 1686.78 539.062C1638.61 539.062 1599.56 578.113 1599.56 626.284C1599.56 674.456 1638.61 713.506 1686.78 713.506Z" fill="#4A77B8"/>
<path d="M1957.22 713.506C2005.38 713.506 2044.43 674.456 2044.43 626.284C2044.43 578.113 2005.38 539.062 1957.22 539.062C1909.05 539.062 1870 578.113 1870 626.284C1870 674.456 1909.05 713.506 1957.22 713.506Z" fill="#617E5C"/>
<path d="M1962.3 585.26H1952.13C1951.83 585.26 1951.59 585.504 1951.59 585.804V697.774C1951.59 698.075 1951.83 698.319 1952.13 698.319H1962.3C1962.6 698.319 1962.84 698.075 1962.84 697.774V585.804C1962.84 585.504 1962.6 585.26 1962.3 585.26Z" fill="white"/>
<path d="M1993.31 597.452C1982.75 600.871 1968.65 594.397 1968.53 596.696C1968.53 596.696 1971.25 580.661 1982.29 576.093C1990.04 572.886 2004.26 579.028 2007.07 576.849C2007.07 576.849 2004.68 593.761 1993.31 597.452Z" fill="white"/>
<path d="M1993.31 624.983C1982.75 628.402 1968.65 621.928 1968.53 624.227C1968.53 624.227 1971.25 608.192 1982.29 603.624C1990.04 600.417 2004.26 606.559 2007.07 604.38C2007.07 604.38 2004.68 621.292 1993.31 624.983Z" fill="white"/>
<path d="M1993.31 652.545C1982.75 655.963 1968.65 649.489 1968.53 651.788C1968.53 651.788 1971.25 635.754 1982.29 631.185C1990.04 627.979 2004.26 634.12 2007.07 631.942C2007.07 631.942 2004.68 648.854 1993.31 652.545Z" fill="white"/>
<path d="M1921.13 597.452C1931.69 600.871 1945.78 594.397 1945.9 596.696C1945.9 596.696 1943.18 580.661 1932.14 576.093C1924.39 572.886 1910.18 579.028 1907.36 576.849C1907.36 576.849 1909.75 593.761 1921.13 597.452Z" fill="white"/>
<path d="M1921.13 624.983C1931.69 628.402 1945.78 621.928 1945.9 624.227C1945.9 624.227 1943.18 608.192 1932.14 603.624C1924.39 600.417 1910.18 606.559 1907.36 604.38C1907.36 604.38 1909.75 621.292 1921.13 624.983Z" fill="white"/>
<path d="M1921.13 652.545C1931.69 655.963 1945.78 649.489 1945.9 651.788C1945.9 651.788 1943.18 635.754 1932.14 631.185C1924.39 627.979 1910.18 634.12 1907.36 631.942C1907.36 631.942 1909.75 648.854 1921.13 652.545Z" fill="white"/>
<path d="M2226.36 713.506C2274.52 713.506 2313.57 674.456 2313.57 626.284C2313.57 578.113 2274.52 539.062 2226.36 539.062C2178.19 539.062 2139.14 578.113 2139.14 626.284C2139.14 674.456 2178.19 713.506 2226.36 713.506Z" fill="#8E8ACD"/>
<path d="M2204.91 627.404L2161.74 627.313C2161.8 621.958 2161.56 611.339 2169.42 595.334C2177.29 579.33 2191.23 571.857 2194.08 569.982L2217.16 606.165C2216.52 606.498 2210.9 609.221 2207.9 614.546C2204.91 619.87 2204.7 624.59 2204.94 627.404H2204.91ZM2244.81 614.516C2247.05 618.267 2248.08 622.23 2247.89 626.345L2291 624.56C2290.91 613.396 2287.79 602.777 2281.65 592.551C2275.27 581.902 2266.95 573.945 2256.61 568.59L2235.01 605.893C2239.12 607.648 2242.42 610.522 2244.81 614.516ZM2260.93 679.834L2239.45 642.591C2238.79 643.045 2233.53 647.039 2227.2 647.039C2220.88 647.039 2216.74 644.89 2214.86 643.711L2194.96 681.921C2199.37 684.069 2209.87 690.06 2228.29 690.06C2244.99 690.06 2258.33 681.437 2260.93 679.864V679.834ZM2236.49 625.709C2236.49 631.488 2231.8 636.147 2226.05 636.147C2220.31 636.147 2215.62 631.458 2215.62 625.709C2215.62 619.961 2220.31 615.272 2226.05 615.272C2231.8 615.272 2236.49 619.961 2236.49 625.709Z" fill="white"/>
<path d="M2752.26 713.506C2800.43 713.506 2839.47 674.456 2839.47 626.284C2839.47 578.113 2800.43 539.062 2752.26 539.062C2704.1 539.062 2665.05 578.113 2665.05 626.284C2665.05 674.456 2704.1 713.506 2752.26 713.506Z" fill="#9859B2"/>
<path d="M2490.87 713.506C2539.03 713.506 2578.08 674.456 2578.08 626.284C2578.08 578.113 2539.03 539.062 2490.87 539.062C2442.7 539.062 2403.65 578.113 2403.65 626.284C2403.65 674.456 2442.7 713.506 2490.87 713.506Z" fill="#B1545F"/>
<path d="M91.6068 717.228C141.828 717.228 182.54 676.511 182.54 626.284C182.54 576.058 141.828 535.341 91.6068 535.341C41.3858 535.341 0.673706 576.058 0.673706 626.284C0.673706 676.511 41.3858 717.228 91.6068 717.228Z" fill="#C84281"/>
<path d="M127.938 635.814C128.059 634.786 128.119 633.697 128.119 632.486C128.119 625.256 125.881 621.353 124.096 618.237C122.583 615.605 121.494 613.638 121.404 609.433H128.149L116.14 592.037L104.131 609.433H111.3C111.391 616.331 113.538 620.143 115.293 623.229C116.775 625.8 117.834 627.736 117.955 631.76C111.481 629.552 104.766 628.13 98.0199 627.494C97.2939 623.319 95.7209 620.566 94.4201 618.237C92.9076 615.605 91.8186 613.638 91.7278 609.433H98.4737L86.4642 592.037L74.4548 609.433H81.6242C81.7149 616.331 83.8627 620.143 85.6172 623.229C86.3735 624.56 87.039 625.74 87.523 627.101C81.1704 627.252 74.848 628.13 68.6164 629.643C68.1324 624.197 66.2569 620.899 64.7141 618.206C63.2016 615.574 62.1126 613.608 62.0218 609.403H68.7677L56.7582 592.007L44.7488 609.403H51.9182C52.0089 616.301 54.1567 620.113 55.9112 623.198C57.4842 625.952 58.6035 627.918 58.6035 632.456C58.6035 632.547 58.6035 632.638 58.6035 632.728C48.2578 636.661 38.4869 642.652 29.926 650.729L36.2181 657.385C41.754 652.151 47.8948 647.916 54.3684 644.618C53.0677 647.341 51.8879 650.79 51.8879 655.994H61.9613C61.9613 651.456 63.0806 649.459 64.6536 646.736C65.7729 644.769 67.0737 642.5 67.8904 639.294C74.4245 637.418 81.1402 636.359 87.886 636.208C87.4323 638.356 86.5853 639.868 85.5265 641.714C83.7417 644.86 81.5032 648.763 81.5032 655.963H91.5766C91.5766 651.425 92.6959 649.429 94.2689 646.706C95.6604 644.255 97.3242 641.29 97.9897 636.631C104.01 637.267 109.969 638.628 115.716 640.655C115.535 640.988 115.323 641.321 115.142 641.684C113.357 644.83 111.118 648.733 111.118 655.933H121.192C121.192 651.395 122.311 649.398 123.884 646.675C124.247 646.04 124.64 645.344 125.003 644.618C132.717 648.551 139.917 653.846 146.179 660.471L152.834 654.178C145.423 646.343 136.892 640.171 127.696 635.723L127.938 635.814Z" fill="white"/>
<path d="M91.6068 182.7C141.828 182.7 182.54 141.984 182.54 91.7569C182.54 41.5302 141.828 0.813477 91.6068 0.813477C41.3858 0.813477 0.673706 41.5302 0.673706 91.7569C0.673706 141.984 41.3858 182.7 91.6068 182.7Z" fill="#C84281"/>
<path d="M91.6068 9.91992C46.4125 9.91992 9.7489 46.5575 9.7489 91.7872C9.7489 137.017 46.3823 173.654 91.6068 173.654C136.831 173.654 173.465 137.017 173.465 91.7872C173.465 46.5575 136.831 9.91992 91.6068 9.91992ZM146.421 126.035C140.129 119.379 132.959 114.115 125.245 110.182C124.882 110.908 124.489 111.573 124.126 112.239C122.553 114.992 121.434 116.959 121.434 121.497H111.36C111.36 114.266 113.599 110.363 115.384 107.247C115.595 106.884 115.777 106.551 115.958 106.218C110.211 104.191 104.252 102.83 98.2317 102.195C97.5661 106.823 95.9024 109.788 94.5109 112.269C92.9378 115.022 91.8186 116.989 91.8186 121.527H81.7451C81.7451 114.296 83.9837 110.393 85.7684 107.277C86.8272 105.432 87.6742 103.919 88.0977 101.771C81.3519 101.922 74.6363 102.951 68.1021 104.857C67.2854 108.064 65.9846 110.333 64.8653 112.299C63.2923 115.052 62.173 117.019 62.173 121.557H52.0996C52.0996 116.353 53.2491 112.904 54.5802 110.182C48.1066 113.479 41.9657 117.715 36.4299 122.949L30.1378 116.293C38.6684 108.215 48.4393 102.255 58.8152 98.2918C58.8152 98.201 58.8152 98.1102 58.8152 98.0195C58.8152 93.4814 57.696 91.4846 56.1229 88.7618C54.3684 85.7061 52.2206 81.8639 52.1299 74.966H44.9605L56.97 57.5699L68.9794 74.966H62.2336C62.3243 79.1713 63.4133 81.1075 64.9258 83.7699C66.4686 86.4625 68.3139 89.7602 68.8282 95.2059C75.0295 93.6629 81.3821 92.8158 87.7347 92.6646C87.2507 91.3031 86.5852 90.1232 85.829 88.7921C84.0744 85.7364 81.9266 81.8942 81.8359 74.9963H74.6665L86.676 57.6002L98.6854 74.9963H91.9396C92.0303 79.2016 93.1193 81.1378 94.6318 83.8002C95.9629 86.1297 97.5056 88.8526 98.2317 93.0579C105.008 93.6932 111.693 95.1152 118.167 97.3237C118.046 93.2999 116.957 91.3636 115.505 88.7921C113.75 85.7364 111.602 81.8942 111.512 74.9963H104.342L116.352 57.6002L128.361 74.9963H121.615C121.706 79.2016 122.795 81.1378 124.308 83.8002C126.092 86.9466 128.331 90.8493 128.331 98.0498C128.331 99.2599 128.24 100.349 128.149 101.378C137.315 105.825 145.876 111.997 153.288 119.833L146.632 126.125L146.421 126.035Z" fill="white"/>
<path d="M1146.9 713.506C1195.06 713.506 1234.11 674.456 1234.11 626.284C1234.11 578.113 1195.06 539.062 1146.9 539.062C1098.73 539.062 1059.68 578.113 1059.68 626.284C1059.68 674.456 1098.73 713.506 1146.9 713.506Z" fill="#168092"/>
<path d="M1146.9 716.562C1097.13 716.562 1056.66 676.082 1056.66 626.315C1056.66 576.547 1097.13 536.067 1146.9 536.067C1196.66 536.067 1237.13 576.547 1237.13 626.315C1237.13 676.082 1196.66 716.562 1146.9 716.562ZM1146.9 542.088C1100.46 542.088 1062.71 579.875 1062.71 626.284C1062.71 672.694 1100.49 710.481 1146.9 710.481C1193.3 710.481 1231.08 672.694 1231.08 626.284C1231.08 579.875 1193.3 542.088 1146.9 542.088Z" fill="#168092"/>
<path d="M1158.18 619.598C1158.18 622.987 1155.43 625.74 1152.04 625.74C1148.65 625.74 1145.9 622.987 1145.9 619.598C1145.9 616.21 1148.65 613.457 1152.04 613.457C1155.43 613.457 1158.18 616.21 1158.18 619.598Z" fill="white"/>
<path d="M1170.04 562.509C1172.25 560.27 1174.12 561.753 1173.4 564.173L1158.91 611.218C1157.03 609.675 1154.67 608.737 1152.07 608.737C1150.8 608.737 1149.62 609.009 1148.5 609.403C1148.2 606.286 1147.92 602.777 1147.83 600.326C1147.74 598.239 1147.83 596.151 1148.83 594.336C1151.89 588.921 1154.31 584.746 1160.33 576.032C1164.9 569.407 1168.77 563.87 1170.1 562.539" fill="white"/>
<path d="M1165.68 691.179L1156.85 631.064L1192.7 663.467C1194.72 665.312 1197.05 664.132 1195.84 660.955C1195.12 659.08 1191.49 652.787 1187.1 645.314C1181.32 635.482 1178.36 631.216 1174.45 625.77C1173.15 623.955 1171.13 622.926 1169.07 622.049C1167.38 621.353 1165.17 620.506 1162.93 619.659C1162.9 625.619 1158.03 630.459 1152.04 630.459C1150.41 630.459 1148.83 630.066 1147.44 629.401L1138.37 691.149H1165.65L1165.68 691.179Z" fill="white"/>
<path d="M1091.57 625.014C1093.32 625.709 1099.92 627.101 1107.81 628.735C1118.19 630.883 1122.97 631.488 1129.17 632.184C1131.23 632.426 1133.19 631.639 1135.1 630.762C1137.46 629.673 1140.76 627.918 1143.63 626.375C1142.12 624.499 1141.18 622.17 1141.18 619.568C1141.18 618.388 1141.42 617.269 1141.78 616.179L1091.84 621.232" fill="white"/>
<path d="M340.357 21.2349C297.008 21.2349 261.857 56.39 261.857 99.744C261.857 143.098 297.008 178.253 340.357 178.253C383.706 178.253 418.857 143.098 418.857 99.744C418.857 56.39 383.706 21.2349 340.357 21.2349ZM363.226 70.7001L374.752 59.2037C376.476 57.4792 379.229 57.4792 380.953 59.2037C382.677 60.9281 382.677 63.6812 380.953 65.4057L369.428 76.9023C368.58 77.7494 367.461 78.1729 366.312 78.1729C365.162 78.1729 364.073 77.7494 363.196 76.9023C361.472 75.1778 361.472 72.4246 363.196 70.7001H363.226ZM335.94 46.7692C335.94 44.3489 337.906 42.3825 340.327 42.3825C342.747 42.3825 344.713 44.3489 344.713 46.7692V63.0459C344.713 65.4662 342.747 67.4327 340.327 67.4327C337.906 67.4327 335.94 65.4662 335.94 63.0459V46.7692ZM299.73 59.2037C301.031 57.9027 302.907 57.6002 304.48 58.2355C305.024 58.4473 305.508 58.7801 305.932 59.2037L317.457 70.7001C319.181 72.4246 319.181 75.1778 317.457 76.9023C316.398 77.9914 314.886 78.3847 313.494 78.1124C312.678 77.9611 311.861 77.5678 311.226 76.9023L299.7 65.4057C297.976 63.6812 297.976 60.9281 299.7 59.2037H299.73ZM282.941 99.744C282.941 97.3236 284.908 95.3571 287.328 95.3571H303.633C306.053 95.3571 308.019 97.3236 308.019 99.744C308.019 102.164 306.053 104.131 303.633 104.131H287.328C284.908 104.131 282.941 102.164 282.941 99.744ZM317.487 128.818L305.962 140.315C304.238 142.039 301.485 142.039 299.761 140.315C298.036 138.59 298.036 135.837 299.761 134.112L311.286 122.616C312.133 121.769 313.252 121.345 314.402 121.345C315.551 121.345 316.64 121.769 317.518 122.616C319.242 124.34 319.242 127.094 317.518 128.818H317.487ZM344.743 152.719C344.743 155.139 342.777 157.105 340.357 157.105C337.937 157.105 335.97 155.139 335.97 152.719V136.442C335.97 134.022 337.937 132.055 340.357 132.055C342.777 132.055 344.743 134.022 344.743 136.442V152.719ZM355.149 122.495C354.907 122.676 354.635 122.797 354.363 122.979C354.06 123.161 353.758 123.372 353.425 123.524C352.941 123.796 352.457 124.038 351.973 124.25C351.852 124.31 351.731 124.371 351.64 124.431C351.065 124.704 350.491 124.946 349.886 125.157C349.855 125.157 349.825 125.157 349.795 125.188C346.861 126.277 343.684 126.882 340.357 126.882C325.353 126.882 313.192 114.72 313.192 99.744C313.192 90.214 318.123 81.8336 325.595 77.0232C325.837 76.8417 326.109 76.7206 326.381 76.5391C326.684 76.3576 326.986 76.1458 327.319 75.9946C327.803 75.7223 328.287 75.4803 328.771 75.2685C328.892 75.208 329.013 75.1475 329.104 75.087C329.678 74.8147 330.253 74.5726 330.858 74.3608C330.888 74.3608 330.919 74.3609 330.949 74.3306C333.883 73.2415 337.059 72.6364 340.387 72.6364C355.391 72.6364 367.552 84.7985 367.552 99.7742C367.552 109.304 362.621 117.685 355.149 122.495ZM380.953 140.315C379.652 141.615 377.777 141.918 376.204 141.283C375.689 141.071 375.175 140.738 374.752 140.315L363.226 128.818C361.502 127.094 361.502 124.34 363.226 122.616C364.285 121.527 365.797 121.134 367.189 121.406C368.006 121.557 368.823 121.95 369.458 122.616L380.983 134.112C382.708 135.837 382.708 138.59 380.983 140.315H380.953ZM393.356 104.131H377.051C374.631 104.131 372.664 102.164 372.664 99.744C372.664 97.3236 374.631 95.3571 377.051 95.3571H393.356C395.776 95.3571 397.742 97.3236 397.742 99.744C397.742 102.164 395.776 104.131 393.356 104.131Z" fill="white"/>
<path d="M1144.26 186.966C1192.43 186.966 1231.48 147.916 1231.48 99.7442C1231.48 51.5727 1192.43 12.522 1144.26 12.522C1096.1 12.522 1057.05 51.5727 1057.05 99.7442C1057.05 147.916 1096.1 186.966 1144.26 186.966Z" fill="#168092"/>
<path d="M1144.26 21.2349C1100.92 21.2349 1065.76 56.39 1065.76 99.744C1065.76 143.098 1100.92 178.253 1144.26 178.253C1187.61 178.253 1222.76 143.098 1222.76 99.744C1222.76 56.39 1187.61 21.2349 1144.26 21.2349ZM1143.11 67.7655C1146.17 62.35 1148.59 58.175 1154.61 49.4619C1159.18 42.8363 1163.05 37.2997 1164.38 35.9685C1166.59 33.7297 1168.46 35.2122 1167.74 37.6326L1153.25 84.6775C1151.37 83.1345 1149.01 82.1967 1146.41 82.1967C1145.14 82.1967 1143.96 82.4689 1142.84 82.8622C1142.54 79.746 1142.27 76.2366 1142.18 73.786C1142.09 71.6985 1142.18 69.611 1143.18 67.7958L1143.11 67.7655ZM1146.38 86.9465C1149.77 86.9465 1152.52 89.6996 1152.52 93.0881C1152.52 96.4765 1149.77 99.2296 1146.38 99.2296C1142.99 99.2296 1140.24 96.4765 1140.24 93.0881C1140.24 89.6996 1142.99 86.9465 1146.38 86.9465ZM1123.48 105.644C1117.31 104.948 1112.5 104.343 1102.13 102.195C1094.23 100.561 1087.64 99.1388 1085.88 98.4733L1086.12 94.7521L1136.07 89.6996C1135.7 90.7585 1135.46 91.9081 1135.46 93.0881C1135.46 95.6596 1136.4 98.0195 1137.91 99.8952C1135.04 101.438 1131.74 103.193 1129.38 104.282C1127.51 105.159 1125.54 105.916 1123.45 105.704L1123.48 105.644ZM1187.04 136.926L1151.19 104.524L1160.02 164.639H1132.74L1141.81 102.89C1143.21 103.556 1144.75 103.949 1146.41 103.949C1152.4 103.949 1157.24 99.1087 1157.3 93.1486C1159.57 93.9655 1161.78 94.8125 1163.44 95.5386C1165.5 96.416 1167.53 97.4144 1168.83 99.2599C1172.73 104.706 1175.69 108.971 1181.47 118.804C1185.86 126.277 1189.49 132.57 1190.21 134.445C1191.42 137.622 1189.1 138.772 1187.07 136.956L1187.04 136.926Z" fill="white"/>
<path d="M1412.98 713.506C1461.15 713.506 1500.19 674.456 1500.19 626.284C1500.19 578.113 1461.15 539.062 1412.98 539.062C1364.81 539.062 1325.77 578.113 1325.77 626.284C1325.77 674.456 1364.81 713.506 1412.98 713.506Z" fill="#5C5C5C"/>
<path d="M1455.97 592.763L1446.53 588.648L1441.2 578.271C1440.9 577.666 1440.36 577.182 1439.72 576.97L1416.22 568.499C1415.25 568.136 1414.16 568.378 1413.43 569.104L1403.15 579.118L1401.03 577.485C1400.43 577.031 1399.67 576.819 1398.91 576.94L1383.49 579.572C1382.82 579.693 1382.22 580.056 1381.79 580.601L1372.53 592.823C1371.63 594.003 1371.9 595.788 1373.05 596.605C1374.2 597.422 1375.89 597.301 1376.83 596.091C1377.77 594.881 1385.42 584.746 1385.42 584.746L1398.64 582.507L1410.56 591.825C1411.74 592.733 1413.43 592.521 1414.34 591.371C1415.25 590.191 1415.04 588.497 1413.89 587.59L1407.41 582.537L1415.97 574.187L1436.88 581.72L1442.14 592.007C1442.41 592.551 1442.9 593.005 1443.47 593.247C1443.47 593.247 1452.06 597.059 1453.79 597.755C1455.51 598.451 1456.72 597.513 1457.33 596.363C1457.93 595.214 1457.33 593.398 1455.94 592.823L1455.97 592.763Z" fill="white"/>
<path d="M1466.92 603.412H1359.07C1357.53 603.412 1356.29 604.653 1356.29 606.196V615.12C1356.29 616.663 1357.53 617.904 1359.07 617.904H1382.97C1384.24 617.904 1385.27 618.932 1385.27 620.203C1385.27 621.474 1384.24 622.502 1382.97 622.502H1364.61L1371.35 650.729H1365.61C1364.06 650.729 1362.82 651.97 1362.82 653.513V666.885C1362.82 668.428 1364.06 669.668 1365.61 669.668H1373.02C1373.17 659.533 1381.46 651.334 1391.62 651.334C1402.72 651.334 1410.23 660.592 1410.23 669.668H1416.13C1416.28 659.533 1424.57 651.334 1434.73 651.334C1446.35 651.334 1453.33 661.076 1453.33 669.668H1459.23C1460.78 669.668 1462.02 668.428 1462.02 666.885V653.513C1462.02 651.97 1460.78 650.729 1459.23 650.729H1454.54L1462.38 617.904H1466.92C1468.46 617.904 1469.7 616.663 1469.7 615.12V606.196C1469.7 604.653 1468.46 603.412 1466.92 603.412Z" fill="white"/>
<path d="M1391.65 655.661C1383.76 655.661 1377.31 662.014 1377.31 669.911C1377.31 677.807 1383.7 684.221 1391.59 684.221C1399.49 684.221 1405.93 677.867 1405.93 669.971C1405.93 662.075 1399.58 655.661 1391.65 655.661ZM1391.59 675.356C1388.6 675.356 1386.21 672.936 1386.21 669.941C1386.21 666.976 1388.66 664.556 1391.62 664.556C1394.59 664.556 1397.01 666.976 1397.01 669.971C1397.01 672.966 1394.56 675.356 1391.59 675.356ZM1434.76 655.661C1426.86 655.661 1420.42 662.014 1420.42 669.911C1420.42 677.807 1426.8 684.221 1434.7 684.221C1442.59 684.221 1449.04 677.867 1449.04 669.971C1449.04 662.075 1442.69 655.661 1434.76 655.661ZM1434.7 675.356C1431.7 675.356 1429.31 672.936 1429.31 669.941C1429.31 666.976 1431.77 664.556 1434.73 664.556C1437.69 664.556 1440.11 666.976 1440.11 669.971C1440.11 672.966 1437.66 675.356 1434.7 675.356Z" fill="white"/>
<path d="M2701.44 627.404C2701.44 599.661 2723.8 577.031 2751.44 576.607L2757.83 565.171C2755.98 565.02 2754.14 564.899 2752.23 564.899C2717.78 564.899 2689.73 592.944 2689.73 627.404C2689.73 656.115 2709.21 680.378 2735.65 687.67L2737.92 676.173C2716.84 669.971 2701.41 650.457 2701.41 627.404H2701.44Z" fill="white"/>
<path d="M2768.87 567.168L2766.6 578.664C2787.68 584.867 2803.11 604.38 2803.11 627.434C2803.11 655.177 2780.76 677.807 2753.11 678.23L2746.72 689.666C2748.57 689.818 2750.42 689.939 2752.32 689.939C2786.78 689.939 2814.82 661.893 2814.82 627.434C2814.82 598.723 2795.34 574.459 2768.9 567.198L2768.87 567.168Z" fill="white"/>
<path d="M2782.48 616.149H2754.38L2765.21 561.601L2722.07 638.688H2750.17L2739.34 693.236L2782.48 616.149Z" fill="white"/>
<path d="M2551.43 652.575L2500.73 564.748C2496.34 557.154 2485.39 557.154 2481 564.748L2430.3 652.575C2425.92 660.168 2431.39 669.638 2440.17 669.638H2541.6C2550.37 669.638 2555.84 660.138 2551.46 652.575H2551.43ZM2480.79 657.96L2487.18 625.891H2470.66L2496.01 580.57L2489.63 612.639H2506.14L2480.79 657.96Z" fill="white"/>
<path d="M876.577 181.036C924.743 181.036 963.79 141.986 963.79 93.8143C963.79 45.6428 924.743 6.59204 876.577 6.59204C828.411 6.59204 789.365 45.6428 789.365 93.8143C789.365 141.986 828.411 181.036 876.577 181.036Z" fill="#8E704F"/>
<path d="M876.577 15.3052C833.228 15.3052 798.077 50.4603 798.077 93.8143C798.077 137.168 833.228 172.323 876.577 172.323C919.926 172.323 955.078 137.168 955.078 93.8143C955.078 50.4603 919.926 15.3052 876.577 15.3052ZM904.831 88.4291H919.412C922.195 88.7014 924.343 91.0006 924.343 93.8445C924.343 96.8699 921.893 99.3204 918.868 99.3204H917.688V128.334H904.771C903.198 128.334 901.958 129.605 901.958 131.148C901.958 132.691 903.228 133.961 904.771 133.961H917.688H918.868C921.893 133.961 924.343 136.412 924.343 139.437C924.343 142.463 921.893 144.913 918.868 144.913H834.227C831.202 144.913 828.751 142.463 828.751 139.437C828.751 136.412 831.202 133.961 834.227 133.961H835.407H848.203C849.776 133.961 851.016 132.691 851.016 131.148C851.016 129.605 849.745 128.334 848.203 128.334H835.407V99.3204H834.227C831.202 99.3204 828.751 96.8699 828.751 93.8445C828.751 91.0006 830.929 88.7014 833.682 88.4291H848.172C849.745 88.4291 850.986 87.1583 850.986 85.6154C850.986 84.0724 849.715 82.8018 848.172 82.8018H835.376V53.6975H834.197C831.171 53.6975 828.721 51.2469 828.721 48.2215C828.721 45.1961 831.171 42.7456 834.197 42.7456H918.837C921.862 42.7456 924.313 45.1961 924.313 48.2215C924.313 51.2469 921.862 53.6975 918.837 53.6975H917.658V82.8018H904.741C903.168 82.8018 901.927 84.0724 901.927 85.6154C901.927 87.1583 903.198 88.4291 904.741 88.4291H904.831Z" fill="white"/>
<path d="M887.226 86.4626C891.007 92.2108 894.576 97.6566 894.576 104.161C894.576 114.084 886.5 122.132 876.577 122.132C866.655 122.132 858.578 114.084 858.578 104.161C858.578 97.8078 861.876 92.8764 865.687 87.1282C869.68 81.1984 874.188 76.1158 875.67 66.2832C875.73 65.8597 876.093 65.4966 876.577 65.4966C877.001 65.4966 877.424 65.8294 877.485 66.2832C878.937 75.4199 883.323 80.563 887.226 86.4626ZM879.118 114.145C879.118 112.723 877.999 111.573 876.577 111.573C872.463 111.573 869.136 108.245 869.136 104.161C869.136 102.739 868.017 101.59 866.595 101.59C865.173 101.59 864.023 102.739 864.023 104.161C864.023 111.089 869.65 116.686 876.577 116.686C877.999 116.686 879.118 115.567 879.118 114.145Z" fill="white"/>
<path d="M876.608 111.573C878.029 111.573 879.149 112.723 879.149 114.145C879.149 115.567 878.029 116.686 876.608 116.686C869.68 116.686 864.054 111.089 864.054 104.161C864.054 102.739 865.173 101.59 866.625 101.59C868.077 101.59 869.166 102.739 869.166 104.161C869.166 108.276 872.524 111.573 876.608 111.573Z" fill="#8E704F"/>
<path d="M605.019 182.459C653.185 182.459 692.231 143.408 692.231 95.2364C692.231 47.0649 653.185 8.01416 605.019 8.01416C556.853 8.01416 517.806 47.0649 517.806 95.2364C517.806 143.408 556.853 182.459 605.019 182.459Z" fill="#D16E44"/>
<path d="M1689.17 181.611C1737.33 181.611 1776.38 142.561 1776.38 94.3893C1776.38 46.2178 1737.33 7.16699 1689.17 7.16699C1641 7.16699 1601.95 46.2178 1601.95 94.3893C1601.95 142.561 1641 181.611 1689.17 181.611Z" fill="#4A77B8"/>
<path d="M1959.61 181.036C2007.77 181.036 2046.82 141.986 2046.82 93.8143C2046.82 45.6428 2007.77 6.59204 1959.61 6.59204C1911.44 6.59204 1872.39 45.6428 1872.39 93.8143C1872.39 141.986 1911.44 181.036 1959.61 181.036Z" fill="#617E5C"/>
<path d="M1959.61 15.3052C1916.26 15.3052 1881.11 50.4603 1881.11 93.8143C1881.11 137.168 1916.26 172.323 1959.61 172.323C2002.96 172.323 2038.11 137.168 2038.11 93.8143C2038.11 50.4603 2002.96 15.3052 1959.61 15.3052ZM1923.52 120.075C1912.11 116.384 1909.75 99.4717 1909.75 99.4717C1912.54 101.68 1926.75 95.5085 1934.53 98.7154C1945.6 103.284 1948.29 119.318 1948.29 119.318C1948.2 117.019 1934.07 123.493 1923.52 120.075ZM1923.52 92.5436C1912.11 88.8526 1909.75 71.9406 1909.75 71.9406C1912.54 74.1492 1926.75 67.9773 1934.53 71.1843C1945.6 75.7526 1948.29 91.7872 1948.29 91.7872C1948.2 89.4879 1934.07 95.9623 1923.52 92.5436ZM1923.52 64.9822C1912.11 61.2913 1909.75 44.3793 1909.75 44.3793C1912.54 46.5878 1926.75 40.416 1934.53 43.6229C1945.6 48.1913 1948.29 64.2259 1948.29 64.2259C1948.2 61.9266 1934.07 68.4009 1923.52 64.9822ZM1965.23 165.304C1965.23 165.607 1964.99 165.849 1964.69 165.849H1954.52C1954.22 165.849 1953.98 165.607 1953.98 165.304V53.3344C1953.98 53.0319 1954.22 52.7899 1954.52 52.7899H1964.69C1964.99 52.7899 1965.23 53.0319 1965.23 53.3344V165.304ZM1995.7 120.075C1985.14 123.493 1971.04 117.019 1970.92 119.318C1970.92 119.318 1973.64 103.284 1984.68 98.7154C1992.43 95.5085 2006.65 101.65 2009.46 99.4717C2009.46 99.4717 2007.07 116.384 1995.7 120.075ZM1995.7 92.5436C1985.14 95.9623 1971.04 89.4879 1970.92 91.7872C1970.92 91.7872 1973.64 75.7526 1984.68 71.1843C1992.43 67.9773 2006.65 74.1189 2009.46 71.9406C2009.46 71.9406 2007.07 88.8526 1995.7 92.5436ZM1995.7 64.9822C1985.14 68.4009 1971.04 61.9266 1970.92 64.2259C1970.92 64.2259 1973.64 48.1913 1984.68 43.6229C1992.43 40.416 2006.65 46.5576 2009.46 44.3793C2009.46 44.3793 2007.07 61.2913 1995.7 64.9822Z" fill="white"/>
<path d="M2228.75 181.036C2276.91 181.036 2315.96 141.986 2315.96 93.8143C2315.96 45.6428 2276.91 6.59204 2228.75 6.59204C2180.58 6.59204 2141.53 45.6428 2141.53 93.8143C2141.53 141.986 2180.58 181.036 2228.75 181.036Z" fill="#8E8ACD"/>
<path d="M2228.75 15.3052C2185.4 15.3052 2150.25 50.4603 2150.25 93.8143C2150.25 137.168 2185.4 172.323 2228.75 172.323C2272.09 172.323 2307.25 137.168 2307.25 93.8143C2307.25 50.4603 2272.09 15.3052 2228.75 15.3052ZM2228.44 82.8018C2234.22 82.8018 2238.88 87.4912 2238.88 93.2394C2238.88 98.9877 2234.19 103.677 2228.44 103.677C2222.7 103.677 2218.01 98.9877 2218.01 93.2394C2218.01 87.4912 2222.7 82.8018 2228.44 82.8018ZM2164.1 94.8731C2164.16 89.5181 2163.92 78.8991 2171.78 62.8947C2179.65 46.8904 2193.59 39.4176 2196.44 37.5419L2219.52 73.7256C2218.88 74.0584 2213.26 76.7812 2210.26 82.1059C2207.27 87.4306 2207.06 92.1502 2207.3 94.9638L2164.13 94.8731H2164.1ZM2230.65 157.559C2212.23 157.559 2201.73 151.569 2197.32 149.421L2217.22 111.21C2219.1 112.42 2223.21 114.538 2229.56 114.538C2235.92 114.538 2241.15 110.545 2241.81 110.091L2263.29 147.334C2260.69 148.937 2247.35 157.529 2230.65 157.529V157.559ZM2250.28 93.8747C2250.44 89.7602 2249.44 85.7969 2247.2 82.0454C2244.81 78.0519 2241.51 75.1778 2237.4 73.423L2259 36.1199C2269.37 41.4749 2277.66 49.4316 2284.04 60.081C2290.15 70.2766 2293.3 80.9261 2293.39 92.0898L2250.28 93.8747Z" fill="white"/>
<path d="M2754.65 181.036C2802.82 181.036 2841.86 141.986 2841.86 93.8143C2841.86 45.6428 2802.82 6.59204 2754.65 6.59204C2706.48 6.59204 2667.44 45.6428 2667.44 93.8143C2667.44 141.986 2706.48 181.036 2754.65 181.036Z" fill="#9859B2"/>
<path d="M2493.26 181.036C2541.42 181.036 2580.47 141.986 2580.47 93.8143C2580.47 45.6428 2541.42 6.59204 2493.26 6.59204C2445.09 6.59204 2406.04 45.6428 2406.04 93.8143C2406.04 141.986 2445.09 181.036 2493.26 181.036Z" fill="#B1545F"/>
<path d="M1415.37 181.036C1463.54 181.036 1502.58 141.986 1502.58 93.8143C1502.58 45.6428 1463.54 6.59204 1415.37 6.59204C1367.2 6.59204 1328.16 45.6428 1328.16 93.8143C1328.16 141.986 1367.2 181.036 1415.37 181.036Z" fill="#5C5C5C"/>
<path d="M1394.01 132.116C1391.02 132.116 1388.6 134.506 1388.6 137.501C1388.6 140.466 1391.02 142.886 1393.98 142.916C1396.95 142.916 1399.4 140.526 1399.4 137.531C1399.4 134.536 1396.98 132.146 1394.01 132.116Z" fill="white"/>
<path d="M1415.37 15.3052C1372.02 15.3052 1336.87 50.4603 1336.87 93.8143C1336.87 137.168 1372.02 172.323 1415.37 172.323C1458.72 172.323 1493.87 137.168 1493.87 93.8143C1493.87 50.4603 1458.72 15.3052 1415.37 15.3052ZM1374.92 60.3534L1384.18 48.1308C1384.6 47.5862 1385.21 47.2231 1385.88 47.1021L1401.3 44.4701C1402.06 44.349 1402.82 44.5305 1403.42 45.0146C1403.42 45.0146 1405.54 46.6786 1405.54 46.6483L1415.82 36.6342C1416.55 35.9081 1417.64 35.6661 1418.61 36.0292L1442.11 44.5002C1442.75 44.7423 1443.29 45.1961 1443.59 45.8011L1448.92 56.1783L1458.36 60.2928C1459.72 60.8979 1460.35 62.7132 1459.75 63.8326C1459.14 64.9822 1457.93 65.9201 1456.21 65.2242C1454.48 64.5284 1445.89 60.7164 1445.89 60.7164C1445.32 60.4744 1444.86 60.0206 1444.56 59.476L1439.3 49.1897L1418.39 41.6564L1409.83 50.0065L1416.31 55.0589C1417.49 55.9666 1417.7 57.6608 1416.76 58.8407C1415.85 60.0206 1414.16 60.2324 1412.98 59.2945L1401.06 49.9762L1387.84 52.2151C1387.84 52.2151 1380.19 62.3501 1379.25 63.5603C1378.31 64.7705 1376.65 64.8914 1375.47 64.0746C1374.32 63.2577 1374.05 61.4727 1374.95 60.2928L1374.92 60.3534ZM1393.95 151.781C1386.06 151.781 1379.64 145.337 1379.67 137.471C1379.67 129.574 1386.12 123.191 1394.01 123.221C1401.91 123.221 1408.32 129.665 1408.29 137.531C1408.29 145.427 1401.85 151.811 1393.95 151.781ZM1437.06 151.781C1429.16 151.781 1422.75 145.337 1422.78 137.471C1422.78 129.574 1429.22 123.191 1437.12 123.221C1445.01 123.221 1451.43 129.665 1451.4 137.531C1451.4 145.427 1444.95 151.811 1437.06 151.781ZM1469.28 85.4339H1464.74L1456.9 118.259H1461.59C1463.13 118.259 1464.38 119.5 1464.38 121.043V134.415C1464.38 135.958 1463.13 137.198 1461.59 137.198H1455.69C1455.69 128.606 1448.71 118.865 1437.09 118.865C1426.92 118.865 1418.61 127.063 1418.49 137.198H1412.59C1412.59 128.122 1405.08 118.865 1393.98 118.865C1383.82 118.865 1375.5 127.063 1375.38 137.198H1367.97C1366.42 137.198 1365.18 135.958 1365.18 134.415V121.043C1365.18 119.5 1366.42 118.259 1367.97 118.259H1373.71L1366.97 90.0325H1385.33C1386.6 90.0325 1387.63 89.0039 1387.63 87.7332C1387.63 86.4625 1386.6 85.4339 1385.33 85.4339H1361.43C1359.89 85.4339 1358.65 84.1935 1358.65 82.6506V73.7256C1358.65 72.1826 1359.89 70.9423 1361.43 70.9423H1469.28C1470.82 70.9423 1472.06 72.1826 1472.06 73.7256V82.6506C1472.06 84.1935 1470.82 85.4339 1469.28 85.4339Z" fill="white"/>
<path d="M1437.12 132.116C1434.12 132.116 1431.7 134.506 1431.7 137.501C1431.7 140.466 1434.12 142.886 1437.09 142.916C1440.05 142.916 1442.5 140.526 1442.5 137.531C1442.5 134.536 1440.08 132.146 1437.12 132.116Z" fill="white"/>
<path d="M2754.65 15.3052C2711.3 15.3052 2676.15 50.4603 2676.15 93.8143C2676.15 137.168 2711.3 172.323 2754.65 172.323C2798 172.323 2833.15 137.168 2833.15 93.8143C2833.15 50.4603 2798 15.3052 2754.65 15.3052ZM2724.46 106.218L2767.6 29.1313L2756.77 83.6792H2784.87L2741.73 160.766L2752.56 106.218H2724.46Z" fill="white"/>
<path d="M2493.26 15.3052C2449.91 15.3052 2414.76 50.4603 2414.76 93.8143C2414.76 137.168 2449.91 172.323 2493.26 172.323C2536.6 172.323 2571.76 137.168 2571.76 93.8143C2571.76 50.4603 2536.6 15.3052 2493.26 15.3052ZM2543.96 137.198H2442.53C2433.75 137.198 2428.28 127.699 2432.66 120.135L2483.36 32.3079C2487.75 24.7141 2498.7 24.7141 2503.09 32.3079L2553.79 120.135C2558.17 127.729 2552.7 137.198 2543.93 137.198H2543.96Z" fill="white"/>
<path d="M2498.4 48.1006L2473.05 93.4211H2489.57L2483.18 125.49L2508.56 80.1698H2492.02L2498.4 48.1006Z" fill="white"/>
<path d="M343.231 447.06C391.397 447.06 430.443 408.009 430.443 359.837C430.443 311.666 391.397 272.615 343.231 272.615C295.065 272.615 256.018 311.666 256.018 359.837C256.018 408.009 295.065 447.06 343.231 447.06Z" fill="#8A984B"/>
<path d="M343.231 450.115C293.468 450.115 252.993 409.636 252.993 359.868C252.993 310.1 293.468 269.62 343.231 269.62C392.993 269.62 433.468 310.1 433.468 359.868C433.468 409.636 392.993 450.115 343.231 450.115ZM343.231 275.641C296.796 275.641 259.043 313.428 259.043 359.837C259.043 406.247 296.826 444.034 343.231 444.034C389.635 444.034 427.418 406.247 427.418 359.837C427.418 313.428 389.635 275.641 343.231 275.641Z" fill="#8A984B"/>
<path d="M314.13 336.996C314.765 337.631 315.551 338.024 316.398 338.206C317.79 338.478 319.272 338.085 320.361 336.996C322.085 335.271 322.085 332.518 320.361 330.794L308.836 319.297C308.412 318.874 307.898 318.541 307.384 318.329C305.811 317.694 303.905 317.996 302.634 319.297C300.91 321.022 300.91 323.775 302.634 325.499L314.16 336.996H314.13Z" fill="#1B1B1B"/>
<path d="M343.2 327.526C345.62 327.526 347.587 325.56 347.587 323.139V306.863C347.587 304.443 345.62 302.476 343.2 302.476C340.78 302.476 338.814 304.443 338.814 306.863V323.139C338.814 325.56 340.78 327.526 343.2 327.526Z" fill="#1B1B1B"/>
<path d="M369.185 338.266C370.305 338.266 371.424 337.843 372.301 336.996L383.827 325.499C385.551 323.775 385.551 321.022 383.827 319.297C382.102 317.573 379.35 317.573 377.625 319.297L366.1 330.794C364.376 332.518 364.376 335.271 366.1 336.996C366.947 337.843 368.066 338.266 369.216 338.266H369.185Z" fill="#1B1B1B"/>
<path d="M396.229 355.451H379.924C377.504 355.451 375.538 357.417 375.538 359.838C375.538 362.258 377.504 364.224 379.924 364.224H396.229C398.649 364.224 400.616 362.258 400.616 359.838C400.616 357.417 398.649 355.451 396.229 355.451Z" fill="#1B1B1B"/>
<path d="M343.231 332.7C339.903 332.7 336.727 333.305 333.792 334.394C333.792 334.394 333.732 334.394 333.702 334.424C333.097 334.636 332.522 334.878 331.947 335.15C331.826 335.211 331.705 335.271 331.614 335.332C331.13 335.574 330.616 335.816 330.162 336.058C329.83 336.239 329.527 336.421 329.225 336.602C328.952 336.754 328.68 336.905 328.438 337.087C320.997 341.927 316.035 350.277 316.035 359.807C316.035 374.783 328.196 386.945 343.2 386.945C346.528 386.945 349.704 386.34 352.639 385.251C352.639 385.251 352.699 385.251 352.729 385.221C353.334 385.009 353.909 384.767 354.484 384.494C354.605 384.434 354.726 384.373 354.817 384.313C355.301 384.071 355.815 383.829 356.269 383.587C356.601 383.405 356.904 383.224 357.206 383.042C357.479 382.891 357.751 382.74 357.993 382.558C365.434 377.718 370.396 369.368 370.396 359.838C370.396 344.862 358.235 332.7 343.231 332.7Z" fill="#1B1B1B"/>
<path d="M372.301 382.679C371.666 382.044 370.879 381.651 370.032 381.469C368.641 381.197 367.159 381.59 366.07 382.679C364.345 384.404 364.345 387.157 366.07 388.881L377.595 400.378C378.019 400.801 378.533 401.134 379.047 401.346C380.62 401.981 382.526 401.679 383.796 400.378C385.521 398.653 385.521 395.9 383.796 394.176L372.271 382.679H372.301Z" fill="#1B1B1B"/>
<path d="M317.245 381.409C316.126 381.409 315.007 381.832 314.13 382.679L302.604 394.176C300.88 395.9 300.88 398.653 302.604 400.378C304.328 402.102 307.081 402.102 308.805 400.378L320.331 388.881C322.055 387.157 322.055 384.404 320.331 382.679C319.484 381.832 318.365 381.409 317.215 381.409H317.245Z" fill="#1B1B1B"/>
<path d="M310.863 359.838C310.863 357.417 308.896 355.451 306.476 355.451H290.171C287.751 355.451 285.785 357.417 285.785 359.838C285.785 362.258 287.751 364.224 290.171 364.224H306.476C308.896 364.224 310.863 362.258 310.863 359.838Z" fill="#1B1B1B"/>
<path d="M343.231 392.149C340.811 392.149 338.844 394.115 338.844 396.536V412.812C338.844 415.232 340.811 417.199 343.231 417.199C345.651 417.199 347.617 415.232 347.617 412.812V396.536C347.617 394.115 345.651 392.149 343.231 392.149Z" fill="#1B1B1B"/>
<path d="M874.218 447.06C922.384 447.06 961.43 408.009 961.43 359.837C961.43 311.666 922.384 272.615 874.218 272.615C826.052 272.615 787.006 311.666 787.006 359.837C787.006 408.009 826.052 447.06 874.218 447.06Z" fill="#8E704F"/>
<path d="M916.539 399.985H915.359H902.442C900.869 399.985 899.628 398.714 899.628 397.171C899.628 395.628 900.899 394.357 902.442 394.357H915.359V365.344H916.539C919.564 365.344 922.014 362.893 922.014 359.868C922.014 357.024 919.836 354.725 917.083 354.452H902.502C900.929 354.452 899.689 353.182 899.689 351.639C899.689 350.096 900.959 348.825 902.502 348.825H915.419V319.721H916.599C919.624 319.721 922.074 317.27 922.074 314.245C922.074 311.219 919.624 308.769 916.599 308.769H831.958C828.933 308.769 826.483 311.219 826.483 314.245C826.483 317.27 828.933 319.721 831.958 319.721H833.138V348.825H845.934C847.507 348.825 848.747 350.096 848.747 351.639C848.747 353.182 847.477 354.452 845.934 354.452H831.444C828.661 354.725 826.513 357.024 826.513 359.868C826.513 362.893 828.963 365.344 831.988 365.344H833.168V394.357H845.964C847.537 394.357 848.777 395.628 848.777 397.171C848.777 398.714 847.507 399.985 845.964 399.985H833.168H831.988C828.963 399.985 826.513 402.435 826.513 405.46C826.513 408.486 828.963 410.936 831.988 410.936H916.629C919.654 410.936 922.105 408.486 922.105 405.46C922.105 402.435 919.654 399.985 916.629 399.985H916.539Z" fill="#1B1B1B"/>
<path d="M884.866 352.486C888.647 358.234 892.217 363.68 892.217 370.184C892.217 380.108 884.14 388.155 874.218 388.155C864.296 388.155 856.219 380.108 856.219 370.184C856.219 363.831 859.516 358.9 863.328 353.151C867.321 347.222 871.828 342.139 873.31 332.306C873.371 331.883 873.734 331.52 874.218 331.52C874.641 331.52 875.065 331.853 875.125 332.306C876.577 341.443 880.964 346.586 884.866 352.486ZM876.759 380.168C876.759 378.746 875.64 377.597 874.218 377.597C870.104 377.597 866.776 374.269 866.776 370.184C866.776 368.762 865.657 367.613 864.235 367.613C862.813 367.613 861.664 368.762 861.664 370.184C861.664 377.113 867.29 382.71 874.218 382.71C875.64 382.71 876.759 381.59 876.759 380.168Z" fill="#8E704F"/>
<path d="M874.218 377.597C875.64 377.597 876.759 378.746 876.759 380.168C876.759 381.59 875.64 382.709 874.218 382.709C867.291 382.709 861.664 377.112 861.664 370.184C861.664 368.762 862.783 367.613 864.235 367.613C865.687 367.613 866.776 368.762 866.776 370.184C866.776 374.299 870.134 377.597 874.218 377.597Z" fill="#1B1B1B"/>
<path d="M603.93 447.06C652.096 447.06 691.142 408.009 691.142 359.837C691.142 311.666 652.096 272.615 603.93 272.615C555.764 272.615 516.717 311.666 516.717 359.837C516.717 408.009 555.764 447.06 603.93 447.06Z" fill="#D16E44"/>
<path d="M646.068 371.485C648.246 392.966 637.356 420.799 606.107 421.888C587.594 422.524 571.561 410.452 564.967 394.902C558.221 379.139 560.671 354.876 578.156 333.547C579.336 339.174 581.06 343.652 583.178 347.312C591.315 333.91 602.205 321.294 598.303 297.756C627.525 324.713 643.739 348.311 646.068 371.515V371.485ZM606.107 417.592C621.838 417.048 627.313 403.04 626.224 392.209C625.044 380.531 616.846 368.672 602.175 355.088C604.141 366.917 598.666 373.27 594.582 380.017C593.523 378.171 592.646 375.933 592.041 373.089C583.238 383.859 581.998 396.051 585.386 403.978C588.713 411.814 596.79 417.925 606.107 417.562V417.592Z" fill="#1B1B1B"/>
<path d="M626.224 392.209C627.313 403.04 621.838 417.048 606.108 417.592C596.791 417.955 588.714 411.844 585.386 404.008C581.998 396.082 583.238 383.889 592.041 373.119C592.616 375.963 593.523 378.202 594.582 380.047C598.666 373.301 604.172 366.917 602.175 355.118C616.847 368.672 625.045 380.561 626.224 392.24V392.209Z" fill="#D16E44"/>
<path d="M1686.78 447.06C1734.94 447.06 1773.99 408.009 1773.99 359.837C1773.99 311.666 1734.94 272.615 1686.78 272.615C1638.61 272.615 1599.56 311.666 1599.56 359.837C1599.56 408.009 1638.61 447.06 1686.78 447.06Z" fill="#4A77B8"/>
<path d="M1957.22 447.06C2005.38 447.06 2044.43 408.009 2044.43 359.837C2044.43 311.666 2005.38 272.615 1957.22 272.615C1909.05 272.615 1870 311.666 1870 359.837C1870 408.009 1909.05 447.06 1957.22 447.06Z" fill="#617E5C"/>
<path d="M1962.3 318.813H1952.13C1951.83 318.813 1951.59 319.057 1951.59 319.358V431.327C1951.59 431.628 1951.83 431.872 1952.13 431.872H1962.3C1962.6 431.872 1962.84 431.628 1962.84 431.327V319.358C1962.84 319.057 1962.6 318.813 1962.3 318.813Z" fill="#1B1B1B"/>
<path d="M1993.31 331.005C1982.75 334.424 1968.65 327.95 1968.53 330.249C1968.53 330.249 1971.25 314.214 1982.29 309.646C1990.04 306.439 2004.26 312.581 2007.07 310.402C2007.07 310.402 2004.68 327.314 1993.31 331.005Z" fill="#1B1B1B"/>
<path d="M1993.31 358.536C1982.75 361.955 1968.65 355.481 1968.53 357.78C1968.53 357.78 1971.25 341.746 1982.29 337.177C1990.04 333.97 2004.26 340.112 2007.07 337.934C2007.07 337.934 2004.68 354.845 1993.31 358.536Z" fill="#1B1B1B"/>
<path d="M1993.31 386.098C1982.75 389.517 1968.65 383.042 1968.53 385.342C1968.53 385.342 1971.25 369.307 1982.29 364.739C1990.04 361.532 2004.26 367.673 2007.07 365.495C2007.07 365.495 2004.68 382.407 1993.31 386.098Z" fill="#1B1B1B"/>
<path d="M1921.13 331.005C1931.69 334.424 1945.78 327.95 1945.9 330.249C1945.9 330.249 1943.18 314.214 1932.14 309.646C1924.39 306.439 1910.18 312.581 1907.36 310.402C1907.36 310.402 1909.75 327.314 1921.13 331.005Z" fill="#1B1B1B"/>
<path d="M1921.13 358.536C1931.69 361.955 1945.78 355.481 1945.9 357.78C1945.9 357.78 1943.18 341.746 1932.14 337.177C1924.39 333.97 1910.18 340.112 1907.36 337.934C1907.36 337.934 1909.75 354.845 1921.13 358.536Z" fill="#1B1B1B"/>
<path d="M1921.13 386.098C1931.69 389.517 1945.78 383.042 1945.9 385.342C1945.9 385.342 1943.18 369.307 1932.14 364.739C1924.39 361.532 1910.18 367.673 1907.36 365.495C1907.36 365.495 1909.75 382.407 1921.13 386.098Z" fill="#1B1B1B"/>
<path d="M2226.36 447.06C2274.52 447.06 2313.57 408.009 2313.57 359.837C2313.57 311.666 2274.52 272.615 2226.36 272.615C2178.19 272.615 2139.14 311.666 2139.14 359.837C2139.14 408.009 2178.19 447.06 2226.36 447.06Z" fill="#8E8ACD"/>
<path d="M2204.91 360.957L2161.74 360.866C2161.8 355.511 2161.56 344.892 2169.42 328.888C2177.29 312.883 2191.23 305.41 2194.08 303.535L2217.16 339.719C2216.52 340.051 2210.9 342.774 2207.9 348.099C2204.91 353.424 2204.7 358.143 2204.94 360.957H2204.91ZM2244.81 348.069C2247.05 351.82 2248.08 355.783 2247.89 359.898L2291 358.113C2290.91 346.949 2287.79 336.33 2281.65 326.104C2275.27 315.455 2266.95 307.498 2256.61 302.143L2235.01 339.446C2239.12 341.201 2242.42 344.075 2244.81 348.069ZM2260.93 413.387L2239.45 376.144C2238.79 376.598 2233.53 380.592 2227.2 380.592C2220.88 380.592 2216.74 378.444 2214.86 377.264L2194.96 415.474C2199.37 417.622 2209.87 423.613 2228.29 423.613C2244.99 423.613 2258.33 414.99 2260.93 413.417V413.387ZM2236.49 359.263C2236.49 365.041 2231.8 369.7 2226.05 369.7C2220.31 369.7 2215.62 365.011 2215.62 359.263C2215.62 353.514 2220.31 348.825 2226.05 348.825C2231.8 348.825 2236.49 353.514 2236.49 359.263Z" fill="#1B1B1B"/>
<path d="M2752.26 447.06C2800.43 447.06 2839.47 408.009 2839.47 359.837C2839.47 311.666 2800.43 272.615 2752.26 272.615C2704.1 272.615 2665.05 311.666 2665.05 359.837C2665.05 408.009 2704.1 447.06 2752.26 447.06Z" fill="#9859B2"/>
<path d="M2490.87 447.06C2539.03 447.06 2578.08 408.009 2578.08 359.837C2578.08 311.666 2539.03 272.615 2490.87 272.615C2442.7 272.615 2403.65 311.666 2403.65 359.837C2403.65 408.009 2442.7 447.06 2490.87 447.06Z" fill="#B1545F"/>
<path d="M91.6068 450.781C141.828 450.781 182.54 410.064 182.54 359.837C182.54 309.611 141.828 268.894 91.6068 268.894C41.3858 268.894 0.673706 309.611 0.673706 359.837C0.673706 410.064 41.3858 450.781 91.6068 450.781Z" fill="#C84281"/>
<path d="M127.938 369.367C128.059 368.339 128.119 367.25 128.119 366.039C128.119 358.809 125.881 354.906 124.096 351.79C122.583 349.158 121.494 347.191 121.404 342.986H128.149L116.14 325.59L104.131 342.986H111.3C111.391 349.884 113.538 353.696 115.293 356.782C116.775 359.353 117.834 361.29 117.955 365.313C111.481 363.105 104.766 361.683 98.0199 361.048C97.2939 356.872 95.7209 354.119 94.4201 351.79C92.9076 349.158 91.8186 347.191 91.7278 342.986H98.4737L86.4642 325.59L74.4548 342.986H81.6242C81.7149 349.884 83.8627 353.696 85.6172 356.782C86.3735 358.113 87.039 359.293 87.523 360.654C81.1704 360.805 74.848 361.683 68.6164 363.196C68.1324 357.75 66.2569 354.452 64.7141 351.76C63.2016 349.127 62.1126 347.161 62.0218 342.956H68.7677L56.7582 325.56L44.7488 342.956H51.9182C52.0089 349.854 54.1567 353.666 55.9112 356.752C57.4842 359.505 58.6035 361.471 58.6035 366.009C58.6035 366.1 58.6035 366.191 58.6035 366.281C48.2578 370.215 38.4869 376.205 29.926 384.283L36.2181 390.938C41.754 385.705 47.8948 381.469 54.3684 378.171C53.0677 380.894 51.8879 384.343 51.8879 389.547H61.9613C61.9613 385.009 63.0806 383.012 64.6536 380.289C65.7729 378.323 67.0737 376.053 67.8904 372.847C74.4245 370.971 81.1402 369.912 87.886 369.761C87.4323 371.909 86.5853 373.421 85.5265 375.267C83.7417 378.413 81.5032 382.316 81.5032 389.517H91.5766C91.5766 384.978 92.6959 382.982 94.2689 380.259C95.6604 377.808 97.3242 374.843 97.9897 370.184C104.01 370.82 109.969 372.181 115.716 374.208C115.535 374.541 115.323 374.874 115.142 375.237C113.357 378.383 111.118 382.286 111.118 389.486H121.192C121.192 384.948 122.311 382.951 123.884 380.229C124.247 379.593 124.64 378.897 125.003 378.171C132.717 382.104 139.917 387.399 146.179 394.024L152.834 387.732C145.423 379.896 136.892 373.724 127.696 369.277L127.938 369.367Z" fill="#1B1B1B"/>
<path d="M1146.9 447.06C1195.06 447.06 1234.11 408.009 1234.11 359.837C1234.11 311.666 1195.06 272.615 1146.9 272.615C1098.73 272.615 1059.68 311.666 1059.68 359.837C1059.68 408.009 1098.73 447.06 1146.9 447.06Z" fill="#168092"/>
<path d="M1146.9 450.115C1097.13 450.115 1056.66 409.636 1056.66 359.868C1056.66 310.1 1097.13 269.62 1146.9 269.62C1196.66 269.62 1237.13 310.1 1237.13 359.868C1237.13 409.636 1196.66 450.115 1146.9 450.115ZM1146.9 275.641C1100.46 275.641 1062.71 313.428 1062.71 359.837C1062.71 406.247 1100.49 444.034 1146.9 444.034C1193.3 444.034 1231.08 406.247 1231.08 359.837C1231.08 313.428 1193.3 275.641 1146.9 275.641Z" fill="#168092"/>
<path d="M1158.18 353.151C1158.18 356.54 1155.43 359.293 1152.04 359.293C1148.65 359.293 1145.9 356.54 1145.9 353.151C1145.9 349.763 1148.65 347.01 1152.04 347.01C1155.43 347.01 1158.18 349.763 1158.18 353.151Z" fill="#1B1B1B"/>
<path d="M1170.04 296.062C1172.25 293.823 1174.12 295.306 1173.4 297.726L1158.91 344.771C1157.03 343.228 1154.67 342.29 1152.07 342.29C1150.8 342.29 1149.62 342.563 1148.5 342.956C1148.2 339.84 1147.92 336.33 1147.83 333.88C1147.74 331.792 1147.83 329.705 1148.83 327.889C1151.89 322.474 1154.31 318.299 1160.33 309.586C1164.9 302.96 1168.77 297.424 1170.1 296.092" fill="#1B1B1B"/>
<path d="M1165.68 424.732L1156.85 364.618L1192.7 397.02C1194.72 398.865 1197.05 397.685 1195.84 394.509C1195.12 392.633 1191.49 386.34 1187.1 378.867C1181.32 369.035 1178.36 364.769 1174.45 359.323C1173.15 357.508 1171.13 356.479 1169.07 355.602C1167.38 354.906 1165.17 354.059 1162.93 353.212C1162.9 359.172 1158.03 364.013 1152.04 364.013C1150.41 364.013 1148.83 363.619 1147.44 362.954L1138.37 424.702H1165.65L1165.68 424.732Z" fill="#1B1B1B"/>
<path d="M1091.57 358.567C1093.32 359.263 1099.92 360.654 1107.81 362.288C1118.19 364.436 1122.97 365.041 1129.17 365.737C1131.23 365.979 1133.19 365.192 1135.1 364.315C1137.46 363.226 1140.76 361.471 1143.63 359.928C1142.12 358.052 1141.18 355.723 1141.18 353.121C1141.18 351.941 1141.42 350.822 1141.78 349.733L1091.84 354.785" fill="#1B1B1B"/>
<path d="M1412.98 447.06C1461.15 447.06 1500.19 408.009 1500.19 359.837C1500.19 311.666 1461.15 272.615 1412.98 272.615C1364.81 272.615 1325.77 311.666 1325.77 359.837C1325.77 408.009 1364.81 447.06 1412.98 447.06Z" fill="#5C5C5C"/>
<path d="M1455.97 326.316L1446.53 322.202L1441.2 311.825C1440.9 311.22 1440.36 310.735 1439.72 310.524L1416.22 302.053C1415.25 301.689 1414.16 301.932 1413.43 302.658L1403.15 312.672L1401.03 311.038C1400.43 310.584 1399.67 310.372 1398.91 310.493L1383.49 313.125C1382.82 313.247 1382.22 313.61 1381.79 314.154L1372.53 326.377C1371.63 327.557 1371.9 329.342 1373.05 330.158C1374.2 330.975 1375.89 330.854 1376.83 329.644C1377.77 328.434 1385.42 318.299 1385.42 318.299L1398.64 316.06L1410.56 325.378C1411.74 326.286 1413.43 326.074 1414.34 324.925C1415.25 323.745 1415.04 322.05 1413.89 321.143L1407.41 316.09L1415.97 307.74L1436.88 315.274L1442.14 325.56C1442.41 326.104 1442.9 326.558 1443.47 326.8C1443.47 326.8 1452.06 330.612 1453.79 331.308C1455.51 332.004 1456.72 331.066 1457.33 329.916C1457.93 328.767 1457.33 326.952 1455.94 326.377L1455.97 326.316Z" fill="#1B1B1B"/>
<path d="M1466.92 336.965H1359.07C1357.53 336.965 1356.29 338.206 1356.29 339.749V348.674C1356.29 350.217 1357.53 351.457 1359.07 351.457H1382.97C1384.24 351.457 1385.27 352.486 1385.27 353.756C1385.27 355.027 1384.24 356.056 1382.97 356.056H1364.61L1371.35 384.282H1365.61C1364.06 384.282 1362.82 385.523 1362.82 387.066V400.438C1362.82 401.981 1364.06 403.222 1365.61 403.222H1373.02C1373.17 393.086 1381.46 384.888 1391.62 384.888C1402.72 384.888 1410.23 394.145 1410.23 403.222H1416.13C1416.28 393.086 1424.57 384.888 1434.73 384.888C1446.35 384.888 1453.33 394.629 1453.33 403.222H1459.23C1460.78 403.222 1462.02 401.981 1462.02 400.438V387.066C1462.02 385.523 1460.78 384.282 1459.23 384.282H1454.54L1462.38 351.457H1466.92C1468.46 351.457 1469.7 350.217 1469.7 348.674V339.749C1469.7 338.206 1468.46 336.965 1466.92 336.965Z" fill="#1B1B1B"/>
<path d="M1391.65 389.214C1383.76 389.214 1377.31 395.567 1377.31 403.464C1377.31 411.36 1383.7 417.774 1391.59 417.774C1399.49 417.774 1405.93 411.421 1405.93 403.524C1405.93 395.628 1399.58 389.214 1391.65 389.214ZM1391.59 408.909C1388.6 408.909 1386.21 406.489 1386.21 403.494C1386.21 400.529 1388.66 398.109 1391.62 398.109C1394.59 398.109 1397.01 400.529 1397.01 403.524C1397.01 406.519 1394.56 408.909 1391.59 408.909ZM1434.76 389.214C1426.86 389.214 1420.42 395.567 1420.42 403.464C1420.42 411.36 1426.8 417.774 1434.7 417.774C1442.59 417.774 1449.04 411.421 1449.04 403.524C1449.04 395.628 1442.69 389.214 1434.76 389.214ZM1434.7 408.909C1431.7 408.909 1429.31 406.489 1429.31 403.494C1429.31 400.529 1431.77 398.109 1434.73 398.109C1437.69 398.109 1440.11 400.529 1440.11 403.524C1440.11 406.519 1437.66 408.909 1434.7 408.909Z" fill="#1B1B1B"/>
<path d="M2701.44 360.957C2701.44 333.214 2723.8 310.584 2751.44 310.16L2757.83 298.724C2755.98 298.573 2754.14 298.452 2752.23 298.452C2717.78 298.452 2689.73 326.498 2689.73 360.957C2689.73 389.668 2709.21 413.932 2735.65 421.223L2737.92 409.726C2716.84 403.524 2701.41 384.01 2701.41 360.957H2701.44Z" fill="#1B1B1B"/>
<path d="M2768.87 300.721L2766.6 312.218C2787.68 318.42 2803.11 337.934 2803.11 360.987C2803.11 388.73 2780.76 411.36 2753.11 411.784L2746.72 423.219C2748.57 423.371 2750.42 423.492 2752.32 423.492C2786.78 423.492 2814.82 395.446 2814.82 360.987C2814.82 332.276 2795.34 308.012 2768.9 300.751L2768.87 300.721Z" fill="#1B1B1B"/>
<path d="M2782.48 349.702H2754.38L2765.21 295.155L2722.07 372.242H2750.17L2739.34 426.79L2782.48 349.702Z" fill="#1B1B1B"/>
<path d="M2551.43 386.128L2500.73 298.301C2496.34 290.707 2485.39 290.707 2481 298.301L2430.3 386.128C2425.92 393.722 2431.39 403.191 2440.17 403.191H2541.6C2550.37 403.191 2555.84 393.692 2551.46 386.128H2551.43ZM2480.79 391.513L2487.18 359.444H2470.66L2496.01 314.124L2489.63 346.193H2506.14L2480.79 391.513Z" fill="#1B1B1B"/>
<path d="M605.019 16.7271C561.67 16.7271 526.519 51.8822 526.519 95.2361C526.519 138.59 561.67 173.745 605.019 173.745C648.368 173.745 683.519 138.59 683.519 95.2361C683.519 51.8822 648.368 16.7271 605.019 16.7271ZM606.985 153.596C590.529 154.171 576.281 143.431 570.412 129.605C564.422 115.567 566.6 94.0259 582.179 75.0567C583.238 80.0486 584.781 84.0119 586.626 87.2793C593.856 75.3593 603.536 64.1652 600.058 43.2598C626.013 67.2209 640.472 88.1869 642.529 108.79C644.435 127.88 634.755 152.628 606.985 153.596Z" fill="white"/>
<path d="M603.476 94.2075C605.23 104.736 600.36 110.393 596.7 116.384C595.762 114.75 594.975 112.753 594.461 110.242C586.626 119.802 585.537 130.633 588.532 137.713C591.497 144.671 598.666 150.087 606.955 149.784C620.93 149.3 625.801 136.835 624.833 127.215C623.804 116.838 616.514 106.279 603.446 94.2075H603.476Z" fill="white"/>
<path d="M1689.17 15.8801C1645.82 15.8801 1610.64 51.0352 1610.64 94.4194C1610.64 137.804 1645.79 172.959 1689.17 172.959C1732.55 172.959 1767.7 137.804 1767.7 94.4194C1767.7 51.0352 1732.55 15.8801 1689.17 15.8801ZM1638.65 58.3264C1644.76 58.3264 1648 61.5031 1650.39 63.8024C1652.5 65.8597 1653.62 66.8581 1656.16 66.8581C1658.7 66.8581 1659.82 65.8597 1661.94 63.8024C1664.3 61.5031 1667.57 58.3264 1673.68 58.3264C1679.79 58.3264 1683.03 61.5031 1685.42 63.8024C1687.53 65.8597 1688.65 66.8581 1691.19 66.8581C1693.73 66.8581 1694.85 65.8597 1696.97 63.8024C1699.33 61.5031 1702.6 58.3264 1708.71 58.3264C1714.82 58.3264 1718.06 61.5031 1720.45 63.8024C1722.56 65.8597 1723.68 66.8581 1726.22 66.8581C1728.76 66.8581 1729.88 65.8597 1732 63.8024C1734.36 61.5031 1737.63 58.3264 1743.74 58.3264C1746.1 58.3264 1748 60.2325 1748 62.5923C1748 64.9521 1746.1 66.8581 1743.74 66.8581C1741.2 66.8581 1740.08 67.8564 1737.96 69.9137C1735.6 72.213 1732.33 75.3897 1726.22 75.3897C1720.11 75.3897 1716.88 72.213 1714.49 69.9137C1712.37 67.8564 1711.25 66.8581 1708.71 66.8581C1706.17 66.8581 1705.05 67.8564 1702.93 69.9137C1700.57 72.213 1697.3 75.3897 1691.19 75.3897C1685.08 75.3897 1681.85 72.213 1679.46 69.9137C1677.34 67.8564 1676.22 66.8581 1673.68 66.8581C1671.14 66.8581 1670.02 67.8564 1667.9 69.9137C1665.54 72.213 1662.27 75.3897 1656.16 75.3897C1650.05 75.3897 1646.82 72.213 1644.43 69.9137C1642.31 67.8564 1641.19 66.8581 1638.65 66.8581C1636.29 66.8581 1634.38 64.9521 1634.38 62.5923C1634.38 60.2325 1636.29 58.3264 1638.65 58.3264ZM1743.68 123.494C1741.14 123.494 1740.02 124.492 1737.9 126.549C1735.54 128.848 1732.27 132.025 1726.16 132.025C1720.05 132.025 1716.82 128.848 1714.43 126.549C1712.31 124.492 1711.19 123.494 1708.65 123.494C1706.11 123.494 1704.99 124.492 1702.87 126.549C1700.51 128.848 1697.24 132.025 1691.13 132.025C1685.02 132.025 1681.79 128.848 1679.4 126.549C1677.28 124.492 1676.16 123.494 1673.62 123.494C1671.08 123.494 1669.96 124.492 1667.84 126.549C1665.48 128.848 1662.21 132.025 1656.1 132.025C1649.99 132.025 1646.76 128.848 1644.37 126.549C1642.25 124.492 1641.13 123.494 1638.59 123.494C1636.23 123.494 1634.32 121.588 1634.32 119.228C1634.32 116.868 1636.23 114.962 1638.59 114.962C1644.7 114.962 1647.94 118.139 1650.33 120.438C1652.44 122.495 1653.56 123.494 1656.1 123.494C1658.64 123.494 1659.76 122.495 1661.88 120.438C1664.24 118.139 1667.51 114.962 1673.62 114.962C1679.73 114.962 1682.97 118.139 1685.36 120.438C1687.47 122.495 1688.59 123.494 1691.13 123.494C1693.67 123.494 1694.79 122.495 1696.91 120.438C1699.27 118.139 1702.54 114.962 1708.65 114.962C1714.76 114.962 1718 118.139 1720.39 120.438C1722.5 122.495 1723.62 123.494 1726.16 123.494C1728.7 123.494 1729.82 122.495 1731.94 120.438C1734.3 118.139 1737.57 114.962 1743.68 114.962C1746.04 114.962 1747.94 116.868 1747.94 119.228C1747.94 121.588 1746.04 123.494 1743.68 123.494ZM1743.68 95.1758C1741.14 95.1758 1740.02 96.1742 1737.9 98.2314C1735.54 100.531 1732.27 103.707 1726.16 103.707C1720.05 103.707 1716.82 100.531 1714.43 98.2314C1712.31 96.1742 1711.19 95.1758 1708.65 95.1758C1706.11 95.1758 1704.99 96.1742 1702.87 98.2314C1700.51 100.531 1697.24 103.707 1691.13 103.707C1685.02 103.707 1681.79 100.531 1679.4 98.2314C1677.28 96.1742 1676.16 95.1758 1673.62 95.1758C1671.08 95.1758 1669.96 96.1742 1667.84 98.2314C1665.48 100.531 1662.21 103.707 1656.1 103.707C1649.99 103.707 1646.76 100.531 1644.37 98.2314C1642.25 96.1742 1641.13 95.1758 1638.59 95.1758C1636.23 95.1758 1634.32 93.2698 1634.32 90.9099C1634.32 88.5501 1636.23 86.6441 1638.59 86.6441C1644.7 86.6441 1647.94 89.8209 1650.33 92.1202C1652.44 94.1774 1653.56 95.1758 1656.1 95.1758C1658.64 95.1758 1659.76 94.1774 1661.88 92.1202C1664.24 89.8209 1667.51 86.6441 1673.62 86.6441C1679.73 86.6441 1682.97 89.8209 1685.36 92.1202C1687.47 94.1774 1688.59 95.1758 1691.13 95.1758C1693.67 95.1758 1694.79 94.1774 1696.91 92.1202C1699.27 89.8209 1702.54 86.6441 1708.65 86.6441C1714.76 86.6441 1718 89.8209 1720.39 92.1202C1722.5 94.1774 1723.62 95.1758 1726.16 95.1758C1728.7 95.1758 1729.82 94.1774 1731.94 92.1202C1734.3 89.8209 1737.57 86.6441 1743.68 86.6441C1746.04 86.6441 1747.94 88.5501 1747.94 90.9099C1747.94 93.2698 1746.04 95.1758 1743.68 95.1758Z" fill="white"/>
<path d="M1724.17 396.415C1718.06 396.415 1714.82 393.238 1712.43 390.939C1710.31 388.881 1709.19 387.883 1706.65 387.883C1704.11 387.883 1702.99 388.881 1700.87 390.939C1698.51 393.238 1695.25 396.415 1689.14 396.415C1683.03 396.415 1679.79 393.238 1677.4 390.939C1675.28 388.881 1674.16 387.883 1671.62 387.883C1669.08 387.883 1667.96 388.881 1665.84 390.939C1663.48 393.238 1660.22 396.415 1654.11 396.415C1648 396.415 1644.76 393.238 1642.37 390.939C1640.25 388.881 1639.13 387.883 1636.59 387.883C1634.23 387.883 1632.33 385.977 1632.33 383.617C1632.33 381.257 1634.23 379.351 1636.59 379.351C1642.7 379.351 1645.94 382.528 1648.33 384.827C1650.45 386.885 1651.57 387.883 1654.11 387.883C1656.65 387.883 1657.77 386.885 1659.88 384.827C1662.24 382.528 1665.51 379.351 1671.62 379.351C1677.73 379.351 1680.97 382.528 1683.36 384.827C1685.48 386.885 1686.6 387.883 1689.14 387.883C1691.68 387.883 1692.8 386.885 1694.91 384.827C1697.27 382.528 1700.54 379.351 1706.65 379.351C1712.76 379.351 1716 382.528 1718.39 384.827C1720.51 386.885 1721.63 387.883 1724.17 387.883C1726.71 387.883 1727.83 386.885 1729.94 384.827C1732.3 382.528 1735.57 379.351 1741.68 379.351C1744.04 379.351 1745.95 381.257 1745.95 383.617C1745.95 385.977 1744.04 387.883 1741.68 387.883C1739.14 387.883 1738.02 388.881 1735.9 390.939C1733.54 393.238 1730.28 396.415 1724.17 396.415Z" fill="#1B1B1B"/>
<path d="M1724.17 368.097C1718.06 368.097 1714.82 364.92 1712.43 362.621C1710.31 360.564 1709.19 359.565 1706.65 359.565C1704.11 359.565 1702.99 360.564 1700.87 362.621C1698.51 364.92 1695.25 368.097 1689.14 368.097C1683.03 368.097 1679.79 364.92 1677.4 362.621C1675.28 360.564 1674.16 359.565 1671.62 359.565C1669.08 359.565 1667.96 360.564 1665.84 362.621C1663.48 364.92 1660.22 368.097 1654.11 368.097C1648 368.097 1644.76 364.92 1642.37 362.621C1640.25 360.564 1639.13 359.565 1636.59 359.565C1634.23 359.565 1632.33 357.659 1632.33 355.3C1632.33 352.94 1634.23 351.034 1636.59 351.034C1642.7 351.034 1645.94 354.21 1648.33 356.51C1650.45 358.567 1651.57 359.565 1654.11 359.565C1656.65 359.565 1657.77 358.567 1659.88 356.51C1662.24 354.21 1665.51 351.034 1671.62 351.034C1677.73 351.034 1680.97 354.21 1683.36 356.51C1685.48 358.567 1686.6 359.565 1689.14 359.565C1691.68 359.565 1692.8 358.567 1694.91 356.51C1697.27 354.21 1700.54 351.034 1706.65 351.034C1712.76 351.034 1716 354.21 1718.39 356.51C1720.51 358.567 1721.63 359.565 1724.17 359.565C1726.71 359.565 1727.83 358.567 1729.94 356.51C1732.3 354.21 1735.57 351.034 1741.68 351.034C1744.04 351.034 1745.95 352.94 1745.95 355.3C1745.95 357.659 1744.04 359.565 1741.68 359.565C1739.14 359.565 1738.02 360.564 1735.9 362.621C1733.54 364.92 1730.28 368.097 1724.17 368.097Z" fill="#1B1B1B"/>
<path d="M1724.17 339.779C1718.06 339.779 1714.82 336.602 1712.43 334.303C1710.31 332.246 1709.19 331.247 1706.65 331.247C1704.11 331.247 1702.99 332.246 1700.87 334.303C1698.51 336.602 1695.25 339.779 1689.14 339.779C1683.03 339.779 1679.79 336.602 1677.4 334.303C1675.28 332.246 1674.16 331.247 1671.62 331.247C1669.08 331.247 1667.96 332.246 1665.84 334.303C1663.48 336.602 1660.22 339.779 1654.11 339.779C1648 339.779 1644.76 336.602 1642.37 334.303C1640.25 332.246 1639.13 331.247 1636.59 331.247C1634.23 331.247 1632.33 329.341 1632.33 326.982C1632.33 324.622 1634.23 322.716 1636.59 322.716C1642.7 322.716 1645.94 325.892 1648.33 328.192C1650.45 330.249 1651.57 331.247 1654.11 331.247C1656.65 331.247 1657.77 330.249 1659.88 328.192C1662.24 325.892 1665.51 322.716 1671.62 322.716C1677.73 322.716 1680.97 325.892 1683.36 328.192C1685.48 330.249 1686.6 331.247 1689.14 331.247C1691.68 331.247 1692.8 330.249 1694.91 328.192C1697.27 325.892 1700.54 322.716 1706.65 322.716C1712.76 322.716 1716 325.892 1718.39 328.192C1720.51 330.249 1721.63 331.247 1724.17 331.247C1726.71 331.247 1727.83 330.249 1729.94 328.192C1732.3 325.892 1735.57 322.716 1741.68 322.716C1744.04 322.716 1745.95 324.622 1745.95 326.982C1745.95 329.341 1744.04 331.247 1741.68 331.247C1739.14 331.247 1738.02 332.246 1735.9 334.303C1733.54 336.602 1730.28 339.779 1724.17 339.779Z" fill="#1B1B1B"/>
<path d="M1724.17 665.372C1718.06 665.372 1714.82 662.196 1712.43 659.896C1710.31 657.839 1709.19 656.841 1706.65 656.841C1704.11 656.841 1702.99 657.839 1700.87 659.896C1698.51 662.196 1695.25 665.372 1689.14 665.372C1683.03 665.372 1679.79 662.196 1677.4 659.896C1675.28 657.839 1674.16 656.841 1671.62 656.841C1669.08 656.841 1667.96 657.839 1665.84 659.896C1663.48 662.196 1660.22 665.372 1654.11 665.372C1648 665.372 1644.76 662.196 1642.37 659.896C1640.25 657.839 1639.13 656.841 1636.59 656.841C1634.23 656.841 1632.33 654.935 1632.33 652.575C1632.33 650.215 1634.23 648.309 1636.59 648.309C1642.7 648.309 1645.94 651.486 1648.33 653.785C1650.45 655.842 1651.57 656.841 1654.11 656.841C1656.65 656.841 1657.77 655.842 1659.88 653.785C1662.24 651.486 1665.51 648.309 1671.62 648.309C1677.73 648.309 1680.97 651.486 1683.36 653.785C1685.48 655.842 1686.6 656.841 1689.14 656.841C1691.68 656.841 1692.8 655.842 1694.91 653.785C1697.27 651.486 1700.54 648.309 1706.65 648.309C1712.76 648.309 1716 651.486 1718.39 653.785C1720.51 655.842 1721.63 656.841 1724.17 656.841C1726.71 656.841 1727.83 655.842 1729.94 653.785C1732.3 651.486 1735.57 648.309 1741.68 648.309C1744.04 648.309 1745.95 650.215 1745.95 652.575C1745.95 654.935 1744.04 656.841 1741.68 656.841C1739.14 656.841 1738.02 657.839 1735.9 659.896C1733.54 662.196 1730.28 665.372 1724.17 665.372Z" fill="white"/>
<path d="M1724.17 637.085C1718.06 637.085 1714.82 633.908 1712.43 631.609C1710.31 629.552 1709.19 628.553 1706.65 628.553C1704.11 628.553 1702.99 629.552 1700.87 631.609C1698.51 633.908 1695.25 637.085 1689.14 637.085C1683.03 637.085 1679.79 633.908 1677.4 631.609C1675.28 629.552 1674.16 628.553 1671.62 628.553C1669.08 628.553 1667.96 629.552 1665.84 631.609C1663.48 633.908 1660.22 637.085 1654.11 637.085C1648 637.085 1644.76 633.908 1642.37 631.609C1640.25 629.552 1639.13 628.553 1636.59 628.553C1634.23 628.553 1632.33 626.647 1632.33 624.287C1632.33 621.928 1634.23 620.021 1636.59 620.021C1642.7 620.021 1645.94 623.198 1648.33 625.497C1650.45 627.555 1651.57 628.553 1654.11 628.553C1656.65 628.553 1657.77 627.555 1659.88 625.497C1662.24 623.198 1665.51 620.021 1671.62 620.021C1677.73 620.021 1680.97 623.198 1683.36 625.497C1685.48 627.555 1686.6 628.553 1689.14 628.553C1691.68 628.553 1692.8 627.555 1694.91 625.497C1697.27 623.198 1700.54 620.021 1706.65 620.021C1712.76 620.021 1716 623.198 1718.39 625.497C1720.51 627.555 1721.63 628.553 1724.17 628.553C1726.71 628.553 1727.83 627.555 1729.94 625.497C1732.3 623.198 1735.57 620.021 1741.68 620.021C1744.04 620.021 1745.95 621.928 1745.95 624.287C1745.95 626.647 1744.04 628.553 1741.68 628.553C1739.14 628.553 1738.02 629.552 1735.9 631.609C1733.54 633.908 1730.28 637.085 1724.17 637.085Z" fill="white"/>
<path d="M1724.17 608.767C1718.06 608.767 1714.82 605.59 1712.43 603.291C1710.31 601.234 1709.19 600.236 1706.65 600.236C1704.11 600.236 1702.99 601.234 1700.87 603.291C1698.51 605.59 1695.25 608.767 1689.14 608.767C1683.03 608.767 1679.79 605.59 1677.4 603.291C1675.28 601.234 1674.16 600.236 1671.62 600.236C1669.08 600.236 1667.96 601.234 1665.84 603.291C1663.48 605.59 1660.22 608.767 1654.11 608.767C1648 608.767 1644.76 605.59 1642.37 603.291C1640.25 601.234 1639.13 600.236 1636.59 600.236C1634.23 600.236 1632.33 598.33 1632.33 595.97C1632.33 593.61 1634.23 591.704 1636.59 591.704C1642.7 591.704 1645.94 594.881 1648.33 597.18C1650.45 599.237 1651.57 600.236 1654.11 600.236C1656.65 600.236 1657.77 599.237 1659.88 597.18C1662.24 594.881 1665.51 591.704 1671.62 591.704C1677.73 591.704 1680.97 594.881 1683.36 597.18C1685.48 599.237 1686.6 600.236 1689.14 600.236C1691.68 600.236 1692.8 599.237 1694.91 597.18C1697.27 594.881 1700.54 591.704 1706.65 591.704C1712.76 591.704 1716 594.881 1718.39 597.18C1720.51 599.237 1721.63 600.236 1724.17 600.236C1726.71 600.236 1727.83 599.237 1729.94 597.18C1732.3 594.881 1735.57 591.704 1741.68 591.704C1744.04 591.704 1745.95 593.61 1745.95 595.97C1745.95 598.33 1744.04 600.236 1741.68 600.236C1739.14 600.236 1738.02 601.234 1735.9 603.291C1733.54 605.59 1730.28 608.767 1724.17 608.767Z" fill="white"/>
</svg>
