<svg width="2846" height="455" viewBox="0 0 2846 455" fill="none" xmlns="http://www.w3.org/2000/svg">
<path d="M1485.01 55.9191L1473.15 50.7457L1466.46 37.7062C1466.07 36.9499 1465.4 36.3448 1464.59 36.0725L1435.06 25.4231C1433.82 24.9693 1432.49 25.2718 1431.55 26.1794L1418.64 38.7651L1415.98 36.7078C1415.22 36.133 1414.28 35.8607 1413.31 36.0422L1393.92 39.3399C1393.08 39.4912 1392.32 39.945 1391.78 40.6408L1380.16 55.9796C1379.04 57.462 1379.34 59.7008 1380.82 60.7295C1382.28 61.7581 1384.39 61.6068 1385.57 60.0639C1386.75 58.5512 1396.37 45.784 1396.37 45.784L1412.98 42.9704L1427.95 54.6787C1429.44 55.8283 1431.55 55.5863 1432.7 54.1038C1433.85 52.6214 1433.58 50.5036 1432.13 49.354L1423.99 43.0006L1434.76 32.5025L1461.05 41.972L1467.67 54.8905C1468.04 55.5863 1468.61 56.1309 1469.34 56.4637C1469.34 56.4637 1480.11 61.2438 1482.28 62.1212C1484.46 62.9985 1485.98 61.7884 1486.73 60.3664C1487.49 58.9445 1486.7 56.6452 1484.98 55.9191H1485.01Z" fill="#00BDE3"/>
<path d="M1498.74 69.2914H1363.25C1361.31 69.2914 1359.74 70.8646 1359.74 72.8009V83.9948C1359.74 85.9311 1361.31 87.5043 1363.25 87.5043H1393.26C1394.86 87.5043 1396.13 88.8052 1396.13 90.3784C1396.13 91.9516 1394.83 93.2525 1393.26 93.2525H1370.18L1378.65 128.74H1371.45C1369.51 128.74 1367.94 130.314 1367.94 132.25V149.041C1367.94 150.977 1369.51 152.55 1371.45 152.55H1380.73C1380.92 139.844 1391.32 129.527 1404.12 129.527C1418.09 129.527 1427.5 141.145 1427.5 152.55H1434.91C1435.09 139.844 1445.53 129.527 1458.3 129.527C1472.91 129.527 1481.68 141.78 1481.68 152.55H1489.09C1491.03 152.55 1492.6 150.977 1492.6 149.041V132.25C1492.6 130.314 1491.03 128.74 1489.09 128.74H1483.19L1493.02 87.5043H1498.74C1500.68 87.5043 1502.25 85.9311 1502.25 83.9948V72.8009C1502.25 70.8646 1500.68 69.2914 1498.74 69.2914Z" fill="#1B1B1B"/>
<path d="M1404.18 134.973C1394.26 134.973 1386.18 142.96 1386.15 152.883C1386.15 162.806 1394.16 170.854 1404.09 170.884C1414.01 170.914 1422.09 162.897 1422.12 152.974C1422.15 143.051 1414.13 135.003 1404.18 134.973ZM1404.12 159.69C1400.37 159.69 1397.34 156.635 1397.34 152.913C1397.34 149.162 1400.4 146.136 1404.15 146.167C1407.9 146.167 1410.92 149.222 1410.92 152.974C1410.92 156.725 1407.87 159.72 1404.12 159.72V159.69ZM1458.33 134.973C1448.37 134.973 1440.33 142.96 1440.3 152.883C1440.3 162.806 1448.31 170.854 1458.24 170.884C1468.16 170.914 1476.23 162.897 1476.26 152.974C1476.29 143.051 1468.28 135.003 1458.33 134.973ZM1458.27 159.69C1454.51 159.69 1451.49 156.635 1451.49 152.913C1451.49 149.162 1454.54 146.136 1458.3 146.167C1462.05 146.167 1465.07 149.222 1465.07 152.974C1465.07 156.725 1462.02 159.72 1458.27 159.72V159.69Z" fill="#00BDE3"/>
<path d="M1485.01 337.402L1473.15 332.229L1466.46 319.189C1466.07 318.433 1465.4 317.828 1464.59 317.555L1435.06 306.906C1433.82 306.452 1432.49 306.755 1431.55 307.662L1418.64 320.248L1415.98 318.191C1415.22 317.616 1414.28 317.344 1413.31 317.525L1393.92 320.823C1393.08 320.974 1392.32 321.428 1391.78 322.124L1380.16 337.463C1379.04 338.945 1379.34 341.184 1380.82 342.212C1382.28 343.241 1384.39 343.09 1385.57 341.547C1386.75 340.034 1396.37 327.267 1396.37 327.267L1412.98 324.453L1427.95 336.162C1429.44 337.311 1431.55 337.069 1432.7 335.587C1433.85 334.104 1433.58 331.987 1432.13 330.837L1423.99 324.484L1434.76 313.985L1461.05 323.455L1467.67 336.373C1468.04 337.069 1468.61 337.614 1469.34 337.947C1469.34 337.947 1480.11 342.727 1482.28 343.604C1484.46 344.481 1485.98 343.271 1486.73 341.849C1487.49 340.427 1486.7 338.128 1484.98 337.402H1485.01Z" fill="#00A91C"/>
<path d="M1498.74 350.774H1363.25C1361.31 350.774 1359.74 352.348 1359.74 354.284V365.478C1359.74 367.414 1361.31 368.987 1363.25 368.987H1393.26C1394.86 368.987 1396.13 370.288 1396.13 371.861C1396.13 373.435 1394.83 374.735 1393.26 374.735H1370.18L1378.65 410.223H1371.45C1369.51 410.223 1367.94 411.797 1367.94 413.733V430.524C1367.94 432.46 1369.51 434.033 1371.45 434.033H1380.73C1380.92 421.327 1391.32 411.01 1404.12 411.01C1418.09 411.01 1427.5 422.628 1427.5 434.033H1434.91C1435.09 421.327 1445.53 411.01 1458.3 411.01C1472.91 411.01 1481.68 423.263 1481.68 434.033H1489.09C1491.03 434.033 1492.6 432.46 1492.6 430.524V413.733C1492.6 411.797 1491.03 410.223 1489.09 410.223H1483.19L1493.02 368.987H1498.74C1500.68 368.987 1502.25 367.414 1502.25 365.478V354.284C1502.25 352.348 1500.68 350.774 1498.74 350.774Z" fill="#1B1B1B"/>
<path d="M1404.18 416.426C1394.26 416.426 1386.18 424.413 1386.15 434.336C1386.15 444.259 1394.16 452.307 1404.09 452.337C1414.01 452.367 1422.09 444.35 1422.12 434.427C1422.15 424.503 1414.13 416.456 1404.18 416.426ZM1404.12 441.173C1400.37 441.173 1397.34 438.118 1397.34 434.396C1397.34 430.645 1400.4 427.619 1404.15 427.65C1407.9 427.65 1410.92 430.705 1410.92 434.457C1410.92 438.208 1407.87 441.204 1404.12 441.204V441.173ZM1458.33 416.426C1448.37 416.426 1440.33 424.413 1440.3 434.336C1440.3 444.259 1448.31 452.307 1458.24 452.337C1468.16 452.367 1476.23 444.35 1476.26 434.427C1476.29 424.503 1468.28 416.456 1458.33 416.426ZM1458.27 441.173C1454.51 441.173 1451.49 438.118 1451.49 434.396C1451.49 430.645 1454.54 427.619 1458.3 427.65C1462.05 427.65 1465.07 430.705 1465.07 434.457C1465.07 438.208 1462.02 441.204 1458.27 441.204V441.173Z" fill="#00A91C"/>
<path d="M1750.79 152.49C1742.11 152.49 1737.51 148.012 1734.15 144.715C1731.16 141.78 1729.55 140.388 1725.95 140.388C1722.35 140.388 1720.78 141.78 1717.75 144.715C1714.4 147.982 1709.8 152.49 1701.12 152.49C1692.43 152.49 1687.84 148.012 1684.48 144.715C1681.48 141.78 1679.88 140.388 1676.28 140.388C1672.68 140.388 1671.11 141.78 1668.08 144.715C1664.73 147.982 1660.13 152.49 1651.45 152.49C1642.76 152.49 1638.17 148.012 1634.81 144.715C1631.81 141.78 1630.21 140.388 1626.61 140.388C1623.28 140.388 1620.56 137.665 1620.56 134.337C1620.56 131.009 1623.28 128.287 1626.61 128.287C1635.29 128.287 1639.89 132.764 1643.25 136.062C1646.24 138.997 1647.85 140.388 1651.45 140.388C1655.05 140.388 1656.62 138.997 1659.64 136.062C1663 132.794 1667.6 128.287 1676.28 128.287C1684.96 128.287 1689.56 132.764 1692.92 136.062C1695.91 138.997 1697.52 140.388 1701.12 140.388C1704.72 140.388 1706.29 138.997 1709.31 136.062C1712.67 132.794 1717.27 128.287 1725.95 128.287C1734.63 128.287 1739.23 132.764 1742.59 136.062C1745.58 138.997 1747.19 140.388 1750.79 140.388C1754.39 140.388 1755.99 138.966 1758.99 136.062C1762.34 132.794 1766.94 128.287 1775.62 128.287C1778.95 128.287 1781.67 131.009 1781.67 134.337C1781.67 137.665 1778.95 140.388 1775.62 140.388C1772.02 140.388 1770.42 141.78 1767.43 144.715C1764.07 147.982 1759.44 152.49 1750.79 152.49Z" fill="#00BDE3"/>
<path d="M1750.79 112.343C1742.11 112.343 1737.51 107.865 1734.15 104.568C1731.16 101.633 1729.55 100.241 1725.95 100.241C1722.35 100.241 1720.78 101.633 1717.75 104.568C1714.4 107.835 1709.8 112.343 1701.12 112.343C1692.43 112.343 1687.84 107.865 1684.48 104.568C1681.48 101.633 1679.88 100.241 1676.28 100.241C1672.68 100.241 1671.11 101.633 1668.08 104.568C1664.73 107.835 1660.13 112.343 1651.45 112.343C1642.76 112.343 1638.17 107.865 1634.81 104.568C1631.81 101.633 1630.21 100.241 1626.61 100.241C1623.28 100.241 1620.56 97.5184 1620.56 94.1904C1620.56 90.8625 1623.28 88.1396 1626.61 88.1396C1635.29 88.1396 1639.89 92.6173 1643.25 95.9149C1646.24 98.8496 1647.85 100.241 1651.45 100.241C1655.05 100.241 1656.62 98.8496 1659.64 95.9149C1663 92.6475 1667.6 88.1396 1676.28 88.1396C1684.96 88.1396 1689.56 92.6173 1692.92 95.9149C1695.91 98.8496 1697.52 100.241 1701.12 100.241C1704.72 100.241 1706.29 98.8496 1709.31 95.9149C1712.67 92.6475 1717.27 88.1396 1725.95 88.1396C1734.63 88.1396 1739.23 92.6173 1742.59 95.9149C1745.58 98.8496 1747.19 100.241 1750.79 100.241C1754.39 100.241 1755.99 98.8193 1758.99 95.9149C1762.34 92.6475 1766.94 88.1396 1775.62 88.1396C1778.95 88.1396 1781.67 90.8625 1781.67 94.1904C1781.67 97.5184 1778.95 100.241 1775.62 100.241C1772.02 100.241 1770.42 101.633 1767.43 104.568C1764.07 107.835 1759.44 112.343 1750.79 112.343Z" fill="#00BDE3"/>
<path d="M1750.79 72.1655C1742.11 72.1655 1737.51 67.6879 1734.15 64.3902C1731.16 61.4556 1729.55 60.0639 1725.95 60.0639C1722.35 60.0639 1720.78 61.4556 1717.75 64.3902C1714.4 67.6576 1709.8 72.1655 1701.12 72.1655C1692.43 72.1655 1687.84 67.6879 1684.48 64.3902C1681.48 61.4556 1679.88 60.0639 1676.28 60.0639C1672.68 60.0639 1671.11 61.4556 1668.08 64.3902C1664.73 67.6576 1660.13 72.1655 1651.45 72.1655C1642.76 72.1655 1638.17 67.6879 1634.81 64.3902C1631.81 61.4556 1630.21 60.0639 1626.61 60.0639C1623.28 60.0639 1620.56 57.341 1620.56 54.0131C1620.56 50.6851 1623.28 47.9623 1626.61 47.9623C1635.29 47.9623 1639.89 52.4399 1643.25 55.7376C1646.24 58.6722 1647.85 60.0639 1651.45 60.0639C1655.05 60.0639 1656.62 58.6722 1659.64 55.7376C1663 52.4701 1667.6 47.9623 1676.28 47.9623C1684.96 47.9623 1689.56 52.4399 1692.92 55.7376C1695.91 58.6722 1697.52 60.0639 1701.12 60.0639C1704.72 60.0639 1706.29 58.6722 1709.31 55.7376C1712.67 52.4701 1717.27 47.9623 1725.95 47.9623C1734.63 47.9623 1739.23 52.4399 1742.59 55.7376C1745.58 58.6722 1747.19 60.0639 1750.79 60.0639C1754.39 60.0639 1755.99 58.642 1758.99 55.7376C1762.34 52.4701 1766.94 47.9623 1775.62 47.9623C1778.95 47.9623 1781.67 50.6851 1781.67 54.0131C1781.67 57.341 1778.95 60.0639 1775.62 60.0639C1772.02 60.0639 1770.42 61.4556 1767.43 64.3902C1764.07 67.6576 1759.44 72.1655 1750.79 72.1655Z" fill="#00BDE3"/>
<path d="M2254.49 436.272C2296.42 436.272 2330.42 402.274 2330.42 360.335C2330.42 318.395 2296.42 284.397 2254.49 284.397C2212.56 284.397 2178.56 318.395 2178.56 360.335C2178.56 402.274 2212.56 436.272 2254.49 436.272Z" fill="#1B1B1B"/>
<path d="M2254.49 154.789C2296.42 154.789 2330.42 120.791 2330.42 78.8516C2330.42 36.9124 2296.42 2.91406 2254.49 2.91406C2212.56 2.91406 2178.56 36.9124 2178.56 78.8516C2178.56 120.791 2212.56 154.789 2254.49 154.789Z" fill="#1B1B1B"/>
<path d="M210.129 162.383C184.023 134.731 148.691 118.878 110.696 117.788C72.6407 116.699 36.5216 130.465 8.8726 156.604L0.553711 147.8C30.5622 119.483 69.7064 104.507 111.059 105.687C152.321 106.867 190.618 124.051 218.962 154.063L210.16 162.383H210.129Z" fill="#00BDE3"/>
<path d="M65.683 71.7722H77.874L56.2448 40.3988L34.6157 71.7722H47.5327C47.7142 84.2065 51.5863 91.1045 54.7323 96.6107C57.5456 101.542 59.5724 105.112 59.5724 113.281C59.5724 121.449 57.5456 125.019 54.7021 129.981C51.4653 135.638 47.4722 142.657 47.4722 155.666H65.6225C65.6225 147.468 67.6493 143.928 70.4928 138.966C73.7296 133.309 77.7227 126.29 77.7227 113.281C77.7227 100.271 73.6994 93.2525 70.4928 87.595C67.7703 82.8451 65.804 79.3054 65.6528 71.7722H65.683Z" fill="#1B1B1B"/>
<path d="M119.045 71.7722H131.236L109.607 40.3988L87.9777 71.7722H100.895C101.076 84.2065 104.948 91.1045 108.094 96.6107C110.908 101.542 112.934 105.112 112.934 113.281C112.934 121.449 110.908 125.019 108.064 129.981C104.827 135.638 100.834 142.657 100.834 155.666H118.984C118.984 147.468 121.011 143.928 123.855 138.966C127.092 133.309 131.085 126.29 131.085 113.281C131.085 100.271 127.061 93.2525 123.855 87.595C121.132 82.8451 119.166 79.3054 119.015 71.7722H119.045Z" fill="#1B1B1B"/>
<path d="M172.437 71.7722H184.628L162.999 40.3988L141.37 71.7722H154.287C154.468 84.2065 158.34 91.1045 161.486 96.6107C164.3 101.542 166.327 105.112 166.327 113.281C166.327 121.449 164.3 125.019 161.456 129.981C158.219 135.638 154.226 142.657 154.226 155.666H172.377C172.377 147.468 174.403 143.928 177.247 138.966C180.484 133.309 184.477 126.29 184.477 113.281C184.477 100.271 180.454 93.2525 177.247 87.595C174.524 82.8451 172.558 79.3054 172.407 71.7722H172.437Z" fill="#1B1B1B"/>
<path d="M323.176 68.1417C324.023 68.9888 325.051 69.5032 326.14 69.7149C327.955 70.078 329.891 69.5334 331.313 68.1417C333.551 65.9029 333.551 62.2725 331.313 60.0337L316.248 44.9672C315.673 44.3923 315.038 43.999 314.342 43.6965C312.255 42.8494 309.805 43.2729 308.111 44.9672C305.872 47.206 305.872 50.8365 308.111 53.0753L323.176 68.1417Z" fill="#00BDE3"/>
<path d="M361.2 55.7678C364.377 55.7678 366.948 53.1963 366.948 50.0196V28.7208C366.948 25.5441 364.377 22.9725 361.2 22.9725C358.024 22.9725 355.453 25.5441 355.453 28.7208V50.0196C355.453 53.1963 358.024 55.7678 361.2 55.7678Z" fill="#00BDE3"/>
<path d="M395.202 69.8359C396.684 69.8359 398.136 69.2914 399.256 68.172L414.32 53.1055C416.559 50.8667 416.559 47.2362 414.32 44.9975C412.082 42.7587 408.452 42.7587 406.213 44.9975L391.148 60.0639C388.91 62.3027 388.91 65.9332 391.148 68.172C392.268 69.2914 393.75 69.8662 395.202 69.8662V69.8359Z" fill="#00BDE3"/>
<path d="M430.595 92.2844H409.268C406.092 92.2844 403.521 94.856 403.521 98.0327C403.521 101.209 406.092 103.781 409.268 103.781H430.595C433.771 103.781 436.343 101.209 436.343 98.0327C436.343 94.856 433.771 92.2844 430.595 92.2844Z" fill="#00BDE3"/>
<path d="M361.261 62.5447C356.905 62.5447 352.76 63.3313 348.919 64.7834C348.919 64.7834 348.828 64.8137 348.798 64.844C348.011 65.1465 347.255 65.449 346.499 65.7818C346.347 65.8423 346.196 65.9331 346.045 65.9936C345.41 66.2962 344.744 66.5987 344.139 66.9617C343.716 67.2038 343.322 67.4458 342.929 67.6878C342.596 67.8996 342.233 68.0811 341.901 68.3232C332.16 74.6462 325.686 85.5982 325.686 98.0628C325.686 117.667 341.598 133.551 361.231 133.551C365.587 133.551 369.731 132.764 373.573 131.312C373.573 131.312 373.664 131.282 373.694 131.251C374.48 130.949 375.237 130.646 375.993 130.314C376.144 130.253 376.295 130.162 376.447 130.102C377.082 129.799 377.747 129.497 378.352 129.134C378.776 128.892 379.169 128.65 379.562 128.408C379.895 128.196 380.258 128.014 380.591 127.772C390.332 121.449 396.805 110.497 396.805 98.0326C396.805 78.428 380.893 62.5447 361.261 62.5447Z" fill="#1B1B1B"/>
<path d="M399.256 127.924C398.408 127.076 397.38 126.562 396.291 126.35C394.476 125.987 392.54 126.532 391.118 127.924C388.88 130.162 388.88 133.793 391.118 136.032L406.183 151.098C406.758 151.673 407.393 152.066 408.089 152.369C410.176 153.216 412.626 152.792 414.32 151.098C416.559 148.859 416.559 145.229 414.32 142.99L399.256 127.924Z" fill="#00BDE3"/>
<path d="M327.229 126.26C325.747 126.26 324.295 126.804 323.176 127.924L308.111 142.99C305.872 145.229 305.872 148.859 308.111 151.098C310.349 153.337 313.979 153.337 316.218 151.098L331.283 136.032C333.521 133.793 333.521 130.162 331.283 127.924C330.163 126.804 328.681 126.229 327.229 126.229V126.26Z" fill="#00BDE3"/>
<path d="M318.91 98.0327C318.91 94.856 316.339 92.2844 313.162 92.2844H291.836C288.66 92.2844 286.088 94.856 286.088 98.0327C286.088 101.209 288.66 103.781 291.836 103.781H313.162C316.339 103.781 318.91 101.209 318.91 98.0327Z" fill="#00BDE3"/>
<path d="M361.231 140.297C358.054 140.297 355.483 142.869 355.483 146.046V167.344C355.483 170.521 358.054 173.093 361.231 173.093C364.407 173.093 366.978 170.521 366.978 167.344V146.046C366.978 142.869 364.407 140.297 361.231 140.297Z" fill="#00BDE3"/>
<path d="M945.398 148.496H943.916H927.702C925.735 148.496 924.162 146.893 924.162 144.957C924.162 143.02 925.766 141.417 927.702 141.417H943.916V104.931H945.398C949.18 104.931 952.265 101.845 952.265 98.063C952.265 94.493 949.543 91.5886 946.064 91.2558H927.732C925.766 91.2558 924.193 89.6826 924.193 87.7161C924.193 85.7496 925.796 84.1764 927.732 84.1764H943.946V47.5993H945.429C949.21 47.5993 952.295 44.5134 952.295 40.7317C952.295 36.9499 949.21 33.864 945.429 33.864H839.037C835.256 33.864 832.171 36.9499 832.171 40.7317C832.171 44.5134 835.256 47.5993 839.037 47.5993H840.52V84.1764H856.613C858.579 84.1764 860.152 85.7798 860.152 87.7161C860.152 89.6523 858.549 91.2558 856.613 91.2558H838.402C834.923 91.5886 832.201 94.493 832.201 98.063C832.201 101.845 835.286 104.931 839.068 104.931H840.55V141.417H856.643C858.61 141.417 860.183 143.02 860.183 144.957C860.183 146.893 858.579 148.496 856.643 148.496H840.55H839.068C835.286 148.496 832.201 151.582 832.201 155.364C832.201 159.146 835.286 162.232 839.068 162.232H945.459C949.24 162.232 952.326 159.146 952.326 155.364C952.326 151.582 949.24 148.496 945.459 148.496H945.398Z" fill="#1B1B1B"/>
<path d="M905.589 88.8052C910.338 96.0359 914.845 102.904 914.845 111.042C914.845 123.506 904.681 133.611 892.218 133.611C879.755 133.611 869.591 123.506 869.591 111.042C869.591 103.055 873.735 96.8527 878.514 89.6523C883.536 82.2098 889.223 75.7959 891.068 63.4523C891.159 62.9077 891.613 62.454 892.218 62.454C892.762 62.454 893.277 62.8775 893.367 63.4523C895.182 74.9488 900.718 81.3929 905.589 88.8354V88.8052ZM895.394 123.567C895.394 121.782 893.972 120.33 892.218 120.33C887.075 120.33 882.871 116.155 882.871 111.012C882.871 109.227 881.449 107.774 879.694 107.774C877.94 107.774 876.457 109.227 876.457 111.012C876.457 119.694 883.536 126.744 892.218 126.744C894.003 126.744 895.394 125.322 895.394 123.567Z" fill="#00BDE3"/>
<path d="M892.218 120.36C894.003 120.36 895.394 121.812 895.394 123.597C895.394 125.382 893.973 126.774 892.218 126.774C883.536 126.774 876.458 119.725 876.458 111.042C876.458 109.257 877.879 107.805 879.694 107.805C881.509 107.805 882.871 109.257 882.871 111.042C882.871 116.185 887.075 120.36 892.218 120.36Z" fill="#1B1B1B"/>
<path d="M670.966 111.586C673.507 136.576 660.832 168.948 624.471 170.219C602.932 170.975 584.298 156.907 576.614 138.815C568.749 120.481 571.623 92.2541 591.982 67.4156C593.343 73.9505 595.37 79.1844 597.82 83.42C607.288 67.8089 619.963 53.1357 615.396 25.7861C649.367 57.1595 668.273 84.5999 670.966 111.586ZM624.471 165.227C642.772 164.622 649.155 148.284 647.885 135.699C646.523 122.115 636.994 108.289 619.903 92.5264C622.202 106.262 615.819 113.674 611.07 121.54C609.829 119.392 608.801 116.76 608.135 113.492C597.88 126.018 596.459 140.207 600.391 149.434C604.263 158.541 613.671 165.65 624.501 165.227H624.471Z" fill="#1B1B1B"/>
<path d="M647.884 135.699C649.155 148.284 642.772 164.591 624.47 165.227C613.641 165.65 604.233 158.541 600.361 149.434C596.428 140.207 597.85 126.018 608.105 113.492C608.801 116.79 609.829 119.392 611.039 121.54C615.819 113.674 622.171 106.292 619.872 92.5264C636.934 108.289 646.463 122.115 647.854 135.699H647.884Z" fill="#00BDE3"/>
<path d="M1980.9 40.55H1969.53C1969.2 40.55 1968.92 40.8209 1968.92 41.1551V166.225C1968.92 166.559 1969.2 166.83 1969.53 166.83H1980.9C1981.24 166.83 1981.51 166.559 1981.51 166.225V41.1551C1981.51 40.8209 1981.24 40.55 1980.9 40.55Z" fill="#1B1B1B"/>
<path d="M2015.54 54.1644C2003.74 57.9764 1987.98 50.776 1987.89 53.3173C1987.89 53.3173 1990.92 35.4372 2003.26 30.294C2011.91 26.6938 2027.79 33.5917 2030.91 31.1411C2030.91 31.1411 2028.25 50.0499 2015.54 54.1644Z" fill="#00BDE3"/>
<path d="M2015.54 84.9327C2003.74 88.7447 1987.98 81.5443 1987.89 84.0856C1987.89 84.0856 1990.92 66.2055 2003.26 61.0623C2011.91 57.4621 2027.79 64.36 2030.91 61.9094C2030.91 61.9094 2028.25 80.8182 2015.54 84.9327Z" fill="#00BDE3"/>
<path d="M2015.54 115.701C2003.74 119.513 1987.98 112.312 1987.89 114.854C1987.89 114.854 1990.92 96.9737 2003.26 91.8305C2011.91 88.2303 2027.79 95.1282 2030.91 92.6776C2030.91 92.6776 2028.25 111.586 2015.54 115.701Z" fill="#00BDE3"/>
<path d="M1934.92 54.1644C1946.72 57.9764 1962.48 50.776 1962.57 53.3173C1962.57 53.3173 1959.55 35.4372 1947.2 30.294C1938.55 26.6938 1922.67 33.5917 1919.56 31.1411C1919.56 31.1411 1922.22 50.0499 1934.92 54.1644Z" fill="#00BDE3"/>
<path d="M1934.92 84.9327C1946.72 88.7447 1962.48 81.5443 1962.57 84.0856C1962.57 84.0856 1959.55 66.2055 1947.2 61.0623C1938.55 57.4621 1922.67 64.36 1919.56 61.9094C1919.56 61.9094 1922.22 80.8182 1934.92 84.9327Z" fill="#00BDE3"/>
<path d="M1934.92 115.701C1946.72 119.513 1962.48 112.312 1962.57 114.854C1962.57 114.854 1959.55 96.9737 1947.2 91.8305C1938.55 88.2303 1922.67 95.1282 1919.56 92.6776C1919.56 92.6776 1922.22 111.586 1934.92 115.701Z" fill="#00BDE3"/>
<path d="M2233.01 78.8516L2189.84 78.7609C2189.9 73.4059 2189.66 62.7868 2197.53 46.7824C2205.39 30.7781 2219.34 23.3053 2222.18 21.4296L2245.26 57.6133C2244.63 57.9461 2239 60.669 2236.01 65.9937C2233.01 71.3184 2232.8 76.038 2233.04 78.8516H2233.01Z" fill="#00BDE3"/>
<path d="M2272.94 65.9331C2275.18 69.6846 2276.21 73.6479 2276.03 77.7624L2319.13 75.9774C2319.04 64.8137 2315.93 54.1946 2309.79 43.9688C2303.4 33.3194 2295.09 25.3625 2284.74 20.0076L2263.14 57.3107C2267.26 59.0655 2270.55 61.9396 2272.94 65.9331Z" fill="#00BDE3"/>
<path d="M2289.04 131.251L2267.56 94.0088C2266.89 94.4626 2261.63 98.4561 2255.31 98.4561C2248.98 98.4561 2244.84 96.3081 2242.96 95.1282L2223.06 133.339C2227.48 135.487 2237.97 141.477 2256.4 141.477C2273.09 141.477 2286.43 132.855 2289.04 131.282V131.251Z" fill="#00BDE3"/>
<path d="M2254.19 87.5647C2259.95 87.5647 2264.62 82.8916 2264.62 77.1271C2264.62 71.3625 2259.95 66.6895 2254.19 66.6895C2248.42 66.6895 2243.75 71.3625 2243.75 77.1271C2243.75 82.8916 2248.42 87.5647 2254.19 87.5647Z" fill="#00BDE3"/>
<path d="M1183.8 77.2482C1183.8 81.7258 1180.17 85.3563 1175.7 85.3563C1171.22 85.3563 1167.59 81.7258 1167.59 77.2482C1167.59 72.7706 1171.22 69.1401 1175.7 69.1401C1180.17 69.1401 1183.8 72.7706 1183.8 77.2482Z" fill="#00BDE3"/>
<path d="M1199.47 1.82507C1202.38 -1.13982 1204.89 0.82668 1203.89 4.0336L1184.74 66.145C1182.26 64.118 1179.14 62.8473 1175.7 62.8473C1174.03 62.8473 1172.46 63.1801 1170.98 63.7247C1170.58 59.5799 1170.22 54.9813 1170.1 51.7441C1170.01 48.991 1170.1 46.2077 1171.43 43.8176C1175.45 36.6777 1178.66 31.1412 1186.62 19.6447C1192.67 10.9013 1197.78 3.5798 1199.5 1.82507" fill="#1B1B1B"/>
<path d="M1193.69 171.762L1182.05 92.3448L1229.42 135.124C1232.11 137.544 1235.17 136.001 1233.59 131.826C1232.66 129.345 1227.85 121.026 1222.07 111.163C1214.45 98.1838 1210.51 92.5566 1205.37 85.3562C1203.65 82.9661 1200.95 81.6047 1198.23 80.455C1195.99 79.5172 1193.09 78.3977 1190.09 77.3086C1190.03 85.1746 1183.62 91.5885 1175.73 91.5885C1173.55 91.5885 1171.49 91.0742 1169.65 90.1968L1157.67 171.762H1193.72H1193.69Z" fill="#1B1B1B"/>
<path d="M1095.8 84.3577C1098.1 85.2654 1106.85 87.1411 1117.25 89.2892C1130.96 92.133 1137.28 92.9196 1145.45 93.8575C1148.17 94.16 1150.77 93.1617 1153.25 91.9818C1156.34 90.5296 1160.72 88.2303 1164.53 86.2032C1162.54 83.7224 1161.3 80.6365 1161.3 77.2178C1161.3 75.6446 1161.6 74.1622 1162.08 72.7402L1096.11 79.4263" fill="#1B1B1B"/>
<path d="M2706.64 91.3466C2706.64 57.4319 2733.96 29.7797 2767.78 29.2352L2775.58 15.2578C2773.35 15.0461 2771.05 14.925 2768.75 14.925C2726.64 14.925 2692.37 49.2028 2692.37 91.3163C2692.37 126.411 2716.17 156.06 2748.48 164.954L2751.26 150.917C2725.49 143.353 2706.64 119.513 2706.64 91.3163V91.3466Z" fill="#1A1A1A"/>
<path d="M2789.05 17.7083L2786.26 31.7461C2812.04 39.3096 2830.88 63.1497 2830.88 91.3464C2830.88 125.261 2803.57 152.913 2769.75 153.458L2761.94 167.435C2764.18 167.647 2766.48 167.768 2768.78 167.768C2810.89 167.768 2845.16 133.49 2845.16 91.3767C2845.16 56.2821 2821.35 26.6332 2789.05 17.7385V17.7083Z" fill="#1A1A1A"/>
<path d="M2805.65 77.5506H2771.32L2784.57 10.9011L2731.84 105.112H2766.18L2752.96 171.761L2805.65 77.5506Z" fill="#00BDE3"/>
<path d="M2582.22 144.987L2522.84 42.1535C2517.7 33.2589 2504.9 33.2589 2499.76 42.1535L2440.38 144.987C2435.24 153.881 2441.65 164.985 2451.93 164.985H2570.67C2580.92 164.985 2587.34 153.881 2582.22 144.987ZM2499.52 151.28L2506.99 113.734H2487.63L2517.34 60.669L2509.86 98.2142H2529.22L2499.52 151.28Z" fill="#1B1B1B"/>
<path d="M210.129 443.866C184.023 416.214 148.691 400.361 110.696 399.272C72.7617 398.182 36.5216 411.948 8.8726 438.057L0.553711 429.253C30.5622 400.935 69.8274 385.96 111.059 387.14C152.321 388.32 190.618 405.504 218.962 435.516L210.16 443.836L210.129 443.866Z" fill="#00A91C"/>
<path d="M65.683 353.225H77.874L56.2448 321.852L34.6157 353.225H47.5327C47.7142 365.659 51.5863 372.557 54.7323 378.063C57.5456 382.995 59.5724 386.565 59.5724 394.733C59.5724 402.902 57.5456 406.472 54.7021 411.434C51.4653 417.091 47.4722 424.11 47.4722 437.119H65.6225C65.6225 428.92 67.6493 425.381 70.4928 420.419C73.7296 414.762 77.7227 407.743 77.7227 394.733C77.7227 381.724 73.6994 374.705 70.4928 369.048C67.7703 364.298 65.804 360.758 65.6528 353.225H65.683Z" fill="#1B1B1B"/>
<path d="M119.045 353.225H131.236L109.607 321.852L87.9777 353.225H100.895C101.076 365.659 104.948 372.557 108.094 378.063C110.908 382.995 112.934 386.565 112.934 394.733C112.934 402.902 110.908 406.472 108.064 411.434C104.827 417.091 100.834 424.11 100.834 437.119H118.984C118.984 428.92 121.011 425.381 123.855 420.419C127.092 414.762 131.085 407.743 131.085 394.733C131.085 381.724 127.061 374.705 123.855 369.048C121.132 364.298 119.166 360.758 119.015 353.225H119.045Z" fill="#1B1B1B"/>
<path d="M172.437 353.225H184.628L162.999 321.852L141.37 353.225H154.287C154.468 365.659 158.34 372.557 161.486 378.063C164.3 382.995 166.327 386.565 166.327 394.733C166.327 402.902 164.3 406.472 161.456 411.434C158.219 417.091 154.226 424.11 154.226 437.119H172.377C172.377 428.92 174.403 425.381 177.247 420.419C180.484 414.762 184.477 407.743 184.477 394.733C184.477 381.724 180.454 374.705 177.247 369.048C174.524 364.298 172.558 360.758 172.407 353.225H172.437Z" fill="#1B1B1B"/>
<path d="M323.176 349.625C324.023 350.472 325.051 350.986 326.14 351.198C327.955 351.561 329.891 351.016 331.313 349.625C333.551 347.386 333.551 343.755 331.313 341.517L316.248 326.45C315.673 325.875 315.038 325.482 314.342 325.179C312.255 324.332 309.805 324.756 308.111 326.45C305.872 328.689 305.872 332.319 308.111 334.558L323.176 349.625Z" fill="#00A91C"/>
<path d="M361.2 337.251C364.377 337.251 366.948 334.679 366.948 331.503V310.204C366.948 307.027 364.377 304.456 361.2 304.456C358.024 304.456 355.453 307.027 355.453 310.204V331.503C355.453 334.679 358.024 337.251 361.2 337.251Z" fill="#00A91C"/>
<path d="M395.202 351.289C396.684 351.289 398.136 350.744 399.256 349.625L414.32 334.558C416.559 332.319 416.559 328.689 414.32 326.45C412.082 324.211 408.452 324.211 406.213 326.45L391.148 341.517C388.91 343.755 388.91 347.386 391.148 349.625C392.268 350.744 393.75 351.319 395.202 351.319V351.289Z" fill="#00A91C"/>
<path d="M430.595 373.767H409.268C406.092 373.767 403.521 376.339 403.521 379.516C403.521 382.692 406.092 385.264 409.268 385.264H430.595C433.771 385.264 436.343 382.692 436.343 379.516C436.343 376.339 433.771 373.767 430.595 373.767Z" fill="#00A91C"/>
<path d="M361.261 344.028C356.905 344.028 352.76 344.814 348.919 346.266C348.919 346.266 348.828 346.297 348.798 346.327C348.011 346.629 347.255 346.932 346.499 347.265C346.347 347.325 346.196 347.416 346.045 347.477C345.41 347.779 344.744 348.082 344.139 348.445C343.716 348.687 343.322 348.929 342.929 349.171C342.596 349.383 342.233 349.564 341.901 349.806C332.16 356.129 325.686 367.081 325.686 379.546C325.686 399.15 341.598 415.034 361.231 415.034C365.587 415.034 369.731 414.247 373.573 412.795C373.573 412.795 373.664 412.765 373.694 412.734C374.48 412.432 375.237 412.129 375.993 411.797C376.144 411.736 376.295 411.645 376.447 411.585C377.082 411.282 377.747 410.98 378.352 410.617C378.776 410.375 379.169 410.133 379.562 409.891C379.895 409.679 380.258 409.497 380.591 409.255C390.332 402.932 396.805 391.98 396.805 379.516C396.805 359.911 380.893 344.028 361.261 344.028Z" fill="#1B1B1B"/>
<path d="M399.256 409.406C398.408 408.559 397.38 408.045 396.291 407.833C394.476 407.47 392.54 408.015 391.118 409.406C388.88 411.645 388.88 415.276 391.118 417.514L406.183 432.581C406.758 433.156 407.393 433.549 408.089 433.852C410.176 434.699 412.626 434.275 414.32 432.581C416.559 430.342 416.559 426.712 414.32 424.473L399.256 409.406Z" fill="#00A91C"/>
<path d="M327.229 407.712C325.747 407.712 324.295 408.257 323.176 409.376L308.111 424.443C305.872 426.682 305.872 430.312 308.111 432.551C310.349 434.79 313.979 434.79 316.218 432.551L331.283 417.484C333.521 415.246 333.521 411.615 331.283 409.376C330.163 408.257 328.681 407.682 327.229 407.682V407.712Z" fill="#00A91C"/>
<path d="M318.91 379.516C318.91 376.339 316.339 373.767 313.162 373.767H291.836C288.66 373.767 286.088 376.339 286.088 379.516C286.088 382.692 288.66 385.264 291.836 385.264H313.162C316.339 385.264 318.91 382.692 318.91 379.516Z" fill="#00A91C"/>
<path d="M361.231 421.78C358.054 421.78 355.483 424.352 355.483 427.529V448.827C355.483 452.004 358.054 454.576 361.231 454.576C364.407 454.576 366.978 452.004 366.978 448.827V427.529C366.978 424.352 364.407 421.78 361.231 421.78Z" fill="#00A91C"/>
<path d="M945.398 429.979H943.916H927.702C925.735 429.979 924.162 428.376 924.162 426.44C924.162 424.503 925.766 422.9 927.702 422.9H943.916V386.413H945.398C949.18 386.413 952.265 383.328 952.265 379.546C952.265 375.976 949.543 373.072 946.064 372.739H927.732C925.766 372.739 924.193 371.165 924.193 369.199C924.193 367.232 925.796 365.659 927.732 365.659H943.946V329.082H945.429C949.21 329.082 952.295 325.996 952.295 322.215C952.295 318.433 949.21 315.347 945.429 315.347H839.037C835.256 315.347 832.171 318.433 832.171 322.215C832.171 325.996 835.256 329.082 839.037 329.082H840.52V365.659H856.613C858.579 365.659 860.152 367.263 860.152 369.199C860.152 371.135 858.549 372.739 856.613 372.739H838.402C834.923 373.072 832.201 375.976 832.201 379.546C832.201 383.328 835.286 386.413 839.068 386.413H840.55V422.9H856.643C858.61 422.9 860.183 424.503 860.183 426.44C860.183 428.376 858.579 429.979 856.643 429.979H840.55H839.068C835.286 429.979 832.201 433.065 832.201 436.847C832.201 440.629 835.286 443.715 839.068 443.715H945.459C949.24 443.715 952.326 440.629 952.326 436.847C952.326 433.065 949.24 429.979 945.459 429.979H945.398Z" fill="#1B1B1B"/>
<path d="M905.589 370.258C910.338 377.489 914.845 384.356 914.845 392.495C914.845 404.959 904.681 415.064 892.218 415.064C879.755 415.064 869.591 404.959 869.591 392.495C869.591 384.508 873.735 378.305 878.514 371.105C883.536 363.663 889.223 357.249 891.068 344.905C891.159 344.361 891.613 343.907 892.218 343.907C892.762 343.907 893.277 344.33 893.367 344.905C895.182 356.402 900.718 362.846 905.589 370.288V370.258ZM895.394 405.05C895.394 403.265 893.972 401.813 892.218 401.813C887.075 401.813 882.871 397.638 882.871 392.495C882.871 390.71 881.449 389.257 879.694 389.257C877.94 389.257 876.457 390.71 876.457 392.495C876.457 401.178 883.536 408.227 892.218 408.227C894.003 408.227 895.394 406.805 895.394 405.05Z" fill="#00A91C"/>
<path d="M892.218 401.813C894.003 401.813 895.394 403.265 895.394 405.05C895.394 406.835 893.973 408.227 892.218 408.227C883.536 408.227 876.458 401.177 876.458 392.495C876.458 390.71 877.879 389.257 879.694 389.257C881.509 389.257 882.871 390.71 882.871 392.495C882.871 397.638 887.075 401.813 892.218 401.813Z" fill="#1B1B1B"/>
<path d="M670.966 393.069C673.507 418.059 660.832 450.431 624.471 451.702C602.932 452.458 584.298 438.39 576.614 420.298C568.749 401.964 571.623 373.737 591.982 348.899C593.343 355.433 595.37 360.667 597.82 364.903C607.288 349.292 619.963 334.619 615.396 307.269C649.367 338.642 668.273 366.083 670.966 393.069ZM624.471 446.679C642.772 446.074 649.155 429.737 647.885 417.151C646.523 403.567 636.994 389.741 619.903 373.979C622.202 387.714 615.819 395.127 611.07 402.993C609.829 400.845 608.801 398.213 608.135 394.945C597.88 407.47 596.459 421.659 600.391 430.887C604.263 439.993 613.671 447.103 624.501 446.679H624.471Z" fill="#1B1B1B"/>
<path d="M647.884 417.182C649.155 429.767 642.772 446.074 624.47 446.71C613.641 447.133 604.233 440.023 600.361 430.917C596.428 421.69 597.85 407.5 608.105 394.975C608.801 398.273 609.829 400.875 611.039 403.023C615.819 395.157 622.171 387.775 619.872 374.009C636.934 389.772 646.463 403.598 647.854 417.182H647.884Z" fill="#00A91C"/>
<path d="M1980.9 322.033H1969.53C1969.2 322.033 1968.92 322.304 1968.92 322.638V447.708C1968.92 448.042 1969.2 448.313 1969.53 448.313H1980.9C1981.24 448.313 1981.51 448.042 1981.51 447.708V322.638C1981.51 322.304 1981.24 322.033 1980.9 322.033Z" fill="#1B1B1B"/>
<path d="M2015.54 335.647C2003.74 339.459 1987.98 332.259 1987.89 334.8C1987.89 334.8 1990.92 316.92 2003.26 311.777C2011.91 308.177 2027.79 315.075 2030.91 312.624C2030.91 312.624 2028.25 331.533 2015.54 335.647Z" fill="#00A91C"/>
<path d="M2015.54 366.416C2003.74 370.228 1987.98 363.027 1987.89 365.569C1987.89 365.569 1990.92 347.688 2003.26 342.545C2011.91 338.945 2027.79 345.843 2030.91 343.392C2030.91 343.392 2028.25 362.301 2015.54 366.416Z" fill="#00A91C"/>
<path d="M2015.54 397.154C2003.74 400.966 1987.98 393.765 1987.89 396.307C1987.89 396.307 1990.92 378.426 2003.26 373.283C2011.91 369.683 2027.79 376.581 2030.91 374.13C2030.91 374.13 2028.25 393.039 2015.54 397.154Z" fill="#00A91C"/>
<path d="M1934.92 335.647C1946.72 339.459 1962.48 332.259 1962.57 334.8C1962.57 334.8 1959.55 316.92 1947.2 311.777C1938.55 308.177 1922.67 315.075 1919.56 312.624C1919.56 312.624 1922.22 331.533 1934.92 335.647Z" fill="#00A91C"/>
<path d="M1934.92 366.416C1946.72 370.228 1962.48 363.027 1962.57 365.569C1962.57 365.569 1959.55 347.688 1947.2 342.545C1938.55 338.945 1922.67 345.843 1919.56 343.392C1919.56 343.392 1922.22 362.301 1934.92 366.416Z" fill="#00A91C"/>
<path d="M1934.92 397.154C1946.72 400.966 1962.48 393.765 1962.57 396.307C1962.57 396.307 1959.55 378.426 1947.2 373.283C1938.55 369.683 1922.67 376.581 1919.56 374.13C1919.56 374.13 1922.22 393.039 1934.92 397.154Z" fill="#00A91C"/>
<path d="M2233.01 360.335L2189.84 360.244C2189.9 354.889 2189.66 344.27 2197.53 328.265C2205.39 312.261 2219.34 304.788 2222.18 302.912L2245.26 339.096C2244.63 339.429 2239 342.152 2236.01 347.477C2233.01 352.801 2232.8 357.521 2233.04 360.335H2233.01Z" fill="#00A91C"/>
<path d="M2272.94 347.416C2275.18 351.168 2276.21 355.131 2276.03 359.245L2319.13 357.46C2319.04 346.297 2315.93 335.678 2309.79 325.452C2303.4 314.802 2295.09 306.845 2284.74 301.49L2263.14 338.794C2267.26 340.548 2270.55 343.423 2272.94 347.416Z" fill="#00A91C"/>
<path d="M2289.04 412.734L2267.56 375.492C2266.89 375.946 2261.63 379.939 2255.31 379.939C2248.98 379.939 2244.84 377.791 2242.96 376.611L2223.06 414.822C2227.48 416.97 2237.97 422.96 2256.4 422.96C2273.09 422.96 2286.43 414.338 2289.04 412.765V412.734Z" fill="#00A91C"/>
<path d="M2254.19 369.048C2259.95 369.048 2264.62 364.375 2264.62 358.61C2264.62 352.846 2259.95 348.172 2254.19 348.172C2248.42 348.172 2243.75 352.846 2243.75 358.61C2243.75 364.375 2248.42 369.048 2254.19 369.048Z" fill="#00A91C"/>
<path d="M1183.8 358.701C1183.8 363.178 1180.17 366.809 1175.7 366.809C1171.22 366.809 1167.59 363.178 1167.59 358.701C1167.59 354.223 1171.22 350.593 1175.7 350.593C1180.17 350.593 1183.8 354.223 1183.8 358.701Z" fill="#00A91C"/>
<path d="M1199.47 283.308C1202.38 280.343 1204.89 282.31 1203.89 285.516L1184.74 347.628C1182.26 345.601 1179.14 344.33 1175.7 344.33C1174.03 344.33 1172.46 344.663 1170.98 345.208C1170.58 341.063 1170.22 336.464 1170.1 333.227C1170.01 330.474 1170.1 327.691 1171.43 325.301C1175.45 318.161 1178.66 312.624 1186.62 301.128C1192.67 292.384 1197.78 285.063 1199.5 283.308" fill="#1B1B1B"/>
<path d="M1193.69 453.244L1182.05 373.828L1229.42 416.607C1232.11 419.027 1235.17 417.484 1233.59 413.309C1232.66 410.828 1227.85 402.509 1222.07 392.646C1214.45 379.667 1210.51 374.04 1205.37 366.839C1203.65 364.449 1200.95 363.088 1198.23 361.938C1195.99 361 1193.09 359.881 1190.09 358.792C1190.03 366.658 1183.62 373.071 1175.73 373.071C1173.55 373.071 1171.49 372.557 1169.65 371.68L1157.67 453.244H1193.72H1193.69Z" fill="#1B1B1B"/>
<path d="M1095.8 365.841C1098.1 366.749 1106.85 368.624 1117.25 370.772C1130.96 373.616 1137.28 374.403 1145.45 375.341C1148.17 375.643 1150.77 374.645 1153.25 373.465C1156.34 372.013 1160.72 369.713 1164.53 367.686C1162.54 365.206 1161.3 362.12 1161.3 358.701C1161.3 357.128 1161.6 355.645 1162.08 354.223L1096.11 360.909" fill="#1B1B1B"/>
<path d="M2706.64 372.799C2706.64 338.884 2733.96 311.232 2767.78 310.688L2775.58 296.71C2773.35 296.499 2771.05 296.378 2768.75 296.378C2726.64 296.378 2692.37 330.655 2692.37 372.769C2692.37 407.864 2716.17 437.512 2748.48 446.407L2751.26 432.369C2725.49 424.806 2706.64 400.966 2706.64 372.769V372.799Z" fill="#1A1A1A"/>
<path d="M2789.05 299.161L2786.26 313.199C2812.04 320.762 2830.88 344.602 2830.88 372.799C2830.88 406.714 2803.57 434.366 2769.75 434.911L2761.94 448.888C2764.18 449.1 2766.48 449.221 2768.78 449.221C2810.89 449.221 2845.16 414.943 2845.16 372.829C2845.16 337.735 2821.35 308.086 2789.05 299.191V299.161Z" fill="#1A1A1A"/>
<path d="M2805.65 359.034H2771.32L2784.57 292.384L2731.84 386.595H2766.18L2752.96 453.244L2805.65 359.034Z" fill="#00A91C"/>
<path d="M2582.22 426.47L2522.84 323.637C2517.7 314.742 2504.9 314.742 2499.76 323.637L2440.38 426.47C2435.24 435.365 2441.65 446.468 2451.93 446.468H2570.67C2580.92 446.468 2587.34 435.365 2582.22 426.47ZM2499.52 432.763L2506.99 395.217H2487.63L2517.34 342.152L2509.86 379.697H2529.22L2499.52 432.763Z" fill="#1B1B1B"/>
<path d="M1750.79 146.288C1742.11 146.288 1737.51 141.81 1734.15 138.512C1731.16 135.578 1729.55 134.186 1725.95 134.186C1722.35 134.186 1720.78 135.578 1717.75 138.512C1714.4 141.78 1709.8 146.288 1701.12 146.288C1692.43 146.288 1687.84 141.81 1684.48 138.512C1681.48 135.578 1679.88 134.186 1676.28 134.186C1672.68 134.186 1671.11 135.578 1668.08 138.512C1664.73 141.78 1660.13 146.288 1651.45 146.288C1642.76 146.288 1638.17 141.81 1634.81 138.512C1631.81 135.578 1630.21 134.186 1626.61 134.186C1623.28 134.186 1620.56 131.463 1620.56 128.135C1620.56 124.807 1623.28 122.084 1626.61 122.084C1635.29 122.084 1639.89 126.562 1643.25 129.86C1646.24 132.794 1647.85 134.186 1651.45 134.186C1655.05 134.186 1656.62 132.794 1659.64 129.86C1663 126.592 1667.6 122.084 1676.28 122.084C1684.96 122.084 1689.56 126.562 1692.92 129.86C1695.91 132.794 1697.52 134.186 1701.12 134.186C1704.72 134.186 1706.29 132.794 1709.31 129.86C1712.67 126.592 1717.27 122.084 1725.95 122.084C1734.63 122.084 1739.23 126.562 1742.59 129.86C1745.58 132.794 1747.19 134.186 1750.79 134.186C1754.39 134.186 1755.99 132.764 1758.99 129.86C1762.34 126.592 1766.94 122.084 1775.62 122.084C1778.95 122.084 1781.67 124.807 1781.67 128.135C1781.67 131.463 1778.95 134.186 1775.62 134.186C1772.02 134.186 1770.42 135.578 1767.43 138.512C1764.07 141.78 1759.44 146.288 1750.79 146.288Z" fill="#1B1B1B"/>
<path d="M1750.79 106.11C1742.11 106.11 1737.51 101.633 1734.15 98.3351C1731.16 95.4005 1729.55 94.0088 1725.95 94.0088C1722.35 94.0088 1720.78 95.4005 1717.75 98.3351C1714.4 101.603 1709.8 106.11 1701.12 106.11C1692.43 106.11 1687.84 101.633 1684.48 98.3351C1681.48 95.4005 1679.88 94.0088 1676.28 94.0088C1672.68 94.0088 1671.11 95.4005 1668.08 98.3351C1664.73 101.603 1660.13 106.11 1651.45 106.11C1642.76 106.11 1638.17 101.633 1634.81 98.3351C1631.81 95.4005 1630.21 94.0088 1626.61 94.0088C1623.28 94.0088 1620.56 91.286 1620.56 87.958C1620.56 84.6301 1623.28 81.9072 1626.61 81.9072C1635.29 81.9072 1639.89 86.3848 1643.25 89.6825C1646.24 92.6172 1647.85 94.0088 1651.45 94.0088C1655.05 94.0088 1656.62 92.6172 1659.64 89.6825C1663 86.4151 1667.6 81.9072 1676.28 81.9072C1684.96 81.9072 1689.56 86.3848 1692.92 89.6825C1695.91 92.6172 1697.52 94.0088 1701.12 94.0088C1704.72 94.0088 1706.29 92.6172 1709.31 89.6825C1712.67 86.4151 1717.27 81.9072 1725.95 81.9072C1734.63 81.9072 1739.23 86.3848 1742.59 89.6825C1745.58 92.6172 1747.19 94.0088 1750.79 94.0088C1754.39 94.0088 1755.99 92.5869 1758.99 89.6825C1762.34 86.4151 1766.94 81.9072 1775.62 81.9072C1778.95 81.9072 1781.67 84.6301 1781.67 87.958C1781.67 91.286 1778.95 94.0088 1775.62 94.0088C1772.02 94.0088 1770.42 95.4005 1767.43 98.3351C1764.07 101.603 1759.44 106.11 1750.79 106.11Z" fill="#1B1B1B"/>
<path d="M1750.79 65.9332C1742.11 65.9332 1737.51 61.4555 1734.15 58.1579C1731.16 55.2232 1729.55 53.8316 1725.95 53.8316C1722.35 53.8316 1720.78 55.2232 1717.75 58.1579C1714.4 61.4253 1709.8 65.9332 1701.12 65.9332C1692.43 65.9332 1687.84 61.4555 1684.48 58.1579C1681.48 55.2232 1679.88 53.8316 1676.28 53.8316C1672.68 53.8316 1671.11 55.2232 1668.08 58.1579C1664.73 61.4253 1660.13 65.9332 1651.45 65.9332C1642.76 65.9332 1638.17 61.4555 1634.81 58.1579C1631.81 55.2232 1630.21 53.8316 1626.61 53.8316C1623.28 53.8316 1620.56 51.1087 1620.56 47.7808C1620.56 44.4528 1623.28 41.73 1626.61 41.73C1635.29 41.73 1639.89 46.2075 1643.25 49.5052C1646.24 52.4399 1647.85 53.8316 1651.45 53.8316C1655.05 53.8316 1656.62 52.4399 1659.64 49.5052C1663 46.2378 1667.6 41.73 1676.28 41.73C1684.96 41.73 1689.56 46.2075 1692.92 49.5052C1695.91 52.4399 1697.52 53.8316 1701.12 53.8316C1704.72 53.8316 1706.29 52.4399 1709.31 49.5052C1712.67 46.2378 1717.27 41.73 1725.95 41.73C1734.63 41.73 1739.23 46.2075 1742.59 49.5052C1745.58 52.4399 1747.19 53.8316 1750.79 53.8316C1754.39 53.8316 1755.99 52.4096 1758.99 49.5052C1762.34 46.2378 1766.94 41.73 1775.62 41.73C1778.95 41.73 1781.67 44.4528 1781.67 47.7808C1781.67 51.1087 1778.95 53.8316 1775.62 53.8316C1772.02 53.8316 1770.42 55.2232 1767.43 58.1579C1764.07 61.4253 1759.44 65.9332 1750.79 65.9332Z" fill="#1B1B1B"/>
<path d="M1750.79 430.856C1742.11 430.856 1737.51 426.379 1734.15 423.081C1731.16 420.147 1729.55 418.755 1725.95 418.755C1722.35 418.755 1720.78 420.147 1717.75 423.081C1714.4 426.349 1709.8 430.856 1701.12 430.856C1692.43 430.856 1687.84 426.379 1684.48 423.081C1681.48 420.147 1679.88 418.755 1676.28 418.755C1672.68 418.755 1671.11 420.147 1668.08 423.081C1664.73 426.349 1660.13 430.856 1651.45 430.856C1642.76 430.856 1638.17 426.379 1634.81 423.081C1631.81 420.147 1630.21 418.755 1626.61 418.755C1623.28 418.755 1620.56 416.032 1620.56 412.704C1620.56 409.376 1623.28 406.653 1626.61 406.653C1635.29 406.653 1639.89 411.131 1643.25 414.429C1646.24 417.363 1647.85 418.755 1651.45 418.755C1655.05 418.755 1656.62 417.363 1659.64 414.429C1663 411.161 1667.6 406.653 1676.28 406.653C1684.96 406.653 1689.56 411.131 1692.92 414.429C1695.91 417.363 1697.52 418.755 1701.12 418.755C1704.72 418.755 1706.29 417.363 1709.31 414.429C1712.67 411.161 1717.27 406.653 1725.95 406.653C1734.63 406.653 1739.23 411.131 1742.59 414.429C1745.58 417.363 1747.19 418.755 1750.79 418.755C1754.39 418.755 1755.99 417.333 1758.99 414.429C1762.34 411.161 1766.94 406.653 1775.62 406.653C1778.95 406.653 1781.67 409.376 1781.67 412.704C1781.67 416.032 1778.95 418.755 1775.62 418.755C1772.02 418.755 1770.42 420.147 1767.43 423.081C1764.07 426.349 1759.44 430.856 1750.79 430.856Z" fill="#00A91C"/>
<path d="M1750.79 390.679C1742.11 390.679 1737.51 386.202 1734.15 382.904C1731.16 379.969 1729.55 378.578 1725.95 378.578C1722.35 378.578 1720.78 379.969 1717.75 382.904C1714.4 386.171 1709.8 390.679 1701.12 390.679C1692.43 390.679 1687.84 386.202 1684.48 382.904C1681.48 379.969 1679.88 378.578 1676.28 378.578C1672.68 378.578 1671.11 379.969 1668.08 382.904C1664.73 386.171 1660.13 390.679 1651.45 390.679C1642.76 390.679 1638.17 386.202 1634.81 382.904C1631.81 379.969 1630.21 378.578 1626.61 378.578C1623.28 378.578 1620.56 375.855 1620.56 372.527C1620.56 369.199 1623.28 366.476 1626.61 366.476C1635.29 366.476 1639.89 370.954 1643.25 374.251C1646.24 377.186 1647.85 378.578 1651.45 378.578C1655.05 378.578 1656.62 377.186 1659.64 374.251C1663 370.984 1667.6 366.476 1676.28 366.476C1684.96 366.476 1689.56 370.954 1692.92 374.251C1695.91 377.186 1697.52 378.578 1701.12 378.578C1704.72 378.578 1706.29 377.186 1709.31 374.251C1712.67 370.984 1717.27 366.476 1725.95 366.476C1734.63 366.476 1739.23 370.954 1742.59 374.251C1745.58 377.186 1747.19 378.578 1750.79 378.578C1754.39 378.578 1755.99 377.156 1758.99 374.251C1762.34 370.984 1766.94 366.476 1775.62 366.476C1778.95 366.476 1781.67 369.199 1781.67 372.527C1781.67 375.855 1778.95 378.578 1775.62 378.578C1772.02 378.578 1770.42 379.969 1767.43 382.904C1764.07 386.171 1759.44 390.679 1750.79 390.679Z" fill="#00A91C"/>
<path d="M1750.79 350.532C1742.11 350.532 1737.51 346.055 1734.15 342.757C1731.16 339.822 1729.55 338.431 1725.95 338.431C1722.35 338.431 1720.78 339.822 1717.75 342.757C1714.4 346.024 1709.8 350.532 1701.12 350.532C1692.43 350.532 1687.84 346.055 1684.48 342.757C1681.48 339.822 1679.88 338.431 1676.28 338.431C1672.68 338.431 1671.11 339.822 1668.08 342.757C1664.73 346.024 1660.13 350.532 1651.45 350.532C1642.76 350.532 1638.17 346.055 1634.81 342.757C1631.81 339.822 1630.21 338.431 1626.61 338.431C1623.28 338.431 1620.56 335.708 1620.56 332.38C1620.56 329.052 1623.28 326.329 1626.61 326.329C1635.29 326.329 1639.89 330.807 1643.25 334.104C1646.24 337.039 1647.85 338.431 1651.45 338.431C1655.05 338.431 1656.62 337.039 1659.64 334.104C1663 330.837 1667.6 326.329 1676.28 326.329C1684.96 326.329 1689.56 330.807 1692.92 334.104C1695.91 337.039 1697.52 338.431 1701.12 338.431C1704.72 338.431 1706.29 337.039 1709.31 334.104C1712.67 330.837 1717.27 326.329 1725.95 326.329C1734.63 326.329 1739.23 330.807 1742.59 334.104C1745.58 337.039 1747.19 338.431 1750.79 338.431C1754.39 338.431 1755.99 337.009 1758.99 334.104C1762.34 330.837 1766.94 326.329 1775.62 326.329C1778.95 326.329 1781.67 329.052 1781.67 332.38C1781.67 335.708 1778.95 338.431 1775.62 338.431C1772.02 338.431 1770.42 339.822 1767.43 342.757C1764.07 346.024 1759.44 350.532 1750.79 350.532Z" fill="#00A91C"/>
<path d="M1750.79 424.655C1742.11 424.655 1737.51 420.177 1734.15 416.879C1731.16 413.945 1729.55 412.553 1725.95 412.553C1722.35 412.553 1720.78 413.945 1717.75 416.879C1714.4 420.147 1709.8 424.655 1701.12 424.655C1692.43 424.655 1687.84 420.177 1684.48 416.879C1681.48 413.945 1679.88 412.553 1676.28 412.553C1672.68 412.553 1671.11 413.945 1668.08 416.879C1664.73 420.147 1660.13 424.655 1651.45 424.655C1642.76 424.655 1638.17 420.177 1634.81 416.879C1631.81 413.945 1630.21 412.553 1626.61 412.553C1623.28 412.553 1620.56 409.83 1620.56 406.502C1620.56 403.174 1623.28 400.451 1626.61 400.451C1635.29 400.451 1639.89 404.929 1643.25 408.227C1646.24 411.161 1647.85 412.553 1651.45 412.553C1655.05 412.553 1656.62 411.161 1659.64 408.227C1663 404.959 1667.6 400.451 1676.28 400.451C1684.96 400.451 1689.56 404.929 1692.92 408.227C1695.91 411.161 1697.52 412.553 1701.12 412.553C1704.72 412.553 1706.29 411.161 1709.31 408.227C1712.67 404.959 1717.27 400.451 1725.95 400.451C1734.63 400.451 1739.23 404.929 1742.59 408.227C1745.58 411.161 1747.19 412.553 1750.79 412.553C1754.39 412.553 1755.99 411.131 1758.99 408.227C1762.34 404.959 1766.94 400.451 1775.62 400.451C1778.95 400.451 1781.67 403.174 1781.67 406.502C1781.67 409.83 1778.95 412.553 1775.62 412.553C1772.02 412.553 1770.42 413.945 1767.43 416.879C1764.07 420.147 1759.44 424.655 1750.79 424.655Z" fill="#1B1B1B"/>
<path d="M1750.79 384.477C1742.11 384.477 1737.51 380 1734.15 376.702C1731.16 373.767 1729.55 372.376 1725.95 372.376C1722.35 372.376 1720.78 373.767 1717.75 376.702C1714.4 379.969 1709.8 384.477 1701.12 384.477C1692.43 384.477 1687.84 380 1684.48 376.702C1681.48 373.767 1679.88 372.376 1676.28 372.376C1672.68 372.376 1671.11 373.767 1668.08 376.702C1664.73 379.969 1660.13 384.477 1651.45 384.477C1642.76 384.477 1638.17 380 1634.81 376.702C1631.81 373.767 1630.21 372.376 1626.61 372.376C1623.28 372.376 1620.56 369.653 1620.56 366.325C1620.56 362.997 1623.28 360.274 1626.61 360.274C1635.29 360.274 1639.89 364.752 1643.25 368.049C1646.24 370.984 1647.85 372.376 1651.45 372.376C1655.05 372.376 1656.62 370.984 1659.64 368.049C1663 364.782 1667.6 360.274 1676.28 360.274C1684.96 360.274 1689.56 364.752 1692.92 368.049C1695.91 370.984 1697.52 372.376 1701.12 372.376C1704.72 372.376 1706.29 370.984 1709.31 368.049C1712.67 364.782 1717.27 360.274 1725.95 360.274C1734.63 360.274 1739.23 364.752 1742.59 368.049C1745.58 370.984 1747.19 372.376 1750.79 372.376C1754.39 372.376 1755.99 370.954 1758.99 368.049C1762.34 364.782 1766.94 360.274 1775.62 360.274C1778.95 360.274 1781.67 362.997 1781.67 366.325C1781.67 369.653 1778.95 372.376 1775.62 372.376C1772.02 372.376 1770.42 373.767 1767.43 376.702C1764.07 379.969 1759.44 384.477 1750.79 384.477Z" fill="#1B1B1B"/>
<path d="M1750.79 344.3C1742.11 344.3 1737.51 339.822 1734.15 336.525C1731.16 333.59 1729.55 332.198 1725.95 332.198C1722.35 332.198 1720.78 333.59 1717.75 336.525C1714.4 339.792 1709.8 344.3 1701.12 344.3C1692.43 344.3 1687.84 339.822 1684.48 336.525C1681.48 333.59 1679.88 332.198 1676.28 332.198C1672.68 332.198 1671.11 333.59 1668.08 336.525C1664.73 339.792 1660.13 344.3 1651.45 344.3C1642.76 344.3 1638.17 339.822 1634.81 336.525C1631.81 333.59 1630.21 332.198 1626.61 332.198C1623.28 332.198 1620.56 329.476 1620.56 326.148C1620.56 322.82 1623.28 320.097 1626.61 320.097C1635.29 320.097 1639.89 324.574 1643.25 327.872C1646.24 330.807 1647.85 332.198 1651.45 332.198C1655.05 332.198 1656.62 330.807 1659.64 327.872C1663 324.605 1667.6 320.097 1676.28 320.097C1684.96 320.097 1689.56 324.574 1692.92 327.872C1695.91 330.807 1697.52 332.198 1701.12 332.198C1704.72 332.198 1706.29 330.807 1709.31 327.872C1712.67 324.605 1717.27 320.097 1725.95 320.097C1734.63 320.097 1739.23 324.574 1742.59 327.872C1745.58 330.807 1747.19 332.198 1750.79 332.198C1754.39 332.198 1755.99 330.776 1758.99 327.872C1762.34 324.605 1766.94 320.097 1775.62 320.097C1778.95 320.097 1781.67 322.82 1781.67 326.148C1781.67 329.476 1778.95 332.198 1775.62 332.198C1772.02 332.198 1770.42 333.59 1767.43 336.525C1764.07 339.792 1759.44 344.3 1750.79 344.3Z" fill="#1B1B1B"/>
<path d="M2517.34 60.6689L2487.63 113.734H2506.99L2499.52 151.28L2529.22 98.2141H2509.86L2517.34 60.6689Z" fill="#00BDE3"/>
<path d="M2517.34 342.152L2487.63 395.217H2506.99L2499.52 432.763L2529.22 379.697H2509.86L2517.34 342.152Z" fill="#00A91C"/>
</svg>
