<?xml version="1.0" encoding="UTF-8"?><svg id="Layer_1" xmlns="http://www.w3.org/2000/svg" viewBox="0 0 174.43 174.45"><defs><style>.cls-1{fill:#617e5c;}.cls-2{fill:#1b1b1b;}</style></defs><path class="cls-1" d="M87.22,174.45c48.16,0,87.21-39.05,87.21-87.22S135.38,0,87.22,0,0,39.05,0,87.22s39.05,87.22,87.22,87.22Z"/><path class="cls-2" d="M92.3,46.2h-10.17c-.3,0-.54.24-.54.55v111.97c0,.3.24.55.54.55h10.17c.3,0,.54-.24.54-.55V46.74c0-.3-.24-.55-.54-.55Z"/><path class="cls-2" d="M123.31,58.39c-10.56,3.42-24.66-3.05-24.78-.76,0,0,2.72-16.04,13.76-20.6,7.75-3.21,21.97,2.93,24.78.76,0,0-2.39,16.91-13.76,20.6Z"/><path class="cls-2" d="M123.31,85.92c-10.56,3.42-24.66-3.06-24.78-.76,0,0,2.72-16.03,13.76-20.6,7.75-3.21,21.97,2.93,24.78.76,0,0-2.39,16.91-13.76,20.6Z"/><path class="cls-2" d="M123.31,113.48c-10.56,3.42-24.66-3.06-24.78-.76,0,0,2.72-16.04,13.76-20.6,7.75-3.21,21.97,2.93,24.78.76,0,0-2.39,16.91-13.76,20.6Z"/><path class="cls-2" d="M51.13,58.39c10.56,3.42,24.65-3.05,24.77-.76,0,0-2.72-16.04-13.76-20.6-7.75-3.21-21.96,2.93-24.78.76,0,0,2.39,16.91,13.77,20.6Z"/><path class="cls-2" d="M51.13,85.92c10.56,3.42,24.65-3.06,24.77-.76,0,0-2.72-16.03-13.76-20.6-7.75-3.21-21.96,2.93-24.78.76,0,0,2.39,16.91,13.77,20.6Z"/><path class="cls-2" d="M51.13,113.48c10.56,3.42,24.65-3.06,24.77-.76,0,0-2.72-16.04-13.76-20.6-7.75-3.21-21.96,2.93-24.78.76,0,0,2.39,16.91,13.77,20.6Z"/></svg>