<?xml version="1.0" encoding="UTF-8"?><svg id="Layer_1" xmlns="http://www.w3.org/2000/svg" viewBox="0 0 185.09 328.36"><defs><style>.cls-1{fill:#00a91c;}.cls-2{fill:#1b1b1b;}</style></defs><path class="cls-2" d="M174.21,306.58h-9.44l-38.35-171.15c3.88-1.67,6.61-5.52,6.61-10.02,0-6.03-4.87-10.91-10.91-10.91H56.26c-6.04,0-10.91,4.88-10.91,10.91,0,4.26,2.48,7.94,6.06,9.72l-31.36,171.43h-9.14c-6.03,0-10.91,4.88-10.91,10.91s4.88,10.91,10.91,10.91h163.27c6.03,0,10.91-4.88,10.91-10.91s-4.88-10.91-10.91-10.91l.03.03ZM126.31,234.53l-57.95-23.63,46.3-28.37,11.65,51.99ZM104.33,136.41l5.31,23.66-45.68,27.99,9.44-51.65h30.93ZM113.6,252.91l-68.39,37.44,11.11-60.79,57.28,23.35ZM133.54,266.86l8.9,39.72H60.99l72.55-39.72Z"/><path class="cls-1" d="M121.58,60.86c-1.95-19.16-15.35-38.59-39.45-60.86,3.21,19.4-5.79,29.83-12.48,40.91-1.74-3.03-3.17-6.72-4.12-11.35-14.49,17.63-16.5,37.64-10.95,50.7,5.49,12.85,18.72,22.84,33.99,22.26,25.78-.89,34.78-23.87,33.01-41.63v-.03ZM88.57,98.94c-7.67.31-14.35-4.74-17.11-11.22-2.8-6.58-1.77-16.67,5.52-25.54.48,2.32,1.23,4.19,2.08,5.73,3.38-5.56,7.91-10.81,6.28-20.59,12.13,11.22,18.92,21.04,19.87,30.65.89,8.93-3.65,20.52-16.64,20.97Z"/></svg>