<?xml version="1.0" encoding="UTF-8"?><svg id="Layer_1" xmlns="http://www.w3.org/2000/svg" viewBox="0 0 365.73 212.89"><defs><style>.cls-1{fill:#00a91c;}.cls-2{fill:#1b1b1b;}</style></defs><path class="cls-2" d="M191.79,17.46h-17.62c-.51,0-.92.41-.92.92v193.59c0,.51.41.92.92.92h17.62c.51,0,.92-.41.92-.92V18.38c0-.51-.41-.92-.92-.92Z"/><path class="cls-1" d="M245.35,38.57c-18.24,5.9-42.65-5.25-42.82-1.3,0,0,4.67-27.68,23.8-35.63,13.4-5.56,37.98,5.08,42.82,1.29,0,0-4.13,29.25-23.8,35.63Z"/><path class="cls-1" d="M245.35,86.16c-18.24,5.9-42.65-5.25-42.82-1.3,0,0,4.67-27.68,23.8-35.63,13.4-5.56,37.98,5.08,42.82,1.29,0,0-4.13,29.25-23.8,35.63Z"/><path class="cls-1" d="M245.35,133.76c-18.24,5.9-42.65-5.25-42.82-1.29,0,0,4.67-27.68,23.8-35.63,13.4-5.56,37.98,5.08,42.82,1.3,0,0-4.13,29.25-23.8,35.63Z"/><path class="cls-1" d="M120.61,38.57c18.24,5.9,42.65-5.25,42.82-1.3,0,0-4.67-27.68-23.8-35.63-13.4-5.56-37.98,5.08-42.82,1.29,0,0,4.13,29.25,23.8,35.63Z"/><path class="cls-1" d="M120.61,86.16c18.24,5.9,42.65-5.25,42.82-1.3,0,0-4.67-27.68-23.8-35.63-13.4-5.56-37.98,5.08-42.82,1.29,0,0,4.13,29.25,23.8,35.63Z"/><path class="cls-1" d="M120.61,133.76c18.24,5.9,42.65-5.25,42.82-1.29,0,0-4.67-27.68-23.8-35.63-13.4-5.56-37.98,5.08-42.82,1.3,0,0,4.13,29.25,23.8,35.63Z"/><path class="cls-1" d="M98.45,82.99c.82,27-20.97,19.88-37.91,45.89-14.56,22.37-5.32,37.23-.65,42.62,23.76-23.87,36.38-54.11,38.76-60.28.14-.38.31-.75.45-1.16,0,0-.14.41-.45,1.16-11.35,29.93-24.58,52.47-31.91,63.86,8.25,1.53,25.88,1.02,39.07-26.35,15.58-32.36-7.5-69.42-7.36-65.73Z"/><path class="cls-1" d="M15.54,92.03s.13.34.34.99c9.17,25.98,12.95,48.14,14.45,59.7,6.28-3.55,17.6-13.71,11.08-39C33.71,83.78-2.05,72.22.09,74.6c15.52,17.32-2.72,24.68.55,51.21,2.83,22.78,17.15,27.41,23.22,28.37,2.38-28.88-6.11-55.74-7.95-61.16-.1-.34-.24-.68-.34-.99h-.03Z"/><path class="cls-2" d="M61.32,175.01c-.47.65-7.7,10.5-10.5,29.32-6.78-5.25-18.78-20.42-22.57-46.4l-2.49.27c1.81,29.63,16.51,48.89,21.69,54.69h9.41c-2.83-19.02,6.07-36.11,6.17-36.28l-1.67-1.6h-.04Z"/><path class="cls-1" d="M303.17,117.43c2.53,1.06,14.42,4.94,22.23-11.15,8.18-16.84,17.87-16.91,17.87-16.91,0,0-14.49-6.68-28.68,4.94-7.53,6.17-10.39,12.24-11.45,16.6"/><path class="cls-1" d="M303.31,157.49c3.31,1.36,19.02,6.55,29.35-14.73,10.78-22.23,23.59-22.33,23.59-22.33,0,0-19.12-8.83-37.84,6.51-9.88,8.11-13.7,16.09-15.13,21.85"/><path class="cls-1" d="M303.48,199.83c3.99,1.64,22.4,7.6,34.5-17.35,12.68-26.15,27.75-26.29,27.75-26.29,0,0-22.5-10.4-44.52,7.67-11.56,9.48-16.06,18.79-17.76,25.54"/><path class="cls-1" d="M302.05,110.74c-1.2-4.3-4.16-10.09-11.32-15.96-14.18-11.63-28.67-4.94-28.67-4.94,0,0,9.71.07,17.86,16.91,7.54,15.58,18.92,12.45,21.96,11.29"/><path class="cls-1" d="M300.34,185.14c-2.45-6.07-7.16-13.36-16.19-20.8-22.02-18.07-44.52-7.67-44.52-7.67,0,0,15.06.14,27.75,26.29,10.7,22.13,26.38,19.95,32.59,18.04l.37-15.85Z"/><path class="cls-1" d="M272.69,143.27c9.45,19.54,23.46,16.77,28.27,15.14l.27-11.83c-1.88-5.42-5.9-12.21-14.32-19.09-18.72-15.34-37.84-6.51-37.84-6.51,0,0,12.82.1,23.59,22.33l.03-.03Z"/><path class="cls-2" d="M300.04,212.89h6.2l-2.76-126.11h-3.44v126.11Z"/></svg>