<?xml version="1.0" encoding="UTF-8"?><svg id="Layer_1" xmlns="http://www.w3.org/2000/svg" viewBox="0 0 321.01 280.53"><defs><style>.cls-1{fill:#00a91c;}.cls-2{fill:#1b1b1b;}</style></defs><path class="cls-2" d="M77.7,15.07h3.24v57.79l-36.31,103.03c2.76,1.67,5.39,2.45,9.72,2.45,5.14,0,7.87-1.12,11.31-3.51,8.83-24.28,23.53-64.71,28.88-79.47,4.84-13.3,15.75-23.18,32.39-23.73v-33.72h-23.01v-13.33h35.42v46.98s-17.05,49.51-30.11,86.4c7.54.21,13.74,1.67,18.96,3.68,8.39-24.31,18.51-54.55,22.81-66.24,4.87-13.3,15.27-23.18,32.38-23.76v-33.72h-23.01v-13.33h35.42v46.98s-23.72,66.96-38.04,106.68c.85.07,1.74.14,2.72.14,6.89,0,9.45-1.98,15.11-6.34,1.97-1.53,4.26-3.27,6.92-5.01,9.54-26.05,21.48-58.71,26.08-71.63,4.77-13.33,15.14-23.22,32.39-23.76v-33.72h-23.02v-13.33h35.43v46.98l-31.37,86.94c14.49,1.98,23.35,8.8,29.52,13.53,5.63,4.33,8.22,6.34,15.11,6.34,5.66,0,8.45-1.36,12.37-4.26V15.07h1.74c1.54,0,2.76-1.23,2.76-2.76V2.76c0-1.53-1.22-2.76-2.76-2.76H77.66c-1.53,0-2.76,1.23-2.76,2.76v9.55c0,1.53,1.23,2.76,2.76,2.76h.04Z"/><path class="cls-1" d="M266.67,280.53c-16.16,0-24.82-6.65-31.74-12-6.14-4.74-10.98-8.46-21.34-8.46s-15.21,3.72-21.34,8.46c-6.96,5.35-15.58,12-31.74,12s-24.82-6.65-31.74-12c-6.14-4.71-10.98-8.46-21.34-8.46s-15.21,3.72-21.35,8.46c-6.92,5.35-15.58,12-31.73,12s-24.82-6.65-31.74-12c-4.85-3.75-8.9-6.85-15.48-7.98-3.34-.58-5.87-3.34-5.87-6.75v-3.44c0-4.13,3.65-7.4,7.74-6.78,11.36,1.7,18.28,7.02,24,11.46,6.14,4.74,10.98,8.45,21.35,8.45s15.2-3.72,21.34-8.45c6.92-5.35,15.58-12,31.74-12s24.82,6.65,31.74,12c6.13,4.74,10.97,8.45,21.34,8.45s15.2-3.72,21.34-8.45c6.95-5.35,15.58-12,31.74-12s24.82,6.65,31.74,12c6.14,4.74,10.98,8.45,21.34,8.45s15.21-3.72,21.34-8.45c5.73-4.43,12.65-9.75,24-11.46,4.09-.61,7.74,2.62,7.74,6.78v3.44c0,3.38-2.52,6.17-5.86,6.75-6.62,1.12-10.64,4.26-15.48,7.98-6.95,5.35-15.58,12-31.74,12Z"/><path class="cls-1" d="M266.67,205.66c-16.16,0-24.82-6.65-31.74-12-6.14-4.74-10.98-8.46-21.34-8.46s-15.21,3.72-21.34,8.46c-6.96,5.35-15.58,12-31.74,12s-24.82-6.65-31.74-12c-6.14-4.71-10.98-8.46-21.34-8.46s-15.21,3.72-21.35,8.46c-6.92,5.35-15.58,12-31.73,12s-24.82-6.65-31.74-12c-4.85-3.75-8.9-6.85-15.48-7.98-3.34-.58-5.87-3.34-5.87-6.75v-3.44c0-4.13,3.65-7.4,7.74-6.78,11.36,1.71,18.28,7.02,24,11.46,6.14,4.74,10.98,8.46,21.35,8.46s15.2-3.72,21.34-8.46c6.92-5.35,15.58-12,31.74-12s24.82,6.65,31.74,12c6.13,4.74,10.97,8.46,21.34,8.46s15.2-3.72,21.34-8.46c6.95-5.35,15.58-12,31.74-12s24.82,6.65,31.74,12c6.14,4.74,10.98,8.46,21.34,8.46s15.21-3.72,21.34-8.46c5.73-4.43,12.65-9.75,24-11.46,4.09-.61,7.74,2.62,7.74,6.78v3.44c0,3.38-2.52,6.17-5.86,6.75-6.62,1.12-10.64,4.26-15.48,7.98-6.95,5.35-15.58,12-31.74,12Z"/><path class="cls-1" d="M318.18,209.34c-1.77-1.5-4.09-2.18-6.34-1.84-11.04,1.71-17.69,6.82-23.59,11.35-6.44,4.94-11.08,8.52-21.58,8.52s-15.17-3.58-21.61-8.56c-7.23-5.59-15.45-11.9-31.5-11.9s-24.24,6.34-31.47,11.9c-6.44,4.94-11.08,8.56-21.62,8.56s-15.17-3.58-21.61-8.56c-7.23-5.59-15.44-11.9-31.47-11.9s-24.24,6.34-31.46,11.93c-6.45,4.94-11.08,8.52-21.58,8.52s-15.18-3.58-21.58-8.56c-5.87-4.53-12.52-9.65-23.56-11.35-2.29-.34-4.57.31-6.34,1.84-1.81,1.57-2.87,3.82-2.87,6.2,0,3.99,2.93,7.37,6.96,8.01,6.82,1.09,10.84,4.19,15.92,8.11,7.23,5.59,15.44,11.9,31.47,11.9s24.24-6.34,31.46-11.93c6.45-4.94,11.08-8.52,21.58-8.52s15.17,3.58,21.58,8.56c7.23,5.59,15.45,11.9,31.47,11.9s24.24-6.34,31.47-11.9c6.44-4.94,11.08-8.56,21.61-8.56s15.17,3.58,21.62,8.56c7.22,5.59,15.44,11.9,31.5,11.9s24.24-6.34,31.5-11.93c5.11-3.92,9.1-7.02,15.92-8.11,4.02-.65,6.95-4.02,6.95-8.01,0-2.39-1.02-4.64-2.86-6.2l.03.07Z"/></svg>