<?xml version="1.0" encoding="UTF-8"?><svg id="Layer_1" xmlns="http://www.w3.org/2000/svg" viewBox="0 0 323.22 325.68"><defs><style>.cls-1{fill:#00a91c;}.cls-2{fill:#1b1b1b;}</style></defs><path class="cls-2" d="M266.01,315.79c-12-22.23-21.1-40.47-28.94-58.34-12.41-28.37-23.35-73.51-23.35-116.91,0-24.1.47-31.27.47-48.89,0-2.63-1.87-4.74-4.5-4.74H57.13c-2.62,0-4.5,2.15-4.5,4.74,0,17.15.48,24.62.48,48.89,0,43.44-10.95,88.58-23.36,116.91-7.8,17.86-16.94,36.11-28.94,58.34-2.42,4.47.85,9.89,5.93,9.89h253.31c5.08,0,8.35-5.42,5.93-9.89h.03ZM134.83,270.68c-28.47,0-51.55-23.01-51.55-51.41s23.08-51.41,51.55-51.41,51.54,23.01,51.54,51.41-23.08,51.41-51.54,51.41Z"/><path class="cls-1" d="M121.19,220.36l-27.75-.07c.03-3.44-.1-10.26,4.94-20.56,5.05-10.3,14.01-15.07,15.82-16.3l14.83,23.25c-.41.21-4.02,1.94-5.96,5.39-1.95,3.44-2.05,6.44-1.91,8.25l.03.03ZM146.83,212.04c1.43,2.42,2.08,4.94,1.97,7.6l27.69-1.16c-.07-7.16-2.08-14.01-6-20.56-4.09-6.85-9.45-11.93-16.09-15.38l-13.88,23.97c2.66,1.13,4.74,2.97,6.31,5.52ZM157.19,254.01l-13.77-23.93c-.45.31-3.82,2.86-7.88,2.86s-6.71-1.36-7.94-2.15l-12.79,24.55c2.83,1.4,9.58,5.22,21.41,5.22,10.74,0,19.3-5.52,20.97-6.55ZM141.51,219.24c0,3.72-3,6.72-6.72,6.72s-6.71-3-6.71-6.72,3-6.72,6.71-6.72,6.72,3,6.72,6.72Z"/><path class="cls-1" d="M66.51,74.37c.64-4.64,2.18-9.1,4.63-13.16,4.71-7.74,12.58-13.57,22.61-15.21,1.43-16.74,13.12-30.86,29.52-34.37,6.92-1.5,14.15-.89,20.8,1.64,6.17-6.17,13.97-10.47,22.43-12.27,25.09-5.39,50.11,11.59,55.77,37.81,2.8,12.99.34,26.12-6.34,36.72-1.91-.75-3.99-1.19-6.2-1.19h-11.76c8.72-7.98,12.54-20.29,9.95-32.46-3.95-18.31-21.14-30.17-38.32-26.52-7.12,1.53-13.26,5.45-17.83,11.39l-3.92,5.11-5.59-3.24c-4.91-2.83-10.54-3.75-15.89-2.63-11.56,2.45-19.23,13.81-17.9,26.32l.99,9.07s-4.43-.44-9.07-.95c-10.63-1.19-17.55,7.33-18.85,13.91h-15l-.03.03Z"/><path class="cls-2" d="M318.75,306.45h-43.57c-11.35-21.21-19.67-38.02-26.66-54.01-9.71-22.2-20.96-62.15-22.19-104.4h59.01c1.74,0,2.97,1.43,2.97,3.14,0,11.69-.31,16.43-.31,32.42,0,28.81,7.26,58.74,15.48,77.57,5.18,11.86,11.25,23.93,19.19,38.7,1.61,2.97-.57,6.55-3.95,6.55l.03.03Z"/><path class="cls-1" d="M226.6,105.43l.14-.44c1.33-4.6,4.06-8.35,7.91-10.91,9.41-6.21,22.5-3.1,29.22,6.99,4.63,6.96,5.18,15.61,1.39,22.6l-1.77,4.3,2.45,3.68c1.85,2.8,2.83,5.9,3.04,9.07h14.69c-.17-4.77-1.33-9.51-3.65-14.01,4.27-10.95,2.9-23.56-3.92-33.82-11.18-16.81-33.44-21.79-49.57-11.08-.68.44-1.29.99-1.94,1.5,1.33,2.46,2.15,5.28,2.15,8.32,0,5.28-.03,9.65-.1,13.81h-.04Z"/></svg>