<?xml version="1.0" encoding="UTF-8"?><svg id="Layer_1" xmlns="http://www.w3.org/2000/svg" viewBox="0 0 319.85 293.11"><defs><style>.cls-1{fill:#00a91c;}.cls-2{fill:#1b1b1b;}</style></defs><path class="cls-2" d="M265.92,114.15L255.86,0h-51.72l-10.06,114.15h-12.65V47.66H53.76v66.48H0v119.88c0,32.63,26.46,59.09,59.08,59.09h13.84c.95-15.04,5.9-23.8,9.99-30.96,3.95-6.92,6.82-11.93,6.82-23.42s-2.86-16.5-6.82-23.42c-4.43-7.74-9.89-17.42-10.13-34.88h-18.14l30.34-44.02,30.34,44.02h-17.08c.2,10.6,2.97,15.55,6.78,22.23,4.53,7.94,10.16,17.8,10.16,36.07s-5.62,28.13-10.16,36.07c-3.31,5.8-5.83,10.3-6.58,18.31h49.37c.95-15.04,5.9-23.8,9.99-30.96,3.95-6.92,6.82-11.93,6.82-23.42s-2.86-16.5-6.82-23.42c-4.43-7.74-9.89-17.42-10.13-34.88h-18.14l30.34-44.02,30.34,44.02h-17.08c.21,10.6,2.97,15.55,6.78,22.23,4.54,7.94,10.16,17.8,10.16,36.07s-5.62,28.13-10.16,36.07c-3.31,5.8-5.83,10.3-6.58,18.31h49.36c.96-15.04,5.9-23.8,9.99-30.96,3.96-6.92,6.82-11.93,6.82-23.42s-2.86-16.5-6.82-23.42c-4.43-7.74-9.89-17.42-10.12-34.88h-18.14l30.34-44.02,30.34,44.02h-17.08c.2,10.6,2.97,15.55,6.78,22.23,4.53,7.94,10.16,17.8,10.16,36.07s-5.62,28.13-10.16,36.07c-3.31,5.8-5.83,10.3-6.58,18.31h18.96l6.82-1.57c26.22-6.03,45.82-29.49,45.82-57.55v-119.88h-54.07l.14.03ZM106.71,100.37h-28.84v-28.84h28.84v28.84ZM157.44,100.37h-28.84v-28.84h28.84v28.84Z"/><path class="cls-1" d="M115.27,238.73c0-18.24-5.63-28.13-10.16-36.07-3.82-6.68-6.58-11.63-6.78-22.23h17.08l-30.34-44.02-30.34,44.02h18.14c.24,17.46,5.69,27.14,10.13,34.88,3.95,6.92,6.82,11.93,6.82,23.42s-2.86,16.5-6.82,23.42c-4.09,7.16-9.07,15.92-9.99,30.96h25.57c.75-8.01,3.27-12.51,6.58-18.31,4.53-7.94,10.16-17.83,10.16-36.07h-.03Z"/><path class="cls-1" d="M265.17,238.73c0-18.24-5.62-28.13-10.16-36.07-3.82-6.68-6.58-11.63-6.78-22.23h17.08l-30.34-44.02-30.34,44.02h18.14c.24,17.46,5.69,27.14,10.13,34.88,3.95,6.92,6.82,11.93,6.82,23.42s-2.86,16.5-6.82,23.42c-4.09,7.16-9.07,15.92-9.99,30.96h25.57c.75-8.01,3.27-12.51,6.58-18.31,4.54-7.94,10.16-17.83,10.16-36.07h-.03Z"/><path class="cls-1" d="M190.23,238.73c0-18.24-5.62-28.13-10.16-36.07-3.82-6.68-6.58-11.63-6.78-22.23h17.08l-30.34-44.02-30.34,44.02h18.14c.24,17.46,5.69,27.14,10.12,34.88,3.96,6.92,6.82,11.93,6.82,23.42s-2.86,16.5-6.82,23.42c-4.09,7.16-9.07,15.92-9.99,30.96h25.57c.75-8.01,3.27-12.51,6.58-18.31,4.53-7.94,10.16-17.83,10.16-36.07h-.03Z"/></svg>