<?xml version="1.0" encoding="UTF-8"?><svg id="Layer_1" xmlns="http://www.w3.org/2000/svg" viewBox="0 0 98.7 144.46"><defs><style>.cls-1{fill:#00bde3;}.cls-2{fill:#1b1b1b;}</style></defs><path class="cls-2" d="M98.39,85.8c2.54,24.99-10.13,57.36-46.49,58.63-21.54.76-40.17-13.31-47.86-31.4C-3.83,94.69-.96,66.47,19.4,41.63c1.36,6.53,3.39,11.77,5.84,16,9.47-15.61,22.14-30.28,17.58-57.63,33.97,31.37,52.88,58.81,55.57,85.8ZM51.89,139.44c18.3-.61,24.68-16.94,23.41-29.53-1.36-13.58-10.89-27.41-27.98-43.17,2.3,13.74-4.08,21.15-8.83,29.01-1.24-2.15-2.27-4.78-2.93-8.05-10.26,12.53-11.68,26.72-7.74,35.94,3.87,9.11,13.28,16.22,24.11,15.79h-.03Z"/><path class="cls-1" d="M75.31,109.91c1.27,12.58-5.11,28.89-23.41,29.53-10.83.42-20.24-6.69-24.11-15.79-3.93-9.23-2.51-23.42,7.74-35.94.7,3.3,1.72,5.9,2.93,8.05,4.78-7.87,11.13-15.25,8.83-29.01,17.06,15.76,26.59,29.59,27.98,43.17h.03Z"/></svg>