<?xml version="1.0" encoding="UTF-8"?><svg id="Layer_1" xmlns="http://www.w3.org/2000/svg" viewBox="0 0 142.51 145.67"><defs><style>.cls-1{fill:#00bde3;}.cls-2{fill:#1b1b1b;}</style></defs><path class="cls-1" d="M125.27,30.7l-11.86-5.17-6.69-13.04c-.39-.76-1.06-1.36-1.87-1.63L75.32.21c-1.24-.45-2.57-.15-3.51.76l-12.91,12.59-2.66-2.06c-.76-.57-1.7-.85-2.67-.67l-19.39,3.3c-.84.15-1.6.61-2.14,1.3l-11.62,15.34c-1.12,1.48-.82,3.72.66,4.75,1.46,1.03,3.57.88,4.75-.67,1.18-1.51,10.8-14.28,10.8-14.28l16.61-2.81,14.97,11.71c1.49,1.15,3.6.91,4.75-.57,1.15-1.48.88-3.6-.57-4.75l-8.14-6.35,10.77-10.5,26.29,9.47,6.62,12.92c.37.7.94,1.24,1.67,1.57,0,0,10.77,4.78,12.94,5.66,2.18.88,3.7-.33,4.45-1.75.76-1.42-.03-3.72-1.75-4.45h.03Z"/><path class="cls-2" d="M139,44.08H3.51c-1.94,0-3.51,1.57-3.51,3.51v11.19c0,1.94,1.57,3.51,3.51,3.51h30.01c1.6,0,2.87,1.3,2.87,2.87s-1.3,2.87-2.87,2.87H10.44l8.47,35.49h-7.2c-1.94,0-3.51,1.57-3.51,3.51v16.79c0,1.94,1.57,3.51,3.51,3.51h9.28c.19-12.71,10.59-23.02,23.39-23.02,13.97,0,23.38,11.62,23.38,23.02h7.41c.18-12.71,10.62-23.02,23.39-23.02,14.61,0,23.38,12.25,23.38,23.02h7.41c1.94,0,3.51-1.57,3.51-3.51v-16.79c0-1.94-1.57-3.51-3.51-3.51h-5.9l9.83-41.24h5.72c1.94,0,3.51-1.57,3.51-3.51v-11.19c0-1.94-1.57-3.51-3.51-3.51Z"/><path class="cls-1" d="M44.44,109.76c-9.92,0-18,7.99-18.03,17.91,0,9.92,8.01,17.97,17.94,18,9.92.03,18-7.99,18.03-17.91s-7.99-17.97-17.94-18ZM44.38,134.48c-3.75,0-6.78-3.06-6.78-6.78s3.06-6.78,6.81-6.75c3.75,0,6.77,3.05,6.77,6.81s-3.05,6.75-6.8,6.75v-.03ZM98.59,109.76c-9.96,0-18,7.99-18.03,17.91,0,9.92,8.01,17.97,17.94,18,9.92.03,17.99-7.99,18.02-17.91s-7.98-17.97-17.93-18ZM98.53,134.48c-3.76,0-6.78-3.06-6.78-6.78s3.05-6.78,6.81-6.75c3.75,0,6.77,3.05,6.77,6.81s-3.05,6.75-6.8,6.75v-.03Z"/></svg>