<svg width="431" height="326" viewBox="0 0 431 326" fill="none" xmlns="http://www.w3.org/2000/svg">
<rect width="82" height="15" fill="#1B3F09"/>
<rect x="94" width="82" height="15" fill="#6C5F0A"/>
<rect x="188" width="82" height="15" fill="#BA800C"/>
<text fill="#1B1B1B" xml:space="preserve" style="white-space: pre" font-family="Source Sans Pro" font-size="12" font-weight="600" letter-spacing="0em"><tspan x="0" y="34.266">#1B3F09</tspan></text>
<text fill="#1B1B1B" xml:space="preserve" style="white-space: pre" font-family="Source Sans Pro" font-size="12" font-weight="600" letter-spacing="0em"><tspan x="94" y="34.266">#6C5F0A</tspan></text>
<text fill="#1B1B1B" xml:space="preserve" style="white-space: pre" font-family="Source Sans Pro" font-size="12" font-weight="600" letter-spacing="0em"><tspan x="188" y="34.266">#BA800C</tspan></text>
<rect y="47" width="82" height="15" fill="#1E5964"/>
<rect x="94" y="47" width="82" height="15" fill="#7B8871"/>
<rect x="188.5" y="47.5" width="81" height="14" fill="#D3B77E" stroke="#1B3F09"/>
<text fill="#1B1B1B" xml:space="preserve" style="white-space: pre" font-family="Source Sans Pro" font-size="12" font-weight="600" letter-spacing="0em"><tspan x="0" y="81.266">#1E5964</tspan></text>
<text fill="#1B1B1B" xml:space="preserve" style="white-space: pre" font-family="Source Sans Pro" font-size="12" font-weight="600" letter-spacing="0em"><tspan x="94" y="81.266">#7B8871</tspan></text>
<text fill="#1B1B1B" xml:space="preserve" style="white-space: pre" font-family="Source Sans Pro" font-size="12" font-weight="600" letter-spacing="0em"><tspan x="188" y="81.266">#D3B77E</tspan></text>
<rect y="94" width="82" height="15" fill="#2273BB"/>
<rect x="94.5" y="94.5" width="81" height="14" fill="#88B0D3" stroke="#1B3F09"/>
<rect x="188" y="94" width="82" height="15" fill="#F0F0F0"/>
<text fill="#1B1B1B" xml:space="preserve" style="white-space: pre" font-family="Source Sans Pro" font-size="12" font-weight="600" letter-spacing="0em"><tspan x="0" y="128.266">#2273BB</tspan></text>
<text fill="#1B1B1B" xml:space="preserve" style="white-space: pre" font-family="Source Sans Pro" font-size="12" font-weight="600" letter-spacing="0em"><tspan x="94" y="128.266">#88B0D3</tspan></text>
<text fill="#1B1B1B" xml:space="preserve" style="white-space: pre" font-family="Source Sans Pro" font-size="12" font-weight="600" letter-spacing="0em"><tspan x="188" y="128.266">#F0F0F0</tspan></text>
<rect x="359" y="19" width="25" height="25" transform="rotate(-45 359 19)" fill="#1B3F09"/>
<rect x="341" y="37" width="25" height="25" transform="rotate(-45 341 37)" fill="#1E5964"/>
<rect x="323" y="55" width="25" height="25" transform="rotate(-45 323 55)" fill="#2273BB"/>
<rect x="377" y="37" width="25" height="25" transform="rotate(-45 377 37)" fill="#6C5F0A"/>
<rect x="341" y="73" width="25" height="25" transform="rotate(-45 341 73)" fill="#88B0D3"/>
<rect x="377" y="73" width="25" height="25" transform="rotate(-45 377 73)" fill="#D3B77E"/>
<rect x="359" y="91" width="25" height="25" transform="rotate(-45 359 91)" fill="#F0F0F0"/>
<rect x="395" y="55" width="25" height="25" transform="rotate(-45 395 55)" fill="#BA800C"/>
<rect x="359" y="55" width="25" height="25" transform="rotate(-45 359 55)" fill="#7B8871"/>
<rect y="193" width="82" height="15" fill="#412E4E"/>
<rect x="94" y="193" width="82" height="15" fill="#4E655A"/>
<rect x="188" y="193" width="82" height="15" fill="#5A9965"/>
<text fill="#1B1B1B" xml:space="preserve" style="white-space: pre" font-family="Source Sans Pro" font-size="12" font-weight="600" letter-spacing="0em"><tspan x="0" y="227.266">#412E4E</tspan></text>
<text fill="#1B1B1B" xml:space="preserve" style="white-space: pre" font-family="Source Sans Pro" font-size="12" font-weight="600" letter-spacing="0em"><tspan x="94" y="227.266">#4E655A</tspan></text>
<text fill="#1B1B1B" xml:space="preserve" style="white-space: pre" font-family="Source Sans Pro" font-size="12" font-weight="600" letter-spacing="0em"><tspan x="188" y="227.266">#5A9965</tspan></text>
<rect y="240" width="82" height="15" fill="#753B82"/>
<rect x="94" y="240" width="82" height="15" fill="#8D8096"/>
<rect x="188.5" y="240.5" width="81" height="14" fill="#A2C2A8" stroke="#412E4E"/>
<text fill="#1B1B1B" xml:space="preserve" style="white-space: pre" font-family="Source Sans Pro" font-size="12" font-weight="600" letter-spacing="0em"><tspan x="0" y="274.266">#753B82</tspan></text>
<text fill="#1B1B1B" xml:space="preserve" style="white-space: pre" font-family="Source Sans Pro" font-size="12" font-weight="600" letter-spacing="0em"><tspan x="94" y="274.266">#8D8096</tspan></text>
<text fill="#1B1B1B" xml:space="preserve" style="white-space: pre" font-family="Source Sans Pro" font-size="12" font-weight="600" letter-spacing="0em"><tspan x="188" y="274.266">#A2C2A8</tspan></text>
<rect y="287" width="82" height="15" fill="#A947B6"/>
<rect x="94.5" y="287.5" width="81" height="14" fill="#CC9CD1" stroke="#412E4E"/>
<rect x="188" y="287" width="82" height="15" fill="#F0F0F0"/>
<text fill="#1B1B1B" xml:space="preserve" style="white-space: pre" font-family="Source Sans Pro" font-size="12" font-weight="600" letter-spacing="0em"><tspan x="0" y="321.266">#A947B6</tspan></text>
<text fill="#1B1B1B" xml:space="preserve" style="white-space: pre" font-family="Source Sans Pro" font-size="12" font-weight="600" letter-spacing="0em"><tspan x="94" y="321.266">#CC9CD1</tspan></text>
<text fill="#1B1B1B" xml:space="preserve" style="white-space: pre" font-family="Source Sans Pro" font-size="12" font-weight="600" letter-spacing="0em"><tspan x="188" y="321.266">#F0F0F0</tspan></text>
<rect x="359" y="212.322" width="25" height="25" transform="rotate(-45 359 212.322)" fill="#412E4E"/>
<rect x="341" y="230.322" width="25" height="25" transform="rotate(-45 341 230.322)" fill="#753B82"/>
<rect x="323" y="248.322" width="25" height="25" transform="rotate(-45 323 248.322)" fill="#A947B6"/>
<rect x="377" y="230.322" width="25" height="25" transform="rotate(-45 377 230.322)" fill="#4E655A"/>
<rect x="341" y="266.322" width="25" height="25" transform="rotate(-45 341 266.322)" fill="#CC9CD1"/>
<rect x="377" y="266.322" width="25" height="25" transform="rotate(-45 377 266.322)" fill="#A2C2A8"/>
<rect x="359" y="284.322" width="25" height="25" transform="rotate(-45 359 284.322)" fill="#F0F0F0"/>
<rect x="395" y="248.322" width="25" height="25" transform="rotate(-45 395 248.322)" fill="#5A9965"/>
<rect x="359" y="248.322" width="25" height="25" transform="rotate(-45 359 248.322)" fill="#8D8096"/>
</svg>
