<svg width="431" height="326" viewBox="0 0 431 326" fill="none" xmlns="http://www.w3.org/2000/svg">
<rect width="82" height="15" fill="#1B3F09"/>
<rect x="94" width="82" height="15" fill="#6C5F0A"/>
<rect x="188" width="82" height="15" fill="#BA800C"/>
<path d="M1.056 34L1.344 31.66H0.42V30.748H1.44L1.632 29.2H0.66V28.288H1.752L2.016 26.2H2.844L2.592 28.288H3.996L4.272 26.2H5.088L4.836 28.288H5.796V29.2H4.728L4.536 30.748H5.556V31.66H4.428L4.152 34H3.312L3.588 31.66H2.184L1.896 34H1.056ZM2.28 30.748H3.696L3.888 29.2H2.472L2.28 30.748ZM7.04034 34V32.872H8.74434V27.856H7.34034V26.992C7.71634 26.92 8.04434 26.836 8.32434 26.74C8.60434 26.636 8.86434 26.512 9.10434 26.368H10.1363V32.872H11.6363V34H7.04034ZM13.3007 34V26.152H15.8087C16.3527 26.152 16.8327 26.212 17.2487 26.332C17.6727 26.452 18.0047 26.656 18.2447 26.944C18.4927 27.224 18.6167 27.604 18.6167 28.084C18.6167 28.452 18.5207 28.8 18.3287 29.128C18.1367 29.448 17.8687 29.668 17.5247 29.788V29.836C17.9567 29.932 18.3127 30.136 18.5927 30.448C18.8807 30.752 19.0247 31.168 19.0247 31.696C19.0247 32.216 18.8927 32.648 18.6287 32.992C18.3727 33.336 18.0167 33.592 17.5607 33.76C17.1047 33.92 16.5887 34 16.0127 34H13.3007ZM14.6927 29.392H15.6887C16.2327 29.392 16.6287 29.292 16.8767 29.092C17.1247 28.892 17.2487 28.624 17.2487 28.288C17.2487 27.904 17.1207 27.632 16.8647 27.472C16.6087 27.312 16.2247 27.232 15.7127 27.232H14.6927V29.392ZM14.6927 32.92H15.8687C16.4447 32.92 16.8887 32.816 17.2007 32.608C17.5127 32.392 17.6687 32.064 17.6687 31.624C17.6687 31.208 17.5167 30.908 17.2127 30.724C16.9087 30.532 16.4607 30.436 15.8687 30.436H14.6927V32.92ZM22.3448 34.144C21.7288 34.144 21.2088 34.04 20.7848 33.832C20.3688 33.616 20.0248 33.36 19.7528 33.064L20.4128 32.176C20.6448 32.408 20.9088 32.608 21.2048 32.776C21.5008 32.936 21.8408 33.016 22.2248 33.016C22.6408 33.016 22.9768 32.916 23.2328 32.716C23.4968 32.508 23.6288 32.224 23.6288 31.864C23.6288 31.6 23.5608 31.372 23.4248 31.18C23.2968 30.98 23.0688 30.828 22.7408 30.724C22.4208 30.62 21.9688 30.568 21.3848 30.568V29.56C22.1368 29.56 22.6568 29.444 22.9448 29.212C23.2328 28.98 23.3768 28.688 23.3768 28.336C23.3768 28.016 23.2768 27.768 23.0768 27.592C22.8768 27.408 22.6008 27.316 22.2488 27.316C21.9528 27.316 21.6808 27.384 21.4328 27.52C21.1848 27.648 20.9448 27.82 20.7128 28.036L20.0048 27.184C20.3328 26.896 20.6808 26.664 21.0488 26.488C21.4248 26.312 21.8408 26.224 22.2968 26.224C23.0328 26.224 23.6288 26.4 24.0848 26.752C24.5408 27.096 24.7688 27.592 24.7688 28.24C24.7688 28.664 24.6488 29.024 24.4088 29.32C24.1768 29.608 23.8528 29.832 23.4368 29.992V30.04C23.8848 30.16 24.2608 30.38 24.5648 30.7C24.8688 31.02 25.0208 31.432 25.0208 31.936C25.0208 32.4 24.8968 32.796 24.6488 33.124C24.4088 33.452 24.0848 33.704 23.6768 33.88C23.2768 34.056 22.8328 34.144 22.3448 34.144ZM26.6132 34V26.152H31.3532V27.328H28.0052V29.548H30.8612V30.724H28.0052V34H26.6132ZM34.8064 34.144C34.0144 34.144 33.3824 33.8 32.9104 33.112C32.4464 32.424 32.2144 31.436 32.2144 30.148C32.2144 28.86 32.4464 27.884 32.9104 27.22C33.3824 26.556 34.0144 26.224 34.8064 26.224C35.5984 26.224 36.2264 26.556 36.6904 27.22C37.1624 27.884 37.3984 28.86 37.3984 30.148C37.3984 31.436 37.1624 32.424 36.6904 33.112C36.2264 33.8 35.5984 34.144 34.8064 34.144ZM34.8064 33.064C35.0544 33.064 35.2744 32.972 35.4664 32.788C35.6584 32.596 35.8064 32.288 35.9104 31.864C36.0224 31.44 36.0784 30.868 36.0784 30.148C36.0784 29.428 36.0224 28.86 35.9104 28.444C35.8064 28.028 35.6584 27.736 35.4664 27.568C35.2744 27.392 35.0544 27.304 34.8064 27.304C34.5664 27.304 34.3504 27.392 34.1584 27.568C33.9664 27.736 33.8144 28.028 33.7024 28.444C33.5904 28.86 33.5344 29.428 33.5344 30.148C33.5344 30.868 33.5904 31.44 33.7024 31.864C33.8144 32.288 33.9664 32.596 34.1584 32.788C34.3504 32.972 34.5664 33.064 34.8064 33.064ZM39.6027 28.72C39.6027 29.168 39.7067 29.508 39.9147 29.74C40.1307 29.972 40.4307 30.088 40.8147 30.088C41.0387 30.088 41.2707 30.02 41.5107 29.884C41.7587 29.74 41.9827 29.512 42.1827 29.2C42.1107 28.528 41.9467 28.04 41.6907 27.736C41.4347 27.432 41.1187 27.28 40.7427 27.28C40.4307 27.28 40.1627 27.404 39.9387 27.652C39.7147 27.9 39.6027 28.256 39.6027 28.72ZM40.4907 34.144C40.0347 34.144 39.6387 34.06 39.3027 33.892C38.9667 33.724 38.6827 33.52 38.4507 33.28L39.1947 32.44C39.3387 32.608 39.5187 32.748 39.7347 32.86C39.9587 32.964 40.1867 33.016 40.4187 33.016C40.7387 33.016 41.0307 32.928 41.2947 32.752C41.5587 32.576 41.7747 32.284 41.9427 31.876C42.1107 31.46 42.2027 30.9 42.2187 30.196C41.9947 30.468 41.7307 30.684 41.4267 30.844C41.1227 31.004 40.8307 31.084 40.5507 31.084C39.8947 31.084 39.3587 30.892 38.9427 30.508C38.5347 30.116 38.3307 29.52 38.3307 28.72C38.3307 28.208 38.4387 27.768 38.6547 27.4C38.8787 27.024 39.1707 26.736 39.5307 26.536C39.8987 26.328 40.2987 26.224 40.7307 26.224C41.2267 26.224 41.6827 26.356 42.0987 26.62C42.5227 26.884 42.8587 27.292 43.1067 27.844C43.3627 28.388 43.4907 29.088 43.4907 29.944C43.4907 30.928 43.3507 31.732 43.0707 32.356C42.7907 32.972 42.4227 33.424 41.9667 33.712C41.5107 34 41.0187 34.144 40.4907 34.144Z" fill="#1B1B1B"/>
<path d="M95.056 34L95.344 31.66H94.42V30.748H95.44L95.632 29.2H94.66V28.288H95.752L96.016 26.2H96.844L96.592 28.288H97.996L98.272 26.2H99.088L98.836 28.288H99.796V29.2H98.728L98.536 30.748H99.556V31.66H98.428L98.152 34H97.312L97.588 31.66H96.184L95.896 34H95.056ZM96.28 30.748H97.696L97.888 29.2H96.472L96.28 30.748ZM103.368 30.28C103.152 30.28 102.924 30.348 102.684 30.484C102.444 30.612 102.216 30.836 102 31.156C102.072 31.836 102.236 32.328 102.492 32.632C102.748 32.936 103.06 33.088 103.428 33.088C103.748 33.088 104.016 32.964 104.232 32.716C104.456 32.46 104.568 32.1 104.568 31.636C104.568 31.188 104.46 30.852 104.244 30.628C104.036 30.396 103.744 30.28 103.368 30.28ZM103.452 34.144C102.956 34.144 102.496 34.012 102.072 33.748C101.648 33.484 101.308 33.076 101.052 32.524C100.804 31.972 100.68 31.268 100.68 30.412C100.68 29.42 100.82 28.62 101.1 28.012C101.388 27.396 101.76 26.944 102.216 26.656C102.672 26.368 103.16 26.224 103.68 26.224C104.144 26.224 104.544 26.308 104.88 26.476C105.216 26.644 105.496 26.848 105.72 27.088L104.976 27.928C104.84 27.76 104.66 27.624 104.436 27.52C104.22 27.408 103.996 27.352 103.764 27.352C103.444 27.352 103.152 27.44 102.888 27.616C102.624 27.792 102.408 28.088 102.24 28.504C102.08 28.912 101.988 29.468 101.964 30.172C102.188 29.892 102.452 29.672 102.756 29.512C103.06 29.352 103.348 29.272 103.62 29.272C104.284 29.272 104.82 29.468 105.228 29.86C105.644 30.244 105.852 30.836 105.852 31.636C105.852 32.14 105.74 32.58 105.516 32.956C105.3 33.332 105.012 33.624 104.652 33.832C104.292 34.04 103.892 34.144 103.452 34.144ZM110.433 34.144C109.777 34.144 109.181 33.988 108.645 33.676C108.109 33.364 107.681 32.908 107.361 32.308C107.049 31.7 106.893 30.964 106.893 30.1C106.893 29.244 107.053 28.512 107.373 27.904C107.701 27.288 108.137 26.82 108.681 26.5C109.225 26.172 109.825 26.008 110.481 26.008C110.977 26.008 111.417 26.108 111.801 26.308C112.185 26.508 112.501 26.74 112.749 27.004L112.005 27.904C111.805 27.696 111.581 27.532 111.333 27.412C111.093 27.284 110.821 27.22 110.517 27.22C110.093 27.22 109.713 27.336 109.377 27.568C109.049 27.792 108.789 28.116 108.597 28.54C108.413 28.964 108.321 29.472 108.321 30.064C108.321 30.96 108.517 31.664 108.909 32.176C109.301 32.68 109.825 32.932 110.481 32.932C110.833 32.932 111.145 32.86 111.417 32.716C111.689 32.564 111.937 32.368 112.161 32.128L112.905 33.004C112.585 33.372 112.217 33.656 111.801 33.856C111.393 34.048 110.937 34.144 110.433 34.144ZM116.111 34.144C115.495 34.144 114.975 34.04 114.551 33.832C114.135 33.616 113.787 33.368 113.507 33.088L114.143 32.2C114.375 32.416 114.635 32.608 114.923 32.776C115.211 32.936 115.547 33.016 115.931 33.016C116.355 33.016 116.707 32.888 116.987 32.632C117.267 32.376 117.407 32.016 117.407 31.552C117.407 31.096 117.279 30.744 117.023 30.496C116.767 30.248 116.427 30.124 116.003 30.124C115.755 30.124 115.547 30.16 115.379 30.232C115.211 30.296 115.011 30.404 114.779 30.556L114.119 30.136L114.347 26.368H118.427V27.532H115.547L115.391 29.38C115.551 29.3 115.707 29.24 115.859 29.2C116.019 29.152 116.199 29.128 116.399 29.128C116.839 29.128 117.239 29.212 117.599 29.38C117.959 29.548 118.247 29.808 118.463 30.16C118.687 30.512 118.799 30.964 118.799 31.516C118.799 32.068 118.671 32.54 118.415 32.932C118.167 33.324 117.839 33.624 117.431 33.832C117.023 34.04 116.583 34.144 116.111 34.144ZM120.367 34V26.152H125.107V27.328H121.759V29.548H124.615V30.724H121.759V34H120.367ZM128.56 34.144C127.768 34.144 127.136 33.8 126.664 33.112C126.2 32.424 125.968 31.436 125.968 30.148C125.968 28.86 126.2 27.884 126.664 27.22C127.136 26.556 127.768 26.224 128.56 26.224C129.352 26.224 129.98 26.556 130.444 27.22C130.916 27.884 131.152 28.86 131.152 30.148C131.152 31.436 130.916 32.424 130.444 33.112C129.98 33.8 129.352 34.144 128.56 34.144ZM128.56 33.064C128.808 33.064 129.028 32.972 129.22 32.788C129.412 32.596 129.56 32.288 129.664 31.864C129.776 31.44 129.832 30.868 129.832 30.148C129.832 29.428 129.776 28.86 129.664 28.444C129.56 28.028 129.412 27.736 129.22 27.568C129.028 27.392 128.808 27.304 128.56 27.304C128.32 27.304 128.104 27.392 127.912 27.568C127.72 27.736 127.568 28.028 127.456 28.444C127.344 28.86 127.288 29.428 127.288 30.148C127.288 30.868 127.344 31.44 127.456 31.864C127.568 32.288 127.72 32.596 127.912 32.788C128.104 32.972 128.32 33.064 128.56 33.064ZM134.245 29.824L133.969 30.784H135.973L135.697 29.824C135.569 29.408 135.445 28.98 135.325 28.54C135.213 28.1 135.101 27.664 134.989 27.232H134.941C134.837 27.672 134.725 28.112 134.605 28.552C134.493 28.984 134.373 29.408 134.245 29.824ZM131.617 34L134.173 26.152H135.805L138.361 34H136.897L136.285 31.876H133.645L133.033 34H131.617Z" fill="#1B1B1B"/>
<path d="M189.056 34L189.344 31.66H188.42V30.748H189.44L189.632 29.2H188.66V28.288H189.752L190.016 26.2H190.844L190.592 28.288H191.996L192.272 26.2H193.088L192.836 28.288H193.796V29.2H192.728L192.536 30.748H193.556V31.66H192.428L192.152 34H191.312L191.588 31.66H190.184L189.896 34H189.056ZM190.28 30.748H191.696L191.888 29.2H190.472L190.28 30.748ZM195.148 34V26.152H197.656C198.2 26.152 198.68 26.212 199.096 26.332C199.52 26.452 199.852 26.656 200.092 26.944C200.34 27.224 200.464 27.604 200.464 28.084C200.464 28.452 200.368 28.8 200.176 29.128C199.984 29.448 199.716 29.668 199.372 29.788V29.836C199.804 29.932 200.16 30.136 200.44 30.448C200.728 30.752 200.872 31.168 200.872 31.696C200.872 32.216 200.74 32.648 200.476 32.992C200.22 33.336 199.864 33.592 199.408 33.76C198.952 33.92 198.436 34 197.86 34H195.148ZM196.54 29.392H197.536C198.08 29.392 198.476 29.292 198.724 29.092C198.972 28.892 199.096 28.624 199.096 28.288C199.096 27.904 198.968 27.632 198.712 27.472C198.456 27.312 198.072 27.232 197.56 27.232H196.54V29.392ZM196.54 32.92H197.716C198.292 32.92 198.736 32.816 199.048 32.608C199.36 32.392 199.516 32.064 199.516 31.624C199.516 31.208 199.364 30.908 199.06 30.724C198.756 30.532 198.308 30.436 197.716 30.436H196.54V32.92ZM203.917 29.824L203.641 30.784H205.645L205.369 29.824C205.241 29.408 205.117 28.98 204.997 28.54C204.885 28.1 204.773 27.664 204.661 27.232H204.613C204.509 27.672 204.397 28.112 204.277 28.552C204.165 28.984 204.045 29.408 203.917 29.824ZM201.288 34L203.845 26.152H205.477L208.033 34H206.569L205.957 31.876H203.317L202.705 34H201.288ZM211.088 34.144C210.592 34.144 210.148 34.056 209.756 33.88C209.364 33.696 209.056 33.448 208.832 33.136C208.608 32.824 208.496 32.46 208.496 32.044C208.496 31.572 208.636 31.176 208.916 30.856C209.196 30.536 209.516 30.28 209.876 30.088V30.04C209.58 29.832 209.328 29.584 209.12 29.296C208.92 29 208.82 28.652 208.82 28.252C208.82 27.836 208.92 27.48 209.12 27.184C209.32 26.88 209.592 26.644 209.936 26.476C210.288 26.308 210.684 26.224 211.124 26.224C211.812 26.224 212.356 26.416 212.756 26.8C213.164 27.176 213.368 27.672 213.368 28.288C213.368 28.664 213.26 29.004 213.044 29.308C212.828 29.612 212.596 29.856 212.348 30.04V30.088C212.7 30.288 213.008 30.54 213.272 30.844C213.536 31.148 213.668 31.556 213.668 32.068C213.668 32.46 213.56 32.812 213.344 33.124C213.128 33.436 212.828 33.684 212.444 33.868C212.06 34.052 211.608 34.144 211.088 34.144ZM211.592 29.692C211.8 29.484 211.956 29.272 212.06 29.056C212.172 28.84 212.228 28.612 212.228 28.372C212.228 28.036 212.128 27.76 211.928 27.544C211.728 27.32 211.452 27.208 211.1 27.208C210.804 27.208 210.556 27.3 210.356 27.484C210.156 27.668 210.056 27.924 210.056 28.252C210.056 28.508 210.124 28.724 210.26 28.9C210.396 29.068 210.58 29.216 210.812 29.344C211.052 29.464 211.312 29.58 211.592 29.692ZM211.112 33.16C211.48 33.16 211.78 33.06 212.012 32.86C212.252 32.652 212.372 32.372 212.372 32.02C212.372 31.74 212.288 31.512 212.12 31.336C211.96 31.16 211.74 31.008 211.46 30.88C211.188 30.744 210.88 30.608 210.536 30.472C210.296 30.648 210.096 30.856 209.936 31.096C209.784 31.336 209.708 31.604 209.708 31.9C209.708 32.276 209.844 32.58 210.116 32.812C210.388 33.044 210.72 33.16 211.112 33.16ZM217.228 34.144C216.436 34.144 215.804 33.8 215.332 33.112C214.868 32.424 214.636 31.436 214.636 30.148C214.636 28.86 214.868 27.884 215.332 27.22C215.804 26.556 216.436 26.224 217.228 26.224C218.02 26.224 218.648 26.556 219.112 27.22C219.584 27.884 219.82 28.86 219.82 30.148C219.82 31.436 219.584 32.424 219.112 33.112C218.648 33.8 218.02 34.144 217.228 34.144ZM217.228 33.064C217.476 33.064 217.696 32.972 217.888 32.788C218.08 32.596 218.228 32.288 218.332 31.864C218.444 31.44 218.5 30.868 218.5 30.148C218.5 29.428 218.444 28.86 218.332 28.444C218.228 28.028 218.08 27.736 217.888 27.568C217.696 27.392 217.476 27.304 217.228 27.304C216.988 27.304 216.772 27.392 216.58 27.568C216.388 27.736 216.236 28.028 216.124 28.444C216.012 28.86 215.956 29.428 215.956 30.148C215.956 30.868 216.012 31.44 216.124 31.864C216.236 32.288 216.388 32.596 216.58 32.788C216.772 32.972 216.988 33.064 217.228 33.064ZM223.381 34.144C222.589 34.144 221.957 33.8 221.485 33.112C221.021 32.424 220.789 31.436 220.789 30.148C220.789 28.86 221.021 27.884 221.485 27.22C221.957 26.556 222.589 26.224 223.381 26.224C224.173 26.224 224.801 26.556 225.265 27.22C225.737 27.884 225.973 28.86 225.973 30.148C225.973 31.436 225.737 32.424 225.265 33.112C224.801 33.8 224.173 34.144 223.381 34.144ZM223.381 33.064C223.629 33.064 223.849 32.972 224.041 32.788C224.233 32.596 224.381 32.288 224.485 31.864C224.597 31.44 224.653 30.868 224.653 30.148C224.653 29.428 224.597 28.86 224.485 28.444C224.381 28.028 224.233 27.736 224.041 27.568C223.849 27.392 223.629 27.304 223.381 27.304C223.141 27.304 222.925 27.392 222.733 27.568C222.541 27.736 222.389 28.028 222.277 28.444C222.165 28.86 222.109 29.428 222.109 30.148C222.109 30.868 222.165 31.44 222.277 31.864C222.389 32.288 222.541 32.596 222.733 32.788C222.925 32.972 223.141 33.064 223.381 33.064ZM230.589 34.144C229.933 34.144 229.337 33.988 228.801 33.676C228.265 33.364 227.837 32.908 227.517 32.308C227.205 31.7 227.049 30.964 227.049 30.1C227.049 29.244 227.209 28.512 227.529 27.904C227.857 27.288 228.293 26.82 228.837 26.5C229.381 26.172 229.981 26.008 230.637 26.008C231.133 26.008 231.573 26.108 231.957 26.308C232.341 26.508 232.657 26.74 232.905 27.004L232.161 27.904C231.961 27.696 231.737 27.532 231.489 27.412C231.249 27.284 230.977 27.22 230.673 27.22C230.249 27.22 229.869 27.336 229.533 27.568C229.205 27.792 228.945 28.116 228.753 28.54C228.569 28.964 228.477 29.472 228.477 30.064C228.477 30.96 228.673 31.664 229.065 32.176C229.457 32.68 229.981 32.932 230.637 32.932C230.989 32.932 231.301 32.86 231.573 32.716C231.845 32.564 232.093 32.368 232.317 32.128L233.061 33.004C232.741 33.372 232.373 33.656 231.957 33.856C231.549 34.048 231.093 34.144 230.589 34.144Z" fill="#1B1B1B"/>
<rect y="47" width="82" height="15" fill="#1E5964"/>
<rect x="94" y="47" width="82" height="15" fill="#7B8871"/>
<rect x="188.5" y="47.5" width="81" height="14" fill="#D3B77E" stroke="#1B3F09"/>
<path d="M1.056 81L1.344 78.66H0.42V77.748H1.44L1.632 76.2H0.66V75.288H1.752L2.016 73.2H2.844L2.592 75.288H3.996L4.272 73.2H5.088L4.836 75.288H5.796V76.2H4.728L4.536 77.748H5.556V78.66H4.428L4.152 81H3.312L3.588 78.66H2.184L1.896 81H1.056ZM2.28 77.748H3.696L3.888 76.2H2.472L2.28 77.748ZM7.04034 81V79.872H8.74434V74.856H7.34034V73.992C7.71634 73.92 8.04434 73.836 8.32434 73.74C8.60434 73.636 8.86434 73.512 9.10434 73.368H10.1363V79.872H11.6363V81H7.04034ZM13.3007 81V73.152H18.0287V74.328H14.6927V76.332H17.5127V77.508H14.6927V79.824H18.1487V81H13.3007ZM21.6537 81.144C21.0377 81.144 20.5177 81.04 20.0937 80.832C19.6777 80.616 19.3297 80.368 19.0497 80.088L19.6857 79.2C19.9177 79.416 20.1777 79.608 20.4657 79.776C20.7537 79.936 21.0897 80.016 21.4737 80.016C21.8977 80.016 22.2497 79.888 22.5297 79.632C22.8097 79.376 22.9497 79.016 22.9497 78.552C22.9497 78.096 22.8217 77.744 22.5657 77.496C22.3097 77.248 21.9697 77.124 21.5457 77.124C21.2977 77.124 21.0897 77.16 20.9217 77.232C20.7537 77.296 20.5537 77.404 20.3217 77.556L19.6617 77.136L19.8897 73.368H23.9697V74.532H21.0897L20.9337 76.38C21.0937 76.3 21.2497 76.24 21.4017 76.2C21.5617 76.152 21.7417 76.128 21.9417 76.128C22.3817 76.128 22.7817 76.212 23.1417 76.38C23.5017 76.548 23.7897 76.808 24.0057 77.16C24.2297 77.512 24.3417 77.964 24.3417 78.516C24.3417 79.068 24.2137 79.54 23.9577 79.932C23.7097 80.324 23.3817 80.624 22.9737 80.832C22.5657 81.04 22.1257 81.144 21.6537 81.144ZM26.6301 75.72C26.6301 76.168 26.7341 76.508 26.9421 76.74C27.1581 76.972 27.4581 77.088 27.8421 77.088C28.0661 77.088 28.2981 77.02 28.5381 76.884C28.7861 76.74 29.0101 76.512 29.2101 76.2C29.1381 75.528 28.9741 75.04 28.7181 74.736C28.4621 74.432 28.1461 74.28 27.7701 74.28C27.4581 74.28 27.1901 74.404 26.9661 74.652C26.7421 74.9 26.6301 75.256 26.6301 75.72ZM27.5181 81.144C27.0621 81.144 26.6661 81.06 26.3301 80.892C25.9941 80.724 25.7101 80.52 25.4781 80.28L26.2221 79.44C26.3661 79.608 26.5461 79.748 26.7621 79.86C26.9861 79.964 27.2141 80.016 27.4461 80.016C27.7661 80.016 28.0581 79.928 28.3221 79.752C28.5861 79.576 28.8021 79.284 28.9701 78.876C29.1381 78.46 29.2301 77.9 29.2461 77.196C29.0221 77.468 28.7581 77.684 28.4541 77.844C28.1501 78.004 27.8581 78.084 27.5781 78.084C26.9221 78.084 26.3861 77.892 25.9701 77.508C25.5621 77.116 25.3581 76.52 25.3581 75.72C25.3581 75.208 25.4661 74.768 25.6821 74.4C25.9061 74.024 26.1981 73.736 26.5581 73.536C26.9261 73.328 27.3261 73.224 27.7581 73.224C28.2541 73.224 28.7101 73.356 29.1261 73.62C29.5501 73.884 29.8861 74.292 30.1341 74.844C30.3901 75.388 30.5181 76.088 30.5181 76.944C30.5181 77.928 30.3781 78.732 30.0981 79.356C29.8181 79.972 29.4501 80.424 28.9941 80.712C28.5381 81 28.0461 81.144 27.5181 81.144ZM34.2824 77.28C34.0664 77.28 33.8384 77.348 33.5984 77.484C33.3584 77.612 33.1304 77.836 32.9144 78.156C32.9864 78.836 33.1504 79.328 33.4064 79.632C33.6624 79.936 33.9744 80.088 34.3424 80.088C34.6624 80.088 34.9304 79.964 35.1464 79.716C35.3704 79.46 35.4824 79.1 35.4824 78.636C35.4824 78.188 35.3744 77.852 35.1584 77.628C34.9504 77.396 34.6584 77.28 34.2824 77.28ZM34.3664 81.144C33.8704 81.144 33.4104 81.012 32.9864 80.748C32.5624 80.484 32.2224 80.076 31.9664 79.524C31.7184 78.972 31.5944 78.268 31.5944 77.412C31.5944 76.42 31.7344 75.62 32.0144 75.012C32.3024 74.396 32.6744 73.944 33.1304 73.656C33.5864 73.368 34.0744 73.224 34.5944 73.224C35.0584 73.224 35.4584 73.308 35.7944 73.476C36.1304 73.644 36.4104 73.848 36.6344 74.088L35.8904 74.928C35.7544 74.76 35.5744 74.624 35.3504 74.52C35.1344 74.408 34.9104 74.352 34.6784 74.352C34.3584 74.352 34.0664 74.44 33.8024 74.616C33.5384 74.792 33.3224 75.088 33.1544 75.504C32.9944 75.912 32.9024 76.468 32.8784 77.172C33.1024 76.892 33.3664 76.672 33.6704 76.512C33.9744 76.352 34.2624 76.272 34.5344 76.272C35.1984 76.272 35.7344 76.468 36.1424 76.86C36.5584 77.244 36.7664 77.836 36.7664 78.636C36.7664 79.14 36.6544 79.58 36.4304 79.956C36.2144 80.332 35.9264 80.624 35.5664 80.832C35.2064 81.04 34.8064 81.144 34.3664 81.144ZM38.8027 77.964H40.8068V76.236C40.8068 76.012 40.8148 75.748 40.8308 75.444C40.8468 75.14 40.8588 74.876 40.8668 74.652H40.8188C40.7228 74.852 40.6228 75.048 40.5188 75.24C40.4148 75.432 40.3068 75.632 40.1948 75.84L38.8027 77.964ZM40.8068 81V79.032H37.4348V78.096L40.4588 73.368H42.1028V77.964H43.0628V79.032H42.1028V81H40.8068Z" fill="#1B1B1B"/>
<path d="M95.056 81L95.344 78.66H94.42V77.748H95.44L95.632 76.2H94.66V75.288H95.752L96.016 73.2H96.844L96.592 75.288H97.996L98.272 73.2H99.088L98.836 75.288H99.796V76.2H98.728L98.536 77.748H99.556V78.66H98.428L98.152 81H97.312L97.588 78.66H96.184L95.896 81H95.056ZM96.28 77.748H97.696L97.888 76.2H96.472L96.28 77.748ZM102.168 81C102.216 80.096 102.312 79.288 102.456 78.576C102.6 77.856 102.82 77.172 103.116 76.524C103.412 75.876 103.804 75.212 104.292 74.532H100.68V73.368H105.804V74.208C105.356 74.76 104.992 75.288 104.712 75.792C104.44 76.296 104.224 76.808 104.064 77.328C103.912 77.84 103.8 78.396 103.728 78.996C103.656 79.588 103.604 80.256 103.572 81H102.168ZM107.301 81V73.152H109.809C110.353 73.152 110.833 73.212 111.249 73.332C111.673 73.452 112.005 73.656 112.245 73.944C112.493 74.224 112.617 74.604 112.617 75.084C112.617 75.452 112.521 75.8 112.329 76.128C112.137 76.448 111.869 76.668 111.525 76.788V76.836C111.957 76.932 112.313 77.136 112.593 77.448C112.881 77.752 113.025 78.168 113.025 78.696C113.025 79.216 112.893 79.648 112.629 79.992C112.373 80.336 112.017 80.592 111.561 80.76C111.105 80.92 110.589 81 110.013 81H107.301ZM108.693 76.392H109.689C110.233 76.392 110.629 76.292 110.877 76.092C111.125 75.892 111.249 75.624 111.249 75.288C111.249 74.904 111.121 74.632 110.865 74.472C110.609 74.312 110.225 74.232 109.713 74.232H108.693V76.392ZM108.693 79.92H109.869C110.445 79.92 110.889 79.816 111.201 79.608C111.513 79.392 111.669 79.064 111.669 78.624C111.669 78.208 111.517 77.908 111.213 77.724C110.909 77.532 110.461 77.436 109.869 77.436H108.693V79.92ZM116.549 81.144C116.053 81.144 115.609 81.056 115.217 80.88C114.825 80.696 114.517 80.448 114.293 80.136C114.069 79.824 113.957 79.46 113.957 79.044C113.957 78.572 114.097 78.176 114.377 77.856C114.657 77.536 114.977 77.28 115.337 77.088V77.04C115.041 76.832 114.789 76.584 114.581 76.296C114.381 76 114.281 75.652 114.281 75.252C114.281 74.836 114.381 74.48 114.581 74.184C114.781 73.88 115.053 73.644 115.397 73.476C115.749 73.308 116.145 73.224 116.585 73.224C117.273 73.224 117.817 73.416 118.217 73.8C118.625 74.176 118.829 74.672 118.829 75.288C118.829 75.664 118.721 76.004 118.505 76.308C118.289 76.612 118.057 76.856 117.809 77.04V77.088C118.161 77.288 118.469 77.54 118.733 77.844C118.997 78.148 119.129 78.556 119.129 79.068C119.129 79.46 119.021 79.812 118.805 80.124C118.589 80.436 118.289 80.684 117.905 80.868C117.521 81.052 117.069 81.144 116.549 81.144ZM117.053 76.692C117.261 76.484 117.417 76.272 117.521 76.056C117.633 75.84 117.689 75.612 117.689 75.372C117.689 75.036 117.589 74.76 117.389 74.544C117.189 74.32 116.913 74.208 116.561 74.208C116.265 74.208 116.017 74.3 115.817 74.484C115.617 74.668 115.517 74.924 115.517 75.252C115.517 75.508 115.585 75.724 115.721 75.9C115.857 76.068 116.041 76.216 116.273 76.344C116.513 76.464 116.773 76.58 117.053 76.692ZM116.573 80.16C116.941 80.16 117.241 80.06 117.473 79.86C117.713 79.652 117.833 79.372 117.833 79.02C117.833 78.74 117.749 78.512 117.581 78.336C117.421 78.16 117.201 78.008 116.921 77.88C116.649 77.744 116.341 77.608 115.997 77.472C115.757 77.648 115.557 77.856 115.397 78.096C115.245 78.336 115.169 78.604 115.169 78.9C115.169 79.276 115.305 79.58 115.577 79.812C115.849 80.044 116.181 80.16 116.573 80.16ZM122.701 81.144C122.205 81.144 121.761 81.056 121.369 80.88C120.977 80.696 120.669 80.448 120.445 80.136C120.221 79.824 120.109 79.46 120.109 79.044C120.109 78.572 120.249 78.176 120.529 77.856C120.809 77.536 121.129 77.28 121.489 77.088V77.04C121.193 76.832 120.941 76.584 120.733 76.296C120.533 76 120.433 75.652 120.433 75.252C120.433 74.836 120.533 74.48 120.733 74.184C120.933 73.88 121.205 73.644 121.549 73.476C121.901 73.308 122.297 73.224 122.737 73.224C123.425 73.224 123.969 73.416 124.369 73.8C124.777 74.176 124.981 74.672 124.981 75.288C124.981 75.664 124.873 76.004 124.657 76.308C124.441 76.612 124.209 76.856 123.961 77.04V77.088C124.313 77.288 124.621 77.54 124.885 77.844C125.149 78.148 125.281 78.556 125.281 79.068C125.281 79.46 125.173 79.812 124.957 80.124C124.741 80.436 124.441 80.684 124.057 80.868C123.673 81.052 123.221 81.144 122.701 81.144ZM123.205 76.692C123.413 76.484 123.569 76.272 123.673 76.056C123.785 75.84 123.841 75.612 123.841 75.372C123.841 75.036 123.741 74.76 123.541 74.544C123.341 74.32 123.065 74.208 122.713 74.208C122.417 74.208 122.169 74.3 121.969 74.484C121.769 74.668 121.669 74.924 121.669 75.252C121.669 75.508 121.737 75.724 121.873 75.9C122.009 76.068 122.193 76.216 122.425 76.344C122.665 76.464 122.925 76.58 123.205 76.692ZM122.725 80.16C123.093 80.16 123.393 80.06 123.625 79.86C123.865 79.652 123.985 79.372 123.985 79.02C123.985 78.74 123.901 78.512 123.733 78.336C123.573 78.16 123.353 78.008 123.073 77.88C122.801 77.744 122.493 77.608 122.149 77.472C121.909 77.648 121.709 77.856 121.549 78.096C121.397 78.336 121.321 78.604 121.321 78.9C121.321 79.276 121.457 79.58 121.729 79.812C122.001 80.044 122.333 80.16 122.725 80.16ZM127.786 81C127.834 80.096 127.93 79.288 128.074 78.576C128.218 77.856 128.438 77.172 128.734 76.524C129.03 75.876 129.422 75.212 129.91 74.532H126.298V73.368H131.422V74.208C130.974 74.76 130.61 75.288 130.33 75.792C130.058 76.296 129.842 76.808 129.682 77.328C129.53 77.84 129.418 78.396 129.346 78.996C129.274 79.588 129.222 80.256 129.19 81H127.786ZM132.81 81V79.872H134.514V74.856H133.11V73.992C133.486 73.92 133.814 73.836 134.094 73.74C134.374 73.636 134.634 73.512 134.874 73.368H135.906V79.872H137.406V81H132.81Z" fill="#1B1B1B"/>
<path d="M189.056 81L189.344 78.66H188.42V77.748H189.44L189.632 76.2H188.66V75.288H189.752L190.016 73.2H190.844L190.592 75.288H191.996L192.272 73.2H193.088L192.836 75.288H193.796V76.2H192.728L192.536 77.748H193.556V78.66H192.428L192.152 81H191.312L191.588 78.66H190.184L189.896 81H189.056ZM190.28 77.748H191.696L191.888 76.2H190.472L190.28 77.748ZM195.148 81V73.152H197.248C198.448 73.152 199.384 73.476 200.056 74.124C200.728 74.772 201.064 75.744 201.064 77.04C201.064 78.344 200.732 79.332 200.068 80.004C199.404 80.668 198.488 81 197.32 81H195.148ZM196.54 79.872H197.152C197.944 79.872 198.556 79.644 198.988 79.188C199.42 78.724 199.636 78.008 199.636 77.04C199.636 76.08 199.42 75.38 198.988 74.94C198.556 74.5 197.944 74.28 197.152 74.28H196.54V79.872ZM204.532 81.144C203.916 81.144 203.396 81.04 202.972 80.832C202.556 80.616 202.212 80.36 201.94 80.064L202.6 79.176C202.832 79.408 203.096 79.608 203.392 79.776C203.688 79.936 204.028 80.016 204.412 80.016C204.828 80.016 205.164 79.916 205.42 79.716C205.684 79.508 205.816 79.224 205.816 78.864C205.816 78.6 205.748 78.372 205.612 78.18C205.484 77.98 205.256 77.828 204.928 77.724C204.608 77.62 204.156 77.568 203.572 77.568V76.56C204.324 76.56 204.844 76.444 205.132 76.212C205.42 75.98 205.564 75.688 205.564 75.336C205.564 75.016 205.464 74.768 205.264 74.592C205.064 74.408 204.788 74.316 204.436 74.316C204.14 74.316 203.868 74.384 203.62 74.52C203.372 74.648 203.132 74.82 202.9 75.036L202.192 74.184C202.52 73.896 202.868 73.664 203.236 73.488C203.612 73.312 204.028 73.224 204.484 73.224C205.22 73.224 205.816 73.4 206.272 73.752C206.728 74.096 206.956 74.592 206.956 75.24C206.956 75.664 206.836 76.024 206.596 76.32C206.364 76.608 206.04 76.832 205.624 76.992V77.04C206.072 77.16 206.448 77.38 206.752 77.7C207.056 78.02 207.208 78.432 207.208 78.936C207.208 79.4 207.084 79.796 206.836 80.124C206.596 80.452 206.272 80.704 205.864 80.88C205.464 81.056 205.02 81.144 204.532 81.144ZM208.801 81V73.152H211.309C211.853 73.152 212.333 73.212 212.749 73.332C213.173 73.452 213.505 73.656 213.745 73.944C213.993 74.224 214.117 74.604 214.117 75.084C214.117 75.452 214.021 75.8 213.829 76.128C213.637 76.448 213.369 76.668 213.025 76.788V76.836C213.457 76.932 213.813 77.136 214.093 77.448C214.381 77.752 214.525 78.168 214.525 78.696C214.525 79.216 214.393 79.648 214.129 79.992C213.873 80.336 213.517 80.592 213.061 80.76C212.605 80.92 212.089 81 211.513 81H208.801ZM210.193 76.392H211.189C211.733 76.392 212.129 76.292 212.377 76.092C212.625 75.892 212.749 75.624 212.749 75.288C212.749 74.904 212.621 74.632 212.365 74.472C212.109 74.312 211.725 74.232 211.213 74.232H210.193V76.392ZM210.193 79.92H211.369C211.945 79.92 212.389 79.816 212.701 79.608C213.013 79.392 213.169 79.064 213.169 78.624C213.169 78.208 213.017 77.908 212.713 77.724C212.409 77.532 211.961 77.436 211.369 77.436H210.193V79.92ZM216.981 81C217.029 80.096 217.125 79.288 217.269 78.576C217.413 77.856 217.633 77.172 217.929 76.524C218.225 75.876 218.617 75.212 219.105 74.532H215.493V73.368H220.617V74.208C220.169 74.76 219.805 75.288 219.525 75.792C219.253 76.296 219.037 76.808 218.877 77.328C218.725 77.84 218.613 78.396 218.541 78.996C218.469 79.588 218.417 80.256 218.385 81H216.981ZM223.133 81C223.181 80.096 223.277 79.288 223.421 78.576C223.565 77.856 223.785 77.172 224.081 76.524C224.377 75.876 224.769 75.212 225.257 74.532H221.645V73.368H226.769V74.208C226.321 74.76 225.957 75.288 225.677 75.792C225.405 76.296 225.189 76.808 225.029 77.328C224.877 77.84 224.765 78.396 224.693 78.996C224.621 79.588 224.569 80.256 224.537 81H223.133ZM228.266 81V73.152H232.994V74.328H229.658V76.332H232.478V77.508H229.658V79.824H233.114V81H228.266Z" fill="#1B1B1B"/>
<rect y="94" width="82" height="15" fill="#2273BB"/>
<rect x="94.5" y="94.5" width="81" height="14" fill="#88B0D3" stroke="#1B3F09"/>
<rect x="188" y="94" width="82" height="15" fill="#F0F0F0"/>
<path d="M1.056 128L1.344 125.66H0.42V124.748H1.44L1.632 123.2H0.66V122.288H1.752L2.016 120.2H2.844L2.592 122.288H3.996L4.272 120.2H5.088L4.836 122.288H5.796V123.2H4.728L4.536 124.748H5.556V125.66H4.428L4.152 128H3.312L3.588 125.66H2.184L1.896 128H1.056ZM2.28 124.748H3.696L3.888 123.2H2.472L2.28 124.748ZM6.60834 128V127.196C7.32034 126.508 7.93234 125.896 8.44434 125.36C8.96434 124.816 9.36434 124.324 9.64434 123.884C9.92434 123.436 10.0643 123.02 10.0643 122.636C10.0643 122.236 9.95634 121.916 9.74034 121.676C9.52434 121.436 9.21234 121.316 8.80434 121.316C8.50834 121.316 8.23634 121.4 7.98834 121.568C7.74834 121.736 7.52434 121.936 7.31634 122.168L6.54834 121.4C6.90034 121.024 7.26434 120.736 7.64034 120.536C8.01634 120.328 8.46434 120.224 8.98434 120.224C9.72034 120.224 10.3043 120.436 10.7363 120.86C11.1763 121.284 11.3963 121.852 11.3963 122.564C11.3963 123.012 11.2683 123.472 11.0123 123.944C10.7643 124.408 10.4283 124.884 10.0043 125.372C9.58834 125.86 9.12834 126.372 8.62434 126.908C8.82434 126.892 9.04034 126.876 9.27234 126.86C9.50434 126.836 9.71234 126.824 9.89634 126.824H11.7683V128H6.60834ZM12.7607 128V127.196C13.4727 126.508 14.0847 125.896 14.5967 125.36C15.1167 124.816 15.5167 124.324 15.7967 123.884C16.0767 123.436 16.2167 123.02 16.2167 122.636C16.2167 122.236 16.1087 121.916 15.8927 121.676C15.6767 121.436 15.3647 121.316 14.9567 121.316C14.6607 121.316 14.3887 121.4 14.1407 121.568C13.9007 121.736 13.6767 121.936 13.4687 122.168L12.7007 121.4C13.0527 121.024 13.4167 120.736 13.7927 120.536C14.1687 120.328 14.6167 120.224 15.1367 120.224C15.8727 120.224 16.4567 120.436 16.8887 120.86C17.3287 121.284 17.5487 121.852 17.5487 122.564C17.5487 123.012 17.4207 123.472 17.1647 123.944C16.9167 124.408 16.5807 124.884 16.1567 125.372C15.7407 125.86 15.2807 126.372 14.7767 126.908C14.9767 126.892 15.1927 126.876 15.4247 126.86C15.6567 126.836 15.8647 126.824 16.0487 126.824H17.9207V128H12.7607ZM20.473 128C20.521 127.096 20.617 126.288 20.761 125.576C20.905 124.856 21.125 124.172 21.421 123.524C21.717 122.876 22.109 122.212 22.597 121.532H18.985V120.368H24.109V121.208C23.661 121.76 23.297 122.288 23.017 122.792C22.745 123.296 22.529 123.808 22.369 124.328C22.217 124.84 22.105 125.396 22.033 125.996C21.961 126.588 21.909 127.256 21.877 128H20.473ZM27.4894 128.144C26.8734 128.144 26.3534 128.04 25.9294 127.832C25.5134 127.616 25.1694 127.36 24.8974 127.064L25.5574 126.176C25.7894 126.408 26.0534 126.608 26.3494 126.776C26.6454 126.936 26.9854 127.016 27.3694 127.016C27.7854 127.016 28.1214 126.916 28.3774 126.716C28.6414 126.508 28.7734 126.224 28.7734 125.864C28.7734 125.6 28.7054 125.372 28.5694 125.18C28.4414 124.98 28.2134 124.828 27.8854 124.724C27.5654 124.62 27.1134 124.568 26.5294 124.568V123.56C27.2814 123.56 27.8014 123.444 28.0894 123.212C28.3774 122.98 28.5214 122.688 28.5214 122.336C28.5214 122.016 28.4214 121.768 28.2214 121.592C28.0214 121.408 27.7454 121.316 27.3934 121.316C27.0974 121.316 26.8254 121.384 26.5774 121.52C26.3294 121.648 26.0894 121.82 25.8574 122.036L25.1494 121.184C25.4774 120.896 25.8254 120.664 26.1934 120.488C26.5694 120.312 26.9854 120.224 27.4414 120.224C28.1774 120.224 28.7734 120.4 29.2294 120.752C29.6854 121.096 29.9134 121.592 29.9134 122.24C29.9134 122.664 29.7934 123.024 29.5534 123.32C29.3214 123.608 28.9974 123.832 28.5814 123.992V124.04C29.0294 124.16 29.4054 124.38 29.7094 124.7C30.0134 125.02 30.1654 125.432 30.1654 125.936C30.1654 126.4 30.0414 126.796 29.7934 127.124C29.5534 127.452 29.2294 127.704 28.8214 127.88C28.4214 128.056 27.9774 128.144 27.4894 128.144ZM31.7577 128V120.152H34.2657C34.8097 120.152 35.2897 120.212 35.7057 120.332C36.1297 120.452 36.4617 120.656 36.7017 120.944C36.9497 121.224 37.0737 121.604 37.0737 122.084C37.0737 122.452 36.9777 122.8 36.7857 123.128C36.5937 123.448 36.3257 123.668 35.9817 123.788V123.836C36.4137 123.932 36.7697 124.136 37.0497 124.448C37.3377 124.752 37.4817 125.168 37.4817 125.696C37.4817 126.216 37.3497 126.648 37.0857 126.992C36.8297 127.336 36.4737 127.592 36.0177 127.76C35.5617 127.92 35.0457 128 34.4697 128H31.7577ZM33.1497 123.392H34.1457C34.6897 123.392 35.0857 123.292 35.3337 123.092C35.5817 122.892 35.7057 122.624 35.7057 122.288C35.7057 121.904 35.5777 121.632 35.3217 121.472C35.0657 121.312 34.6817 121.232 34.1697 121.232H33.1497V123.392ZM33.1497 126.92H34.3257C34.9017 126.92 35.3457 126.816 35.6577 126.608C35.9697 126.392 36.1257 126.064 36.1257 125.624C36.1257 125.208 35.9737 124.908 35.6697 124.724C35.3657 124.532 34.9177 124.436 34.3257 124.436H33.1497V126.92ZM38.9179 128V120.152H41.4259C41.9699 120.152 42.4499 120.212 42.8659 120.332C43.2899 120.452 43.6219 120.656 43.8619 120.944C44.1099 121.224 44.2339 121.604 44.2339 122.084C44.2339 122.452 44.1379 122.8 43.9459 123.128C43.7539 123.448 43.4859 123.668 43.1419 123.788V123.836C43.5739 123.932 43.9299 124.136 44.2099 124.448C44.4979 124.752 44.6419 125.168 44.6419 125.696C44.6419 126.216 44.5099 126.648 44.2459 126.992C43.9899 127.336 43.6339 127.592 43.1779 127.76C42.7219 127.92 42.2059 128 41.6299 128H38.9179ZM40.3099 123.392H41.3059C41.8499 123.392 42.2459 123.292 42.4939 123.092C42.7419 122.892 42.8659 122.624 42.8659 122.288C42.8659 121.904 42.7379 121.632 42.4819 121.472C42.2259 121.312 41.8419 121.232 41.3299 121.232H40.3099V123.392ZM40.3099 126.92H41.4859C42.0619 126.92 42.5059 126.816 42.8179 126.608C43.1299 126.392 43.2859 126.064 43.2859 125.624C43.2859 125.208 43.1339 124.908 42.8299 124.724C42.5259 124.532 42.0779 124.436 41.4859 124.436H40.3099V126.92Z" fill="#1B1B1B"/>
<path d="M95.056 128L95.344 125.66H94.42V124.748H95.44L95.632 123.2H94.66V122.288H95.752L96.016 120.2H96.844L96.592 122.288H97.996L98.272 120.2H99.088L98.836 122.288H99.796V123.2H98.728L98.536 124.748H99.556V125.66H98.428L98.152 128H97.312L97.588 125.66H96.184L95.896 128H95.056ZM96.28 124.748H97.696L97.888 123.2H96.472L96.28 124.748ZM103.236 128.144C102.74 128.144 102.296 128.056 101.904 127.88C101.512 127.696 101.204 127.448 100.98 127.136C100.756 126.824 100.644 126.46 100.644 126.044C100.644 125.572 100.784 125.176 101.064 124.856C101.344 124.536 101.664 124.28 102.024 124.088V124.04C101.728 123.832 101.476 123.584 101.268 123.296C101.068 123 100.968 122.652 100.968 122.252C100.968 121.836 101.068 121.48 101.268 121.184C101.468 120.88 101.74 120.644 102.084 120.476C102.436 120.308 102.832 120.224 103.272 120.224C103.96 120.224 104.504 120.416 104.904 120.8C105.312 121.176 105.516 121.672 105.516 122.288C105.516 122.664 105.408 123.004 105.192 123.308C104.976 123.612 104.744 123.856 104.496 124.04V124.088C104.848 124.288 105.156 124.54 105.42 124.844C105.684 125.148 105.816 125.556 105.816 126.068C105.816 126.46 105.708 126.812 105.492 127.124C105.276 127.436 104.976 127.684 104.592 127.868C104.208 128.052 103.756 128.144 103.236 128.144ZM103.74 123.692C103.948 123.484 104.104 123.272 104.208 123.056C104.32 122.84 104.376 122.612 104.376 122.372C104.376 122.036 104.276 121.76 104.076 121.544C103.876 121.32 103.6 121.208 103.248 121.208C102.952 121.208 102.704 121.3 102.504 121.484C102.304 121.668 102.204 121.924 102.204 122.252C102.204 122.508 102.272 122.724 102.408 122.9C102.544 123.068 102.728 123.216 102.96 123.344C103.2 123.464 103.46 123.58 103.74 123.692ZM103.26 127.16C103.628 127.16 103.928 127.06 104.16 126.86C104.4 126.652 104.52 126.372 104.52 126.02C104.52 125.74 104.436 125.512 104.268 125.336C104.108 125.16 103.888 125.008 103.608 124.88C103.336 124.744 103.028 124.608 102.684 124.472C102.444 124.648 102.244 124.856 102.084 125.096C101.932 125.336 101.856 125.604 101.856 125.9C101.856 126.276 101.992 126.58 102.264 126.812C102.536 127.044 102.868 127.16 103.26 127.16ZM109.389 128.144C108.893 128.144 108.449 128.056 108.057 127.88C107.665 127.696 107.357 127.448 107.133 127.136C106.909 126.824 106.797 126.46 106.797 126.044C106.797 125.572 106.937 125.176 107.217 124.856C107.497 124.536 107.817 124.28 108.177 124.088V124.04C107.881 123.832 107.629 123.584 107.421 123.296C107.221 123 107.121 122.652 107.121 122.252C107.121 121.836 107.221 121.48 107.421 121.184C107.621 120.88 107.893 120.644 108.237 120.476C108.589 120.308 108.985 120.224 109.425 120.224C110.113 120.224 110.657 120.416 111.057 120.8C111.465 121.176 111.669 121.672 111.669 122.288C111.669 122.664 111.561 123.004 111.345 123.308C111.129 123.612 110.897 123.856 110.649 124.04V124.088C111.001 124.288 111.309 124.54 111.573 124.844C111.837 125.148 111.969 125.556 111.969 126.068C111.969 126.46 111.861 126.812 111.645 127.124C111.429 127.436 111.129 127.684 110.745 127.868C110.361 128.052 109.909 128.144 109.389 128.144ZM109.893 123.692C110.101 123.484 110.257 123.272 110.361 123.056C110.473 122.84 110.529 122.612 110.529 122.372C110.529 122.036 110.429 121.76 110.229 121.544C110.029 121.32 109.753 121.208 109.401 121.208C109.105 121.208 108.857 121.3 108.657 121.484C108.457 121.668 108.357 121.924 108.357 122.252C108.357 122.508 108.425 122.724 108.561 122.9C108.697 123.068 108.881 123.216 109.113 123.344C109.353 123.464 109.613 123.58 109.893 123.692ZM109.413 127.16C109.781 127.16 110.081 127.06 110.313 126.86C110.553 126.652 110.673 126.372 110.673 126.02C110.673 125.74 110.589 125.512 110.421 125.336C110.261 125.16 110.041 125.008 109.761 124.88C109.489 124.744 109.181 124.608 108.837 124.472C108.597 124.648 108.397 124.856 108.237 125.096C108.085 125.336 108.009 125.604 108.009 125.9C108.009 126.276 108.145 126.58 108.417 126.812C108.689 127.044 109.021 127.16 109.413 127.16ZM113.453 128V120.152H115.961C116.505 120.152 116.985 120.212 117.401 120.332C117.825 120.452 118.157 120.656 118.397 120.944C118.645 121.224 118.769 121.604 118.769 122.084C118.769 122.452 118.673 122.8 118.481 123.128C118.289 123.448 118.021 123.668 117.677 123.788V123.836C118.109 123.932 118.465 124.136 118.745 124.448C119.033 124.752 119.177 125.168 119.177 125.696C119.177 126.216 119.045 126.648 118.781 126.992C118.525 127.336 118.169 127.592 117.713 127.76C117.257 127.92 116.741 128 116.165 128H113.453ZM114.845 123.392H115.841C116.385 123.392 116.781 123.292 117.029 123.092C117.277 122.892 117.401 122.624 117.401 122.288C117.401 121.904 117.273 121.632 117.017 121.472C116.761 121.312 116.377 121.232 115.865 121.232H114.845V123.392ZM114.845 126.92H116.021C116.597 126.92 117.041 126.816 117.353 126.608C117.665 126.392 117.821 126.064 117.821 125.624C117.821 125.208 117.669 124.908 117.365 124.724C117.061 124.532 116.613 124.436 116.021 124.436H114.845V126.92ZM122.689 128.144C121.897 128.144 121.265 127.8 120.793 127.112C120.329 126.424 120.097 125.436 120.097 124.148C120.097 122.86 120.329 121.884 120.793 121.22C121.265 120.556 121.897 120.224 122.689 120.224C123.481 120.224 124.109 120.556 124.573 121.22C125.045 121.884 125.281 122.86 125.281 124.148C125.281 125.436 125.045 126.424 124.573 127.112C124.109 127.8 123.481 128.144 122.689 128.144ZM122.689 127.064C122.937 127.064 123.157 126.972 123.349 126.788C123.541 126.596 123.689 126.288 123.793 125.864C123.905 125.44 123.961 124.868 123.961 124.148C123.961 123.428 123.905 122.86 123.793 122.444C123.689 122.028 123.541 121.736 123.349 121.568C123.157 121.392 122.937 121.304 122.689 121.304C122.449 121.304 122.233 121.392 122.041 121.568C121.849 121.736 121.697 122.028 121.585 122.444C121.473 122.86 121.417 123.428 121.417 124.148C121.417 124.868 121.473 125.44 121.585 125.864C121.697 126.288 121.849 126.596 122.041 126.788C122.233 126.972 122.449 127.064 122.689 127.064ZM126.766 128V120.152H128.866C130.066 120.152 131.002 120.476 131.674 121.124C132.346 121.772 132.682 122.744 132.682 124.04C132.682 125.344 132.35 126.332 131.686 127.004C131.022 127.668 130.106 128 128.938 128H126.766ZM128.158 126.872H128.77C129.562 126.872 130.174 126.644 130.606 126.188C131.038 125.724 131.254 125.008 131.254 124.04C131.254 123.08 131.038 122.38 130.606 121.94C130.174 121.5 129.562 121.28 128.77 121.28H128.158V126.872ZM136.15 128.144C135.534 128.144 135.014 128.04 134.59 127.832C134.174 127.616 133.83 127.36 133.558 127.064L134.218 126.176C134.45 126.408 134.714 126.608 135.01 126.776C135.306 126.936 135.646 127.016 136.03 127.016C136.446 127.016 136.782 126.916 137.038 126.716C137.302 126.508 137.434 126.224 137.434 125.864C137.434 125.6 137.366 125.372 137.23 125.18C137.102 124.98 136.874 124.828 136.546 124.724C136.226 124.62 135.774 124.568 135.19 124.568V123.56C135.942 123.56 136.462 123.444 136.75 123.212C137.038 122.98 137.182 122.688 137.182 122.336C137.182 122.016 137.082 121.768 136.882 121.592C136.682 121.408 136.406 121.316 136.054 121.316C135.758 121.316 135.486 121.384 135.238 121.52C134.99 121.648 134.75 121.82 134.518 122.036L133.81 121.184C134.138 120.896 134.486 120.664 134.854 120.488C135.23 120.312 135.646 120.224 136.102 120.224C136.838 120.224 137.434 120.4 137.89 120.752C138.346 121.096 138.574 121.592 138.574 122.24C138.574 122.664 138.454 123.024 138.214 123.32C137.982 123.608 137.658 123.832 137.242 123.992V124.04C137.69 124.16 138.066 124.38 138.37 124.7C138.674 125.02 138.826 125.432 138.826 125.936C138.826 126.4 138.702 126.796 138.454 127.124C138.214 127.452 137.89 127.704 137.482 127.88C137.082 128.056 136.638 128.144 136.15 128.144Z" fill="#1B1B1B"/>
<path d="M189.056 128L189.344 125.66H188.42V124.748H189.44L189.632 123.2H188.66V122.288H189.752L190.016 120.2H190.844L190.592 122.288H191.996L192.272 120.2H193.088L192.836 122.288H193.796V123.2H192.728L192.536 124.748H193.556V125.66H192.428L192.152 128H191.312L191.588 125.66H190.184L189.896 128H189.056ZM190.28 124.748H191.696L191.888 123.2H190.472L190.28 124.748ZM195.148 128V120.152H199.888V121.328H196.54V123.548H199.396V124.724H196.54V128H195.148ZM203.342 128.144C202.55 128.144 201.918 127.8 201.446 127.112C200.982 126.424 200.75 125.436 200.75 124.148C200.75 122.86 200.982 121.884 201.446 121.22C201.918 120.556 202.55 120.224 203.342 120.224C204.134 120.224 204.762 120.556 205.226 121.22C205.698 121.884 205.934 122.86 205.934 124.148C205.934 125.436 205.698 126.424 205.226 127.112C204.762 127.8 204.134 128.144 203.342 128.144ZM203.342 127.064C203.59 127.064 203.81 126.972 204.002 126.788C204.194 126.596 204.342 126.288 204.446 125.864C204.558 125.44 204.614 124.868 204.614 124.148C204.614 123.428 204.558 122.86 204.446 122.444C204.342 122.028 204.194 121.736 204.002 121.568C203.81 121.392 203.59 121.304 203.342 121.304C203.102 121.304 202.886 121.392 202.694 121.568C202.502 121.736 202.35 122.028 202.238 122.444C202.126 122.86 202.07 123.428 202.07 124.148C202.07 124.868 202.126 125.44 202.238 125.864C202.35 126.288 202.502 126.596 202.694 126.788C202.886 126.972 203.102 127.064 203.342 127.064ZM207.418 128V120.152H212.158V121.328H208.81V123.548H211.666V124.724H208.81V128H207.418ZM215.611 128.144C214.819 128.144 214.187 127.8 213.715 127.112C213.251 126.424 213.019 125.436 213.019 124.148C213.019 122.86 213.251 121.884 213.715 121.22C214.187 120.556 214.819 120.224 215.611 120.224C216.403 120.224 217.031 120.556 217.495 121.22C217.967 121.884 218.203 122.86 218.203 124.148C218.203 125.436 217.967 126.424 217.495 127.112C217.031 127.8 216.403 128.144 215.611 128.144ZM215.611 127.064C215.859 127.064 216.079 126.972 216.271 126.788C216.463 126.596 216.611 126.288 216.715 125.864C216.827 125.44 216.883 124.868 216.883 124.148C216.883 123.428 216.827 122.86 216.715 122.444C216.611 122.028 216.463 121.736 216.271 121.568C216.079 121.392 215.859 121.304 215.611 121.304C215.371 121.304 215.155 121.392 214.963 121.568C214.771 121.736 214.619 122.028 214.507 122.444C214.395 122.86 214.339 123.428 214.339 124.148C214.339 124.868 214.395 125.44 214.507 125.864C214.619 126.288 214.771 126.596 214.963 126.788C215.155 126.972 215.371 127.064 215.611 127.064ZM219.687 128V120.152H224.427V121.328H221.079V123.548H223.935V124.724H221.079V128H219.687ZM227.881 128.144C227.089 128.144 226.457 127.8 225.985 127.112C225.521 126.424 225.289 125.436 225.289 124.148C225.289 122.86 225.521 121.884 225.985 121.22C226.457 120.556 227.089 120.224 227.881 120.224C228.673 120.224 229.301 120.556 229.765 121.22C230.237 121.884 230.473 122.86 230.473 124.148C230.473 125.436 230.237 126.424 229.765 127.112C229.301 127.8 228.673 128.144 227.881 128.144ZM227.881 127.064C228.129 127.064 228.349 126.972 228.541 126.788C228.733 126.596 228.881 126.288 228.985 125.864C229.097 125.44 229.153 124.868 229.153 124.148C229.153 123.428 229.097 122.86 228.985 122.444C228.881 122.028 228.733 121.736 228.541 121.568C228.349 121.392 228.129 121.304 227.881 121.304C227.641 121.304 227.425 121.392 227.233 121.568C227.041 121.736 226.889 122.028 226.777 122.444C226.665 122.86 226.609 123.428 226.609 124.148C226.609 124.868 226.665 125.44 226.777 125.864C226.889 126.288 227.041 126.596 227.233 126.788C227.425 126.972 227.641 127.064 227.881 127.064Z" fill="#1B1B1B"/>
<rect x="359" y="19" width="25" height="25" transform="rotate(-45 359 19)" fill="#1B3F09"/>
<rect x="341" y="37" width="25" height="25" transform="rotate(-45 341 37)" fill="#1E5964"/>
<rect x="323" y="55" width="25" height="25" transform="rotate(-45 323 55)" fill="#2273BB"/>
<rect x="377" y="37" width="25" height="25" transform="rotate(-45 377 37)" fill="#6C5F0A"/>
<rect x="341" y="73" width="25" height="25" transform="rotate(-45 341 73)" fill="#88B0D3"/>
<rect x="377" y="73" width="25" height="25" transform="rotate(-45 377 73)" fill="#D3B77E"/>
<rect x="359" y="91" width="25" height="25" transform="rotate(-45 359 91)" fill="#F0F0F0"/>
<rect x="395" y="55" width="25" height="25" transform="rotate(-45 395 55)" fill="#BA800C"/>
<rect x="359" y="55" width="25" height="25" transform="rotate(-45 359 55)" fill="#7B8871"/>
<rect y="193" width="82" height="15" fill="#412E4E"/>
<rect x="94" y="193" width="82" height="15" fill="#4E655A"/>
<rect x="188" y="193" width="82" height="15" fill="#5A9965"/>
<path d="M1.056 227L1.344 224.66H0.42V223.748H1.44L1.632 222.2H0.66V221.288H1.752L2.016 219.2H2.844L2.592 221.288H3.996L4.272 219.2H5.088L4.836 221.288H5.796V222.2H4.728L4.536 223.748H5.556V224.66H4.428L4.152 227H3.312L3.588 224.66H2.184L1.896 227H1.056ZM2.28 223.748H3.696L3.888 222.2H2.472L2.28 223.748ZM7.73634 223.964H9.74034V222.236C9.74034 222.012 9.74834 221.748 9.76434 221.444C9.78034 221.14 9.79234 220.876 9.80034 220.652H9.75234C9.65634 220.852 9.55634 221.048 9.45234 221.24C9.34834 221.432 9.24034 221.632 9.12834 221.84L7.73634 223.964ZM9.74034 227V225.032H6.36834V224.096L9.39234 219.368H11.0363V223.964H11.9963V225.032H11.0363V227H9.74034ZM13.1927 227V225.872H14.8967V220.856H13.4927V219.992C13.8687 219.92 14.1967 219.836 14.4767 219.74C14.7567 219.636 15.0167 219.512 15.2567 219.368H16.2887V225.872H17.7887V227H13.1927ZM18.913 227V226.196C19.625 225.508 20.237 224.896 20.749 224.36C21.269 223.816 21.669 223.324 21.949 222.884C22.229 222.436 22.369 222.02 22.369 221.636C22.369 221.236 22.261 220.916 22.045 220.676C21.829 220.436 21.517 220.316 21.109 220.316C20.813 220.316 20.541 220.4 20.293 220.568C20.053 220.736 19.829 220.936 19.621 221.168L18.853 220.4C19.205 220.024 19.569 219.736 19.945 219.536C20.321 219.328 20.769 219.224 21.289 219.224C22.025 219.224 22.609 219.436 23.041 219.86C23.481 220.284 23.701 220.852 23.701 221.564C23.701 222.012 23.573 222.472 23.317 222.944C23.069 223.408 22.733 223.884 22.309 224.372C21.893 224.86 21.433 225.372 20.929 225.908C21.129 225.892 21.345 225.876 21.577 225.86C21.809 225.836 22.017 225.824 22.201 225.824H24.073V227H18.913ZM25.6054 227V219.152H30.3334V220.328H26.9974V222.332H29.8174V223.508H26.9974V225.824H30.4534V227H25.6054ZM32.6504 223.964H34.6544V222.236C34.6544 222.012 34.6624 221.748 34.6784 221.444C34.6944 221.14 34.7064 220.876 34.7144 220.652H34.6664C34.5704 220.852 34.4704 221.048 34.3664 221.24C34.2624 221.432 34.1544 221.632 34.0424 221.84L32.6504 223.964ZM34.6544 227V225.032H31.2824V224.096L34.3064 219.368H35.9504V223.964H36.9104V225.032H35.9504V227H34.6544ZM38.2148 227V219.152H42.9428V220.328H39.6068V222.332H42.4268V223.508H39.6068V225.824H43.0628V227H38.2148Z" fill="#1B1B1B"/>
<path d="M95.056 227L95.344 224.66H94.42V223.748H95.44L95.632 222.2H94.66V221.288H95.752L96.016 219.2H96.844L96.592 221.288H97.996L98.272 219.2H99.088L98.836 221.288H99.796V222.2H98.728L98.536 223.748H99.556V224.66H98.428L98.152 227H97.312L97.588 224.66H96.184L95.896 227H95.056ZM96.28 223.748H97.696L97.888 222.2H96.472L96.28 223.748ZM101.736 223.964H103.74V222.236C103.74 222.012 103.748 221.748 103.764 221.444C103.78 221.14 103.792 220.876 103.8 220.652H103.752C103.656 220.852 103.556 221.048 103.452 221.24C103.348 221.432 103.24 221.632 103.128 221.84L101.736 223.964ZM103.74 227V225.032H100.368V224.096L103.392 219.368H105.036V223.964H105.996V225.032H105.036V227H103.74ZM107.301 227V219.152H112.029V220.328H108.693V222.332H111.513V223.508H108.693V225.824H112.149V227H107.301ZM115.978 223.28C115.762 223.28 115.534 223.348 115.294 223.484C115.054 223.612 114.826 223.836 114.61 224.156C114.682 224.836 114.846 225.328 115.102 225.632C115.358 225.936 115.67 226.088 116.038 226.088C116.358 226.088 116.626 225.964 116.842 225.716C117.066 225.46 117.178 225.1 117.178 224.636C117.178 224.188 117.07 223.852 116.854 223.628C116.646 223.396 116.354 223.28 115.978 223.28ZM116.062 227.144C115.566 227.144 115.106 227.012 114.682 226.748C114.258 226.484 113.918 226.076 113.662 225.524C113.414 224.972 113.29 224.268 113.29 223.412C113.29 222.42 113.43 221.62 113.71 221.012C113.998 220.396 114.37 219.944 114.826 219.656C115.282 219.368 115.77 219.224 116.29 219.224C116.754 219.224 117.154 219.308 117.49 219.476C117.826 219.644 118.106 219.848 118.33 220.088L117.586 220.928C117.45 220.76 117.27 220.624 117.046 220.52C116.83 220.408 116.606 220.352 116.374 220.352C116.054 220.352 115.762 220.44 115.498 220.616C115.234 220.792 115.018 221.088 114.85 221.504C114.69 221.912 114.598 222.468 114.574 223.172C114.798 222.892 115.062 222.672 115.366 222.512C115.67 222.352 115.958 222.272 116.23 222.272C116.894 222.272 117.43 222.468 117.838 222.86C118.254 223.244 118.462 223.836 118.462 224.636C118.462 225.14 118.35 225.58 118.126 225.956C117.91 226.332 117.622 226.624 117.262 226.832C116.902 227.04 116.502 227.144 116.062 227.144ZM121.806 227.144C121.19 227.144 120.67 227.04 120.246 226.832C119.83 226.616 119.482 226.368 119.202 226.088L119.838 225.2C120.07 225.416 120.33 225.608 120.618 225.776C120.906 225.936 121.242 226.016 121.626 226.016C122.05 226.016 122.402 225.888 122.682 225.632C122.962 225.376 123.102 225.016 123.102 224.552C123.102 224.096 122.974 223.744 122.718 223.496C122.462 223.248 122.122 223.124 121.698 223.124C121.45 223.124 121.242 223.16 121.074 223.232C120.906 223.296 120.706 223.404 120.474 223.556L119.814 223.136L120.042 219.368H124.122V220.532H121.242L121.086 222.38C121.246 222.3 121.402 222.24 121.554 222.2C121.714 222.152 121.894 222.128 122.094 222.128C122.534 222.128 122.934 222.212 123.294 222.38C123.654 222.548 123.942 222.808 124.158 223.16C124.382 223.512 124.494 223.964 124.494 224.516C124.494 225.068 124.366 225.54 124.11 225.932C123.862 226.324 123.534 226.624 123.126 226.832C122.718 227.04 122.278 227.144 121.806 227.144ZM127.958 227.144C127.342 227.144 126.822 227.04 126.398 226.832C125.982 226.616 125.634 226.368 125.354 226.088L125.99 225.2C126.222 225.416 126.482 225.608 126.77 225.776C127.058 225.936 127.394 226.016 127.778 226.016C128.202 226.016 128.554 225.888 128.834 225.632C129.114 225.376 129.254 225.016 129.254 224.552C129.254 224.096 129.126 223.744 128.87 223.496C128.614 223.248 128.274 223.124 127.85 223.124C127.602 223.124 127.394 223.16 127.226 223.232C127.058 223.296 126.858 223.404 126.626 223.556L125.966 223.136L126.194 219.368H130.274V220.532H127.394L127.238 222.38C127.398 222.3 127.554 222.24 127.706 222.2C127.866 222.152 128.046 222.128 128.246 222.128C128.686 222.128 129.086 222.212 129.446 222.38C129.806 222.548 130.094 222.808 130.31 223.16C130.534 223.512 130.646 223.964 130.646 224.516C130.646 225.068 130.518 225.54 130.262 225.932C130.014 226.324 129.686 226.624 129.278 226.832C128.87 227.04 128.43 227.144 127.958 227.144ZM133.823 222.824L133.547 223.784H135.551L135.275 222.824C135.147 222.408 135.023 221.98 134.903 221.54C134.791 221.1 134.679 220.664 134.567 220.232H134.519C134.415 220.672 134.303 221.112 134.183 221.552C134.071 221.984 133.951 222.408 133.823 222.824ZM131.195 227L133.751 219.152H135.383L137.939 227H136.475L135.863 224.876H133.223L132.611 227H131.195Z" fill="#1B1B1B"/>
<path d="M189.056 227L189.344 224.66H188.42V223.748H189.44L189.632 222.2H188.66V221.288H189.752L190.016 219.2H190.844L190.592 221.288H191.996L192.272 219.2H193.088L192.836 221.288H193.796V222.2H192.728L192.536 223.748H193.556V224.66H192.428L192.152 227H191.312L191.588 224.66H190.184L189.896 227H189.056ZM190.28 223.748H191.696L191.888 222.2H190.472L190.28 223.748ZM197.044 227.144C196.428 227.144 195.908 227.04 195.484 226.832C195.068 226.616 194.72 226.368 194.44 226.088L195.076 225.2C195.308 225.416 195.568 225.608 195.856 225.776C196.144 225.936 196.48 226.016 196.864 226.016C197.288 226.016 197.64 225.888 197.92 225.632C198.2 225.376 198.34 225.016 198.34 224.552C198.34 224.096 198.212 223.744 197.956 223.496C197.7 223.248 197.36 223.124 196.936 223.124C196.688 223.124 196.48 223.16 196.312 223.232C196.144 223.296 195.944 223.404 195.712 223.556L195.052 223.136L195.28 219.368H199.36V220.532H196.48L196.324 222.38C196.484 222.3 196.64 222.24 196.792 222.2C196.952 222.152 197.132 222.128 197.332 222.128C197.772 222.128 198.172 222.212 198.532 222.38C198.892 222.548 199.18 222.808 199.396 223.16C199.62 223.512 199.732 223.964 199.732 224.516C199.732 225.068 199.604 225.54 199.348 225.932C199.1 226.324 198.772 226.624 198.364 226.832C197.956 227.04 197.516 227.144 197.044 227.144ZM202.909 222.824L202.633 223.784H204.637L204.361 222.824C204.233 222.408 204.109 221.98 203.989 221.54C203.877 221.1 203.765 220.664 203.653 220.232H203.605C203.501 220.672 203.389 221.112 203.269 221.552C203.157 221.984 203.037 222.408 202.909 222.824ZM200.281 227L202.837 219.152H204.469L207.025 227H205.561L204.949 224.876H202.309L201.697 227H200.281ZM208.712 221.72C208.712 222.168 208.816 222.508 209.024 222.74C209.24 222.972 209.54 223.088 209.924 223.088C210.148 223.088 210.38 223.02 210.62 222.884C210.868 222.74 211.092 222.512 211.292 222.2C211.22 221.528 211.056 221.04 210.8 220.736C210.544 220.432 210.228 220.28 209.852 220.28C209.54 220.28 209.272 220.404 209.048 220.652C208.824 220.9 208.712 221.256 208.712 221.72ZM209.6 227.144C209.144 227.144 208.748 227.06 208.412 226.892C208.076 226.724 207.792 226.52 207.56 226.28L208.304 225.44C208.448 225.608 208.628 225.748 208.844 225.86C209.068 225.964 209.296 226.016 209.528 226.016C209.848 226.016 210.14 225.928 210.404 225.752C210.668 225.576 210.884 225.284 211.052 224.876C211.22 224.46 211.312 223.9 211.328 223.196C211.104 223.468 210.84 223.684 210.536 223.844C210.232 224.004 209.94 224.084 209.66 224.084C209.004 224.084 208.468 223.892 208.052 223.508C207.644 223.116 207.44 222.52 207.44 221.72C207.44 221.208 207.548 220.768 207.764 220.4C207.988 220.024 208.28 219.736 208.64 219.536C209.008 219.328 209.408 219.224 209.84 219.224C210.336 219.224 210.792 219.356 211.208 219.62C211.632 219.884 211.968 220.292 212.216 220.844C212.472 221.388 212.6 222.088 212.6 222.944C212.6 223.928 212.46 224.732 212.18 225.356C211.9 225.972 211.532 226.424 211.076 226.712C210.62 227 210.128 227.144 209.6 227.144ZM214.864 221.72C214.864 222.168 214.968 222.508 215.176 222.74C215.392 222.972 215.692 223.088 216.076 223.088C216.3 223.088 216.532 223.02 216.772 222.884C217.02 222.74 217.244 222.512 217.444 222.2C217.372 221.528 217.208 221.04 216.952 220.736C216.696 220.432 216.38 220.28 216.004 220.28C215.692 220.28 215.424 220.404 215.2 220.652C214.976 220.9 214.864 221.256 214.864 221.72ZM215.752 227.144C215.296 227.144 214.9 227.06 214.564 226.892C214.228 226.724 213.944 226.52 213.712 226.28L214.456 225.44C214.6 225.608 214.78 225.748 214.996 225.86C215.22 225.964 215.448 226.016 215.68 226.016C216 226.016 216.292 225.928 216.556 225.752C216.82 225.576 217.036 225.284 217.204 224.876C217.372 224.46 217.464 223.9 217.48 223.196C217.256 223.468 216.992 223.684 216.688 223.844C216.384 224.004 216.092 224.084 215.812 224.084C215.156 224.084 214.62 223.892 214.204 223.508C213.796 223.116 213.592 222.52 213.592 221.72C213.592 221.208 213.7 220.768 213.916 220.4C214.14 220.024 214.432 219.736 214.792 219.536C215.16 219.328 215.56 219.224 215.992 219.224C216.488 219.224 216.944 219.356 217.36 219.62C217.784 219.884 218.12 220.292 218.368 220.844C218.624 221.388 218.752 222.088 218.752 222.944C218.752 223.928 218.612 224.732 218.332 225.356C218.052 225.972 217.684 226.424 217.228 226.712C216.772 227 216.28 227.144 215.752 227.144ZM222.517 223.28C222.301 223.28 222.073 223.348 221.833 223.484C221.593 223.612 221.365 223.836 221.149 224.156C221.221 224.836 221.385 225.328 221.641 225.632C221.897 225.936 222.209 226.088 222.577 226.088C222.897 226.088 223.165 225.964 223.381 225.716C223.605 225.46 223.717 225.1 223.717 224.636C223.717 224.188 223.609 223.852 223.393 223.628C223.185 223.396 222.893 223.28 222.517 223.28ZM222.601 227.144C222.105 227.144 221.645 227.012 221.221 226.748C220.797 226.484 220.457 226.076 220.201 225.524C219.953 224.972 219.829 224.268 219.829 223.412C219.829 222.42 219.969 221.62 220.249 221.012C220.537 220.396 220.909 219.944 221.365 219.656C221.821 219.368 222.309 219.224 222.829 219.224C223.293 219.224 223.693 219.308 224.029 219.476C224.365 219.644 224.645 219.848 224.869 220.088L224.125 220.928C223.989 220.76 223.809 220.624 223.585 220.52C223.369 220.408 223.145 220.352 222.913 220.352C222.593 220.352 222.301 220.44 222.037 220.616C221.773 220.792 221.557 221.088 221.389 221.504C221.229 221.912 221.137 222.468 221.113 223.172C221.337 222.892 221.601 222.672 221.905 222.512C222.209 222.352 222.497 222.272 222.769 222.272C223.433 222.272 223.969 222.468 224.377 222.86C224.793 223.244 225.001 223.836 225.001 224.636C225.001 225.14 224.889 225.58 224.665 225.956C224.449 226.332 224.161 226.624 223.801 226.832C223.441 227.04 223.041 227.144 222.601 227.144ZM228.345 227.144C227.729 227.144 227.209 227.04 226.785 226.832C226.369 226.616 226.021 226.368 225.741 226.088L226.377 225.2C226.609 225.416 226.869 225.608 227.157 225.776C227.445 225.936 227.781 226.016 228.165 226.016C228.589 226.016 228.941 225.888 229.221 225.632C229.501 225.376 229.641 225.016 229.641 224.552C229.641 224.096 229.513 223.744 229.257 223.496C229.001 223.248 228.661 223.124 228.237 223.124C227.989 223.124 227.781 223.16 227.613 223.232C227.445 223.296 227.245 223.404 227.013 223.556L226.353 223.136L226.581 219.368H230.661V220.532H227.781L227.625 222.38C227.785 222.3 227.941 222.24 228.093 222.2C228.253 222.152 228.433 222.128 228.633 222.128C229.073 222.128 229.473 222.212 229.833 222.38C230.193 222.548 230.481 222.808 230.697 223.16C230.921 223.512 231.033 223.964 231.033 224.516C231.033 225.068 230.905 225.54 230.649 225.932C230.401 226.324 230.073 226.624 229.665 226.832C229.257 227.04 228.817 227.144 228.345 227.144Z" fill="#1B1B1B"/>
<rect y="240" width="82" height="15" fill="#753B82"/>
<rect x="94" y="240" width="82" height="15" fill="#8D8096"/>
<rect x="188.5" y="240.5" width="81" height="14" fill="#A2C2A8" stroke="#412E4E"/>
<path d="M1.056 274L1.344 271.66H0.42V270.748H1.44L1.632 269.2H0.66V268.288H1.752L2.016 266.2H2.844L2.592 268.288H3.996L4.272 266.2H5.088L4.836 268.288H5.796V269.2H4.728L4.536 270.748H5.556V271.66H4.428L4.152 274H3.312L3.588 271.66H2.184L1.896 274H1.056ZM2.28 270.748H3.696L3.888 269.2H2.472L2.28 270.748ZM8.16834 274C8.21634 273.096 8.31234 272.288 8.45634 271.576C8.60034 270.856 8.82034 270.172 9.11634 269.524C9.41234 268.876 9.80434 268.212 10.2923 267.532H6.68034V266.368H11.8043V267.208C11.3563 267.76 10.9923 268.288 10.7123 268.792C10.4403 269.296 10.2243 269.808 10.0643 270.328C9.91234 270.84 9.80034 271.396 9.72834 271.996C9.65634 272.588 9.60434 273.256 9.57234 274H8.16834ZM15.1967 274.144C14.5807 274.144 14.0607 274.04 13.6367 273.832C13.2207 273.616 12.8727 273.368 12.5927 273.088L13.2287 272.2C13.4607 272.416 13.7207 272.608 14.0087 272.776C14.2967 272.936 14.6327 273.016 15.0167 273.016C15.4407 273.016 15.7927 272.888 16.0727 272.632C16.3527 272.376 16.4927 272.016 16.4927 271.552C16.4927 271.096 16.3647 270.744 16.1087 270.496C15.8527 270.248 15.5127 270.124 15.0887 270.124C14.8407 270.124 14.6327 270.16 14.4647 270.232C14.2967 270.296 14.0967 270.404 13.8647 270.556L13.2047 270.136L13.4327 266.368H17.5127V267.532H14.6327L14.4767 269.38C14.6367 269.3 14.7927 269.24 14.9447 269.2C15.1047 269.152 15.2847 269.128 15.4847 269.128C15.9247 269.128 16.3247 269.212 16.6847 269.38C17.0447 269.548 17.3327 269.808 17.5487 270.16C17.7727 270.512 17.8847 270.964 17.8847 271.516C17.8847 272.068 17.7567 272.54 17.5007 272.932C17.2527 273.324 16.9247 273.624 16.5167 273.832C16.1087 274.04 15.6687 274.144 15.1967 274.144ZM21.337 274.144C20.721 274.144 20.201 274.04 19.777 273.832C19.361 273.616 19.017 273.36 18.745 273.064L19.405 272.176C19.637 272.408 19.901 272.608 20.197 272.776C20.493 272.936 20.833 273.016 21.217 273.016C21.633 273.016 21.969 272.916 22.225 272.716C22.489 272.508 22.621 272.224 22.621 271.864C22.621 271.6 22.553 271.372 22.417 271.18C22.289 270.98 22.061 270.828 21.733 270.724C21.413 270.62 20.961 270.568 20.377 270.568V269.56C21.129 269.56 21.649 269.444 21.937 269.212C22.225 268.98 22.369 268.688 22.369 268.336C22.369 268.016 22.269 267.768 22.069 267.592C21.869 267.408 21.593 267.316 21.241 267.316C20.945 267.316 20.673 267.384 20.425 267.52C20.177 267.648 19.937 267.82 19.705 268.036L18.997 267.184C19.325 266.896 19.673 266.664 20.041 266.488C20.417 266.312 20.833 266.224 21.289 266.224C22.025 266.224 22.621 266.4 23.077 266.752C23.533 267.096 23.761 267.592 23.761 268.24C23.761 268.664 23.641 269.024 23.401 269.32C23.169 269.608 22.845 269.832 22.429 269.992V270.04C22.877 270.16 23.253 270.38 23.557 270.7C23.861 271.02 24.013 271.432 24.013 271.936C24.013 272.4 23.889 272.796 23.641 273.124C23.401 273.452 23.077 273.704 22.669 273.88C22.269 274.056 21.825 274.144 21.337 274.144ZM25.6054 274V266.152H28.1134C28.6574 266.152 29.1374 266.212 29.5534 266.332C29.9774 266.452 30.3094 266.656 30.5494 266.944C30.7974 267.224 30.9214 267.604 30.9214 268.084C30.9214 268.452 30.8254 268.8 30.6334 269.128C30.4414 269.448 30.1734 269.668 29.8294 269.788V269.836C30.2614 269.932 30.6174 270.136 30.8974 270.448C31.1854 270.752 31.3294 271.168 31.3294 271.696C31.3294 272.216 31.1974 272.648 30.9334 272.992C30.6774 273.336 30.3214 273.592 29.8654 273.76C29.4094 273.92 28.8934 274 28.3174 274H25.6054ZM26.9974 269.392H27.9934C28.5374 269.392 28.9334 269.292 29.1814 269.092C29.4294 268.892 29.5534 268.624 29.5534 268.288C29.5534 267.904 29.4254 267.632 29.1694 267.472C28.9134 267.312 28.5294 267.232 28.0174 267.232H26.9974V269.392ZM26.9974 272.92H28.1734C28.7494 272.92 29.1934 272.816 29.5054 272.608C29.8174 272.392 29.9734 272.064 29.9734 271.624C29.9734 271.208 29.8214 270.908 29.5174 270.724C29.2134 270.532 28.7654 270.436 28.1734 270.436H26.9974V272.92ZM34.8535 274.144C34.3575 274.144 33.9135 274.056 33.5215 273.88C33.1295 273.696 32.8215 273.448 32.5975 273.136C32.3735 272.824 32.2615 272.46 32.2615 272.044C32.2615 271.572 32.4015 271.176 32.6815 270.856C32.9615 270.536 33.2815 270.28 33.6415 270.088V270.04C33.3455 269.832 33.0935 269.584 32.8855 269.296C32.6855 269 32.5855 268.652 32.5855 268.252C32.5855 267.836 32.6855 267.48 32.8855 267.184C33.0855 266.88 33.3575 266.644 33.7015 266.476C34.0535 266.308 34.4495 266.224 34.8895 266.224C35.5775 266.224 36.1215 266.416 36.5215 266.8C36.9295 267.176 37.1335 267.672 37.1335 268.288C37.1335 268.664 37.0255 269.004 36.8095 269.308C36.5935 269.612 36.3615 269.856 36.1135 270.04V270.088C36.4655 270.288 36.7735 270.54 37.0375 270.844C37.3015 271.148 37.4335 271.556 37.4335 272.068C37.4335 272.46 37.3255 272.812 37.1095 273.124C36.8935 273.436 36.5935 273.684 36.2095 273.868C35.8255 274.052 35.3735 274.144 34.8535 274.144ZM35.3575 269.692C35.5655 269.484 35.7215 269.272 35.8255 269.056C35.9375 268.84 35.9935 268.612 35.9935 268.372C35.9935 268.036 35.8935 267.76 35.6935 267.544C35.4935 267.32 35.2175 267.208 34.8655 267.208C34.5695 267.208 34.3215 267.3 34.1215 267.484C33.9215 267.668 33.8215 267.924 33.8215 268.252C33.8215 268.508 33.8895 268.724 34.0255 268.9C34.1615 269.068 34.3455 269.216 34.5775 269.344C34.8175 269.464 35.0775 269.58 35.3575 269.692ZM34.8775 273.16C35.2455 273.16 35.5455 273.06 35.7775 272.86C36.0175 272.652 36.1375 272.372 36.1375 272.02C36.1375 271.74 36.0535 271.512 35.8855 271.336C35.7255 271.16 35.5055 271.008 35.2255 270.88C34.9535 270.744 34.6455 270.608 34.3015 270.472C34.0615 270.648 33.8615 270.856 33.7015 271.096C33.5495 271.336 33.4735 271.604 33.4735 271.9C33.4735 272.276 33.6095 272.58 33.8815 272.812C34.1535 273.044 34.4855 273.16 34.8775 273.16ZM38.3779 274V273.196C39.0899 272.508 39.7019 271.896 40.2139 271.36C40.7339 270.816 41.1339 270.324 41.4139 269.884C41.6939 269.436 41.8339 269.02 41.8339 268.636C41.8339 268.236 41.7259 267.916 41.5099 267.676C41.2939 267.436 40.9819 267.316 40.5739 267.316C40.2779 267.316 40.0059 267.4 39.7579 267.568C39.5179 267.736 39.2939 267.936 39.0859 268.168L38.3179 267.4C38.6699 267.024 39.0339 266.736 39.4099 266.536C39.7859 266.328 40.2339 266.224 40.7539 266.224C41.4899 266.224 42.0739 266.436 42.5059 266.86C42.9459 267.284 43.1659 267.852 43.1659 268.564C43.1659 269.012 43.0379 269.472 42.7819 269.944C42.5339 270.408 42.1979 270.884 41.7739 271.372C41.3579 271.86 40.8979 272.372 40.3939 272.908C40.5939 272.892 40.8099 272.876 41.0419 272.86C41.2739 272.836 41.4819 272.824 41.6659 272.824H43.5379V274H38.3779Z" fill="#1B1B1B"/>
<path d="M95.056 274L95.344 271.66H94.42V270.748H95.44L95.632 269.2H94.66V268.288H95.752L96.016 266.2H96.844L96.592 268.288H97.996L98.272 266.2H99.088L98.836 268.288H99.796V269.2H98.728L98.536 270.748H99.556V271.66H98.428L98.152 274H97.312L97.588 271.66H96.184L95.896 274H95.056ZM96.28 270.748H97.696L97.888 269.2H96.472L96.28 270.748ZM103.236 274.144C102.74 274.144 102.296 274.056 101.904 273.88C101.512 273.696 101.204 273.448 100.98 273.136C100.756 272.824 100.644 272.46 100.644 272.044C100.644 271.572 100.784 271.176 101.064 270.856C101.344 270.536 101.664 270.28 102.024 270.088V270.04C101.728 269.832 101.476 269.584 101.268 269.296C101.068 269 100.968 268.652 100.968 268.252C100.968 267.836 101.068 267.48 101.268 267.184C101.468 266.88 101.74 266.644 102.084 266.476C102.436 266.308 102.832 266.224 103.272 266.224C103.96 266.224 104.504 266.416 104.904 266.8C105.312 267.176 105.516 267.672 105.516 268.288C105.516 268.664 105.408 269.004 105.192 269.308C104.976 269.612 104.744 269.856 104.496 270.04V270.088C104.848 270.288 105.156 270.54 105.42 270.844C105.684 271.148 105.816 271.556 105.816 272.068C105.816 272.46 105.708 272.812 105.492 273.124C105.276 273.436 104.976 273.684 104.592 273.868C104.208 274.052 103.756 274.144 103.236 274.144ZM103.74 269.692C103.948 269.484 104.104 269.272 104.208 269.056C104.32 268.84 104.376 268.612 104.376 268.372C104.376 268.036 104.276 267.76 104.076 267.544C103.876 267.32 103.6 267.208 103.248 267.208C102.952 267.208 102.704 267.3 102.504 267.484C102.304 267.668 102.204 267.924 102.204 268.252C102.204 268.508 102.272 268.724 102.408 268.9C102.544 269.068 102.728 269.216 102.96 269.344C103.2 269.464 103.46 269.58 103.74 269.692ZM103.26 273.16C103.628 273.16 103.928 273.06 104.16 272.86C104.4 272.652 104.52 272.372 104.52 272.02C104.52 271.74 104.436 271.512 104.268 271.336C104.108 271.16 103.888 271.008 103.608 270.88C103.336 270.744 103.028 270.608 102.684 270.472C102.444 270.648 102.244 270.856 102.084 271.096C101.932 271.336 101.856 271.604 101.856 271.9C101.856 272.276 101.992 272.58 102.264 272.812C102.536 273.044 102.868 273.16 103.26 273.16ZM107.301 274V266.152H109.401C110.601 266.152 111.537 266.476 112.209 267.124C112.881 267.772 113.217 268.744 113.217 270.04C113.217 271.344 112.885 272.332 112.221 273.004C111.557 273.668 110.641 274 109.473 274H107.301ZM108.693 272.872H109.305C110.097 272.872 110.709 272.644 111.141 272.188C111.573 271.724 111.789 271.008 111.789 270.04C111.789 269.08 111.573 268.38 111.141 267.94C110.709 267.5 110.097 267.28 109.305 267.28H108.693V272.872ZM116.889 274.144C116.393 274.144 115.949 274.056 115.557 273.88C115.165 273.696 114.857 273.448 114.633 273.136C114.409 272.824 114.297 272.46 114.297 272.044C114.297 271.572 114.437 271.176 114.717 270.856C114.997 270.536 115.317 270.28 115.677 270.088V270.04C115.381 269.832 115.129 269.584 114.921 269.296C114.721 269 114.621 268.652 114.621 268.252C114.621 267.836 114.721 267.48 114.921 267.184C115.121 266.88 115.393 266.644 115.737 266.476C116.089 266.308 116.485 266.224 116.925 266.224C117.613 266.224 118.157 266.416 118.557 266.8C118.965 267.176 119.169 267.672 119.169 268.288C119.169 268.664 119.061 269.004 118.845 269.308C118.629 269.612 118.397 269.856 118.149 270.04V270.088C118.501 270.288 118.809 270.54 119.073 270.844C119.337 271.148 119.469 271.556 119.469 272.068C119.469 272.46 119.361 272.812 119.145 273.124C118.929 273.436 118.629 273.684 118.245 273.868C117.861 274.052 117.409 274.144 116.889 274.144ZM117.393 269.692C117.601 269.484 117.757 269.272 117.861 269.056C117.973 268.84 118.029 268.612 118.029 268.372C118.029 268.036 117.929 267.76 117.729 267.544C117.529 267.32 117.253 267.208 116.901 267.208C116.605 267.208 116.357 267.3 116.157 267.484C115.957 267.668 115.857 267.924 115.857 268.252C115.857 268.508 115.925 268.724 116.061 268.9C116.197 269.068 116.381 269.216 116.613 269.344C116.853 269.464 117.113 269.58 117.393 269.692ZM116.913 273.16C117.281 273.16 117.581 273.06 117.813 272.86C118.053 272.652 118.173 272.372 118.173 272.02C118.173 271.74 118.089 271.512 117.921 271.336C117.761 271.16 117.541 271.008 117.261 270.88C116.989 270.744 116.681 270.608 116.337 270.472C116.097 270.648 115.897 270.856 115.737 271.096C115.585 271.336 115.509 271.604 115.509 271.9C115.509 272.276 115.645 272.58 115.917 272.812C116.189 273.044 116.521 273.16 116.913 273.16ZM123.029 274.144C122.237 274.144 121.605 273.8 121.133 273.112C120.669 272.424 120.437 271.436 120.437 270.148C120.437 268.86 120.669 267.884 121.133 267.22C121.605 266.556 122.237 266.224 123.029 266.224C123.821 266.224 124.449 266.556 124.913 267.22C125.385 267.884 125.621 268.86 125.621 270.148C125.621 271.436 125.385 272.424 124.913 273.112C124.449 273.8 123.821 274.144 123.029 274.144ZM123.029 273.064C123.277 273.064 123.497 272.972 123.689 272.788C123.881 272.596 124.029 272.288 124.133 271.864C124.245 271.44 124.301 270.868 124.301 270.148C124.301 269.428 124.245 268.86 124.133 268.444C124.029 268.028 123.881 267.736 123.689 267.568C123.497 267.392 123.277 267.304 123.029 267.304C122.789 267.304 122.573 267.392 122.381 267.568C122.189 267.736 122.037 268.028 121.925 268.444C121.813 268.86 121.757 269.428 121.757 270.148C121.757 270.868 121.813 271.44 121.925 271.864C122.037 272.288 122.189 272.596 122.381 272.788C122.573 272.972 122.789 273.064 123.029 273.064ZM127.825 268.72C127.825 269.168 127.929 269.508 128.137 269.74C128.353 269.972 128.653 270.088 129.037 270.088C129.261 270.088 129.493 270.02 129.733 269.884C129.981 269.74 130.205 269.512 130.405 269.2C130.333 268.528 130.169 268.04 129.913 267.736C129.657 267.432 129.341 267.28 128.965 267.28C128.653 267.28 128.385 267.404 128.161 267.652C127.937 267.9 127.825 268.256 127.825 268.72ZM128.713 274.144C128.257 274.144 127.861 274.06 127.525 273.892C127.189 273.724 126.905 273.52 126.673 273.28L127.417 272.44C127.561 272.608 127.741 272.748 127.957 272.86C128.181 272.964 128.409 273.016 128.641 273.016C128.961 273.016 129.253 272.928 129.517 272.752C129.781 272.576 129.997 272.284 130.165 271.876C130.333 271.46 130.425 270.9 130.441 270.196C130.217 270.468 129.953 270.684 129.649 270.844C129.345 271.004 129.053 271.084 128.773 271.084C128.117 271.084 127.581 270.892 127.165 270.508C126.757 270.116 126.553 269.52 126.553 268.72C126.553 268.208 126.661 267.768 126.877 267.4C127.101 267.024 127.393 266.736 127.753 266.536C128.121 266.328 128.521 266.224 128.953 266.224C129.449 266.224 129.905 266.356 130.321 266.62C130.745 266.884 131.081 267.292 131.329 267.844C131.585 268.388 131.713 269.088 131.713 269.944C131.713 270.928 131.573 271.732 131.293 272.356C131.013 272.972 130.645 273.424 130.189 273.712C129.733 274 129.241 274.144 128.713 274.144ZM135.478 270.28C135.262 270.28 135.034 270.348 134.794 270.484C134.554 270.612 134.326 270.836 134.11 271.156C134.182 271.836 134.346 272.328 134.602 272.632C134.858 272.936 135.17 273.088 135.538 273.088C135.858 273.088 136.126 272.964 136.342 272.716C136.566 272.46 136.678 272.1 136.678 271.636C136.678 271.188 136.57 270.852 136.354 270.628C136.146 270.396 135.854 270.28 135.478 270.28ZM135.562 274.144C135.066 274.144 134.606 274.012 134.182 273.748C133.758 273.484 133.418 273.076 133.162 272.524C132.914 271.972 132.79 271.268 132.79 270.412C132.79 269.42 132.93 268.62 133.21 268.012C133.498 267.396 133.87 266.944 134.326 266.656C134.782 266.368 135.27 266.224 135.79 266.224C136.254 266.224 136.654 266.308 136.99 266.476C137.326 266.644 137.606 266.848 137.83 267.088L137.086 267.928C136.95 267.76 136.77 267.624 136.546 267.52C136.33 267.408 136.106 267.352 135.874 267.352C135.554 267.352 135.262 267.44 134.998 267.616C134.734 267.792 134.518 268.088 134.35 268.504C134.19 268.912 134.098 269.468 134.074 270.172C134.298 269.892 134.562 269.672 134.866 269.512C135.17 269.352 135.458 269.272 135.73 269.272C136.394 269.272 136.93 269.468 137.338 269.86C137.754 270.244 137.962 270.836 137.962 271.636C137.962 272.14 137.85 272.58 137.626 272.956C137.41 273.332 137.122 273.624 136.762 273.832C136.402 274.04 136.002 274.144 135.562 274.144Z" fill="#1B1B1B"/>
<path d="M189.056 274L189.344 271.66H188.42V270.748H189.44L189.632 269.2H188.66V268.288H189.752L190.016 266.2H190.844L190.592 268.288H191.996L192.272 266.2H193.088L192.836 268.288H193.796V269.2H192.728L192.536 270.748H193.556V271.66H192.428L192.152 274H191.312L191.588 271.66H190.184L189.896 274H189.056ZM190.28 270.748H191.696L191.888 269.2H190.472L190.28 270.748ZM196.756 269.824L196.48 270.784H198.484L198.208 269.824C198.08 269.408 197.956 268.98 197.836 268.54C197.724 268.1 197.612 267.664 197.5 267.232H197.452C197.348 267.672 197.236 268.112 197.116 268.552C197.004 268.984 196.884 269.408 196.756 269.824ZM194.128 274L196.684 266.152H198.316L200.872 274H199.408L198.796 271.876H196.156L195.544 274H194.128ZM201.3 274V273.196C202.012 272.508 202.624 271.896 203.136 271.36C203.656 270.816 204.056 270.324 204.336 269.884C204.616 269.436 204.756 269.02 204.756 268.636C204.756 268.236 204.648 267.916 204.432 267.676C204.216 267.436 203.904 267.316 203.496 267.316C203.2 267.316 202.928 267.4 202.68 267.568C202.44 267.736 202.216 267.936 202.008 268.168L201.24 267.4C201.592 267.024 201.956 266.736 202.332 266.536C202.708 266.328 203.156 266.224 203.676 266.224C204.412 266.224 204.996 266.436 205.428 266.86C205.868 267.284 206.088 267.852 206.088 268.564C206.088 269.012 205.96 269.472 205.704 269.944C205.456 270.408 205.12 270.884 204.696 271.372C204.28 271.86 203.82 272.372 203.316 272.908C203.516 272.892 203.732 272.876 203.964 272.86C204.196 272.836 204.404 272.824 204.588 272.824H206.46V274H201.3ZM211.124 274.144C210.468 274.144 209.872 273.988 209.336 273.676C208.8 273.364 208.372 272.908 208.052 272.308C207.74 271.7 207.584 270.964 207.584 270.1C207.584 269.244 207.744 268.512 208.064 267.904C208.392 267.288 208.828 266.82 209.372 266.5C209.916 266.172 210.516 266.008 211.172 266.008C211.668 266.008 212.108 266.108 212.492 266.308C212.876 266.508 213.192 266.74 213.44 267.004L212.696 267.904C212.496 267.696 212.272 267.532 212.024 267.412C211.784 267.284 211.512 267.22 211.208 267.22C210.784 267.22 210.404 267.336 210.068 267.568C209.74 267.792 209.48 268.116 209.288 268.54C209.104 268.964 209.012 269.472 209.012 270.064C209.012 270.96 209.208 271.664 209.6 272.176C209.992 272.68 210.516 272.932 211.172 272.932C211.524 272.932 211.836 272.86 212.108 272.716C212.38 272.564 212.628 272.368 212.852 272.128L213.596 273.004C213.276 273.372 212.908 273.656 212.492 273.856C212.084 274.048 211.628 274.144 211.124 274.144ZM214.366 274V273.196C215.078 272.508 215.69 271.896 216.202 271.36C216.722 270.816 217.122 270.324 217.402 269.884C217.682 269.436 217.822 269.02 217.822 268.636C217.822 268.236 217.714 267.916 217.498 267.676C217.282 267.436 216.97 267.316 216.562 267.316C216.266 267.316 215.994 267.4 215.746 267.568C215.506 267.736 215.282 267.936 215.074 268.168L214.306 267.4C214.658 267.024 215.022 266.736 215.398 266.536C215.774 266.328 216.222 266.224 216.742 266.224C217.478 266.224 218.062 266.436 218.494 266.86C218.934 267.284 219.154 267.852 219.154 268.564C219.154 269.012 219.026 269.472 218.77 269.944C218.522 270.408 218.186 270.884 217.762 271.372C217.346 271.86 216.886 272.372 216.382 272.908C216.582 272.892 216.798 272.876 217.03 272.86C217.262 272.836 217.47 272.824 217.654 272.824H219.526V274H214.366ZM222.667 269.824L222.391 270.784H224.395L224.119 269.824C223.991 269.408 223.867 268.98 223.747 268.54C223.635 268.1 223.523 267.664 223.411 267.232H223.363C223.259 267.672 223.147 268.112 223.027 268.552C222.915 268.984 222.795 269.408 222.667 269.824ZM220.038 274L222.595 266.152H224.227L226.783 274H225.319L224.707 271.876H222.067L221.455 274H220.038ZM229.838 274.144C229.342 274.144 228.898 274.056 228.506 273.88C228.114 273.696 227.806 273.448 227.582 273.136C227.358 272.824 227.246 272.46 227.246 272.044C227.246 271.572 227.386 271.176 227.666 270.856C227.946 270.536 228.266 270.28 228.626 270.088V270.04C228.33 269.832 228.078 269.584 227.87 269.296C227.67 269 227.57 268.652 227.57 268.252C227.57 267.836 227.67 267.48 227.87 267.184C228.07 266.88 228.342 266.644 228.686 266.476C229.038 266.308 229.434 266.224 229.874 266.224C230.562 266.224 231.106 266.416 231.506 266.8C231.914 267.176 232.118 267.672 232.118 268.288C232.118 268.664 232.01 269.004 231.794 269.308C231.578 269.612 231.346 269.856 231.098 270.04V270.088C231.45 270.288 231.758 270.54 232.022 270.844C232.286 271.148 232.418 271.556 232.418 272.068C232.418 272.46 232.31 272.812 232.094 273.124C231.878 273.436 231.578 273.684 231.194 273.868C230.81 274.052 230.358 274.144 229.838 274.144ZM230.342 269.692C230.55 269.484 230.706 269.272 230.81 269.056C230.922 268.84 230.978 268.612 230.978 268.372C230.978 268.036 230.878 267.76 230.678 267.544C230.478 267.32 230.202 267.208 229.85 267.208C229.554 267.208 229.306 267.3 229.106 267.484C228.906 267.668 228.806 267.924 228.806 268.252C228.806 268.508 228.874 268.724 229.01 268.9C229.146 269.068 229.33 269.216 229.562 269.344C229.802 269.464 230.062 269.58 230.342 269.692ZM229.862 273.16C230.23 273.16 230.53 273.06 230.762 272.86C231.002 272.652 231.122 272.372 231.122 272.02C231.122 271.74 231.038 271.512 230.87 271.336C230.71 271.16 230.49 271.008 230.21 270.88C229.938 270.744 229.63 270.608 229.286 270.472C229.046 270.648 228.846 270.856 228.686 271.096C228.534 271.336 228.458 271.604 228.458 271.9C228.458 272.276 228.594 272.58 228.866 272.812C229.138 273.044 229.47 273.16 229.862 273.16Z" fill="#1B1B1B"/>
<rect y="287" width="82" height="15" fill="#A947B6"/>
<rect x="94.5" y="287.5" width="81" height="14" fill="#CC9CD1" stroke="#412E4E"/>
<rect x="188" y="287" width="82" height="15" fill="#F0F0F0"/>
<path d="M1.056 321L1.344 318.66H0.42V317.748H1.44L1.632 316.2H0.66V315.288H1.752L2.016 313.2H2.844L2.592 315.288H3.996L4.272 313.2H5.088L4.836 315.288H5.796V316.2H4.728L4.536 317.748H5.556V318.66H4.428L4.152 321H3.312L3.588 318.66H2.184L1.896 321H1.056ZM2.28 317.748H3.696L3.888 316.2H2.472L2.28 317.748ZM8.75634 316.824L8.48034 317.784H10.4843L10.2083 316.824C10.0803 316.408 9.95634 315.98 9.83634 315.54C9.72434 315.1 9.61234 314.664 9.50034 314.232H9.45234C9.34834 314.672 9.23634 315.112 9.11634 315.552C9.00434 315.984 8.88434 316.408 8.75634 316.824ZM6.12834 321L8.68434 313.152H10.3163L12.8723 321H11.4083L10.7963 318.876H8.15634L7.54434 321H6.12834ZM14.5598 315.72C14.5598 316.168 14.6638 316.508 14.8718 316.74C15.0878 316.972 15.3878 317.088 15.7718 317.088C15.9958 317.088 16.2278 317.02 16.4678 316.884C16.7158 316.74 16.9398 316.512 17.1398 316.2C17.0678 315.528 16.9038 315.04 16.6478 314.736C16.3918 314.432 16.0758 314.28 15.6998 314.28C15.3878 314.28 15.1198 314.404 14.8958 314.652C14.6718 314.9 14.5598 315.256 14.5598 315.72ZM15.4478 321.144C14.9918 321.144 14.5958 321.06 14.2598 320.892C13.9238 320.724 13.6398 320.52 13.4078 320.28L14.1518 319.44C14.2958 319.608 14.4758 319.748 14.6918 319.86C14.9158 319.964 15.1438 320.016 15.3758 320.016C15.6958 320.016 15.9878 319.928 16.2518 319.752C16.5158 319.576 16.7318 319.284 16.8998 318.876C17.0678 318.46 17.1598 317.9 17.1758 317.196C16.9518 317.468 16.6878 317.684 16.3838 317.844C16.0798 318.004 15.7878 318.084 15.5078 318.084C14.8518 318.084 14.3158 317.892 13.8998 317.508C13.4918 317.116 13.2878 316.52 13.2878 315.72C13.2878 315.208 13.3958 314.768 13.6118 314.4C13.8358 314.024 14.1278 313.736 14.4878 313.536C14.8558 313.328 15.2558 313.224 15.6878 313.224C16.1838 313.224 16.6398 313.356 17.0558 313.62C17.4798 313.884 17.8158 314.292 18.0638 314.844C18.3198 315.388 18.4478 316.088 18.4478 316.944C18.4478 317.928 18.3078 318.732 18.0278 319.356C17.7478 319.972 17.3798 320.424 16.9238 320.712C16.4678 321 15.9758 321.144 15.4478 321.144ZM20.5801 317.964H22.5841V316.236C22.5841 316.012 22.5921 315.748 22.6081 315.444C22.6241 315.14 22.6361 314.876 22.6441 314.652H22.5961C22.5001 314.852 22.4001 315.048 22.2961 315.24C22.1921 315.432 22.0841 315.632 21.9721 315.84L20.5801 317.964ZM22.5841 321V319.032H19.2121V318.096L22.2361 313.368H23.8801V317.964H24.8401V319.032H23.8801V321H22.5841ZM27.1644 321C27.2124 320.096 27.3084 319.288 27.4524 318.576C27.5964 317.856 27.8164 317.172 28.1124 316.524C28.4084 315.876 28.8004 315.212 29.2884 314.532H25.6764V313.368H30.8004V314.208C30.3524 314.76 29.9884 315.288 29.7084 315.792C29.4364 316.296 29.2204 316.808 29.0604 317.328C28.9084 317.84 28.7964 318.396 28.7244 318.996C28.6524 319.588 28.6004 320.256 28.5684 321H27.1644ZM32.2968 321V313.152H34.8048C35.3488 313.152 35.8288 313.212 36.2448 313.332C36.6688 313.452 37.0008 313.656 37.2408 313.944C37.4888 314.224 37.6128 314.604 37.6128 315.084C37.6128 315.452 37.5168 315.8 37.3248 316.128C37.1328 316.448 36.8648 316.668 36.5208 316.788V316.836C36.9528 316.932 37.3088 317.136 37.5888 317.448C37.8768 317.752 38.0208 318.168 38.0208 318.696C38.0208 319.216 37.8888 319.648 37.6248 319.992C37.3688 320.336 37.0128 320.592 36.5568 320.76C36.1008 320.92 35.5848 321 35.0088 321H32.2968ZM33.6888 316.392H34.6848C35.2288 316.392 35.6248 316.292 35.8728 316.092C36.1208 315.892 36.2448 315.624 36.2448 315.288C36.2448 314.904 36.1168 314.632 35.8608 314.472C35.6048 314.312 35.2208 314.232 34.7088 314.232H33.6888V316.392ZM33.6888 319.92H34.8648C35.4408 319.92 35.8848 319.816 36.1968 319.608C36.5088 319.392 36.6648 319.064 36.6648 318.624C36.6648 318.208 36.5128 317.908 36.2088 317.724C35.9048 317.532 35.4568 317.436 34.8648 317.436H33.6888V319.92ZM41.6769 317.28C41.4609 317.28 41.2329 317.348 40.9929 317.484C40.7529 317.612 40.5249 317.836 40.3089 318.156C40.3809 318.836 40.5449 319.328 40.8009 319.632C41.0569 319.936 41.3689 320.088 41.7369 320.088C42.0569 320.088 42.3249 319.964 42.5409 319.716C42.7649 319.46 42.8769 319.1 42.8769 318.636C42.8769 318.188 42.7689 317.852 42.5529 317.628C42.3449 317.396 42.0529 317.28 41.6769 317.28ZM41.7609 321.144C41.2649 321.144 40.8049 321.012 40.3809 320.748C39.9569 320.484 39.6169 320.076 39.3609 319.524C39.1129 318.972 38.9889 318.268 38.9889 317.412C38.9889 316.42 39.1289 315.62 39.4089 315.012C39.6969 314.396 40.0689 313.944 40.5249 313.656C40.9809 313.368 41.4689 313.224 41.9889 313.224C42.4529 313.224 42.8529 313.308 43.1889 313.476C43.5249 313.644 43.8049 313.848 44.0289 314.088L43.2849 314.928C43.1489 314.76 42.9689 314.624 42.7449 314.52C42.5289 314.408 42.3049 314.352 42.0729 314.352C41.7529 314.352 41.4609 314.44 41.1969 314.616C40.9329 314.792 40.7169 315.088 40.5489 315.504C40.3889 315.912 40.2969 316.468 40.2729 317.172C40.4969 316.892 40.7609 316.672 41.0649 316.512C41.3689 316.352 41.6569 316.272 41.9289 316.272C42.5929 316.272 43.1289 316.468 43.5369 316.86C43.9529 317.244 44.1609 317.836 44.1609 318.636C44.1609 319.14 44.0489 319.58 43.8249 319.956C43.6089 320.332 43.3209 320.624 42.9609 320.832C42.6009 321.04 42.2009 321.144 41.7609 321.144Z" fill="#1B1B1B"/>
<path d="M95.056 321L95.344 318.66H94.42V317.748H95.44L95.632 316.2H94.66V315.288H95.752L96.016 313.2H96.844L96.592 315.288H97.996L98.272 313.2H99.088L98.836 315.288H99.796V316.2H98.728L98.536 317.748H99.556V318.66H98.428L98.152 321H97.312L97.588 318.66H96.184L95.896 321H95.056ZM96.28 317.748H97.696L97.888 316.2H96.472L96.28 317.748ZM104.28 321.144C103.624 321.144 103.028 320.988 102.492 320.676C101.956 320.364 101.528 319.908 101.208 319.308C100.896 318.7 100.74 317.964 100.74 317.1C100.74 316.244 100.9 315.512 101.22 314.904C101.548 314.288 101.984 313.82 102.528 313.5C103.072 313.172 103.672 313.008 104.328 313.008C104.824 313.008 105.264 313.108 105.648 313.308C106.032 313.508 106.348 313.74 106.596 314.004L105.852 314.904C105.652 314.696 105.428 314.532 105.18 314.412C104.94 314.284 104.668 314.22 104.364 314.22C103.94 314.22 103.56 314.336 103.224 314.568C102.896 314.792 102.636 315.116 102.444 315.54C102.26 315.964 102.168 316.472 102.168 317.064C102.168 317.96 102.364 318.664 102.756 319.176C103.148 319.68 103.672 319.932 104.328 319.932C104.68 319.932 104.992 319.86 105.264 319.716C105.536 319.564 105.784 319.368 106.008 319.128L106.752 320.004C106.432 320.372 106.064 320.656 105.648 320.856C105.24 321.048 104.784 321.144 104.28 321.144ZM110.796 321.144C110.14 321.144 109.544 320.988 109.008 320.676C108.472 320.364 108.044 319.908 107.724 319.308C107.412 318.7 107.256 317.964 107.256 317.1C107.256 316.244 107.416 315.512 107.736 314.904C108.064 314.288 108.5 313.82 109.044 313.5C109.588 313.172 110.188 313.008 110.844 313.008C111.34 313.008 111.78 313.108 112.164 313.308C112.548 313.508 112.864 313.74 113.112 314.004L112.368 314.904C112.168 314.696 111.944 314.532 111.696 314.412C111.456 314.284 111.184 314.22 110.88 314.22C110.456 314.22 110.076 314.336 109.74 314.568C109.412 314.792 109.152 315.116 108.96 315.54C108.776 315.964 108.684 316.472 108.684 317.064C108.684 317.96 108.88 318.664 109.272 319.176C109.664 319.68 110.188 319.932 110.844 319.932C111.196 319.932 111.508 319.86 111.78 319.716C112.052 319.564 112.3 319.368 112.524 319.128L113.268 320.004C112.948 320.372 112.58 320.656 112.164 320.856C111.756 321.048 111.3 321.144 110.796 321.144ZM115.298 315.72C115.298 316.168 115.402 316.508 115.61 316.74C115.826 316.972 116.126 317.088 116.51 317.088C116.734 317.088 116.966 317.02 117.206 316.884C117.454 316.74 117.678 316.512 117.878 316.2C117.806 315.528 117.642 315.04 117.386 314.736C117.13 314.432 116.814 314.28 116.438 314.28C116.126 314.28 115.858 314.404 115.634 314.652C115.41 314.9 115.298 315.256 115.298 315.72ZM116.186 321.144C115.73 321.144 115.334 321.06 114.998 320.892C114.662 320.724 114.378 320.52 114.146 320.28L114.89 319.44C115.034 319.608 115.214 319.748 115.43 319.86C115.654 319.964 115.882 320.016 116.114 320.016C116.434 320.016 116.726 319.928 116.99 319.752C117.254 319.576 117.47 319.284 117.638 318.876C117.806 318.46 117.898 317.9 117.914 317.196C117.69 317.468 117.426 317.684 117.122 317.844C116.818 318.004 116.526 318.084 116.246 318.084C115.59 318.084 115.054 317.892 114.638 317.508C114.23 317.116 114.026 316.52 114.026 315.72C114.026 315.208 114.134 314.768 114.35 314.4C114.574 314.024 114.866 313.736 115.226 313.536C115.594 313.328 115.994 313.224 116.426 313.224C116.922 313.224 117.378 313.356 117.794 313.62C118.218 313.884 118.554 314.292 118.802 314.844C119.058 315.388 119.186 316.088 119.186 316.944C119.186 317.928 119.046 318.732 118.766 319.356C118.486 319.972 118.118 320.424 117.662 320.712C117.206 321 116.714 321.144 116.186 321.144ZM123.862 321.144C123.206 321.144 122.61 320.988 122.074 320.676C121.538 320.364 121.11 319.908 120.79 319.308C120.478 318.7 120.322 317.964 120.322 317.1C120.322 316.244 120.482 315.512 120.802 314.904C121.13 314.288 121.566 313.82 122.11 313.5C122.654 313.172 123.254 313.008 123.91 313.008C124.406 313.008 124.846 313.108 125.23 313.308C125.614 313.508 125.93 313.74 126.178 314.004L125.434 314.904C125.234 314.696 125.01 314.532 124.762 314.412C124.522 314.284 124.25 314.22 123.946 314.22C123.522 314.22 123.142 314.336 122.806 314.568C122.478 314.792 122.218 315.116 122.026 315.54C121.842 315.964 121.75 316.472 121.75 317.064C121.75 317.96 121.946 318.664 122.338 319.176C122.73 319.68 123.254 319.932 123.91 319.932C124.262 319.932 124.574 319.86 124.846 319.716C125.118 319.564 125.366 319.368 125.59 319.128L126.334 320.004C126.014 320.372 125.646 320.656 125.23 320.856C124.822 321.048 124.366 321.144 123.862 321.144ZM127.644 321V313.152H129.744C130.944 313.152 131.88 313.476 132.552 314.124C133.224 314.772 133.56 315.744 133.56 317.04C133.56 318.344 133.228 319.332 132.564 320.004C131.9 320.668 130.984 321 129.816 321H127.644ZM129.036 319.872H129.648C130.44 319.872 131.052 319.644 131.484 319.188C131.916 318.724 132.132 318.008 132.132 317.04C132.132 316.08 131.916 315.38 131.484 314.94C131.052 314.5 130.44 314.28 129.648 314.28H129.036V319.872ZM135.036 321V319.872H136.74V314.856H135.336V313.992C135.712 313.92 136.04 313.836 136.32 313.74C136.6 313.636 136.86 313.512 137.1 313.368H138.132V319.872H139.632V321H135.036Z" fill="#1B1B1B"/>
<path d="M189.056 321L189.344 318.66H188.42V317.748H189.44L189.632 316.2H188.66V315.288H189.752L190.016 313.2H190.844L190.592 315.288H191.996L192.272 313.2H193.088L192.836 315.288H193.796V316.2H192.728L192.536 317.748H193.556V318.66H192.428L192.152 321H191.312L191.588 318.66H190.184L189.896 321H189.056ZM190.28 317.748H191.696L191.888 316.2H190.472L190.28 317.748ZM195.148 321V313.152H199.888V314.328H196.54V316.548H199.396V317.724H196.54V321H195.148ZM203.342 321.144C202.55 321.144 201.918 320.8 201.446 320.112C200.982 319.424 200.75 318.436 200.75 317.148C200.75 315.86 200.982 314.884 201.446 314.22C201.918 313.556 202.55 313.224 203.342 313.224C204.134 313.224 204.762 313.556 205.226 314.22C205.698 314.884 205.934 315.86 205.934 317.148C205.934 318.436 205.698 319.424 205.226 320.112C204.762 320.8 204.134 321.144 203.342 321.144ZM203.342 320.064C203.59 320.064 203.81 319.972 204.002 319.788C204.194 319.596 204.342 319.288 204.446 318.864C204.558 318.44 204.614 317.868 204.614 317.148C204.614 316.428 204.558 315.86 204.446 315.444C204.342 315.028 204.194 314.736 204.002 314.568C203.81 314.392 203.59 314.304 203.342 314.304C203.102 314.304 202.886 314.392 202.694 314.568C202.502 314.736 202.35 315.028 202.238 315.444C202.126 315.86 202.07 316.428 202.07 317.148C202.07 317.868 202.126 318.44 202.238 318.864C202.35 319.288 202.502 319.596 202.694 319.788C202.886 319.972 203.102 320.064 203.342 320.064ZM207.418 321V313.152H212.158V314.328H208.81V316.548H211.666V317.724H208.81V321H207.418ZM215.611 321.144C214.819 321.144 214.187 320.8 213.715 320.112C213.251 319.424 213.019 318.436 213.019 317.148C213.019 315.86 213.251 314.884 213.715 314.22C214.187 313.556 214.819 313.224 215.611 313.224C216.403 313.224 217.031 313.556 217.495 314.22C217.967 314.884 218.203 315.86 218.203 317.148C218.203 318.436 217.967 319.424 217.495 320.112C217.031 320.8 216.403 321.144 215.611 321.144ZM215.611 320.064C215.859 320.064 216.079 319.972 216.271 319.788C216.463 319.596 216.611 319.288 216.715 318.864C216.827 318.44 216.883 317.868 216.883 317.148C216.883 316.428 216.827 315.86 216.715 315.444C216.611 315.028 216.463 314.736 216.271 314.568C216.079 314.392 215.859 314.304 215.611 314.304C215.371 314.304 215.155 314.392 214.963 314.568C214.771 314.736 214.619 315.028 214.507 315.444C214.395 315.86 214.339 316.428 214.339 317.148C214.339 317.868 214.395 318.44 214.507 318.864C214.619 319.288 214.771 319.596 214.963 319.788C215.155 319.972 215.371 320.064 215.611 320.064ZM219.687 321V313.152H224.427V314.328H221.079V316.548H223.935V317.724H221.079V321H219.687ZM227.881 321.144C227.089 321.144 226.457 320.8 225.985 320.112C225.521 319.424 225.289 318.436 225.289 317.148C225.289 315.86 225.521 314.884 225.985 314.22C226.457 313.556 227.089 313.224 227.881 313.224C228.673 313.224 229.301 313.556 229.765 314.22C230.237 314.884 230.473 315.86 230.473 317.148C230.473 318.436 230.237 319.424 229.765 320.112C229.301 320.8 228.673 321.144 227.881 321.144ZM227.881 320.064C228.129 320.064 228.349 319.972 228.541 319.788C228.733 319.596 228.881 319.288 228.985 318.864C229.097 318.44 229.153 317.868 229.153 317.148C229.153 316.428 229.097 315.86 228.985 315.444C228.881 315.028 228.733 314.736 228.541 314.568C228.349 314.392 228.129 314.304 227.881 314.304C227.641 314.304 227.425 314.392 227.233 314.568C227.041 314.736 226.889 315.028 226.777 315.444C226.665 315.86 226.609 316.428 226.609 317.148C226.609 317.868 226.665 318.44 226.777 318.864C226.889 319.288 227.041 319.596 227.233 319.788C227.425 319.972 227.641 320.064 227.881 320.064Z" fill="#1B1B1B"/>
<rect x="359" y="212.322" width="25" height="25" transform="rotate(-45 359 212.322)" fill="#412E4E"/>
<rect x="341" y="230.322" width="25" height="25" transform="rotate(-45 341 230.322)" fill="#753B82"/>
<rect x="323" y="248.322" width="25" height="25" transform="rotate(-45 323 248.322)" fill="#A947B6"/>
<rect x="377" y="230.322" width="25" height="25" transform="rotate(-45 377 230.322)" fill="#4E655A"/>
<rect x="341" y="266.322" width="25" height="25" transform="rotate(-45 341 266.322)" fill="#CC9CD1"/>
<rect x="377" y="266.322" width="25" height="25" transform="rotate(-45 377 266.322)" fill="#A2C2A8"/>
<rect x="359" y="284.322" width="25" height="25" transform="rotate(-45 359 284.322)" fill="#F0F0F0"/>
<rect x="395" y="248.322" width="25" height="25" transform="rotate(-45 395 248.322)" fill="#5A9965"/>
<rect x="359" y="248.322" width="25" height="25" transform="rotate(-45 359 248.322)" fill="#8D8096"/>
</svg>
