<svg width="821" height="281" viewBox="0 0 821 281" fill="none" xmlns="http://www.w3.org/2000/svg">
<text fill="#1B1B1B" xml:space="preserve" style="white-space: pre" font-family="Source Sans Pro" font-size="12" font-weight="600" letter-spacing="0em"><tspan x="0" y="276.266">#D9E8F6</tspan></text>
<text fill="#1B1B1B" xml:space="preserve" style="white-space: pre" font-family="Source Sans Pro" font-size="12" font-weight="600" letter-spacing="0em"><tspan x="118.5" y="276.266">#AACDEC</tspan></text>
<text fill="#1B1B1B" xml:space="preserve" style="white-space: pre" font-family="Source Sans Pro" font-size="12" font-weight="600" letter-spacing="0em"><tspan x="237" y="276.266">#73B3E7</tspan></text>
<rect x="-0.5" y="0.5" width="109" height="14" transform="matrix(-1 8.74228e-08 8.74228e-08 1 346 244)" fill="#73B3E7" stroke="#274863"/>
<rect x="-0.5" y="0.5" width="109" height="14" transform="matrix(-1 6.56737e-08 1.16374e-07 1 227.526 244)" fill="#AACDEC" stroke="#274863"/>
<rect x="-0.5" y="0.5" width="109" height="14" transform="matrix(-1 6.56737e-08 1.16374e-07 1 109.052 244)" fill="#D9E8F6" stroke="#274863"/>
<text fill="#1B1B1B" xml:space="preserve" style="white-space: pre" font-family="Source Sans Pro" font-size="12" font-weight="600" letter-spacing="0em"><tspan x="0.422058" y="215.266">#D9E8F6</tspan></text>
<text fill="#1B1B1B" xml:space="preserve" style="white-space: pre" font-family="Source Sans Pro" font-size="12" font-weight="600" letter-spacing="0em"><tspan x="118.922" y="215.266">#AACDEC</tspan></text>
<text fill="#1B1B1B" xml:space="preserve" style="white-space: pre" font-family="Source Sans Pro" font-size="12" font-weight="600" letter-spacing="0em"><tspan x="237.422" y="215.266">#73B3E7</tspan></text>
<text fill="#1B1B1B" xml:space="preserve" style="white-space: pre" font-family="Source Sans Pro" font-size="12" font-weight="600" letter-spacing="0em"><tspan x="355.922" y="215.266">#4F97D1</tspan></text>
<rect width="110" height="15" transform="matrix(-1 8.74228e-08 8.74228e-08 1 465.422 183)" fill="#4F97D1"/>
<rect x="-0.5" y="0.5" width="109" height="14" transform="matrix(-1 6.56737e-08 1.16374e-07 1 345.948 183)" fill="#73B3E7" stroke="#274863"/>
<rect x="-0.5" y="0.5" width="109" height="14" transform="matrix(-1 6.56737e-08 1.16374e-07 1 227.474 183)" fill="#AACDEC" stroke="#274863"/>
<rect x="-0.5" y="0.5" width="109" height="14" transform="matrix(-1 6.56737e-08 1.16374e-07 1 109 183)" fill="#D9E8F6" stroke="#274863"/>
<text fill="#1B1B1B" xml:space="preserve" style="white-space: pre" font-family="Source Sans Pro" font-size="12" font-weight="600" letter-spacing="0em"><tspan x="0" y="154.266">#D9E8F6</tspan></text>
<text fill="#1B1B1B" xml:space="preserve" style="white-space: pre" font-family="Source Sans Pro" font-size="12" font-weight="600" letter-spacing="0em"><tspan x="118.5" y="154.266">#AACDEC</tspan></text>
<text fill="#1B1B1B" xml:space="preserve" style="white-space: pre" font-family="Source Sans Pro" font-size="12" font-weight="600" letter-spacing="0em"><tspan x="237" y="154.266">#73B3E7</tspan></text>
<text fill="#1B1B1B" xml:space="preserve" style="white-space: pre" font-family="Source Sans Pro" font-size="12" font-weight="600" letter-spacing="0em"><tspan x="355.5" y="154.266">#4F97D1</tspan></text>
<text fill="#1B1B1B" xml:space="preserve" style="white-space: pre" font-family="Source Sans Pro" font-size="12" font-weight="600" letter-spacing="0em"><tspan x="474" y="154.266">#2378C3</tspan></text>
<rect width="110" height="15" transform="matrix(-1 8.74228e-08 8.74228e-08 1 584 122)" fill="#2378C3"/>
<rect width="110" height="15" transform="matrix(-1 6.56737e-08 1.16374e-07 1 465.526 122)" fill="#4F97D1"/>
<rect x="-0.5" y="0.5" width="109" height="14" transform="matrix(-1 6.56737e-08 1.16374e-07 1 346.052 122)" fill="#73B3E7" stroke="#274863"/>
<rect x="-0.5" y="0.5" width="109" height="14" transform="matrix(-1 6.56737e-08 1.16374e-07 1 227.578 122)" fill="#AACDEC" stroke="#274863"/>
<rect x="-0.5" y="0.5" width="109" height="14" transform="matrix(-1 6.56737e-08 1.16374e-07 1 109.104 122)" fill="#D9E8F6" stroke="#274863"/>
<text fill="#1B1B1B" xml:space="preserve" style="white-space: pre" font-family="Source Sans Pro" font-size="12" font-weight="600" letter-spacing="0em"><tspan x="0.370117" y="93.266">#D9E8F6</tspan></text>
<text fill="#1B1B1B" xml:space="preserve" style="white-space: pre" font-family="Source Sans Pro" font-size="12" font-weight="600" letter-spacing="0em"><tspan x="118.87" y="93.266">#AACDEC</tspan></text>
<text fill="#1B1B1B" xml:space="preserve" style="white-space: pre" font-family="Source Sans Pro" font-size="12" font-weight="600" letter-spacing="0em"><tspan x="237.37" y="93.266">#73B3E7</tspan></text>
<text fill="#1B1B1B" xml:space="preserve" style="white-space: pre" font-family="Source Sans Pro" font-size="12" font-weight="600" letter-spacing="0em"><tspan x="355.87" y="93.266">#4F97D1</tspan></text>
<text fill="#1B1B1B" xml:space="preserve" style="white-space: pre" font-family="Source Sans Pro" font-size="12" font-weight="600" letter-spacing="0em"><tspan x="474.37" y="93.266">#2378C3</tspan></text>
<text fill="#1B1B1B" xml:space="preserve" style="white-space: pre" font-family="Source Sans Pro" font-size="12" font-weight="600" letter-spacing="0em"><tspan x="592.87" y="93.266">#2C608A</tspan></text>
<rect width="110" height="15" transform="matrix(-1 8.74228e-08 8.74228e-08 1 702.37 61)" fill="#2C608A"/>
<rect width="110" height="15" transform="matrix(-1 6.56737e-08 1.16374e-07 1 583.896 61)" fill="#2378C3"/>
<rect width="110" height="15" transform="matrix(-1 6.56737e-08 1.16374e-07 1 465.422 61)" fill="#4F97D1"/>
<rect x="-0.5" y="0.5" width="109" height="14" transform="matrix(-1 6.56737e-08 1.16374e-07 1 345.948 61)" fill="#73B3E7" stroke="#274863"/>
<rect x="-0.5" y="0.5" width="109" height="14" transform="matrix(-1 6.56737e-08 1.16374e-07 1 227.474 61)" fill="#AACDEC" stroke="#274863"/>
<rect x="-0.5" y="0.5" width="109" height="14" transform="matrix(-1 6.56737e-08 1.16374e-07 1 109 61)" fill="#D9E8F6" stroke="#274863"/>
<text fill="#1B1B1B" xml:space="preserve" style="white-space: pre" font-family="Source Sans Pro" font-size="12" font-weight="600" letter-spacing="0em"><tspan x="0" y="32.266">#D9E8F6</tspan></text>
<text fill="#1B1B1B" xml:space="preserve" style="white-space: pre" font-family="Source Sans Pro" font-size="12" font-weight="600" letter-spacing="0em"><tspan x="118.5" y="32.266">#AACDEC</tspan></text>
<text fill="#1B1B1B" xml:space="preserve" style="white-space: pre" font-family="Source Sans Pro" font-size="12" font-weight="600" letter-spacing="0em"><tspan x="237" y="32.266">#73B3E7</tspan></text>
<text fill="#1B1B1B" xml:space="preserve" style="white-space: pre" font-family="Source Sans Pro" font-size="12" font-weight="600" letter-spacing="0em"><tspan x="355.5" y="32.266">#4F97D1</tspan></text>
<text fill="#1B1B1B" xml:space="preserve" style="white-space: pre" font-family="Source Sans Pro" font-size="12" font-weight="600" letter-spacing="0em"><tspan x="474" y="32.266">#2378C3</tspan></text>
<text fill="#1B1B1B" xml:space="preserve" style="white-space: pre" font-family="Source Sans Pro" font-size="12" font-weight="600" letter-spacing="0em"><tspan x="592.5" y="32.266">#2C608A</tspan></text>
<text fill="#1B1B1B" xml:space="preserve" style="white-space: pre" font-family="Source Sans Pro" font-size="12" font-weight="600" letter-spacing="0em"><tspan x="711" y="32.266">#274863</tspan></text>
<rect width="110" height="15" transform="matrix(-1 8.74228e-08 8.74228e-08 1 821 0)" fill="#274863"/>
<rect width="110" height="15" transform="matrix(-1 6.56737e-08 1.16374e-07 1 702.526 0)" fill="#2C608A"/>
<rect width="110" height="15" transform="matrix(-1 6.56737e-08 1.16374e-07 1 584.052 0)" fill="#2378C3"/>
<rect width="110" height="15" transform="matrix(-1 6.56737e-08 1.16374e-07 1 465.578 0)" fill="#4F97D1"/>
<rect x="-0.5" y="0.5" width="109" height="14" transform="matrix(-1 6.56737e-08 1.16374e-07 1 346.104 3.28368e-08)" fill="#73B3E7" stroke="#274863"/>
<rect x="-0.5" y="0.5" width="109" height="14" transform="matrix(-1 6.56737e-08 1.16374e-07 1 227.63 3.28368e-08)" fill="#AACDEC" stroke="#274863"/>
<rect x="-0.5" y="0.5" width="109" height="14" transform="matrix(-1 6.56737e-08 1.16374e-07 1 109.156 3.28368e-08)" fill="#D9E8F6" stroke="#274863"/>
</svg>
