<?xml version="1.0" encoding="UTF-8"?><svg id="Layer_1" xmlns="http://www.w3.org/2000/svg" viewBox="0 0 414.99 301.79"><defs><style>.cls-1{fill:#00bde3;}.cls-2{fill:#fff;}.cls-3{fill:#1b1b1b;}</style></defs><path class="cls-2" d="M280.19,172.26l-13.37-5.83-7.53-14.69c-.44-.85-1.19-1.53-2.11-1.84l-33.28-12c-1.4-.51-2.9-.17-3.95.85l-14.56,14.18-3-2.32c-.85-.65-1.91-.95-3-.75l-21.85,3.72c-.96.17-1.81.68-2.42,1.47l-13.1,17.29c-1.26,1.67-.92,4.19.75,5.35,1.64,1.16,4.03.99,5.36-.75,1.33-1.71,12.17-16.09,12.17-16.09l18.71-3.17,16.88,13.19c1.67,1.3,4.06,1.02,5.35-.65,1.3-1.67.99-4.06-.64-5.35l-9.18-7.16,12.14-11.83,29.63,10.67,7.46,14.56c.41.78,1.06,1.4,1.88,1.77,0,0,12.14,5.39,14.59,6.38,2.45.99,4.16-.38,5.01-1.98.85-1.6-.03-4.19-1.98-5.01h.04Z"/><path class="cls-3" d="M414,239.53l-45.31-81.79c-.58-1.02-1.33-1.91-2.25-2.63l-23.56-18.14-41.69-77.56c-.51-.99-1.23-1.84-2.08-2.52L232.7,1.96c-1.71-1.4-3.86-2.08-6.04-1.94l-32.55,2.28c-2.08.14-4.06,1.06-5.49,2.56l-37.16,38.05c-.38.41-.75.85-1.06,1.3l-45.89,70.44h-3.37l-7.5-5.93c-1.5-1.19-3.38-1.84-5.29-1.84h-8.25c-3.1,0-5.93,1.67-7.43,4.36L1.08,239.53c-1.47,2.62-1.44,5.86.1,8.45,1.53,2.59,4.33,4.19,7.36,4.19h134.84c1.84-2.69,4.87-4.5,8.35-4.67l-2.97-12.38H23.03l62.08-111.25h.28l7.5,5.93c1.5,1.19,3.37,1.84,5.28,1.84h10.94c2.87,0,5.56-1.47,7.13-3.89l47.93-73.58,34.33-35.12,25.95-1.81,62.49,51.69,41.76,77.7c.58,1.06,1.36,1.98,2.32,2.73l23.59,18.17,37.43,67.57h-102.34l-3,12.55c2.86.51,5.28,2.22,6.89,4.5h112.91c3.03,0,5.83-1.6,7.33-4.19s1.57-5.83.1-8.45h.07Z"/><path class="cls-1" d="M282.17,177.31c.85-1.6-.04-4.19-1.98-5.01l-13.37-5.83-7.53-14.7c-.44-.85-1.19-1.53-2.11-1.84l-33.28-12c-1.4-.51-2.9-.17-3.95.85l-14.56,14.18-3-2.32c-.85-.65-1.91-.95-3-.75l-21.85,3.72c-.96.17-1.81.68-2.42,1.47l-13.1,17.29c-1.26,1.67-.92,4.19.75,5.35,1.64,1.16,4.03.99,5.36-.75,1.33-1.71,12.17-16.09,12.17-16.09l18.71-3.17,16.88,13.19c1.67,1.3,4.06,1.02,5.35-.65,1.3-1.67.99-4.06-.64-5.35l-9.18-7.16,12.14-11.83,29.63,10.67,7.46,14.56c.41.78,1.06,1.4,1.88,1.77,0,0,12.14,5.39,14.59,6.38,2.45.99,4.19-.38,5.01-1.98h.04Z"/><path class="cls-3" d="M295.67,187.33h-152.7c-2.18,0-3.96,1.77-3.96,3.96v12.61c0,2.18,1.78,3.95,3.96,3.95h33.82c1.8,0,3.24,1.47,3.24,3.24s-1.47,3.24-3.24,3.24h-26.02l9.55,39.99h-8.11c-2.19,0-3.96,1.77-3.96,3.95v18.92c0,2.18,1.77,3.95,3.96,3.95h10.46c.21-14.32,11.93-25.95,26.36-25.95,15.75,0,26.35,13.09,26.35,25.95h8.35c.21-14.32,11.97-25.95,26.35-25.95,16.47,0,26.36,13.81,26.36,25.95h8.35c2.18,0,3.96-1.77,3.96-3.95v-18.92c0-2.18-1.78-3.95-3.96-3.95h-6.65l11.08-46.47h6.45c2.18,0,3.95-1.77,3.95-3.95v-12.61c0-2.18-1.77-3.96-3.95-3.96Z"/><path class="cls-1" d="M189.09,261.32c-11.18,0-20.28,9-20.31,20.18,0,11.18,9.03,20.25,20.21,20.29,11.18.03,20.29-9,20.32-20.18.03-11.18-9-20.25-20.22-20.29ZM189.03,289.2c-4.23,0-7.64-3.44-7.64-7.64s3.44-7.64,7.67-7.6c4.23,0,7.64,3.44,7.64,7.67s-3.45,7.6-7.67,7.6v-.03ZM250.15,261.32c-11.21,0-20.28,9-20.32,20.18,0,11.18,9.04,20.25,20.22,20.29,11.18.03,20.29-9,20.32-20.18.03-11.18-9-20.25-20.22-20.29ZM250.08,289.2c-4.22,0-7.63-3.44-7.63-7.64s3.44-7.64,7.67-7.6c4.23,0,7.64,3.44,7.64,7.67s-3.45,7.6-7.68,7.6v-.03Z"/></svg>