<?xml version="1.0" encoding="UTF-8"?><svg id="Layer_1" xmlns="http://www.w3.org/2000/svg" viewBox="0 0 345.49 238.9"><defs><style>.cls-1{fill:#00bde3;}.cls-2{fill:#1d1d1b;}.cls-3{fill:#1b1b1b;}</style></defs><path class="cls-3" d="M107.49,0H17.28v28.98h90.21V0Z"/><path class="cls-2" d="M335.26,218.44h-17.39V49.44c0-3.38-3.88-5.32-6.58-3.27,0,0-67.16,50.73-96.82,73.03v-19.57l.86-50.09c.06-3.41-3.82-5.39-6.55-3.34,0,0-72.86,54.31-101.29,75.45V49.44H17.28v169.01h-7.05c-5.66,0-10.23,4.57-10.23,10.23s4.57,10.23,10.23,10.23h325.03c5.66,0,10.23-4.57,10.23-10.23s-4.57-10.23-10.23-10.23ZM155.49,214.45c-18.41-5.08-31.94-21.96-31.94-41.94,0-24,19.5-43.51,43.5-43.51,1.3,0,2.59.07,3.89.17l-4.47,7.94c-19.26.31-34.81,16.06-34.81,35.36,0,16.06,10.74,29.63,25.44,33.96l-1.61,8.01ZM146.05,180.36l30.03-53.66-7.53,37.95h19.57l-30.04,53.66,7.54-37.95h-19.57ZM167.05,216.02c-1.29,0-2.59-.07-3.89-.17l4.47-7.94c19.26-.31,34.81-16.06,34.81-35.35,0-16.06-10.74-29.63-25.43-33.96l1.6-8.01c18.41,5.08,31.94,21.96,31.94,41.94,0,24-19.5,43.5-43.5,43.5Z"/><path class="cls-1" d="M166.51,137.13l4.46-7.94c-1.29-.1-2.59-.17-3.89-.17-24,0-43.5,19.5-43.5,43.51,0,19.98,13.57,36.86,31.95,41.94l1.6-8.01c-14.66-4.33-25.43-17.9-25.43-33.96,0-19.33,15.58-35.05,34.81-35.36Z"/><path class="cls-1" d="M188.09,164.64h-19.57l7.53-37.95-30,53.66h19.53l-7.53,37.95,30.04-53.66Z"/><path class="cls-1" d="M210.55,172.52c0-19.98-13.57-36.86-31.94-41.94l-1.6,8.01c14.66,4.33,25.43,17.9,25.43,33.96,0,19.33-15.58,35.05-34.81,35.36l-4.47,7.94c1.3.1,2.6.17,3.89.17,24,0,43.5-19.5,43.5-43.5Z"/></svg>