<?xml version="1.0" encoding="UTF-8"?><svg id="Layer_1" xmlns="http://www.w3.org/2000/svg" viewBox="0 0 469.93 304.28"><defs><style>.cls-1{fill:#00bde3;}.cls-2{fill:#1b1b1b;}</style></defs><path class="cls-1" d="M276.11,272.78l9.24-34.54,55.88,34.54h33.82s-34.61-129.15-38.15-142.31c-2.56-9.51-11.08-16.88-21.51-16.88s-19.27,7.3-21.59,17.11c-.1.21-38.04,142.07-38.04,142.07h20.35ZM335.4,200.57l14.59,54.52-50.01-30.89,35.45-23.63h-.03ZM315.39,128.7c4.19,0,7.6,3.41,7.6,7.6s-3.41,7.6-7.6,7.6-7.61-3.41-7.61-7.6,3.41-7.6,7.61-7.6ZM307.27,156.31c2.52.99,5.25,1.57,8.15,1.57s5.62-.58,8.18-1.6l6.48,24.24-35.63,23.73,12.82-47.97v.03Z"/><path class="cls-2" d="M178.61,169.75c.78.1,1.77.21,2.79.34v84.69h12.58v-83.12c.82.1,1.54.2,2.08.27.72.1,1.4-.27,1.78-.92l41.11-73.03,47.15,23.63c5.35-11.12,16.54-18.44,29.32-18.44,14.69,0,27.68,10.13,31.6,24.58.89,3.31,3.79,14.01,7.57,28.16l69.99,35.05v30.82h12.58v-84.21l-178.54-88.92-7.43-40.61c-.14-.41-.37-.72-.75-.89-2.28-1.13-11.28-5.52-14.86-7.06-.38-.17-.72-.1-1.06.17-12.75,10.26-30.1,30.82-41.66,55.1-20.49,43.09-18.24,81.9-15.79,112.78.07.85.72,1.53,1.57,1.64l-.03-.03Z"/><path class="cls-2" d="M468.15,285.33h-11.76v-42.07c0-2.18-1.77-3.92-3.92-3.92h-43.6c-2.19,0-3.92,1.77-3.92,3.92v42.07h-205.82v-10.91c0-1.36-1.09-2.46-2.45-2.46h-18.72c-1.36,0-2.45,1.09-2.45,2.46v10.91h-12.69c-.95,0-1.77.78-1.77,1.77v12.17c0,.95.78,1.77,1.77,1.77h305.33c.96,0,1.78-.78,1.78-1.77v-12.17c0-.95-.79-1.77-1.78-1.77Z"/><path class="cls-2" d="M119.8,289.76h-18.72c-2.08,0-3.75-1.67-3.75-3.75s1.67-3.75,3.75-3.75h17.15v-38.59h1.57c4.02,0,7.26-3.24,7.26-7.26,0-3.78-2.9-6.85-6.58-7.19h-19.4c-2.08,0-3.75-1.67-3.75-3.75s1.67-3.75,3.75-3.75h17.15v-38.66h1.57c4.02,0,7.26-3.24,7.26-7.26s-3.24-7.26-7.26-7.26H7.26c-4.02,0-7.26,3.24-7.26,7.26s3.24,7.26,7.26,7.26h1.57v38.66h17.01c2.08,0,3.75,1.67,3.75,3.75s-1.67,3.75-3.75,3.75H6.58c-3.68.34-6.58,3.41-6.58,7.19,0,4.02,3.24,7.26,7.26,7.26h1.57v38.59h17.01c2.08,0,3.75,1.67,3.75,3.75s-1.67,3.75-3.75,3.75H7.26c-4.02,0-7.26,3.24-7.26,7.26s3.24,7.26,7.26,7.26h112.54c4.02,0,7.26-3.24,7.26-7.26s-3.24-7.26-7.26-7.26Z"/><path class="cls-1" d="M77.69,226.58c-5.14-7.88-11.01-14.69-12.95-26.83-.07-.58-.61-1.06-1.19-1.06-.62,0-1.13.44-1.2,1.09-1.94,13.02-7.94,19.81-13.22,27.68-5.12,7.6-9.48,14.18-9.48,22.64,0,13.2,10.74,23.9,23.93,23.9s23.93-10.7,23.93-23.9c0-8.63-4.74-15.85-9.78-23.53h-.04ZM63.55,266.74c-9.21,0-16.67-7.43-16.67-16.64,0-1.88,1.53-3.41,3.4-3.41s3.38,1.53,3.38,3.41c0,5.45,4.47,9.85,9.92,9.85,1.88,0,3.38,1.53,3.38,3.41s-1.5,3.38-3.38,3.38h-.03Z"/></svg>