<?xml version="1.0" encoding="UTF-8"?><svg id="Layer_1" xmlns="http://www.w3.org/2000/svg" viewBox="0 0 296.75 256.32"><defs><style>.cls-1{fill:#00bde3;}.cls-2{fill:#1b1b1b;}</style></defs><path class="cls-2" d="M212.1,36.96c-3.58,0-6.48-2.9-6.48-6.48V6.48c0-3.58,2.9-6.48,6.48-6.48s6.48,2.9,6.48,6.48v24c0,3.58-2.9,6.48-6.48,6.48ZM254.96,50.9l16.98-16.98c2.52-2.52,2.52-6.61,0-9.14-2.52-2.52-6.61-2.52-9.14,0l-16.98,16.98c-2.52,2.52-2.52,6.61,0,9.14,1.26,1.26,2.93,1.91,4.57,1.91s3.31-.61,4.57-1.88v-.03ZM296.75,84.59c0-3.58-2.9-6.48-6.48-6.48h-24.04c-3.58,0-6.48,2.9-6.48,6.48s2.9,6.48,6.48,6.48h24.04c3.58,0,6.48-2.9,6.48-6.48ZM271.97,144.39c2.52-2.52,2.52-6.62,0-9.14l-16.98-16.98c-2.52-2.52-6.61-2.52-9.14,0-2.52,2.52-2.52,6.62,0,9.14l16.98,16.98c1.26,1.26,2.93,1.88,4.57,1.88s3.31-.65,4.57-1.91v.04ZM178.39,50.9c2.52-2.52,2.52-6.61,0-9.14l-16.98-16.98c-2.52-2.52-6.61-2.52-9.14,0-2.52,2.52-2.52,6.61,0,9.14l16.98,16.98c1.26,1.26,2.93,1.88,4.57,1.88s3.31-.61,4.57-1.91v.03ZM212.14,44.6c-18.34,0-33.78,12.34-38.52,29.15h35.35c7.5,0,13.81,5.56,14.32,12.65l2.66,35.7c15.27-5.63,26.22-20.29,26.22-37.5,0-22.09-17.93-39.99-40.06-39.99h.03Z"/><path class="cls-1" d="M37.89,106.99h43.43l-1.57,39.89h-44.66l2.79-39.89ZM89.54,199.31h46.33l-.68-42.82h-44.97l-.68,42.82ZM32.23,199.31h46.33l.99-42.82h-44.97l-2.35,42.82ZM90.39,146.88h44.66v-39.89h-43.4l-1.26,39.89ZM188.78,106.99h-43.43l.27,39.89h44.66l-1.53-39.89h.03ZM190.86,156.49h-44.97l.99,42.82h46.33l-2.32-42.82h-.03Z"/><path class="cls-2" d="M214.46,87.04c-.17-2.46-2.66-4.47-5.49-4.47H18.26c-2.86,0-5.32,1.98-5.49,4.47L.02,222.91c-.24,3,2.15,5.42,5.32,5.42h78.75v15.21h-13.74v12.79h84.79v-12.79h-13.74v-15.21h77.97c3.17,0,5.52-2.42,5.32-5.42l-10.16-135.86h-.07ZM20.61,209.65l7.57-111.62h170.39l6.27,111.62H20.61Z"/></svg>