<?xml version="1.0" encoding="UTF-8"?><svg id="Layer_1" xmlns="http://www.w3.org/2000/svg" viewBox="0 0 120.15 128.37"><defs><style>.cls-1{fill:#00a91c;}.cls-2{fill:#1b1b1b;}</style></defs><path class="cls-2" d="M113.23,114.63h-17.7c-1.97,0-3.54-1.6-3.54-3.54s1.6-3.54,3.54-3.54h16.21v-36.49h1.48c3.78,0,6.87-3.08,6.87-6.87,0-3.57-2.72-6.47-6.2-6.81h-18.33c-1.97,0-3.54-1.57-3.54-3.54s1.6-3.54,3.54-3.54h16.21V13.74h1.48c3.78,0,6.87-3.09,6.87-6.87s-3.08-6.87-6.87-6.87H6.87C3.08,0,0,3.09,0,6.87s3.08,6.87,6.87,6.87h1.48v36.58h16.09c1.97,0,3.54,1.6,3.54,3.54s-1.6,3.54-3.54,3.54H6.23C2.75,57.73.03,60.63.03,64.2c0,3.78,3.09,6.87,6.87,6.87h1.48v36.49h16.09c1.97,0,3.54,1.6,3.54,3.54s-1.6,3.54-3.54,3.54H6.9c-3.78,0-6.87,3.09-6.87,6.87s3.09,6.87,6.87,6.87h106.39c3.78,0,6.87-3.09,6.87-6.87s-3.09-6.87-6.87-6.87h-.06Z"/><path class="cls-1" d="M73.42,54.91c4.75,7.23,9.26,14.1,9.26,22.24,0,12.46-10.16,22.57-22.63,22.57s-22.63-10.1-22.63-22.57c0-7.99,4.14-14.19,8.92-21.39,5.02-7.44,10.71-13.86,12.55-26.2.09-.54.54-1,1.15-1,.54,0,1.06.42,1.15,1,1.82,11.5,7.35,17.94,12.22,25.38v-.03ZM63.22,89.7c0-1.78-1.42-3.24-3.18-3.24-5.14,0-9.35-4.17-9.35-9.32,0-1.79-1.42-3.24-3.18-3.24s-3.24,1.45-3.24,3.24c0,8.68,7.08,15.73,15.76,15.73,1.78,0,3.18-1.42,3.18-3.18Z"/><path class="cls-2" d="M60.05,86.47c1.78,0,3.18,1.45,3.18,3.24s-1.42,3.18-3.18,3.18c-8.68,0-15.76-7.05-15.76-15.73,0-1.79,1.42-3.24,3.24-3.24s3.18,1.45,3.18,3.24c0,5.14,4.2,9.32,9.35,9.32Z"/></svg>