<svg width="821" height="387" viewBox="0 0 821 387" fill="none" xmlns="http://www.w3.org/2000/svg">
<rect width="110" height="15" transform="matrix(-1 8.74228e-08 8.74228e-08 1 820.844 0)" fill="#274863"/>
<rect width="110" height="15" transform="matrix(-1 6.56737e-08 1.16374e-07 1 702.37 0)" fill="#2C608A"/>
<rect width="110" height="15" transform="matrix(-1 6.56737e-08 1.16374e-07 1 583.896 0)" fill="#2378C3"/>
<rect width="110" height="15" transform="matrix(-1 6.56737e-08 1.16374e-07 1 465.422 0)" fill="#4F97D1"/>
<rect x="-0.5" y="0.5" width="109" height="14" transform="matrix(-1 6.56737e-08 1.16374e-07 1 345.948 3.28368e-08)" fill="#73B3E7" stroke="#274863"/>
<rect x="-0.5" y="0.5" width="109" height="14" transform="matrix(-1 6.56737e-08 1.16374e-07 1 227.474 3.28368e-08)" fill="#AACDEC" stroke="#274863"/>
<rect x="-0.5" y="0.5" width="109" height="14" transform="matrix(-1 6.56737e-08 1.16374e-07 1 109 3.28368e-08)" fill="#D9E8F6" stroke="#274863"/>
<text fill="#1B1B1B" xml:space="preserve" style="white-space: pre" font-family="Source Sans Pro" font-size="14" font-weight="600" letter-spacing="0em"><tspan x="0" y="36.477">#D9E8F6&#10;</tspan><tspan x="0" y="57.477">(border: #274863)</tspan></text>
<text fill="#1B1B1B" xml:space="preserve" style="white-space: pre" font-family="Source Sans Pro" font-size="14" font-weight="600" letter-spacing="0em"><tspan x="118.5" y="36.477">#AACDEC&#10;</tspan><tspan x="118.5" y="57.477">(border: #274863)</tspan></text>
<text fill="#1B1B1B" xml:space="preserve" style="white-space: pre" font-family="Source Sans Pro" font-size="14" font-weight="600" letter-spacing="0em"><tspan x="236.5" y="36.477">#73B3E7&#10;</tspan><tspan x="236.5" y="57.477">(border: #274863)</tspan></text>
<text fill="#1B1B1B" xml:space="preserve" style="white-space: pre" font-family="Source Sans Pro" font-size="14" font-weight="600" letter-spacing="0em"><tspan x="355.5" y="36.477">#4F97D1</tspan></text>
<text fill="#1B1B1B" xml:space="preserve" style="white-space: pre" font-family="Source Sans Pro" font-size="14" font-weight="600" letter-spacing="0em"><tspan x="474" y="36.477">#2378C3</tspan></text>
<text fill="#1B1B1B" xml:space="preserve" style="white-space: pre" font-family="Source Sans Pro" font-size="14" font-weight="600" letter-spacing="0em"><tspan x="592.5" y="36.477">#2C608A</tspan></text>
<text fill="#1B1B1B" xml:space="preserve" style="white-space: pre" font-family="Source Sans Pro" font-size="14" font-weight="600" letter-spacing="0em"><tspan x="711" y="36.477">#274863</tspan></text>
<rect width="110" height="15" transform="matrix(-1 8.74228e-08 8.74228e-08 1 702.37 81)" fill="#2C608A"/>
<rect width="110" height="15" transform="matrix(-1 6.56737e-08 1.16374e-07 1 583.896 81)" fill="#2378C3"/>
<rect width="110" height="15" transform="matrix(-1 6.56737e-08 1.16374e-07 1 465.422 81)" fill="#4F97D1"/>
<rect x="-0.5" y="0.5" width="109" height="14" transform="matrix(-1 6.56737e-08 1.16374e-07 1 345.948 81)" fill="#73B3E7" stroke="#274863"/>
<rect x="-0.5" y="0.5" width="109" height="14" transform="matrix(-1 6.56737e-08 1.16374e-07 1 227.474 81)" fill="#AACDEC" stroke="#274863"/>
<rect x="-0.5" y="0.5" width="109" height="14" transform="matrix(-1 6.56737e-08 1.16374e-07 1 109 81)" fill="#D9E8F6" stroke="#274863"/>
<text fill="#1B1B1B" xml:space="preserve" style="white-space: pre" font-family="Source Sans Pro" font-size="14" font-weight="600" letter-spacing="0em"><tspan x="0" y="117.477">#D9E8F6&#10;</tspan><tspan x="0" y="138.477">(border: #274863)</tspan></text>
<text fill="#1B1B1B" xml:space="preserve" style="white-space: pre" font-family="Source Sans Pro" font-size="14" font-weight="600" letter-spacing="0em"><tspan x="118.5" y="117.477">#AACDEC&#10;</tspan><tspan x="118.5" y="138.477">(border: #274863)</tspan></text>
<text fill="#1B1B1B" xml:space="preserve" style="white-space: pre" font-family="Source Sans Pro" font-size="14" font-weight="600" letter-spacing="0em"><tspan x="236.5" y="117.477">#73B3E7&#10;</tspan><tspan x="236.5" y="138.477">(border: #274863)</tspan></text>
<text fill="#1B1B1B" xml:space="preserve" style="white-space: pre" font-family="Source Sans Pro" font-size="14" font-weight="600" letter-spacing="0em"><tspan x="355.5" y="117.477">#4F97D1</tspan></text>
<text fill="#1B1B1B" xml:space="preserve" style="white-space: pre" font-family="Source Sans Pro" font-size="14" font-weight="600" letter-spacing="0em"><tspan x="474" y="117.477">#2378C3</tspan></text>
<text fill="#1B1B1B" xml:space="preserve" style="white-space: pre" font-family="Source Sans Pro" font-size="14" font-weight="600" letter-spacing="0em"><tspan x="592.5" y="117.477">#2C608A</tspan></text>
<rect width="110" height="15" transform="matrix(-1 8.74228e-08 8.74228e-08 1 583.896 162)" fill="#2378C3"/>
<rect width="110" height="15" transform="matrix(-1 6.56737e-08 1.16374e-07 1 465.422 162)" fill="#4F97D1"/>
<rect x="-0.5" y="0.5" width="109" height="14" transform="matrix(-1 6.56737e-08 1.16374e-07 1 345.948 162)" fill="#73B3E7" stroke="#274863"/>
<rect x="-0.5" y="0.5" width="109" height="14" transform="matrix(-1 6.56737e-08 1.16374e-07 1 227.474 162)" fill="#AACDEC" stroke="#274863"/>
<rect x="-0.5" y="0.5" width="109" height="14" transform="matrix(-1 6.56737e-08 1.16374e-07 1 109 162)" fill="#D9E8F6" stroke="#274863"/>
<text fill="#1B1B1B" xml:space="preserve" style="white-space: pre" font-family="Source Sans Pro" font-size="14" font-weight="600" letter-spacing="0em"><tspan x="0" y="198.477">#D9E8F6&#10;</tspan><tspan x="0" y="219.477">(border: #274863)</tspan></text>
<text fill="#1B1B1B" xml:space="preserve" style="white-space: pre" font-family="Source Sans Pro" font-size="14" font-weight="600" letter-spacing="0em"><tspan x="118.5" y="198.477">#AACDEC&#10;</tspan><tspan x="118.5" y="219.477">(border: #274863)</tspan></text>
<text fill="#1B1B1B" xml:space="preserve" style="white-space: pre" font-family="Source Sans Pro" font-size="14" font-weight="600" letter-spacing="0em"><tspan x="236.5" y="198.477">#73B3E7&#10;</tspan><tspan x="236.5" y="219.477">(border: #274863)</tspan></text>
<text fill="#1B1B1B" xml:space="preserve" style="white-space: pre" font-family="Source Sans Pro" font-size="14" font-weight="600" letter-spacing="0em"><tspan x="355.5" y="198.477">#4F97D1</tspan></text>
<text fill="#1B1B1B" xml:space="preserve" style="white-space: pre" font-family="Source Sans Pro" font-size="14" font-weight="600" letter-spacing="0em"><tspan x="474" y="198.477">#2378C3</tspan></text>
<rect width="110" height="15" transform="matrix(-1 8.74228e-08 8.74228e-08 1 465.422 243)" fill="#4F97D1"/>
<rect x="-0.5" y="0.5" width="109" height="14" transform="matrix(-1 6.56737e-08 1.16374e-07 1 345.948 243)" fill="#73B3E7" stroke="#274863"/>
<rect x="-0.5" y="0.5" width="109" height="14" transform="matrix(-1 6.56737e-08 1.16374e-07 1 227.474 243)" fill="#AACDEC" stroke="#274863"/>
<rect x="-0.5" y="0.5" width="109" height="14" transform="matrix(-1 6.56737e-08 1.16374e-07 1 109 243)" fill="#D9E8F6" stroke="#274863"/>
<text fill="#1B1B1B" xml:space="preserve" style="white-space: pre" font-family="Source Sans Pro" font-size="14" font-weight="600" letter-spacing="0em"><tspan x="0" y="279.477">#D9E8F6&#10;</tspan><tspan x="0" y="300.477">(border: #274863)</tspan></text>
<text fill="#1B1B1B" xml:space="preserve" style="white-space: pre" font-family="Source Sans Pro" font-size="14" font-weight="600" letter-spacing="0em"><tspan x="118.5" y="279.477">#AACDEC&#10;</tspan><tspan x="118.5" y="300.477">(border: #274863)</tspan></text>
<text fill="#1B1B1B" xml:space="preserve" style="white-space: pre" font-family="Source Sans Pro" font-size="14" font-weight="600" letter-spacing="0em"><tspan x="236.5" y="279.477">#73B3E7&#10;</tspan><tspan x="236.5" y="300.477">(border: #274863)</tspan></text>
<text fill="#1B1B1B" xml:space="preserve" style="white-space: pre" font-family="Source Sans Pro" font-size="14" font-weight="600" letter-spacing="0em"><tspan x="355.5" y="279.477">#4F97D1</tspan></text>
<rect x="-0.5" y="0.5" width="109" height="14" transform="matrix(-1 8.74228e-08 8.74228e-08 1 346 324)" fill="#73B3E7" stroke="#274863"/>
<rect x="-0.5" y="0.5" width="109" height="14" transform="matrix(-1 6.56737e-08 1.16374e-07 1 227.474 324)" fill="#AACDEC" stroke="#274863"/>
<rect x="-0.5" y="0.5" width="109" height="14" transform="matrix(-1 6.56737e-08 1.16374e-07 1 109 324)" fill="#D9E8F6" stroke="#274863"/>
<text fill="#1B1B1B" xml:space="preserve" style="white-space: pre" font-family="Source Sans Pro" font-size="14" font-weight="600" letter-spacing="0em"><tspan x="0" y="360.477">#D9E8F6&#10;</tspan><tspan x="0" y="381.477">(border: #274863)</tspan></text>
<text fill="#1B1B1B" xml:space="preserve" style="white-space: pre" font-family="Source Sans Pro" font-size="14" font-weight="600" letter-spacing="0em"><tspan x="118.5" y="360.477">#AACDEC&#10;</tspan><tspan x="118.5" y="381.477">(border: #274863)</tspan></text>
<text fill="#1B1B1B" xml:space="preserve" style="white-space: pre" font-family="Source Sans Pro" font-size="14" font-weight="600" letter-spacing="0em"><tspan x="237.5" y="360.477">#73B3E7&#10;</tspan><tspan x="237.5" y="381.477">(border: #274863)</tspan></text>
</svg>
