<svg width="740" height="200" viewBox="0 0 740 200" fill="none" xmlns="http://www.w3.org/2000/svg">
<text fill="#1B1B1B" xml:space="preserve" style="white-space: pre" font-family="Source Sans Pro" font-size="12" font-weight="600" letter-spacing="0em"><tspan x="630" y="13.266">Other</tspan></text>
<rect x="-0.5" y="0.5" width="109" height="14" transform="matrix(-1 6.56737e-08 1.16374e-07 1 739 26)" fill="#C9C9C9" stroke="#2E2E2E"/>
<rect width="110" height="15" transform="matrix(-1 6.56737e-08 1.16374e-07 1 614 26)" fill="#EF5E25"/>
<rect width="110" height="15" transform="matrix(-1 6.56737e-08 1.16374e-07 1 488 26)" fill="#5C5C5C"/>
<rect width="110" height="15" transform="matrix(-1 6.56737e-08 1.16374e-07 1 362 26)" fill="#919191"/>
<rect width="110" height="15" transform="matrix(-1 6.56737e-08 1.16374e-07 1 236 26)" fill="#2E2E2E"/>
<rect width="110" height="15" transform="matrix(-1 6.56737e-08 1.16374e-07 1 110 26)" fill="#2378C3"/>
<text fill="#1B1B1B" xml:space="preserve" style="white-space: pre" font-family="Source Sans Pro" font-size="14" font-weight="600" letter-spacing="0em"><tspan x="0" y="64.477">#2378C3</tspan></text>
<text fill="#1B1B1B" xml:space="preserve" style="white-space: pre" font-family="Source Sans Pro" font-size="14" font-weight="600" letter-spacing="0em"><tspan x="126" y="64.477">#2E2E2E</tspan></text>
<text fill="#1B1B1B" xml:space="preserve" style="white-space: pre" font-family="Source Sans Pro" font-size="14" font-weight="600" letter-spacing="0em"><tspan x="252" y="64.477">#919191</tspan></text>
<text fill="#1B1B1B" xml:space="preserve" style="white-space: pre" font-family="Source Sans Pro" font-size="14" font-weight="600" letter-spacing="0em"><tspan x="378" y="64.477">#5C5C5C</tspan></text>
<text fill="#1B1B1B" xml:space="preserve" style="white-space: pre" font-family="Source Sans Pro" font-size="14" font-weight="600" letter-spacing="0em"><tspan x="504" y="64.477">#EF5E25</tspan></text>
<text fill="#1B1B1B" xml:space="preserve" style="white-space: pre" font-family="Source Sans Pro" font-size="14" font-weight="600" letter-spacing="0em"><tspan x="630" y="64.477">#C9C9C9&#10;</tspan><tspan x="630" y="85.477">(border: #2E2E2E)</tspan></text>
<text fill="#1B1B1B" xml:space="preserve" style="white-space: pre" font-family="Source Sans Pro" font-size="12" font-weight="600" letter-spacing="0em"><tspan x="630" y="122.266">Other</tspan></text>
<rect x="-0.5" y="0.5" width="109" height="14" transform="matrix(-1 6.56737e-08 1.16374e-07 1 739 135)" fill="#C9C9C9" stroke="#2E2E2E"/>
<rect width="110" height="15" transform="matrix(-1 6.56737e-08 1.16374e-07 1 614 135)" fill="#8A984B"/>
<rect width="110" height="15" transform="matrix(-1 6.56737e-08 1.16374e-07 1 488 135)" fill="#EF5E25"/>
<rect width="110" height="15" transform="matrix(-1 6.56737e-08 1.16374e-07 1 362 135)" fill="#9287D8"/>
<rect width="110" height="15" transform="matrix(-1 6.56737e-08 1.16374e-07 1 236 135)" fill="#5C5C5C"/>
<rect width="110" height="15" transform="matrix(-1 6.56737e-08 1.16374e-07 1 110 135)" fill="#2378C3"/>
<text fill="#1B1B1B" xml:space="preserve" style="white-space: pre" font-family="Source Sans Pro" font-size="14" font-weight="600" letter-spacing="0em"><tspan x="0" y="173.477">#2378C3</tspan></text>
<text fill="#1B1B1B" xml:space="preserve" style="white-space: pre" font-family="Source Sans Pro" font-size="14" font-weight="600" letter-spacing="0em"><tspan x="126" y="173.477">#5C5C5C</tspan></text>
<text fill="#1B1B1B" xml:space="preserve" style="white-space: pre" font-family="Source Sans Pro" font-size="14" font-weight="600" letter-spacing="0em"><tspan x="252" y="173.477">#9287D8</tspan></text>
<text fill="#1B1B1B" xml:space="preserve" style="white-space: pre" font-family="Source Sans Pro" font-size="14" font-weight="600" letter-spacing="0em"><tspan x="378" y="173.477">#EF5E25</tspan></text>
<text fill="#1B1B1B" xml:space="preserve" style="white-space: pre" font-family="Source Sans Pro" font-size="14" font-weight="600" letter-spacing="0em"><tspan x="504" y="173.477">#8A984B</tspan></text>
<text fill="#1B1B1B" xml:space="preserve" style="white-space: pre" font-family="Source Sans Pro" font-size="14" font-weight="600" letter-spacing="0em"><tspan x="630" y="173.477">#C9C9C9&#10;</tspan><tspan x="630" y="194.477">(border: #2E2E2E)</tspan></text>
</svg>
